G04 #@! TF.GenerationSoftware,KiCad,Pcbnew,8.0.6*
G04 #@! TF.CreationDate,2024-12-02T18:43:07+01:00*
G04 #@! TF.ProjectId,vga_drv,7667615f-6472-4762-9e6b-696361645f70,rev?*
G04 #@! TF.SameCoordinates,PX3072580PY3a22d00*
G04 #@! TF.FileFunction,Copper,L2,Bot*
G04 #@! TF.FilePolarity,Positive*
%FSLAX46Y46*%
G04 Gerber Fmt 4.6, Leading zero omitted, Abs format (unit mm)*
G04 Created by KiCad (PCBNEW 8.0.6) date 2024-12-02 18:43:07*
%MOMM*%
%LPD*%
G01*
G04 APERTURE LIST*
G04 #@! TA.AperFunction,ComponentPad*
%ADD10C,2.400000*%
G04 #@! TD*
G04 #@! TA.AperFunction,ComponentPad*
%ADD11O,2.400000X2.400000*%
G04 #@! TD*
G04 #@! TA.AperFunction,ComponentPad*
%ADD12R,1.524000X1.524000*%
G04 #@! TD*
G04 #@! TA.AperFunction,ComponentPad*
%ADD13C,1.524000*%
G04 #@! TD*
G04 #@! TA.AperFunction,ComponentPad*
%ADD14O,1.700000X1.700000*%
G04 #@! TD*
G04 #@! TA.AperFunction,ComponentPad*
%ADD15R,1.700000X1.700000*%
G04 #@! TD*
G04 #@! TA.AperFunction,ComponentPad*
%ADD16C,4.000000*%
G04 #@! TD*
G04 #@! TA.AperFunction,ComponentPad*
%ADD17R,1.600000X1.600000*%
G04 #@! TD*
G04 #@! TA.AperFunction,ComponentPad*
%ADD18C,1.600000*%
G04 #@! TD*
G04 #@! TA.AperFunction,ViaPad*
%ADD19C,2.200000*%
G04 #@! TD*
G04 #@! TA.AperFunction,Conductor*
%ADD20C,0.600000*%
G04 #@! TD*
G04 #@! TA.AperFunction,Conductor*
%ADD21C,1.000000*%
G04 #@! TD*
G04 #@! TA.AperFunction,Conductor*
%ADD22C,0.500000*%
G04 #@! TD*
G04 APERTURE END LIST*
D10*
G04 #@! TO.P,R7,1*
G04 #@! TO.N,+3.3v*
X45720000Y-54610000D03*
D11*
G04 #@! TO.P,R7,2*
G04 #@! TO.N,Net-(U1-GPIO1)*
X45720000Y-39370000D03*
G04 #@! TD*
G04 #@! TO.P,R6,2*
G04 #@! TO.N,Net-(U1-GPIO0)*
X40640000Y-39370000D03*
D10*
G04 #@! TO.P,R6,1*
G04 #@! TO.N,+3.3v*
X40640000Y-54610000D03*
G04 #@! TD*
D11*
G04 #@! TO.P,R5,2*
G04 #@! TO.N,+5v*
X76200000Y-54610000D03*
D10*
G04 #@! TO.P,R5,1*
G04 #@! TO.N,/SCL*
X76200000Y-39370000D03*
G04 #@! TD*
D11*
G04 #@! TO.P,R4,2*
G04 #@! TO.N,+5v*
X71120000Y-54610000D03*
D10*
G04 #@! TO.P,R4,1*
G04 #@! TO.N,/SDA*
X71120000Y-39370000D03*
G04 #@! TD*
D11*
G04 #@! TO.P,R3,2*
G04 #@! TO.N,/R*
X16510000Y-39370000D03*
D10*
G04 #@! TO.P,R3,1*
G04 #@! TO.N,Net-(U1-GPIO18)*
X31750000Y-39370000D03*
G04 #@! TD*
D11*
G04 #@! TO.P,R2,2*
G04 #@! TO.N,Net-(U1-GPIO19)*
X31750000Y-44450000D03*
D10*
G04 #@! TO.P,R2,1*
G04 #@! TO.N,/G*
X16510000Y-44450000D03*
G04 #@! TD*
D11*
G04 #@! TO.P,R1,2*
G04 #@! TO.N,Net-(U1-GPIO20)*
X31750000Y-49530000D03*
D10*
G04 #@! TO.P,R1,1*
G04 #@! TO.N,/B*
X16510000Y-49530000D03*
G04 #@! TD*
D12*
G04 #@! TO.P,U2,LV1,LV1*
G04 #@! TO.N,Net-(U1-GPIO0)*
X53340000Y-40640000D03*
D13*
G04 #@! TO.P,U2,LV2,LV2*
G04 #@! TO.N,Net-(U1-GPIO1)*
X53340000Y-43180000D03*
G04 #@! TO.P,U2,LV,LV*
G04 #@! TO.N,+3.3v*
X53340000Y-45720000D03*
G04 #@! TO.P,U2,GND_2,GND__1*
G04 #@! TO.N,GND*
X53340000Y-48260000D03*
G04 #@! TO.P,U2,LV3,LV3*
G04 #@! TO.N,unconnected-(U2-PadLV3)*
X53340000Y-50800000D03*
G04 #@! TO.P,U2,LV4,LV4*
G04 #@! TO.N,unconnected-(U2-PadLV4)*
X53340000Y-53340000D03*
D12*
G04 #@! TO.P,U2,HV1,HV1*
G04 #@! TO.N,/SCL*
X63500000Y-40640000D03*
D13*
G04 #@! TO.P,U2,HV2,HV2*
G04 #@! TO.N,/SDA*
X63500000Y-43180000D03*
G04 #@! TO.P,U2,HV,HV*
G04 #@! TO.N,+5v*
X63500000Y-45720000D03*
G04 #@! TO.P,U2,GND_1,GND*
G04 #@! TO.N,GND*
X63500000Y-48260000D03*
G04 #@! TO.P,U2,HV3,HV3*
G04 #@! TO.N,unconnected-(U2-PadHV3)*
X63500000Y-50800000D03*
G04 #@! TO.P,U2,HV4,HV4*
G04 #@! TO.N,unconnected-(U2-PadHV4)*
X63500000Y-53340000D03*
G04 #@! TD*
D14*
G04 #@! TO.P,U1,43,SWDIO*
G04 #@! TO.N,unconnected-(U1-SWDIO-Pad43)*
X28170000Y-20320000D03*
D15*
G04 #@! TO.P,U1,42,GND*
G04 #@! TO.N,unconnected-(U1-GND-Pad42)*
X28170000Y-17780000D03*
D14*
G04 #@! TO.P,U1,41,SWCLK*
G04 #@! TO.N,unconnected-(U1-SWCLK-Pad41)*
X28170000Y-15240000D03*
G04 #@! TO.P,U1,40,VBUS*
G04 #@! TO.N,unconnected-(U1-VBUS-Pad40)*
X76200000Y-26670000D03*
G04 #@! TO.P,U1,39,VSYS*
G04 #@! TO.N,+5v*
X73660000Y-26670000D03*
D15*
G04 #@! TO.P,U1,38,GND*
G04 #@! TO.N,GND*
X71120000Y-26670000D03*
D14*
G04 #@! TO.P,U1,37,3V3_EN*
G04 #@! TO.N,unconnected-(U1-3V3_EN-Pad37)*
X68580000Y-26670000D03*
G04 #@! TO.P,U1,36,3V3*
G04 #@! TO.N,+3.3v*
X66040000Y-26670000D03*
G04 #@! TO.P,U1,35,ADC_VREF*
G04 #@! TO.N,unconnected-(U1-ADC_VREF-Pad35)*
X63500000Y-26670000D03*
G04 #@! TO.P,U1,34,GPIO28_ADC2*
G04 #@! TO.N,unconnected-(U1-GPIO28_ADC2-Pad34)*
X60960000Y-26670000D03*
D15*
G04 #@! TO.P,U1,33,AGND*
G04 #@! TO.N,unconnected-(U1-AGND-Pad33)*
X58420000Y-26670000D03*
D14*
G04 #@! TO.P,U1,32,GPIO27_ADC1*
G04 #@! TO.N,unconnected-(U1-GPIO27_ADC1-Pad32)*
X55880000Y-26670000D03*
G04 #@! TO.P,U1,31,GPIO26_ADC0*
G04 #@! TO.N,unconnected-(U1-GPIO26_ADC0-Pad31)*
X53340000Y-26670000D03*
G04 #@! TO.P,U1,30,RUN*
G04 #@! TO.N,unconnected-(U1-RUN-Pad30)*
X50800000Y-26670000D03*
G04 #@! TO.P,U1,29,GPIO22*
G04 #@! TO.N,unconnected-(U1-GPIO22-Pad29)*
X48260000Y-26670000D03*
D15*
G04 #@! TO.P,U1,28,GND*
G04 #@! TO.N,GND*
X45720000Y-26670000D03*
D14*
G04 #@! TO.P,U1,27,GPIO21*
G04 #@! TO.N,unconnected-(U1-GPIO21-Pad27)*
X43180000Y-26670000D03*
G04 #@! TO.P,U1,26,GPIO20*
G04 #@! TO.N,Net-(U1-GPIO20)*
X40640000Y-26670000D03*
G04 #@! TO.P,U1,25,GPIO19*
G04 #@! TO.N,Net-(U1-GPIO19)*
X38100000Y-26670000D03*
G04 #@! TO.P,U1,24,GPIO18*
G04 #@! TO.N,Net-(U1-GPIO18)*
X35560000Y-26670000D03*
D15*
G04 #@! TO.P,U1,23,GND*
G04 #@! TO.N,GND*
X33020000Y-26670000D03*
D14*
G04 #@! TO.P,U1,22,GPIO17*
G04 #@! TO.N,/H-Sync*
X30480000Y-26670000D03*
G04 #@! TO.P,U1,21,GPIO16*
G04 #@! TO.N,/V-Sync*
X27940000Y-26670000D03*
G04 #@! TO.P,U1,20,GPIO15*
G04 #@! TO.N,unconnected-(U1-GPIO15-Pad20)*
X27940000Y-8890000D03*
G04 #@! TO.P,U1,19,GPIO14*
G04 #@! TO.N,unconnected-(U1-GPIO14-Pad19)*
X30480000Y-8890000D03*
D15*
G04 #@! TO.P,U1,18,GND*
G04 #@! TO.N,GND*
X33020000Y-8890000D03*
D14*
G04 #@! TO.P,U1,17,GPIO13*
G04 #@! TO.N,unconnected-(U1-GPIO13-Pad17)*
X35560000Y-8890000D03*
G04 #@! TO.P,U1,16,GPIO12*
G04 #@! TO.N,unconnected-(U1-GPIO12-Pad16)*
X38100000Y-8890000D03*
G04 #@! TO.P,U1,15,GPIO11*
G04 #@! TO.N,unconnected-(U1-GPIO11-Pad15)*
X40640000Y-8890000D03*
G04 #@! TO.P,U1,14,GPIO10*
G04 #@! TO.N,unconnected-(U1-GPIO10-Pad14)*
X43180000Y-8890000D03*
D15*
G04 #@! TO.P,U1,13,GND*
G04 #@! TO.N,unconnected-(U1-GND-Pad13)*
X45720000Y-8890000D03*
D14*
G04 #@! TO.P,U1,12,GPIO9*
G04 #@! TO.N,unconnected-(U1-GPIO9-Pad12)*
X48260000Y-8890000D03*
G04 #@! TO.P,U1,11,GPIO8*
G04 #@! TO.N,unconnected-(U1-GPIO8-Pad11)*
X50800000Y-8890000D03*
G04 #@! TO.P,U1,10,GPIO7*
G04 #@! TO.N,unconnected-(U1-GPIO7-Pad10)*
X53340000Y-8890000D03*
G04 #@! TO.P,U1,9,GPIO6*
G04 #@! TO.N,unconnected-(U1-GPIO6-Pad9)*
X55880000Y-8890000D03*
D15*
G04 #@! TO.P,U1,8,GND*
G04 #@! TO.N,unconnected-(U1-GND-Pad8)*
X58420000Y-8890000D03*
D14*
G04 #@! TO.P,U1,7,GPIO5*
G04 #@! TO.N,unconnected-(U1-GPIO5-Pad7)*
X60960000Y-8890000D03*
G04 #@! TO.P,U1,6,GPIO4*
G04 #@! TO.N,unconnected-(U1-GPIO4-Pad6)*
X63500000Y-8890000D03*
G04 #@! TO.P,U1,5,GPIO3*
G04 #@! TO.N,unconnected-(U1-GPIO3-Pad5)*
X66040000Y-8890000D03*
G04 #@! TO.P,U1,4,GPIO2*
G04 #@! TO.N,unconnected-(U1-GPIO2-Pad4)*
X68580000Y-8890000D03*
D15*
G04 #@! TO.P,U1,3,GND*
G04 #@! TO.N,unconnected-(U1-GND-Pad3)*
X71120000Y-8890000D03*
D14*
G04 #@! TO.P,U1,2,GPIO1*
G04 #@! TO.N,Net-(U1-GPIO1)*
X73660000Y-8890000D03*
G04 #@! TO.P,U1,1,GPIO0*
G04 #@! TO.N,Net-(U1-GPIO0)*
X76200000Y-8890000D03*
G04 #@! TD*
D16*
G04 #@! TO.P,J1,0*
G04 #@! TO.N,GND*
X18350331Y-5265000D03*
X18350331Y-30265000D03*
D17*
G04 #@! TO.P,J1,1*
G04 #@! TO.N,/R*
X19770331Y-22080000D03*
D18*
G04 #@! TO.P,J1,2*
G04 #@! TO.N,/G*
X19770331Y-19790000D03*
G04 #@! TO.P,J1,3*
G04 #@! TO.N,/B*
X19770331Y-17500000D03*
G04 #@! TO.P,J1,4*
G04 #@! TO.N,unconnected-(J1-Pad4)*
X19770331Y-15210000D03*
G04 #@! TO.P,J1,5*
G04 #@! TO.N,GND*
X19770331Y-12920000D03*
G04 #@! TO.P,J1,6*
X17790331Y-23225000D03*
G04 #@! TO.P,J1,7*
X17790331Y-20935000D03*
G04 #@! TO.P,J1,8*
X17790331Y-18645000D03*
G04 #@! TO.P,J1,9*
X17790331Y-16355000D03*
G04 #@! TO.P,J1,10*
X17790331Y-14065000D03*
G04 #@! TO.P,J1,11*
G04 #@! TO.N,unconnected-(J1-Pad11)*
X15810331Y-22080000D03*
G04 #@! TO.P,J1,12*
G04 #@! TO.N,unconnected-(J1-Pad12)*
X15810331Y-19790000D03*
G04 #@! TO.P,J1,13*
G04 #@! TO.N,/H-Sync*
X15810331Y-17500000D03*
G04 #@! TO.P,J1,14*
G04 #@! TO.N,/V-Sync*
X15810331Y-15210000D03*
G04 #@! TO.P,J1,15*
G04 #@! TO.N,unconnected-(J1-Pad15)*
X15810331Y-12920000D03*
G04 #@! TD*
D15*
G04 #@! TO.P,J2,1,Pin_1*
G04 #@! TO.N,+5v*
X85090000Y-31750000D03*
D14*
G04 #@! TO.P,J2,2,Pin_2*
G04 #@! TO.N,/SDA*
X85090000Y-34290000D03*
G04 #@! TO.P,J2,3,Pin_3*
G04 #@! TO.N,/SCL*
X85090000Y-36830000D03*
G04 #@! TO.P,J2,4,Pin_4*
G04 #@! TO.N,GND*
X85090000Y-39370000D03*
G04 #@! TD*
D19*
G04 #@! TO.N,GND*
X22860000Y-3810000D03*
X33020000Y-3810000D03*
G04 #@! TO.N,Net-(U1-GPIO0)*
X49530000Y-33020000D03*
X49530000Y-20320000D03*
G04 #@! TO.N,Net-(U1-GPIO1)*
X46990000Y-35560000D03*
X46990000Y-19050000D03*
G04 #@! TO.N,/SDA*
X81280000Y-39370000D03*
X81280000Y-34290000D03*
G04 #@! TD*
D20*
G04 #@! TO.N,/V-Sync*
X15780331Y-15240000D02*
X12700000Y-15240000D01*
X25400000Y-5080000D02*
X24130000Y-6350000D01*
X23660000Y-800000D02*
X25400000Y-2540000D01*
X12700000Y-15240000D02*
X12700000Y-800000D01*
X24130000Y-11430000D02*
X30480000Y-11430000D01*
X15810331Y-15210000D02*
X15780331Y-15240000D01*
X30480000Y-11430000D02*
X30480000Y-21590000D01*
X25400000Y-2540000D02*
X25400000Y-5080000D01*
X24130000Y-6350000D02*
X24130000Y-11430000D01*
X27940000Y-24130000D02*
X27940000Y-26670000D01*
X30480000Y-21590000D02*
X27940000Y-24130000D01*
X12700000Y-800000D02*
X23660000Y-800000D01*
D21*
G04 #@! TO.N,GND*
X21405000Y-5265000D02*
X22860000Y-3810000D01*
X33020000Y-8890000D02*
X33020000Y-3810000D01*
X21405000Y-5265000D02*
X18350331Y-5265000D01*
D22*
G04 #@! TO.N,/H-Sync*
X12700000Y-17780000D02*
X12700000Y-54610000D01*
X12700000Y-54610000D02*
X16510000Y-54610000D01*
G04 #@! TO.N,Net-(U1-GPIO0)*
X49530000Y-20320000D02*
X49530000Y-12700000D01*
X49530000Y-12700000D02*
X76200000Y-12700000D01*
X76200000Y-12700000D02*
X76200000Y-8890000D01*
G04 #@! TO.N,Net-(U1-GPIO1)*
X46990000Y-19050000D02*
X46990000Y-11430000D01*
X46990000Y-11430000D02*
X73660000Y-11430000D01*
X73660000Y-11430000D02*
X73660000Y-8890000D01*
D21*
G04 #@! TO.N,GND*
X85090000Y-39370000D02*
X85090000Y-44450000D01*
X81280000Y-48260000D02*
X80010000Y-48260000D01*
X85090000Y-44450000D02*
X81280000Y-48260000D01*
X58420000Y-58690000D02*
X80010000Y-58690000D01*
X80010000Y-58690000D02*
X80010000Y-48260000D01*
X80010000Y-48260000D02*
X63500000Y-48260000D01*
X33020000Y-8890000D02*
X33020000Y-22860000D01*
X33020000Y-22860000D02*
X33020000Y-24130000D01*
X45720000Y-22860000D02*
X33020000Y-22860000D01*
X71120000Y-26670000D02*
X71120000Y-22860000D01*
X45720000Y-22860000D02*
X45720000Y-26670000D01*
X71120000Y-22860000D02*
X45720000Y-22860000D01*
X33020000Y-24130000D02*
X33020000Y-26670000D01*
D20*
G04 #@! TO.N,/SDA*
X81280000Y-34290000D02*
X85090000Y-34290000D01*
X81280000Y-41910000D02*
X81280000Y-39370000D01*
X72390000Y-43180000D02*
X80010000Y-43180000D01*
X80010000Y-43180000D02*
X81280000Y-41910000D01*
X71120000Y-39370000D02*
X71120000Y-41910000D01*
X71120000Y-41910000D02*
X72390000Y-43180000D01*
X63500000Y-43180000D02*
X69850000Y-43180000D01*
X69850000Y-43180000D02*
X71120000Y-41910000D01*
D22*
G04 #@! TO.N,/SCL*
X76200000Y-36830000D02*
X76200000Y-38100000D01*
D20*
X76200000Y-38100000D02*
X76200000Y-39370000D01*
D22*
X76200000Y-36830000D02*
X83820000Y-36830000D01*
X83820000Y-36830000D02*
X85090000Y-36830000D01*
D20*
X69850000Y-36830000D02*
X83820000Y-36830000D01*
X63500000Y-40640000D02*
X66040000Y-40640000D01*
X66040000Y-40640000D02*
X69850000Y-36830000D01*
G04 #@! TO.N,/H-Sync*
X15810331Y-17500000D02*
X12980000Y-17500000D01*
X12980000Y-17500000D02*
X12700000Y-17780000D01*
G04 #@! TO.N,/B*
X24130000Y-20320000D02*
X24130000Y-41910000D01*
X19770331Y-17500000D02*
X21310000Y-17500000D01*
X21310000Y-17500000D02*
X24130000Y-20320000D01*
D22*
X24130000Y-40640000D02*
X24130000Y-20320000D01*
D20*
X16510000Y-49530000D02*
X24130000Y-41910000D01*
X24130000Y-41910000D02*
X24130000Y-40640000D01*
G04 #@! TO.N,/G*
X22860000Y-38100000D02*
X16510000Y-44450000D01*
X22860000Y-21590000D02*
X22860000Y-38100000D01*
X19770331Y-19790000D02*
X21060000Y-19790000D01*
X21060000Y-19790000D02*
X22860000Y-21590000D01*
X22860000Y-36830000D02*
X22860000Y-38100000D01*
D22*
X22860000Y-36830000D02*
X22860000Y-21590000D01*
D20*
G04 #@! TO.N,/R*
X16510000Y-39370000D02*
X16510000Y-40640000D01*
X21590000Y-34290000D02*
X16510000Y-39370000D01*
X21590000Y-23899669D02*
X21590000Y-34290000D01*
X19770331Y-22080000D02*
X21590000Y-23899669D01*
G04 #@! TO.N,Net-(U1-GPIO20)*
X40640000Y-35560000D02*
X40640000Y-26670000D01*
X35560000Y-40640000D02*
X40640000Y-35560000D01*
X35560000Y-45720000D02*
X35560000Y-40640000D01*
X31750000Y-49530000D02*
X35560000Y-45720000D01*
G04 #@! TO.N,Net-(U1-GPIO19)*
X38100000Y-35560000D02*
X38100000Y-26670000D01*
X34290000Y-39370000D02*
X38100000Y-35560000D01*
X34290000Y-41910000D02*
X34290000Y-39370000D01*
X31750000Y-44450000D02*
X34290000Y-41910000D01*
G04 #@! TO.N,Net-(U1-GPIO18)*
X35560000Y-26670000D02*
X35560000Y-35560000D01*
X31750000Y-39370000D02*
X35560000Y-35560000D01*
G04 #@! TO.N,/H-Sync*
X29210000Y-36830000D02*
X29210000Y-53340000D01*
X29210000Y-36830000D02*
X30480000Y-35560000D01*
X30480000Y-26670000D02*
X30480000Y-35560000D01*
X16510000Y-54610000D02*
X27940000Y-54610000D01*
X27940000Y-54610000D02*
X29210000Y-53340000D01*
D22*
G04 #@! TO.N,Net-(U1-GPIO0)*
X44450000Y-33020000D02*
X49530000Y-33020000D01*
X53340000Y-36830000D02*
X53340000Y-38100000D01*
X49530000Y-33020000D02*
X53340000Y-36830000D01*
X43180000Y-34290000D02*
X44450000Y-33020000D01*
G04 #@! TO.N,Net-(U1-GPIO1)*
X45720000Y-36830000D02*
X46990000Y-35560000D01*
X45720000Y-39370000D02*
X45720000Y-36830000D01*
G04 #@! TO.N,Net-(U1-GPIO0)*
X53340000Y-40640000D02*
X53340000Y-38100000D01*
D21*
G04 #@! TO.N,GND*
X67310000Y-34290000D02*
X59690000Y-34290000D01*
X71120000Y-26670000D02*
X71120000Y-30480000D01*
X35830000Y-58690000D02*
X58420000Y-58690000D01*
X59690000Y-34290000D02*
X58420000Y-35560000D01*
X58420000Y-35560000D02*
X58420000Y-58690000D01*
X71120000Y-30480000D02*
X67310000Y-34290000D01*
G04 #@! TO.N,+3.3v*
X54610000Y-45720000D02*
X55880000Y-44450000D01*
X55880000Y-44450000D02*
X55880000Y-34290000D01*
X55880000Y-34290000D02*
X58420000Y-31750000D01*
X58420000Y-31750000D02*
X64770000Y-31750000D01*
X64770000Y-31750000D02*
X66040000Y-30480000D01*
X66040000Y-30480000D02*
X66040000Y-26670000D01*
G04 #@! TO.N,GND*
X53340000Y-48260000D02*
X39370000Y-48260000D01*
X35560000Y-52070000D02*
X35560000Y-58420000D01*
X39370000Y-48260000D02*
X35560000Y-52070000D01*
X35560000Y-58420000D02*
X35830000Y-58690000D01*
G04 #@! TO.N,+5v*
X74930000Y-24130000D02*
X83820000Y-24130000D01*
X73660000Y-26670000D02*
X73660000Y-25400000D01*
X73660000Y-25400000D02*
X74930000Y-24130000D01*
X83820000Y-24130000D02*
X85090000Y-25400000D01*
X85090000Y-25400000D02*
X85090000Y-31750000D01*
D22*
G04 #@! TO.N,Net-(U1-GPIO1)*
X46990000Y-40640000D02*
X46990000Y-43180000D01*
X45720000Y-39370000D02*
X46990000Y-40640000D01*
X46990000Y-43180000D02*
X53340000Y-43180000D01*
G04 #@! TO.N,/SCL*
X69850000Y-36830000D02*
X76200000Y-36830000D01*
D21*
G04 #@! TO.N,+5v*
X71120000Y-54610000D02*
X76200000Y-54610000D01*
X60960000Y-55880000D02*
X62230000Y-57150000D01*
X62230000Y-45720000D02*
X60960000Y-46990000D01*
X62230000Y-57150000D02*
X68580000Y-57150000D01*
X63500000Y-45720000D02*
X62230000Y-45720000D01*
X60960000Y-46990000D02*
X60960000Y-55880000D01*
X68580000Y-57150000D02*
X71120000Y-54610000D01*
G04 #@! TO.N,+3.3v*
X55880000Y-55880000D02*
X55880000Y-46990000D01*
X45720000Y-54610000D02*
X48260000Y-57150000D01*
X48260000Y-57150000D02*
X54610000Y-57150000D01*
X54610000Y-57150000D02*
X55880000Y-55880000D01*
X55880000Y-46990000D02*
X54610000Y-45720000D01*
X54610000Y-45720000D02*
X53340000Y-45720000D01*
X40640000Y-54610000D02*
X45720000Y-54610000D01*
G04 #@! TO.N,GND*
X17790331Y-20320000D02*
X17790331Y-20935000D01*
X17790331Y-20320000D02*
X17790331Y-23225000D01*
X17790331Y-18645000D02*
X17790331Y-20320000D01*
X17790331Y-16355000D02*
X17790331Y-18645000D01*
X17790331Y-14065000D02*
X17790331Y-16355000D01*
X19770331Y-12920000D02*
X18935331Y-12920000D01*
X18935331Y-12920000D02*
X17790331Y-14065000D01*
X18350331Y-5265000D02*
X18350331Y-11500000D01*
X18350331Y-11500000D02*
X19770331Y-12920000D01*
X18350331Y-30265000D02*
X18350331Y-23785000D01*
X18350331Y-23785000D02*
X17790331Y-23225000D01*
G04 #@! TO.N,+5v*
X62230000Y-45720000D02*
X60960000Y-44450000D01*
X60960000Y-44450000D02*
X60960000Y-39370000D01*
X60960000Y-39370000D02*
X63500000Y-36830000D01*
X63500000Y-36830000D02*
X67945000Y-36830000D01*
X67945000Y-36830000D02*
X73660000Y-31115000D01*
X73660000Y-31115000D02*
X73660000Y-26670000D01*
D22*
G04 #@! TO.N,Net-(U1-GPIO0)*
X43180000Y-36830000D02*
X40640000Y-39370000D01*
X43180000Y-36830000D02*
X43180000Y-34290000D01*
G04 #@! TD*
G04 #@! TA.AperFunction,NonConductor*
G36*
X67403128Y-10053468D02*
G01*
X67404197Y-10054702D01*
X67409311Y-10060689D01*
X67486030Y-10126213D01*
X67527006Y-10161210D01*
X67565199Y-10219717D01*
X67565697Y-10289585D01*
X67528344Y-10348631D01*
X67464997Y-10378109D01*
X67446474Y-10379500D01*
X67173526Y-10379500D01*
X67106487Y-10359815D01*
X67060732Y-10307011D01*
X67050788Y-10237853D01*
X67079813Y-10174297D01*
X67092994Y-10161210D01*
X67133970Y-10126213D01*
X67210689Y-10060689D01*
X67215710Y-10054809D01*
X67274213Y-10016617D01*
X67344081Y-10016116D01*
X67403128Y-10053468D01*
G37*
G04 #@! TD.AperFunction*
G04 #@! TA.AperFunction,NonConductor*
G36*
X64863128Y-10053468D02*
G01*
X64864197Y-10054702D01*
X64869311Y-10060689D01*
X64946030Y-10126213D01*
X64987006Y-10161210D01*
X65025199Y-10219717D01*
X65025697Y-10289585D01*
X64988344Y-10348631D01*
X64924997Y-10378109D01*
X64906474Y-10379500D01*
X64633526Y-10379500D01*
X64566487Y-10359815D01*
X64520732Y-10307011D01*
X64510788Y-10237853D01*
X64539813Y-10174297D01*
X64552994Y-10161210D01*
X64593970Y-10126213D01*
X64670689Y-10060689D01*
X64675710Y-10054809D01*
X64734213Y-10016617D01*
X64804081Y-10016116D01*
X64863128Y-10053468D01*
G37*
G04 #@! TD.AperFunction*
G04 #@! TA.AperFunction,NonConductor*
G36*
X62323128Y-10053468D02*
G01*
X62324197Y-10054702D01*
X62329311Y-10060689D01*
X62406030Y-10126213D01*
X62447006Y-10161210D01*
X62485199Y-10219717D01*
X62485697Y-10289585D01*
X62448344Y-10348631D01*
X62384997Y-10378109D01*
X62366474Y-10379500D01*
X62093526Y-10379500D01*
X62026487Y-10359815D01*
X61980732Y-10307011D01*
X61970788Y-10237853D01*
X61999813Y-10174297D01*
X62012994Y-10161210D01*
X62053970Y-10126213D01*
X62130689Y-10060689D01*
X62135710Y-10054809D01*
X62194213Y-10016617D01*
X62264081Y-10016116D01*
X62323128Y-10053468D01*
G37*
G04 #@! TD.AperFunction*
G04 #@! TA.AperFunction,NonConductor*
G36*
X54703128Y-10053468D02*
G01*
X54704197Y-10054702D01*
X54709311Y-10060689D01*
X54786030Y-10126213D01*
X54827006Y-10161210D01*
X54865199Y-10219717D01*
X54865697Y-10289585D01*
X54828344Y-10348631D01*
X54764997Y-10378109D01*
X54746474Y-10379500D01*
X54473526Y-10379500D01*
X54406487Y-10359815D01*
X54360732Y-10307011D01*
X54350788Y-10237853D01*
X54379813Y-10174297D01*
X54392994Y-10161210D01*
X54433970Y-10126213D01*
X54510689Y-10060689D01*
X54515710Y-10054809D01*
X54574213Y-10016617D01*
X54644081Y-10016116D01*
X54703128Y-10053468D01*
G37*
G04 #@! TD.AperFunction*
G04 #@! TA.AperFunction,NonConductor*
G36*
X52163128Y-10053468D02*
G01*
X52164197Y-10054702D01*
X52169311Y-10060689D01*
X52246030Y-10126213D01*
X52287006Y-10161210D01*
X52325199Y-10219717D01*
X52325697Y-10289585D01*
X52288344Y-10348631D01*
X52224997Y-10378109D01*
X52206474Y-10379500D01*
X51933526Y-10379500D01*
X51866487Y-10359815D01*
X51820732Y-10307011D01*
X51810788Y-10237853D01*
X51839813Y-10174297D01*
X51852994Y-10161210D01*
X51893970Y-10126213D01*
X51970689Y-10060689D01*
X51975710Y-10054809D01*
X52034213Y-10016617D01*
X52104081Y-10016116D01*
X52163128Y-10053468D01*
G37*
G04 #@! TD.AperFunction*
G04 #@! TA.AperFunction,NonConductor*
G36*
X49623128Y-10053468D02*
G01*
X49624197Y-10054702D01*
X49629311Y-10060689D01*
X49706030Y-10126213D01*
X49747006Y-10161210D01*
X49785199Y-10219717D01*
X49785697Y-10289585D01*
X49748344Y-10348631D01*
X49684997Y-10378109D01*
X49666474Y-10379500D01*
X49393526Y-10379500D01*
X49326487Y-10359815D01*
X49280732Y-10307011D01*
X49270788Y-10237853D01*
X49299813Y-10174297D01*
X49312994Y-10161210D01*
X49353970Y-10126213D01*
X49430689Y-10060689D01*
X49435710Y-10054809D01*
X49494213Y-10016617D01*
X49564081Y-10016116D01*
X49623128Y-10053468D01*
G37*
G04 #@! TD.AperFunction*
G04 #@! TA.AperFunction,NonConductor*
G36*
X31549842Y-10255168D02*
G01*
X31568265Y-10270343D01*
X31667738Y-10369816D01*
X31667742Y-10369819D01*
X31672809Y-10373859D01*
X31712952Y-10431046D01*
X31719500Y-10470809D01*
X31719500Y-10922099D01*
X31699815Y-10989138D01*
X31647011Y-11034893D01*
X31577853Y-11044837D01*
X31514297Y-11015812D01*
X31485015Y-10978394D01*
X31421231Y-10853211D01*
X31319414Y-10713072D01*
X31196928Y-10590586D01*
X31196235Y-10590082D01*
X31191038Y-10586306D01*
X31148374Y-10530975D01*
X31142398Y-10461361D01*
X31175006Y-10399568D01*
X31216477Y-10371429D01*
X31231628Y-10365154D01*
X31415795Y-10252296D01*
X31483240Y-10234052D01*
X31549842Y-10255168D01*
G37*
G04 #@! TD.AperFunction*
G04 #@! TA.AperFunction,NonConductor*
G36*
X75023128Y-10053468D02*
G01*
X75024197Y-10054702D01*
X75029311Y-10060689D01*
X75106032Y-10126215D01*
X75144225Y-10184720D01*
X75149500Y-10220504D01*
X75149500Y-11525500D01*
X75129815Y-11592539D01*
X75077011Y-11638294D01*
X75025500Y-11649500D01*
X74834500Y-11649500D01*
X74767461Y-11629815D01*
X74721706Y-11577011D01*
X74710500Y-11525500D01*
X74710500Y-10220504D01*
X74730185Y-10153465D01*
X74753965Y-10126216D01*
X74830689Y-10060689D01*
X74835710Y-10054809D01*
X74894213Y-10016617D01*
X74964081Y-10016116D01*
X75023128Y-10053468D01*
G37*
G04 #@! TD.AperFunction*
G04 #@! TA.AperFunction,NonConductor*
G36*
X21972618Y-1920185D02*
G01*
X22018373Y-1972989D01*
X22028317Y-2042147D01*
X21999292Y-2105703D01*
X21965006Y-2133332D01*
X21829892Y-2207109D01*
X21829891Y-2207110D01*
X21612259Y-2370028D01*
X21612247Y-2370038D01*
X21420038Y-2562247D01*
X21420028Y-2562259D01*
X21257110Y-2779891D01*
X21257109Y-2779892D01*
X21126830Y-3018480D01*
X21079326Y-3145843D01*
X21031825Y-3273199D01*
X21031824Y-3273202D01*
X21031823Y-3273206D01*
X20974040Y-3538832D01*
X20974039Y-3538839D01*
X20960281Y-3731188D01*
X20935864Y-3796652D01*
X20879930Y-3838523D01*
X20810238Y-3843507D01*
X20748915Y-3810022D01*
X20729214Y-3784347D01*
X20694080Y-3723492D01*
X20680221Y-3704877D01*
X20499285Y-3461837D01*
X20499278Y-3461829D01*
X20499274Y-3461823D01*
X20275408Y-3224538D01*
X20275400Y-3224531D01*
X20275399Y-3224530D01*
X20025515Y-3014852D01*
X20025510Y-3014848D01*
X20025508Y-3014847D01*
X19752954Y-2835586D01*
X19748015Y-2833105D01*
X19461439Y-2689181D01*
X19461433Y-2689178D01*
X19154897Y-2577608D01*
X19154876Y-2577601D01*
X18837472Y-2502374D01*
X18837457Y-2502372D01*
X18513442Y-2464500D01*
X18187220Y-2464500D01*
X17903706Y-2497638D01*
X17863204Y-2502372D01*
X17863189Y-2502374D01*
X17545785Y-2577601D01*
X17545764Y-2577608D01*
X17239228Y-2689178D01*
X17239222Y-2689181D01*
X16947711Y-2835584D01*
X16675146Y-3014852D01*
X16425262Y-3224530D01*
X16425261Y-3224531D01*
X16425255Y-3224536D01*
X16425254Y-3224538D01*
X16201388Y-3461823D01*
X16201385Y-3461826D01*
X16201383Y-3461829D01*
X16201376Y-3461837D01*
X16006582Y-3723490D01*
X15843474Y-4006003D01*
X15843468Y-4006016D01*
X15714262Y-4305547D01*
X15620700Y-4618067D01*
X15620698Y-4618075D01*
X15564054Y-4939319D01*
X15564053Y-4939330D01*
X15545085Y-5264996D01*
X15545085Y-5265003D01*
X15564053Y-5590669D01*
X15564054Y-5590680D01*
X15620698Y-5911924D01*
X15620700Y-5911932D01*
X15714262Y-6224452D01*
X15843468Y-6523983D01*
X15843474Y-6523996D01*
X16006582Y-6806509D01*
X16201376Y-7068162D01*
X16201381Y-7068168D01*
X16201388Y-7068177D01*
X16425254Y-7305462D01*
X16425260Y-7305467D01*
X16425261Y-7305468D01*
X16425262Y-7305469D01*
X16675146Y-7515147D01*
X16675149Y-7515149D01*
X16675154Y-7515153D01*
X16947708Y-7694414D01*
X16981484Y-7711376D01*
X17032556Y-7759053D01*
X17049831Y-7822186D01*
X17049831Y-11604859D01*
X17030146Y-11671898D01*
X16977342Y-11717653D01*
X16908184Y-11727597D01*
X16845300Y-11699150D01*
X16787167Y-11649500D01*
X16753990Y-11621164D01*
X16753988Y-11621162D01*
X16753986Y-11621161D01*
X16753984Y-11621160D01*
X16539190Y-11489533D01*
X16306441Y-11393126D01*
X16061482Y-11334317D01*
X15810331Y-11314551D01*
X15559179Y-11334317D01*
X15314220Y-11393126D01*
X15081471Y-11489533D01*
X14866677Y-11621160D01*
X14866674Y-11621161D01*
X14675107Y-11784776D01*
X14511492Y-11976343D01*
X14511491Y-11976346D01*
X14379864Y-12191140D01*
X14283457Y-12423889D01*
X14224648Y-12668848D01*
X14204882Y-12920000D01*
X14224648Y-13171151D01*
X14283457Y-13416110D01*
X14379864Y-13648859D01*
X14511491Y-13863653D01*
X14511492Y-13863656D01*
X14572399Y-13934968D01*
X14600970Y-13998730D01*
X14590533Y-14067815D01*
X14544402Y-14120291D01*
X14478109Y-14139500D01*
X13924500Y-14139500D01*
X13857461Y-14119815D01*
X13811706Y-14067011D01*
X13800500Y-14015500D01*
X13800500Y-2024500D01*
X13820185Y-1957461D01*
X13872989Y-1911706D01*
X13924500Y-1900500D01*
X21905579Y-1900500D01*
X21972618Y-1920185D01*
G37*
G04 #@! TD.AperFunction*
G04 #@! TA.AperFunction,NonConductor*
G36*
X74744834Y-13770185D02*
G01*
X74790589Y-13822989D01*
X74800533Y-13892147D01*
X74774743Y-13951810D01*
X74682232Y-14067815D01*
X74661041Y-14094388D01*
X74533609Y-14315107D01*
X74501206Y-14397666D01*
X74458389Y-14452879D01*
X74392518Y-14476179D01*
X74324508Y-14460167D01*
X74291488Y-14432893D01*
X74139761Y-14255243D01*
X73954176Y-14096738D01*
X73954173Y-14096737D01*
X73764047Y-13980227D01*
X73717172Y-13928415D01*
X73705749Y-13859486D01*
X73733406Y-13795323D01*
X73791362Y-13756298D01*
X73828837Y-13750500D01*
X74677795Y-13750500D01*
X74744834Y-13770185D01*
G37*
G04 #@! TD.AperFunction*
G04 #@! TA.AperFunction,NonConductor*
G36*
X48422539Y-12500185D02*
G01*
X48468294Y-12552989D01*
X48479500Y-12604500D01*
X48479500Y-17552424D01*
X48459815Y-17619463D01*
X48407011Y-17665218D01*
X48337853Y-17675162D01*
X48274297Y-17646137D01*
X48267819Y-17640105D01*
X48237752Y-17610038D01*
X48237746Y-17610033D01*
X48237742Y-17610029D01*
X48090189Y-17499571D01*
X48048318Y-17443637D01*
X48040500Y-17400304D01*
X48040500Y-12604500D01*
X48060185Y-12537461D01*
X48112989Y-12491706D01*
X48164500Y-12480500D01*
X48355500Y-12480500D01*
X48422539Y-12500185D01*
G37*
G04 #@! TD.AperFunction*
G04 #@! TA.AperFunction,NonConductor*
G36*
X42003128Y-10053468D02*
G01*
X42004197Y-10054702D01*
X42009311Y-10060689D01*
X42206860Y-10229412D01*
X42428372Y-10365154D01*
X42428374Y-10365154D01*
X42428376Y-10365156D01*
X42459648Y-10378109D01*
X42668390Y-10464573D01*
X42921006Y-10525221D01*
X43180000Y-10545604D01*
X43438994Y-10525221D01*
X43691610Y-10464573D01*
X43931628Y-10365154D01*
X44115795Y-10252296D01*
X44183240Y-10234052D01*
X44249842Y-10255168D01*
X44268265Y-10270343D01*
X44367738Y-10369816D01*
X44458080Y-10426582D01*
X44518542Y-10464573D01*
X44520478Y-10465789D01*
X44690325Y-10525221D01*
X44690745Y-10525368D01*
X44690750Y-10525369D01*
X44781246Y-10535565D01*
X44825040Y-10540499D01*
X44825043Y-10540500D01*
X44825046Y-10540500D01*
X46094505Y-10540500D01*
X46161544Y-10560185D01*
X46207299Y-10612989D01*
X46217243Y-10682147D01*
X46188218Y-10745703D01*
X46182186Y-10752181D01*
X46174025Y-10760341D01*
X46174024Y-10760342D01*
X46059058Y-10932403D01*
X45979870Y-11123579D01*
X45979868Y-11123587D01*
X45939500Y-11326530D01*
X45939500Y-17400304D01*
X45919815Y-17467343D01*
X45889811Y-17499571D01*
X45742259Y-17610028D01*
X45742247Y-17610038D01*
X45550038Y-17802247D01*
X45550028Y-17802259D01*
X45387110Y-18019891D01*
X45387109Y-18019892D01*
X45256830Y-18258480D01*
X45209326Y-18385843D01*
X45161825Y-18513199D01*
X45161824Y-18513202D01*
X45161823Y-18513206D01*
X45104040Y-18778832D01*
X45104039Y-18778839D01*
X45084645Y-19049998D01*
X45084645Y-19050001D01*
X45104039Y-19321160D01*
X45104040Y-19321167D01*
X45153432Y-19548219D01*
X45161825Y-19586801D01*
X45228331Y-19765109D01*
X45256830Y-19841519D01*
X45387109Y-20080107D01*
X45387110Y-20080108D01*
X45387113Y-20080113D01*
X45550029Y-20297742D01*
X45550033Y-20297746D01*
X45550038Y-20297752D01*
X45742247Y-20489961D01*
X45742253Y-20489966D01*
X45742258Y-20489971D01*
X45959887Y-20652887D01*
X45959891Y-20652889D01*
X45959892Y-20652890D01*
X46198481Y-20783169D01*
X46198480Y-20783169D01*
X46198484Y-20783170D01*
X46198487Y-20783172D01*
X46453199Y-20878175D01*
X46718840Y-20935961D01*
X46970605Y-20953967D01*
X46989999Y-20955355D01*
X46990000Y-20955355D01*
X46990001Y-20955355D01*
X47008100Y-20954060D01*
X47261160Y-20935961D01*
X47472033Y-20890089D01*
X47526797Y-20878176D01*
X47526797Y-20878175D01*
X47526801Y-20878175D01*
X47571266Y-20861589D01*
X47640957Y-20856605D01*
X47702280Y-20890089D01*
X47730781Y-20934436D01*
X47758082Y-21007630D01*
X47796830Y-21111518D01*
X47927109Y-21350107D01*
X47927110Y-21350108D01*
X47927113Y-21350113D01*
X47935405Y-21361190D01*
X47959822Y-21426653D01*
X47944970Y-21494926D01*
X47895565Y-21544332D01*
X47836138Y-21559500D01*
X34444500Y-21559500D01*
X34377461Y-21539815D01*
X34331706Y-21487011D01*
X34320500Y-21435500D01*
X34320500Y-10470809D01*
X34340185Y-10403770D01*
X34367191Y-10373859D01*
X34372252Y-10369821D01*
X34372262Y-10369816D01*
X34471737Y-10270340D01*
X34533056Y-10236858D01*
X34602748Y-10241842D01*
X34624205Y-10252297D01*
X34808371Y-10365154D01*
X34843006Y-10379500D01*
X35048390Y-10464573D01*
X35301006Y-10525221D01*
X35560000Y-10545604D01*
X35818994Y-10525221D01*
X36071610Y-10464573D01*
X36311628Y-10365154D01*
X36533140Y-10229412D01*
X36730689Y-10060689D01*
X36735710Y-10054809D01*
X36794213Y-10016617D01*
X36864081Y-10016116D01*
X36923128Y-10053468D01*
X36924197Y-10054702D01*
X36929311Y-10060689D01*
X37126860Y-10229412D01*
X37348372Y-10365154D01*
X37348374Y-10365154D01*
X37348376Y-10365156D01*
X37379648Y-10378109D01*
X37588390Y-10464573D01*
X37841006Y-10525221D01*
X38100000Y-10545604D01*
X38358994Y-10525221D01*
X38611610Y-10464573D01*
X38851628Y-10365154D01*
X39073140Y-10229412D01*
X39270689Y-10060689D01*
X39275710Y-10054809D01*
X39334213Y-10016617D01*
X39404081Y-10016116D01*
X39463128Y-10053468D01*
X39464197Y-10054702D01*
X39469311Y-10060689D01*
X39666860Y-10229412D01*
X39888372Y-10365154D01*
X39888374Y-10365154D01*
X39888376Y-10365156D01*
X39919648Y-10378109D01*
X40128390Y-10464573D01*
X40381006Y-10525221D01*
X40640000Y-10545604D01*
X40898994Y-10525221D01*
X41151610Y-10464573D01*
X41391628Y-10365154D01*
X41613140Y-10229412D01*
X41810689Y-10060689D01*
X41815710Y-10054809D01*
X41874213Y-10016617D01*
X41944081Y-10016116D01*
X42003128Y-10053468D01*
G37*
G04 #@! TD.AperFunction*
G04 #@! TA.AperFunction,NonConductor*
G36*
X21576034Y-21862822D02*
G01*
X21582512Y-21868854D01*
X21723181Y-22009523D01*
X21756666Y-22070846D01*
X21759500Y-22097204D01*
X21759500Y-22213465D01*
X21739815Y-22280504D01*
X21687011Y-22326259D01*
X21617853Y-22336203D01*
X21554297Y-22307178D01*
X21547819Y-22301146D01*
X21407150Y-22160477D01*
X21373665Y-22099154D01*
X21370831Y-22072796D01*
X21370831Y-21956535D01*
X21390516Y-21889496D01*
X21443320Y-21843741D01*
X21512478Y-21833797D01*
X21576034Y-21862822D01*
G37*
G04 #@! TD.AperFunction*
G04 #@! TA.AperFunction,NonConductor*
G36*
X69762539Y-24180185D02*
G01*
X69808294Y-24232989D01*
X69819500Y-24284500D01*
X69819500Y-25089190D01*
X69799815Y-25156229D01*
X69772815Y-25186135D01*
X69767742Y-25190180D01*
X69668265Y-25289657D01*
X69606942Y-25323141D01*
X69537250Y-25318157D01*
X69515798Y-25307705D01*
X69331628Y-25194846D01*
X69331627Y-25194845D01*
X69331623Y-25194843D01*
X69165627Y-25126086D01*
X69091610Y-25095427D01*
X69091611Y-25095427D01*
X68953921Y-25062370D01*
X68838994Y-25034779D01*
X68838992Y-25034778D01*
X68838991Y-25034778D01*
X68580000Y-25014396D01*
X68321009Y-25034778D01*
X68068389Y-25095427D01*
X67828376Y-25194843D01*
X67606859Y-25330588D01*
X67409313Y-25499309D01*
X67409311Y-25499311D01*
X67404287Y-25505193D01*
X67345781Y-25543383D01*
X67275913Y-25543881D01*
X67216868Y-25506526D01*
X67215767Y-25505256D01*
X67210689Y-25499311D01*
X67013140Y-25330588D01*
X66791628Y-25194846D01*
X66791627Y-25194845D01*
X66791623Y-25194843D01*
X66625627Y-25126086D01*
X66551610Y-25095427D01*
X66551611Y-25095427D01*
X66413921Y-25062370D01*
X66298994Y-25034779D01*
X66298992Y-25034778D01*
X66298991Y-25034778D01*
X66040000Y-25014396D01*
X65781009Y-25034778D01*
X65528389Y-25095427D01*
X65288376Y-25194843D01*
X65066859Y-25330588D01*
X64869313Y-25499309D01*
X64869311Y-25499311D01*
X64864287Y-25505193D01*
X64805781Y-25543383D01*
X64735913Y-25543881D01*
X64676868Y-25506526D01*
X64675767Y-25505256D01*
X64670689Y-25499311D01*
X64473140Y-25330588D01*
X64251628Y-25194846D01*
X64251627Y-25194845D01*
X64251623Y-25194843D01*
X64085627Y-25126086D01*
X64011610Y-25095427D01*
X64011611Y-25095427D01*
X63873921Y-25062370D01*
X63758994Y-25034779D01*
X63758992Y-25034778D01*
X63758991Y-25034778D01*
X63500000Y-25014396D01*
X63241009Y-25034778D01*
X62988389Y-25095427D01*
X62748376Y-25194843D01*
X62526859Y-25330588D01*
X62329313Y-25499309D01*
X62329311Y-25499311D01*
X62324287Y-25505193D01*
X62265781Y-25543383D01*
X62195913Y-25543881D01*
X62136868Y-25506526D01*
X62135767Y-25505256D01*
X62130689Y-25499311D01*
X61933140Y-25330588D01*
X61711628Y-25194846D01*
X61711627Y-25194845D01*
X61711623Y-25194843D01*
X61545627Y-25126086D01*
X61471610Y-25095427D01*
X61471611Y-25095427D01*
X61333921Y-25062370D01*
X61218994Y-25034779D01*
X61218992Y-25034778D01*
X61218991Y-25034778D01*
X60960000Y-25014396D01*
X60701009Y-25034778D01*
X60448389Y-25095427D01*
X60208373Y-25194845D01*
X60024204Y-25307703D01*
X59956759Y-25325947D01*
X59890156Y-25304830D01*
X59871734Y-25289656D01*
X59772262Y-25190184D01*
X59619523Y-25094211D01*
X59449254Y-25034631D01*
X59449249Y-25034630D01*
X59314960Y-25019500D01*
X59314954Y-25019500D01*
X57525046Y-25019500D01*
X57525039Y-25019500D01*
X57390750Y-25034630D01*
X57390745Y-25034631D01*
X57220476Y-25094211D01*
X57067739Y-25190183D01*
X56968265Y-25289657D01*
X56906942Y-25323141D01*
X56837250Y-25318157D01*
X56815798Y-25307705D01*
X56631628Y-25194846D01*
X56631627Y-25194845D01*
X56631623Y-25194843D01*
X56465627Y-25126086D01*
X56391610Y-25095427D01*
X56391611Y-25095427D01*
X56253921Y-25062370D01*
X56138994Y-25034779D01*
X56138992Y-25034778D01*
X56138991Y-25034778D01*
X55880000Y-25014396D01*
X55621009Y-25034778D01*
X55368389Y-25095427D01*
X55128376Y-25194843D01*
X54906859Y-25330588D01*
X54709313Y-25499309D01*
X54709311Y-25499311D01*
X54704287Y-25505193D01*
X54645781Y-25543383D01*
X54575913Y-25543881D01*
X54516868Y-25506526D01*
X54515767Y-25505256D01*
X54510689Y-25499311D01*
X54313140Y-25330588D01*
X54091628Y-25194846D01*
X54091627Y-25194845D01*
X54091623Y-25194843D01*
X53925627Y-25126086D01*
X53851610Y-25095427D01*
X53851611Y-25095427D01*
X53713921Y-25062370D01*
X53598994Y-25034779D01*
X53598992Y-25034778D01*
X53598991Y-25034778D01*
X53340000Y-25014396D01*
X53081009Y-25034778D01*
X52828389Y-25095427D01*
X52588376Y-25194843D01*
X52366859Y-25330588D01*
X52169313Y-25499309D01*
X52169311Y-25499311D01*
X52164287Y-25505193D01*
X52105781Y-25543383D01*
X52035913Y-25543881D01*
X51976868Y-25506526D01*
X51975767Y-25505256D01*
X51970689Y-25499311D01*
X51773140Y-25330588D01*
X51551628Y-25194846D01*
X51551627Y-25194845D01*
X51551623Y-25194843D01*
X51385627Y-25126086D01*
X51311610Y-25095427D01*
X51311611Y-25095427D01*
X51173921Y-25062370D01*
X51058994Y-25034779D01*
X51058992Y-25034778D01*
X51058991Y-25034778D01*
X50800000Y-25014396D01*
X50541009Y-25034778D01*
X50288389Y-25095427D01*
X50048376Y-25194843D01*
X49826859Y-25330588D01*
X49629313Y-25499309D01*
X49629311Y-25499311D01*
X49624287Y-25505193D01*
X49565781Y-25543383D01*
X49495913Y-25543881D01*
X49436868Y-25506526D01*
X49435767Y-25505256D01*
X49430689Y-25499311D01*
X49233140Y-25330588D01*
X49011628Y-25194846D01*
X49011627Y-25194845D01*
X49011623Y-25194843D01*
X48845627Y-25126086D01*
X48771610Y-25095427D01*
X48771611Y-25095427D01*
X48633921Y-25062370D01*
X48518994Y-25034779D01*
X48518992Y-25034778D01*
X48518991Y-25034778D01*
X48260000Y-25014396D01*
X48001009Y-25034778D01*
X47748389Y-25095427D01*
X47508373Y-25194845D01*
X47324204Y-25307703D01*
X47256759Y-25325947D01*
X47190156Y-25304830D01*
X47171734Y-25289656D01*
X47072261Y-25190183D01*
X47067185Y-25186135D01*
X47027046Y-25128946D01*
X47020500Y-25089190D01*
X47020500Y-24284500D01*
X47040185Y-24217461D01*
X47092989Y-24171706D01*
X47144500Y-24160500D01*
X69695500Y-24160500D01*
X69762539Y-24180185D01*
G37*
G04 #@! TD.AperFunction*
G04 #@! TA.AperFunction,NonConductor*
G36*
X44362539Y-24180185D02*
G01*
X44408294Y-24232989D01*
X44419500Y-24284500D01*
X44419500Y-25089190D01*
X44399815Y-25156229D01*
X44372815Y-25186135D01*
X44367742Y-25190180D01*
X44268265Y-25289657D01*
X44206942Y-25323141D01*
X44137250Y-25318157D01*
X44115798Y-25307705D01*
X43931628Y-25194846D01*
X43931627Y-25194845D01*
X43931623Y-25194843D01*
X43765627Y-25126086D01*
X43691610Y-25095427D01*
X43691611Y-25095427D01*
X43553921Y-25062370D01*
X43438994Y-25034779D01*
X43438992Y-25034778D01*
X43438991Y-25034778D01*
X43180000Y-25014396D01*
X42921009Y-25034778D01*
X42668389Y-25095427D01*
X42428376Y-25194843D01*
X42206859Y-25330588D01*
X42009313Y-25499309D01*
X42009311Y-25499311D01*
X42004287Y-25505193D01*
X41945781Y-25543383D01*
X41875913Y-25543881D01*
X41816868Y-25506526D01*
X41815767Y-25505256D01*
X41810689Y-25499311D01*
X41613140Y-25330588D01*
X41391628Y-25194846D01*
X41391627Y-25194845D01*
X41391623Y-25194843D01*
X41225627Y-25126086D01*
X41151610Y-25095427D01*
X41151611Y-25095427D01*
X41013921Y-25062370D01*
X40898994Y-25034779D01*
X40898992Y-25034778D01*
X40898991Y-25034778D01*
X40640000Y-25014396D01*
X40381009Y-25034778D01*
X40128389Y-25095427D01*
X39888376Y-25194843D01*
X39666859Y-25330588D01*
X39469313Y-25499309D01*
X39469311Y-25499311D01*
X39464287Y-25505193D01*
X39405781Y-25543383D01*
X39335913Y-25543881D01*
X39276868Y-25506526D01*
X39275767Y-25505256D01*
X39270689Y-25499311D01*
X39073140Y-25330588D01*
X38851628Y-25194846D01*
X38851627Y-25194845D01*
X38851623Y-25194843D01*
X38685627Y-25126086D01*
X38611610Y-25095427D01*
X38611611Y-25095427D01*
X38473921Y-25062370D01*
X38358994Y-25034779D01*
X38358992Y-25034778D01*
X38358991Y-25034778D01*
X38100000Y-25014396D01*
X37841009Y-25034778D01*
X37588389Y-25095427D01*
X37348376Y-25194843D01*
X37126859Y-25330588D01*
X36929313Y-25499309D01*
X36929311Y-25499311D01*
X36924287Y-25505193D01*
X36865781Y-25543383D01*
X36795913Y-25543881D01*
X36736868Y-25506526D01*
X36735767Y-25505256D01*
X36730689Y-25499311D01*
X36533140Y-25330588D01*
X36311628Y-25194846D01*
X36311627Y-25194845D01*
X36311623Y-25194843D01*
X36145627Y-25126086D01*
X36071610Y-25095427D01*
X36071611Y-25095427D01*
X35933921Y-25062370D01*
X35818994Y-25034779D01*
X35818992Y-25034778D01*
X35818991Y-25034778D01*
X35560000Y-25014396D01*
X35301009Y-25034778D01*
X35048389Y-25095427D01*
X34808373Y-25194845D01*
X34624204Y-25307703D01*
X34556759Y-25325947D01*
X34490156Y-25304830D01*
X34471734Y-25289656D01*
X34372261Y-25190183D01*
X34367185Y-25186135D01*
X34327046Y-25128946D01*
X34320500Y-25089190D01*
X34320500Y-24284500D01*
X34340185Y-24217461D01*
X34392989Y-24171706D01*
X34444500Y-24160500D01*
X44295500Y-24160500D01*
X44362539Y-24180185D01*
G37*
G04 #@! TD.AperFunction*
G04 #@! TA.AperFunction,NonConductor*
G36*
X31666945Y-21996552D02*
G01*
X31710397Y-22051267D01*
X31719500Y-22097901D01*
X31719500Y-25089190D01*
X31699815Y-25156229D01*
X31672815Y-25186135D01*
X31667742Y-25190180D01*
X31568265Y-25289657D01*
X31506942Y-25323141D01*
X31437250Y-25318157D01*
X31415798Y-25307705D01*
X31231628Y-25194846D01*
X31231627Y-25194845D01*
X31231623Y-25194843D01*
X31065627Y-25126086D01*
X30991610Y-25095427D01*
X30991611Y-25095427D01*
X30853921Y-25062370D01*
X30738994Y-25034779D01*
X30738992Y-25034778D01*
X30738991Y-25034778D01*
X30480000Y-25014396D01*
X30221009Y-25034778D01*
X29968389Y-25095427D01*
X29728376Y-25194843D01*
X29506859Y-25330588D01*
X29309313Y-25499309D01*
X29309311Y-25499311D01*
X29304287Y-25505193D01*
X29245781Y-25543383D01*
X29175913Y-25543881D01*
X29116868Y-25506526D01*
X29115767Y-25505256D01*
X29110689Y-25499311D01*
X29110683Y-25499306D01*
X29110681Y-25499303D01*
X29083967Y-25476487D01*
X29045775Y-25417980D01*
X29040500Y-25382198D01*
X29040500Y-24637204D01*
X29060185Y-24570165D01*
X29076819Y-24549523D01*
X30115876Y-23510466D01*
X31319414Y-22306928D01*
X31421232Y-22166788D01*
X31485015Y-22041605D01*
X31532989Y-21990810D01*
X31600810Y-21974015D01*
X31666945Y-21996552D01*
G37*
G04 #@! TD.AperFunction*
G04 #@! TA.AperFunction,NonConductor*
G36*
X19856034Y-23722491D02*
G01*
X19862512Y-23728523D01*
X20453181Y-24319192D01*
X20486666Y-24380515D01*
X20489500Y-24406873D01*
X20489500Y-28139336D01*
X20469815Y-28206375D01*
X20417011Y-28252130D01*
X20347853Y-28262074D01*
X20284297Y-28233049D01*
X20276115Y-28225206D01*
X20275412Y-28224542D01*
X20275408Y-28224538D01*
X20275400Y-28224531D01*
X20275399Y-28224530D01*
X20025515Y-28014852D01*
X20025510Y-28014848D01*
X20025508Y-28014847D01*
X19752954Y-27835586D01*
X19748737Y-27833468D01*
X19719179Y-27818623D01*
X19668105Y-27770944D01*
X19650831Y-27707813D01*
X19650831Y-23816204D01*
X19670516Y-23749165D01*
X19723320Y-23703410D01*
X19792478Y-23693466D01*
X19856034Y-23722491D01*
G37*
G04 #@! TD.AperFunction*
G04 #@! TA.AperFunction,NonConductor*
G36*
X67545029Y-27956604D02*
G01*
X67606860Y-28009412D01*
X67828372Y-28145154D01*
X67828374Y-28145154D01*
X67828376Y-28145156D01*
X67889693Y-28170554D01*
X68068390Y-28244573D01*
X68321006Y-28305221D01*
X68580000Y-28325604D01*
X68838994Y-28305221D01*
X69091610Y-28244573D01*
X69331628Y-28145154D01*
X69515795Y-28032296D01*
X69583240Y-28014052D01*
X69649842Y-28035168D01*
X69668265Y-28050343D01*
X69767738Y-28149816D01*
X69767740Y-28149817D01*
X69772809Y-28153859D01*
X69812952Y-28211046D01*
X69819500Y-28250809D01*
X69819500Y-29889953D01*
X69799815Y-29956992D01*
X69783181Y-29977634D01*
X66807634Y-32953181D01*
X66746311Y-32986666D01*
X66719953Y-32989500D01*
X65658150Y-32989500D01*
X65591111Y-32969815D01*
X65545356Y-32917011D01*
X65535412Y-32847853D01*
X65564437Y-32784297D01*
X65585265Y-32765182D01*
X65588702Y-32762684D01*
X65617219Y-32741966D01*
X67031966Y-31327219D01*
X67152287Y-31161611D01*
X67228187Y-31012648D01*
X67245220Y-30979219D01*
X67308477Y-30784534D01*
X67340500Y-30582352D01*
X67340500Y-28050895D01*
X67360185Y-27983856D01*
X67412989Y-27938101D01*
X67482147Y-27928157D01*
X67545029Y-27956604D01*
G37*
G04 #@! TD.AperFunction*
G04 #@! TA.AperFunction,NonConductor*
G36*
X39463128Y-27833468D02*
G01*
X39464197Y-27834702D01*
X39469311Y-27840689D01*
X39496032Y-27863511D01*
X39534224Y-27922016D01*
X39539500Y-27957800D01*
X39539500Y-35052796D01*
X39519815Y-35119835D01*
X39503181Y-35140477D01*
X39412181Y-35231477D01*
X39350858Y-35264962D01*
X39281166Y-35259978D01*
X39225233Y-35218106D01*
X39200816Y-35152642D01*
X39200500Y-35143796D01*
X39200500Y-27957800D01*
X39220185Y-27890761D01*
X39243965Y-27863512D01*
X39270689Y-27840689D01*
X39275710Y-27834809D01*
X39334213Y-27796617D01*
X39404081Y-27796116D01*
X39463128Y-27833468D01*
G37*
G04 #@! TD.AperFunction*
G04 #@! TA.AperFunction,NonConductor*
G36*
X36923128Y-27833468D02*
G01*
X36924197Y-27834702D01*
X36929311Y-27840689D01*
X36956032Y-27863511D01*
X36994224Y-27922016D01*
X36999500Y-27957800D01*
X36999500Y-35052796D01*
X36979815Y-35119835D01*
X36963181Y-35140477D01*
X36872181Y-35231477D01*
X36810858Y-35264962D01*
X36741166Y-35259978D01*
X36685233Y-35218106D01*
X36660816Y-35152642D01*
X36660500Y-35143796D01*
X36660500Y-27957800D01*
X36680185Y-27890761D01*
X36703965Y-27863512D01*
X36730689Y-27840689D01*
X36735710Y-27834809D01*
X36794213Y-27796617D01*
X36864081Y-27796116D01*
X36923128Y-27833468D01*
G37*
G04 #@! TD.AperFunction*
G04 #@! TA.AperFunction,NonConductor*
G36*
X83869238Y-35410185D02*
G01*
X83896489Y-35433967D01*
X83919311Y-35460689D01*
X83925193Y-35465712D01*
X83963383Y-35524219D01*
X83963881Y-35594087D01*
X83926526Y-35653132D01*
X83925256Y-35654232D01*
X83919311Y-35659311D01*
X83919309Y-35659312D01*
X83919308Y-35659314D01*
X83896488Y-35686033D01*
X83837981Y-35724225D01*
X83802199Y-35729500D01*
X82824143Y-35729500D01*
X82757104Y-35709815D01*
X82711349Y-35657011D01*
X82701405Y-35587853D01*
X82724877Y-35531189D01*
X82793000Y-35440189D01*
X82848933Y-35398318D01*
X82892266Y-35390500D01*
X83802199Y-35390500D01*
X83869238Y-35410185D01*
G37*
G04 #@! TD.AperFunction*
G04 #@! TA.AperFunction,NonConductor*
G36*
X83296992Y-25450185D02*
G01*
X83317634Y-25466819D01*
X83753181Y-25902366D01*
X83786666Y-25963689D01*
X83789500Y-25990047D01*
X83789500Y-30169190D01*
X83769815Y-30236229D01*
X83742815Y-30266135D01*
X83737738Y-30270183D01*
X83610184Y-30397737D01*
X83514211Y-30550476D01*
X83454631Y-30720745D01*
X83454630Y-30720750D01*
X83439500Y-30855039D01*
X83439500Y-32644960D01*
X83454630Y-32779249D01*
X83454631Y-32779254D01*
X83514211Y-32949524D01*
X83545631Y-32999527D01*
X83564632Y-33066764D01*
X83544265Y-33133599D01*
X83490997Y-33178814D01*
X83440638Y-33189500D01*
X82892266Y-33189500D01*
X82825227Y-33169815D01*
X82792999Y-33139811D01*
X82764890Y-33102262D01*
X82719971Y-33042258D01*
X82719966Y-33042253D01*
X82719961Y-33042247D01*
X82527752Y-32850038D01*
X82527746Y-32850033D01*
X82527742Y-32850029D01*
X82310113Y-32687113D01*
X82310108Y-32687110D01*
X82310107Y-32687109D01*
X82071518Y-32556830D01*
X82071519Y-32556830D01*
X81959762Y-32515147D01*
X81816801Y-32461825D01*
X81816794Y-32461823D01*
X81816793Y-32461823D01*
X81551167Y-32404040D01*
X81551160Y-32404039D01*
X81280001Y-32384645D01*
X81279999Y-32384645D01*
X81008839Y-32404039D01*
X81008832Y-32404040D01*
X80743206Y-32461823D01*
X80743202Y-32461824D01*
X80743199Y-32461825D01*
X80685875Y-32483206D01*
X80488480Y-32556830D01*
X80249892Y-32687109D01*
X80249891Y-32687110D01*
X80032259Y-32850028D01*
X80032247Y-32850038D01*
X79840038Y-33042247D01*
X79840028Y-33042259D01*
X79677110Y-33259891D01*
X79677109Y-33259892D01*
X79546830Y-33498480D01*
X79501378Y-33620344D01*
X79451825Y-33753199D01*
X79451824Y-33753202D01*
X79451823Y-33753206D01*
X79394040Y-34018832D01*
X79394039Y-34018839D01*
X79374645Y-34289998D01*
X79374645Y-34290001D01*
X79394039Y-34561160D01*
X79394040Y-34561167D01*
X79440881Y-34776493D01*
X79451825Y-34826801D01*
X79490600Y-34930760D01*
X79546830Y-35081519D01*
X79677109Y-35320107D01*
X79677110Y-35320108D01*
X79677113Y-35320113D01*
X79835124Y-35531190D01*
X79859541Y-35596654D01*
X79844689Y-35664927D01*
X79795284Y-35714332D01*
X79735857Y-35729500D01*
X71184047Y-35729500D01*
X71117008Y-35709815D01*
X71071253Y-35657011D01*
X71061309Y-35587853D01*
X71090334Y-35524297D01*
X71096366Y-35517819D01*
X72860986Y-33753199D01*
X74651967Y-31962218D01*
X74772287Y-31796610D01*
X74865221Y-31614218D01*
X74928477Y-31419534D01*
X74960501Y-31217351D01*
X74960501Y-31012648D01*
X74960501Y-31008247D01*
X74960500Y-31008232D01*
X74960500Y-28050895D01*
X74980185Y-27983856D01*
X75032989Y-27938101D01*
X75102147Y-27928157D01*
X75165029Y-27956604D01*
X75226860Y-28009412D01*
X75448372Y-28145154D01*
X75448374Y-28145154D01*
X75448376Y-28145156D01*
X75509693Y-28170554D01*
X75688390Y-28244573D01*
X75941006Y-28305221D01*
X76200000Y-28325604D01*
X76458994Y-28305221D01*
X76711610Y-28244573D01*
X76951628Y-28145154D01*
X77173140Y-28009412D01*
X77370689Y-27840689D01*
X77539412Y-27643140D01*
X77675154Y-27421628D01*
X77774573Y-27181610D01*
X77835221Y-26928994D01*
X77855604Y-26670000D01*
X77835221Y-26411006D01*
X77774573Y-26158390D01*
X77675154Y-25918372D01*
X77539412Y-25696860D01*
X77486604Y-25635029D01*
X77458034Y-25571271D01*
X77468471Y-25502185D01*
X77514602Y-25449709D01*
X77580895Y-25430500D01*
X83229953Y-25430500D01*
X83296992Y-25450185D01*
G37*
G04 #@! TD.AperFunction*
G04 #@! TA.AperFunction,NonConductor*
G36*
X62323128Y-27833468D02*
G01*
X62324197Y-27834702D01*
X62329311Y-27840689D01*
X62526860Y-28009412D01*
X62748372Y-28145154D01*
X62748374Y-28145154D01*
X62748376Y-28145156D01*
X62809693Y-28170554D01*
X62988390Y-28244573D01*
X63241006Y-28305221D01*
X63500000Y-28325604D01*
X63758994Y-28305221D01*
X64011610Y-28244573D01*
X64251628Y-28145154D01*
X64473140Y-28009412D01*
X64534970Y-27956604D01*
X64598729Y-27928034D01*
X64667815Y-27938471D01*
X64720291Y-27984602D01*
X64739500Y-28050895D01*
X64739500Y-29889953D01*
X64719815Y-29956992D01*
X64703181Y-29977634D01*
X64267634Y-30413181D01*
X64206311Y-30446666D01*
X64179953Y-30449500D01*
X58317648Y-30449500D01*
X58293329Y-30453351D01*
X58115465Y-30481522D01*
X57920776Y-30544781D01*
X57782280Y-30615349D01*
X57738390Y-30637713D01*
X57738389Y-30637714D01*
X57730491Y-30643452D01*
X57730490Y-30643451D01*
X57730490Y-30643452D01*
X57572786Y-30758028D01*
X54888036Y-33442778D01*
X54767716Y-33608384D01*
X54767714Y-33608387D01*
X54744145Y-33654645D01*
X54674780Y-33790779D01*
X54668045Y-33811511D01*
X54668044Y-33811513D01*
X54612140Y-33983568D01*
X54612137Y-33983577D01*
X54611523Y-33985464D01*
X54611520Y-33985475D01*
X54579500Y-34187648D01*
X54579500Y-36453938D01*
X54559815Y-36520977D01*
X54507011Y-36566732D01*
X54437853Y-36576676D01*
X54374297Y-36547651D01*
X54340939Y-36501390D01*
X54270945Y-36332408D01*
X54270938Y-36332395D01*
X54155977Y-36160345D01*
X54155974Y-36160341D01*
X51440760Y-33445129D01*
X51407275Y-33383806D01*
X51407275Y-33331089D01*
X51415960Y-33291165D01*
X51415960Y-33291164D01*
X51415961Y-33291160D01*
X51434809Y-33027628D01*
X51435355Y-33020001D01*
X51435355Y-33019998D01*
X51424075Y-32862287D01*
X51415961Y-32748840D01*
X51358175Y-32483199D01*
X51263172Y-32228487D01*
X51263170Y-32228484D01*
X51263169Y-32228480D01*
X51132890Y-31989892D01*
X51132889Y-31989891D01*
X51132887Y-31989887D01*
X50969971Y-31772258D01*
X50969966Y-31772253D01*
X50969961Y-31772247D01*
X50777752Y-31580038D01*
X50777746Y-31580033D01*
X50777742Y-31580029D01*
X50560113Y-31417113D01*
X50560108Y-31417110D01*
X50560107Y-31417109D01*
X50321518Y-31286830D01*
X50321519Y-31286830D01*
X50271920Y-31268330D01*
X50066801Y-31191825D01*
X50066794Y-31191823D01*
X50066793Y-31191823D01*
X49801167Y-31134040D01*
X49801160Y-31134039D01*
X49530001Y-31114645D01*
X49529999Y-31114645D01*
X49258839Y-31134039D01*
X49258832Y-31134040D01*
X48993206Y-31191823D01*
X48993202Y-31191824D01*
X48993199Y-31191825D01*
X48905726Y-31224451D01*
X48738480Y-31286830D01*
X48499892Y-31417109D01*
X48499891Y-31417110D01*
X48282259Y-31580028D01*
X48282247Y-31580038D01*
X48090038Y-31772247D01*
X48090028Y-31772259D01*
X47979572Y-31919811D01*
X47923638Y-31961682D01*
X47880305Y-31969500D01*
X44346530Y-31969500D01*
X44143587Y-32009868D01*
X44143579Y-32009870D01*
X43952403Y-32089058D01*
X43780344Y-32204023D01*
X43714048Y-32270320D01*
X43634023Y-32350345D01*
X43634020Y-32350348D01*
X42510348Y-33474020D01*
X42510345Y-33474023D01*
X42445997Y-33538371D01*
X42364023Y-33620344D01*
X42249058Y-33792403D01*
X42169871Y-33983577D01*
X42169868Y-33983587D01*
X42129500Y-34186530D01*
X42129500Y-36343506D01*
X42109815Y-36410545D01*
X42093181Y-36431187D01*
X41149182Y-37375185D01*
X41087859Y-37408670D01*
X41035143Y-37408670D01*
X40925435Y-37384805D01*
X40925428Y-37384804D01*
X40679337Y-37367203D01*
X40613872Y-37342786D01*
X40572001Y-37286852D01*
X40567017Y-37217161D01*
X40600500Y-37155840D01*
X41479414Y-36276928D01*
X41581232Y-36136788D01*
X41659873Y-35982445D01*
X41713402Y-35817701D01*
X41740500Y-35646611D01*
X41740500Y-35473389D01*
X41740500Y-27957800D01*
X41760185Y-27890761D01*
X41783965Y-27863512D01*
X41810689Y-27840689D01*
X41815710Y-27834809D01*
X41874213Y-27796617D01*
X41944081Y-27796116D01*
X42003128Y-27833468D01*
X42004197Y-27834702D01*
X42009311Y-27840689D01*
X42206860Y-28009412D01*
X42428372Y-28145154D01*
X42428374Y-28145154D01*
X42428376Y-28145156D01*
X42489693Y-28170554D01*
X42668390Y-28244573D01*
X42921006Y-28305221D01*
X43180000Y-28325604D01*
X43438994Y-28305221D01*
X43691610Y-28244573D01*
X43931628Y-28145154D01*
X44115795Y-28032296D01*
X44183240Y-28014052D01*
X44249842Y-28035168D01*
X44268265Y-28050343D01*
X44367738Y-28149816D01*
X44457751Y-28206375D01*
X44518542Y-28244573D01*
X44520478Y-28245789D01*
X44567018Y-28262074D01*
X44690745Y-28305368D01*
X44690750Y-28305369D01*
X44781246Y-28315565D01*
X44825040Y-28320499D01*
X44825043Y-28320500D01*
X44825046Y-28320500D01*
X46614957Y-28320500D01*
X46614958Y-28320499D01*
X46682104Y-28312934D01*
X46749249Y-28305369D01*
X46749252Y-28305368D01*
X46749255Y-28305368D01*
X46919522Y-28245789D01*
X47072262Y-28149816D01*
X47171737Y-28050340D01*
X47233056Y-28016858D01*
X47302748Y-28021842D01*
X47324205Y-28032297D01*
X47508371Y-28145154D01*
X47578671Y-28174272D01*
X47748390Y-28244573D01*
X48001006Y-28305221D01*
X48260000Y-28325604D01*
X48518994Y-28305221D01*
X48771610Y-28244573D01*
X49011628Y-28145154D01*
X49233140Y-28009412D01*
X49430689Y-27840689D01*
X49435710Y-27834809D01*
X49494213Y-27796617D01*
X49564081Y-27796116D01*
X49623128Y-27833468D01*
X49624197Y-27834702D01*
X49629311Y-27840689D01*
X49826860Y-28009412D01*
X50048372Y-28145154D01*
X50048374Y-28145154D01*
X50048376Y-28145156D01*
X50109693Y-28170554D01*
X50288390Y-28244573D01*
X50541006Y-28305221D01*
X50800000Y-28325604D01*
X51058994Y-28305221D01*
X51311610Y-28244573D01*
X51551628Y-28145154D01*
X51773140Y-28009412D01*
X51970689Y-27840689D01*
X51975710Y-27834809D01*
X52034213Y-27796617D01*
X52104081Y-27796116D01*
X52163128Y-27833468D01*
X52164197Y-27834702D01*
X52169311Y-27840689D01*
X52366860Y-28009412D01*
X52588372Y-28145154D01*
X52588374Y-28145154D01*
X52588376Y-28145156D01*
X52649693Y-28170554D01*
X52828390Y-28244573D01*
X53081006Y-28305221D01*
X53340000Y-28325604D01*
X53598994Y-28305221D01*
X53851610Y-28244573D01*
X54091628Y-28145154D01*
X54313140Y-28009412D01*
X54510689Y-27840689D01*
X54515710Y-27834809D01*
X54574213Y-27796617D01*
X54644081Y-27796116D01*
X54703128Y-27833468D01*
X54704197Y-27834702D01*
X54709311Y-27840689D01*
X54906860Y-28009412D01*
X55128372Y-28145154D01*
X55128374Y-28145154D01*
X55128376Y-28145156D01*
X55189693Y-28170554D01*
X55368390Y-28244573D01*
X55621006Y-28305221D01*
X55880000Y-28325604D01*
X56138994Y-28305221D01*
X56391610Y-28244573D01*
X56631628Y-28145154D01*
X56815795Y-28032296D01*
X56883240Y-28014052D01*
X56949842Y-28035168D01*
X56968265Y-28050343D01*
X57067738Y-28149816D01*
X57157751Y-28206375D01*
X57218542Y-28244573D01*
X57220478Y-28245789D01*
X57267018Y-28262074D01*
X57390745Y-28305368D01*
X57390750Y-28305369D01*
X57481246Y-28315565D01*
X57525040Y-28320499D01*
X57525043Y-28320500D01*
X57525046Y-28320500D01*
X59314957Y-28320500D01*
X59314958Y-28320499D01*
X59382104Y-28312934D01*
X59449249Y-28305369D01*
X59449252Y-28305368D01*
X59449255Y-28305368D01*
X59619522Y-28245789D01*
X59772262Y-28149816D01*
X59871737Y-28050340D01*
X59933056Y-28016858D01*
X60002748Y-28021842D01*
X60024205Y-28032297D01*
X60208371Y-28145154D01*
X60278671Y-28174272D01*
X60448390Y-28244573D01*
X60701006Y-28305221D01*
X60960000Y-28325604D01*
X61218994Y-28305221D01*
X61471610Y-28244573D01*
X61711628Y-28145154D01*
X61933140Y-28009412D01*
X62130689Y-27840689D01*
X62135710Y-27834809D01*
X62194213Y-27796617D01*
X62264081Y-27796116D01*
X62323128Y-27833468D01*
G37*
G04 #@! TD.AperFunction*
G04 #@! TA.AperFunction,NonConductor*
G36*
X34403599Y-28215735D02*
G01*
X34448814Y-28269003D01*
X34459500Y-28319362D01*
X34459500Y-35052795D01*
X34439815Y-35119834D01*
X34423181Y-35140476D01*
X32201105Y-37362551D01*
X32139782Y-37396036D01*
X32087067Y-37396037D01*
X32035428Y-37384804D01*
X31892714Y-37374597D01*
X31750001Y-37364390D01*
X31749999Y-37364390D01*
X31464566Y-37384804D01*
X31184962Y-37445628D01*
X30916833Y-37545635D01*
X30665690Y-37682770D01*
X30665682Y-37682775D01*
X30508810Y-37800208D01*
X30443346Y-37824625D01*
X30375073Y-37809773D01*
X30325668Y-37760367D01*
X30310500Y-37700941D01*
X30310500Y-37337204D01*
X30330185Y-37270165D01*
X30346819Y-37249523D01*
X30788602Y-36807740D01*
X31319414Y-36276928D01*
X31421232Y-36136788D01*
X31499873Y-35982446D01*
X31553402Y-35817701D01*
X31580500Y-35646611D01*
X31580500Y-35473389D01*
X31580500Y-28319362D01*
X31600185Y-28252323D01*
X31652989Y-28206568D01*
X31722147Y-28196624D01*
X31770473Y-28214369D01*
X31820475Y-28245788D01*
X31990745Y-28305368D01*
X31990750Y-28305369D01*
X32081246Y-28315565D01*
X32125040Y-28320499D01*
X32125043Y-28320500D01*
X32125046Y-28320500D01*
X33914957Y-28320500D01*
X33914958Y-28320499D01*
X33982104Y-28312934D01*
X34049249Y-28305369D01*
X34049252Y-28305368D01*
X34049255Y-28305368D01*
X34219522Y-28245789D01*
X34221458Y-28244573D01*
X34269527Y-28214369D01*
X34336764Y-28195368D01*
X34403599Y-28215735D01*
G37*
G04 #@! TD.AperFunction*
G04 #@! TA.AperFunction,NonConductor*
G36*
X62678888Y-35610185D02*
G01*
X62724643Y-35662989D01*
X62734587Y-35732147D01*
X62705562Y-35795703D01*
X62684734Y-35814818D01*
X62652786Y-35838028D01*
X59968033Y-38522781D01*
X59944817Y-38554736D01*
X59889487Y-38597401D01*
X59819873Y-38603379D01*
X59758079Y-38570772D01*
X59723722Y-38509933D01*
X59720500Y-38481849D01*
X59720500Y-36150047D01*
X59740185Y-36083008D01*
X59756819Y-36062366D01*
X60192366Y-35626819D01*
X60253689Y-35593334D01*
X60280047Y-35590500D01*
X62611849Y-35590500D01*
X62678888Y-35610185D01*
G37*
G04 #@! TD.AperFunction*
G04 #@! TA.AperFunction,NonConductor*
G36*
X66760835Y-38150185D02*
G01*
X66806590Y-38202989D01*
X66816534Y-38272147D01*
X66787509Y-38335703D01*
X66781477Y-38342181D01*
X65620477Y-39503181D01*
X65559154Y-39536666D01*
X65532796Y-39539500D01*
X65063247Y-39539500D01*
X64996208Y-39519815D01*
X64958253Y-39481472D01*
X64891816Y-39375738D01*
X64764262Y-39248184D01*
X64764259Y-39248182D01*
X64611523Y-39152211D01*
X64441254Y-39092631D01*
X64441249Y-39092630D01*
X64306960Y-39077500D01*
X64306954Y-39077500D01*
X63391047Y-39077500D01*
X63324008Y-39057815D01*
X63278253Y-39005011D01*
X63268309Y-38935853D01*
X63297334Y-38872297D01*
X63303366Y-38865819D01*
X64002366Y-38166819D01*
X64063689Y-38133334D01*
X64090047Y-38130500D01*
X66693796Y-38130500D01*
X66760835Y-38150185D01*
G37*
G04 #@! TD.AperFunction*
G04 #@! TA.AperFunction,NonConductor*
G36*
X74597981Y-37950185D02*
G01*
X74643736Y-38002989D01*
X74653680Y-38072147D01*
X74630209Y-38128810D01*
X74512775Y-38285682D01*
X74512770Y-38285690D01*
X74375635Y-38536833D01*
X74275628Y-38804962D01*
X74214804Y-39084566D01*
X74194390Y-39369998D01*
X74194390Y-39370001D01*
X74214804Y-39655433D01*
X74275628Y-39935037D01*
X74275630Y-39935043D01*
X74275631Y-39935046D01*
X74360099Y-40161513D01*
X74375635Y-40203166D01*
X74512770Y-40454309D01*
X74512775Y-40454317D01*
X74684254Y-40683387D01*
X74684270Y-40683405D01*
X74886594Y-40885729D01*
X74886612Y-40885745D01*
X75115682Y-41057224D01*
X75115690Y-41057229D01*
X75366833Y-41194364D01*
X75366832Y-41194364D01*
X75366836Y-41194365D01*
X75366839Y-41194367D01*
X75634954Y-41294369D01*
X75634960Y-41294370D01*
X75634962Y-41294371D01*
X75914566Y-41355195D01*
X75914568Y-41355195D01*
X75914572Y-41355196D01*
X76168220Y-41373337D01*
X76199999Y-41375610D01*
X76200000Y-41375610D01*
X76200001Y-41375610D01*
X76228595Y-41373564D01*
X76485428Y-41355196D01*
X76765046Y-41294369D01*
X77033161Y-41194367D01*
X77284315Y-41057226D01*
X77513395Y-40885739D01*
X77715739Y-40683395D01*
X77887226Y-40454315D01*
X78024367Y-40203161D01*
X78124369Y-39935046D01*
X78175822Y-39698522D01*
X78185195Y-39655433D01*
X78185195Y-39655432D01*
X78185196Y-39655428D01*
X78205610Y-39370000D01*
X78185196Y-39084572D01*
X78179375Y-39057815D01*
X78124371Y-38804962D01*
X78124370Y-38804960D01*
X78124369Y-38804954D01*
X78024367Y-38536839D01*
X77947932Y-38396860D01*
X77887229Y-38285690D01*
X77887224Y-38285682D01*
X77769791Y-38128810D01*
X77745374Y-38063346D01*
X77760226Y-37995073D01*
X77809631Y-37945668D01*
X77869058Y-37930500D01*
X79735857Y-37930500D01*
X79802896Y-37950185D01*
X79848651Y-38002989D01*
X79858595Y-38072147D01*
X79835124Y-38128809D01*
X79727823Y-38272147D01*
X79677110Y-38339891D01*
X79677109Y-38339892D01*
X79546830Y-38578480D01*
X79499326Y-38705843D01*
X79451825Y-38833199D01*
X79451824Y-38833202D01*
X79451823Y-38833206D01*
X79394040Y-39098832D01*
X79394039Y-39098839D01*
X79374645Y-39369998D01*
X79374645Y-39370001D01*
X79394039Y-39641160D01*
X79394040Y-39641167D01*
X79445817Y-39879182D01*
X79451825Y-39906801D01*
X79475526Y-39970345D01*
X79546830Y-40161519D01*
X79677109Y-40400107D01*
X79677110Y-40400108D01*
X79677113Y-40400113D01*
X79840029Y-40617742D01*
X79840033Y-40617746D01*
X79840038Y-40617752D01*
X80032247Y-40809961D01*
X80032256Y-40809969D01*
X80032258Y-40809971D01*
X80129812Y-40882999D01*
X80171681Y-40938930D01*
X80179500Y-40982264D01*
X80179500Y-41402796D01*
X80159815Y-41469835D01*
X80143181Y-41490477D01*
X79590477Y-42043181D01*
X79529154Y-42076666D01*
X79502796Y-42079500D01*
X72897204Y-42079500D01*
X72830165Y-42059815D01*
X72809523Y-42043181D01*
X72256819Y-41490477D01*
X72223334Y-41429154D01*
X72220500Y-41402796D01*
X72220500Y-41107179D01*
X72240185Y-41040140D01*
X72270188Y-41007913D01*
X72433395Y-40885739D01*
X72635739Y-40683395D01*
X72807226Y-40454315D01*
X72944367Y-40203161D01*
X73044369Y-39935046D01*
X73095822Y-39698522D01*
X73105195Y-39655433D01*
X73105195Y-39655432D01*
X73105196Y-39655428D01*
X73125610Y-39370000D01*
X73105196Y-39084572D01*
X73099375Y-39057815D01*
X73044371Y-38804962D01*
X73044370Y-38804960D01*
X73044369Y-38804954D01*
X72944367Y-38536839D01*
X72867932Y-38396860D01*
X72807229Y-38285690D01*
X72807224Y-38285682D01*
X72689791Y-38128810D01*
X72665374Y-38063346D01*
X72680226Y-37995073D01*
X72729631Y-37945668D01*
X72789058Y-37930500D01*
X74530942Y-37930500D01*
X74597981Y-37950185D01*
G37*
G04 #@! TD.AperFunction*
G04 #@! TA.AperFunction,NonConductor*
G36*
X69036853Y-39302001D02*
G01*
X69092786Y-39343873D01*
X69117203Y-39409337D01*
X69134804Y-39655433D01*
X69195628Y-39935037D01*
X69195630Y-39935043D01*
X69195631Y-39935046D01*
X69280099Y-40161513D01*
X69295635Y-40203166D01*
X69432770Y-40454309D01*
X69432775Y-40454317D01*
X69604254Y-40683387D01*
X69604270Y-40683405D01*
X69806594Y-40885729D01*
X69806612Y-40885745D01*
X69877660Y-40938930D01*
X69969810Y-41007913D01*
X70011682Y-41063845D01*
X70019500Y-41107179D01*
X70019500Y-41402796D01*
X69999815Y-41469835D01*
X69983181Y-41490477D01*
X69430477Y-42043181D01*
X69369154Y-42076666D01*
X69342796Y-42079500D01*
X65006068Y-42079500D01*
X64939029Y-42059815D01*
X64893274Y-42007011D01*
X64883330Y-41937853D01*
X64901074Y-41889528D01*
X64958253Y-41798528D01*
X65010588Y-41752237D01*
X65063247Y-41740500D01*
X66126610Y-41740500D01*
X66126611Y-41740500D01*
X66297701Y-41713402D01*
X66462445Y-41659873D01*
X66616788Y-41581232D01*
X66756928Y-41479414D01*
X68905840Y-39330500D01*
X68967161Y-39297017D01*
X69036853Y-39302001D01*
G37*
G04 #@! TD.AperFunction*
G04 #@! TA.AperFunction,NonConductor*
G36*
X48968460Y-34838947D02*
G01*
X48993199Y-34848175D01*
X48993202Y-34848176D01*
X49132092Y-34878389D01*
X49258840Y-34905961D01*
X49510605Y-34923967D01*
X49529999Y-34925355D01*
X49530000Y-34925355D01*
X49530001Y-34925355D01*
X49549395Y-34923967D01*
X49801160Y-34905961D01*
X49801165Y-34905960D01*
X49841089Y-34897275D01*
X49910780Y-34902259D01*
X49955129Y-34930760D01*
X52253181Y-37228812D01*
X52286666Y-37290135D01*
X52289500Y-37316493D01*
X52289500Y-39045335D01*
X52269815Y-39112374D01*
X52231473Y-39150328D01*
X52075739Y-39248182D01*
X51948184Y-39375737D01*
X51852211Y-39528476D01*
X51792631Y-39698745D01*
X51792630Y-39698750D01*
X51777500Y-39833039D01*
X51777500Y-41446960D01*
X51792630Y-41581249D01*
X51792631Y-41581254D01*
X51852211Y-41751523D01*
X51948184Y-41904262D01*
X51961741Y-41917819D01*
X51995226Y-41979142D01*
X51990242Y-42048834D01*
X51948370Y-42104767D01*
X51882906Y-42129184D01*
X51874060Y-42129500D01*
X48164500Y-42129500D01*
X48097461Y-42109815D01*
X48051706Y-42057011D01*
X48040500Y-42005500D01*
X48040500Y-40536534D01*
X48040499Y-40536530D01*
X48024146Y-40454317D01*
X48000130Y-40333580D01*
X47920941Y-40142402D01*
X47805977Y-39970345D01*
X47714811Y-39879179D01*
X47681328Y-39817859D01*
X47681328Y-39765145D01*
X47705196Y-39655428D01*
X47725610Y-39370000D01*
X47705196Y-39084572D01*
X47699375Y-39057815D01*
X47644371Y-38804962D01*
X47644370Y-38804960D01*
X47644369Y-38804954D01*
X47544367Y-38536839D01*
X47467932Y-38396860D01*
X47407229Y-38285690D01*
X47407224Y-38285682D01*
X47235745Y-38056612D01*
X47235729Y-38056594D01*
X47033405Y-37854270D01*
X47033387Y-37854254D01*
X46820190Y-37694657D01*
X46778318Y-37638723D01*
X46770500Y-37595390D01*
X46770500Y-37582841D01*
X46790185Y-37515802D01*
X46842989Y-37470047D01*
X46903346Y-37459157D01*
X46990000Y-37465355D01*
X46990001Y-37465355D01*
X47008100Y-37464060D01*
X47261160Y-37445961D01*
X47526801Y-37388175D01*
X47781513Y-37293172D01*
X47781517Y-37293169D01*
X47781519Y-37293169D01*
X47920717Y-37217161D01*
X48020113Y-37162887D01*
X48237742Y-36999971D01*
X48429971Y-36807742D01*
X48592887Y-36590113D01*
X48692571Y-36407555D01*
X48723169Y-36351519D01*
X48723169Y-36351517D01*
X48723172Y-36351513D01*
X48818175Y-36096801D01*
X48875961Y-35831160D01*
X48895355Y-35560000D01*
X48875961Y-35288840D01*
X48839197Y-35119835D01*
X48818176Y-35023202D01*
X48818175Y-35023199D01*
X48808948Y-34998462D01*
X48803963Y-34928774D01*
X48837448Y-34867450D01*
X48898770Y-34833964D01*
X48968460Y-34838947D01*
G37*
G04 #@! TD.AperFunction*
G04 #@! TA.AperFunction,NonConductor*
G36*
X33124927Y-40930226D02*
G01*
X33174332Y-40979631D01*
X33189500Y-41039058D01*
X33189500Y-41402795D01*
X33169815Y-41469834D01*
X33153181Y-41490476D01*
X32201105Y-42442551D01*
X32139782Y-42476036D01*
X32087067Y-42476037D01*
X32035428Y-42464804D01*
X31892714Y-42454597D01*
X31750001Y-42444390D01*
X31749999Y-42444390D01*
X31464566Y-42464804D01*
X31184962Y-42525628D01*
X30916833Y-42625635D01*
X30665690Y-42762770D01*
X30665682Y-42762775D01*
X30508810Y-42880208D01*
X30443346Y-42904625D01*
X30375073Y-42889773D01*
X30325668Y-42840367D01*
X30310500Y-42780941D01*
X30310500Y-41039058D01*
X30330185Y-40972019D01*
X30382989Y-40926264D01*
X30452147Y-40916320D01*
X30508810Y-40939791D01*
X30665682Y-41057224D01*
X30665690Y-41057229D01*
X30916833Y-41194364D01*
X30916832Y-41194364D01*
X30916836Y-41194365D01*
X30916839Y-41194367D01*
X31184954Y-41294369D01*
X31184960Y-41294370D01*
X31184962Y-41294371D01*
X31464566Y-41355195D01*
X31464568Y-41355195D01*
X31464572Y-41355196D01*
X31718220Y-41373337D01*
X31749999Y-41375610D01*
X31750000Y-41375610D01*
X31750001Y-41375610D01*
X31778595Y-41373564D01*
X32035428Y-41355196D01*
X32315046Y-41294369D01*
X32583161Y-41194367D01*
X32834315Y-41057226D01*
X32991190Y-40939791D01*
X33056654Y-40915374D01*
X33124927Y-40930226D01*
G37*
G04 #@! TD.AperFunction*
G04 #@! TA.AperFunction,NonConductor*
G36*
X59925703Y-45244437D02*
G01*
X59944818Y-45265265D01*
X59968031Y-45297215D01*
X59968036Y-45297221D01*
X60303134Y-45632319D01*
X60336619Y-45693642D01*
X60331635Y-45763334D01*
X60303134Y-45807681D01*
X59968036Y-46142778D01*
X59968033Y-46142781D01*
X59944817Y-46174736D01*
X59889487Y-46217401D01*
X59819873Y-46223379D01*
X59758079Y-46190772D01*
X59723722Y-46129933D01*
X59720500Y-46101849D01*
X59720500Y-45338150D01*
X59740185Y-45271111D01*
X59792989Y-45225356D01*
X59862147Y-45215412D01*
X59925703Y-45244437D01*
G37*
G04 #@! TD.AperFunction*
G04 #@! TA.AperFunction,NonConductor*
G36*
X57081920Y-45249226D02*
G01*
X57116277Y-45310064D01*
X57119500Y-45338150D01*
X57119500Y-46101849D01*
X57099815Y-46168888D01*
X57047011Y-46214643D01*
X56977853Y-46224587D01*
X56914297Y-46195562D01*
X56895183Y-46174736D01*
X56871966Y-46142781D01*
X56536866Y-45807681D01*
X56503381Y-45746358D01*
X56508365Y-45676666D01*
X56536866Y-45632319D01*
X56694370Y-45474815D01*
X56871966Y-45297219D01*
X56895182Y-45265265D01*
X56950512Y-45222599D01*
X57020125Y-45216620D01*
X57081920Y-45249226D01*
G37*
G04 #@! TD.AperFunction*
G04 #@! TA.AperFunction,NonConductor*
G36*
X83869238Y-37950185D02*
G01*
X83896488Y-37973967D01*
X83905708Y-37984762D01*
X83919311Y-38000689D01*
X83925193Y-38005712D01*
X83963383Y-38064219D01*
X83963881Y-38134087D01*
X83926526Y-38193132D01*
X83925256Y-38194232D01*
X83919311Y-38199311D01*
X83919309Y-38199313D01*
X83750588Y-38396859D01*
X83614843Y-38618376D01*
X83515427Y-38858389D01*
X83454778Y-39111009D01*
X83434396Y-39370000D01*
X83454778Y-39628990D01*
X83515427Y-39881610D01*
X83614843Y-40121623D01*
X83614845Y-40121627D01*
X83614846Y-40121628D01*
X83750588Y-40343140D01*
X83759788Y-40353912D01*
X83788360Y-40417672D01*
X83789500Y-40434445D01*
X83789500Y-43859953D01*
X83769815Y-43926992D01*
X83753181Y-43947634D01*
X80777634Y-46923181D01*
X80716311Y-46956666D01*
X80689953Y-46959500D01*
X64765167Y-46959500D01*
X64698128Y-46939815D01*
X64652373Y-46887011D01*
X64642429Y-46817853D01*
X64670876Y-46754969D01*
X64767998Y-46641255D01*
X64896503Y-46431554D01*
X64990621Y-46204332D01*
X65048036Y-45965185D01*
X65067332Y-45720000D01*
X65048036Y-45474815D01*
X64990621Y-45235668D01*
X64981147Y-45212795D01*
X64896505Y-45008449D01*
X64896503Y-45008446D01*
X64768001Y-44798750D01*
X64768000Y-44798747D01*
X64608271Y-44611729D01*
X64529308Y-44544288D01*
X64491116Y-44485784D01*
X64490617Y-44415916D01*
X64527971Y-44356869D01*
X64529214Y-44355791D01*
X64582585Y-44310208D01*
X64646345Y-44281639D01*
X64663115Y-44280500D01*
X69936610Y-44280500D01*
X69936611Y-44280500D01*
X70107701Y-44253402D01*
X70272445Y-44199873D01*
X70426788Y-44121232D01*
X70566928Y-44019414D01*
X71032319Y-43554023D01*
X71093642Y-43520538D01*
X71163334Y-43525522D01*
X71207681Y-43554023D01*
X71673072Y-44019414D01*
X71813212Y-44121232D01*
X71886131Y-44158386D01*
X71967549Y-44199871D01*
X71967551Y-44199871D01*
X71967554Y-44199873D01*
X72132299Y-44253402D01*
X72303389Y-44280500D01*
X72303390Y-44280500D01*
X80096610Y-44280500D01*
X80096611Y-44280500D01*
X80267701Y-44253402D01*
X80432445Y-44199873D01*
X80586788Y-44121232D01*
X80726928Y-44019414D01*
X82119414Y-42626928D01*
X82221232Y-42486788D01*
X82299873Y-42332446D01*
X82353402Y-42167701D01*
X82380500Y-41996611D01*
X82380500Y-41823389D01*
X82380500Y-40982264D01*
X82400185Y-40915225D01*
X82430185Y-40883001D01*
X82527742Y-40809971D01*
X82719971Y-40617742D01*
X82882887Y-40400113D01*
X83013172Y-40161513D01*
X83108175Y-39906801D01*
X83165961Y-39641160D01*
X83185355Y-39370000D01*
X83165961Y-39098840D01*
X83108175Y-38833199D01*
X83013172Y-38578487D01*
X83013170Y-38578484D01*
X83013169Y-38578480D01*
X82882890Y-38339892D01*
X82882889Y-38339891D01*
X82882887Y-38339887D01*
X82724875Y-38128809D01*
X82700459Y-38063346D01*
X82715311Y-37995073D01*
X82764716Y-37945668D01*
X82824143Y-37930500D01*
X83802199Y-37930500D01*
X83869238Y-37950185D01*
G37*
G04 #@! TD.AperFunction*
G04 #@! TA.AperFunction,NonConductor*
G36*
X34378834Y-43480021D02*
G01*
X34434767Y-43521893D01*
X34459184Y-43587357D01*
X34459500Y-43596203D01*
X34459500Y-45212795D01*
X34439815Y-45279834D01*
X34423181Y-45300476D01*
X32201105Y-47522551D01*
X32139782Y-47556036D01*
X32087067Y-47556037D01*
X32035428Y-47544804D01*
X31892714Y-47534597D01*
X31750001Y-47524390D01*
X31749999Y-47524390D01*
X31464566Y-47544804D01*
X31184962Y-47605628D01*
X30916833Y-47705635D01*
X30665690Y-47842770D01*
X30665682Y-47842775D01*
X30508810Y-47960208D01*
X30443346Y-47984625D01*
X30375073Y-47969773D01*
X30325668Y-47920367D01*
X30310500Y-47860941D01*
X30310500Y-46119058D01*
X30330185Y-46052019D01*
X30382989Y-46006264D01*
X30452147Y-45996320D01*
X30508810Y-46019791D01*
X30665682Y-46137224D01*
X30665690Y-46137229D01*
X30916833Y-46274364D01*
X30916832Y-46274364D01*
X30916836Y-46274365D01*
X30916839Y-46274367D01*
X31184954Y-46374369D01*
X31184960Y-46374370D01*
X31184962Y-46374371D01*
X31464566Y-46435195D01*
X31464568Y-46435195D01*
X31464572Y-46435196D01*
X31718220Y-46453337D01*
X31749999Y-46455610D01*
X31750000Y-46455610D01*
X31750001Y-46455610D01*
X31778595Y-46453564D01*
X32035428Y-46435196D01*
X32052189Y-46431550D01*
X32315037Y-46374371D01*
X32315037Y-46374370D01*
X32315046Y-46374369D01*
X32583161Y-46274367D01*
X32834315Y-46137226D01*
X33063395Y-45965739D01*
X33265739Y-45763395D01*
X33437226Y-45534315D01*
X33574367Y-45283161D01*
X33674369Y-45015046D01*
X33688690Y-44949215D01*
X33735195Y-44735433D01*
X33735195Y-44735432D01*
X33735196Y-44735428D01*
X33755610Y-44450000D01*
X33735196Y-44164572D01*
X33723962Y-44112931D01*
X33728945Y-44043243D01*
X33757445Y-43998895D01*
X34247820Y-43508521D01*
X34309142Y-43475037D01*
X34378834Y-43480021D01*
G37*
G04 #@! TD.AperFunction*
G04 #@! TA.AperFunction,NonConductor*
G36*
X23081053Y-5719278D02*
G01*
X23130459Y-5768683D01*
X23145311Y-5836956D01*
X23132112Y-5884405D01*
X23110129Y-5927549D01*
X23056597Y-6092302D01*
X23035667Y-6224451D01*
X23029500Y-6263389D01*
X23029500Y-11516611D01*
X23037677Y-11568239D01*
X23050547Y-11649500D01*
X23056598Y-11687701D01*
X23110127Y-11852445D01*
X23188768Y-12006788D01*
X23290586Y-12146928D01*
X23413072Y-12269414D01*
X23553212Y-12371232D01*
X23707555Y-12449873D01*
X23872299Y-12503402D01*
X24043389Y-12530500D01*
X24216611Y-12530500D01*
X29255500Y-12530500D01*
X29322539Y-12550185D01*
X29368294Y-12602989D01*
X29379500Y-12654500D01*
X29379500Y-13833482D01*
X29359815Y-13900521D01*
X29307011Y-13946276D01*
X29237853Y-13956220D01*
X29174969Y-13927772D01*
X29143143Y-13900590D01*
X29143030Y-13900521D01*
X28921628Y-13764846D01*
X28921627Y-13764845D01*
X28921623Y-13764843D01*
X28755627Y-13696086D01*
X28681610Y-13665427D01*
X28681611Y-13665427D01*
X28474912Y-13615803D01*
X28428994Y-13604779D01*
X28428992Y-13604778D01*
X28428991Y-13604778D01*
X28170000Y-13584396D01*
X27911009Y-13604778D01*
X27658389Y-13665427D01*
X27418376Y-13764843D01*
X27196859Y-13900588D01*
X26999311Y-14069311D01*
X26830588Y-14266859D01*
X26694843Y-14488376D01*
X26595427Y-14728389D01*
X26534778Y-14981009D01*
X26514396Y-15240000D01*
X26534778Y-15498990D01*
X26595427Y-15751610D01*
X26694843Y-15991623D01*
X26694845Y-15991627D01*
X26694846Y-15991628D01*
X26807703Y-16175795D01*
X26825947Y-16243240D01*
X26804830Y-16309843D01*
X26789657Y-16328265D01*
X26690183Y-16427739D01*
X26594211Y-16580476D01*
X26534631Y-16750745D01*
X26534630Y-16750750D01*
X26519500Y-16885039D01*
X26519500Y-18674960D01*
X26534630Y-18809249D01*
X26534631Y-18809254D01*
X26594211Y-18979523D01*
X26690184Y-19132262D01*
X26789656Y-19231734D01*
X26823141Y-19293057D01*
X26818157Y-19362749D01*
X26807703Y-19384204D01*
X26694845Y-19568373D01*
X26595427Y-19808389D01*
X26534778Y-20061009D01*
X26514396Y-20320000D01*
X26534778Y-20578990D01*
X26595427Y-20831610D01*
X26694843Y-21071623D01*
X26694845Y-21071627D01*
X26694846Y-21071628D01*
X26830588Y-21293140D01*
X26999311Y-21490689D01*
X27196860Y-21659412D01*
X27418372Y-21795154D01*
X27418374Y-21795154D01*
X27418376Y-21795156D01*
X27479693Y-21820554D01*
X27658390Y-21894573D01*
X27911006Y-21955221D01*
X28170000Y-21975604D01*
X28234414Y-21970534D01*
X28302790Y-21984898D01*
X28352547Y-22033949D01*
X28367886Y-22102114D01*
X28343938Y-22167751D01*
X28331823Y-22181833D01*
X27223072Y-23290586D01*
X27100588Y-23413069D01*
X27100588Y-23413070D01*
X27100586Y-23413072D01*
X27056859Y-23473256D01*
X26998768Y-23553211D01*
X26920128Y-23707552D01*
X26866597Y-23872302D01*
X26839500Y-24043389D01*
X26839500Y-25382198D01*
X26819815Y-25449237D01*
X26796033Y-25476487D01*
X26769318Y-25499303D01*
X26769311Y-25499311D01*
X26600588Y-25696859D01*
X26464843Y-25918376D01*
X26365427Y-26158389D01*
X26304778Y-26411009D01*
X26284396Y-26670000D01*
X26304778Y-26928990D01*
X26365427Y-27181610D01*
X26464843Y-27421623D01*
X26464845Y-27421627D01*
X26464846Y-27421628D01*
X26600588Y-27643140D01*
X26769311Y-27840689D01*
X26966860Y-28009412D01*
X27188372Y-28145154D01*
X27188374Y-28145154D01*
X27188376Y-28145156D01*
X27249693Y-28170554D01*
X27428390Y-28244573D01*
X27681006Y-28305221D01*
X27940000Y-28325604D01*
X28198994Y-28305221D01*
X28451610Y-28244573D01*
X28691628Y-28145154D01*
X28913140Y-28009412D01*
X29110689Y-27840689D01*
X29115710Y-27834809D01*
X29174213Y-27796617D01*
X29244081Y-27796116D01*
X29303128Y-27833468D01*
X29304197Y-27834702D01*
X29309311Y-27840689D01*
X29336032Y-27863511D01*
X29374224Y-27922016D01*
X29379500Y-27957800D01*
X29379500Y-35052796D01*
X29359815Y-35119835D01*
X29343181Y-35140477D01*
X28370588Y-36113069D01*
X28370588Y-36113070D01*
X28370586Y-36113072D01*
X28343722Y-36150047D01*
X28268768Y-36253211D01*
X28190128Y-36407552D01*
X28190127Y-36407554D01*
X28190127Y-36407555D01*
X28182448Y-36431187D01*
X28136597Y-36572302D01*
X28109500Y-36743389D01*
X28109500Y-52832796D01*
X28089815Y-52899835D01*
X28073181Y-52920477D01*
X27520477Y-53473181D01*
X27459154Y-53506666D01*
X27432796Y-53509500D01*
X16423389Y-53509500D01*
X16402810Y-53512759D01*
X16252298Y-53536597D01*
X16206820Y-53551374D01*
X16200491Y-53553431D01*
X16162174Y-53559500D01*
X13874500Y-53559500D01*
X13807461Y-53539815D01*
X13761706Y-53487011D01*
X13750500Y-53435500D01*
X13750500Y-18724500D01*
X13770185Y-18657461D01*
X13822989Y-18611706D01*
X13874500Y-18600500D01*
X14452487Y-18600500D01*
X14519526Y-18620185D01*
X14565281Y-18672989D01*
X14575225Y-18742147D01*
X14546777Y-18805030D01*
X14534657Y-18819222D01*
X14511492Y-18846344D01*
X14511491Y-18846346D01*
X14379864Y-19061140D01*
X14283457Y-19293889D01*
X14224648Y-19538848D01*
X14204882Y-19790000D01*
X14224648Y-20041151D01*
X14283457Y-20286110D01*
X14379864Y-20518859D01*
X14511491Y-20733653D01*
X14511492Y-20733656D01*
X14614676Y-20854468D01*
X14643247Y-20918230D01*
X14632810Y-20987315D01*
X14614676Y-21015532D01*
X14511492Y-21136343D01*
X14511491Y-21136346D01*
X14379864Y-21351140D01*
X14283457Y-21583889D01*
X14224648Y-21828848D01*
X14204882Y-22080000D01*
X14224648Y-22331151D01*
X14283457Y-22576110D01*
X14379864Y-22808859D01*
X14511491Y-23023653D01*
X14511492Y-23023656D01*
X14511495Y-23023659D01*
X14675107Y-23215224D01*
X14763345Y-23290586D01*
X14866674Y-23378838D01*
X14866677Y-23378839D01*
X15081471Y-23510466D01*
X15184670Y-23553212D01*
X15314220Y-23606873D01*
X15559183Y-23665683D01*
X15810331Y-23685449D01*
X16061479Y-23665683D01*
X16121328Y-23651314D01*
X16191107Y-23654804D01*
X16247925Y-23695467D01*
X16264834Y-23724435D01*
X16359864Y-23953859D01*
X16491491Y-24168653D01*
X16491492Y-24168656D01*
X16491495Y-24168659D01*
X16655107Y-24360224D01*
X16846672Y-24523836D01*
X16990620Y-24612048D01*
X17037496Y-24663859D01*
X17049831Y-24717775D01*
X17049831Y-27707813D01*
X17030146Y-27774852D01*
X16981483Y-27818623D01*
X16947711Y-27835584D01*
X16675146Y-28014852D01*
X16425262Y-28224530D01*
X16425261Y-28224531D01*
X16425255Y-28224536D01*
X16425254Y-28224538D01*
X16201388Y-28461823D01*
X16201385Y-28461826D01*
X16201383Y-28461829D01*
X16201376Y-28461837D01*
X16006582Y-28723490D01*
X15843474Y-29006003D01*
X15843468Y-29006016D01*
X15714262Y-29305547D01*
X15620700Y-29618067D01*
X15620698Y-29618075D01*
X15564054Y-29939319D01*
X15564053Y-29939330D01*
X15545085Y-30264996D01*
X15545085Y-30265003D01*
X15564053Y-30590669D01*
X15564054Y-30590680D01*
X15620698Y-30911924D01*
X15620700Y-30911932D01*
X15714262Y-31224452D01*
X15843468Y-31523983D01*
X15843474Y-31523996D01*
X16006582Y-31806509D01*
X16201376Y-32068162D01*
X16201381Y-32068168D01*
X16201388Y-32068177D01*
X16425254Y-32305462D01*
X16425260Y-32305467D01*
X16425261Y-32305468D01*
X16425262Y-32305469D01*
X16675146Y-32515147D01*
X16675149Y-32515149D01*
X16675154Y-32515153D01*
X16947708Y-32694414D01*
X17239230Y-32840822D01*
X17545777Y-32952396D01*
X17545783Y-32952397D01*
X17545785Y-32952398D01*
X17863189Y-33027625D01*
X17863196Y-33027626D01*
X17863205Y-33027628D01*
X18187220Y-33065500D01*
X18187227Y-33065500D01*
X18513435Y-33065500D01*
X18513442Y-33065500D01*
X18837457Y-33027628D01*
X18837466Y-33027625D01*
X18837472Y-33027625D01*
X19093507Y-32966942D01*
X19154885Y-32952396D01*
X19461432Y-32840822D01*
X19752954Y-32694414D01*
X20025508Y-32515153D01*
X20275408Y-32305462D01*
X20275416Y-32305452D01*
X20278035Y-32302984D01*
X20278641Y-32303626D01*
X20335611Y-32270320D01*
X20405418Y-32273265D01*
X20462552Y-32313483D01*
X20488873Y-32378206D01*
X20489500Y-32390664D01*
X20489500Y-33782795D01*
X20469815Y-33849834D01*
X20453181Y-33870476D01*
X16961105Y-37362551D01*
X16899782Y-37396036D01*
X16847067Y-37396037D01*
X16795428Y-37384804D01*
X16652714Y-37374597D01*
X16510001Y-37364390D01*
X16509999Y-37364390D01*
X16224566Y-37384804D01*
X15944962Y-37445628D01*
X15676833Y-37545635D01*
X15425690Y-37682770D01*
X15425682Y-37682775D01*
X15196612Y-37854254D01*
X15196594Y-37854270D01*
X14994270Y-38056594D01*
X14994254Y-38056612D01*
X14822775Y-38285682D01*
X14822770Y-38285690D01*
X14685635Y-38536833D01*
X14585628Y-38804962D01*
X14524804Y-39084566D01*
X14504390Y-39369998D01*
X14504390Y-39370001D01*
X14524804Y-39655433D01*
X14585628Y-39935037D01*
X14585630Y-39935043D01*
X14585631Y-39935046D01*
X14670099Y-40161513D01*
X14685635Y-40203166D01*
X14822770Y-40454309D01*
X14822775Y-40454317D01*
X14994254Y-40683387D01*
X14994270Y-40683405D01*
X15196594Y-40885729D01*
X15196612Y-40885745D01*
X15409500Y-41045110D01*
X15425685Y-41057226D01*
X15477630Y-41085590D01*
X15527035Y-41134994D01*
X15528687Y-41138126D01*
X15568768Y-41216788D01*
X15670586Y-41356928D01*
X15793072Y-41479414D01*
X15933212Y-41581232D01*
X16087555Y-41659873D01*
X16252299Y-41713402D01*
X16423389Y-41740500D01*
X16423390Y-41740500D01*
X16596610Y-41740500D01*
X16596611Y-41740500D01*
X16767701Y-41713402D01*
X16932445Y-41659873D01*
X17086788Y-41581232D01*
X17226928Y-41479414D01*
X17349414Y-41356928D01*
X17451232Y-41216788D01*
X17491310Y-41138128D01*
X17539284Y-41087333D01*
X17542335Y-41085608D01*
X17594315Y-41057226D01*
X17823395Y-40885739D01*
X18025739Y-40683395D01*
X18197226Y-40454315D01*
X18334367Y-40203161D01*
X18434369Y-39935046D01*
X18485822Y-39698522D01*
X18495195Y-39655433D01*
X18495195Y-39655432D01*
X18495196Y-39655428D01*
X18515610Y-39370000D01*
X18495196Y-39084572D01*
X18483962Y-39032931D01*
X18488945Y-38963243D01*
X18517445Y-38918895D01*
X21547821Y-35888520D01*
X21609142Y-35855037D01*
X21678834Y-35860021D01*
X21734767Y-35901893D01*
X21759184Y-35967357D01*
X21759500Y-35976203D01*
X21759500Y-37592795D01*
X21739815Y-37659834D01*
X21723181Y-37680476D01*
X16961105Y-42442551D01*
X16899782Y-42476036D01*
X16847067Y-42476037D01*
X16795428Y-42464804D01*
X16652714Y-42454597D01*
X16510001Y-42444390D01*
X16509999Y-42444390D01*
X16224566Y-42464804D01*
X15944962Y-42525628D01*
X15676833Y-42625635D01*
X15425690Y-42762770D01*
X15425682Y-42762775D01*
X15196612Y-42934254D01*
X15196594Y-42934270D01*
X14994270Y-43136594D01*
X14994254Y-43136612D01*
X14822775Y-43365682D01*
X14822770Y-43365690D01*
X14685635Y-43616833D01*
X14585628Y-43884962D01*
X14524804Y-44164566D01*
X14504390Y-44449998D01*
X14504390Y-44450001D01*
X14524804Y-44735433D01*
X14585628Y-45015037D01*
X14585630Y-45015043D01*
X14585631Y-45015046D01*
X14664073Y-45225356D01*
X14685635Y-45283166D01*
X14822770Y-45534309D01*
X14822775Y-45534317D01*
X14994254Y-45763387D01*
X14994270Y-45763405D01*
X15196594Y-45965729D01*
X15196612Y-45965745D01*
X15425682Y-46137224D01*
X15425690Y-46137229D01*
X15676833Y-46274364D01*
X15676832Y-46274364D01*
X15676836Y-46274365D01*
X15676839Y-46274367D01*
X15944954Y-46374369D01*
X15944960Y-46374370D01*
X15944962Y-46374371D01*
X16224566Y-46435195D01*
X16224568Y-46435195D01*
X16224572Y-46435196D01*
X16478220Y-46453337D01*
X16509999Y-46455610D01*
X16510000Y-46455610D01*
X16510001Y-46455610D01*
X16538595Y-46453564D01*
X16795428Y-46435196D01*
X16812189Y-46431550D01*
X17075037Y-46374371D01*
X17075037Y-46374370D01*
X17075046Y-46374369D01*
X17343161Y-46274367D01*
X17594315Y-46137226D01*
X17823395Y-45965739D01*
X18025739Y-45763395D01*
X18197226Y-45534315D01*
X18334367Y-45283161D01*
X18434369Y-45015046D01*
X18448690Y-44949215D01*
X18495195Y-44735433D01*
X18495195Y-44735432D01*
X18495196Y-44735428D01*
X18515610Y-44450000D01*
X18495196Y-44164572D01*
X18483962Y-44112931D01*
X18488945Y-44043243D01*
X18517445Y-43998895D01*
X22817821Y-39698520D01*
X22879142Y-39665037D01*
X22948834Y-39670021D01*
X23004767Y-39711893D01*
X23029184Y-39777357D01*
X23029500Y-39786203D01*
X23029500Y-41402795D01*
X23009815Y-41469834D01*
X22993181Y-41490476D01*
X16961105Y-47522551D01*
X16899782Y-47556036D01*
X16847067Y-47556037D01*
X16795428Y-47544804D01*
X16652714Y-47534597D01*
X16510001Y-47524390D01*
X16509999Y-47524390D01*
X16224566Y-47544804D01*
X15944962Y-47605628D01*
X15676833Y-47705635D01*
X15425690Y-47842770D01*
X15425682Y-47842775D01*
X15196612Y-48014254D01*
X15196594Y-48014270D01*
X14994270Y-48216594D01*
X14994254Y-48216612D01*
X14822775Y-48445682D01*
X14822770Y-48445690D01*
X14685635Y-48696833D01*
X14585628Y-48964962D01*
X14524804Y-49244566D01*
X14504390Y-49529998D01*
X14504390Y-49530001D01*
X14524804Y-49815433D01*
X14585628Y-50095037D01*
X14685635Y-50363166D01*
X14822770Y-50614309D01*
X14822775Y-50614317D01*
X14994254Y-50843387D01*
X14994270Y-50843405D01*
X15196594Y-51045729D01*
X15196612Y-51045745D01*
X15425682Y-51217224D01*
X15425690Y-51217229D01*
X15676833Y-51354364D01*
X15676832Y-51354364D01*
X15676836Y-51354365D01*
X15676839Y-51354367D01*
X15944954Y-51454369D01*
X15944960Y-51454370D01*
X15944962Y-51454371D01*
X16224566Y-51515195D01*
X16224568Y-51515195D01*
X16224572Y-51515196D01*
X16478220Y-51533337D01*
X16509999Y-51535610D01*
X16510000Y-51535610D01*
X16510001Y-51535610D01*
X16538595Y-51533564D01*
X16795428Y-51515196D01*
X16812189Y-51511550D01*
X17075037Y-51454371D01*
X17075037Y-51454370D01*
X17075046Y-51454369D01*
X17343161Y-51354367D01*
X17594315Y-51217226D01*
X17823395Y-51045739D01*
X18025739Y-50843395D01*
X18197226Y-50614315D01*
X18334367Y-50363161D01*
X18434369Y-50095046D01*
X18495196Y-49815428D01*
X18515610Y-49530000D01*
X18495196Y-49244572D01*
X18483962Y-49192931D01*
X18488945Y-49123243D01*
X18517445Y-49078895D01*
X24969414Y-42626928D01*
X25071232Y-42486788D01*
X25149873Y-42332446D01*
X25203402Y-42167701D01*
X25230500Y-41996611D01*
X25230500Y-41823390D01*
X25230500Y-41823389D01*
X25230500Y-40553389D01*
X25230500Y-20233389D01*
X25203402Y-20062299D01*
X25186928Y-20011598D01*
X25186928Y-20011597D01*
X25149874Y-19897556D01*
X25121319Y-19841513D01*
X25071232Y-19743212D01*
X24969414Y-19603072D01*
X22026928Y-16660586D01*
X21886788Y-16558768D01*
X21732445Y-16480127D01*
X21567701Y-16426598D01*
X21567699Y-16426597D01*
X21567698Y-16426597D01*
X21436271Y-16405781D01*
X21396611Y-16399500D01*
X21396610Y-16399500D01*
X21128176Y-16399500D01*
X21061137Y-16379815D01*
X21015382Y-16327011D01*
X21005438Y-16257853D01*
X21033885Y-16194969D01*
X21045618Y-16181231D01*
X21069167Y-16153659D01*
X21200797Y-15938859D01*
X21297204Y-15706111D01*
X21356014Y-15461148D01*
X21375780Y-15210000D01*
X21356014Y-14958852D01*
X21297204Y-14713889D01*
X21266683Y-14640205D01*
X21200797Y-14481140D01*
X21069170Y-14266346D01*
X21069169Y-14266343D01*
X20965986Y-14145532D01*
X20937415Y-14081770D01*
X20947852Y-14012685D01*
X20965986Y-13984468D01*
X21069167Y-13863659D01*
X21200797Y-13648859D01*
X21297204Y-13416111D01*
X21356014Y-13171148D01*
X21375780Y-12920000D01*
X21356014Y-12668852D01*
X21297204Y-12423889D01*
X21275393Y-12371232D01*
X21200797Y-12191140D01*
X21069170Y-11976346D01*
X21069169Y-11976343D01*
X21005568Y-11901876D01*
X20905555Y-11784776D01*
X20724119Y-11629815D01*
X20713987Y-11621161D01*
X20713984Y-11621160D01*
X20499190Y-11489533D01*
X20266441Y-11393126D01*
X20266443Y-11393126D01*
X20058580Y-11343223D01*
X19999846Y-11310330D01*
X19687150Y-10997634D01*
X19653665Y-10936311D01*
X19650831Y-10909953D01*
X19650831Y-7822186D01*
X19670516Y-7755147D01*
X19719177Y-7711377D01*
X19752954Y-7694414D01*
X20025508Y-7515153D01*
X20275408Y-7305462D01*
X20499274Y-7068177D01*
X20694080Y-6806508D01*
X20797430Y-6627498D01*
X20847995Y-6579285D01*
X20904816Y-6565500D01*
X21507351Y-6565500D01*
X21507352Y-6565500D01*
X21709535Y-6533477D01*
X21806876Y-6501848D01*
X21904219Y-6470220D01*
X21995414Y-6423753D01*
X22086611Y-6377287D01*
X22252219Y-6256966D01*
X22758204Y-5750979D01*
X22819525Y-5717496D01*
X22854729Y-5714978D01*
X22860000Y-5715355D01*
X23012782Y-5704427D01*
X23081053Y-5719278D01*
G37*
G04 #@! TD.AperFunction*
G04 #@! TA.AperFunction,NonConductor*
G36*
X78652539Y-49580185D02*
G01*
X78698294Y-49632989D01*
X78709500Y-49684500D01*
X78709500Y-57265500D01*
X78689815Y-57332539D01*
X78637011Y-57378294D01*
X78585500Y-57389500D01*
X70479047Y-57389500D01*
X70412008Y-57369815D01*
X70366253Y-57317011D01*
X70356309Y-57247853D01*
X70385334Y-57184297D01*
X70391366Y-57177819D01*
X70924640Y-56644544D01*
X70985963Y-56611059D01*
X71021167Y-56608541D01*
X71120000Y-56615610D01*
X71120001Y-56615610D01*
X71148595Y-56613564D01*
X71405428Y-56595196D01*
X71685046Y-56534369D01*
X71953161Y-56434367D01*
X72204315Y-56297226D01*
X72433395Y-56125739D01*
X72433405Y-56125729D01*
X72612316Y-55946819D01*
X72673639Y-55913334D01*
X72699997Y-55910500D01*
X74620003Y-55910500D01*
X74687042Y-55930185D01*
X74707684Y-55946819D01*
X74886594Y-56125729D01*
X74886612Y-56125745D01*
X75115682Y-56297224D01*
X75115690Y-56297229D01*
X75366833Y-56434364D01*
X75366832Y-56434364D01*
X75366836Y-56434365D01*
X75366839Y-56434367D01*
X75634954Y-56534369D01*
X75634960Y-56534370D01*
X75634962Y-56534371D01*
X75914566Y-56595195D01*
X75914568Y-56595195D01*
X75914572Y-56595196D01*
X76168220Y-56613337D01*
X76199999Y-56615610D01*
X76200000Y-56615610D01*
X76200001Y-56615610D01*
X76228595Y-56613564D01*
X76485428Y-56595196D01*
X76765046Y-56534369D01*
X77033161Y-56434367D01*
X77284315Y-56297226D01*
X77513395Y-56125739D01*
X77715739Y-55923395D01*
X77887226Y-55694315D01*
X78024367Y-55443161D01*
X78124369Y-55175046D01*
X78139042Y-55107596D01*
X78185195Y-54895433D01*
X78185195Y-54895432D01*
X78185196Y-54895428D01*
X78205610Y-54610000D01*
X78185196Y-54324572D01*
X78171422Y-54261255D01*
X78124371Y-54044962D01*
X78124370Y-54044960D01*
X78124369Y-54044954D01*
X78024367Y-53776839D01*
X77919712Y-53585179D01*
X77887229Y-53525690D01*
X77887224Y-53525682D01*
X77715745Y-53296612D01*
X77715729Y-53296594D01*
X77513405Y-53094270D01*
X77513387Y-53094254D01*
X77284317Y-52922775D01*
X77284309Y-52922770D01*
X77033166Y-52785635D01*
X77033167Y-52785635D01*
X76925915Y-52745632D01*
X76765046Y-52685631D01*
X76765043Y-52685630D01*
X76765037Y-52685628D01*
X76485433Y-52624804D01*
X76200001Y-52604390D01*
X76199999Y-52604390D01*
X75914566Y-52624804D01*
X75634962Y-52685628D01*
X75366833Y-52785635D01*
X75115690Y-52922770D01*
X75115682Y-52922775D01*
X74886612Y-53094254D01*
X74886594Y-53094270D01*
X74707684Y-53273181D01*
X74646361Y-53306666D01*
X74620003Y-53309500D01*
X72699997Y-53309500D01*
X72632958Y-53289815D01*
X72612316Y-53273181D01*
X72433405Y-53094270D01*
X72433387Y-53094254D01*
X72204317Y-52922775D01*
X72204309Y-52922770D01*
X71953166Y-52785635D01*
X71953167Y-52785635D01*
X71845915Y-52745632D01*
X71685046Y-52685631D01*
X71685043Y-52685630D01*
X71685037Y-52685628D01*
X71405433Y-52624804D01*
X71120001Y-52604390D01*
X71119999Y-52604390D01*
X70834566Y-52624804D01*
X70554962Y-52685628D01*
X70286833Y-52785635D01*
X70035690Y-52922770D01*
X70035682Y-52922775D01*
X69806612Y-53094254D01*
X69806594Y-53094270D01*
X69604270Y-53296594D01*
X69604254Y-53296612D01*
X69432775Y-53525682D01*
X69432770Y-53525690D01*
X69295635Y-53776833D01*
X69195628Y-54044962D01*
X69134804Y-54324566D01*
X69114390Y-54609998D01*
X69114390Y-54610001D01*
X69121458Y-54708832D01*
X69106606Y-54777104D01*
X69085455Y-54805358D01*
X68077634Y-55813181D01*
X68016311Y-55846666D01*
X67989953Y-55849500D01*
X62820047Y-55849500D01*
X62753008Y-55829815D01*
X62732366Y-55813181D01*
X62296819Y-55377634D01*
X62263334Y-55316311D01*
X62260500Y-55289953D01*
X62260500Y-54605167D01*
X62280185Y-54538128D01*
X62332989Y-54492373D01*
X62402147Y-54482429D01*
X62465030Y-54510876D01*
X62578745Y-54607998D01*
X62578747Y-54607999D01*
X62578748Y-54608000D01*
X62578750Y-54608001D01*
X62788446Y-54736503D01*
X62788449Y-54736505D01*
X63015663Y-54830619D01*
X63015668Y-54830621D01*
X63254815Y-54888036D01*
X63500000Y-54907332D01*
X63745185Y-54888036D01*
X63984332Y-54830621D01*
X64193368Y-54744036D01*
X64211550Y-54736505D01*
X64211551Y-54736504D01*
X64211554Y-54736503D01*
X64421255Y-54607998D01*
X64608271Y-54448271D01*
X64767998Y-54261255D01*
X64896503Y-54051554D01*
X64899234Y-54044962D01*
X64990619Y-53824336D01*
X64990621Y-53824332D01*
X65048036Y-53585185D01*
X65067332Y-53340000D01*
X65048036Y-53094815D01*
X64990621Y-52855668D01*
X64920190Y-52685631D01*
X64896505Y-52628449D01*
X64896503Y-52628446D01*
X64874786Y-52593007D01*
X64768000Y-52418749D01*
X64768000Y-52418747D01*
X64608271Y-52231729D01*
X64529308Y-52164288D01*
X64491116Y-52105784D01*
X64490617Y-52035916D01*
X64527971Y-51976869D01*
X64529214Y-51975791D01*
X64608271Y-51908271D01*
X64767998Y-51721255D01*
X64896503Y-51511554D01*
X64990621Y-51284332D01*
X65048036Y-51045185D01*
X65067332Y-50800000D01*
X65048036Y-50554815D01*
X64990621Y-50315668D01*
X64990619Y-50315663D01*
X64896505Y-50088449D01*
X64896503Y-50088446D01*
X64768001Y-49878750D01*
X64768000Y-49878748D01*
X64767999Y-49878747D01*
X64767998Y-49878745D01*
X64670876Y-49765030D01*
X64642306Y-49701271D01*
X64652743Y-49632185D01*
X64698874Y-49579709D01*
X64765167Y-49560500D01*
X78585500Y-49560500D01*
X78652539Y-49580185D01*
G37*
G04 #@! TD.AperFunction*
G04 #@! TA.AperFunction,NonConductor*
G36*
X59925703Y-56674437D02*
G01*
X59944818Y-56695265D01*
X59968031Y-56727215D01*
X59968036Y-56727221D01*
X60418634Y-57177819D01*
X60452119Y-57239142D01*
X60447135Y-57308834D01*
X60405263Y-57364767D01*
X60339799Y-57389184D01*
X60330953Y-57389500D01*
X59844500Y-57389500D01*
X59777461Y-57369815D01*
X59731706Y-57317011D01*
X59720500Y-57265500D01*
X59720500Y-56768150D01*
X59740185Y-56701111D01*
X59792989Y-56655356D01*
X59862147Y-56645412D01*
X59925703Y-56674437D01*
G37*
G04 #@! TD.AperFunction*
G04 #@! TA.AperFunction,NonConductor*
G36*
X57081920Y-56679226D02*
G01*
X57116277Y-56740064D01*
X57119500Y-56768150D01*
X57119500Y-57265500D01*
X57099815Y-57332539D01*
X57047011Y-57378294D01*
X56995500Y-57389500D01*
X56509047Y-57389500D01*
X56442008Y-57369815D01*
X56396253Y-57317011D01*
X56386309Y-57247853D01*
X56415334Y-57184297D01*
X56421366Y-57177819D01*
X56871966Y-56727219D01*
X56895182Y-56695265D01*
X56950512Y-56652599D01*
X57020125Y-56646620D01*
X57081920Y-56679226D01*
G37*
G04 #@! TD.AperFunction*
G04 #@! TA.AperFunction,NonConductor*
G36*
X52141872Y-49580185D02*
G01*
X52187627Y-49632989D01*
X52197571Y-49702147D01*
X52169123Y-49765030D01*
X52126080Y-49815428D01*
X52071999Y-49878748D01*
X52071998Y-49878750D01*
X51943496Y-50088446D01*
X51943494Y-50088449D01*
X51849380Y-50315663D01*
X51791963Y-50554820D01*
X51772668Y-50800000D01*
X51791963Y-51045179D01*
X51791963Y-51045182D01*
X51791964Y-51045185D01*
X51828906Y-51199058D01*
X51849380Y-51284336D01*
X51943494Y-51511550D01*
X51943496Y-51511553D01*
X52071998Y-51721249D01*
X52071999Y-51721252D01*
X52126125Y-51784625D01*
X52231729Y-51908271D01*
X52310689Y-51975709D01*
X52310690Y-51975710D01*
X52348883Y-52034217D01*
X52349381Y-52104085D01*
X52312027Y-52163131D01*
X52310703Y-52164278D01*
X52231729Y-52231729D01*
X52071999Y-52418747D01*
X52071998Y-52418750D01*
X51943496Y-52628446D01*
X51943494Y-52628449D01*
X51849380Y-52855663D01*
X51791963Y-53094820D01*
X51772668Y-53340000D01*
X51791963Y-53585179D01*
X51849380Y-53824336D01*
X51943494Y-54051550D01*
X51943496Y-54051553D01*
X52071998Y-54261249D01*
X52071999Y-54261252D01*
X52072002Y-54261255D01*
X52231729Y-54448271D01*
X52376498Y-54571915D01*
X52418747Y-54608000D01*
X52418750Y-54608001D01*
X52628446Y-54736503D01*
X52628449Y-54736505D01*
X52855663Y-54830619D01*
X52855668Y-54830621D01*
X53094815Y-54888036D01*
X53340000Y-54907332D01*
X53585185Y-54888036D01*
X53824332Y-54830621D01*
X54033368Y-54744036D01*
X54051550Y-54736505D01*
X54051551Y-54736504D01*
X54051554Y-54736503D01*
X54261255Y-54607998D01*
X54374969Y-54510876D01*
X54438729Y-54482306D01*
X54507815Y-54492743D01*
X54560291Y-54538874D01*
X54579500Y-54605167D01*
X54579500Y-55289953D01*
X54559815Y-55356992D01*
X54543181Y-55377634D01*
X54107634Y-55813181D01*
X54046311Y-55846666D01*
X54019953Y-55849500D01*
X48850047Y-55849500D01*
X48783008Y-55829815D01*
X48762366Y-55813181D01*
X47754544Y-54805359D01*
X47721059Y-54744036D01*
X47718541Y-54708831D01*
X47725610Y-54609999D01*
X47714043Y-54448270D01*
X47705196Y-54324572D01*
X47691422Y-54261255D01*
X47644371Y-54044962D01*
X47644370Y-54044960D01*
X47644369Y-54044954D01*
X47544367Y-53776839D01*
X47439712Y-53585179D01*
X47407229Y-53525690D01*
X47407224Y-53525682D01*
X47235745Y-53296612D01*
X47235729Y-53296594D01*
X47033405Y-53094270D01*
X47033387Y-53094254D01*
X46804317Y-52922775D01*
X46804309Y-52922770D01*
X46553166Y-52785635D01*
X46553167Y-52785635D01*
X46445915Y-52745632D01*
X46285046Y-52685631D01*
X46285043Y-52685630D01*
X46285037Y-52685628D01*
X46005433Y-52624804D01*
X45720001Y-52604390D01*
X45719999Y-52604390D01*
X45434566Y-52624804D01*
X45154962Y-52685628D01*
X44886833Y-52785635D01*
X44635690Y-52922770D01*
X44635682Y-52922775D01*
X44406612Y-53094254D01*
X44406594Y-53094270D01*
X44227684Y-53273181D01*
X44166361Y-53306666D01*
X44140003Y-53309500D01*
X42219997Y-53309500D01*
X42152958Y-53289815D01*
X42132316Y-53273181D01*
X41953405Y-53094270D01*
X41953387Y-53094254D01*
X41724317Y-52922775D01*
X41724309Y-52922770D01*
X41473166Y-52785635D01*
X41473167Y-52785635D01*
X41365915Y-52745632D01*
X41205046Y-52685631D01*
X41205043Y-52685630D01*
X41205037Y-52685628D01*
X40925433Y-52624804D01*
X40640001Y-52604390D01*
X40639999Y-52604390D01*
X40354566Y-52624804D01*
X40074962Y-52685628D01*
X39806833Y-52785635D01*
X39555690Y-52922770D01*
X39555682Y-52922775D01*
X39326612Y-53094254D01*
X39326594Y-53094270D01*
X39124270Y-53296594D01*
X39124254Y-53296612D01*
X38952775Y-53525682D01*
X38952770Y-53525690D01*
X38815635Y-53776833D01*
X38715628Y-54044962D01*
X38654804Y-54324566D01*
X38634390Y-54609998D01*
X38634390Y-54610001D01*
X38654804Y-54895433D01*
X38715628Y-55175037D01*
X38715630Y-55175043D01*
X38715631Y-55175046D01*
X38783494Y-55356992D01*
X38815635Y-55443166D01*
X38952770Y-55694309D01*
X38952775Y-55694317D01*
X39124254Y-55923387D01*
X39124270Y-55923405D01*
X39326594Y-56125729D01*
X39326612Y-56125745D01*
X39555682Y-56297224D01*
X39555690Y-56297229D01*
X39806833Y-56434364D01*
X39806832Y-56434364D01*
X39806836Y-56434365D01*
X39806839Y-56434367D01*
X40074954Y-56534369D01*
X40074960Y-56534370D01*
X40074962Y-56534371D01*
X40354566Y-56595195D01*
X40354568Y-56595195D01*
X40354572Y-56595196D01*
X40608220Y-56613337D01*
X40639999Y-56615610D01*
X40640000Y-56615610D01*
X40640001Y-56615610D01*
X40668595Y-56613564D01*
X40925428Y-56595196D01*
X41205046Y-56534369D01*
X41473161Y-56434367D01*
X41724315Y-56297226D01*
X41953395Y-56125739D01*
X41953405Y-56125729D01*
X42132316Y-55946819D01*
X42193639Y-55913334D01*
X42219997Y-55910500D01*
X44140003Y-55910500D01*
X44207042Y-55930185D01*
X44227684Y-55946819D01*
X44406594Y-56125729D01*
X44406612Y-56125745D01*
X44635682Y-56297224D01*
X44635690Y-56297229D01*
X44886833Y-56434364D01*
X44886832Y-56434364D01*
X44886836Y-56434365D01*
X44886839Y-56434367D01*
X45154954Y-56534369D01*
X45154960Y-56534370D01*
X45154962Y-56534371D01*
X45434566Y-56595195D01*
X45434568Y-56595195D01*
X45434572Y-56595196D01*
X45688220Y-56613337D01*
X45719999Y-56615610D01*
X45719999Y-56615609D01*
X45720000Y-56615610D01*
X45818831Y-56608541D01*
X45887104Y-56623393D01*
X45915359Y-56644544D01*
X46448634Y-57177819D01*
X46482119Y-57239142D01*
X46477135Y-57308834D01*
X46435263Y-57364767D01*
X46369799Y-57389184D01*
X46360953Y-57389500D01*
X36984500Y-57389500D01*
X36917461Y-57369815D01*
X36871706Y-57317011D01*
X36860500Y-57265500D01*
X36860500Y-52660046D01*
X36880185Y-52593007D01*
X36896819Y-52572365D01*
X39872365Y-49596819D01*
X39933688Y-49563334D01*
X39960046Y-49560500D01*
X52074833Y-49560500D01*
X52141872Y-49580185D01*
G37*
G04 #@! TD.AperFunction*
G04 #@! TA.AperFunction,NonConductor*
G36*
X92152539Y-520185D02*
G01*
X92198294Y-572989D01*
X92209500Y-624500D01*
X92209500Y-59065500D01*
X92189815Y-59132539D01*
X92137011Y-59178294D01*
X92085500Y-59189500D01*
X81385801Y-59189500D01*
X81318762Y-59169815D01*
X81273007Y-59117011D01*
X81263063Y-59047853D01*
X81267870Y-59027183D01*
X81278475Y-58994542D01*
X81278475Y-58994538D01*
X81278477Y-58994534D01*
X81310500Y-58792352D01*
X81310500Y-51951902D01*
X83589500Y-51951902D01*
X83589500Y-52188097D01*
X83626446Y-52421368D01*
X83699433Y-52645996D01*
X83794613Y-52832796D01*
X83806657Y-52856433D01*
X83945483Y-53047510D01*
X84112490Y-53214517D01*
X84303567Y-53353343D01*
X84402991Y-53404002D01*
X84514003Y-53460566D01*
X84514005Y-53460566D01*
X84514008Y-53460568D01*
X84552827Y-53473181D01*
X84738631Y-53533553D01*
X84971903Y-53570500D01*
X84971908Y-53570500D01*
X85208097Y-53570500D01*
X85441368Y-53533553D01*
X85524117Y-53506666D01*
X85665992Y-53460568D01*
X85876433Y-53353343D01*
X86067510Y-53214517D01*
X86234517Y-53047510D01*
X86373343Y-52856433D01*
X86480568Y-52645992D01*
X86553553Y-52421368D01*
X86583589Y-52231729D01*
X86590500Y-52188097D01*
X86590500Y-51951902D01*
X86553553Y-51718631D01*
X86486269Y-51511554D01*
X86480568Y-51494008D01*
X86480566Y-51494005D01*
X86480566Y-51494003D01*
X86409416Y-51354364D01*
X86373343Y-51283567D01*
X86234517Y-51092490D01*
X86067510Y-50925483D01*
X85876433Y-50786657D01*
X85665996Y-50679433D01*
X85441368Y-50606446D01*
X85208097Y-50569500D01*
X85208092Y-50569500D01*
X84971908Y-50569500D01*
X84971903Y-50569500D01*
X84738631Y-50606446D01*
X84514003Y-50679433D01*
X84303566Y-50786657D01*
X84225485Y-50843387D01*
X84112490Y-50925483D01*
X84112488Y-50925485D01*
X84112487Y-50925485D01*
X83945485Y-51092487D01*
X83945485Y-51092488D01*
X83945483Y-51092490D01*
X83885862Y-51174550D01*
X83806657Y-51283566D01*
X83699433Y-51494003D01*
X83626446Y-51718631D01*
X83589500Y-51951902D01*
X81310500Y-51951902D01*
X81310500Y-49677785D01*
X81330185Y-49610746D01*
X81382989Y-49564991D01*
X81415098Y-49555313D01*
X81545410Y-49534673D01*
X81584530Y-49528478D01*
X81584530Y-49528477D01*
X81584535Y-49528477D01*
X81698337Y-49491500D01*
X81779219Y-49465220D01*
X81900357Y-49403497D01*
X81961611Y-49372287D01*
X82127219Y-49251966D01*
X85930150Y-45449032D01*
X85930157Y-45449027D01*
X85937217Y-45441967D01*
X85937219Y-45441966D01*
X86081966Y-45297219D01*
X86081968Y-45297215D01*
X86081971Y-45297213D01*
X86202287Y-45131610D01*
X86202288Y-45131608D01*
X86249786Y-45038389D01*
X86295221Y-44949218D01*
X86295222Y-44949215D01*
X86329500Y-44843716D01*
X86358477Y-44754534D01*
X86381095Y-44611729D01*
X86390500Y-44552352D01*
X86390500Y-40434445D01*
X86410185Y-40367406D01*
X86420207Y-40353917D01*
X86429412Y-40343140D01*
X86565154Y-40121628D01*
X86664573Y-39881610D01*
X86725221Y-39628994D01*
X86745604Y-39370000D01*
X86725221Y-39111006D01*
X86664573Y-38858390D01*
X86565154Y-38618372D01*
X86429412Y-38396860D01*
X86260689Y-38199311D01*
X86254809Y-38194289D01*
X86216617Y-38135787D01*
X86216116Y-38065919D01*
X86253468Y-38006872D01*
X86254702Y-38005802D01*
X86260689Y-38000689D01*
X86429412Y-37803140D01*
X86565154Y-37581628D01*
X86664573Y-37341610D01*
X86725221Y-37088994D01*
X86745604Y-36830000D01*
X86725221Y-36571006D01*
X86664573Y-36318390D01*
X86579527Y-36113072D01*
X86565156Y-36078376D01*
X86555345Y-36062366D01*
X86429412Y-35856860D01*
X86260689Y-35659311D01*
X86254809Y-35654289D01*
X86216617Y-35595787D01*
X86216116Y-35525919D01*
X86253468Y-35466872D01*
X86254702Y-35465802D01*
X86260689Y-35460689D01*
X86429412Y-35263140D01*
X86565154Y-35041628D01*
X86664573Y-34801610D01*
X86725221Y-34548994D01*
X86745604Y-34290000D01*
X86725221Y-34031006D01*
X86664573Y-33778390D01*
X86565154Y-33538372D01*
X86565154Y-33538371D01*
X86452297Y-33354205D01*
X86434052Y-33286759D01*
X86455168Y-33220157D01*
X86470333Y-33201744D01*
X86569816Y-33102262D01*
X86665789Y-32949522D01*
X86725368Y-32779255D01*
X86729570Y-32741966D01*
X86740499Y-32644960D01*
X86740500Y-32644956D01*
X86740500Y-30855043D01*
X86740499Y-30855039D01*
X86725369Y-30720750D01*
X86725368Y-30720745D01*
X86665788Y-30550476D01*
X86602340Y-30449500D01*
X86569816Y-30397738D01*
X86442262Y-30270184D01*
X86442261Y-30270183D01*
X86437185Y-30266135D01*
X86397046Y-30208946D01*
X86390500Y-30169190D01*
X86390500Y-25297643D01*
X86375573Y-25203403D01*
X86375573Y-25203402D01*
X86358477Y-25095468D01*
X86358477Y-25095465D01*
X86296727Y-24905420D01*
X86295665Y-24901654D01*
X86232133Y-24776966D01*
X86232132Y-24776965D01*
X86202287Y-24718389D01*
X86081966Y-24552781D01*
X84667219Y-23138034D01*
X84501611Y-23017713D01*
X84385274Y-22958437D01*
X84385272Y-22958435D01*
X84341799Y-22936285D01*
X84319219Y-22924780D01*
X84180773Y-22879796D01*
X84124535Y-22861523D01*
X84124532Y-22861522D01*
X83969220Y-22836923D01*
X83922352Y-22829500D01*
X75032351Y-22829500D01*
X74827648Y-22829500D01*
X74780779Y-22836923D01*
X74625468Y-22861522D01*
X74625467Y-22861522D01*
X74569227Y-22879796D01*
X74430781Y-22924780D01*
X74430780Y-22924780D01*
X74364725Y-22958436D01*
X74364726Y-22958437D01*
X74248387Y-23017714D01*
X74248384Y-23017716D01*
X74082778Y-23138036D01*
X72668033Y-24552781D01*
X72644817Y-24584736D01*
X72589487Y-24627401D01*
X72519873Y-24633379D01*
X72458079Y-24600772D01*
X72423722Y-24539933D01*
X72420500Y-24511849D01*
X72420500Y-22757648D01*
X72388477Y-22555465D01*
X72325218Y-22360776D01*
X72284317Y-22280504D01*
X72232287Y-22178390D01*
X72219273Y-22160477D01*
X72111971Y-22012786D01*
X71967213Y-21868028D01*
X71801613Y-21747715D01*
X71801612Y-21747714D01*
X71801610Y-21747713D01*
X71744653Y-21718691D01*
X71619223Y-21654781D01*
X71424534Y-21591522D01*
X71249995Y-21563878D01*
X71222352Y-21559500D01*
X71222351Y-21559500D01*
X51223862Y-21559500D01*
X51156823Y-21539815D01*
X51111068Y-21487011D01*
X51101124Y-21417853D01*
X51124594Y-21361190D01*
X51132887Y-21350113D01*
X51258988Y-21119176D01*
X51263169Y-21111519D01*
X51263169Y-21111517D01*
X51263172Y-21111513D01*
X51358175Y-20856801D01*
X51415961Y-20591160D01*
X51435355Y-20320000D01*
X51427130Y-20205000D01*
X71484706Y-20205000D01*
X71503853Y-20448297D01*
X71503853Y-20448300D01*
X71503854Y-20448302D01*
X71552971Y-20652887D01*
X71560830Y-20685619D01*
X71654222Y-20911089D01*
X71781737Y-21119173D01*
X71781738Y-21119176D01*
X71796400Y-21136343D01*
X71940241Y-21304759D01*
X72072657Y-21417853D01*
X72125823Y-21463261D01*
X72125826Y-21463262D01*
X72333910Y-21590777D01*
X72559381Y-21684169D01*
X72559378Y-21684169D01*
X72559384Y-21684170D01*
X72559388Y-21684172D01*
X72796698Y-21741146D01*
X73040000Y-21760294D01*
X73283302Y-21741146D01*
X73520612Y-21684172D01*
X73746089Y-21590777D01*
X73954179Y-21463259D01*
X74139759Y-21304759D01*
X74291489Y-21127106D01*
X74349996Y-21088913D01*
X74419864Y-21088415D01*
X74478910Y-21125768D01*
X74501207Y-21162335D01*
X74533607Y-21244888D01*
X74661041Y-21465612D01*
X74819950Y-21664877D01*
X75006783Y-21838232D01*
X75217366Y-21981805D01*
X75217371Y-21981807D01*
X75217372Y-21981808D01*
X75217373Y-21981809D01*
X75325644Y-22033949D01*
X75446992Y-22092387D01*
X75446993Y-22092387D01*
X75446996Y-22092389D01*
X75690542Y-22167513D01*
X75942565Y-22205500D01*
X76197435Y-22205500D01*
X76449458Y-22167513D01*
X76693004Y-22092389D01*
X76903935Y-21990810D01*
X76922626Y-21981809D01*
X76922626Y-21981808D01*
X76922634Y-21981805D01*
X77133217Y-21838232D01*
X77320050Y-21664877D01*
X77478959Y-21465612D01*
X77606393Y-21244888D01*
X77699508Y-21007637D01*
X77756222Y-20759157D01*
X77769723Y-20578990D01*
X77775268Y-20505004D01*
X77775268Y-20504995D01*
X77759737Y-20297752D01*
X77756222Y-20250843D01*
X77699508Y-20002363D01*
X77606393Y-19765112D01*
X77478959Y-19544388D01*
X77320050Y-19345123D01*
X77133217Y-19171768D01*
X76922634Y-19028195D01*
X76922630Y-19028193D01*
X76922627Y-19028191D01*
X76922626Y-19028190D01*
X76693006Y-18917612D01*
X76693008Y-18917612D01*
X76449466Y-18842489D01*
X76449462Y-18842488D01*
X76449458Y-18842487D01*
X76328231Y-18824214D01*
X76197440Y-18804500D01*
X76197435Y-18804500D01*
X75942565Y-18804500D01*
X75942559Y-18804500D01*
X75785609Y-18828157D01*
X75690542Y-18842487D01*
X75690539Y-18842488D01*
X75690533Y-18842489D01*
X75446992Y-18917612D01*
X75217373Y-19028190D01*
X75217372Y-19028191D01*
X75006782Y-19171768D01*
X74819952Y-19345121D01*
X74819950Y-19345123D01*
X74661039Y-19544390D01*
X74660738Y-19544912D01*
X74660582Y-19545060D01*
X74658429Y-19548219D01*
X74657752Y-19547757D01*
X74610163Y-19593120D01*
X74541554Y-19606333D01*
X74476694Y-19580355D01*
X74438799Y-19530349D01*
X74425777Y-19498911D01*
X74298261Y-19290825D01*
X74298261Y-19290823D01*
X74196578Y-19171768D01*
X74139759Y-19105241D01*
X73992561Y-18979522D01*
X73954176Y-18946738D01*
X73954173Y-18946737D01*
X73746089Y-18819222D01*
X73520618Y-18725830D01*
X73520621Y-18725830D01*
X73369297Y-18689500D01*
X73283302Y-18668854D01*
X73283300Y-18668853D01*
X73283297Y-18668853D01*
X73040000Y-18649706D01*
X72796702Y-18668853D01*
X72796698Y-18668854D01*
X72564920Y-18724500D01*
X72559380Y-18725830D01*
X72333910Y-18819222D01*
X72125826Y-18946737D01*
X72125823Y-18946738D01*
X71940241Y-19105241D01*
X71781738Y-19290823D01*
X71781737Y-19290826D01*
X71654222Y-19498910D01*
X71560830Y-19724380D01*
X71503853Y-19961702D01*
X71484706Y-20205000D01*
X51427130Y-20205000D01*
X51415961Y-20048840D01*
X51358175Y-19783199D01*
X51263172Y-19528487D01*
X51263170Y-19528484D01*
X51263169Y-19528480D01*
X51132890Y-19289892D01*
X51132889Y-19289891D01*
X51132887Y-19289887D01*
X50969971Y-19072258D01*
X50969966Y-19072253D01*
X50969961Y-19072247D01*
X50777752Y-18880038D01*
X50777746Y-18880033D01*
X50777742Y-18880029D01*
X50630189Y-18769571D01*
X50588318Y-18713637D01*
X50580500Y-18670304D01*
X50580500Y-13874500D01*
X50600185Y-13807461D01*
X50652989Y-13761706D01*
X50704500Y-13750500D01*
X72251163Y-13750500D01*
X72318202Y-13770185D01*
X72363957Y-13822989D01*
X72373901Y-13892147D01*
X72344876Y-13955703D01*
X72315953Y-13980227D01*
X72125826Y-14096737D01*
X72125823Y-14096738D01*
X71940241Y-14255241D01*
X71781738Y-14440823D01*
X71781737Y-14440826D01*
X71654222Y-14648910D01*
X71560830Y-14874380D01*
X71503853Y-15111702D01*
X71484706Y-15355000D01*
X71503853Y-15598297D01*
X71503853Y-15598300D01*
X71503854Y-15598302D01*
X71551051Y-15794890D01*
X71560830Y-15835619D01*
X71654222Y-16061089D01*
X71781737Y-16269173D01*
X71781738Y-16269176D01*
X71781741Y-16269179D01*
X71940241Y-16454759D01*
X72062018Y-16558766D01*
X72125823Y-16613261D01*
X72125826Y-16613262D01*
X72333910Y-16740777D01*
X72559381Y-16834169D01*
X72559378Y-16834169D01*
X72559384Y-16834170D01*
X72559388Y-16834172D01*
X72796698Y-16891146D01*
X73040000Y-16910294D01*
X73283302Y-16891146D01*
X73520612Y-16834172D01*
X73746089Y-16740777D01*
X73954179Y-16613259D01*
X74139759Y-16454759D01*
X74298259Y-16269179D01*
X74425777Y-16061089D01*
X74438798Y-16029652D01*
X74482638Y-15975248D01*
X74548932Y-15953182D01*
X74616631Y-15970460D01*
X74657854Y-16012172D01*
X74658429Y-16011781D01*
X74660568Y-16014919D01*
X74660743Y-16015096D01*
X74661041Y-16015612D01*
X74819950Y-16214877D01*
X75006783Y-16388232D01*
X75217366Y-16531805D01*
X75217371Y-16531807D01*
X75217372Y-16531808D01*
X75217373Y-16531809D01*
X75339328Y-16590538D01*
X75446992Y-16642387D01*
X75446993Y-16642387D01*
X75446996Y-16642389D01*
X75690542Y-16717513D01*
X75942565Y-16755500D01*
X76197435Y-16755500D01*
X76449458Y-16717513D01*
X76693004Y-16642389D01*
X76922634Y-16531805D01*
X77133217Y-16388232D01*
X77320050Y-16214877D01*
X77478959Y-16015612D01*
X77606393Y-15794888D01*
X77699508Y-15557637D01*
X77756222Y-15309157D01*
X77775268Y-15055000D01*
X77756222Y-14800843D01*
X77699508Y-14552363D01*
X77606393Y-14315112D01*
X77478959Y-14094388D01*
X77320050Y-13895123D01*
X77133217Y-13721768D01*
X76977792Y-13615801D01*
X76933492Y-13561774D01*
X76925432Y-13492371D01*
X76956175Y-13429628D01*
X76959941Y-13425690D01*
X77015977Y-13369655D01*
X77130941Y-13197598D01*
X77210130Y-13006420D01*
X77250500Y-12803465D01*
X77250500Y-10220504D01*
X77270185Y-10153465D01*
X77293965Y-10126216D01*
X77370689Y-10060689D01*
X77539412Y-9863140D01*
X77675154Y-9641628D01*
X77774573Y-9401610D01*
X77835221Y-9148994D01*
X77855604Y-8890000D01*
X77835221Y-8631006D01*
X77774573Y-8378390D01*
X77675154Y-8138372D01*
X77539412Y-7916860D01*
X77370689Y-7719311D01*
X77173140Y-7550588D01*
X76951628Y-7414846D01*
X76951627Y-7414845D01*
X76951623Y-7414843D01*
X76785627Y-7346086D01*
X76711610Y-7315427D01*
X76711611Y-7315427D01*
X76573921Y-7282370D01*
X76458994Y-7254779D01*
X76458992Y-7254778D01*
X76458991Y-7254778D01*
X76200000Y-7234396D01*
X75941009Y-7254778D01*
X75688389Y-7315427D01*
X75448376Y-7414843D01*
X75226859Y-7550588D01*
X75029313Y-7719309D01*
X75029311Y-7719311D01*
X75024287Y-7725193D01*
X74965781Y-7763383D01*
X74895913Y-7763881D01*
X74836868Y-7726526D01*
X74835767Y-7725256D01*
X74830689Y-7719311D01*
X74633140Y-7550588D01*
X74411628Y-7414846D01*
X74411627Y-7414845D01*
X74411623Y-7414843D01*
X74245627Y-7346086D01*
X74171610Y-7315427D01*
X74171611Y-7315427D01*
X74033921Y-7282370D01*
X73918994Y-7254779D01*
X73918992Y-7254778D01*
X73918991Y-7254778D01*
X73660000Y-7234396D01*
X73401009Y-7254778D01*
X73148389Y-7315427D01*
X72908373Y-7414845D01*
X72724204Y-7527703D01*
X72656759Y-7545947D01*
X72590156Y-7524830D01*
X72571734Y-7509656D01*
X72472262Y-7410184D01*
X72319523Y-7314211D01*
X72149254Y-7254631D01*
X72149249Y-7254630D01*
X72014960Y-7239500D01*
X72014954Y-7239500D01*
X70225046Y-7239500D01*
X70225039Y-7239500D01*
X70090750Y-7254630D01*
X70090745Y-7254631D01*
X69920476Y-7314211D01*
X69767739Y-7410183D01*
X69668265Y-7509657D01*
X69606942Y-7543141D01*
X69537250Y-7538157D01*
X69515798Y-7527705D01*
X69331628Y-7414846D01*
X69331627Y-7414845D01*
X69331623Y-7414843D01*
X69165627Y-7346086D01*
X69091610Y-7315427D01*
X69091611Y-7315427D01*
X68953921Y-7282370D01*
X68838994Y-7254779D01*
X68838992Y-7254778D01*
X68838991Y-7254778D01*
X68580000Y-7234396D01*
X68321009Y-7254778D01*
X68068389Y-7315427D01*
X67828376Y-7414843D01*
X67606859Y-7550588D01*
X67409313Y-7719309D01*
X67409311Y-7719311D01*
X67404287Y-7725193D01*
X67345781Y-7763383D01*
X67275913Y-7763881D01*
X67216868Y-7726526D01*
X67215767Y-7725256D01*
X67210689Y-7719311D01*
X67013140Y-7550588D01*
X66791628Y-7414846D01*
X66791627Y-7414845D01*
X66791623Y-7414843D01*
X66625627Y-7346086D01*
X66551610Y-7315427D01*
X66551611Y-7315427D01*
X66413921Y-7282370D01*
X66298994Y-7254779D01*
X66298992Y-7254778D01*
X66298991Y-7254778D01*
X66040000Y-7234396D01*
X65781009Y-7254778D01*
X65528389Y-7315427D01*
X65288376Y-7414843D01*
X65066859Y-7550588D01*
X64869313Y-7719309D01*
X64869311Y-7719311D01*
X64864287Y-7725193D01*
X64805781Y-7763383D01*
X64735913Y-7763881D01*
X64676868Y-7726526D01*
X64675767Y-7725256D01*
X64670689Y-7719311D01*
X64473140Y-7550588D01*
X64251628Y-7414846D01*
X64251627Y-7414845D01*
X64251623Y-7414843D01*
X64085627Y-7346086D01*
X64011610Y-7315427D01*
X64011611Y-7315427D01*
X63873921Y-7282370D01*
X63758994Y-7254779D01*
X63758992Y-7254778D01*
X63758991Y-7254778D01*
X63500000Y-7234396D01*
X63241009Y-7254778D01*
X62988389Y-7315427D01*
X62748376Y-7414843D01*
X62526859Y-7550588D01*
X62329313Y-7719309D01*
X62329311Y-7719311D01*
X62324287Y-7725193D01*
X62265781Y-7763383D01*
X62195913Y-7763881D01*
X62136868Y-7726526D01*
X62135767Y-7725256D01*
X62130689Y-7719311D01*
X61933140Y-7550588D01*
X61711628Y-7414846D01*
X61711627Y-7414845D01*
X61711623Y-7414843D01*
X61545627Y-7346086D01*
X61471610Y-7315427D01*
X61471611Y-7315427D01*
X61333921Y-7282370D01*
X61218994Y-7254779D01*
X61218992Y-7254778D01*
X61218991Y-7254778D01*
X60960000Y-7234396D01*
X60701009Y-7254778D01*
X60448389Y-7315427D01*
X60208373Y-7414845D01*
X60024204Y-7527703D01*
X59956759Y-7545947D01*
X59890156Y-7524830D01*
X59871734Y-7509656D01*
X59772262Y-7410184D01*
X59619523Y-7314211D01*
X59449254Y-7254631D01*
X59449249Y-7254630D01*
X59314960Y-7239500D01*
X59314954Y-7239500D01*
X57525046Y-7239500D01*
X57525039Y-7239500D01*
X57390750Y-7254630D01*
X57390745Y-7254631D01*
X57220476Y-7314211D01*
X57067739Y-7410183D01*
X56968265Y-7509657D01*
X56906942Y-7543141D01*
X56837250Y-7538157D01*
X56815798Y-7527705D01*
X56631628Y-7414846D01*
X56631627Y-7414845D01*
X56631623Y-7414843D01*
X56465627Y-7346086D01*
X56391610Y-7315427D01*
X56391611Y-7315427D01*
X56253921Y-7282370D01*
X56138994Y-7254779D01*
X56138992Y-7254778D01*
X56138991Y-7254778D01*
X55880000Y-7234396D01*
X55621009Y-7254778D01*
X55368389Y-7315427D01*
X55128376Y-7414843D01*
X54906859Y-7550588D01*
X54709313Y-7719309D01*
X54709311Y-7719311D01*
X54704287Y-7725193D01*
X54645781Y-7763383D01*
X54575913Y-7763881D01*
X54516868Y-7726526D01*
X54515767Y-7725256D01*
X54510689Y-7719311D01*
X54313140Y-7550588D01*
X54091628Y-7414846D01*
X54091627Y-7414845D01*
X54091623Y-7414843D01*
X53925627Y-7346086D01*
X53851610Y-7315427D01*
X53851611Y-7315427D01*
X53713921Y-7282370D01*
X53598994Y-7254779D01*
X53598992Y-7254778D01*
X53598991Y-7254778D01*
X53340000Y-7234396D01*
X53081009Y-7254778D01*
X52828389Y-7315427D01*
X52588376Y-7414843D01*
X52366859Y-7550588D01*
X52169313Y-7719309D01*
X52169311Y-7719311D01*
X52164287Y-7725193D01*
X52105781Y-7763383D01*
X52035913Y-7763881D01*
X51976868Y-7726526D01*
X51975767Y-7725256D01*
X51970689Y-7719311D01*
X51773140Y-7550588D01*
X51551628Y-7414846D01*
X51551627Y-7414845D01*
X51551623Y-7414843D01*
X51385627Y-7346086D01*
X51311610Y-7315427D01*
X51311611Y-7315427D01*
X51173921Y-7282370D01*
X51058994Y-7254779D01*
X51058992Y-7254778D01*
X51058991Y-7254778D01*
X50800000Y-7234396D01*
X50541009Y-7254778D01*
X50288389Y-7315427D01*
X50048376Y-7414843D01*
X49826859Y-7550588D01*
X49629313Y-7719309D01*
X49629311Y-7719311D01*
X49624287Y-7725193D01*
X49565781Y-7763383D01*
X49495913Y-7763881D01*
X49436868Y-7726526D01*
X49435767Y-7725256D01*
X49430689Y-7719311D01*
X49233140Y-7550588D01*
X49011628Y-7414846D01*
X49011627Y-7414845D01*
X49011623Y-7414843D01*
X48845627Y-7346086D01*
X48771610Y-7315427D01*
X48771611Y-7315427D01*
X48633921Y-7282370D01*
X48518994Y-7254779D01*
X48518992Y-7254778D01*
X48518991Y-7254778D01*
X48260000Y-7234396D01*
X48001009Y-7254778D01*
X47748389Y-7315427D01*
X47508373Y-7414845D01*
X47324204Y-7527703D01*
X47256759Y-7545947D01*
X47190156Y-7524830D01*
X47171734Y-7509656D01*
X47072262Y-7410184D01*
X46919523Y-7314211D01*
X46749254Y-7254631D01*
X46749249Y-7254630D01*
X46614960Y-7239500D01*
X46614954Y-7239500D01*
X44825046Y-7239500D01*
X44825039Y-7239500D01*
X44690750Y-7254630D01*
X44690745Y-7254631D01*
X44520476Y-7314211D01*
X44367739Y-7410183D01*
X44268265Y-7509657D01*
X44206942Y-7543141D01*
X44137250Y-7538157D01*
X44115798Y-7527705D01*
X43931628Y-7414846D01*
X43931627Y-7414845D01*
X43931623Y-7414843D01*
X43765627Y-7346086D01*
X43691610Y-7315427D01*
X43691611Y-7315427D01*
X43553921Y-7282370D01*
X43438994Y-7254779D01*
X43438992Y-7254778D01*
X43438991Y-7254778D01*
X43180000Y-7234396D01*
X42921009Y-7254778D01*
X42668389Y-7315427D01*
X42428376Y-7414843D01*
X42206859Y-7550588D01*
X42009313Y-7719309D01*
X42009311Y-7719311D01*
X42004287Y-7725193D01*
X41945781Y-7763383D01*
X41875913Y-7763881D01*
X41816868Y-7726526D01*
X41815767Y-7725256D01*
X41810689Y-7719311D01*
X41613140Y-7550588D01*
X41391628Y-7414846D01*
X41391627Y-7414845D01*
X41391623Y-7414843D01*
X41225627Y-7346086D01*
X41151610Y-7315427D01*
X41151611Y-7315427D01*
X41013921Y-7282370D01*
X40898994Y-7254779D01*
X40898992Y-7254778D01*
X40898991Y-7254778D01*
X40640000Y-7234396D01*
X40381009Y-7254778D01*
X40128389Y-7315427D01*
X39888376Y-7414843D01*
X39666859Y-7550588D01*
X39469313Y-7719309D01*
X39469311Y-7719311D01*
X39464287Y-7725193D01*
X39405781Y-7763383D01*
X39335913Y-7763881D01*
X39276868Y-7726526D01*
X39275767Y-7725256D01*
X39270689Y-7719311D01*
X39073140Y-7550588D01*
X38851628Y-7414846D01*
X38851627Y-7414845D01*
X38851623Y-7414843D01*
X38685627Y-7346086D01*
X38611610Y-7315427D01*
X38611611Y-7315427D01*
X38473921Y-7282370D01*
X38358994Y-7254779D01*
X38358992Y-7254778D01*
X38358991Y-7254778D01*
X38100000Y-7234396D01*
X37841009Y-7254778D01*
X37588389Y-7315427D01*
X37348376Y-7414843D01*
X37126859Y-7550588D01*
X36929313Y-7719309D01*
X36929311Y-7719311D01*
X36924287Y-7725193D01*
X36865781Y-7763383D01*
X36795913Y-7763881D01*
X36736868Y-7726526D01*
X36735767Y-7725256D01*
X36730689Y-7719311D01*
X36533140Y-7550588D01*
X36311628Y-7414846D01*
X36311627Y-7414845D01*
X36311623Y-7414843D01*
X36145627Y-7346086D01*
X36071610Y-7315427D01*
X36071611Y-7315427D01*
X35933921Y-7282370D01*
X35818994Y-7254779D01*
X35818992Y-7254778D01*
X35818991Y-7254778D01*
X35560000Y-7234396D01*
X35301009Y-7254778D01*
X35048389Y-7315427D01*
X34808373Y-7414845D01*
X34624204Y-7527703D01*
X34556759Y-7545947D01*
X34490156Y-7524830D01*
X34471734Y-7509656D01*
X34372261Y-7410183D01*
X34367185Y-7406135D01*
X34327046Y-7348946D01*
X34320500Y-7309190D01*
X34320500Y-5248575D01*
X34340185Y-5181536D01*
X34356814Y-5160898D01*
X34459971Y-5057742D01*
X34622887Y-4840113D01*
X34688029Y-4720813D01*
X34753169Y-4601519D01*
X34753169Y-4601517D01*
X34753172Y-4601513D01*
X34848175Y-4346801D01*
X34905961Y-4081160D01*
X34925355Y-3810000D01*
X34905961Y-3538840D01*
X34848175Y-3273199D01*
X34753172Y-3018487D01*
X34753170Y-3018484D01*
X34753169Y-3018480D01*
X34622890Y-2779892D01*
X34622889Y-2779891D01*
X34622887Y-2779887D01*
X34459971Y-2562258D01*
X34459966Y-2562253D01*
X34459961Y-2562247D01*
X34267752Y-2370038D01*
X34267744Y-2370031D01*
X34267742Y-2370029D01*
X34050113Y-2207113D01*
X34050108Y-2207110D01*
X34050107Y-2207109D01*
X33811518Y-2076830D01*
X33811519Y-2076830D01*
X33761920Y-2058330D01*
X33556801Y-1981825D01*
X33556794Y-1981823D01*
X33556793Y-1981823D01*
X33291167Y-1924040D01*
X33291160Y-1924039D01*
X33020001Y-1904645D01*
X33019999Y-1904645D01*
X32748839Y-1924039D01*
X32748832Y-1924040D01*
X32483206Y-1981823D01*
X32483202Y-1981824D01*
X32483199Y-1981825D01*
X32368783Y-2024500D01*
X32228480Y-2076830D01*
X31989892Y-2207109D01*
X31989891Y-2207110D01*
X31772259Y-2370028D01*
X31772247Y-2370038D01*
X31580038Y-2562247D01*
X31580028Y-2562259D01*
X31417110Y-2779891D01*
X31417109Y-2779892D01*
X31286830Y-3018480D01*
X31239326Y-3145843D01*
X31191825Y-3273199D01*
X31191824Y-3273202D01*
X31191823Y-3273206D01*
X31134040Y-3538832D01*
X31134039Y-3538839D01*
X31114645Y-3809998D01*
X31114645Y-3810001D01*
X31134039Y-4081160D01*
X31134040Y-4081167D01*
X31182851Y-4305547D01*
X31191825Y-4346801D01*
X31268330Y-4551920D01*
X31286830Y-4601519D01*
X31417109Y-4840107D01*
X31417110Y-4840108D01*
X31417113Y-4840113D01*
X31580029Y-5057742D01*
X31683182Y-5160895D01*
X31716666Y-5222216D01*
X31719500Y-5248575D01*
X31719500Y-7309190D01*
X31699815Y-7376229D01*
X31672815Y-7406135D01*
X31667742Y-7410180D01*
X31568265Y-7509657D01*
X31506942Y-7543141D01*
X31437250Y-7538157D01*
X31415798Y-7527705D01*
X31231628Y-7414846D01*
X31231627Y-7414845D01*
X31231623Y-7414843D01*
X31065627Y-7346086D01*
X30991610Y-7315427D01*
X30991611Y-7315427D01*
X30853921Y-7282370D01*
X30738994Y-7254779D01*
X30738992Y-7254778D01*
X30738991Y-7254778D01*
X30480000Y-7234396D01*
X30221009Y-7254778D01*
X29968389Y-7315427D01*
X29728376Y-7414843D01*
X29506859Y-7550588D01*
X29309313Y-7719309D01*
X29309311Y-7719311D01*
X29304287Y-7725193D01*
X29245781Y-7763383D01*
X29175913Y-7763881D01*
X29116868Y-7726526D01*
X29115767Y-7725256D01*
X29110689Y-7719311D01*
X28913140Y-7550588D01*
X28691628Y-7414846D01*
X28691627Y-7414845D01*
X28691623Y-7414843D01*
X28525627Y-7346086D01*
X28451610Y-7315427D01*
X28451611Y-7315427D01*
X28313921Y-7282370D01*
X28198994Y-7254779D01*
X28198992Y-7254778D01*
X28198991Y-7254778D01*
X27940000Y-7234396D01*
X27681009Y-7254778D01*
X27428389Y-7315427D01*
X27188376Y-7414843D01*
X26966859Y-7550588D01*
X26769311Y-7719311D01*
X26600588Y-7916859D01*
X26464843Y-8138376D01*
X26365427Y-8378389D01*
X26304778Y-8631009D01*
X26284396Y-8890000D01*
X26304778Y-9148990D01*
X26365427Y-9401610D01*
X26464843Y-9641623D01*
X26464845Y-9641627D01*
X26464846Y-9641628D01*
X26600588Y-9863140D01*
X26769311Y-10060689D01*
X26828464Y-10111211D01*
X26866657Y-10169717D01*
X26867156Y-10239585D01*
X26829802Y-10298631D01*
X26766455Y-10328109D01*
X26747932Y-10329500D01*
X25354500Y-10329500D01*
X25287461Y-10309815D01*
X25241706Y-10257011D01*
X25230500Y-10205500D01*
X25230500Y-6857204D01*
X25250185Y-6790165D01*
X25266819Y-6769523D01*
X25659059Y-6377283D01*
X26239414Y-5796928D01*
X26341232Y-5656788D01*
X26419873Y-5502446D01*
X26473402Y-5337701D01*
X26500500Y-5166611D01*
X26500500Y-4993389D01*
X26500500Y-2453389D01*
X26487297Y-2370029D01*
X26473403Y-2282299D01*
X26419873Y-2117555D01*
X26399122Y-2076828D01*
X26341232Y-1963212D01*
X26298680Y-1904645D01*
X26275981Y-1873402D01*
X26275980Y-1873401D01*
X26239415Y-1823072D01*
X25128522Y-712180D01*
X25095038Y-650858D01*
X25100022Y-581166D01*
X25141894Y-525233D01*
X25207358Y-500816D01*
X25216204Y-500500D01*
X92085500Y-500500D01*
X92152539Y-520185D01*
G37*
G04 #@! TD.AperFunction*
G04 #@! TA.AperFunction,NonConductor*
G36*
X11555072Y-520185D02*
G01*
X11600827Y-572989D01*
X11610771Y-642147D01*
X11610506Y-643897D01*
X11599500Y-713388D01*
X11599500Y-15326610D01*
X11620808Y-15461148D01*
X11626598Y-15497701D01*
X11680127Y-15662445D01*
X11758768Y-15816788D01*
X11860586Y-15956928D01*
X11983072Y-16079414D01*
X12123212Y-16181232D01*
X12277555Y-16259873D01*
X12427769Y-16308681D01*
X12485444Y-16348118D01*
X12512642Y-16412476D01*
X12500727Y-16481323D01*
X12453483Y-16532798D01*
X12445746Y-16537095D01*
X12403214Y-16558766D01*
X12333142Y-16609677D01*
X12263072Y-16660586D01*
X12263070Y-16660588D01*
X12263069Y-16660588D01*
X11860588Y-17063069D01*
X11860588Y-17063070D01*
X11860586Y-17063072D01*
X11816859Y-17123256D01*
X11758768Y-17203211D01*
X11680128Y-17357552D01*
X11626597Y-17522302D01*
X11599500Y-17693389D01*
X11599500Y-17866610D01*
X11626597Y-18037698D01*
X11643431Y-18089507D01*
X11649500Y-18127825D01*
X11649500Y-54713469D01*
X11689868Y-54916412D01*
X11689870Y-54916420D01*
X11769058Y-55107596D01*
X11884024Y-55279657D01*
X12030342Y-55425975D01*
X12030345Y-55425977D01*
X12202402Y-55540941D01*
X12393580Y-55620130D01*
X12596530Y-55660499D01*
X12596534Y-55660500D01*
X12596535Y-55660500D01*
X16162174Y-55660500D01*
X16200491Y-55666568D01*
X16219244Y-55672662D01*
X16252298Y-55683402D01*
X16337844Y-55696951D01*
X16423389Y-55710500D01*
X16423390Y-55710500D01*
X28026610Y-55710500D01*
X28026611Y-55710500D01*
X28197701Y-55683402D01*
X28362445Y-55629873D01*
X28516788Y-55551232D01*
X28656928Y-55449414D01*
X30049414Y-54056928D01*
X30151232Y-53916788D01*
X30229873Y-53762446D01*
X30283402Y-53597701D01*
X30310500Y-53426611D01*
X30310500Y-53253389D01*
X30310500Y-51199058D01*
X30330185Y-51132019D01*
X30382989Y-51086264D01*
X30452147Y-51076320D01*
X30508810Y-51099791D01*
X30665682Y-51217224D01*
X30665690Y-51217229D01*
X30916833Y-51354364D01*
X30916832Y-51354364D01*
X30916836Y-51354365D01*
X30916839Y-51354367D01*
X31184954Y-51454369D01*
X31184960Y-51454370D01*
X31184962Y-51454371D01*
X31464566Y-51515195D01*
X31464568Y-51515195D01*
X31464572Y-51515196D01*
X31718220Y-51533337D01*
X31749999Y-51535610D01*
X31750000Y-51535610D01*
X31750001Y-51535610D01*
X31778595Y-51533564D01*
X32035428Y-51515196D01*
X32052189Y-51511550D01*
X32315037Y-51454371D01*
X32315037Y-51454370D01*
X32315046Y-51454369D01*
X32583161Y-51354367D01*
X32834315Y-51217226D01*
X33063395Y-51045739D01*
X33265739Y-50843395D01*
X33437226Y-50614315D01*
X33574367Y-50363161D01*
X33674369Y-50095046D01*
X33735196Y-49815428D01*
X33755610Y-49530000D01*
X33735196Y-49244572D01*
X33723962Y-49192931D01*
X33728945Y-49123243D01*
X33757445Y-49078895D01*
X36399414Y-46436928D01*
X36423077Y-46404358D01*
X36444867Y-46374369D01*
X36492803Y-46308389D01*
X36501232Y-46296788D01*
X36579873Y-46142445D01*
X36633402Y-45977701D01*
X36660500Y-45806611D01*
X36660500Y-41147203D01*
X36680185Y-41080164D01*
X36696814Y-41059527D01*
X38425840Y-39330500D01*
X38487161Y-39297017D01*
X38556853Y-39302001D01*
X38612786Y-39343873D01*
X38637203Y-39409337D01*
X38654804Y-39655433D01*
X38715628Y-39935037D01*
X38715630Y-39935043D01*
X38715631Y-39935046D01*
X38800099Y-40161513D01*
X38815635Y-40203166D01*
X38952770Y-40454309D01*
X38952775Y-40454317D01*
X39124254Y-40683387D01*
X39124270Y-40683405D01*
X39326594Y-40885729D01*
X39326612Y-40885745D01*
X39555682Y-41057224D01*
X39555690Y-41057229D01*
X39806833Y-41194364D01*
X39806832Y-41194364D01*
X39806836Y-41194365D01*
X39806839Y-41194367D01*
X40074954Y-41294369D01*
X40074960Y-41294370D01*
X40074962Y-41294371D01*
X40354566Y-41355195D01*
X40354568Y-41355195D01*
X40354572Y-41355196D01*
X40608220Y-41373337D01*
X40639999Y-41375610D01*
X40640000Y-41375610D01*
X40640001Y-41375610D01*
X40668595Y-41373564D01*
X40925428Y-41355196D01*
X41205046Y-41294369D01*
X41473161Y-41194367D01*
X41724315Y-41057226D01*
X41953395Y-40885739D01*
X42155739Y-40683395D01*
X42327226Y-40454315D01*
X42464367Y-40203161D01*
X42564369Y-39935046D01*
X42615822Y-39698522D01*
X42625195Y-39655433D01*
X42625195Y-39655432D01*
X42625196Y-39655428D01*
X42645610Y-39370000D01*
X42625196Y-39084572D01*
X42601328Y-38974853D01*
X42606312Y-38905165D01*
X42634811Y-38860818D01*
X43849651Y-37645979D01*
X43849655Y-37645977D01*
X43995977Y-37499655D01*
X44110941Y-37327598D01*
X44190130Y-37136420D01*
X44230500Y-36933465D01*
X44230500Y-34776493D01*
X44250185Y-34709454D01*
X44266819Y-34688812D01*
X44848812Y-34106819D01*
X44910135Y-34073334D01*
X44936493Y-34070500D01*
X45492424Y-34070500D01*
X45559463Y-34090185D01*
X45605218Y-34142989D01*
X45615162Y-34212147D01*
X45586137Y-34275703D01*
X45580105Y-34282181D01*
X45550038Y-34312247D01*
X45550028Y-34312259D01*
X45387110Y-34529891D01*
X45387109Y-34529892D01*
X45256830Y-34768480D01*
X45214161Y-34882882D01*
X45161825Y-35023199D01*
X45161824Y-35023202D01*
X45161823Y-35023206D01*
X45104040Y-35288832D01*
X45104039Y-35288839D01*
X45086706Y-35531189D01*
X45084645Y-35560000D01*
X45104039Y-35831160D01*
X45109233Y-35855037D01*
X45112725Y-35871090D01*
X45107739Y-35940782D01*
X45079241Y-35985127D01*
X45050348Y-36014020D01*
X45050345Y-36014023D01*
X45002002Y-36062366D01*
X44904023Y-36160344D01*
X44789058Y-36332403D01*
X44709870Y-36523579D01*
X44709868Y-36523587D01*
X44669500Y-36726530D01*
X44669500Y-37595390D01*
X44649815Y-37662429D01*
X44619810Y-37694657D01*
X44406612Y-37854254D01*
X44406594Y-37854270D01*
X44204270Y-38056594D01*
X44204254Y-38056612D01*
X44032775Y-38285682D01*
X44032770Y-38285690D01*
X43895635Y-38536833D01*
X43795628Y-38804962D01*
X43734804Y-39084566D01*
X43714390Y-39369998D01*
X43714390Y-39370001D01*
X43734804Y-39655433D01*
X43795628Y-39935037D01*
X43795630Y-39935043D01*
X43795631Y-39935046D01*
X43880099Y-40161513D01*
X43895635Y-40203166D01*
X44032770Y-40454309D01*
X44032775Y-40454317D01*
X44204254Y-40683387D01*
X44204270Y-40683405D01*
X44406594Y-40885729D01*
X44406612Y-40885745D01*
X44635682Y-41057224D01*
X44635690Y-41057229D01*
X44886833Y-41194364D01*
X44886832Y-41194364D01*
X44886836Y-41194365D01*
X44886839Y-41194367D01*
X45154954Y-41294369D01*
X45154960Y-41294370D01*
X45154962Y-41294371D01*
X45434566Y-41355195D01*
X45434568Y-41355195D01*
X45434572Y-41355196D01*
X45688220Y-41373337D01*
X45719999Y-41375610D01*
X45720000Y-41375610D01*
X45806654Y-41369412D01*
X45874926Y-41384263D01*
X45924332Y-41433669D01*
X45939500Y-41493096D01*
X45939500Y-43283469D01*
X45979868Y-43486412D01*
X45979870Y-43486420D01*
X46059058Y-43677596D01*
X46174024Y-43849657D01*
X46320342Y-43995975D01*
X46320345Y-43995977D01*
X46492402Y-44110941D01*
X46683580Y-44190130D01*
X46886530Y-44230499D01*
X46886534Y-44230500D01*
X46886535Y-44230500D01*
X52125224Y-44230500D01*
X52192263Y-44250185D01*
X52219514Y-44273969D01*
X52231729Y-44288271D01*
X52310689Y-44355709D01*
X52310690Y-44355710D01*
X52348883Y-44414217D01*
X52349381Y-44484085D01*
X52312027Y-44543131D01*
X52310703Y-44544278D01*
X52231729Y-44611729D01*
X52071999Y-44798747D01*
X52071998Y-44798750D01*
X51943496Y-45008446D01*
X51943494Y-45008449D01*
X51849380Y-45235663D01*
X51834603Y-45297213D01*
X51798153Y-45449039D01*
X51791963Y-45474820D01*
X51772668Y-45720000D01*
X51791963Y-45965179D01*
X51791963Y-45965182D01*
X51791964Y-45965185D01*
X51849379Y-46204332D01*
X51849380Y-46204336D01*
X51943494Y-46431550D01*
X51943496Y-46431553D01*
X52071998Y-46641249D01*
X52071999Y-46641251D01*
X52072000Y-46641253D01*
X52072002Y-46641255D01*
X52169123Y-46754969D01*
X52197694Y-46818729D01*
X52187257Y-46887815D01*
X52141126Y-46940291D01*
X52074833Y-46959500D01*
X39267648Y-46959500D01*
X39087722Y-46987998D01*
X39087721Y-46987998D01*
X39065465Y-46991522D01*
X38870784Y-47054777D01*
X38870781Y-47054778D01*
X38749643Y-47116503D01*
X38688386Y-47147715D01*
X38522786Y-47268028D01*
X34568036Y-51222778D01*
X34447716Y-51388384D01*
X34447714Y-51388387D01*
X34414095Y-51454369D01*
X34354332Y-51571658D01*
X34353272Y-51575420D01*
X34291522Y-51765467D01*
X34291522Y-51765468D01*
X34267185Y-51919128D01*
X34259500Y-51967648D01*
X34259500Y-58522351D01*
X34291522Y-58724534D01*
X34354781Y-58919223D01*
X34400630Y-59009205D01*
X34413526Y-59077874D01*
X34387250Y-59142615D01*
X34330143Y-59182872D01*
X34290145Y-59189500D01*
X624500Y-59189500D01*
X557461Y-59169815D01*
X511706Y-59117011D01*
X500500Y-59065500D01*
X500500Y-51951902D01*
X6119500Y-51951902D01*
X6119500Y-52188097D01*
X6156446Y-52421368D01*
X6229433Y-52645996D01*
X6324613Y-52832796D01*
X6336657Y-52856433D01*
X6475483Y-53047510D01*
X6642490Y-53214517D01*
X6833567Y-53353343D01*
X6932991Y-53404002D01*
X7044003Y-53460566D01*
X7044005Y-53460566D01*
X7044008Y-53460568D01*
X7082827Y-53473181D01*
X7268631Y-53533553D01*
X7501903Y-53570500D01*
X7501908Y-53570500D01*
X7738097Y-53570500D01*
X7971368Y-53533553D01*
X8054117Y-53506666D01*
X8195992Y-53460568D01*
X8406433Y-53353343D01*
X8597510Y-53214517D01*
X8764517Y-53047510D01*
X8903343Y-52856433D01*
X9010568Y-52645992D01*
X9083553Y-52421368D01*
X9113589Y-52231729D01*
X9120500Y-52188097D01*
X9120500Y-51951902D01*
X9083553Y-51718631D01*
X9016269Y-51511554D01*
X9010568Y-51494008D01*
X9010566Y-51494005D01*
X9010566Y-51494003D01*
X8939416Y-51354364D01*
X8903343Y-51283567D01*
X8764517Y-51092490D01*
X8597510Y-50925483D01*
X8406433Y-50786657D01*
X8195996Y-50679433D01*
X7971368Y-50606446D01*
X7738097Y-50569500D01*
X7738092Y-50569500D01*
X7501908Y-50569500D01*
X7501903Y-50569500D01*
X7268631Y-50606446D01*
X7044003Y-50679433D01*
X6833566Y-50786657D01*
X6755485Y-50843387D01*
X6642490Y-50925483D01*
X6642488Y-50925485D01*
X6642487Y-50925485D01*
X6475485Y-51092487D01*
X6475485Y-51092488D01*
X6475483Y-51092490D01*
X6415862Y-51174550D01*
X6336657Y-51283566D01*
X6229433Y-51494003D01*
X6156446Y-51718631D01*
X6119500Y-51951902D01*
X500500Y-51951902D01*
X500500Y-624500D01*
X520185Y-557461D01*
X572989Y-511706D01*
X624500Y-500500D01*
X11488033Y-500500D01*
X11555072Y-520185D01*
G37*
G04 #@! TD.AperFunction*
M02*
