M48
; DRILL file {KiCad 8.0.6} date 2024-12-02T18:43:13+0100
; FORMAT={-:-/ absolute / inch / decimal}
; #@! TF.CreationDate,2024-12-02T18:43:13+01:00
; #@! TF.GenerationSoftware,Kicad,Pcbnew,8.0.6
; #@! TF.FileFunction,MixedPlating,1,2
FMAT,2
INCH
; #@! TA.AperFunction,Plated,PTH,ViaDrill
T1C0.0354
; #@! TA.AperFunction,Plated,PTH,ComponentDrill
T2C0.0394
; #@! TA.AperFunction,Plated,PTH,ComponentDrill
T3C0.0400
; #@! TA.AperFunction,Plated,PTH,ComponentDrill
T4C0.0402
; #@! TA.AperFunction,Plated,PTH,ComponentDrill
T5C0.0472
; #@! TA.AperFunction,Plated,PTH,ComponentDrill
T6C0.1260
; #@! TA.AperFunction,NonPlated,NPTH,ComponentDrill
T7C0.0591
; #@! TA.AperFunction,NonPlated,NPTH,ComponentDrill
T8C0.0709
; #@! TA.AperFunction,NonPlated,NPTH,ComponentDrill
T9C0.0984
%
G90
G05
T1
X0.9Y-0.15
X1.3Y-0.15
X1.85Y-0.75
X1.85Y-1.4
X1.95Y-0.8
X1.95Y-1.3
X3.2Y-1.35
X3.2Y-1.55
T2
X0.6225Y-0.5087
X0.6225Y-0.5988
X0.6225Y-0.689
X0.6225Y-0.7791
X0.6225Y-0.8693
X0.7004Y-0.5537
X0.7004Y-0.6439
X0.7004Y-0.7341
X0.7004Y-0.8242
X0.7004Y-0.9144
X0.7784Y-0.5087
X0.7784Y-0.5988
X0.7784Y-0.689
X0.7784Y-0.7791
X0.7784Y-0.8693
X3.35Y-1.25
X3.35Y-1.35
X3.35Y-1.45
X3.35Y-1.55
T3
X2.1Y-1.6
X2.1Y-1.7
X2.1Y-1.8
X2.1Y-1.9
X2.1Y-2.0
X2.1Y-2.1
X2.5Y-1.6
X2.5Y-1.7
X2.5Y-1.8
X2.5Y-1.9
X2.5Y-2.0
X2.5Y-2.1
T4
X1.1Y-0.35
X1.1Y-1.05
X1.1091Y-0.6
X1.1091Y-0.7
X1.1091Y-0.8
X1.2Y-0.35
X1.2Y-1.05
X1.3Y-0.35
X1.3Y-1.05
X1.4Y-0.35
X1.4Y-1.05
X1.5Y-0.35
X1.5Y-1.05
X1.6Y-0.35
X1.6Y-1.05
X1.7Y-0.35
X1.7Y-1.05
X1.8Y-0.35
X1.8Y-1.05
X1.9Y-0.35
X1.9Y-1.05
X2.0Y-0.35
X2.0Y-1.05
X2.1Y-0.35
X2.1Y-1.05
X2.2Y-0.35
X2.2Y-1.05
X2.3Y-0.35
X2.3Y-1.05
X2.4Y-0.35
X2.4Y-1.05
X2.5Y-0.35
X2.5Y-1.05
X2.6Y-0.35
X2.6Y-1.05
X2.7Y-0.35
X2.7Y-1.05
X2.8Y-0.35
X2.8Y-1.05
X2.9Y-0.35
X2.9Y-1.05
X3.0Y-0.35
X3.0Y-1.05
T5
X0.65Y-1.55
X0.65Y-1.75
X0.65Y-1.95
X1.25Y-1.55
X1.25Y-1.75
X1.25Y-1.95
X1.6Y-1.55
X1.6Y-2.15
X1.8Y-1.55
X1.8Y-2.15
X2.8Y-1.55
X2.8Y-2.15
X3.0Y-1.55
X3.0Y-2.15
T6
X0.7225Y-0.2073
X0.7225Y-1.1915
T7
X2.8756Y-0.6045
X2.8756Y-0.7955
T8
X2.9949Y-0.5927
X2.9949Y-0.8073
T9
X0.3Y-2.05
X3.35Y-2.05
M30
