M48
; DRILL file {KiCad 8.0.6} date 2025-01-04T09:49:10+0100
; FORMAT={-:-/ absolute / inch / decimal}
; #@! TF.CreationDate,2025-01-04T09:49:10+01:00
; #@! TF.GenerationSoftware,Kicad,Pcbnew,8.0.6
; #@! TF.FileFunction,MixedPlating,1,2
FMAT,2
INCH
; #@! TA.AperFunction,Plated,PTH,ComponentDrill
T1C0.0276
; #@! TA.AperFunction,Plated,PTH,ComponentDrill
T2C0.0315
; #@! TA.AperFunction,Plated,PTH,ViaDrill
T3C0.0354
; #@! TA.AperFunction,Plated,PTH,ComponentDrill
T4C0.0394
%
G90
G05
T1
X-3.4242Y-1.275
X-3.4242Y-1.425
X-3.2242Y-1.275
X-3.2242Y-1.425
T2
X-3.425Y-0.4
X-3.425Y-1.0
X-3.325Y-0.4
X-3.325Y-1.0
X-3.225Y-0.4
X-3.225Y-1.0
X-3.125Y-0.4
X-3.125Y-1.0
X-3.025Y-0.4
X-3.025Y-1.0
X-2.925Y-0.4
X-2.925Y-1.0
X-2.825Y-0.4
X-2.825Y-1.0
X-2.725Y-0.4
X-2.725Y-1.0
X-2.625Y-0.4
X-2.625Y-1.0
X-2.525Y-0.4
X-2.525Y-1.0
X-2.425Y-0.4
X-2.425Y-1.0
X-2.325Y-0.4
X-2.325Y-1.0
X-2.225Y-0.4
X-2.225Y-1.0
X-2.125Y-0.4
X-2.125Y-1.0
X-0.5504Y-0.375
X-0.5504Y-0.475
X-0.5504Y-0.575
X-0.5504Y-0.675
X-0.5504Y-0.775
X-0.5504Y-0.875
X-0.5504Y-0.975
X-0.5504Y-1.075
X-0.2504Y-0.375
X-0.2504Y-0.475
X-0.2504Y-0.575
X-0.2504Y-0.675
X-0.2504Y-0.775
X-0.2504Y-0.875
X-0.2504Y-0.975
X-0.2504Y-1.075
T3
X-3.8Y-1.575
X-3.75Y-1.65
X-3.7Y-1.275
X-3.7Y-1.275
X-3.6Y-1.1
X-3.6Y-1.275
X-3.525Y-1.575
X-3.225Y-0.325
X-3.2Y-1.65
X-2.9Y-1.575
X-2.8Y-1.65
X-2.725Y-0.275
X-2.625Y-0.2203
X-2.6Y-1.275
X-2.525Y-1.425
X-2.325Y-1.65
X-2.225Y-1.575
X-2.125Y-1.275
X-2.025Y-0.225
X-2.025Y-0.325
X-2.025Y-1.1
X-1.925Y-0.275
X-1.8Y-1.275
X-1.7Y-1.0
X-0.875Y-0.275
X-0.875Y-0.6
X-0.725Y-1.425
X-0.65Y-0.125
X-0.65Y-0.375
X-0.65Y-1.0
X-0.55Y-1.275
T4
X-3.9Y-1.8
X-3.8Y-1.8
X-3.7Y-1.8
X-3.6Y-1.8
X-3.5Y-1.8
X-3.4Y-1.8
X-3.3Y-1.8
X-3.2Y-1.8
X-3.1Y-1.8
X-3.0492Y-1.274
X-3.0492Y-1.424
X-3.0Y-1.8
X-2.9492Y-1.274
X-2.9492Y-1.424
X-2.9Y-1.8
X-2.8Y-1.8
X-2.7Y-1.8
X-2.6Y-1.8
X-2.5Y-1.8
X-2.4Y-1.8
X-2.3Y-1.8
X-2.2Y-1.8
X-2.1Y-1.8
X-2.0Y-1.8
X-1.9Y-1.8
X-1.8Y-1.8
X-1.7Y-1.8
X-1.6Y-1.8
X-1.5Y-1.8
X-1.4Y-1.8
X-1.3Y-1.8
X-1.2Y-1.8
X-1.1Y-1.8
X-1.0Y-1.8
X-0.9Y-1.8
X-0.8Y-1.8
X-0.7Y-1.8
X-0.6Y-1.8
X-0.5Y-1.8
X-0.4Y-1.8
X-0.3Y-1.8
X-0.2Y-1.8
X-0.1Y-1.8
M30
