G04 #@! TF.GenerationSoftware,KiCad,Pcbnew,8.0.6*
G04 #@! TF.CreationDate,2025-01-04T09:49:02+01:00*
G04 #@! TF.ProjectId,rc6502-rom,72633635-3032-42d7-926f-6d2e6b696361,rev?*
G04 #@! TF.SameCoordinates,PXa41cf08PY6049a88*
G04 #@! TF.FileFunction,Copper,L2,Bot*
G04 #@! TF.FilePolarity,Positive*
%FSLAX46Y46*%
G04 Gerber Fmt 4.6, Leading zero omitted, Abs format (unit mm)*
G04 Created by KiCad (PCBNEW 8.0.6) date 2025-01-04 09:49:02*
%MOMM*%
%LPD*%
G01*
G04 APERTURE LIST*
G04 #@! TA.AperFunction,ComponentPad*
%ADD10R,1.700000X1.700000*%
G04 #@! TD*
G04 #@! TA.AperFunction,ComponentPad*
%ADD11O,1.700000X1.700000*%
G04 #@! TD*
G04 #@! TA.AperFunction,ComponentPad*
%ADD12R,1.600000X1.600000*%
G04 #@! TD*
G04 #@! TA.AperFunction,ComponentPad*
%ADD13O,1.600000X1.600000*%
G04 #@! TD*
G04 #@! TA.AperFunction,ComponentPad*
%ADD14C,1.400000*%
G04 #@! TD*
G04 #@! TA.AperFunction,ComponentPad*
%ADD15O,1.400000X1.400000*%
G04 #@! TD*
G04 #@! TA.AperFunction,ViaPad*
%ADD16C,1.200000*%
G04 #@! TD*
G04 #@! TA.AperFunction,Conductor*
%ADD17C,0.500000*%
G04 #@! TD*
G04 #@! TA.AperFunction,Conductor*
%ADD18C,0.800000*%
G04 #@! TD*
G04 APERTURE END LIST*
D10*
G04 #@! TO.P,J3,1,Pin_1*
G04 #@! TO.N,Net-(J3-Pin_1)*
X-77450000Y-36170000D03*
D11*
G04 #@! TO.P,J3,2,Pin_2*
G04 #@! TO.N,GND*
X-74910000Y-36170000D03*
G04 #@! TD*
D12*
G04 #@! TO.P,U2,1,A0*
G04 #@! TO.N,/A15*
X-6360000Y-27305000D03*
D13*
G04 #@! TO.P,U2,2,A1*
G04 #@! TO.N,/A14*
X-6360000Y-24765000D03*
G04 #@! TO.P,U2,3,A2*
G04 #@! TO.N,GND*
X-6360000Y-22225000D03*
G04 #@! TO.P,U2,4,E1*
X-6360000Y-19685000D03*
G04 #@! TO.P,U2,5,E2*
X-6360000Y-17145000D03*
G04 #@! TO.P,U2,6,E3*
G04 #@! TO.N,VCC*
X-6360000Y-14605000D03*
G04 #@! TO.P,U2,7,O7*
G04 #@! TO.N,unconnected-(U2-O7-Pad7)*
X-6360000Y-12065000D03*
G04 #@! TO.P,U2,8,GND*
G04 #@! TO.N,GND*
X-6360000Y-9525000D03*
G04 #@! TO.P,U2,9,O6*
G04 #@! TO.N,unconnected-(U2-O6-Pad9)*
X-13980000Y-9525000D03*
G04 #@! TO.P,U2,10,O5*
G04 #@! TO.N,unconnected-(U2-O5-Pad10)*
X-13980000Y-12065000D03*
G04 #@! TO.P,U2,11,O4*
G04 #@! TO.N,unconnected-(U2-O4-Pad11)*
X-13980000Y-14605000D03*
G04 #@! TO.P,U2,12,O3*
G04 #@! TO.N,unconnected-(U2-O3-Pad12)*
X-13980000Y-17145000D03*
G04 #@! TO.P,U2,13,O2*
G04 #@! TO.N,unconnected-(U2-O2-Pad13)*
X-13980000Y-19685000D03*
G04 #@! TO.P,U2,14,O1*
G04 #@! TO.N,Net-(U1-~{CE})*
X-13980000Y-22225000D03*
G04 #@! TO.P,U2,15,O0*
G04 #@! TO.N,unconnected-(U2-O0-Pad15)*
X-13980000Y-24765000D03*
G04 #@! TO.P,U2,16,VCC*
G04 #@! TO.N,VCC*
X-13980000Y-27305000D03*
G04 #@! TD*
D14*
G04 #@! TO.P,R1,1*
G04 #@! TO.N,VCC*
X-86975000Y-36195000D03*
D15*
G04 #@! TO.P,R1,2*
G04 #@! TO.N,Net-(J3-Pin_1)*
X-81895000Y-36195000D03*
G04 #@! TD*
D12*
G04 #@! TO.P,U1,1,A15*
G04 #@! TO.N,Net-(J2-Pin_1)*
X-86995000Y-25400000D03*
D13*
G04 #@! TO.P,U1,2,A12*
G04 #@! TO.N,/A12*
X-84455000Y-25400000D03*
G04 #@! TO.P,U1,3,A7*
G04 #@! TO.N,/A7*
X-81915000Y-25400000D03*
G04 #@! TO.P,U1,4,A6*
G04 #@! TO.N,/A6*
X-79375000Y-25400000D03*
G04 #@! TO.P,U1,5,A5*
G04 #@! TO.N,/A5*
X-76835000Y-25400000D03*
G04 #@! TO.P,U1,6,A4*
G04 #@! TO.N,/A4*
X-74295000Y-25400000D03*
G04 #@! TO.P,U1,7,A3*
G04 #@! TO.N,/A3*
X-71755000Y-25400000D03*
G04 #@! TO.P,U1,8,A2*
G04 #@! TO.N,/A2*
X-69215000Y-25400000D03*
G04 #@! TO.P,U1,9,A1*
G04 #@! TO.N,/A1*
X-66675000Y-25400000D03*
G04 #@! TO.P,U1,10,A0*
G04 #@! TO.N,/A0*
X-64135000Y-25400000D03*
G04 #@! TO.P,U1,11,D0*
G04 #@! TO.N,/D0*
X-61595000Y-25400000D03*
G04 #@! TO.P,U1,12,D1*
G04 #@! TO.N,/D1*
X-59055000Y-25400000D03*
G04 #@! TO.P,U1,13,D2*
G04 #@! TO.N,/D2*
X-56515000Y-25400000D03*
G04 #@! TO.P,U1,14,GND*
G04 #@! TO.N,GND*
X-53975000Y-25400000D03*
G04 #@! TO.P,U1,15,D3*
G04 #@! TO.N,/D3*
X-53975000Y-10160000D03*
G04 #@! TO.P,U1,16,D4*
G04 #@! TO.N,unconnected-(U1-D4-Pad16)*
X-56515000Y-10160000D03*
G04 #@! TO.P,U1,17,D5*
G04 #@! TO.N,/D5*
X-59055000Y-10160000D03*
G04 #@! TO.P,U1,18,D6*
G04 #@! TO.N,/D6*
X-61595000Y-10160000D03*
G04 #@! TO.P,U1,19,D7*
G04 #@! TO.N,/D7*
X-64135000Y-10160000D03*
G04 #@! TO.P,U1,20,~{CE}*
G04 #@! TO.N,Net-(U1-~{CE})*
X-66675000Y-10160000D03*
G04 #@! TO.P,U1,21,A10*
G04 #@! TO.N,/A10*
X-69215000Y-10160000D03*
G04 #@! TO.P,U1,22,~{OE}*
G04 #@! TO.N,Net-(U1-~{CE})*
X-71755000Y-10160000D03*
G04 #@! TO.P,U1,23,A11*
G04 #@! TO.N,/A11*
X-74295000Y-10160000D03*
G04 #@! TO.P,U1,24,A9*
G04 #@! TO.N,/A9*
X-76835000Y-10160000D03*
G04 #@! TO.P,U1,25,A8*
G04 #@! TO.N,/A8*
X-79375000Y-10160000D03*
G04 #@! TO.P,U1,26,A13*
G04 #@! TO.N,/A13*
X-81915000Y-10160000D03*
G04 #@! TO.P,U1,27,A14*
G04 #@! TO.N,Net-(J3-Pin_1)*
X-84455000Y-10160000D03*
G04 #@! TO.P,U1,28,VCC*
G04 #@! TO.N,VCC*
X-86995000Y-10160000D03*
G04 #@! TD*
D10*
G04 #@! TO.P,J1,1,A15*
G04 #@! TO.N,/A15*
X-2540000Y-45720000D03*
D11*
G04 #@! TO.P,J1,2,A14*
G04 #@! TO.N,/A14*
X-5080000Y-45720000D03*
G04 #@! TO.P,J1,3,A13*
G04 #@! TO.N,/A13*
X-7620000Y-45720000D03*
G04 #@! TO.P,J1,4,A12*
G04 #@! TO.N,/A12*
X-10160000Y-45720000D03*
G04 #@! TO.P,J1,5,A11*
G04 #@! TO.N,/A11*
X-12700000Y-45720000D03*
G04 #@! TO.P,J1,6,A10*
G04 #@! TO.N,/A10*
X-15240000Y-45720000D03*
G04 #@! TO.P,J1,7,A9*
G04 #@! TO.N,/A9*
X-17780000Y-45720000D03*
G04 #@! TO.P,J1,8,A8*
G04 #@! TO.N,/A8*
X-20320000Y-45720000D03*
G04 #@! TO.P,J1,9,A7*
G04 #@! TO.N,/A7*
X-22860000Y-45720000D03*
G04 #@! TO.P,J1,10,A6*
G04 #@! TO.N,/A6*
X-25400000Y-45720000D03*
G04 #@! TO.P,J1,11,A5*
G04 #@! TO.N,/A5*
X-27940000Y-45720000D03*
G04 #@! TO.P,J1,12,A4*
G04 #@! TO.N,/A4*
X-30480000Y-45720000D03*
G04 #@! TO.P,J1,13,A3*
G04 #@! TO.N,/A3*
X-33020000Y-45720000D03*
G04 #@! TO.P,J1,14,A2*
G04 #@! TO.N,/A2*
X-35560000Y-45720000D03*
G04 #@! TO.P,J1,15,A1*
G04 #@! TO.N,/A1*
X-38100000Y-45720000D03*
G04 #@! TO.P,J1,16,A0*
G04 #@! TO.N,/A0*
X-40640000Y-45720000D03*
G04 #@! TO.P,J1,17,P17*
G04 #@! TO.N,GND*
X-43180000Y-45720000D03*
G04 #@! TO.P,J1,18,P18*
G04 #@! TO.N,VCC*
X-45720000Y-45720000D03*
G04 #@! TO.P,J1,19,PHI2*
G04 #@! TO.N,unconnected-(J1-PHI2-Pad19)*
X-48260000Y-45720000D03*
G04 #@! TO.P,J1,20,RESET*
G04 #@! TO.N,unconnected-(J1-RESET-Pad20)*
X-50800000Y-45720000D03*
G04 #@! TO.P,J1,21,PHI0*
G04 #@! TO.N,unconnected-(J1-PHI0-Pad21)*
X-53340000Y-45720000D03*
G04 #@! TO.P,J1,22,IRQ*
G04 #@! TO.N,unconnected-(J1-IRQ-Pad22)*
X-55880000Y-45720000D03*
G04 #@! TO.P,J1,23,PHI1*
G04 #@! TO.N,unconnected-(J1-PHI1-Pad23)*
X-58420000Y-45720000D03*
G04 #@! TO.P,J1,24,RW*
G04 #@! TO.N,unconnected-(J1-RW-Pad24)*
X-60960000Y-45720000D03*
G04 #@! TO.P,J1,25,READY*
G04 #@! TO.N,unconnected-(J1-READY-Pad25)*
X-63500000Y-45720000D03*
G04 #@! TO.P,J1,26,SYNC*
G04 #@! TO.N,unconnected-(J1-SYNC-Pad26)*
X-66040000Y-45720000D03*
G04 #@! TO.P,J1,27,D0*
G04 #@! TO.N,/D0*
X-68580000Y-45720000D03*
G04 #@! TO.P,J1,28,D1*
G04 #@! TO.N,/D1*
X-71120000Y-45720000D03*
G04 #@! TO.P,J1,29,D2*
G04 #@! TO.N,/D2*
X-73660000Y-45720000D03*
G04 #@! TO.P,J1,30,D3*
G04 #@! TO.N,/D3*
X-76200000Y-45720000D03*
G04 #@! TO.P,J1,31,D4*
G04 #@! TO.N,unconnected-(J1-D4-Pad31)*
X-78740000Y-45720000D03*
G04 #@! TO.P,J1,32,D5*
G04 #@! TO.N,/D5*
X-81280000Y-45720000D03*
G04 #@! TO.P,J1,33,D6*
G04 #@! TO.N,/D6*
X-83820000Y-45720000D03*
G04 #@! TO.P,J1,34,D7*
G04 #@! TO.N,/D7*
X-86360000Y-45720000D03*
G04 #@! TO.P,J1,35,TX*
G04 #@! TO.N,unconnected-(J1-TX-Pad35)*
X-88900000Y-45720000D03*
G04 #@! TO.P,J1,36,RX*
G04 #@! TO.N,unconnected-(J1-RX-Pad36)*
X-91440000Y-45720000D03*
G04 #@! TO.P,J1,37,NMI*
G04 #@! TO.N,unconnected-(J1-NMI-Pad37)*
X-93980000Y-45720000D03*
G04 #@! TO.P,J1,38,P38*
G04 #@! TO.N,unconnected-(J1-P38-Pad38)*
X-96520000Y-45720000D03*
G04 #@! TO.P,J1,39,P39*
G04 #@! TO.N,unconnected-(J1-P39-Pad39)*
X-99060000Y-45720000D03*
G04 #@! TD*
D10*
G04 #@! TO.P,J2,1,Pin_1*
G04 #@! TO.N,Net-(J2-Pin_1)*
X-77450000Y-32360000D03*
D11*
G04 #@! TO.P,J2,2,Pin_2*
G04 #@! TO.N,GND*
X-74910000Y-32360000D03*
G04 #@! TD*
D14*
G04 #@! TO.P,R2,1*
G04 #@! TO.N,VCC*
X-86975000Y-32385000D03*
D15*
G04 #@! TO.P,R2,2*
G04 #@! TO.N,Net-(J2-Pin_1)*
X-81895000Y-32385000D03*
G04 #@! TD*
D16*
G04 #@! TO.N,/D5*
X-95250000Y-41910000D03*
X-81280000Y-41910000D03*
G04 #@! TO.N,/A13*
X-81915000Y-8255000D03*
X-51435000Y-8255000D03*
G04 #@! TO.N,/A10*
X-48895000Y-6985000D03*
X-22225000Y-6985000D03*
X-69215000Y-6985000D03*
X-22225000Y-15240000D03*
G04 #@! TO.N,VCC*
X-13970000Y-32385000D03*
X-45720000Y-32385000D03*
X-91440000Y-27940000D03*
X-51435000Y-27940000D03*
G04 #@! TO.N,/D6*
X-91440000Y-32385000D03*
X-93980000Y-32385000D03*
X-93980000Y-32385000D03*
G04 #@! TO.N,GND*
X-16510000Y-9525000D03*
X-16510000Y-25400000D03*
X-16510000Y-3175000D03*
X-53975000Y-32385000D03*
X-43180000Y-25400000D03*
X-66040000Y-32385000D03*
G04 #@! TO.N,/D1*
X-59055000Y-41910000D03*
X-71120000Y-41910000D03*
G04 #@! TO.N,/D2*
X-56515000Y-40005000D03*
X-73660000Y-40005000D03*
G04 #@! TO.N,/D3*
X-96520000Y-40005000D03*
X-89535000Y-40005000D03*
G04 #@! TO.N,/A12*
X-18415000Y-36195000D03*
X-64135000Y-36195000D03*
G04 #@! TO.N,Net-(U1-~{CE})*
X-66675000Y-5595000D03*
X-51435000Y-5715000D03*
G04 #@! TD*
D17*
G04 #@! TO.N,/A9*
X-17780000Y-45720000D02*
X-17780000Y-44767500D01*
X-24130000Y-14250000D02*
X-76835000Y-14250000D01*
X-17780000Y-44767500D02*
X-24130000Y-38417500D01*
X-24130000Y-38417500D02*
X-24130000Y-14250000D01*
X-76835000Y-14250000D02*
X-76835000Y-10160000D01*
G04 #@! TO.N,/A11*
X-12700000Y-45720000D02*
X-12700000Y-44450000D01*
X-12700000Y-44450000D02*
X-20320000Y-36830000D01*
X-74180000Y-13450000D02*
X-74295000Y-13335000D01*
X-20320000Y-36830000D02*
X-20320000Y-13450000D01*
X-20320000Y-13450000D02*
X-74180000Y-13450000D01*
X-74295000Y-13335000D02*
X-74295000Y-10160000D01*
G04 #@! TO.N,/A5*
X-76505000Y-17450000D02*
X-32080000Y-17450000D01*
X-76835000Y-17780000D02*
X-76505000Y-17450000D01*
X-76835000Y-25400000D02*
X-76835000Y-17780000D01*
X-27940000Y-44450000D02*
X-27940000Y-45720000D01*
X-31750000Y-17780000D02*
X-31750000Y-40640000D01*
X-31750000Y-40640000D02*
X-27940000Y-44450000D01*
X-32080000Y-17450000D02*
X-31750000Y-17780000D01*
G04 #@! TO.N,/A15*
X-6350000Y-40640000D02*
X-6350000Y-27315000D01*
X-6350000Y-27315000D02*
X-6360000Y-27305000D01*
X-2540000Y-44450000D02*
X-6350000Y-40640000D01*
X-2540000Y-45720000D02*
X-2540000Y-44450000D01*
G04 #@! TO.N,/D5*
X-59055000Y-2235000D02*
X-59055000Y-10160000D01*
X-81280000Y-45720000D02*
X-81280000Y-41910000D01*
X-95250000Y-41910000D02*
X-95250000Y-2235000D01*
X-95250000Y-2235000D02*
X-59055000Y-2235000D01*
G04 #@! TO.N,/A13*
X-18415000Y-8255000D02*
X-18415000Y-33655000D01*
X-81915000Y-10160000D02*
X-81915000Y-8255000D01*
X-7620000Y-45720000D02*
X-7620000Y-44450000D01*
X-51435000Y-8255000D02*
X-18415000Y-8255000D01*
X-7620000Y-44450000D02*
X-18415000Y-33655000D01*
G04 #@! TO.N,/D0*
X-68580000Y-43180000D02*
X-61595000Y-43180000D01*
X-68580000Y-45720000D02*
X-68580000Y-43180000D01*
X-61595000Y-43180000D02*
X-61595000Y-25400000D01*
G04 #@! TO.N,/A10*
X-22225000Y-37465000D02*
X-15240000Y-44450000D01*
X-69215000Y-10160000D02*
X-69215000Y-6985000D01*
X-15240000Y-44450000D02*
X-15240000Y-45720000D01*
X-22225000Y-6985000D02*
X-48895000Y-6985000D01*
X-22225000Y-15240000D02*
X-22225000Y-37465000D01*
G04 #@! TO.N,/A1*
X-39370000Y-43180000D02*
X-38100000Y-44450000D01*
X-66675000Y-25400000D02*
X-66675000Y-20955000D01*
X-66370000Y-20650000D02*
X-39675000Y-20650000D01*
X-39675000Y-20650000D02*
X-39370000Y-20955000D01*
X-38100000Y-44450000D02*
X-38100000Y-45720000D01*
X-66675000Y-20955000D02*
X-66370000Y-20650000D01*
X-39370000Y-20955000D02*
X-39370000Y-43180000D01*
G04 #@! TO.N,/A3*
X-35560000Y-41910000D02*
X-33020000Y-44450000D01*
X-71755000Y-19050000D02*
X-35560000Y-19050000D01*
X-71755000Y-25400000D02*
X-71755000Y-19050000D01*
X-33020000Y-44450000D02*
X-33020000Y-45720000D01*
X-35560000Y-19050000D02*
X-35560000Y-41910000D01*
G04 #@! TO.N,/A8*
X-79375000Y-15050000D02*
X-79375000Y-10160000D01*
X-20320000Y-45720000D02*
X-20320000Y-44450000D01*
X-26035000Y-38735000D02*
X-26035000Y-15240000D01*
X-26035000Y-15240000D02*
X-26225000Y-15050000D01*
X-20320000Y-44450000D02*
X-26035000Y-38735000D01*
X-26225000Y-15050000D02*
X-79375000Y-15050000D01*
G04 #@! TO.N,VCC*
X-91440000Y-10160000D02*
X-86995000Y-10160000D01*
X-10170000Y-27305000D02*
X-10170000Y-14605000D01*
X-51435000Y-27940000D02*
X-45720000Y-27940000D01*
X-86975000Y-32385000D02*
X-86975000Y-36830000D01*
X-10170000Y-14605000D02*
X-6360000Y-14605000D01*
X-45720000Y-27940000D02*
X-45720000Y-45720000D01*
X-91440000Y-27940000D02*
X-91440000Y-10160000D01*
X-91440000Y-27940000D02*
X-90170000Y-29210000D01*
X-90150000Y-29210000D02*
X-86975000Y-32385000D01*
X-13980000Y-27305000D02*
X-10170000Y-27305000D01*
X-13980000Y-32375000D02*
X-13980000Y-27305000D01*
X-90170000Y-29210000D02*
X-90150000Y-29210000D01*
X-13970000Y-32385000D02*
X-13980000Y-32375000D01*
G04 #@! TO.N,/D6*
X-61595000Y-3175000D02*
X-93980000Y-3175000D01*
X-93980000Y-3175000D02*
X-93980000Y-32385000D01*
X-91440000Y-41910000D02*
X-83820000Y-41910000D01*
X-83820000Y-41910000D02*
X-83820000Y-45720000D01*
X-61595000Y-10160000D02*
X-61595000Y-3175000D01*
X-91440000Y-32385000D02*
X-91440000Y-41910000D01*
G04 #@! TO.N,/A6*
X-29985000Y-39865000D02*
X-25400000Y-44450000D01*
X-29985000Y-16650000D02*
X-29985000Y-39865000D01*
X-79235000Y-16650000D02*
X-29985000Y-16650000D01*
X-79375000Y-16790000D02*
X-79235000Y-16650000D01*
X-79375000Y-25400000D02*
X-79375000Y-16790000D01*
X-25400000Y-44450000D02*
X-25400000Y-45720000D01*
D18*
G04 #@! TO.N,GND*
X-74910000Y-36170000D02*
X-74910000Y-32360000D01*
X-3820000Y-17135000D02*
X-3810000Y-17145000D01*
X-66040000Y-32385000D02*
X-66065000Y-32360000D01*
X-6360000Y-19685000D02*
X-6360000Y-22225000D01*
X-3810000Y-17145000D02*
X-6360000Y-17145000D01*
X-53975000Y-25400000D02*
X-53975000Y-32385000D01*
X-6360000Y-17145000D02*
X-6360000Y-19685000D01*
X-16510000Y-25400000D02*
X-16510000Y-9525000D01*
X-6360000Y-9525000D02*
X-3820000Y-9525000D01*
X-66065000Y-32360000D02*
X-74910000Y-32360000D01*
X-53975000Y-25400000D02*
X-43180000Y-25400000D01*
X-6360000Y-3185000D02*
X-6350000Y-3175000D01*
X-6360000Y-9525000D02*
X-6360000Y-3185000D01*
X-43180000Y-25400000D02*
X-43180000Y-45720000D01*
X-6350000Y-3175000D02*
X-16510000Y-3175000D01*
X-3820000Y-9525000D02*
X-3820000Y-17135000D01*
D17*
G04 #@! TO.N,/D1*
X-71120000Y-41910000D02*
X-71120000Y-45720000D01*
X-59055000Y-25400000D02*
X-59055000Y-41910000D01*
G04 #@! TO.N,/A4*
X-74130000Y-18250000D02*
X-33820000Y-18250000D01*
X-33655000Y-18415000D02*
X-33655000Y-41275000D01*
X-33655000Y-41275000D02*
X-30480000Y-44450000D01*
X-33820000Y-18250000D02*
X-33655000Y-18415000D01*
X-74295000Y-25400000D02*
X-74295000Y-18415000D01*
X-30480000Y-44450000D02*
X-30480000Y-45720000D01*
X-74295000Y-18415000D02*
X-74130000Y-18250000D01*
G04 #@! TO.N,/A2*
X-69215000Y-25400000D02*
X-69215000Y-20320000D01*
X-68745000Y-19850000D02*
X-37935000Y-19850000D01*
X-69215000Y-20320000D02*
X-68745000Y-19850000D01*
X-37935000Y-19850000D02*
X-37465000Y-20320000D01*
X-37465000Y-20320000D02*
X-37465000Y-42545000D01*
X-35560000Y-44450000D02*
X-35560000Y-45720000D01*
X-37465000Y-42545000D02*
X-35560000Y-44450000D01*
G04 #@! TO.N,/D2*
X-73660000Y-45720000D02*
X-73660000Y-40005000D01*
X-56515000Y-40005000D02*
X-56515000Y-25400000D01*
G04 #@! TO.N,/A14*
X-8900000Y-40630000D02*
X-5080000Y-44450000D01*
X-6360000Y-24765000D02*
X-8900000Y-24765000D01*
X-5080000Y-44450000D02*
X-5080000Y-45720000D01*
X-8900000Y-24765000D02*
X-8900000Y-40630000D01*
G04 #@! TO.N,/A7*
X-81890000Y-15850000D02*
X-81915000Y-15875000D01*
X-22860000Y-44450000D02*
X-27940000Y-39370000D01*
X-22860000Y-45720000D02*
X-22860000Y-44450000D01*
X-27940000Y-15875000D02*
X-27965000Y-15850000D01*
X-27940000Y-39370000D02*
X-27940000Y-15875000D01*
X-27965000Y-15850000D02*
X-81890000Y-15850000D01*
X-81915000Y-15875000D02*
X-81915000Y-25400000D01*
G04 #@! TO.N,/A0*
X-41275000Y-21450000D02*
X-41275000Y-43815000D01*
X-41275000Y-43815000D02*
X-40640000Y-44450000D01*
X-40640000Y-44450000D02*
X-40640000Y-45720000D01*
X-64135000Y-21450000D02*
X-41275000Y-21450000D01*
X-64135000Y-25400000D02*
X-64135000Y-21450000D01*
G04 #@! TO.N,/D3*
X-96520000Y-40005000D02*
X-96520000Y-1270000D01*
X-76200000Y-40005000D02*
X-89535000Y-40005000D01*
X-53975000Y-1270000D02*
X-53975000Y-10160000D01*
X-96520000Y-1270000D02*
X-53975000Y-1270000D01*
X-76200000Y-45720000D02*
X-76200000Y-40005000D01*
G04 #@! TO.N,/D7*
X-64135000Y-10160000D02*
X-64135000Y-4445000D01*
X-92710000Y-4445000D02*
X-92710000Y-43180000D01*
X-86360000Y-43180000D02*
X-86360000Y-45720000D01*
X-64135000Y-4445000D02*
X-92710000Y-4445000D01*
X-92710000Y-43180000D02*
X-86360000Y-43180000D01*
G04 #@! TO.N,/A12*
X-64135000Y-27940000D02*
X-64135000Y-36195000D01*
X-84455000Y-25400000D02*
X-84455000Y-27305000D01*
X-84455000Y-27305000D02*
X-83820000Y-27940000D01*
X-10160000Y-44450000D02*
X-18415000Y-36195000D01*
X-83820000Y-27940000D02*
X-64135000Y-27940000D01*
X-10160000Y-45720000D02*
X-10160000Y-44450000D01*
G04 #@! TO.N,Net-(J2-Pin_1)*
X-81895000Y-32385000D02*
X-77475000Y-32385000D01*
X-86995000Y-27305000D02*
X-86360000Y-27940000D01*
X-77475000Y-32385000D02*
X-77450000Y-32360000D01*
X-86340000Y-27940000D02*
X-81895000Y-32385000D01*
X-86995000Y-25400000D02*
X-86995000Y-27305000D01*
X-86360000Y-27940000D02*
X-86340000Y-27940000D01*
G04 #@! TO.N,Net-(J3-Pin_1)*
X-90170000Y-13335000D02*
X-90170000Y-26670000D01*
X-84455000Y-10160000D02*
X-84455000Y-13335000D01*
X-90170000Y-26670000D02*
X-84435000Y-32405000D01*
X-82530000Y-36195000D02*
X-77475000Y-36195000D01*
X-84435000Y-32405000D02*
X-84435000Y-34290000D01*
X-84455000Y-13335000D02*
X-90170000Y-13335000D01*
X-84435000Y-34290000D02*
X-82530000Y-36195000D01*
X-77475000Y-36195000D02*
X-77450000Y-36170000D01*
G04 #@! TO.N,Net-(U1-~{CE})*
X-66675000Y-10160000D02*
X-66675000Y-5595000D01*
X-66795000Y-5715000D02*
X-66675000Y-5595000D01*
X-51435000Y-5715000D02*
X-11440000Y-5715000D01*
X-11440000Y-5715000D02*
X-11440000Y-22225000D01*
X-71755000Y-5715000D02*
X-66795000Y-5715000D01*
X-71755000Y-10160000D02*
X-71755000Y-5715000D01*
X-11440000Y-22225000D02*
X-13980000Y-22225000D01*
G04 #@! TD*
G04 #@! TA.AperFunction,NonConductor*
G36*
X-52719297Y-6303424D02*
G01*
X-52686944Y-6347328D01*
X-52670926Y-6383846D01*
X-52543984Y-6578147D01*
X-52543981Y-6578151D01*
X-52543979Y-6578153D01*
X-52386784Y-6748913D01*
X-52386781Y-6748915D01*
X-52386778Y-6748918D01*
X-52209182Y-6887147D01*
X-52168369Y-6943857D01*
X-52164694Y-7013630D01*
X-52199326Y-7074313D01*
X-52209182Y-7082853D01*
X-52386778Y-7221081D01*
X-52386781Y-7221084D01*
X-52543984Y-7391852D01*
X-52670925Y-7586151D01*
X-52686944Y-7622672D01*
X-52731900Y-7676158D01*
X-52798636Y-7696848D01*
X-52865964Y-7678173D01*
X-52912507Y-7626063D01*
X-52924500Y-7572862D01*
X-52924500Y-6397137D01*
X-52904815Y-6330098D01*
X-52852011Y-6284343D01*
X-52782853Y-6274399D01*
X-52719297Y-6303424D01*
G37*
G04 #@! TD.AperFunction*
G04 #@! TA.AperFunction,NonConductor*
G36*
X-12547461Y-6785185D02*
G01*
X-12501706Y-6837989D01*
X-12490500Y-6889500D01*
X-12490500Y-8468463D01*
X-12510185Y-8535502D01*
X-12562989Y-8581257D01*
X-12632147Y-8591201D01*
X-12695703Y-8562176D01*
X-12708790Y-8548995D01*
X-12752139Y-8498240D01*
X-12844776Y-8389776D01*
X-13002578Y-8255000D01*
X-13036344Y-8226161D01*
X-13036347Y-8226160D01*
X-13251141Y-8094533D01*
X-13483890Y-7998126D01*
X-13728849Y-7939317D01*
X-13980000Y-7919551D01*
X-14231152Y-7939317D01*
X-14476111Y-7998126D01*
X-14708860Y-8094533D01*
X-14923654Y-8226160D01*
X-14923657Y-8226161D01*
X-15066937Y-8348535D01*
X-15115224Y-8389776D01*
X-15262467Y-8562176D01*
X-15282000Y-8585046D01*
X-15283675Y-8583615D01*
X-15331765Y-8620691D01*
X-15401379Y-8626664D01*
X-15463171Y-8594052D01*
X-15467972Y-8589119D01*
X-15471721Y-8585046D01*
X-15558216Y-8491087D01*
X-15558221Y-8491083D01*
X-15558223Y-8491081D01*
X-15741366Y-8348535D01*
X-15741372Y-8348531D01*
X-15945496Y-8238064D01*
X-15945505Y-8238061D01*
X-16165016Y-8162702D01*
X-16336718Y-8134050D01*
X-16393951Y-8124500D01*
X-16626049Y-8124500D01*
X-16671836Y-8132140D01*
X-16854985Y-8162702D01*
X-17074496Y-8238061D01*
X-17074510Y-8238067D01*
X-17181483Y-8295958D01*
X-17249811Y-8310553D01*
X-17315183Y-8285890D01*
X-17356844Y-8229799D01*
X-17364500Y-8186903D01*
X-17364500Y-8151534D01*
X-17364501Y-8151530D01*
X-17375838Y-8094533D01*
X-17404870Y-7948580D01*
X-17484059Y-7757402D01*
X-17599023Y-7585345D01*
X-17599025Y-7585342D01*
X-17745343Y-7439024D01*
X-17831374Y-7381541D01*
X-17917402Y-7324059D01*
X-18108580Y-7244870D01*
X-18108588Y-7244868D01*
X-18311531Y-7204500D01*
X-18311535Y-7204500D01*
X-20703188Y-7204500D01*
X-20770227Y-7184815D01*
X-20815982Y-7132011D01*
X-20826765Y-7070261D01*
X-20819700Y-6985000D01*
X-20826765Y-6899738D01*
X-20812683Y-6831303D01*
X-20763838Y-6781344D01*
X-20703188Y-6765500D01*
X-12614500Y-6765500D01*
X-12547461Y-6785185D01*
G37*
G04 #@! TD.AperFunction*
G04 #@! TA.AperFunction,NonConductor*
G36*
X-55082461Y-2340185D02*
G01*
X-55036706Y-2392989D01*
X-55025500Y-2444500D01*
X-55025500Y-8895249D01*
X-55045185Y-8962288D01*
X-55068968Y-8989539D01*
X-55110218Y-9024770D01*
X-55110224Y-9024776D01*
X-55150710Y-9072179D01*
X-55209217Y-9110372D01*
X-55279085Y-9110870D01*
X-55338131Y-9073516D01*
X-55339290Y-9072179D01*
X-55360081Y-9047836D01*
X-55379776Y-9024776D01*
X-55530787Y-8895800D01*
X-55571344Y-8861161D01*
X-55571347Y-8861160D01*
X-55786141Y-8729533D01*
X-56018890Y-8633126D01*
X-56263849Y-8574317D01*
X-56515000Y-8554551D01*
X-56766152Y-8574317D01*
X-57011111Y-8633126D01*
X-57243860Y-8729533D01*
X-57458654Y-8861160D01*
X-57458657Y-8861161D01*
X-57650224Y-9024776D01*
X-57690710Y-9072179D01*
X-57749217Y-9110372D01*
X-57819085Y-9110870D01*
X-57878131Y-9073516D01*
X-57879290Y-9072179D01*
X-57900081Y-9047836D01*
X-57919776Y-9024776D01*
X-57960907Y-8989646D01*
X-57961032Y-8989539D01*
X-57999225Y-8931031D01*
X-58004500Y-8895249D01*
X-58004500Y-2444500D01*
X-57984815Y-2377461D01*
X-57932011Y-2331706D01*
X-57880500Y-2320500D01*
X-55149500Y-2320500D01*
X-55082461Y-2340185D01*
G37*
G04 #@! TD.AperFunction*
G04 #@! TA.AperFunction,NonConductor*
G36*
X-60162461Y-3305185D02*
G01*
X-60116706Y-3357989D01*
X-60105500Y-3409500D01*
X-60105500Y-8895249D01*
X-60125185Y-8962288D01*
X-60148968Y-8989539D01*
X-60190218Y-9024770D01*
X-60190224Y-9024776D01*
X-60230710Y-9072179D01*
X-60289217Y-9110372D01*
X-60359085Y-9110870D01*
X-60418131Y-9073516D01*
X-60419290Y-9072179D01*
X-60440081Y-9047836D01*
X-60459776Y-9024776D01*
X-60500907Y-8989646D01*
X-60501032Y-8989539D01*
X-60539225Y-8931031D01*
X-60544500Y-8895249D01*
X-60544500Y-3409500D01*
X-60524815Y-3342461D01*
X-60472011Y-3296706D01*
X-60420500Y-3285500D01*
X-60229500Y-3285500D01*
X-60162461Y-3305185D01*
G37*
G04 #@! TD.AperFunction*
G04 #@! TA.AperFunction,NonConductor*
G36*
X-62702461Y-4245185D02*
G01*
X-62656706Y-4297989D01*
X-62645500Y-4349500D01*
X-62645500Y-8895249D01*
X-62665185Y-8962288D01*
X-62688968Y-8989539D01*
X-62730218Y-9024770D01*
X-62730224Y-9024776D01*
X-62770710Y-9072179D01*
X-62829217Y-9110372D01*
X-62899085Y-9110870D01*
X-62958131Y-9073516D01*
X-62959290Y-9072179D01*
X-62980081Y-9047836D01*
X-62999776Y-9024776D01*
X-63040907Y-8989646D01*
X-63041032Y-8989539D01*
X-63079225Y-8931031D01*
X-63084500Y-8895249D01*
X-63084500Y-4349500D01*
X-63064815Y-4282461D01*
X-63012011Y-4236706D01*
X-62960500Y-4225500D01*
X-62769500Y-4225500D01*
X-62702461Y-4245185D01*
G37*
G04 #@! TD.AperFunction*
G04 #@! TA.AperFunction,NonConductor*
G36*
X-65244037Y-6171825D02*
G01*
X-65197493Y-6223935D01*
X-65185500Y-6277137D01*
X-65185500Y-8895249D01*
X-65205185Y-8962288D01*
X-65228968Y-8989539D01*
X-65270218Y-9024770D01*
X-65270224Y-9024776D01*
X-65310710Y-9072179D01*
X-65369217Y-9110372D01*
X-65439085Y-9110870D01*
X-65498131Y-9073516D01*
X-65499290Y-9072179D01*
X-65520081Y-9047836D01*
X-65539776Y-9024776D01*
X-65580907Y-8989646D01*
X-65581032Y-8989539D01*
X-65619225Y-8931031D01*
X-65624500Y-8895249D01*
X-65624500Y-6570063D01*
X-65604815Y-6503024D01*
X-65591730Y-6486080D01*
X-65566021Y-6458153D01*
X-65439076Y-6263849D01*
X-65423056Y-6227328D01*
X-65378101Y-6173841D01*
X-65311365Y-6153151D01*
X-65244037Y-6171825D01*
G37*
G04 #@! TD.AperFunction*
G04 #@! TA.AperFunction,NonConductor*
G36*
X-67784037Y-7561825D02*
G01*
X-67737493Y-7613935D01*
X-67725500Y-7667137D01*
X-67725500Y-8895249D01*
X-67745185Y-8962288D01*
X-67768968Y-8989539D01*
X-67810218Y-9024770D01*
X-67810224Y-9024776D01*
X-67850710Y-9072179D01*
X-67909217Y-9110372D01*
X-67979085Y-9110870D01*
X-68038131Y-9073516D01*
X-68039290Y-9072179D01*
X-68060081Y-9047836D01*
X-68079776Y-9024776D01*
X-68120907Y-8989646D01*
X-68121032Y-8989539D01*
X-68159225Y-8931031D01*
X-68164500Y-8895249D01*
X-68164500Y-7960063D01*
X-68144815Y-7893024D01*
X-68131730Y-7876080D01*
X-68106021Y-7848153D01*
X-67979076Y-7653849D01*
X-67963056Y-7617328D01*
X-67918101Y-7563841D01*
X-67851365Y-7543151D01*
X-67784037Y-7561825D01*
G37*
G04 #@! TD.AperFunction*
G04 #@! TA.AperFunction,NonConductor*
G36*
X-70499297Y-7573424D02*
G01*
X-70466944Y-7617328D01*
X-70450926Y-7653846D01*
X-70323982Y-7848150D01*
X-70298270Y-7876080D01*
X-70267348Y-7938734D01*
X-70265500Y-7960063D01*
X-70265500Y-8895249D01*
X-70285185Y-8962288D01*
X-70308968Y-8989539D01*
X-70350218Y-9024770D01*
X-70350224Y-9024776D01*
X-70390710Y-9072179D01*
X-70449217Y-9110372D01*
X-70519085Y-9110870D01*
X-70578131Y-9073516D01*
X-70579290Y-9072179D01*
X-70600081Y-9047836D01*
X-70619776Y-9024776D01*
X-70660907Y-8989646D01*
X-70661032Y-8989539D01*
X-70699225Y-8931031D01*
X-70704500Y-8895249D01*
X-70704500Y-7667137D01*
X-70684815Y-7600098D01*
X-70632011Y-7554343D01*
X-70562853Y-7544399D01*
X-70499297Y-7573424D01*
G37*
G04 #@! TD.AperFunction*
G04 #@! TA.AperFunction,NonConductor*
G36*
X-72862461Y-5515185D02*
G01*
X-72816706Y-5567989D01*
X-72805500Y-5619500D01*
X-72805500Y-8895249D01*
X-72825185Y-8962288D01*
X-72848968Y-8989539D01*
X-72890218Y-9024770D01*
X-72890224Y-9024776D01*
X-72930710Y-9072179D01*
X-72989217Y-9110372D01*
X-73059085Y-9110870D01*
X-73118131Y-9073516D01*
X-73119290Y-9072179D01*
X-73140081Y-9047836D01*
X-73159776Y-9024776D01*
X-73310787Y-8895800D01*
X-73351344Y-8861161D01*
X-73351347Y-8861160D01*
X-73566141Y-8729533D01*
X-73798890Y-8633126D01*
X-74043849Y-8574317D01*
X-74295000Y-8554551D01*
X-74546152Y-8574317D01*
X-74791111Y-8633126D01*
X-75023860Y-8729533D01*
X-75238654Y-8861160D01*
X-75238657Y-8861161D01*
X-75430224Y-9024776D01*
X-75470710Y-9072179D01*
X-75529217Y-9110372D01*
X-75599085Y-9110870D01*
X-75658131Y-9073516D01*
X-75659290Y-9072179D01*
X-75680081Y-9047836D01*
X-75699776Y-9024776D01*
X-75850787Y-8895800D01*
X-75891344Y-8861161D01*
X-75891347Y-8861160D01*
X-76106141Y-8729533D01*
X-76338890Y-8633126D01*
X-76583849Y-8574317D01*
X-76835000Y-8554551D01*
X-77086152Y-8574317D01*
X-77331111Y-8633126D01*
X-77563860Y-8729533D01*
X-77778654Y-8861160D01*
X-77778657Y-8861161D01*
X-77970224Y-9024776D01*
X-78010710Y-9072179D01*
X-78069217Y-9110372D01*
X-78139085Y-9110870D01*
X-78198131Y-9073516D01*
X-78199290Y-9072179D01*
X-78220081Y-9047836D01*
X-78239776Y-9024776D01*
X-78390787Y-8895800D01*
X-78431344Y-8861161D01*
X-78431347Y-8861160D01*
X-78646141Y-8729533D01*
X-78878890Y-8633126D01*
X-79123849Y-8574317D01*
X-79375000Y-8554551D01*
X-79626152Y-8574317D01*
X-79871111Y-8633126D01*
X-80103860Y-8729533D01*
X-80318654Y-8861160D01*
X-80318656Y-8861161D01*
X-80439589Y-8964448D01*
X-80503350Y-8993018D01*
X-80572436Y-8982581D01*
X-80624912Y-8936450D01*
X-80644117Y-8869271D01*
X-80633676Y-8820347D01*
X-80585843Y-8711300D01*
X-80528866Y-8486305D01*
X-80528865Y-8486297D01*
X-80509700Y-8255006D01*
X-80509700Y-8254993D01*
X-80528865Y-8023702D01*
X-80528867Y-8023691D01*
X-80585843Y-7798699D01*
X-80679076Y-7586151D01*
X-80806017Y-7391852D01*
X-80806020Y-7391849D01*
X-80806021Y-7391847D01*
X-80963216Y-7221087D01*
X-80963221Y-7221083D01*
X-80963223Y-7221081D01*
X-81146366Y-7078535D01*
X-81146372Y-7078531D01*
X-81350496Y-6968064D01*
X-81350505Y-6968061D01*
X-81570016Y-6892702D01*
X-81741718Y-6864050D01*
X-81798951Y-6854500D01*
X-82031049Y-6854500D01*
X-82076836Y-6862140D01*
X-82259985Y-6892702D01*
X-82479496Y-6968061D01*
X-82479505Y-6968064D01*
X-82683629Y-7078531D01*
X-82683635Y-7078535D01*
X-82866778Y-7221081D01*
X-82866781Y-7221084D01*
X-83023984Y-7391852D01*
X-83150925Y-7586151D01*
X-83244158Y-7798699D01*
X-83301134Y-8023691D01*
X-83301136Y-8023702D01*
X-83320300Y-8254993D01*
X-83320300Y-8255006D01*
X-83301136Y-8486297D01*
X-83301134Y-8486308D01*
X-83244158Y-8711300D01*
X-83196325Y-8820347D01*
X-83187422Y-8889647D01*
X-83217399Y-8952759D01*
X-83276739Y-8989646D01*
X-83346600Y-8988596D01*
X-83390411Y-8964448D01*
X-83511341Y-8861164D01*
X-83511343Y-8861162D01*
X-83511345Y-8861161D01*
X-83511347Y-8861160D01*
X-83726141Y-8729533D01*
X-83958890Y-8633126D01*
X-84203849Y-8574317D01*
X-84455000Y-8554551D01*
X-84706152Y-8574317D01*
X-84951111Y-8633126D01*
X-85183860Y-8729533D01*
X-85398654Y-8861160D01*
X-85398657Y-8861161D01*
X-85590224Y-9024776D01*
X-85630710Y-9072179D01*
X-85689217Y-9110372D01*
X-85759085Y-9110870D01*
X-85818131Y-9073516D01*
X-85819290Y-9072179D01*
X-85840081Y-9047836D01*
X-85859776Y-9024776D01*
X-86010787Y-8895800D01*
X-86051344Y-8861161D01*
X-86051347Y-8861160D01*
X-86266141Y-8729533D01*
X-86498890Y-8633126D01*
X-86743849Y-8574317D01*
X-86995000Y-8554551D01*
X-87246152Y-8574317D01*
X-87491111Y-8633126D01*
X-87723860Y-8729533D01*
X-87938654Y-8861160D01*
X-87938657Y-8861161D01*
X-88130224Y-9024775D01*
X-88133737Y-9028889D01*
X-88165461Y-9066032D01*
X-88223965Y-9104224D01*
X-88259749Y-9109500D01*
X-91535500Y-9109500D01*
X-91602539Y-9089815D01*
X-91648294Y-9037011D01*
X-91659500Y-8985500D01*
X-91659500Y-5619500D01*
X-91639815Y-5552461D01*
X-91587011Y-5506706D01*
X-91535500Y-5495500D01*
X-72929500Y-5495500D01*
X-72862461Y-5515185D01*
G37*
G04 #@! TD.AperFunction*
G04 #@! TA.AperFunction,NonConductor*
G36*
X-12521369Y-10499666D02*
G01*
X-12491891Y-10563013D01*
X-12490500Y-10581536D01*
X-12490500Y-11008463D01*
X-12510185Y-11075502D01*
X-12562989Y-11121257D01*
X-12632147Y-11131201D01*
X-12695703Y-11102176D01*
X-12708790Y-11088995D01*
X-12844776Y-10929776D01*
X-12892181Y-10889289D01*
X-12930373Y-10830784D01*
X-12930872Y-10760916D01*
X-12893518Y-10701870D01*
X-12892244Y-10700764D01*
X-12844776Y-10660224D01*
X-12708790Y-10501005D01*
X-12650284Y-10462811D01*
X-12580416Y-10462312D01*
X-12521369Y-10499666D01*
G37*
G04 #@! TD.AperFunction*
G04 #@! TA.AperFunction,NonConductor*
G36*
X-85631870Y-11246482D02*
G01*
X-85630765Y-11247756D01*
X-85590224Y-11295224D01*
X-85548968Y-11330460D01*
X-85510776Y-11388965D01*
X-85505500Y-11424749D01*
X-85505500Y-12160500D01*
X-85525185Y-12227539D01*
X-85577989Y-12273294D01*
X-85629500Y-12284500D01*
X-90265500Y-12284500D01*
X-90332539Y-12264815D01*
X-90378294Y-12212011D01*
X-90389500Y-12160500D01*
X-90389500Y-11334500D01*
X-90369815Y-11267461D01*
X-90317011Y-11221706D01*
X-90265500Y-11210500D01*
X-88259749Y-11210500D01*
X-88192710Y-11230185D01*
X-88165463Y-11253965D01*
X-88130225Y-11295223D01*
X-88130224Y-11295224D01*
X-87938657Y-11458838D01*
X-87938654Y-11458839D01*
X-87723860Y-11590466D01*
X-87491111Y-11686873D01*
X-87246148Y-11745683D01*
X-86995000Y-11765449D01*
X-86743852Y-11745683D01*
X-86498889Y-11686873D01*
X-86266141Y-11590466D01*
X-86051341Y-11458836D01*
X-85859776Y-11295224D01*
X-85819290Y-11247819D01*
X-85760784Y-11209627D01*
X-85690916Y-11209128D01*
X-85631870Y-11246482D01*
G37*
G04 #@! TD.AperFunction*
G04 #@! TA.AperFunction,NonConductor*
G36*
X-19522461Y-9325185D02*
G01*
X-19476706Y-9377989D01*
X-19465500Y-9429500D01*
X-19465500Y-12525544D01*
X-19485185Y-12592583D01*
X-19537989Y-12638338D01*
X-19607147Y-12648282D01*
X-19658390Y-12628647D01*
X-19759514Y-12561079D01*
X-19822402Y-12519059D01*
X-20013580Y-12439870D01*
X-20013588Y-12439868D01*
X-20216531Y-12399500D01*
X-20216535Y-12399500D01*
X-73120500Y-12399500D01*
X-73187539Y-12379815D01*
X-73233294Y-12327011D01*
X-73244500Y-12275500D01*
X-73244500Y-11424749D01*
X-73224815Y-11357710D01*
X-73201035Y-11330462D01*
X-73159776Y-11295224D01*
X-73119290Y-11247819D01*
X-73060784Y-11209627D01*
X-72990916Y-11209128D01*
X-72931870Y-11246482D01*
X-72930765Y-11247756D01*
X-72890225Y-11295223D01*
X-72890224Y-11295224D01*
X-72698657Y-11458838D01*
X-72698654Y-11458839D01*
X-72483860Y-11590466D01*
X-72251111Y-11686873D01*
X-72006148Y-11745683D01*
X-71755000Y-11765449D01*
X-71503852Y-11745683D01*
X-71258889Y-11686873D01*
X-71026141Y-11590466D01*
X-70811341Y-11458836D01*
X-70619776Y-11295224D01*
X-70579290Y-11247819D01*
X-70520784Y-11209627D01*
X-70450916Y-11209128D01*
X-70391870Y-11246482D01*
X-70390765Y-11247756D01*
X-70350225Y-11295223D01*
X-70350224Y-11295224D01*
X-70158657Y-11458838D01*
X-70158654Y-11458839D01*
X-69943860Y-11590466D01*
X-69711111Y-11686873D01*
X-69466148Y-11745683D01*
X-69215000Y-11765449D01*
X-68963852Y-11745683D01*
X-68718889Y-11686873D01*
X-68486141Y-11590466D01*
X-68271341Y-11458836D01*
X-68079776Y-11295224D01*
X-68039290Y-11247819D01*
X-67980784Y-11209627D01*
X-67910916Y-11209128D01*
X-67851870Y-11246482D01*
X-67850765Y-11247756D01*
X-67810225Y-11295223D01*
X-67810224Y-11295224D01*
X-67618657Y-11458838D01*
X-67618654Y-11458839D01*
X-67403860Y-11590466D01*
X-67171111Y-11686873D01*
X-66926148Y-11745683D01*
X-66675000Y-11765449D01*
X-66423852Y-11745683D01*
X-66178889Y-11686873D01*
X-65946141Y-11590466D01*
X-65731341Y-11458836D01*
X-65539776Y-11295224D01*
X-65499290Y-11247819D01*
X-65440784Y-11209627D01*
X-65370916Y-11209128D01*
X-65311870Y-11246482D01*
X-65310765Y-11247756D01*
X-65270225Y-11295223D01*
X-65270224Y-11295224D01*
X-65078657Y-11458838D01*
X-65078654Y-11458839D01*
X-64863860Y-11590466D01*
X-64631111Y-11686873D01*
X-64386148Y-11745683D01*
X-64135000Y-11765449D01*
X-63883852Y-11745683D01*
X-63638889Y-11686873D01*
X-63406141Y-11590466D01*
X-63191341Y-11458836D01*
X-62999776Y-11295224D01*
X-62959290Y-11247819D01*
X-62900784Y-11209627D01*
X-62830916Y-11209128D01*
X-62771870Y-11246482D01*
X-62770765Y-11247756D01*
X-62730225Y-11295223D01*
X-62730224Y-11295224D01*
X-62538657Y-11458838D01*
X-62538654Y-11458839D01*
X-62323860Y-11590466D01*
X-62091111Y-11686873D01*
X-61846148Y-11745683D01*
X-61595000Y-11765449D01*
X-61343852Y-11745683D01*
X-61098889Y-11686873D01*
X-60866141Y-11590466D01*
X-60651341Y-11458836D01*
X-60459776Y-11295224D01*
X-60419290Y-11247819D01*
X-60360784Y-11209627D01*
X-60290916Y-11209128D01*
X-60231870Y-11246482D01*
X-60230765Y-11247756D01*
X-60190225Y-11295223D01*
X-60190224Y-11295224D01*
X-59998657Y-11458838D01*
X-59998654Y-11458839D01*
X-59783860Y-11590466D01*
X-59551111Y-11686873D01*
X-59306148Y-11745683D01*
X-59055000Y-11765449D01*
X-58803852Y-11745683D01*
X-58558889Y-11686873D01*
X-58326141Y-11590466D01*
X-58111341Y-11458836D01*
X-57919776Y-11295224D01*
X-57879290Y-11247819D01*
X-57820784Y-11209627D01*
X-57750916Y-11209128D01*
X-57691870Y-11246482D01*
X-57690765Y-11247756D01*
X-57650225Y-11295223D01*
X-57650224Y-11295224D01*
X-57458657Y-11458838D01*
X-57458654Y-11458839D01*
X-57243860Y-11590466D01*
X-57011111Y-11686873D01*
X-56766148Y-11745683D01*
X-56515000Y-11765449D01*
X-56263852Y-11745683D01*
X-56018889Y-11686873D01*
X-55786141Y-11590466D01*
X-55571341Y-11458836D01*
X-55379776Y-11295224D01*
X-55339290Y-11247819D01*
X-55280784Y-11209627D01*
X-55210916Y-11209128D01*
X-55151870Y-11246482D01*
X-55150765Y-11247756D01*
X-55110225Y-11295223D01*
X-55110224Y-11295224D01*
X-54918657Y-11458838D01*
X-54918654Y-11458839D01*
X-54703860Y-11590466D01*
X-54471111Y-11686873D01*
X-54226148Y-11745683D01*
X-53975000Y-11765449D01*
X-53723852Y-11745683D01*
X-53478889Y-11686873D01*
X-53246141Y-11590466D01*
X-53031341Y-11458836D01*
X-52839776Y-11295224D01*
X-52676164Y-11103659D01*
X-52544534Y-10888859D01*
X-52448127Y-10656111D01*
X-52389317Y-10411148D01*
X-52369551Y-10160000D01*
X-52389317Y-9908852D01*
X-52448127Y-9663889D01*
X-52526965Y-9473558D01*
X-52534433Y-9404089D01*
X-52503158Y-9341610D01*
X-52443069Y-9305958D01*
X-52373244Y-9308452D01*
X-52336242Y-9328251D01*
X-52203626Y-9431470D01*
X-51999503Y-9541936D01*
X-51885513Y-9581068D01*
X-51779985Y-9617297D01*
X-51779983Y-9617297D01*
X-51779981Y-9617298D01*
X-51551049Y-9655500D01*
X-51551048Y-9655500D01*
X-51318952Y-9655500D01*
X-51318951Y-9655500D01*
X-51090019Y-9617298D01*
X-50870497Y-9541936D01*
X-50666374Y-9431470D01*
X-50663843Y-9429500D01*
X-50538120Y-9331647D01*
X-50473126Y-9306004D01*
X-50461958Y-9305500D01*
X-19589500Y-9305500D01*
X-19522461Y-9325185D01*
G37*
G04 #@! TD.AperFunction*
G04 #@! TA.AperFunction,NonConductor*
G36*
X-75471870Y-11246482D02*
G01*
X-75470765Y-11247756D01*
X-75430224Y-11295224D01*
X-75388968Y-11330460D01*
X-75350776Y-11388965D01*
X-75345500Y-11424749D01*
X-75345500Y-13075500D01*
X-75365185Y-13142539D01*
X-75417989Y-13188294D01*
X-75469500Y-13199500D01*
X-75660500Y-13199500D01*
X-75727539Y-13179815D01*
X-75773294Y-13127011D01*
X-75784500Y-13075500D01*
X-75784500Y-11424749D01*
X-75764815Y-11357710D01*
X-75741035Y-11330462D01*
X-75699776Y-11295224D01*
X-75659290Y-11247819D01*
X-75600784Y-11209627D01*
X-75530916Y-11209128D01*
X-75471870Y-11246482D01*
G37*
G04 #@! TD.AperFunction*
G04 #@! TA.AperFunction,NonConductor*
G36*
X-7617461Y-4395185D02*
G01*
X-7571706Y-4447989D01*
X-7560500Y-4499500D01*
X-7560500Y-8420458D01*
X-7580185Y-8487497D01*
X-7590209Y-8500989D01*
X-7658839Y-8581344D01*
X-7658840Y-8581346D01*
X-7790467Y-8796140D01*
X-7886874Y-9028889D01*
X-7945683Y-9273848D01*
X-7965449Y-9525000D01*
X-7945683Y-9776151D01*
X-7886874Y-10021110D01*
X-7790467Y-10253859D01*
X-7658840Y-10468653D01*
X-7658839Y-10468656D01*
X-7658836Y-10468659D01*
X-7495224Y-10660224D01*
X-7447822Y-10700709D01*
X-7447821Y-10700710D01*
X-7409628Y-10759217D01*
X-7409130Y-10829085D01*
X-7446484Y-10888131D01*
X-7447821Y-10889290D01*
X-7495224Y-10929776D01*
X-7658839Y-11121343D01*
X-7658840Y-11121346D01*
X-7790467Y-11336140D01*
X-7886874Y-11568889D01*
X-7945683Y-11813848D01*
X-7965449Y-12065000D01*
X-7945683Y-12316151D01*
X-7886874Y-12561110D01*
X-7790467Y-12793859D01*
X-7658840Y-13008653D01*
X-7658839Y-13008656D01*
X-7658836Y-13008659D01*
X-7495224Y-13200224D01*
X-7447822Y-13240709D01*
X-7447821Y-13240710D01*
X-7409628Y-13299217D01*
X-7409130Y-13369085D01*
X-7446484Y-13428131D01*
X-7447814Y-13429283D01*
X-7495224Y-13469776D01*
X-7530461Y-13511032D01*
X-7588965Y-13549224D01*
X-7624749Y-13554500D01*
X-10265500Y-13554500D01*
X-10332539Y-13534815D01*
X-10378294Y-13482011D01*
X-10389500Y-13430500D01*
X-10389500Y-5611534D01*
X-10389501Y-5611530D01*
X-10398162Y-5567989D01*
X-10429870Y-5408580D01*
X-10509059Y-5217402D01*
X-10624023Y-5045345D01*
X-10624025Y-5045342D01*
X-10770343Y-4899024D01*
X-10856374Y-4841541D01*
X-10942402Y-4784059D01*
X-11133580Y-4704870D01*
X-11133588Y-4704868D01*
X-11336531Y-4664500D01*
X-11336535Y-4664500D01*
X-15830137Y-4664500D01*
X-15897176Y-4644815D01*
X-15942931Y-4592011D01*
X-15952875Y-4522853D01*
X-15923850Y-4459297D01*
X-15889157Y-4431445D01*
X-15813393Y-4390444D01*
X-15754376Y-4375500D01*
X-7684500Y-4375500D01*
X-7617461Y-4395185D01*
G37*
G04 #@! TD.AperFunction*
G04 #@! TA.AperFunction,NonConductor*
G36*
X-12521369Y-13039666D02*
G01*
X-12491891Y-13103013D01*
X-12490500Y-13121536D01*
X-12490500Y-13548463D01*
X-12510185Y-13615502D01*
X-12562989Y-13661257D01*
X-12632147Y-13671201D01*
X-12695703Y-13642176D01*
X-12708790Y-13628995D01*
X-12844776Y-13469776D01*
X-12844777Y-13469775D01*
X-12892181Y-13429289D01*
X-12930373Y-13370784D01*
X-12930872Y-13300916D01*
X-12893518Y-13241870D01*
X-12892244Y-13240764D01*
X-12844776Y-13200224D01*
X-12708790Y-13041005D01*
X-12650284Y-13002811D01*
X-12580416Y-13002312D01*
X-12521369Y-13039666D01*
G37*
G04 #@! TD.AperFunction*
G04 #@! TA.AperFunction,NonConductor*
G36*
X-78011870Y-11246482D02*
G01*
X-78010765Y-11247756D01*
X-77970224Y-11295224D01*
X-77928968Y-11330460D01*
X-77890776Y-11388965D01*
X-77885500Y-11424749D01*
X-77885500Y-13875500D01*
X-77905185Y-13942539D01*
X-77957989Y-13988294D01*
X-78009500Y-13999500D01*
X-78200500Y-13999500D01*
X-78267539Y-13979815D01*
X-78313294Y-13927011D01*
X-78324500Y-13875500D01*
X-78324500Y-11424749D01*
X-78304815Y-11357710D01*
X-78281035Y-11330462D01*
X-78239776Y-11295224D01*
X-78199290Y-11247819D01*
X-78140784Y-11209627D01*
X-78070916Y-11209128D01*
X-78011870Y-11246482D01*
G37*
G04 #@! TD.AperFunction*
G04 #@! TA.AperFunction,NonConductor*
G36*
X-12521369Y-15579666D02*
G01*
X-12491891Y-15643013D01*
X-12490500Y-15661536D01*
X-12490500Y-16088463D01*
X-12510185Y-16155502D01*
X-12562989Y-16201257D01*
X-12632147Y-16211201D01*
X-12695703Y-16182176D01*
X-12708790Y-16168995D01*
X-12844776Y-16009776D01*
X-12892181Y-15969289D01*
X-12930373Y-15910784D01*
X-12930872Y-15840916D01*
X-12893518Y-15781870D01*
X-12892244Y-15780764D01*
X-12844776Y-15740224D01*
X-12708790Y-15581005D01*
X-12650284Y-15542811D01*
X-12580416Y-15542312D01*
X-12521369Y-15579666D01*
G37*
G04 #@! TD.AperFunction*
G04 #@! TA.AperFunction,NonConductor*
G36*
X-12521369Y-18119666D02*
G01*
X-12491891Y-18183013D01*
X-12490500Y-18201536D01*
X-12490500Y-18628463D01*
X-12510185Y-18695502D01*
X-12562989Y-18741257D01*
X-12632147Y-18751201D01*
X-12695703Y-18722176D01*
X-12708790Y-18708995D01*
X-12844776Y-18549776D01*
X-12879423Y-18520185D01*
X-12892181Y-18509289D01*
X-12930373Y-18450784D01*
X-12930872Y-18380916D01*
X-12893518Y-18321870D01*
X-12892244Y-18320764D01*
X-12844776Y-18280224D01*
X-12708790Y-18121005D01*
X-12650284Y-18082811D01*
X-12580416Y-18082312D01*
X-12521369Y-18119666D01*
G37*
G04 #@! TD.AperFunction*
G04 #@! TA.AperFunction,NonConductor*
G36*
X-12521369Y-20659666D02*
G01*
X-12491891Y-20723013D01*
X-12490500Y-20741536D01*
X-12490500Y-21050500D01*
X-12510185Y-21117539D01*
X-12562989Y-21163294D01*
X-12614500Y-21174500D01*
X-12715251Y-21174500D01*
X-12782290Y-21154815D01*
X-12809538Y-21131034D01*
X-12844776Y-21089776D01*
X-12892181Y-21049289D01*
X-12930373Y-20990784D01*
X-12930872Y-20920916D01*
X-12893518Y-20861870D01*
X-12892244Y-20860764D01*
X-12844776Y-20820224D01*
X-12708790Y-20661005D01*
X-12650284Y-20622811D01*
X-12580416Y-20622312D01*
X-12521369Y-20659666D01*
G37*
G04 #@! TD.AperFunction*
G04 #@! TA.AperFunction,NonConductor*
G36*
X-7557710Y-15675185D02*
G01*
X-7530463Y-15698965D01*
X-7495224Y-15740224D01*
X-7449238Y-15779500D01*
X-7447821Y-15780710D01*
X-7409628Y-15839217D01*
X-7409130Y-15909085D01*
X-7446484Y-15968131D01*
X-7447821Y-15969290D01*
X-7495224Y-16009776D01*
X-7658839Y-16201343D01*
X-7658840Y-16201346D01*
X-7790467Y-16416140D01*
X-7886874Y-16648889D01*
X-7945683Y-16893848D01*
X-7965449Y-17145000D01*
X-7945683Y-17396151D01*
X-7886874Y-17641110D01*
X-7790467Y-17873859D01*
X-7658840Y-18088653D01*
X-7658839Y-18088655D01*
X-7658838Y-18088657D01*
X-7658836Y-18088659D01*
X-7590210Y-18169009D01*
X-7561639Y-18232771D01*
X-7560500Y-18249541D01*
X-7560500Y-18580458D01*
X-7580185Y-18647497D01*
X-7590209Y-18660989D01*
X-7658839Y-18741344D01*
X-7658840Y-18741346D01*
X-7790467Y-18956140D01*
X-7886874Y-19188889D01*
X-7945683Y-19433848D01*
X-7965449Y-19685000D01*
X-7945683Y-19936151D01*
X-7886874Y-20181110D01*
X-7790467Y-20413859D01*
X-7658840Y-20628653D01*
X-7658839Y-20628655D01*
X-7658838Y-20628657D01*
X-7658836Y-20628659D01*
X-7590210Y-20709009D01*
X-7561639Y-20772771D01*
X-7560500Y-20789541D01*
X-7560500Y-21120458D01*
X-7580185Y-21187497D01*
X-7590209Y-21200989D01*
X-7658839Y-21281344D01*
X-7658840Y-21281346D01*
X-7790467Y-21496140D01*
X-7886874Y-21728889D01*
X-7945683Y-21973848D01*
X-7965449Y-22225000D01*
X-7945683Y-22476151D01*
X-7886874Y-22721110D01*
X-7790467Y-22953859D01*
X-7658840Y-23168653D01*
X-7658839Y-23168656D01*
X-7658836Y-23168659D01*
X-7495224Y-23360224D01*
X-7449238Y-23399500D01*
X-7447821Y-23400710D01*
X-7409628Y-23459217D01*
X-7409130Y-23529085D01*
X-7446484Y-23588131D01*
X-7447814Y-23589283D01*
X-7495224Y-23629776D01*
X-7530461Y-23671032D01*
X-7588965Y-23709224D01*
X-7624749Y-23714500D01*
X-8995500Y-23714500D01*
X-9062539Y-23694815D01*
X-9108294Y-23642011D01*
X-9119500Y-23590500D01*
X-9119500Y-15779500D01*
X-9099815Y-15712461D01*
X-9047011Y-15666706D01*
X-8995500Y-15655500D01*
X-7624749Y-15655500D01*
X-7557710Y-15675185D01*
G37*
G04 #@! TD.AperFunction*
G04 #@! TA.AperFunction,NonConductor*
G36*
X-42382461Y-22520185D02*
G01*
X-42336706Y-22572989D01*
X-42325500Y-22624500D01*
X-42325500Y-24061903D01*
X-42345185Y-24128942D01*
X-42397989Y-24174697D01*
X-42467147Y-24184641D01*
X-42508517Y-24170958D01*
X-42615491Y-24113067D01*
X-42615494Y-24113066D01*
X-42615497Y-24113064D01*
X-42615503Y-24113062D01*
X-42615505Y-24113061D01*
X-42835016Y-24037702D01*
X-43006718Y-24009050D01*
X-43063951Y-23999500D01*
X-43296049Y-23999500D01*
X-43341836Y-24007140D01*
X-43524985Y-24037702D01*
X-43744496Y-24113061D01*
X-43744505Y-24113064D01*
X-43832175Y-24160509D01*
X-43876608Y-24184555D01*
X-43935624Y-24199500D01*
X-52870459Y-24199500D01*
X-52937498Y-24179815D01*
X-52950984Y-24169795D01*
X-53031341Y-24101164D01*
X-53031343Y-24101162D01*
X-53031345Y-24101161D01*
X-53031347Y-24101160D01*
X-53246141Y-23969533D01*
X-53478890Y-23873126D01*
X-53723849Y-23814317D01*
X-53975000Y-23794551D01*
X-54226152Y-23814317D01*
X-54471111Y-23873126D01*
X-54703860Y-23969533D01*
X-54918654Y-24101160D01*
X-54918657Y-24101161D01*
X-55110224Y-24264776D01*
X-55150710Y-24312179D01*
X-55209217Y-24350372D01*
X-55279085Y-24350870D01*
X-55338131Y-24313516D01*
X-55339290Y-24312179D01*
X-55379776Y-24264776D01*
X-55506429Y-24156604D01*
X-55571344Y-24101161D01*
X-55571347Y-24101160D01*
X-55786141Y-23969533D01*
X-56018890Y-23873126D01*
X-56263849Y-23814317D01*
X-56515000Y-23794551D01*
X-56766152Y-23814317D01*
X-57011111Y-23873126D01*
X-57243860Y-23969533D01*
X-57458654Y-24101160D01*
X-57458657Y-24101161D01*
X-57650224Y-24264776D01*
X-57690710Y-24312179D01*
X-57749217Y-24350372D01*
X-57819085Y-24350870D01*
X-57878131Y-24313516D01*
X-57879290Y-24312179D01*
X-57919776Y-24264776D01*
X-58046429Y-24156604D01*
X-58111344Y-24101161D01*
X-58111347Y-24101160D01*
X-58326141Y-23969533D01*
X-58558890Y-23873126D01*
X-58803849Y-23814317D01*
X-59055000Y-23794551D01*
X-59306152Y-23814317D01*
X-59551111Y-23873126D01*
X-59783860Y-23969533D01*
X-59998654Y-24101160D01*
X-59998657Y-24101161D01*
X-60190224Y-24264776D01*
X-60230710Y-24312179D01*
X-60289217Y-24350372D01*
X-60359085Y-24350870D01*
X-60418131Y-24313516D01*
X-60419290Y-24312179D01*
X-60459776Y-24264776D01*
X-60586429Y-24156604D01*
X-60651344Y-24101161D01*
X-60651347Y-24101160D01*
X-60866141Y-23969533D01*
X-61098890Y-23873126D01*
X-61343849Y-23814317D01*
X-61595000Y-23794551D01*
X-61846152Y-23814317D01*
X-62091111Y-23873126D01*
X-62323860Y-23969533D01*
X-62538654Y-24101160D01*
X-62538657Y-24101161D01*
X-62730224Y-24264776D01*
X-62770710Y-24312179D01*
X-62829217Y-24350372D01*
X-62899085Y-24350870D01*
X-62958131Y-24313516D01*
X-62959290Y-24312179D01*
X-62999776Y-24264776D01*
X-62999783Y-24264770D01*
X-63041032Y-24229539D01*
X-63079225Y-24171031D01*
X-63084500Y-24135249D01*
X-63084500Y-22624500D01*
X-63064815Y-22557461D01*
X-63012011Y-22511706D01*
X-62960500Y-22500500D01*
X-42449500Y-22500500D01*
X-42382461Y-22520185D01*
G37*
G04 #@! TD.AperFunction*
G04 #@! TA.AperFunction,NonConductor*
G36*
X-65242461Y-21720185D02*
G01*
X-65196706Y-21772989D01*
X-65185500Y-21824500D01*
X-65185500Y-24135249D01*
X-65205185Y-24202288D01*
X-65228968Y-24229539D01*
X-65270218Y-24264770D01*
X-65270224Y-24264776D01*
X-65310710Y-24312179D01*
X-65369217Y-24350372D01*
X-65439085Y-24350870D01*
X-65498131Y-24313516D01*
X-65499290Y-24312179D01*
X-65539776Y-24264776D01*
X-65539783Y-24264770D01*
X-65581032Y-24229539D01*
X-65619225Y-24171031D01*
X-65624500Y-24135249D01*
X-65624500Y-21824500D01*
X-65604815Y-21757461D01*
X-65552011Y-21711706D01*
X-65500500Y-21700500D01*
X-65309500Y-21700500D01*
X-65242461Y-21720185D01*
G37*
G04 #@! TD.AperFunction*
G04 #@! TA.AperFunction,NonConductor*
G36*
X-67782461Y-20920185D02*
G01*
X-67736706Y-20972989D01*
X-67725500Y-21024500D01*
X-67725500Y-24135249D01*
X-67745185Y-24202288D01*
X-67768968Y-24229539D01*
X-67810218Y-24264770D01*
X-67810224Y-24264776D01*
X-67850710Y-24312179D01*
X-67909217Y-24350372D01*
X-67979085Y-24350870D01*
X-68038131Y-24313516D01*
X-68039290Y-24312179D01*
X-68079776Y-24264776D01*
X-68079783Y-24264770D01*
X-68121032Y-24229539D01*
X-68159225Y-24171031D01*
X-68164500Y-24135249D01*
X-68164500Y-21024500D01*
X-68144815Y-20957461D01*
X-68092011Y-20911706D01*
X-68040500Y-20900500D01*
X-67849500Y-20900500D01*
X-67782461Y-20920185D01*
G37*
G04 #@! TD.AperFunction*
G04 #@! TA.AperFunction,NonConductor*
G36*
X-70322461Y-20120185D02*
G01*
X-70276706Y-20172989D01*
X-70265500Y-20224500D01*
X-70265500Y-24135249D01*
X-70285185Y-24202288D01*
X-70308968Y-24229539D01*
X-70350218Y-24264770D01*
X-70350224Y-24264776D01*
X-70390710Y-24312179D01*
X-70449217Y-24350372D01*
X-70519085Y-24350870D01*
X-70578131Y-24313516D01*
X-70579290Y-24312179D01*
X-70619776Y-24264776D01*
X-70619783Y-24264770D01*
X-70661032Y-24229539D01*
X-70699225Y-24171031D01*
X-70704500Y-24135249D01*
X-70704500Y-20224500D01*
X-70684815Y-20157461D01*
X-70632011Y-20111706D01*
X-70580500Y-20100500D01*
X-70389500Y-20100500D01*
X-70322461Y-20120185D01*
G37*
G04 #@! TD.AperFunction*
G04 #@! TA.AperFunction,NonConductor*
G36*
X-72862461Y-19320185D02*
G01*
X-72816706Y-19372989D01*
X-72805500Y-19424500D01*
X-72805500Y-24135249D01*
X-72825185Y-24202288D01*
X-72848968Y-24229539D01*
X-72890218Y-24264770D01*
X-72890224Y-24264776D01*
X-72930710Y-24312179D01*
X-72989217Y-24350372D01*
X-73059085Y-24350870D01*
X-73118131Y-24313516D01*
X-73119290Y-24312179D01*
X-73159776Y-24264776D01*
X-73159783Y-24264770D01*
X-73201032Y-24229539D01*
X-73239225Y-24171031D01*
X-73244500Y-24135249D01*
X-73244500Y-19424500D01*
X-73224815Y-19357461D01*
X-73172011Y-19311706D01*
X-73120500Y-19300500D01*
X-72929500Y-19300500D01*
X-72862461Y-19320185D01*
G37*
G04 #@! TD.AperFunction*
G04 #@! TA.AperFunction,NonConductor*
G36*
X-75402461Y-18520185D02*
G01*
X-75356706Y-18572989D01*
X-75345500Y-18624500D01*
X-75345500Y-24135249D01*
X-75365185Y-24202288D01*
X-75388968Y-24229539D01*
X-75430218Y-24264770D01*
X-75430224Y-24264776D01*
X-75470710Y-24312179D01*
X-75529217Y-24350372D01*
X-75599085Y-24350870D01*
X-75658131Y-24313516D01*
X-75659290Y-24312179D01*
X-75699776Y-24264776D01*
X-75699783Y-24264770D01*
X-75741032Y-24229539D01*
X-75779225Y-24171031D01*
X-75784500Y-24135249D01*
X-75784500Y-18624500D01*
X-75764815Y-18557461D01*
X-75712011Y-18511706D01*
X-75660500Y-18500500D01*
X-75469500Y-18500500D01*
X-75402461Y-18520185D01*
G37*
G04 #@! TD.AperFunction*
G04 #@! TA.AperFunction,NonConductor*
G36*
X-77942461Y-17720185D02*
G01*
X-77896706Y-17772989D01*
X-77885500Y-17824500D01*
X-77885500Y-24135249D01*
X-77905185Y-24202288D01*
X-77928968Y-24229539D01*
X-77970218Y-24264770D01*
X-77970224Y-24264776D01*
X-78010710Y-24312179D01*
X-78069217Y-24350372D01*
X-78139085Y-24350870D01*
X-78198131Y-24313516D01*
X-78199290Y-24312179D01*
X-78239776Y-24264776D01*
X-78239783Y-24264770D01*
X-78281032Y-24229539D01*
X-78319225Y-24171031D01*
X-78324500Y-24135249D01*
X-78324500Y-17824500D01*
X-78304815Y-17757461D01*
X-78252011Y-17711706D01*
X-78200500Y-17700500D01*
X-78009500Y-17700500D01*
X-77942461Y-17720185D01*
G37*
G04 #@! TD.AperFunction*
G04 #@! TA.AperFunction,NonConductor*
G36*
X-80482461Y-16920185D02*
G01*
X-80436706Y-16972989D01*
X-80425500Y-17024500D01*
X-80425500Y-24135249D01*
X-80445185Y-24202288D01*
X-80468968Y-24229539D01*
X-80510218Y-24264770D01*
X-80510224Y-24264776D01*
X-80550710Y-24312179D01*
X-80609217Y-24350372D01*
X-80679085Y-24350870D01*
X-80738131Y-24313516D01*
X-80739290Y-24312179D01*
X-80779776Y-24264776D01*
X-80779783Y-24264770D01*
X-80821032Y-24229539D01*
X-80859225Y-24171031D01*
X-80864500Y-24135249D01*
X-80864500Y-17024500D01*
X-80844815Y-16957461D01*
X-80792011Y-16911706D01*
X-80740500Y-16900500D01*
X-80549500Y-16900500D01*
X-80482461Y-16920185D01*
G37*
G04 #@! TD.AperFunction*
G04 #@! TA.AperFunction,NonConductor*
G36*
X-11277461Y-23295185D02*
G01*
X-11231706Y-23347989D01*
X-11220500Y-23399500D01*
X-11220500Y-26130500D01*
X-11240185Y-26197539D01*
X-11292989Y-26243294D01*
X-11344500Y-26254500D01*
X-12715251Y-26254500D01*
X-12782290Y-26234815D01*
X-12809538Y-26211034D01*
X-12844776Y-26169776D01*
X-12892181Y-26129289D01*
X-12930373Y-26070784D01*
X-12930872Y-26000916D01*
X-12893518Y-25941870D01*
X-12892244Y-25940764D01*
X-12844776Y-25900224D01*
X-12681164Y-25708659D01*
X-12549534Y-25493859D01*
X-12453127Y-25261111D01*
X-12394317Y-25016148D01*
X-12374551Y-24765000D01*
X-12394317Y-24513852D01*
X-12453127Y-24268889D01*
X-12484804Y-24192414D01*
X-12549534Y-24036140D01*
X-12681161Y-23821346D01*
X-12681162Y-23821343D01*
X-12844776Y-23629776D01*
X-12844777Y-23629775D01*
X-12892181Y-23589289D01*
X-12930373Y-23530784D01*
X-12930872Y-23460916D01*
X-12893518Y-23401870D01*
X-12892244Y-23400764D01*
X-12844776Y-23360224D01*
X-12809540Y-23318967D01*
X-12751035Y-23280776D01*
X-12715251Y-23275500D01*
X-11344500Y-23275500D01*
X-11277461Y-23295185D01*
G37*
G04 #@! TD.AperFunction*
G04 #@! TA.AperFunction,NonConductor*
G36*
X-80551870Y-11246482D02*
G01*
X-80550765Y-11247756D01*
X-80510224Y-11295224D01*
X-80468968Y-11330460D01*
X-80430776Y-11388965D01*
X-80425500Y-11424749D01*
X-80425500Y-14675500D01*
X-80445185Y-14742539D01*
X-80497989Y-14788294D01*
X-80549500Y-14799500D01*
X-81993471Y-14799500D01*
X-82027138Y-14806195D01*
X-82027137Y-14806196D01*
X-82196415Y-14839868D01*
X-82196421Y-14839870D01*
X-82387597Y-14919058D01*
X-82559655Y-15034022D01*
X-82572154Y-15046522D01*
X-82584655Y-15059023D01*
X-82657816Y-15132184D01*
X-82730977Y-15205344D01*
X-82845942Y-15377403D01*
X-82925130Y-15568579D01*
X-82925132Y-15568587D01*
X-82965500Y-15771530D01*
X-82965500Y-24135249D01*
X-82985185Y-24202288D01*
X-83008968Y-24229539D01*
X-83050218Y-24264770D01*
X-83050224Y-24264776D01*
X-83090710Y-24312179D01*
X-83149217Y-24350372D01*
X-83219085Y-24350870D01*
X-83278131Y-24313516D01*
X-83279290Y-24312179D01*
X-83319776Y-24264776D01*
X-83446429Y-24156604D01*
X-83511344Y-24101161D01*
X-83511347Y-24101160D01*
X-83726141Y-23969533D01*
X-83958890Y-23873126D01*
X-84203849Y-23814317D01*
X-84455000Y-23794551D01*
X-84706152Y-23814317D01*
X-84951111Y-23873126D01*
X-85183860Y-23969533D01*
X-85398651Y-24101158D01*
X-85398673Y-24101174D01*
X-85399484Y-24101867D01*
X-85399855Y-24102032D01*
X-85402596Y-24104025D01*
X-85403015Y-24103448D01*
X-85463251Y-24130426D01*
X-85532335Y-24119976D01*
X-85567679Y-24095243D01*
X-85692738Y-23970184D01*
X-85845477Y-23874211D01*
X-86015746Y-23814631D01*
X-86015751Y-23814630D01*
X-86150040Y-23799500D01*
X-86150046Y-23799500D01*
X-87839954Y-23799500D01*
X-87839961Y-23799500D01*
X-87974250Y-23814630D01*
X-87974255Y-23814631D01*
X-88144524Y-23874211D01*
X-88297263Y-23970184D01*
X-88424816Y-24097737D01*
X-88520789Y-24250476D01*
X-88580369Y-24420745D01*
X-88580370Y-24420750D01*
X-88595500Y-24555039D01*
X-88595500Y-26244960D01*
X-88580370Y-26379249D01*
X-88580368Y-26379257D01*
X-88547327Y-26473683D01*
X-88543766Y-26543462D01*
X-88578495Y-26604089D01*
X-88640488Y-26636316D01*
X-88710064Y-26629910D01*
X-88752050Y-26602318D01*
X-89083181Y-26271187D01*
X-89116666Y-26209864D01*
X-89119500Y-26183506D01*
X-89119500Y-14509500D01*
X-89099815Y-14442461D01*
X-89047011Y-14396706D01*
X-88995500Y-14385500D01*
X-84351534Y-14385500D01*
X-84351533Y-14385499D01*
X-84148580Y-14345130D01*
X-83957402Y-14265941D01*
X-83785345Y-14150977D01*
X-83639023Y-14004655D01*
X-83524059Y-13832598D01*
X-83444870Y-13641420D01*
X-83404500Y-13438465D01*
X-83404500Y-11424749D01*
X-83384815Y-11357710D01*
X-83361035Y-11330462D01*
X-83319776Y-11295224D01*
X-83279290Y-11247819D01*
X-83220784Y-11209627D01*
X-83150916Y-11209128D01*
X-83091870Y-11246482D01*
X-83090765Y-11247756D01*
X-83050225Y-11295223D01*
X-83050224Y-11295224D01*
X-82858657Y-11458838D01*
X-82858654Y-11458839D01*
X-82643860Y-11590466D01*
X-82411111Y-11686873D01*
X-82166148Y-11745683D01*
X-81915000Y-11765449D01*
X-81663852Y-11745683D01*
X-81418889Y-11686873D01*
X-81186141Y-11590466D01*
X-80971341Y-11458836D01*
X-80779776Y-11295224D01*
X-80739290Y-11247819D01*
X-80680784Y-11209627D01*
X-80610916Y-11209128D01*
X-80551870Y-11246482D01*
G37*
G04 #@! TD.AperFunction*
G04 #@! TA.AperFunction,NonConductor*
G36*
X-65311870Y-26486482D02*
G01*
X-65310765Y-26487756D01*
X-65270224Y-26535224D01*
X-65270221Y-26535227D01*
X-65111005Y-26671210D01*
X-65072811Y-26729716D01*
X-65072312Y-26799584D01*
X-65109666Y-26858631D01*
X-65173013Y-26888109D01*
X-65191536Y-26889500D01*
X-65618464Y-26889500D01*
X-65685503Y-26869815D01*
X-65731258Y-26817011D01*
X-65741202Y-26747853D01*
X-65712177Y-26684297D01*
X-65698995Y-26671210D01*
X-65624500Y-26607585D01*
X-65539776Y-26535224D01*
X-65499290Y-26487819D01*
X-65440784Y-26449627D01*
X-65370916Y-26449128D01*
X-65311870Y-26486482D01*
G37*
G04 #@! TD.AperFunction*
G04 #@! TA.AperFunction,NonConductor*
G36*
X-67851870Y-26486482D02*
G01*
X-67850765Y-26487756D01*
X-67810224Y-26535224D01*
X-67810221Y-26535227D01*
X-67651005Y-26671210D01*
X-67612811Y-26729716D01*
X-67612312Y-26799584D01*
X-67649666Y-26858631D01*
X-67713013Y-26888109D01*
X-67731536Y-26889500D01*
X-68158464Y-26889500D01*
X-68225503Y-26869815D01*
X-68271258Y-26817011D01*
X-68281202Y-26747853D01*
X-68252177Y-26684297D01*
X-68238995Y-26671210D01*
X-68164500Y-26607585D01*
X-68079776Y-26535224D01*
X-68039290Y-26487819D01*
X-67980784Y-26449627D01*
X-67910916Y-26449128D01*
X-67851870Y-26486482D01*
G37*
G04 #@! TD.AperFunction*
G04 #@! TA.AperFunction,NonConductor*
G36*
X-70391870Y-26486482D02*
G01*
X-70390765Y-26487756D01*
X-70350224Y-26535224D01*
X-70350221Y-26535227D01*
X-70191005Y-26671210D01*
X-70152811Y-26729716D01*
X-70152312Y-26799584D01*
X-70189666Y-26858631D01*
X-70253013Y-26888109D01*
X-70271536Y-26889500D01*
X-70698464Y-26889500D01*
X-70765503Y-26869815D01*
X-70811258Y-26817011D01*
X-70821202Y-26747853D01*
X-70792177Y-26684297D01*
X-70778995Y-26671210D01*
X-70704500Y-26607585D01*
X-70619776Y-26535224D01*
X-70579290Y-26487819D01*
X-70520784Y-26449627D01*
X-70450916Y-26449128D01*
X-70391870Y-26486482D01*
G37*
G04 #@! TD.AperFunction*
G04 #@! TA.AperFunction,NonConductor*
G36*
X-72931870Y-26486482D02*
G01*
X-72930765Y-26487756D01*
X-72890224Y-26535224D01*
X-72890221Y-26535227D01*
X-72731005Y-26671210D01*
X-72692811Y-26729716D01*
X-72692312Y-26799584D01*
X-72729666Y-26858631D01*
X-72793013Y-26888109D01*
X-72811536Y-26889500D01*
X-73238464Y-26889500D01*
X-73305503Y-26869815D01*
X-73351258Y-26817011D01*
X-73361202Y-26747853D01*
X-73332177Y-26684297D01*
X-73318995Y-26671210D01*
X-73244500Y-26607585D01*
X-73159776Y-26535224D01*
X-73119290Y-26487819D01*
X-73060784Y-26449627D01*
X-72990916Y-26449128D01*
X-72931870Y-26486482D01*
G37*
G04 #@! TD.AperFunction*
G04 #@! TA.AperFunction,NonConductor*
G36*
X-75471870Y-26486482D02*
G01*
X-75470765Y-26487756D01*
X-75430224Y-26535224D01*
X-75430221Y-26535227D01*
X-75271005Y-26671210D01*
X-75232811Y-26729716D01*
X-75232312Y-26799584D01*
X-75269666Y-26858631D01*
X-75333013Y-26888109D01*
X-75351536Y-26889500D01*
X-75778464Y-26889500D01*
X-75845503Y-26869815D01*
X-75891258Y-26817011D01*
X-75901202Y-26747853D01*
X-75872177Y-26684297D01*
X-75858995Y-26671210D01*
X-75784500Y-26607585D01*
X-75699776Y-26535224D01*
X-75659290Y-26487819D01*
X-75600784Y-26449627D01*
X-75530916Y-26449128D01*
X-75471870Y-26486482D01*
G37*
G04 #@! TD.AperFunction*
G04 #@! TA.AperFunction,NonConductor*
G36*
X-78011870Y-26486482D02*
G01*
X-78010765Y-26487756D01*
X-77970224Y-26535224D01*
X-77970221Y-26535227D01*
X-77811005Y-26671210D01*
X-77772811Y-26729716D01*
X-77772312Y-26799584D01*
X-77809666Y-26858631D01*
X-77873013Y-26888109D01*
X-77891536Y-26889500D01*
X-78318464Y-26889500D01*
X-78385503Y-26869815D01*
X-78431258Y-26817011D01*
X-78441202Y-26747853D01*
X-78412177Y-26684297D01*
X-78398995Y-26671210D01*
X-78324500Y-26607585D01*
X-78239776Y-26535224D01*
X-78199290Y-26487819D01*
X-78140784Y-26449627D01*
X-78070916Y-26449128D01*
X-78011870Y-26486482D01*
G37*
G04 #@! TD.AperFunction*
G04 #@! TA.AperFunction,NonConductor*
G36*
X-80551870Y-26486482D02*
G01*
X-80550765Y-26487756D01*
X-80510224Y-26535224D01*
X-80510221Y-26535227D01*
X-80351005Y-26671210D01*
X-80312811Y-26729716D01*
X-80312312Y-26799584D01*
X-80349666Y-26858631D01*
X-80413013Y-26888109D01*
X-80431536Y-26889500D01*
X-80858464Y-26889500D01*
X-80925503Y-26869815D01*
X-80971258Y-26817011D01*
X-80981202Y-26747853D01*
X-80952177Y-26684297D01*
X-80938995Y-26671210D01*
X-80864500Y-26607585D01*
X-80779776Y-26535224D01*
X-80739290Y-26487819D01*
X-80680784Y-26449627D01*
X-80610916Y-26449128D01*
X-80551870Y-26486482D01*
G37*
G04 #@! TD.AperFunction*
G04 #@! TA.AperFunction,NonConductor*
G36*
X-83091870Y-26486482D02*
G01*
X-83090765Y-26487756D01*
X-83050224Y-26535224D01*
X-83050221Y-26535227D01*
X-82891005Y-26671210D01*
X-82852811Y-26729716D01*
X-82852312Y-26799584D01*
X-82889666Y-26858631D01*
X-82953013Y-26888109D01*
X-82971536Y-26889500D01*
X-83280500Y-26889500D01*
X-83347539Y-26869815D01*
X-83393294Y-26817011D01*
X-83404500Y-26765500D01*
X-83404500Y-26664749D01*
X-83384815Y-26597710D01*
X-83361035Y-26570462D01*
X-83319776Y-26535224D01*
X-83279290Y-26487819D01*
X-83220784Y-26449627D01*
X-83150916Y-26449128D01*
X-83091870Y-26486482D01*
G37*
G04 #@! TD.AperFunction*
G04 #@! TA.AperFunction,NonConductor*
G36*
X-52288326Y-26620185D02*
G01*
X-52242571Y-26672989D01*
X-52232627Y-26742147D01*
X-52261652Y-26805703D01*
X-52279202Y-26822352D01*
X-52386784Y-26906087D01*
X-52543979Y-27076847D01*
X-52543981Y-27076848D01*
X-52543984Y-27076853D01*
X-52546693Y-27081000D01*
X-52599840Y-27126355D01*
X-52669072Y-27135777D01*
X-52732407Y-27106274D01*
X-52769737Y-27047213D01*
X-52774500Y-27013176D01*
X-52774500Y-26724500D01*
X-52754815Y-26657461D01*
X-52702011Y-26611706D01*
X-52650500Y-26600500D01*
X-52355365Y-26600500D01*
X-52288326Y-26620185D01*
G37*
G04 #@! TD.AperFunction*
G04 #@! TA.AperFunction,NonConductor*
G36*
X-65242461Y-29010185D02*
G01*
X-65196706Y-29062989D01*
X-65185500Y-29114500D01*
X-65185500Y-31046903D01*
X-65205185Y-31113942D01*
X-65257989Y-31159697D01*
X-65327147Y-31169641D01*
X-65368517Y-31155958D01*
X-65475491Y-31098067D01*
X-65475494Y-31098066D01*
X-65475497Y-31098064D01*
X-65475503Y-31098062D01*
X-65475505Y-31098061D01*
X-65695016Y-31022702D01*
X-65866718Y-30994050D01*
X-65923951Y-30984500D01*
X-66156049Y-30984500D01*
X-66201836Y-30992140D01*
X-66384985Y-31022702D01*
X-66604496Y-31098061D01*
X-66604504Y-31098064D01*
X-66633843Y-31113942D01*
X-66690412Y-31144555D01*
X-66749428Y-31159500D01*
X-73728469Y-31159500D01*
X-73795508Y-31139815D01*
X-73809000Y-31129790D01*
X-73936857Y-31020590D01*
X-73944434Y-31015947D01*
X-74158372Y-30884846D01*
X-74158373Y-30884845D01*
X-74158377Y-30884843D01*
X-74324373Y-30816086D01*
X-74398390Y-30785427D01*
X-74398389Y-30785427D01*
X-74536079Y-30752370D01*
X-74651006Y-30724779D01*
X-74651008Y-30724778D01*
X-74651009Y-30724778D01*
X-74910000Y-30704396D01*
X-75168991Y-30724778D01*
X-75421611Y-30785427D01*
X-75661627Y-30884845D01*
X-75845796Y-30997703D01*
X-75913241Y-31015947D01*
X-75979844Y-30994830D01*
X-75998266Y-30979656D01*
X-76097738Y-30880184D01*
X-76250477Y-30784211D01*
X-76420746Y-30724631D01*
X-76420751Y-30724630D01*
X-76555040Y-30709500D01*
X-76555046Y-30709500D01*
X-78344954Y-30709500D01*
X-78344961Y-30709500D01*
X-78479250Y-30724630D01*
X-78479255Y-30724631D01*
X-78649524Y-30784211D01*
X-78802263Y-30880184D01*
X-78929816Y-31007737D01*
X-79025790Y-31160478D01*
X-79057623Y-31251454D01*
X-79098345Y-31308230D01*
X-79163298Y-31333978D01*
X-79174665Y-31334500D01*
X-80768174Y-31334500D01*
X-80835213Y-31314815D01*
X-80859404Y-31294482D01*
X-80875254Y-31277264D01*
X-80875256Y-31277262D01*
X-80908414Y-31251454D01*
X-81071491Y-31124526D01*
X-81071493Y-31124525D01*
X-81071494Y-31124524D01*
X-81290189Y-31006172D01*
X-81290198Y-31006169D01*
X-81525384Y-30925429D01*
X-81770665Y-30884500D01*
X-81858507Y-30884500D01*
X-81925546Y-30864815D01*
X-81946188Y-30848181D01*
X-83592188Y-29202181D01*
X-83625673Y-29140858D01*
X-83620689Y-29071166D01*
X-83578817Y-29015233D01*
X-83513353Y-28990816D01*
X-83504507Y-28990500D01*
X-65309500Y-28990500D01*
X-65242461Y-29010185D01*
G37*
G04 #@! TD.AperFunction*
G04 #@! TA.AperFunction,NonConductor*
G36*
X-44437461Y-26620185D02*
G01*
X-44391706Y-26672989D01*
X-44380500Y-26724500D01*
X-44380500Y-31458176D01*
X-44400185Y-31525215D01*
X-44452989Y-31570970D01*
X-44522147Y-31580914D01*
X-44585703Y-31551889D01*
X-44608307Y-31526000D01*
X-44611019Y-31521849D01*
X-44636731Y-31493918D01*
X-44667652Y-31431263D01*
X-44669500Y-31409936D01*
X-44669500Y-27836534D01*
X-44669501Y-27836530D01*
X-44709869Y-27633587D01*
X-44709870Y-27633580D01*
X-44789059Y-27442402D01*
X-44904023Y-27270345D01*
X-44904025Y-27270342D01*
X-45050343Y-27124024D01*
X-45165300Y-27047213D01*
X-45222402Y-27009059D01*
X-45413580Y-26929870D01*
X-45413588Y-26929868D01*
X-45616531Y-26889500D01*
X-45616535Y-26889500D01*
X-50461958Y-26889500D01*
X-50528997Y-26869815D01*
X-50538120Y-26863354D01*
X-50580375Y-26830466D01*
X-50590798Y-26822353D01*
X-50631610Y-26765643D01*
X-50635285Y-26695870D01*
X-50600654Y-26635187D01*
X-50538712Y-26602860D01*
X-50514635Y-26600500D01*
X-44504500Y-26600500D01*
X-44437461Y-26620185D01*
G37*
G04 #@! TD.AperFunction*
G04 #@! TA.AperFunction,NonConductor*
G36*
X-55247184Y-26517309D02*
G01*
X-55194708Y-26563440D01*
X-55175500Y-26629732D01*
X-55175500Y-31625013D01*
X-55195185Y-31692052D01*
X-55195690Y-31692833D01*
X-55210925Y-31716152D01*
X-55226944Y-31752672D01*
X-55271900Y-31806158D01*
X-55338636Y-31826848D01*
X-55405964Y-31808173D01*
X-55452507Y-31756063D01*
X-55464500Y-31702862D01*
X-55464500Y-26664749D01*
X-55444815Y-26597710D01*
X-55421035Y-26570462D01*
X-55380030Y-26535440D01*
X-55316270Y-26506871D01*
X-55247184Y-26517309D01*
G37*
G04 #@! TD.AperFunction*
G04 #@! TA.AperFunction,NonConductor*
G36*
X-19064297Y-34491780D02*
G01*
X-19057819Y-34497812D01*
X-18872862Y-34682769D01*
X-18839377Y-34744092D01*
X-18844361Y-34813784D01*
X-18886233Y-34869717D01*
X-18920278Y-34887731D01*
X-18979502Y-34908063D01*
X-18979510Y-34908067D01*
X-19086483Y-34965958D01*
X-19154811Y-34980553D01*
X-19220183Y-34955890D01*
X-19261844Y-34899799D01*
X-19269500Y-34856903D01*
X-19269500Y-34585493D01*
X-19249815Y-34518454D01*
X-19197011Y-34472699D01*
X-19127853Y-34462755D01*
X-19064297Y-34491780D01*
G37*
G04 #@! TD.AperFunction*
G04 #@! TA.AperFunction,NonConductor*
G36*
X-83179297Y-33171351D02*
G01*
X-83156691Y-33197243D01*
X-83083167Y-33309782D01*
X-83081288Y-33311823D01*
X-82914744Y-33492738D01*
X-82718509Y-33645474D01*
X-82499810Y-33763828D01*
X-82264614Y-33844571D01*
X-82019335Y-33885500D01*
X-81770665Y-33885500D01*
X-81525386Y-33844571D01*
X-81290190Y-33763828D01*
X-81071491Y-33645474D01*
X-80875256Y-33492738D01*
X-80859404Y-33475517D01*
X-80799518Y-33439527D01*
X-80768174Y-33435500D01*
X-79157169Y-33435500D01*
X-79090130Y-33455185D01*
X-79044375Y-33507989D01*
X-79040127Y-33518546D01*
X-79025789Y-33559523D01*
X-78971782Y-33645474D01*
X-78929816Y-33712262D01*
X-78802262Y-33839816D01*
X-78649522Y-33935789D01*
X-78535477Y-33975695D01*
X-78479255Y-33995368D01*
X-78479250Y-33995369D01*
X-78388754Y-34005565D01*
X-78344960Y-34010499D01*
X-78344957Y-34010500D01*
X-78344954Y-34010500D01*
X-76555043Y-34010500D01*
X-76555042Y-34010499D01*
X-76487896Y-34002934D01*
X-76420751Y-33995369D01*
X-76420749Y-33995368D01*
X-76420745Y-33995368D01*
X-76420742Y-33995366D01*
X-76420738Y-33995366D01*
X-76275455Y-33944529D01*
X-76205676Y-33940967D01*
X-76145049Y-33975695D01*
X-76112821Y-34037688D01*
X-76110500Y-34061570D01*
X-76110500Y-34468429D01*
X-76130185Y-34535468D01*
X-76182989Y-34581223D01*
X-76252147Y-34591167D01*
X-76275454Y-34585471D01*
X-76420743Y-34534632D01*
X-76420751Y-34534630D01*
X-76555040Y-34519500D01*
X-76555046Y-34519500D01*
X-78344954Y-34519500D01*
X-78344961Y-34519500D01*
X-78479250Y-34534630D01*
X-78479255Y-34534631D01*
X-78649524Y-34594211D01*
X-78802263Y-34690184D01*
X-78929816Y-34817737D01*
X-79025790Y-34970478D01*
X-79057623Y-35061454D01*
X-79098345Y-35118230D01*
X-79163298Y-35143978D01*
X-79174665Y-35144500D01*
X-80768174Y-35144500D01*
X-80835213Y-35124815D01*
X-80859404Y-35104482D01*
X-80875254Y-35087264D01*
X-80875256Y-35087262D01*
X-81025300Y-34970478D01*
X-81071491Y-34934526D01*
X-81071493Y-34934525D01*
X-81071494Y-34934524D01*
X-81290189Y-34816172D01*
X-81290198Y-34816169D01*
X-81525384Y-34735429D01*
X-81770665Y-34694500D01*
X-82019335Y-34694500D01*
X-82264614Y-34735428D01*
X-82369568Y-34771459D01*
X-82439367Y-34774608D01*
X-82497511Y-34741858D01*
X-82914714Y-34324655D01*
X-83348181Y-33891187D01*
X-83381666Y-33829864D01*
X-83384500Y-33803506D01*
X-83384500Y-33265064D01*
X-83364815Y-33198025D01*
X-83312011Y-33152270D01*
X-83242853Y-33142326D01*
X-83179297Y-33171351D01*
G37*
G04 #@! TD.AperFunction*
G04 #@! TA.AperFunction,NonConductor*
G36*
X-62771870Y-26486482D02*
G01*
X-62770765Y-26487756D01*
X-62730224Y-26535224D01*
X-62688968Y-26570460D01*
X-62650776Y-26628965D01*
X-62645500Y-26664749D01*
X-62645500Y-35512862D01*
X-62665185Y-35579901D01*
X-62717989Y-35625656D01*
X-62787147Y-35635600D01*
X-62850703Y-35606575D01*
X-62883056Y-35562672D01*
X-62899076Y-35526151D01*
X-62969489Y-35418376D01*
X-63026021Y-35331847D01*
X-63051731Y-35303918D01*
X-63082652Y-35241263D01*
X-63084500Y-35219936D01*
X-63084500Y-27836534D01*
X-63084501Y-27836530D01*
X-63124869Y-27633587D01*
X-63124870Y-27633580D01*
X-63204059Y-27442402D01*
X-63319023Y-27270345D01*
X-63319025Y-27270342D01*
X-63465343Y-27124024D01*
X-63521009Y-27086830D01*
X-63565815Y-27033218D01*
X-63574522Y-26963893D01*
X-63544368Y-26900865D01*
X-63499571Y-26869166D01*
X-63459948Y-26852753D01*
X-63406141Y-26830466D01*
X-63191341Y-26698836D01*
X-62999776Y-26535224D01*
X-62959290Y-26487819D01*
X-62900784Y-26449627D01*
X-62830916Y-26449128D01*
X-62771870Y-26486482D01*
G37*
G04 #@! TD.AperFunction*
G04 #@! TA.AperFunction,NonConductor*
G36*
X-57691870Y-26486482D02*
G01*
X-57690765Y-26487756D01*
X-57650224Y-26535224D01*
X-57608968Y-26570460D01*
X-57570776Y-26628965D01*
X-57565500Y-26664749D01*
X-57565500Y-39029936D01*
X-57585185Y-39096975D01*
X-57598269Y-39113918D01*
X-57623981Y-39141849D01*
X-57750925Y-39336151D01*
X-57766944Y-39372672D01*
X-57811900Y-39426158D01*
X-57878636Y-39446848D01*
X-57945964Y-39428173D01*
X-57992507Y-39376063D01*
X-58004500Y-39322862D01*
X-58004500Y-26664749D01*
X-57984815Y-26597710D01*
X-57961035Y-26570462D01*
X-57919776Y-26535224D01*
X-57879290Y-26487819D01*
X-57820784Y-26449627D01*
X-57750916Y-26449128D01*
X-57691870Y-26486482D01*
G37*
G04 #@! TD.AperFunction*
G04 #@! TA.AperFunction,NonConductor*
G36*
X-15489985Y-26472662D02*
G01*
X-15439660Y-26521130D01*
X-15423528Y-26589112D01*
X-15432795Y-26630044D01*
X-15506873Y-26808885D01*
X-15506873Y-26808887D01*
X-15565683Y-27053848D01*
X-15585449Y-27305000D01*
X-15565683Y-27556151D01*
X-15506874Y-27801110D01*
X-15410467Y-28033859D01*
X-15278840Y-28248653D01*
X-15278839Y-28248656D01*
X-15207298Y-28332419D01*
X-15115224Y-28440224D01*
X-15073968Y-28475460D01*
X-15035776Y-28533965D01*
X-15030500Y-28569749D01*
X-15030500Y-31420799D01*
X-15050185Y-31487838D01*
X-15063269Y-31504780D01*
X-15078978Y-31521844D01*
X-15078980Y-31521846D01*
X-15205925Y-31716151D01*
X-15299158Y-31928699D01*
X-15356134Y-32153691D01*
X-15356136Y-32153702D01*
X-15375300Y-32384993D01*
X-15375300Y-32385006D01*
X-15356136Y-32616297D01*
X-15356134Y-32616308D01*
X-15299158Y-32841300D01*
X-15205925Y-33053848D01*
X-15078984Y-33248147D01*
X-15078981Y-33248150D01*
X-15078979Y-33248153D01*
X-14921784Y-33418913D01*
X-14921781Y-33418915D01*
X-14921778Y-33418918D01*
X-14738635Y-33561464D01*
X-14738629Y-33561468D01*
X-14738626Y-33561470D01*
X-14534503Y-33671936D01*
X-14497905Y-33684500D01*
X-14314985Y-33747297D01*
X-14314983Y-33747297D01*
X-14314981Y-33747298D01*
X-14086049Y-33785500D01*
X-14086048Y-33785500D01*
X-13853952Y-33785500D01*
X-13853951Y-33785500D01*
X-13625019Y-33747298D01*
X-13405497Y-33671936D01*
X-13201374Y-33561470D01*
X-13200127Y-33560500D01*
X-13113067Y-33492738D01*
X-13018216Y-33418913D01*
X-12861021Y-33248153D01*
X-12734076Y-33053849D01*
X-12640843Y-32841300D01*
X-12583866Y-32616305D01*
X-12583865Y-32616297D01*
X-12564700Y-32385006D01*
X-12564700Y-32384993D01*
X-12583865Y-32153702D01*
X-12583867Y-32153691D01*
X-12640843Y-31928699D01*
X-12734076Y-31716151D01*
X-12793012Y-31625943D01*
X-12861021Y-31521847D01*
X-12896731Y-31483055D01*
X-12927652Y-31420400D01*
X-12929500Y-31399073D01*
X-12929500Y-28569749D01*
X-12909815Y-28502710D01*
X-12886035Y-28475462D01*
X-12844776Y-28440224D01*
X-12809540Y-28398967D01*
X-12751035Y-28360776D01*
X-12715251Y-28355500D01*
X-10074500Y-28355500D01*
X-10007461Y-28375185D01*
X-9961706Y-28427989D01*
X-9950500Y-28479500D01*
X-9950500Y-40334507D01*
X-9970185Y-40401546D01*
X-10022989Y-40447301D01*
X-10092147Y-40457245D01*
X-10155703Y-40428220D01*
X-10162181Y-40422188D01*
X-17328181Y-33256188D01*
X-17361666Y-33194865D01*
X-17364500Y-33168507D01*
X-17364500Y-26738096D01*
X-17344815Y-26671057D01*
X-17292011Y-26625302D01*
X-17222853Y-26615358D01*
X-17181482Y-26629042D01*
X-17074514Y-26686931D01*
X-17074508Y-26686933D01*
X-17074503Y-26686936D01*
X-16965083Y-26724500D01*
X-16854985Y-26762297D01*
X-16854983Y-26762297D01*
X-16854981Y-26762298D01*
X-16626049Y-26800500D01*
X-16626048Y-26800500D01*
X-16393952Y-26800500D01*
X-16393951Y-26800500D01*
X-16165019Y-26762298D01*
X-15945497Y-26686936D01*
X-15741374Y-26576470D01*
X-15623516Y-26484737D01*
X-15558525Y-26459096D01*
X-15489985Y-26472662D01*
G37*
G04 #@! TD.AperFunction*
G04 #@! TA.AperFunction,NonConductor*
G36*
X-7659529Y-28736533D02*
G01*
X-7558866Y-28799784D01*
X-7509525Y-28830787D01*
X-7509522Y-28830789D01*
X-7483547Y-28839878D01*
X-7426770Y-28880599D01*
X-7401022Y-28945551D01*
X-7400500Y-28956920D01*
X-7400500Y-40344506D01*
X-7420185Y-40411545D01*
X-7472989Y-40457300D01*
X-7542147Y-40467244D01*
X-7605703Y-40438219D01*
X-7612181Y-40432187D01*
X-7813181Y-40231187D01*
X-7846666Y-40169864D01*
X-7849500Y-40143506D01*
X-7849500Y-28841527D01*
X-7829815Y-28774488D01*
X-7777011Y-28728733D01*
X-7707853Y-28718789D01*
X-7659529Y-28736533D01*
G37*
G04 #@! TD.AperFunction*
G04 #@! TA.AperFunction,NonConductor*
G36*
X-93817461Y-33805185D02*
G01*
X-93771706Y-33857989D01*
X-93760500Y-33909500D01*
X-93760500Y-41227862D01*
X-93780185Y-41294901D01*
X-93832989Y-41340656D01*
X-93902147Y-41350600D01*
X-93965703Y-41321575D01*
X-93998056Y-41277672D01*
X-94014076Y-41241151D01*
X-94053069Y-41181468D01*
X-94141021Y-41046847D01*
X-94166731Y-41018918D01*
X-94197652Y-40956263D01*
X-94199500Y-40934936D01*
X-94199500Y-33909500D01*
X-94179815Y-33842461D01*
X-94127011Y-33796706D01*
X-94075500Y-33785500D01*
X-93884500Y-33785500D01*
X-93817461Y-33805185D01*
G37*
G04 #@! TD.AperFunction*
G04 #@! TA.AperFunction,NonConductor*
G36*
X-60231870Y-26486482D02*
G01*
X-60230765Y-26487756D01*
X-60190224Y-26535224D01*
X-60148968Y-26570460D01*
X-60110776Y-26628965D01*
X-60105500Y-26664749D01*
X-60105500Y-40934936D01*
X-60125185Y-41001975D01*
X-60138269Y-41018918D01*
X-60163981Y-41046849D01*
X-60290925Y-41241151D01*
X-60306944Y-41277672D01*
X-60351900Y-41331158D01*
X-60418636Y-41351848D01*
X-60485964Y-41333173D01*
X-60532507Y-41281063D01*
X-60544500Y-41227862D01*
X-60544500Y-26664749D01*
X-60524815Y-26597710D01*
X-60501035Y-26570462D01*
X-60459776Y-26535224D01*
X-60419290Y-26487819D01*
X-60360784Y-26449627D01*
X-60290916Y-26449128D01*
X-60231870Y-26486482D01*
G37*
G04 #@! TD.AperFunction*
G04 #@! TA.AperFunction,NonConductor*
G36*
X-82556515Y-41075185D02*
G01*
X-82510760Y-41127989D01*
X-82500816Y-41197147D01*
X-82514498Y-41238516D01*
X-82515926Y-41241154D01*
X-82609159Y-41453702D01*
X-82617119Y-41485137D01*
X-82652659Y-41545292D01*
X-82715080Y-41576683D01*
X-82784563Y-41569344D01*
X-82839048Y-41525605D01*
X-82851885Y-41502148D01*
X-82889060Y-41412399D01*
X-82998647Y-41248390D01*
X-83019525Y-41181713D01*
X-83001040Y-41114333D01*
X-82949061Y-41067643D01*
X-82895545Y-41055500D01*
X-82623554Y-41055500D01*
X-82556515Y-41075185D01*
G37*
G04 #@! TD.AperFunction*
G04 #@! TA.AperFunction,NonConductor*
G36*
X-44422598Y-33218720D02*
G01*
X-44385265Y-33277779D01*
X-44380500Y-33311823D01*
X-44380500Y-44424511D01*
X-44400185Y-44491550D01*
X-44452989Y-44537305D01*
X-44522147Y-44547249D01*
X-44585031Y-44518802D01*
X-44626031Y-44483785D01*
X-44664225Y-44425278D01*
X-44669500Y-44389494D01*
X-44669500Y-33360063D01*
X-44649815Y-33293024D01*
X-44636730Y-33276080D01*
X-44618418Y-33256188D01*
X-44611021Y-33248153D01*
X-44608311Y-33244004D01*
X-44555166Y-33198646D01*
X-44485935Y-33189221D01*
X-44422598Y-33218720D01*
G37*
G04 #@! TD.AperFunction*
G04 #@! TA.AperFunction,NonConductor*
G36*
X-52569297Y-28773110D02*
G01*
X-52546690Y-28799004D01*
X-52543979Y-28803153D01*
X-52386784Y-28973913D01*
X-52386781Y-28973915D01*
X-52386778Y-28973918D01*
X-52203635Y-29116464D01*
X-52203629Y-29116468D01*
X-52203626Y-29116470D01*
X-51999503Y-29226936D01*
X-51885513Y-29266068D01*
X-51779985Y-29302297D01*
X-51779983Y-29302297D01*
X-51779981Y-29302298D01*
X-51551049Y-29340500D01*
X-51551048Y-29340500D01*
X-51318952Y-29340500D01*
X-51318951Y-29340500D01*
X-51090019Y-29302298D01*
X-50870497Y-29226936D01*
X-50666374Y-29116470D01*
X-50597661Y-29062989D01*
X-50538120Y-29016647D01*
X-50473126Y-28991004D01*
X-50461958Y-28990500D01*
X-46894500Y-28990500D01*
X-46827461Y-29010185D01*
X-46781706Y-29062989D01*
X-46770500Y-29114500D01*
X-46770500Y-31409936D01*
X-46790185Y-31476975D01*
X-46803269Y-31493918D01*
X-46828981Y-31521849D01*
X-46955925Y-31716151D01*
X-47049158Y-31928699D01*
X-47106134Y-32153691D01*
X-47106136Y-32153702D01*
X-47125300Y-32384993D01*
X-47125300Y-32385006D01*
X-47106136Y-32616297D01*
X-47106134Y-32616308D01*
X-47049158Y-32841300D01*
X-46955925Y-33053848D01*
X-46828982Y-33248150D01*
X-46803270Y-33276080D01*
X-46772348Y-33338734D01*
X-46770500Y-33360063D01*
X-46770500Y-44389494D01*
X-46790185Y-44456533D01*
X-46813968Y-44483784D01*
X-46890683Y-44549305D01*
X-46890685Y-44549307D01*
X-46890687Y-44549309D01*
X-46890689Y-44549311D01*
X-46895713Y-44555193D01*
X-46954219Y-44593383D01*
X-47024087Y-44593881D01*
X-47083132Y-44556526D01*
X-47084233Y-44555256D01*
X-47089311Y-44549311D01*
X-47286860Y-44380588D01*
X-47508372Y-44244846D01*
X-47508373Y-44244845D01*
X-47508377Y-44244843D01*
X-47674373Y-44176086D01*
X-47748390Y-44145427D01*
X-47748389Y-44145427D01*
X-47951231Y-44096729D01*
X-48001006Y-44084779D01*
X-48001008Y-44084778D01*
X-48001009Y-44084778D01*
X-48260000Y-44064396D01*
X-48518991Y-44084778D01*
X-48771611Y-44145427D01*
X-49011624Y-44244843D01*
X-49233141Y-44380588D01*
X-49430687Y-44549309D01*
X-49430689Y-44549311D01*
X-49435713Y-44555193D01*
X-49494219Y-44593383D01*
X-49564087Y-44593881D01*
X-49623132Y-44556526D01*
X-49624233Y-44555256D01*
X-49629311Y-44549311D01*
X-49826860Y-44380588D01*
X-50048372Y-44244846D01*
X-50048373Y-44244845D01*
X-50048377Y-44244843D01*
X-50214373Y-44176086D01*
X-50288390Y-44145427D01*
X-50288389Y-44145427D01*
X-50491231Y-44096729D01*
X-50541006Y-44084779D01*
X-50541008Y-44084778D01*
X-50541009Y-44084778D01*
X-50800000Y-44064396D01*
X-51058991Y-44084778D01*
X-51311611Y-44145427D01*
X-51551624Y-44244843D01*
X-51773141Y-44380588D01*
X-51970687Y-44549309D01*
X-51970689Y-44549311D01*
X-51975713Y-44555193D01*
X-52034219Y-44593383D01*
X-52104087Y-44593881D01*
X-52163132Y-44556526D01*
X-52164233Y-44555256D01*
X-52169311Y-44549311D01*
X-52366860Y-44380588D01*
X-52588372Y-44244846D01*
X-52588373Y-44244845D01*
X-52588377Y-44244843D01*
X-52754373Y-44176086D01*
X-52828390Y-44145427D01*
X-52828389Y-44145427D01*
X-53031231Y-44096729D01*
X-53081006Y-44084779D01*
X-53081008Y-44084778D01*
X-53081009Y-44084778D01*
X-53340000Y-44064396D01*
X-53598991Y-44084778D01*
X-53851611Y-44145427D01*
X-54091624Y-44244843D01*
X-54313141Y-44380588D01*
X-54510687Y-44549309D01*
X-54510689Y-44549311D01*
X-54515713Y-44555193D01*
X-54574219Y-44593383D01*
X-54644087Y-44593881D01*
X-54703132Y-44556526D01*
X-54704233Y-44555256D01*
X-54709311Y-44549311D01*
X-54906860Y-44380588D01*
X-55128372Y-44244846D01*
X-55128373Y-44244845D01*
X-55128377Y-44244843D01*
X-55294373Y-44176086D01*
X-55368390Y-44145427D01*
X-55368389Y-44145427D01*
X-55571231Y-44096729D01*
X-55621006Y-44084779D01*
X-55621008Y-44084778D01*
X-55621009Y-44084778D01*
X-55880000Y-44064396D01*
X-56138991Y-44084778D01*
X-56391611Y-44145427D01*
X-56631624Y-44244843D01*
X-56853141Y-44380588D01*
X-57050687Y-44549309D01*
X-57050689Y-44549311D01*
X-57055713Y-44555193D01*
X-57114219Y-44593383D01*
X-57184087Y-44593881D01*
X-57243132Y-44556526D01*
X-57244233Y-44555256D01*
X-57249311Y-44549311D01*
X-57446860Y-44380588D01*
X-57668372Y-44244846D01*
X-57668373Y-44244845D01*
X-57668377Y-44244843D01*
X-57834373Y-44176086D01*
X-57908390Y-44145427D01*
X-57908389Y-44145427D01*
X-58111231Y-44096729D01*
X-58161006Y-44084779D01*
X-58161008Y-44084778D01*
X-58161009Y-44084778D01*
X-58420000Y-44064396D01*
X-58678991Y-44084778D01*
X-58931611Y-44145427D01*
X-59171624Y-44244843D01*
X-59393141Y-44380588D01*
X-59590687Y-44549309D01*
X-59590689Y-44549311D01*
X-59595713Y-44555193D01*
X-59654219Y-44593383D01*
X-59724087Y-44593881D01*
X-59783132Y-44556526D01*
X-59784233Y-44555256D01*
X-59789311Y-44549311D01*
X-59986860Y-44380588D01*
X-60208372Y-44244846D01*
X-60208373Y-44244845D01*
X-60208377Y-44244843D01*
X-60374373Y-44176086D01*
X-60448390Y-44145427D01*
X-60448389Y-44145427D01*
X-60651231Y-44096729D01*
X-60701006Y-44084779D01*
X-60701008Y-44084778D01*
X-60701011Y-44084778D01*
X-60701019Y-44084776D01*
X-60723156Y-44083034D01*
X-60788443Y-44058149D01*
X-60829912Y-44001916D01*
X-60834397Y-43932191D01*
X-60801105Y-43871736D01*
X-60779023Y-43849655D01*
X-60664059Y-43677598D01*
X-60584870Y-43486420D01*
X-60544500Y-43283465D01*
X-60544500Y-42592137D01*
X-60524815Y-42525098D01*
X-60472011Y-42479343D01*
X-60402853Y-42469399D01*
X-60339297Y-42498424D01*
X-60306944Y-42542328D01*
X-60290926Y-42578846D01*
X-60163984Y-42773147D01*
X-60163981Y-42773150D01*
X-60163979Y-42773153D01*
X-60006784Y-42943913D01*
X-60006781Y-42943915D01*
X-60006778Y-42943918D01*
X-59823635Y-43086464D01*
X-59823629Y-43086468D01*
X-59823626Y-43086470D01*
X-59619503Y-43196936D01*
X-59505513Y-43236068D01*
X-59399985Y-43272297D01*
X-59399983Y-43272297D01*
X-59399981Y-43272298D01*
X-59171049Y-43310500D01*
X-59171048Y-43310500D01*
X-58938952Y-43310500D01*
X-58938951Y-43310500D01*
X-58710019Y-43272298D01*
X-58490497Y-43196936D01*
X-58286374Y-43086470D01*
X-58103216Y-42943913D01*
X-57946021Y-42773153D01*
X-57819076Y-42578849D01*
X-57725843Y-42366300D01*
X-57668866Y-42141305D01*
X-57668865Y-42141297D01*
X-57649700Y-41910006D01*
X-57649700Y-41909993D01*
X-57668865Y-41678702D01*
X-57668867Y-41678691D01*
X-57725843Y-41453699D01*
X-57819076Y-41241151D01*
X-57858069Y-41181468D01*
X-57946021Y-41046847D01*
X-57971731Y-41018918D01*
X-58002652Y-40956263D01*
X-58004500Y-40934936D01*
X-58004500Y-40687137D01*
X-57984815Y-40620098D01*
X-57932011Y-40574343D01*
X-57862853Y-40564399D01*
X-57799297Y-40593424D01*
X-57766944Y-40637328D01*
X-57750926Y-40673846D01*
X-57623984Y-40868147D01*
X-57623981Y-40868150D01*
X-57623979Y-40868153D01*
X-57466784Y-41038913D01*
X-57466781Y-41038915D01*
X-57466778Y-41038918D01*
X-57283635Y-41181464D01*
X-57283629Y-41181468D01*
X-57283626Y-41181470D01*
X-57079503Y-41291936D01*
X-56965513Y-41331068D01*
X-56859985Y-41367297D01*
X-56859983Y-41367297D01*
X-56859981Y-41367298D01*
X-56631049Y-41405500D01*
X-56631048Y-41405500D01*
X-56398952Y-41405500D01*
X-56398951Y-41405500D01*
X-56170019Y-41367298D01*
X-55950497Y-41291936D01*
X-55746374Y-41181470D01*
X-55731877Y-41170187D01*
X-55634022Y-41094023D01*
X-55563216Y-41038913D01*
X-55406021Y-40868153D01*
X-55279076Y-40673849D01*
X-55185843Y-40461300D01*
X-55128866Y-40236305D01*
X-55126261Y-40204868D01*
X-55109700Y-40005006D01*
X-55109700Y-40004993D01*
X-55128865Y-39773702D01*
X-55128867Y-39773691D01*
X-55185843Y-39548699D01*
X-55279076Y-39336151D01*
X-55375199Y-39189024D01*
X-55406021Y-39141847D01*
X-55431731Y-39113918D01*
X-55462652Y-39051263D01*
X-55464500Y-39029936D01*
X-55464500Y-33067137D01*
X-55444815Y-33000098D01*
X-55392011Y-32954343D01*
X-55322853Y-32944399D01*
X-55259297Y-32973424D01*
X-55226944Y-33017328D01*
X-55210926Y-33053846D01*
X-55083984Y-33248147D01*
X-55083981Y-33248150D01*
X-55083979Y-33248153D01*
X-54926784Y-33418913D01*
X-54926781Y-33418915D01*
X-54926778Y-33418918D01*
X-54743635Y-33561464D01*
X-54743629Y-33561468D01*
X-54743626Y-33561470D01*
X-54539503Y-33671936D01*
X-54502905Y-33684500D01*
X-54319985Y-33747297D01*
X-54319983Y-33747297D01*
X-54319981Y-33747298D01*
X-54091049Y-33785500D01*
X-54091048Y-33785500D01*
X-53858952Y-33785500D01*
X-53858951Y-33785500D01*
X-53630019Y-33747298D01*
X-53410497Y-33671936D01*
X-53206374Y-33561470D01*
X-53205127Y-33560500D01*
X-53118067Y-33492738D01*
X-53023216Y-33418913D01*
X-52866021Y-33248153D01*
X-52739076Y-33053849D01*
X-52645843Y-32841300D01*
X-52588866Y-32616305D01*
X-52588865Y-32616297D01*
X-52569700Y-32385006D01*
X-52569700Y-32384993D01*
X-52588865Y-32153702D01*
X-52588867Y-32153691D01*
X-52645843Y-31928699D01*
X-52721569Y-31756063D01*
X-52739076Y-31716151D01*
X-52754310Y-31692833D01*
X-52774497Y-31625943D01*
X-52774500Y-31625013D01*
X-52774500Y-28866823D01*
X-52754815Y-28799784D01*
X-52702011Y-28754029D01*
X-52632853Y-28744085D01*
X-52569297Y-28773110D01*
G37*
G04 #@! TD.AperFunction*
G04 #@! TA.AperFunction,NonConductor*
G36*
X-62026487Y-44250185D02*
G01*
X-61980732Y-44302989D01*
X-61970788Y-44372147D01*
X-61999813Y-44435703D01*
X-62012994Y-44448790D01*
X-62130684Y-44549307D01*
X-62130689Y-44549311D01*
X-62135713Y-44555193D01*
X-62194219Y-44593383D01*
X-62264087Y-44593881D01*
X-62323132Y-44556526D01*
X-62324233Y-44555256D01*
X-62329311Y-44549311D01*
X-62447007Y-44448789D01*
X-62485199Y-44390283D01*
X-62485697Y-44320415D01*
X-62448344Y-44261369D01*
X-62384997Y-44231891D01*
X-62366474Y-44230500D01*
X-62093526Y-44230500D01*
X-62026487Y-44250185D01*
G37*
G04 #@! TD.AperFunction*
G04 #@! TA.AperFunction,NonConductor*
G36*
X-64566487Y-44250185D02*
G01*
X-64520732Y-44302989D01*
X-64510788Y-44372147D01*
X-64539813Y-44435703D01*
X-64552994Y-44448790D01*
X-64670684Y-44549307D01*
X-64670689Y-44549311D01*
X-64675713Y-44555193D01*
X-64734219Y-44593383D01*
X-64804087Y-44593881D01*
X-64863132Y-44556526D01*
X-64864233Y-44555256D01*
X-64869311Y-44549311D01*
X-64987007Y-44448789D01*
X-65025199Y-44390283D01*
X-65025697Y-44320415D01*
X-64988344Y-44261369D01*
X-64924997Y-44231891D01*
X-64906474Y-44230500D01*
X-64633526Y-44230500D01*
X-64566487Y-44250185D01*
G37*
G04 #@! TD.AperFunction*
G04 #@! TA.AperFunction,NonConductor*
G36*
X-91454297Y-29411780D02*
G01*
X-91447819Y-29417812D01*
X-90989103Y-29876528D01*
X-90989074Y-29876559D01*
X-90839658Y-30025975D01*
X-90789533Y-30059467D01*
X-90770743Y-30074888D01*
X-88514593Y-32331038D01*
X-88481108Y-32392361D01*
X-88478698Y-32408479D01*
X-88460110Y-32632812D01*
X-88460108Y-32632824D01*
X-88399064Y-32873881D01*
X-88299174Y-33101606D01*
X-88163167Y-33309782D01*
X-88161288Y-33311823D01*
X-88062705Y-33418913D01*
X-88058270Y-33423730D01*
X-88027348Y-33486385D01*
X-88025500Y-33507713D01*
X-88025500Y-35072286D01*
X-88045185Y-35139325D01*
X-88058270Y-35156269D01*
X-88163166Y-35270217D01*
X-88299174Y-35478393D01*
X-88399064Y-35706118D01*
X-88460108Y-35947175D01*
X-88460110Y-35947187D01*
X-88480643Y-36194994D01*
X-88480643Y-36195005D01*
X-88460110Y-36442812D01*
X-88460108Y-36442824D01*
X-88399064Y-36683881D01*
X-88299174Y-36911606D01*
X-88163167Y-37119782D01*
X-88163164Y-37119785D01*
X-87994744Y-37302738D01*
X-87860130Y-37407512D01*
X-87833198Y-37436466D01*
X-87820497Y-37455475D01*
X-87790976Y-37499657D01*
X-87644658Y-37645975D01*
X-87644655Y-37645977D01*
X-87472598Y-37760941D01*
X-87281420Y-37840130D01*
X-87078470Y-37880499D01*
X-87078466Y-37880500D01*
X-87078465Y-37880500D01*
X-86871534Y-37880500D01*
X-86871533Y-37880499D01*
X-86668580Y-37840130D01*
X-86477402Y-37760941D01*
X-86305345Y-37645977D01*
X-86159023Y-37499655D01*
X-86116805Y-37436469D01*
X-86089866Y-37407509D01*
X-86059628Y-37383973D01*
X-85955256Y-37302738D01*
X-85786836Y-37119785D01*
X-85650827Y-36911607D01*
X-85550937Y-36683881D01*
X-85489892Y-36442821D01*
X-85488746Y-36428990D01*
X-85469357Y-36195005D01*
X-85469357Y-36194994D01*
X-85489891Y-35947187D01*
X-85489893Y-35947175D01*
X-85550937Y-35706118D01*
X-85650827Y-35478393D01*
X-85786835Y-35270217D01*
X-85786836Y-35270215D01*
X-85891731Y-35156268D01*
X-85922652Y-35093614D01*
X-85924500Y-35072286D01*
X-85924500Y-33507713D01*
X-85904815Y-33440674D01*
X-85891730Y-33423730D01*
X-85887300Y-33418918D01*
X-85786836Y-33309785D01*
X-85713309Y-33197242D01*
X-85660163Y-33151886D01*
X-85590932Y-33142462D01*
X-85527596Y-33171964D01*
X-85490264Y-33231024D01*
X-85485500Y-33265064D01*
X-85485500Y-34393469D01*
X-85445132Y-34596412D01*
X-85445130Y-34596420D01*
X-85406292Y-34690184D01*
X-85365941Y-34787598D01*
X-85250977Y-34959655D01*
X-85104655Y-35105977D01*
X-85104654Y-35105977D01*
X-85097587Y-35113044D01*
X-85097588Y-35113044D01*
X-85097584Y-35113047D01*
X-83199659Y-37010974D01*
X-83199651Y-37010980D01*
X-83140139Y-37050745D01*
X-83105222Y-37086023D01*
X-83083164Y-37119785D01*
X-82914744Y-37302738D01*
X-82718509Y-37455474D01*
X-82669608Y-37481938D01*
X-82543207Y-37550343D01*
X-82499810Y-37573828D01*
X-82264614Y-37654571D01*
X-82019335Y-37695500D01*
X-81770665Y-37695500D01*
X-81525386Y-37654571D01*
X-81290190Y-37573828D01*
X-81071491Y-37455474D01*
X-80875256Y-37302738D01*
X-80859404Y-37285517D01*
X-80799518Y-37249527D01*
X-80768174Y-37245500D01*
X-79157169Y-37245500D01*
X-79090130Y-37265185D01*
X-79044375Y-37317989D01*
X-79040127Y-37328546D01*
X-79025789Y-37369523D01*
X-78944018Y-37499660D01*
X-78929816Y-37522262D01*
X-78802262Y-37649816D01*
X-78802260Y-37649817D01*
X-78651458Y-37744573D01*
X-78649522Y-37745789D01*
X-78479675Y-37805221D01*
X-78479255Y-37805368D01*
X-78479250Y-37805369D01*
X-78388754Y-37815565D01*
X-78344960Y-37820499D01*
X-78344957Y-37820500D01*
X-78344954Y-37820500D01*
X-76555043Y-37820500D01*
X-76555042Y-37820499D01*
X-76487896Y-37812934D01*
X-76420751Y-37805369D01*
X-76420748Y-37805368D01*
X-76420745Y-37805368D01*
X-76250478Y-37745789D01*
X-76097738Y-37649816D01*
X-75998263Y-37550340D01*
X-75936944Y-37516858D01*
X-75867252Y-37521842D01*
X-75845795Y-37532297D01*
X-75661629Y-37645154D01*
X-75591329Y-37674272D01*
X-75421610Y-37744573D01*
X-75168994Y-37805221D01*
X-74910000Y-37825604D01*
X-74651006Y-37805221D01*
X-74398390Y-37744573D01*
X-74158372Y-37645154D01*
X-73936860Y-37509412D01*
X-73739311Y-37340689D01*
X-73570588Y-37143140D01*
X-73434846Y-36921628D01*
X-73335427Y-36681610D01*
X-73274779Y-36428994D01*
X-73254396Y-36170000D01*
X-73274779Y-35911006D01*
X-73335427Y-35658390D01*
X-73434846Y-35418372D01*
X-73570588Y-35196860D01*
X-73570591Y-35196856D01*
X-73679790Y-35069000D01*
X-73708361Y-35005239D01*
X-73709500Y-34988469D01*
X-73709500Y-33684500D01*
X-73689815Y-33617461D01*
X-73637011Y-33571706D01*
X-73585500Y-33560500D01*
X-66841819Y-33560500D01*
X-66782804Y-33575444D01*
X-66604503Y-33671936D01*
X-66567905Y-33684500D01*
X-66384985Y-33747297D01*
X-66384983Y-33747297D01*
X-66384981Y-33747298D01*
X-66156049Y-33785500D01*
X-66156048Y-33785500D01*
X-65923952Y-33785500D01*
X-65923951Y-33785500D01*
X-65695019Y-33747298D01*
X-65475497Y-33671936D01*
X-65475490Y-33671932D01*
X-65475487Y-33671931D01*
X-65368518Y-33614042D01*
X-65300190Y-33599446D01*
X-65234817Y-33624109D01*
X-65193156Y-33680199D01*
X-65185500Y-33723096D01*
X-65185500Y-35219936D01*
X-65205185Y-35286975D01*
X-65218269Y-35303918D01*
X-65243981Y-35331849D01*
X-65370925Y-35526151D01*
X-65464158Y-35738699D01*
X-65521134Y-35963691D01*
X-65521136Y-35963702D01*
X-65540300Y-36194993D01*
X-65540300Y-36195006D01*
X-65521136Y-36426297D01*
X-65521134Y-36426308D01*
X-65464158Y-36651300D01*
X-65370925Y-36863848D01*
X-65243984Y-37058147D01*
X-65243981Y-37058151D01*
X-65243979Y-37058153D01*
X-65086784Y-37228913D01*
X-65086781Y-37228915D01*
X-65086778Y-37228918D01*
X-64903635Y-37371464D01*
X-64903629Y-37371468D01*
X-64903626Y-37371470D01*
X-64699503Y-37481936D01*
X-64619471Y-37509411D01*
X-64479985Y-37557297D01*
X-64479983Y-37557297D01*
X-64479981Y-37557298D01*
X-64251049Y-37595500D01*
X-64251048Y-37595500D01*
X-64018952Y-37595500D01*
X-64018951Y-37595500D01*
X-63790019Y-37557298D01*
X-63570497Y-37481936D01*
X-63366374Y-37371470D01*
X-63183216Y-37228913D01*
X-63026021Y-37058153D01*
X-62899076Y-36863849D01*
X-62883056Y-36827328D01*
X-62838101Y-36773841D01*
X-62771365Y-36753151D01*
X-62704037Y-36771825D01*
X-62657493Y-36823935D01*
X-62645500Y-36877137D01*
X-62645500Y-42005500D01*
X-62665185Y-42072539D01*
X-62717989Y-42118294D01*
X-62769500Y-42129500D01*
X-68683470Y-42129500D01*
X-68886413Y-42169868D01*
X-68886421Y-42169870D01*
X-69077597Y-42249058D01*
X-69249658Y-42364024D01*
X-69395976Y-42510342D01*
X-69510942Y-42682403D01*
X-69590130Y-42873579D01*
X-69590132Y-42873587D01*
X-69630500Y-43076530D01*
X-69630500Y-44389494D01*
X-69650185Y-44456533D01*
X-69673968Y-44483784D01*
X-69750683Y-44549305D01*
X-69750685Y-44549307D01*
X-69750687Y-44549309D01*
X-69750689Y-44549311D01*
X-69755713Y-44555193D01*
X-69814219Y-44593383D01*
X-69884087Y-44593881D01*
X-69943132Y-44556526D01*
X-69944233Y-44555256D01*
X-69949311Y-44549311D01*
X-69985032Y-44518802D01*
X-70026032Y-44483784D01*
X-70064225Y-44425277D01*
X-70069500Y-44389494D01*
X-70069500Y-42885063D01*
X-70049815Y-42818024D01*
X-70036730Y-42801080D01*
X-70011021Y-42773153D01*
X-69884076Y-42578849D01*
X-69790843Y-42366300D01*
X-69733866Y-42141305D01*
X-69733865Y-42141297D01*
X-69714700Y-41910006D01*
X-69714700Y-41909993D01*
X-69733865Y-41678702D01*
X-69733867Y-41678691D01*
X-69790843Y-41453699D01*
X-69884076Y-41241151D01*
X-70011017Y-41046852D01*
X-70011020Y-41046849D01*
X-70011021Y-41046847D01*
X-70168216Y-40876087D01*
X-70168221Y-40876083D01*
X-70168223Y-40876081D01*
X-70351366Y-40733535D01*
X-70351372Y-40733531D01*
X-70555496Y-40623064D01*
X-70555505Y-40623061D01*
X-70775016Y-40547702D01*
X-70946718Y-40519050D01*
X-71003951Y-40509500D01*
X-71236049Y-40509500D01*
X-71281836Y-40517140D01*
X-71464985Y-40547702D01*
X-71684496Y-40623061D01*
X-71684505Y-40623064D01*
X-71888629Y-40733531D01*
X-71888635Y-40733535D01*
X-72071778Y-40876081D01*
X-72071781Y-40876084D01*
X-72228984Y-41046852D01*
X-72355925Y-41241151D01*
X-72371944Y-41277672D01*
X-72416900Y-41331158D01*
X-72483636Y-41351848D01*
X-72550964Y-41333173D01*
X-72597507Y-41281063D01*
X-72609500Y-41227862D01*
X-72609500Y-40980063D01*
X-72589815Y-40913024D01*
X-72576730Y-40896080D01*
X-72558325Y-40876087D01*
X-72551021Y-40868153D01*
X-72424076Y-40673849D01*
X-72330843Y-40461300D01*
X-72273866Y-40236305D01*
X-72271261Y-40204868D01*
X-72254700Y-40005006D01*
X-72254700Y-40004993D01*
X-72273865Y-39773702D01*
X-72273867Y-39773691D01*
X-72330843Y-39548699D01*
X-72424076Y-39336151D01*
X-72551017Y-39141852D01*
X-72551020Y-39141849D01*
X-72551021Y-39141847D01*
X-72708216Y-38971087D01*
X-72708221Y-38971083D01*
X-72708223Y-38971081D01*
X-72891366Y-38828535D01*
X-72891372Y-38828531D01*
X-73095496Y-38718064D01*
X-73095505Y-38718061D01*
X-73315016Y-38642702D01*
X-73486718Y-38614050D01*
X-73543951Y-38604500D01*
X-73776049Y-38604500D01*
X-73821836Y-38612140D01*
X-74004985Y-38642702D01*
X-74224496Y-38718061D01*
X-74224505Y-38718064D01*
X-74428629Y-38828531D01*
X-74428635Y-38828535D01*
X-74611778Y-38971081D01*
X-74611781Y-38971084D01*
X-74768984Y-39141852D01*
X-74895925Y-39336151D01*
X-74989159Y-39548702D01*
X-74997119Y-39580137D01*
X-75032659Y-39640292D01*
X-75095080Y-39671683D01*
X-75164563Y-39664344D01*
X-75219048Y-39620605D01*
X-75231885Y-39597148D01*
X-75269059Y-39507403D01*
X-75269059Y-39507402D01*
X-75384023Y-39335345D01*
X-75384025Y-39335342D01*
X-75530343Y-39189024D01*
X-75616374Y-39131541D01*
X-75702402Y-39074059D01*
X-75893580Y-38994870D01*
X-75893588Y-38994868D01*
X-76096531Y-38954500D01*
X-76096535Y-38954500D01*
X-88561958Y-38954500D01*
X-88628997Y-38934815D01*
X-88638120Y-38928353D01*
X-88766366Y-38828535D01*
X-88766372Y-38828531D01*
X-88970496Y-38718064D01*
X-88970505Y-38718061D01*
X-89190016Y-38642702D01*
X-89361718Y-38614050D01*
X-89418951Y-38604500D01*
X-89651049Y-38604500D01*
X-89696836Y-38612140D01*
X-89879985Y-38642702D01*
X-90099496Y-38718061D01*
X-90099510Y-38718067D01*
X-90206483Y-38775958D01*
X-90274811Y-38790553D01*
X-90340183Y-38765890D01*
X-90381844Y-38709799D01*
X-90389500Y-38666903D01*
X-90389500Y-33360063D01*
X-90369815Y-33293024D01*
X-90356730Y-33276080D01*
X-90338418Y-33256188D01*
X-90331021Y-33248153D01*
X-90204076Y-33053849D01*
X-90110843Y-32841300D01*
X-90053866Y-32616305D01*
X-90053865Y-32616297D01*
X-90034700Y-32385006D01*
X-90034700Y-32384993D01*
X-90053865Y-32153702D01*
X-90053867Y-32153691D01*
X-90110843Y-31928699D01*
X-90204076Y-31716151D01*
X-90331017Y-31521852D01*
X-90331020Y-31521849D01*
X-90331021Y-31521847D01*
X-90488216Y-31351087D01*
X-90488221Y-31351083D01*
X-90488223Y-31351081D01*
X-90671366Y-31208535D01*
X-90671372Y-31208531D01*
X-90875496Y-31098064D01*
X-90875505Y-31098061D01*
X-91095016Y-31022702D01*
X-91266718Y-30994050D01*
X-91323951Y-30984500D01*
X-91535500Y-30984500D01*
X-91602539Y-30964815D01*
X-91648294Y-30912011D01*
X-91659500Y-30860500D01*
X-91659500Y-29505493D01*
X-91639815Y-29438454D01*
X-91587011Y-29392699D01*
X-91517853Y-29382755D01*
X-91454297Y-29411780D01*
G37*
G04 #@! TD.AperFunction*
G04 #@! TA.AperFunction,NonConductor*
G36*
X-72404297Y-42498424D02*
G01*
X-72371944Y-42542328D01*
X-72355926Y-42578846D01*
X-72228982Y-42773150D01*
X-72203270Y-42801080D01*
X-72172348Y-42863734D01*
X-72170500Y-42885063D01*
X-72170500Y-44389494D01*
X-72190185Y-44456533D01*
X-72213968Y-44483784D01*
X-72290683Y-44549305D01*
X-72290685Y-44549307D01*
X-72290687Y-44549309D01*
X-72290689Y-44549311D01*
X-72295713Y-44555193D01*
X-72354219Y-44593383D01*
X-72424087Y-44593881D01*
X-72483132Y-44556526D01*
X-72484233Y-44555256D01*
X-72489311Y-44549311D01*
X-72525032Y-44518802D01*
X-72566032Y-44483784D01*
X-72604225Y-44425277D01*
X-72609500Y-44389494D01*
X-72609500Y-42592137D01*
X-72589815Y-42525098D01*
X-72537011Y-42479343D01*
X-72467853Y-42469399D01*
X-72404297Y-42498424D01*
G37*
G04 #@! TD.AperFunction*
G04 #@! TA.AperFunction,NonConductor*
G36*
X-74944297Y-40593424D02*
G01*
X-74911944Y-40637328D01*
X-74895926Y-40673846D01*
X-74768982Y-40868150D01*
X-74743270Y-40896080D01*
X-74712348Y-40958734D01*
X-74710500Y-40980063D01*
X-74710500Y-44389494D01*
X-74730185Y-44456533D01*
X-74753968Y-44483784D01*
X-74830683Y-44549305D01*
X-74830685Y-44549307D01*
X-74830687Y-44549309D01*
X-74830689Y-44549311D01*
X-74835713Y-44555193D01*
X-74894219Y-44593383D01*
X-74964087Y-44593881D01*
X-75023132Y-44556526D01*
X-75024233Y-44555256D01*
X-75029311Y-44549311D01*
X-75065032Y-44518802D01*
X-75106032Y-44483784D01*
X-75144225Y-44425277D01*
X-75149500Y-44389494D01*
X-75149500Y-40687137D01*
X-75129815Y-40620098D01*
X-75077011Y-40574343D01*
X-75007853Y-40564399D01*
X-74944297Y-40593424D01*
G37*
G04 #@! TD.AperFunction*
G04 #@! TA.AperFunction,NonConductor*
G36*
X-77307461Y-41075185D02*
G01*
X-77261706Y-41127989D01*
X-77250500Y-41179500D01*
X-77250500Y-44389494D01*
X-77270185Y-44456533D01*
X-77293968Y-44483784D01*
X-77370683Y-44549305D01*
X-77370685Y-44549307D01*
X-77370687Y-44549309D01*
X-77370689Y-44549311D01*
X-77375713Y-44555193D01*
X-77434219Y-44593383D01*
X-77504087Y-44593881D01*
X-77563132Y-44556526D01*
X-77564233Y-44555256D01*
X-77569311Y-44549311D01*
X-77766860Y-44380588D01*
X-77988372Y-44244846D01*
X-77988373Y-44244845D01*
X-77988377Y-44244843D01*
X-78154373Y-44176086D01*
X-78228390Y-44145427D01*
X-78228389Y-44145427D01*
X-78431231Y-44096729D01*
X-78481006Y-44084779D01*
X-78481008Y-44084778D01*
X-78481009Y-44084778D01*
X-78740000Y-44064396D01*
X-78998991Y-44084778D01*
X-79251611Y-44145427D01*
X-79491624Y-44244843D01*
X-79713141Y-44380588D01*
X-79910687Y-44549309D01*
X-79910689Y-44549311D01*
X-79915713Y-44555193D01*
X-79974219Y-44593383D01*
X-80044087Y-44593881D01*
X-80103132Y-44556526D01*
X-80104233Y-44555256D01*
X-80109311Y-44549311D01*
X-80145032Y-44518802D01*
X-80186032Y-44483784D01*
X-80224225Y-44425277D01*
X-80229500Y-44389494D01*
X-80229500Y-42885063D01*
X-80209815Y-42818024D01*
X-80196730Y-42801080D01*
X-80171021Y-42773153D01*
X-80044076Y-42578849D01*
X-79950843Y-42366300D01*
X-79893866Y-42141305D01*
X-79893865Y-42141297D01*
X-79874700Y-41910006D01*
X-79874700Y-41909993D01*
X-79893865Y-41678702D01*
X-79893867Y-41678691D01*
X-79950843Y-41453699D01*
X-80026569Y-41281063D01*
X-80044076Y-41241151D01*
X-80044080Y-41241145D01*
X-80045502Y-41238516D01*
X-80045759Y-41237314D01*
X-80046136Y-41236454D01*
X-80045959Y-41236376D01*
X-80060096Y-41170187D01*
X-80035432Y-41104816D01*
X-79979341Y-41063156D01*
X-79936446Y-41055500D01*
X-77374500Y-41055500D01*
X-77307461Y-41075185D01*
G37*
G04 #@! TD.AperFunction*
G04 #@! TA.AperFunction,NonConductor*
G36*
X-82564297Y-42498424D02*
G01*
X-82531944Y-42542328D01*
X-82515926Y-42578846D01*
X-82388982Y-42773150D01*
X-82363270Y-42801080D01*
X-82332348Y-42863734D01*
X-82330500Y-42885063D01*
X-82330500Y-44389494D01*
X-82350185Y-44456533D01*
X-82373968Y-44483784D01*
X-82450683Y-44549305D01*
X-82450685Y-44549307D01*
X-82450687Y-44549309D01*
X-82450689Y-44549311D01*
X-82455713Y-44555193D01*
X-82514219Y-44593383D01*
X-82584087Y-44593881D01*
X-82643132Y-44556526D01*
X-82644233Y-44555256D01*
X-82649311Y-44549311D01*
X-82685032Y-44518802D01*
X-82726032Y-44483784D01*
X-82764225Y-44425277D01*
X-82769500Y-44389494D01*
X-82769500Y-42592137D01*
X-82749815Y-42525098D01*
X-82697011Y-42479343D01*
X-82627853Y-42469399D01*
X-82564297Y-42498424D01*
G37*
G04 #@! TD.AperFunction*
G04 #@! TA.AperFunction,NonConductor*
G36*
X-84927461Y-42980185D02*
G01*
X-84881706Y-43032989D01*
X-84870500Y-43084500D01*
X-84870500Y-44389494D01*
X-84890185Y-44456533D01*
X-84913968Y-44483784D01*
X-84990683Y-44549305D01*
X-84990685Y-44549307D01*
X-84990687Y-44549309D01*
X-84990689Y-44549311D01*
X-84995713Y-44555193D01*
X-85054219Y-44593383D01*
X-85124087Y-44593881D01*
X-85183132Y-44556526D01*
X-85184233Y-44555256D01*
X-85189311Y-44549311D01*
X-85225032Y-44518802D01*
X-85266032Y-44483784D01*
X-85304225Y-44425277D01*
X-85309500Y-44389494D01*
X-85309500Y-43084500D01*
X-85289815Y-43017461D01*
X-85237011Y-42971706D01*
X-85185500Y-42960500D01*
X-84994500Y-42960500D01*
X-84927461Y-42980185D01*
G37*
G04 #@! TD.AperFunction*
G04 #@! TA.AperFunction,NonConductor*
G36*
X-89966487Y-44250185D02*
G01*
X-89920732Y-44302989D01*
X-89910788Y-44372147D01*
X-89939813Y-44435703D01*
X-89952994Y-44448790D01*
X-90070684Y-44549307D01*
X-90070689Y-44549311D01*
X-90075713Y-44555193D01*
X-90134219Y-44593383D01*
X-90204087Y-44593881D01*
X-90263132Y-44556526D01*
X-90264233Y-44555256D01*
X-90269311Y-44549311D01*
X-90387007Y-44448789D01*
X-90425199Y-44390283D01*
X-90425697Y-44320415D01*
X-90388344Y-44261369D01*
X-90324997Y-44231891D01*
X-90306474Y-44230500D01*
X-90033526Y-44230500D01*
X-89966487Y-44250185D01*
G37*
G04 #@! TD.AperFunction*
G04 #@! TA.AperFunction,NonConductor*
G36*
X-92828598Y-44227489D02*
G01*
X-92813465Y-44230500D01*
X-92573526Y-44230500D01*
X-92506487Y-44250185D01*
X-92460732Y-44302989D01*
X-92450788Y-44372147D01*
X-92479813Y-44435703D01*
X-92492994Y-44448790D01*
X-92610684Y-44549307D01*
X-92610689Y-44549311D01*
X-92615713Y-44555193D01*
X-92674219Y-44593383D01*
X-92744087Y-44593881D01*
X-92803132Y-44556526D01*
X-92804233Y-44555256D01*
X-92809311Y-44549311D01*
X-92933323Y-44443395D01*
X-92971514Y-44384890D01*
X-92972013Y-44315023D01*
X-92934659Y-44255976D01*
X-92871312Y-44226498D01*
X-92828598Y-44227489D01*
G37*
G04 #@! TD.AperFunction*
G04 #@! TA.AperFunction,NonConductor*
G36*
X-97434211Y-520185D02*
G01*
X-97388456Y-572989D01*
X-97378512Y-642147D01*
X-97398148Y-693390D01*
X-97450941Y-772399D01*
X-97450941Y-772400D01*
X-97530130Y-963579D01*
X-97530132Y-963587D01*
X-97570500Y-1166530D01*
X-97570500Y-39029936D01*
X-97590185Y-39096975D01*
X-97603269Y-39113918D01*
X-97628981Y-39141849D01*
X-97755925Y-39336151D01*
X-97849158Y-39548699D01*
X-97906134Y-39773691D01*
X-97906136Y-39773702D01*
X-97925300Y-40004993D01*
X-97925300Y-40005006D01*
X-97906136Y-40236297D01*
X-97906134Y-40236308D01*
X-97849158Y-40461300D01*
X-97755925Y-40673848D01*
X-97628984Y-40868147D01*
X-97628981Y-40868150D01*
X-97628979Y-40868153D01*
X-97471784Y-41038913D01*
X-97471781Y-41038915D01*
X-97471778Y-41038918D01*
X-97288635Y-41181464D01*
X-97288629Y-41181468D01*
X-97288626Y-41181470D01*
X-97084503Y-41291936D01*
X-96864981Y-41367298D01*
X-96702615Y-41394392D01*
X-96639732Y-41424841D01*
X-96603292Y-41484456D01*
X-96602820Y-41547140D01*
X-96636134Y-41678691D01*
X-96636136Y-41678702D01*
X-96655300Y-41909993D01*
X-96655300Y-41910006D01*
X-96636136Y-42141297D01*
X-96636134Y-42141308D01*
X-96579158Y-42366300D01*
X-96485925Y-42578848D01*
X-96358984Y-42773147D01*
X-96358981Y-42773150D01*
X-96358979Y-42773153D01*
X-96201784Y-42943913D01*
X-96201781Y-42943915D01*
X-96201778Y-42943918D01*
X-96018635Y-43086464D01*
X-96018629Y-43086468D01*
X-96018626Y-43086470D01*
X-95814503Y-43196936D01*
X-95700513Y-43236068D01*
X-95594985Y-43272297D01*
X-95594983Y-43272297D01*
X-95594981Y-43272298D01*
X-95366049Y-43310500D01*
X-95366048Y-43310500D01*
X-95133952Y-43310500D01*
X-95133951Y-43310500D01*
X-94905019Y-43272298D01*
X-94685497Y-43196936D01*
X-94481374Y-43086470D01*
X-94298216Y-42943913D01*
X-94141021Y-42773153D01*
X-94014076Y-42578849D01*
X-93998056Y-42542328D01*
X-93953101Y-42488841D01*
X-93886365Y-42468151D01*
X-93819037Y-42486825D01*
X-93772493Y-42538935D01*
X-93760500Y-42592137D01*
X-93760500Y-43283469D01*
X-93720132Y-43486412D01*
X-93720130Y-43486420D01*
X-93640942Y-43677596D01*
X-93525976Y-43849657D01*
X-93465852Y-43909781D01*
X-93432367Y-43971104D01*
X-93437351Y-44040796D01*
X-93479223Y-44096729D01*
X-93544687Y-44121146D01*
X-93582480Y-44118036D01*
X-93721010Y-44084778D01*
X-93721009Y-44084778D01*
X-93980000Y-44064396D01*
X-94238991Y-44084778D01*
X-94491611Y-44145427D01*
X-94731624Y-44244843D01*
X-94953141Y-44380588D01*
X-95150687Y-44549309D01*
X-95150689Y-44549311D01*
X-95155713Y-44555193D01*
X-95214219Y-44593383D01*
X-95284087Y-44593881D01*
X-95343132Y-44556526D01*
X-95344233Y-44555256D01*
X-95349311Y-44549311D01*
X-95546860Y-44380588D01*
X-95768372Y-44244846D01*
X-95768373Y-44244845D01*
X-95768377Y-44244843D01*
X-95934373Y-44176086D01*
X-96008390Y-44145427D01*
X-96008389Y-44145427D01*
X-96211231Y-44096729D01*
X-96261006Y-44084779D01*
X-96261008Y-44084778D01*
X-96261009Y-44084778D01*
X-96520000Y-44064396D01*
X-96778991Y-44084778D01*
X-97031611Y-44145427D01*
X-97271624Y-44244843D01*
X-97493141Y-44380588D01*
X-97690687Y-44549309D01*
X-97690689Y-44549311D01*
X-97695713Y-44555193D01*
X-97754219Y-44593383D01*
X-97824087Y-44593881D01*
X-97883132Y-44556526D01*
X-97884233Y-44555256D01*
X-97889311Y-44549311D01*
X-98086860Y-44380588D01*
X-98308372Y-44244846D01*
X-98308373Y-44244845D01*
X-98308377Y-44244843D01*
X-98474373Y-44176086D01*
X-98548390Y-44145427D01*
X-98548389Y-44145427D01*
X-98751231Y-44096729D01*
X-98801006Y-44084779D01*
X-98801008Y-44084778D01*
X-98801009Y-44084778D01*
X-99060000Y-44064396D01*
X-99318991Y-44084778D01*
X-99571611Y-44145427D01*
X-99811624Y-44244843D01*
X-100033141Y-44380588D01*
X-100230689Y-44549311D01*
X-100399412Y-44746859D01*
X-100535157Y-44968376D01*
X-100634573Y-45208389D01*
X-100695222Y-45461009D01*
X-100715604Y-45720000D01*
X-100695222Y-45978990D01*
X-100634573Y-46231610D01*
X-100535157Y-46471623D01*
X-100535155Y-46471627D01*
X-100535154Y-46471628D01*
X-100399412Y-46693140D01*
X-100230689Y-46890689D01*
X-100033140Y-47059412D01*
X-99811628Y-47195154D01*
X-99811626Y-47195154D01*
X-99811624Y-47195156D01*
X-99750307Y-47220554D01*
X-99571610Y-47294573D01*
X-99318994Y-47355221D01*
X-99060000Y-47375604D01*
X-98801006Y-47355221D01*
X-98548390Y-47294573D01*
X-98308372Y-47195154D01*
X-98086860Y-47059412D01*
X-97889311Y-46890689D01*
X-97884290Y-46884809D01*
X-97825787Y-46846617D01*
X-97755919Y-46846116D01*
X-97696872Y-46883468D01*
X-97695803Y-46884702D01*
X-97690689Y-46890689D01*
X-97493140Y-47059412D01*
X-97271628Y-47195154D01*
X-97271626Y-47195154D01*
X-97271624Y-47195156D01*
X-97210307Y-47220554D01*
X-97031610Y-47294573D01*
X-96778994Y-47355221D01*
X-96520000Y-47375604D01*
X-96261006Y-47355221D01*
X-96008390Y-47294573D01*
X-95768372Y-47195154D01*
X-95546860Y-47059412D01*
X-95349311Y-46890689D01*
X-95344290Y-46884809D01*
X-95285787Y-46846617D01*
X-95215919Y-46846116D01*
X-95156872Y-46883468D01*
X-95155803Y-46884702D01*
X-95150689Y-46890689D01*
X-94953140Y-47059412D01*
X-94731628Y-47195154D01*
X-94731626Y-47195154D01*
X-94731624Y-47195156D01*
X-94670307Y-47220554D01*
X-94491610Y-47294573D01*
X-94238994Y-47355221D01*
X-93980000Y-47375604D01*
X-93721006Y-47355221D01*
X-93468390Y-47294573D01*
X-93228372Y-47195154D01*
X-93006860Y-47059412D01*
X-92809311Y-46890689D01*
X-92804290Y-46884809D01*
X-92745787Y-46846617D01*
X-92675919Y-46846116D01*
X-92616872Y-46883468D01*
X-92615803Y-46884702D01*
X-92610689Y-46890689D01*
X-92413140Y-47059412D01*
X-92191628Y-47195154D01*
X-92191626Y-47195154D01*
X-92191624Y-47195156D01*
X-92130307Y-47220554D01*
X-91951610Y-47294573D01*
X-91698994Y-47355221D01*
X-91440000Y-47375604D01*
X-91181006Y-47355221D01*
X-90928390Y-47294573D01*
X-90688372Y-47195154D01*
X-90466860Y-47059412D01*
X-90269311Y-46890689D01*
X-90264290Y-46884809D01*
X-90205787Y-46846617D01*
X-90135919Y-46846116D01*
X-90076872Y-46883468D01*
X-90075803Y-46884702D01*
X-90070689Y-46890689D01*
X-89873140Y-47059412D01*
X-89651628Y-47195154D01*
X-89651626Y-47195154D01*
X-89651624Y-47195156D01*
X-89590307Y-47220554D01*
X-89411610Y-47294573D01*
X-89158994Y-47355221D01*
X-88900000Y-47375604D01*
X-88641006Y-47355221D01*
X-88388390Y-47294573D01*
X-88148372Y-47195154D01*
X-87926860Y-47059412D01*
X-87729311Y-46890689D01*
X-87724290Y-46884809D01*
X-87665787Y-46846617D01*
X-87595919Y-46846116D01*
X-87536872Y-46883468D01*
X-87535803Y-46884702D01*
X-87530689Y-46890689D01*
X-87333140Y-47059412D01*
X-87111628Y-47195154D01*
X-87111626Y-47195154D01*
X-87111624Y-47195156D01*
X-87050307Y-47220554D01*
X-86871610Y-47294573D01*
X-86618994Y-47355221D01*
X-86360000Y-47375604D01*
X-86101006Y-47355221D01*
X-85848390Y-47294573D01*
X-85608372Y-47195154D01*
X-85386860Y-47059412D01*
X-85189311Y-46890689D01*
X-85184290Y-46884809D01*
X-85125787Y-46846617D01*
X-85055919Y-46846116D01*
X-84996872Y-46883468D01*
X-84995803Y-46884702D01*
X-84990689Y-46890689D01*
X-84793140Y-47059412D01*
X-84571628Y-47195154D01*
X-84571626Y-47195154D01*
X-84571624Y-47195156D01*
X-84510307Y-47220554D01*
X-84331610Y-47294573D01*
X-84078994Y-47355221D01*
X-83820000Y-47375604D01*
X-83561006Y-47355221D01*
X-83308390Y-47294573D01*
X-83068372Y-47195154D01*
X-82846860Y-47059412D01*
X-82649311Y-46890689D01*
X-82644290Y-46884809D01*
X-82585787Y-46846617D01*
X-82515919Y-46846116D01*
X-82456872Y-46883468D01*
X-82455803Y-46884702D01*
X-82450689Y-46890689D01*
X-82253140Y-47059412D01*
X-82031628Y-47195154D01*
X-82031626Y-47195154D01*
X-82031624Y-47195156D01*
X-81970307Y-47220554D01*
X-81791610Y-47294573D01*
X-81538994Y-47355221D01*
X-81280000Y-47375604D01*
X-81021006Y-47355221D01*
X-80768390Y-47294573D01*
X-80528372Y-47195154D01*
X-80306860Y-47059412D01*
X-80109311Y-46890689D01*
X-80104290Y-46884809D01*
X-80045787Y-46846617D01*
X-79975919Y-46846116D01*
X-79916872Y-46883468D01*
X-79915803Y-46884702D01*
X-79910689Y-46890689D01*
X-79713140Y-47059412D01*
X-79491628Y-47195154D01*
X-79491626Y-47195154D01*
X-79491624Y-47195156D01*
X-79430307Y-47220554D01*
X-79251610Y-47294573D01*
X-78998994Y-47355221D01*
X-78740000Y-47375604D01*
X-78481006Y-47355221D01*
X-78228390Y-47294573D01*
X-77988372Y-47195154D01*
X-77766860Y-47059412D01*
X-77569311Y-46890689D01*
X-77564290Y-46884809D01*
X-77505787Y-46846617D01*
X-77435919Y-46846116D01*
X-77376872Y-46883468D01*
X-77375803Y-46884702D01*
X-77370689Y-46890689D01*
X-77173140Y-47059412D01*
X-76951628Y-47195154D01*
X-76951626Y-47195154D01*
X-76951624Y-47195156D01*
X-76890307Y-47220554D01*
X-76711610Y-47294573D01*
X-76458994Y-47355221D01*
X-76200000Y-47375604D01*
X-75941006Y-47355221D01*
X-75688390Y-47294573D01*
X-75448372Y-47195154D01*
X-75226860Y-47059412D01*
X-75029311Y-46890689D01*
X-75024290Y-46884809D01*
X-74965787Y-46846617D01*
X-74895919Y-46846116D01*
X-74836872Y-46883468D01*
X-74835803Y-46884702D01*
X-74830689Y-46890689D01*
X-74633140Y-47059412D01*
X-74411628Y-47195154D01*
X-74411626Y-47195154D01*
X-74411624Y-47195156D01*
X-74350307Y-47220554D01*
X-74171610Y-47294573D01*
X-73918994Y-47355221D01*
X-73660000Y-47375604D01*
X-73401006Y-47355221D01*
X-73148390Y-47294573D01*
X-72908372Y-47195154D01*
X-72686860Y-47059412D01*
X-72489311Y-46890689D01*
X-72484290Y-46884809D01*
X-72425787Y-46846617D01*
X-72355919Y-46846116D01*
X-72296872Y-46883468D01*
X-72295803Y-46884702D01*
X-72290689Y-46890689D01*
X-72093140Y-47059412D01*
X-71871628Y-47195154D01*
X-71871626Y-47195154D01*
X-71871624Y-47195156D01*
X-71810307Y-47220554D01*
X-71631610Y-47294573D01*
X-71378994Y-47355221D01*
X-71120000Y-47375604D01*
X-70861006Y-47355221D01*
X-70608390Y-47294573D01*
X-70368372Y-47195154D01*
X-70146860Y-47059412D01*
X-69949311Y-46890689D01*
X-69944290Y-46884809D01*
X-69885787Y-46846617D01*
X-69815919Y-46846116D01*
X-69756872Y-46883468D01*
X-69755803Y-46884702D01*
X-69750689Y-46890689D01*
X-69553140Y-47059412D01*
X-69331628Y-47195154D01*
X-69331626Y-47195154D01*
X-69331624Y-47195156D01*
X-69270307Y-47220554D01*
X-69091610Y-47294573D01*
X-68838994Y-47355221D01*
X-68580000Y-47375604D01*
X-68321006Y-47355221D01*
X-68068390Y-47294573D01*
X-67828372Y-47195154D01*
X-67606860Y-47059412D01*
X-67409311Y-46890689D01*
X-67404290Y-46884809D01*
X-67345787Y-46846617D01*
X-67275919Y-46846116D01*
X-67216872Y-46883468D01*
X-67215803Y-46884702D01*
X-67210689Y-46890689D01*
X-67013140Y-47059412D01*
X-66791628Y-47195154D01*
X-66791626Y-47195154D01*
X-66791624Y-47195156D01*
X-66730307Y-47220554D01*
X-66551610Y-47294573D01*
X-66298994Y-47355221D01*
X-66040000Y-47375604D01*
X-65781006Y-47355221D01*
X-65528390Y-47294573D01*
X-65288372Y-47195154D01*
X-65066860Y-47059412D01*
X-64869311Y-46890689D01*
X-64864290Y-46884809D01*
X-64805787Y-46846617D01*
X-64735919Y-46846116D01*
X-64676872Y-46883468D01*
X-64675803Y-46884702D01*
X-64670689Y-46890689D01*
X-64473140Y-47059412D01*
X-64251628Y-47195154D01*
X-64251626Y-47195154D01*
X-64251624Y-47195156D01*
X-64190307Y-47220554D01*
X-64011610Y-47294573D01*
X-63758994Y-47355221D01*
X-63500000Y-47375604D01*
X-63241006Y-47355221D01*
X-62988390Y-47294573D01*
X-62748372Y-47195154D01*
X-62526860Y-47059412D01*
X-62329311Y-46890689D01*
X-62324290Y-46884809D01*
X-62265787Y-46846617D01*
X-62195919Y-46846116D01*
X-62136872Y-46883468D01*
X-62135803Y-46884702D01*
X-62130689Y-46890689D01*
X-61933140Y-47059412D01*
X-61711628Y-47195154D01*
X-61711626Y-47195154D01*
X-61711624Y-47195156D01*
X-61650307Y-47220554D01*
X-61471610Y-47294573D01*
X-61218994Y-47355221D01*
X-60960000Y-47375604D01*
X-60701006Y-47355221D01*
X-60448390Y-47294573D01*
X-60208372Y-47195154D01*
X-59986860Y-47059412D01*
X-59789311Y-46890689D01*
X-59784290Y-46884809D01*
X-59725787Y-46846617D01*
X-59655919Y-46846116D01*
X-59596872Y-46883468D01*
X-59595803Y-46884702D01*
X-59590689Y-46890689D01*
X-59393140Y-47059412D01*
X-59171628Y-47195154D01*
X-59171626Y-47195154D01*
X-59171624Y-47195156D01*
X-59110307Y-47220554D01*
X-58931610Y-47294573D01*
X-58678994Y-47355221D01*
X-58420000Y-47375604D01*
X-58161006Y-47355221D01*
X-57908390Y-47294573D01*
X-57668372Y-47195154D01*
X-57446860Y-47059412D01*
X-57249311Y-46890689D01*
X-57244290Y-46884809D01*
X-57185787Y-46846617D01*
X-57115919Y-46846116D01*
X-57056872Y-46883468D01*
X-57055803Y-46884702D01*
X-57050689Y-46890689D01*
X-56853140Y-47059412D01*
X-56631628Y-47195154D01*
X-56631626Y-47195154D01*
X-56631624Y-47195156D01*
X-56570307Y-47220554D01*
X-56391610Y-47294573D01*
X-56138994Y-47355221D01*
X-55880000Y-47375604D01*
X-55621006Y-47355221D01*
X-55368390Y-47294573D01*
X-55128372Y-47195154D01*
X-54906860Y-47059412D01*
X-54709311Y-46890689D01*
X-54704290Y-46884809D01*
X-54645787Y-46846617D01*
X-54575919Y-46846116D01*
X-54516872Y-46883468D01*
X-54515803Y-46884702D01*
X-54510689Y-46890689D01*
X-54313140Y-47059412D01*
X-54091628Y-47195154D01*
X-54091626Y-47195154D01*
X-54091624Y-47195156D01*
X-54030307Y-47220554D01*
X-53851610Y-47294573D01*
X-53598994Y-47355221D01*
X-53340000Y-47375604D01*
X-53081006Y-47355221D01*
X-52828390Y-47294573D01*
X-52588372Y-47195154D01*
X-52366860Y-47059412D01*
X-52169311Y-46890689D01*
X-52164290Y-46884809D01*
X-52105787Y-46846617D01*
X-52035919Y-46846116D01*
X-51976872Y-46883468D01*
X-51975803Y-46884702D01*
X-51970689Y-46890689D01*
X-51773140Y-47059412D01*
X-51551628Y-47195154D01*
X-51551626Y-47195154D01*
X-51551624Y-47195156D01*
X-51490307Y-47220554D01*
X-51311610Y-47294573D01*
X-51058994Y-47355221D01*
X-50800000Y-47375604D01*
X-50541006Y-47355221D01*
X-50288390Y-47294573D01*
X-50048372Y-47195154D01*
X-49826860Y-47059412D01*
X-49629311Y-46890689D01*
X-49624290Y-46884809D01*
X-49565787Y-46846617D01*
X-49495919Y-46846116D01*
X-49436872Y-46883468D01*
X-49435803Y-46884702D01*
X-49430689Y-46890689D01*
X-49233140Y-47059412D01*
X-49011628Y-47195154D01*
X-49011626Y-47195154D01*
X-49011624Y-47195156D01*
X-48950307Y-47220554D01*
X-48771610Y-47294573D01*
X-48518994Y-47355221D01*
X-48260000Y-47375604D01*
X-48001006Y-47355221D01*
X-47748390Y-47294573D01*
X-47508372Y-47195154D01*
X-47286860Y-47059412D01*
X-47089311Y-46890689D01*
X-47084290Y-46884809D01*
X-47025787Y-46846617D01*
X-46955919Y-46846116D01*
X-46896872Y-46883468D01*
X-46895803Y-46884702D01*
X-46890689Y-46890689D01*
X-46693140Y-47059412D01*
X-46471628Y-47195154D01*
X-46471626Y-47195154D01*
X-46471624Y-47195156D01*
X-46410307Y-47220554D01*
X-46231610Y-47294573D01*
X-45978994Y-47355221D01*
X-45720000Y-47375604D01*
X-45461006Y-47355221D01*
X-45208390Y-47294573D01*
X-44968372Y-47195154D01*
X-44746860Y-47059412D01*
X-44549311Y-46890689D01*
X-44544290Y-46884809D01*
X-44485787Y-46846617D01*
X-44415919Y-46846116D01*
X-44356872Y-46883468D01*
X-44355803Y-46884702D01*
X-44350689Y-46890689D01*
X-44153140Y-47059412D01*
X-43931628Y-47195154D01*
X-43931626Y-47195154D01*
X-43931624Y-47195156D01*
X-43870307Y-47220554D01*
X-43691610Y-47294573D01*
X-43438994Y-47355221D01*
X-43180000Y-47375604D01*
X-42921006Y-47355221D01*
X-42668390Y-47294573D01*
X-42428372Y-47195154D01*
X-42206860Y-47059412D01*
X-42009311Y-46890689D01*
X-42004290Y-46884809D01*
X-41945787Y-46846617D01*
X-41875919Y-46846116D01*
X-41816872Y-46883468D01*
X-41815803Y-46884702D01*
X-41810689Y-46890689D01*
X-41613140Y-47059412D01*
X-41391628Y-47195154D01*
X-41391626Y-47195154D01*
X-41391624Y-47195156D01*
X-41330307Y-47220554D01*
X-41151610Y-47294573D01*
X-40898994Y-47355221D01*
X-40640000Y-47375604D01*
X-40381006Y-47355221D01*
X-40128390Y-47294573D01*
X-39888372Y-47195154D01*
X-39666860Y-47059412D01*
X-39469311Y-46890689D01*
X-39464290Y-46884809D01*
X-39405787Y-46846617D01*
X-39335919Y-46846116D01*
X-39276872Y-46883468D01*
X-39275803Y-46884702D01*
X-39270689Y-46890689D01*
X-39073140Y-47059412D01*
X-38851628Y-47195154D01*
X-38851626Y-47195154D01*
X-38851624Y-47195156D01*
X-38790307Y-47220554D01*
X-38611610Y-47294573D01*
X-38358994Y-47355221D01*
X-38100000Y-47375604D01*
X-37841006Y-47355221D01*
X-37588390Y-47294573D01*
X-37348372Y-47195154D01*
X-37126860Y-47059412D01*
X-36929311Y-46890689D01*
X-36924290Y-46884809D01*
X-36865787Y-46846617D01*
X-36795919Y-46846116D01*
X-36736872Y-46883468D01*
X-36735803Y-46884702D01*
X-36730689Y-46890689D01*
X-36533140Y-47059412D01*
X-36311628Y-47195154D01*
X-36311626Y-47195154D01*
X-36311624Y-47195156D01*
X-36250307Y-47220554D01*
X-36071610Y-47294573D01*
X-35818994Y-47355221D01*
X-35560000Y-47375604D01*
X-35301006Y-47355221D01*
X-35048390Y-47294573D01*
X-34808372Y-47195154D01*
X-34586860Y-47059412D01*
X-34389311Y-46890689D01*
X-34384290Y-46884809D01*
X-34325787Y-46846617D01*
X-34255919Y-46846116D01*
X-34196872Y-46883468D01*
X-34195803Y-46884702D01*
X-34190689Y-46890689D01*
X-33993140Y-47059412D01*
X-33771628Y-47195154D01*
X-33771626Y-47195154D01*
X-33771624Y-47195156D01*
X-33710307Y-47220554D01*
X-33531610Y-47294573D01*
X-33278994Y-47355221D01*
X-33020000Y-47375604D01*
X-32761006Y-47355221D01*
X-32508390Y-47294573D01*
X-32268372Y-47195154D01*
X-32046860Y-47059412D01*
X-31849311Y-46890689D01*
X-31844290Y-46884809D01*
X-31785787Y-46846617D01*
X-31715919Y-46846116D01*
X-31656872Y-46883468D01*
X-31655803Y-46884702D01*
X-31650689Y-46890689D01*
X-31453140Y-47059412D01*
X-31231628Y-47195154D01*
X-31231626Y-47195154D01*
X-31231624Y-47195156D01*
X-31170307Y-47220554D01*
X-30991610Y-47294573D01*
X-30738994Y-47355221D01*
X-30480000Y-47375604D01*
X-30221006Y-47355221D01*
X-29968390Y-47294573D01*
X-29728372Y-47195154D01*
X-29506860Y-47059412D01*
X-29309311Y-46890689D01*
X-29304290Y-46884809D01*
X-29245787Y-46846617D01*
X-29175919Y-46846116D01*
X-29116872Y-46883468D01*
X-29115803Y-46884702D01*
X-29110689Y-46890689D01*
X-28913140Y-47059412D01*
X-28691628Y-47195154D01*
X-28691626Y-47195154D01*
X-28691624Y-47195156D01*
X-28630307Y-47220554D01*
X-28451610Y-47294573D01*
X-28198994Y-47355221D01*
X-27940000Y-47375604D01*
X-27681006Y-47355221D01*
X-27428390Y-47294573D01*
X-27188372Y-47195154D01*
X-26966860Y-47059412D01*
X-26769311Y-46890689D01*
X-26764290Y-46884809D01*
X-26705787Y-46846617D01*
X-26635919Y-46846116D01*
X-26576872Y-46883468D01*
X-26575803Y-46884702D01*
X-26570689Y-46890689D01*
X-26373140Y-47059412D01*
X-26151628Y-47195154D01*
X-26151626Y-47195154D01*
X-26151624Y-47195156D01*
X-26090307Y-47220554D01*
X-25911610Y-47294573D01*
X-25658994Y-47355221D01*
X-25400000Y-47375604D01*
X-25141006Y-47355221D01*
X-24888390Y-47294573D01*
X-24648372Y-47195154D01*
X-24426860Y-47059412D01*
X-24229311Y-46890689D01*
X-24224290Y-46884809D01*
X-24165787Y-46846617D01*
X-24095919Y-46846116D01*
X-24036872Y-46883468D01*
X-24035803Y-46884702D01*
X-24030689Y-46890689D01*
X-23833140Y-47059412D01*
X-23611628Y-47195154D01*
X-23611626Y-47195154D01*
X-23611624Y-47195156D01*
X-23550307Y-47220554D01*
X-23371610Y-47294573D01*
X-23118994Y-47355221D01*
X-22860000Y-47375604D01*
X-22601006Y-47355221D01*
X-22348390Y-47294573D01*
X-22108372Y-47195154D01*
X-21886860Y-47059412D01*
X-21689311Y-46890689D01*
X-21684290Y-46884809D01*
X-21625787Y-46846617D01*
X-21555919Y-46846116D01*
X-21496872Y-46883468D01*
X-21495803Y-46884702D01*
X-21490689Y-46890689D01*
X-21293140Y-47059412D01*
X-21071628Y-47195154D01*
X-21071626Y-47195154D01*
X-21071624Y-47195156D01*
X-21010307Y-47220554D01*
X-20831610Y-47294573D01*
X-20578994Y-47355221D01*
X-20320000Y-47375604D01*
X-20061006Y-47355221D01*
X-19808390Y-47294573D01*
X-19568372Y-47195154D01*
X-19346860Y-47059412D01*
X-19149311Y-46890689D01*
X-19144290Y-46884809D01*
X-19085787Y-46846617D01*
X-19015919Y-46846116D01*
X-18956872Y-46883468D01*
X-18955803Y-46884702D01*
X-18950689Y-46890689D01*
X-18753140Y-47059412D01*
X-18531628Y-47195154D01*
X-18531626Y-47195154D01*
X-18531624Y-47195156D01*
X-18470307Y-47220554D01*
X-18291610Y-47294573D01*
X-18038994Y-47355221D01*
X-17780000Y-47375604D01*
X-17521006Y-47355221D01*
X-17268390Y-47294573D01*
X-17028372Y-47195154D01*
X-16806860Y-47059412D01*
X-16609311Y-46890689D01*
X-16604290Y-46884809D01*
X-16545787Y-46846617D01*
X-16475919Y-46846116D01*
X-16416872Y-46883468D01*
X-16415803Y-46884702D01*
X-16410689Y-46890689D01*
X-16213140Y-47059412D01*
X-15991628Y-47195154D01*
X-15991626Y-47195154D01*
X-15991624Y-47195156D01*
X-15930307Y-47220554D01*
X-15751610Y-47294573D01*
X-15498994Y-47355221D01*
X-15240000Y-47375604D01*
X-14981006Y-47355221D01*
X-14728390Y-47294573D01*
X-14488372Y-47195154D01*
X-14266860Y-47059412D01*
X-14069311Y-46890689D01*
X-14064290Y-46884809D01*
X-14005787Y-46846617D01*
X-13935919Y-46846116D01*
X-13876872Y-46883468D01*
X-13875803Y-46884702D01*
X-13870689Y-46890689D01*
X-13673140Y-47059412D01*
X-13451628Y-47195154D01*
X-13451626Y-47195154D01*
X-13451624Y-47195156D01*
X-13390307Y-47220554D01*
X-13211610Y-47294573D01*
X-12958994Y-47355221D01*
X-12700000Y-47375604D01*
X-12441006Y-47355221D01*
X-12188390Y-47294573D01*
X-11948372Y-47195154D01*
X-11726860Y-47059412D01*
X-11529311Y-46890689D01*
X-11524290Y-46884809D01*
X-11465787Y-46846617D01*
X-11395919Y-46846116D01*
X-11336872Y-46883468D01*
X-11335803Y-46884702D01*
X-11330689Y-46890689D01*
X-11133140Y-47059412D01*
X-10911628Y-47195154D01*
X-10911626Y-47195154D01*
X-10911624Y-47195156D01*
X-10850307Y-47220554D01*
X-10671610Y-47294573D01*
X-10418994Y-47355221D01*
X-10160000Y-47375604D01*
X-9901006Y-47355221D01*
X-9648390Y-47294573D01*
X-9408372Y-47195154D01*
X-9186860Y-47059412D01*
X-8989311Y-46890689D01*
X-8984290Y-46884809D01*
X-8925787Y-46846617D01*
X-8855919Y-46846116D01*
X-8796872Y-46883468D01*
X-8795803Y-46884702D01*
X-8790689Y-46890689D01*
X-8593140Y-47059412D01*
X-8371628Y-47195154D01*
X-8371626Y-47195154D01*
X-8371624Y-47195156D01*
X-8310307Y-47220554D01*
X-8131610Y-47294573D01*
X-7878994Y-47355221D01*
X-7620000Y-47375604D01*
X-7361006Y-47355221D01*
X-7108390Y-47294573D01*
X-6868372Y-47195154D01*
X-6646860Y-47059412D01*
X-6449311Y-46890689D01*
X-6444290Y-46884809D01*
X-6385787Y-46846617D01*
X-6315919Y-46846116D01*
X-6256872Y-46883468D01*
X-6255803Y-46884702D01*
X-6250689Y-46890689D01*
X-6053140Y-47059412D01*
X-5831628Y-47195154D01*
X-5831626Y-47195154D01*
X-5831624Y-47195156D01*
X-5770307Y-47220554D01*
X-5591610Y-47294573D01*
X-5338994Y-47355221D01*
X-5080000Y-47375604D01*
X-4821006Y-47355221D01*
X-4568390Y-47294573D01*
X-4328372Y-47195154D01*
X-4144205Y-47082296D01*
X-4076760Y-47064052D01*
X-4010158Y-47085168D01*
X-3991735Y-47100343D01*
X-3892262Y-47199816D01*
X-3801920Y-47256582D01*
X-3741458Y-47294573D01*
X-3739522Y-47295789D01*
X-3569675Y-47355221D01*
X-3569255Y-47355368D01*
X-3569250Y-47355369D01*
X-3478754Y-47365565D01*
X-3434960Y-47370499D01*
X-3434957Y-47370500D01*
X-3434954Y-47370500D01*
X-1645043Y-47370500D01*
X-1645042Y-47370499D01*
X-1577896Y-47362934D01*
X-1510751Y-47355369D01*
X-1510748Y-47355368D01*
X-1510745Y-47355368D01*
X-1340478Y-47295789D01*
X-1187738Y-47199816D01*
X-1060184Y-47072262D01*
X-964211Y-46919522D01*
X-904632Y-46749255D01*
X-889500Y-46614954D01*
X-889500Y-44825046D01*
X-898309Y-44746860D01*
X-904631Y-44690750D01*
X-904632Y-44690745D01*
X-964211Y-44520478D01*
X-1060184Y-44367738D01*
X-1187738Y-44240184D01*
X-1267398Y-44190130D01*
X-1340479Y-44144210D01*
X-1435558Y-44110941D01*
X-1509297Y-44085138D01*
X-1566071Y-44044418D01*
X-1582900Y-44015555D01*
X-1609058Y-43952402D01*
X-1609062Y-43952395D01*
X-1724023Y-43780345D01*
X-1724026Y-43780341D01*
X-5263181Y-40241186D01*
X-5296666Y-40179863D01*
X-5299500Y-40153505D01*
X-5299500Y-28949922D01*
X-5279815Y-28882883D01*
X-5227011Y-28837128D01*
X-5216454Y-28832880D01*
X-5210478Y-28830789D01*
X-5057738Y-28734816D01*
X-4930184Y-28607262D01*
X-4834211Y-28454522D01*
X-4774632Y-28284255D01*
X-4770620Y-28248653D01*
X-4759501Y-28149960D01*
X-4759500Y-28149956D01*
X-4759500Y-26460043D01*
X-4759501Y-26460039D01*
X-4762445Y-26433913D01*
X-4768603Y-26379255D01*
X-4774631Y-26325750D01*
X-4774632Y-26325745D01*
X-4834212Y-26155476D01*
X-4888644Y-26068849D01*
X-4930184Y-26002738D01*
X-5055244Y-25877678D01*
X-5088729Y-25816355D01*
X-5083745Y-25746663D01*
X-5063794Y-25712762D01*
X-5064024Y-25712595D01*
X-5062290Y-25710207D01*
X-5061851Y-25709463D01*
X-5061164Y-25708659D01*
X-4929534Y-25493859D01*
X-4833127Y-25261111D01*
X-4774317Y-25016148D01*
X-4754551Y-24765000D01*
X-4774317Y-24513852D01*
X-4833127Y-24268889D01*
X-4864804Y-24192414D01*
X-4929534Y-24036140D01*
X-5061161Y-23821346D01*
X-5061162Y-23821343D01*
X-5224776Y-23629776D01*
X-5224777Y-23629775D01*
X-5272181Y-23589289D01*
X-5310373Y-23530784D01*
X-5310872Y-23460916D01*
X-5273518Y-23401870D01*
X-5272244Y-23400764D01*
X-5224776Y-23360224D01*
X-5061164Y-23168659D01*
X-4929534Y-22953859D01*
X-4833127Y-22721111D01*
X-4774317Y-22476148D01*
X-4754551Y-22225000D01*
X-4774317Y-21973852D01*
X-4833127Y-21728889D01*
X-4929534Y-21496141D01*
X-4929534Y-21496140D01*
X-5061161Y-21281346D01*
X-5061162Y-21281344D01*
X-5061163Y-21281343D01*
X-5061164Y-21281341D01*
X-5129792Y-21200988D01*
X-5158361Y-21137228D01*
X-5159500Y-21120458D01*
X-5159500Y-20789541D01*
X-5139815Y-20722502D01*
X-5129790Y-20709009D01*
X-5061164Y-20628659D01*
X-4929534Y-20413859D01*
X-4833127Y-20181111D01*
X-4774317Y-19936148D01*
X-4754551Y-19685000D01*
X-4774317Y-19433852D01*
X-4833127Y-19188889D01*
X-4929534Y-18956141D01*
X-4929534Y-18956140D01*
X-5061161Y-18741346D01*
X-5061162Y-18741344D01*
X-5061163Y-18741343D01*
X-5061164Y-18741341D01*
X-5129792Y-18660988D01*
X-5158361Y-18597228D01*
X-5159500Y-18580458D01*
X-5159500Y-18469500D01*
X-5139815Y-18402461D01*
X-5087011Y-18356706D01*
X-5035500Y-18345500D01*
X-3715514Y-18345500D01*
X-3528882Y-18315940D01*
X-3349168Y-18257547D01*
X-3180801Y-18171760D01*
X-3027927Y-18060690D01*
X-2894310Y-17927073D01*
X-2783240Y-17774199D01*
X-2697453Y-17605832D01*
X-2639060Y-17426118D01*
X-2634313Y-17396148D01*
X-2609500Y-17239486D01*
X-2609500Y-17050513D01*
X-2617973Y-16997021D01*
X-2619500Y-16977622D01*
X-2619500Y-9430513D01*
X-2649060Y-9243881D01*
X-2676154Y-9160497D01*
X-2707453Y-9064168D01*
X-2707455Y-9064165D01*
X-2707455Y-9064163D01*
X-2764394Y-8952414D01*
X-2793240Y-8895801D01*
X-2904310Y-8742927D01*
X-3037927Y-8609310D01*
X-3190801Y-8498240D01*
X-3359164Y-8412454D01*
X-3538882Y-8354059D01*
X-3725514Y-8324500D01*
X-3725519Y-8324500D01*
X-5035500Y-8324500D01*
X-5102539Y-8304815D01*
X-5148294Y-8252011D01*
X-5159500Y-8200500D01*
X-5159500Y-3342377D01*
X-5157973Y-3322978D01*
X-5149500Y-3269485D01*
X-5149500Y-3080513D01*
X-5179060Y-2893881D01*
X-5206154Y-2810497D01*
X-5237453Y-2714168D01*
X-5237455Y-2714165D01*
X-5237455Y-2714163D01*
X-5323241Y-2545800D01*
X-5352048Y-2506151D01*
X-5434310Y-2392927D01*
X-5567927Y-2259310D01*
X-5720801Y-2148240D01*
X-5889164Y-2062454D01*
X-6068882Y-2004059D01*
X-6255514Y-1974500D01*
X-6255519Y-1974500D01*
X-15754376Y-1974500D01*
X-15813393Y-1959555D01*
X-15879892Y-1923567D01*
X-15945496Y-1888064D01*
X-15945505Y-1888061D01*
X-16165016Y-1812702D01*
X-16336718Y-1784050D01*
X-16393951Y-1774500D01*
X-16626049Y-1774500D01*
X-16671836Y-1782140D01*
X-16854985Y-1812702D01*
X-17074496Y-1888061D01*
X-17074505Y-1888064D01*
X-17278629Y-1998531D01*
X-17278635Y-1998535D01*
X-17461778Y-2141081D01*
X-17461781Y-2141084D01*
X-17618984Y-2311852D01*
X-17745925Y-2506151D01*
X-17839158Y-2718699D01*
X-17896134Y-2943691D01*
X-17896136Y-2943702D01*
X-17915300Y-3174993D01*
X-17915300Y-3175006D01*
X-17896136Y-3406297D01*
X-17896134Y-3406308D01*
X-17839158Y-3631300D01*
X-17745925Y-3843848D01*
X-17618984Y-4038147D01*
X-17618981Y-4038151D01*
X-17618979Y-4038153D01*
X-17461784Y-4208913D01*
X-17461781Y-4208915D01*
X-17461778Y-4208918D01*
X-17278635Y-4351464D01*
X-17278629Y-4351468D01*
X-17278626Y-4351470D01*
X-17137098Y-4428061D01*
X-17130845Y-4431445D01*
X-17081255Y-4480665D01*
X-17066147Y-4548881D01*
X-17090317Y-4614437D01*
X-17146093Y-4656518D01*
X-17189863Y-4664500D01*
X-50461958Y-4664500D01*
X-50528997Y-4644815D01*
X-50538120Y-4638353D01*
X-50666366Y-4538535D01*
X-50666372Y-4538531D01*
X-50870496Y-4428064D01*
X-50870505Y-4428061D01*
X-51090016Y-4352702D01*
X-51261718Y-4324050D01*
X-51318951Y-4314500D01*
X-51551049Y-4314500D01*
X-51596836Y-4322140D01*
X-51779985Y-4352702D01*
X-51999496Y-4428061D01*
X-51999505Y-4428064D01*
X-52203629Y-4538531D01*
X-52203635Y-4538535D01*
X-52386778Y-4681081D01*
X-52386781Y-4681084D01*
X-52543984Y-4851852D01*
X-52670925Y-5046151D01*
X-52686944Y-5082672D01*
X-52731900Y-5136158D01*
X-52798636Y-5156848D01*
X-52865964Y-5138173D01*
X-52912507Y-5086063D01*
X-52924500Y-5032862D01*
X-52924500Y-1166534D01*
X-52924501Y-1166530D01*
X-52964869Y-963587D01*
X-52964870Y-963580D01*
X-53044059Y-772402D01*
X-53044060Y-772400D01*
X-53044060Y-772399D01*
X-53096852Y-693390D01*
X-53117730Y-626713D01*
X-53099245Y-559333D01*
X-53047266Y-512643D01*
X-52993750Y-500500D01*
X-624500Y-500500D01*
X-557461Y-520185D01*
X-511706Y-572989D01*
X-500500Y-624500D01*
X-500500Y-47635500D01*
X-520185Y-47702539D01*
X-572989Y-47748294D01*
X-624500Y-47759500D01*
X-100975500Y-47759500D01*
X-101042539Y-47739815D01*
X-101088294Y-47687011D01*
X-101099500Y-47635500D01*
X-101099500Y-624500D01*
X-101079815Y-557461D01*
X-101027011Y-511706D01*
X-100975500Y-500500D01*
X-97501250Y-500500D01*
X-97434211Y-520185D01*
G37*
G04 #@! TD.AperFunction*
M02*
