M48
; DRILL file {KiCad 9.0.6} date 2025-12-13T07:39:41+0100
; FORMAT={-:-/ absolute / inch / decimal}
; #@! TF.CreationDate,2025-12-13T07:39:41+01:00
; #@! TF.GenerationSoftware,Kicad,Pcbnew,9.0.6
; #@! TF.FileFunction,MixedPlating,1,2
FMAT,2
INCH
; #@! TA.AperFunction,Plated,PTH,ComponentDrill
T1C0.0276
; #@! TA.AperFunction,Plated,PTH,ComponentDrill
T2C0.0295
; #@! TA.AperFunction,Plated,PTH,ComponentDrill
T3C0.0315
; #@! TA.AperFunction,Plated,PTH,ViaDrill
T4C0.0354
; #@! TA.AperFunction,Plated,PTH,ComponentDrill
T5C0.0354
; #@! TA.AperFunction,Plated,PTH,ComponentDrill
T6C0.0394
; #@! TA.AperFunction,Plated,PTH,ComponentDrill
T7C0.0433
; #@! TA.AperFunction,Plated,PTH,ComponentDrill
T8C0.0472
; #@! TA.AperFunction,Plated,PTH,ComponentDrill
T9C0.0492
; #@! TA.AperFunction,Plated,PTH,ComponentDrill
T10C0.0591
; #@! TA.AperFunction,NonPlated,NPTH,ComponentDrill
T11C0.0827
%
G90
G05
T1
X-2.32Y-1.82
X-2.32Y-2.12
X-1.9Y-0.71
X-1.63Y-1.0
X-1.6Y-0.71
X-1.33Y-1.0
X-1.02Y-2.41
X-1.02Y-2.71
X-0.93Y-2.91
X-0.9275Y-0.11
X-0.9275Y-0.2084
X-0.77Y-0.11
X-0.77Y-0.2084
X-0.63Y-2.91
X-0.6125Y-0.11
X-0.6125Y-0.2084
X-0.52Y-1.83
X-0.52Y-2.13
X-0.42Y-0.91
X-0.42Y-1.02
X-0.32Y-1.83
X-0.32Y-2.13
X-0.13Y-1.83
X-0.13Y-2.13
X-0.13Y-2.42
X-0.13Y-2.72
X-0.12Y-0.91
X-0.12Y-1.02
T2
X-0.63Y-2.52
X-0.63Y-2.57
X-0.63Y-2.62
T3
X-2.8184Y-1.2
X-2.6216Y-1.2
X-2.13Y-1.22
X-2.13Y-1.52
X-2.12Y-2.71
X-2.12Y-3.01
X-2.03Y-1.22
X-2.03Y-1.52
X-2.02Y-1.9116
X-2.02Y-2.1084
X-2.02Y-2.3216
X-2.02Y-2.5184
X-2.02Y-2.71
X-2.02Y-3.01
X-1.93Y-1.22
X-1.93Y-1.52
X-1.92Y-2.71
X-1.92Y-3.01
X-1.83Y-1.22
X-1.83Y-1.52
X-1.82Y-2.0
X-1.82Y-2.3116
X-1.82Y-2.5084
X-1.82Y-2.71
X-1.82Y-3.01
X-1.73Y-1.22
X-1.73Y-1.52
X-1.72Y-2.71
X-1.72Y-3.01
X-1.63Y-1.22
X-1.63Y-1.52
X-1.63Y-2.3216
X-1.63Y-2.5184
X-1.6271Y-2.0
X-1.62Y-2.71
X-1.62Y-3.01
X-1.53Y-1.22
X-1.53Y-1.52
X-1.52Y-2.71
X-1.52Y-3.01
X-1.43Y-1.22
X-1.43Y-1.52
X-1.42Y-1.9116
X-1.42Y-2.1084
X-1.42Y-2.3216
X-1.42Y-2.5184
X-1.42Y-2.71
X-1.42Y-3.01
X-1.33Y-1.22
X-1.33Y-1.52
X-1.23Y-1.22
X-1.23Y-1.52
X-1.13Y-1.22
X-1.13Y-1.52
X-1.03Y-1.22
X-1.03Y-1.52
X-1.02Y-1.83
X-1.02Y-2.13
X-0.93Y-1.22
X-0.93Y-1.52
X-0.83Y-1.22
X-0.83Y-1.52
X-0.82Y-1.82
X-0.82Y-2.12
X-0.63Y-1.2816
X-0.63Y-1.4784
X-0.4196Y-1.2196
X-0.4196Y-1.5196
X-0.32Y-2.47
X-0.32Y-2.57
X-0.32Y-2.67
X-0.3196Y-1.2196
X-0.3196Y-1.5196
X-0.2196Y-1.2196
X-0.2196Y-1.5196
X-0.1196Y-1.2196
X-0.1196Y-1.5196
T4
X-2.41Y-1.22
X-2.41Y-1.51
X-2.06Y-0.52
X-1.53Y-1.62
X-1.43Y-1.72
X-1.42Y-0.52
X-0.63Y-1.72
X-0.52Y-0.91
X-0.52Y-1.52
X-0.01Y-1.62
T5
X-1.86Y-1.0
X-1.76Y-1.0
T6
X-1.62Y-3.5
X-1.52Y-3.5
X-1.42Y-3.5
X-1.1176Y-1.02
X-0.8224Y-1.02
X-0.4276Y-0.71
X-0.1324Y-0.71
T7
X-2.878Y-0.7214
X-2.878Y-0.8986
X-2.845Y-2.935
X-2.745Y-2.935
X-2.645Y-2.935
X-2.622Y-0.7214
X-2.622Y-0.8986
T8
X-2.8169Y-1.76
X-2.62Y-1.76
X-0.9297Y-3.33
X-0.6344Y-3.33
T9
X-2.85Y-3.41
X-2.65Y-3.41
T10
X-1.085Y-0.1592
X-0.455Y-0.1592
T11
X-2.82Y-0.31
X-2.12Y-3.41
X-0.22Y-0.33
X-0.21Y-3.42
M30
