M48
; DRILL file {KiCad 8.0.6} date 2024-12-14T14:54:17+0100
; FORMAT={-:-/ absolute / inch / decimal}
; #@! TF.CreationDate,2024-12-14T14:54:17+01:00
; #@! TF.GenerationSoftware,Kicad,Pcbnew,8.0.6
; #@! TF.FileFunction,MixedPlating,1,2
FMAT,2
INCH
; #@! TA.AperFunction,Plated,PTH,ComponentDrill
T1C0.0315
; #@! TA.AperFunction,Plated,PTH,ComponentDrill
T2C0.0394
; #@! TA.AperFunction,Plated,PTH,ComponentDrill
T3C0.0472
; #@! TA.AperFunction,Plated,PTH,ComponentDrill
T4C0.0492
; #@! TA.AperFunction,NonPlated,NPTH,ComponentDrill
T5C0.1378
%
G90
G05
T1
X-4.45Y-0.2
X-4.45Y-0.3496
T2
X-4.17Y-0.1524
X-4.17Y-0.4476
X-4.0Y-0.2
X-4.0Y-1.2
X-4.0Y-2.2
X-3.9Y-0.2
X-3.9Y-1.2
X-3.9Y-2.2
X-3.8Y-0.2
X-3.8Y-1.2
X-3.8Y-2.2
X-3.7Y-0.2
X-3.7Y-1.2
X-3.7Y-2.2
X-3.6Y-0.2
X-3.6Y-1.2
X-3.6Y-2.2
X-3.5Y-0.2
X-3.5Y-1.2
X-3.5Y-2.2
X-3.4Y-0.2
X-3.4Y-1.2
X-3.4Y-2.2
X-3.3Y-0.2
X-3.3Y-1.2
X-3.3Y-2.2
X-3.2Y-0.2
X-3.2Y-1.2
X-3.2Y-2.2
X-3.1Y-0.2
X-3.1Y-1.2
X-3.1Y-2.2
X-3.0Y-0.2
X-3.0Y-1.2
X-3.0Y-2.2
X-2.9Y-0.2
X-2.9Y-1.2
X-2.9Y-2.2
X-2.8Y-0.2
X-2.8Y-1.2
X-2.8Y-2.2
X-2.7Y-0.2
X-2.7Y-1.2
X-2.7Y-2.2
X-2.6Y-0.2
X-2.6Y-1.2
X-2.6Y-2.2
X-2.5Y-0.2
X-2.5Y-1.2
X-2.5Y-2.2
X-2.4Y-0.2
X-2.4Y-1.2
X-2.4Y-2.2
X-2.3Y-0.2
X-2.3Y-1.2
X-2.3Y-2.2
X-2.2Y-0.2
X-2.2Y-1.2
X-2.2Y-2.2
X-2.1Y-0.2
X-2.1Y-1.2
X-2.1Y-2.2
X-2.0Y-0.2
X-2.0Y-1.2
X-2.0Y-2.2
X-1.9Y-0.2
X-1.9Y-1.2
X-1.9Y-2.2
X-1.8Y-0.2
X-1.8Y-1.2
X-1.8Y-2.2
X-1.7Y-0.2
X-1.7Y-1.2
X-1.7Y-2.2
X-1.6Y-0.2
X-1.6Y-1.2
X-1.6Y-2.2
X-1.5Y-0.2
X-1.5Y-1.2
X-1.5Y-2.2
X-1.4Y-0.2
X-1.4Y-1.2
X-1.4Y-2.2
X-1.3Y-0.2
X-1.3Y-1.2
X-1.3Y-2.2
X-1.2Y-0.2
X-1.2Y-1.2
X-1.2Y-2.2
X-1.1Y-0.2
X-1.1Y-1.2
X-1.1Y-2.2
X-1.0Y-0.2
X-1.0Y-1.2
X-1.0Y-2.2
X-0.9Y-0.2
X-0.9Y-1.2
X-0.9Y-2.2
X-0.8Y-0.2
X-0.8Y-1.2
X-0.8Y-2.2
X-0.7Y-0.2
X-0.7Y-1.2
X-0.7Y-2.2
X-0.6Y-0.2
X-0.6Y-1.2
X-0.6Y-2.2
X-0.5Y-0.2
X-0.5Y-1.2
X-0.5Y-2.2
X-0.4Y-0.2
X-0.4Y-1.2
X-0.4Y-2.2
X-0.3Y-0.2
X-0.3Y-1.2
X-0.3Y-2.2
X-0.2Y-0.2
X-0.2Y-1.2
X-0.2Y-2.2
X-0.1Y-0.2
X-0.1Y-1.2
X-0.1Y-2.2
T3
X-4.47Y-1.8563
X-4.37Y-1.8563
X-4.27Y-1.8563
T4
X-4.48Y-0.75
X-4.48Y-2.2
X-4.28Y-0.75
X-4.28Y-2.2
T5
X-4.37Y-1.2343
M30
