G04 #@! TF.GenerationSoftware,KiCad,Pcbnew,8.0.6*
G04 #@! TF.CreationDate,2024-12-14T14:54:13+01:00*
G04 #@! TF.ProjectId,rc6502_backplane,72633635-3032-45f6-9261-636b706c616e,rev?*
G04 #@! TF.SameCoordinates,PXc093510PY2455c20*
G04 #@! TF.FileFunction,Copper,L2,Bot*
G04 #@! TF.FilePolarity,Positive*
%FSLAX46Y46*%
G04 Gerber Fmt 4.6, Leading zero omitted, Abs format (unit mm)*
G04 Created by KiCad (PCBNEW 8.0.6) date 2024-12-14 14:54:13*
%MOMM*%
%LPD*%
G01*
G04 APERTURE LIST*
G04 #@! TA.AperFunction,ComponentPad*
%ADD10R,2.999740X2.999740*%
G04 #@! TD*
G04 #@! TA.AperFunction,ComponentPad*
%ADD11C,2.999740*%
G04 #@! TD*
G04 #@! TA.AperFunction,ComponentPad*
%ADD12R,1.700000X1.700000*%
G04 #@! TD*
G04 #@! TA.AperFunction,ComponentPad*
%ADD13O,1.700000X1.700000*%
G04 #@! TD*
G04 #@! TA.AperFunction,ComponentPad*
%ADD14R,1.905000X2.000000*%
G04 #@! TD*
G04 #@! TA.AperFunction,ComponentPad*
%ADD15O,1.905000X2.000000*%
G04 #@! TD*
G04 #@! TA.AperFunction,ComponentPad*
%ADD16C,2.000000*%
G04 #@! TD*
G04 #@! TA.AperFunction,ComponentPad*
%ADD17R,1.600000X1.600000*%
G04 #@! TD*
G04 #@! TA.AperFunction,ComponentPad*
%ADD18C,1.600000*%
G04 #@! TD*
G04 #@! TA.AperFunction,Conductor*
%ADD19C,1.000000*%
G04 #@! TD*
G04 #@! TA.AperFunction,Conductor*
%ADD20C,0.500000*%
G04 #@! TD*
G04 APERTURE END LIST*
D10*
G04 #@! TO.P,J5,1,Pin_1*
G04 #@! TO.N,VCC*
X-113792000Y-19050000D03*
D11*
G04 #@! TO.P,J5,2,Pin_2*
G04 #@! TO.N,GND*
X-108712000Y-19050000D03*
G04 #@! TD*
D12*
G04 #@! TO.P,J3,1,Pin_1*
G04 #@! TO.N,/P1*
X-101600000Y-30480000D03*
D13*
G04 #@! TO.P,J3,2,Pin_2*
G04 #@! TO.N,/P2*
X-99060000Y-30480000D03*
G04 #@! TO.P,J3,3,Pin_3*
G04 #@! TO.N,/P3*
X-96520000Y-30480000D03*
G04 #@! TO.P,J3,4,Pin_4*
G04 #@! TO.N,/P4*
X-93980000Y-30480000D03*
G04 #@! TO.P,J3,5,Pin_5*
G04 #@! TO.N,/P5*
X-91440000Y-30480000D03*
G04 #@! TO.P,J3,6,Pin_6*
G04 #@! TO.N,/P6*
X-88900000Y-30480000D03*
G04 #@! TO.P,J3,7,Pin_7*
G04 #@! TO.N,/P7*
X-86360000Y-30480000D03*
G04 #@! TO.P,J3,8,Pin_8*
G04 #@! TO.N,/P8*
X-83820000Y-30480000D03*
G04 #@! TO.P,J3,9,Pin_9*
G04 #@! TO.N,/P9*
X-81280000Y-30480000D03*
G04 #@! TO.P,J3,10,Pin_10*
G04 #@! TO.N,/P10*
X-78740000Y-30480000D03*
G04 #@! TO.P,J3,11,Pin_11*
G04 #@! TO.N,/P11*
X-76200000Y-30480000D03*
G04 #@! TO.P,J3,12,Pin_12*
G04 #@! TO.N,/P12*
X-73660000Y-30480000D03*
G04 #@! TO.P,J3,13,Pin_13*
G04 #@! TO.N,/P13*
X-71120000Y-30480000D03*
G04 #@! TO.P,J3,14,Pin_14*
G04 #@! TO.N,/P14*
X-68580000Y-30480000D03*
G04 #@! TO.P,J3,15,Pin_15*
G04 #@! TO.N,/P15*
X-66040000Y-30480000D03*
G04 #@! TO.P,J3,16,Pin_16*
G04 #@! TO.N,/P16*
X-63500000Y-30480000D03*
G04 #@! TO.P,J3,17,Pin_17*
G04 #@! TO.N,GND*
X-60960000Y-30480000D03*
G04 #@! TO.P,J3,18,Pin_18*
G04 #@! TO.N,VCC*
X-58420000Y-30480000D03*
G04 #@! TO.P,J3,19,Pin_19*
G04 #@! TO.N,/P19*
X-55880000Y-30480000D03*
G04 #@! TO.P,J3,20,Pin_20*
G04 #@! TO.N,/P20*
X-53340000Y-30480000D03*
G04 #@! TO.P,J3,21,Pin_21*
G04 #@! TO.N,/P21*
X-50800000Y-30480000D03*
G04 #@! TO.P,J3,22,Pin_22*
G04 #@! TO.N,/P22*
X-48260000Y-30480000D03*
G04 #@! TO.P,J3,23,Pin_23*
G04 #@! TO.N,/P23*
X-45720000Y-30480000D03*
G04 #@! TO.P,J3,24,Pin_24*
G04 #@! TO.N,/P24*
X-43180000Y-30480000D03*
G04 #@! TO.P,J3,25,Pin_25*
G04 #@! TO.N,/P25*
X-40640000Y-30480000D03*
G04 #@! TO.P,J3,26,Pin_26*
G04 #@! TO.N,/P26*
X-38100000Y-30480000D03*
G04 #@! TO.P,J3,27,Pin_27*
G04 #@! TO.N,/P27*
X-35560000Y-30480000D03*
G04 #@! TO.P,J3,28,Pin_28*
G04 #@! TO.N,/P28*
X-33020000Y-30480000D03*
G04 #@! TO.P,J3,29,Pin_29*
G04 #@! TO.N,/P29*
X-30480000Y-30480000D03*
G04 #@! TO.P,J3,30,Pin_30*
G04 #@! TO.N,/P30*
X-27940000Y-30480000D03*
G04 #@! TO.P,J3,31,Pin_31*
G04 #@! TO.N,/P31*
X-25400000Y-30480000D03*
G04 #@! TO.P,J3,32,Pin_32*
G04 #@! TO.N,/P32*
X-22860000Y-30480000D03*
G04 #@! TO.P,J3,33,Pin_33*
G04 #@! TO.N,/P33*
X-20320000Y-30480000D03*
G04 #@! TO.P,J3,34,Pin_34*
G04 #@! TO.N,/P34*
X-17780000Y-30480000D03*
G04 #@! TO.P,J3,35,Pin_35*
G04 #@! TO.N,/P35*
X-15240000Y-30480000D03*
G04 #@! TO.P,J3,36,Pin_36*
G04 #@! TO.N,/P36*
X-12700000Y-30480000D03*
G04 #@! TO.P,J3,37,Pin_37*
G04 #@! TO.N,/P37*
X-10160000Y-30480000D03*
G04 #@! TO.P,J3,38,Pin_38*
G04 #@! TO.N,/P38*
X-7620000Y-30480000D03*
G04 #@! TO.P,J3,39,Pin_39*
G04 #@! TO.N,/P39*
X-5080000Y-30480000D03*
G04 #@! TO.P,J3,40,Pin_40*
G04 #@! TO.N,/P40*
X-2540000Y-30480000D03*
G04 #@! TD*
D10*
G04 #@! TO.P,J1,1,Pin_1*
G04 #@! TO.N,VIN*
X-113792000Y-55880000D03*
D11*
G04 #@! TO.P,J1,2,Pin_2*
G04 #@! TO.N,GND*
X-108712000Y-55880000D03*
G04 #@! TD*
D14*
G04 #@! TO.P,U1,1,VI*
G04 #@! TO.N,VIN*
X-113538000Y-47150000D03*
D15*
G04 #@! TO.P,U1,2,GND*
G04 #@! TO.N,GND*
X-110998000Y-47150000D03*
G04 #@! TO.P,U1,3,VO*
G04 #@! TO.N,VCC*
X-108458000Y-47150000D03*
G04 #@! TD*
D12*
G04 #@! TO.P,J2,1,Pin_1*
G04 #@! TO.N,/P1*
X-101600000Y-55880000D03*
D13*
G04 #@! TO.P,J2,2,Pin_2*
G04 #@! TO.N,/P2*
X-99060000Y-55880000D03*
G04 #@! TO.P,J2,3,Pin_3*
G04 #@! TO.N,/P3*
X-96520000Y-55880000D03*
G04 #@! TO.P,J2,4,Pin_4*
G04 #@! TO.N,/P4*
X-93980000Y-55880000D03*
G04 #@! TO.P,J2,5,Pin_5*
G04 #@! TO.N,/P5*
X-91440000Y-55880000D03*
G04 #@! TO.P,J2,6,Pin_6*
G04 #@! TO.N,/P6*
X-88900000Y-55880000D03*
G04 #@! TO.P,J2,7,Pin_7*
G04 #@! TO.N,/P7*
X-86360000Y-55880000D03*
G04 #@! TO.P,J2,8,Pin_8*
G04 #@! TO.N,/P8*
X-83820000Y-55880000D03*
G04 #@! TO.P,J2,9,Pin_9*
G04 #@! TO.N,/P9*
X-81280000Y-55880000D03*
G04 #@! TO.P,J2,10,Pin_10*
G04 #@! TO.N,/P10*
X-78740000Y-55880000D03*
G04 #@! TO.P,J2,11,Pin_11*
G04 #@! TO.N,/P11*
X-76200000Y-55880000D03*
G04 #@! TO.P,J2,12,Pin_12*
G04 #@! TO.N,/P12*
X-73660000Y-55880000D03*
G04 #@! TO.P,J2,13,Pin_13*
G04 #@! TO.N,/P13*
X-71120000Y-55880000D03*
G04 #@! TO.P,J2,14,Pin_14*
G04 #@! TO.N,/P14*
X-68580000Y-55880000D03*
G04 #@! TO.P,J2,15,Pin_15*
G04 #@! TO.N,/P15*
X-66040000Y-55880000D03*
G04 #@! TO.P,J2,16,Pin_16*
G04 #@! TO.N,/P16*
X-63500000Y-55880000D03*
G04 #@! TO.P,J2,17,Pin_17*
G04 #@! TO.N,GND*
X-60960000Y-55880000D03*
G04 #@! TO.P,J2,18,Pin_18*
G04 #@! TO.N,VCC*
X-58420000Y-55880000D03*
G04 #@! TO.P,J2,19,Pin_19*
G04 #@! TO.N,/P19*
X-55880000Y-55880000D03*
G04 #@! TO.P,J2,20,Pin_20*
G04 #@! TO.N,/P20*
X-53340000Y-55880000D03*
G04 #@! TO.P,J2,21,Pin_21*
G04 #@! TO.N,/P21*
X-50800000Y-55880000D03*
G04 #@! TO.P,J2,22,Pin_22*
G04 #@! TO.N,/P22*
X-48260000Y-55880000D03*
G04 #@! TO.P,J2,23,Pin_23*
G04 #@! TO.N,/P23*
X-45720000Y-55880000D03*
G04 #@! TO.P,J2,24,Pin_24*
G04 #@! TO.N,/P24*
X-43180000Y-55880000D03*
G04 #@! TO.P,J2,25,Pin_25*
G04 #@! TO.N,/P25*
X-40640000Y-55880000D03*
G04 #@! TO.P,J2,26,Pin_26*
G04 #@! TO.N,/P26*
X-38100000Y-55880000D03*
G04 #@! TO.P,J2,27,Pin_27*
G04 #@! TO.N,/P27*
X-35560000Y-55880000D03*
G04 #@! TO.P,J2,28,Pin_28*
G04 #@! TO.N,/P28*
X-33020000Y-55880000D03*
G04 #@! TO.P,J2,29,Pin_29*
G04 #@! TO.N,/P29*
X-30480000Y-55880000D03*
G04 #@! TO.P,J2,30,Pin_30*
G04 #@! TO.N,/P30*
X-27940000Y-55880000D03*
G04 #@! TO.P,J2,31,Pin_31*
G04 #@! TO.N,/P31*
X-25400000Y-55880000D03*
G04 #@! TO.P,J2,32,Pin_32*
G04 #@! TO.N,/P32*
X-22860000Y-55880000D03*
G04 #@! TO.P,J2,33,Pin_33*
G04 #@! TO.N,/P33*
X-20320000Y-55880000D03*
G04 #@! TO.P,J2,34,Pin_34*
G04 #@! TO.N,/P34*
X-17780000Y-55880000D03*
G04 #@! TO.P,J2,35,Pin_35*
G04 #@! TO.N,/P35*
X-15240000Y-55880000D03*
G04 #@! TO.P,J2,36,Pin_36*
G04 #@! TO.N,/P36*
X-12700000Y-55880000D03*
G04 #@! TO.P,J2,37,Pin_37*
G04 #@! TO.N,/P37*
X-10160000Y-55880000D03*
G04 #@! TO.P,J2,38,Pin_38*
G04 #@! TO.N,/P38*
X-7620000Y-55880000D03*
G04 #@! TO.P,J2,39,Pin_39*
G04 #@! TO.N,/P39*
X-5080000Y-55880000D03*
G04 #@! TO.P,J2,40,Pin_40*
G04 #@! TO.N,/P40*
X-2540000Y-55880000D03*
G04 #@! TD*
D16*
G04 #@! TO.P,C1,1*
G04 #@! TO.N,VCC*
X-105918000Y-3870000D03*
G04 #@! TO.P,C1,2*
G04 #@! TO.N,GND*
X-105918000Y-11370000D03*
G04 #@! TD*
D12*
G04 #@! TO.P,J4,1,Pin_1*
G04 #@! TO.N,/P1*
X-101600000Y-5080000D03*
D13*
G04 #@! TO.P,J4,2,Pin_2*
G04 #@! TO.N,/P2*
X-99060000Y-5080000D03*
G04 #@! TO.P,J4,3,Pin_3*
G04 #@! TO.N,/P3*
X-96520000Y-5080000D03*
G04 #@! TO.P,J4,4,Pin_4*
G04 #@! TO.N,/P4*
X-93980000Y-5080000D03*
G04 #@! TO.P,J4,5,Pin_5*
G04 #@! TO.N,/P5*
X-91440000Y-5080000D03*
G04 #@! TO.P,J4,6,Pin_6*
G04 #@! TO.N,/P6*
X-88900000Y-5080000D03*
G04 #@! TO.P,J4,7,Pin_7*
G04 #@! TO.N,/P7*
X-86360000Y-5080000D03*
G04 #@! TO.P,J4,8,Pin_8*
G04 #@! TO.N,/P8*
X-83820000Y-5080000D03*
G04 #@! TO.P,J4,9,Pin_9*
G04 #@! TO.N,/P9*
X-81280000Y-5080000D03*
G04 #@! TO.P,J4,10,Pin_10*
G04 #@! TO.N,/P10*
X-78740000Y-5080000D03*
G04 #@! TO.P,J4,11,Pin_11*
G04 #@! TO.N,/P11*
X-76200000Y-5080000D03*
G04 #@! TO.P,J4,12,Pin_12*
G04 #@! TO.N,/P12*
X-73660000Y-5080000D03*
G04 #@! TO.P,J4,13,Pin_13*
G04 #@! TO.N,/P13*
X-71120000Y-5080000D03*
G04 #@! TO.P,J4,14,Pin_14*
G04 #@! TO.N,/P14*
X-68580000Y-5080000D03*
G04 #@! TO.P,J4,15,Pin_15*
G04 #@! TO.N,/P15*
X-66040000Y-5080000D03*
G04 #@! TO.P,J4,16,Pin_16*
G04 #@! TO.N,/P16*
X-63500000Y-5080000D03*
G04 #@! TO.P,J4,17,Pin_17*
G04 #@! TO.N,GND*
X-60960000Y-5080000D03*
G04 #@! TO.P,J4,18,Pin_18*
G04 #@! TO.N,VCC*
X-58420000Y-5080000D03*
G04 #@! TO.P,J4,19,Pin_19*
G04 #@! TO.N,/P19*
X-55880000Y-5080000D03*
G04 #@! TO.P,J4,20,Pin_20*
G04 #@! TO.N,/P20*
X-53340000Y-5080000D03*
G04 #@! TO.P,J4,21,Pin_21*
G04 #@! TO.N,/P21*
X-50800000Y-5080000D03*
G04 #@! TO.P,J4,22,Pin_22*
G04 #@! TO.N,/P22*
X-48260000Y-5080000D03*
G04 #@! TO.P,J4,23,Pin_23*
G04 #@! TO.N,/P23*
X-45720000Y-5080000D03*
G04 #@! TO.P,J4,24,Pin_24*
G04 #@! TO.N,/P24*
X-43180000Y-5080000D03*
G04 #@! TO.P,J4,25,Pin_25*
G04 #@! TO.N,/P25*
X-40640000Y-5080000D03*
G04 #@! TO.P,J4,26,Pin_26*
G04 #@! TO.N,/P26*
X-38100000Y-5080000D03*
G04 #@! TO.P,J4,27,Pin_27*
G04 #@! TO.N,/P27*
X-35560000Y-5080000D03*
G04 #@! TO.P,J4,28,Pin_28*
G04 #@! TO.N,/P28*
X-33020000Y-5080000D03*
G04 #@! TO.P,J4,29,Pin_29*
G04 #@! TO.N,/P29*
X-30480000Y-5080000D03*
G04 #@! TO.P,J4,30,Pin_30*
G04 #@! TO.N,/P30*
X-27940000Y-5080000D03*
G04 #@! TO.P,J4,31,Pin_31*
G04 #@! TO.N,/P31*
X-25400000Y-5080000D03*
G04 #@! TO.P,J4,32,Pin_32*
G04 #@! TO.N,/P32*
X-22860000Y-5080000D03*
G04 #@! TO.P,J4,33,Pin_33*
G04 #@! TO.N,/P33*
X-20320000Y-5080000D03*
G04 #@! TO.P,J4,34,Pin_34*
G04 #@! TO.N,/P34*
X-17780000Y-5080000D03*
G04 #@! TO.P,J4,35,Pin_35*
G04 #@! TO.N,/P35*
X-15240000Y-5080000D03*
G04 #@! TO.P,J4,36,Pin_36*
G04 #@! TO.N,/P36*
X-12700000Y-5080000D03*
G04 #@! TO.P,J4,37,Pin_37*
G04 #@! TO.N,/P37*
X-10160000Y-5080000D03*
G04 #@! TO.P,J4,38,Pin_38*
G04 #@! TO.N,/P38*
X-7620000Y-5080000D03*
G04 #@! TO.P,J4,39,Pin_39*
G04 #@! TO.N,/P39*
X-5080000Y-5080000D03*
G04 #@! TO.P,J4,40,Pin_40*
G04 #@! TO.N,/P40*
X-2540000Y-5080000D03*
G04 #@! TD*
D17*
G04 #@! TO.P,C2,1*
G04 #@! TO.N,VCC*
X-113030000Y-5080000D03*
D18*
G04 #@! TO.P,C2,2*
G04 #@! TO.N,GND*
X-113030000Y-8880000D03*
G04 #@! TD*
D19*
G04 #@! TO.N,GND*
X-113030000Y-8880000D02*
X-109210000Y-12700000D01*
X-109210000Y-12700000D02*
X-108458000Y-12700000D01*
G04 #@! TO.N,VCC*
X-113030000Y-5080000D02*
X-113030000Y-3032000D01*
X-113030000Y-3032000D02*
X-110998000Y-1000000D01*
X-113792000Y-19050000D02*
X-114808000Y-19050000D01*
X-116078000Y-17780000D02*
X-116078000Y-6858000D01*
X-114808000Y-19050000D02*
X-116078000Y-17780000D01*
X-116078000Y-6858000D02*
X-114300000Y-5080000D01*
X-114300000Y-5080000D02*
X-113030000Y-5080000D01*
G04 #@! TO.N,GND*
X-105156000Y-59436000D02*
X-104902000Y-59690000D01*
X-104902000Y-59690000D02*
X-60960000Y-59690000D01*
X-60960000Y-59690000D02*
X-60960000Y-55880000D01*
G04 #@! TO.N,VCC*
X-58420000Y-5080000D02*
X-58420000Y-2540000D01*
X-58420000Y-2540000D02*
X-58424000Y-2536000D01*
X-58424000Y-1648000D02*
X-59072000Y-1000000D01*
X-58424000Y-2536000D02*
X-58424000Y-1648000D01*
X-59072000Y-1000000D02*
X-110998000Y-1000000D01*
G04 #@! TO.N,GND*
X-110998000Y-47150000D02*
X-110998000Y-53594000D01*
X-110998000Y-53594000D02*
X-108712000Y-55880000D01*
G04 #@! TO.N,VCC*
X-113792000Y-19050000D02*
X-113792000Y-34036000D01*
X-105918000Y-1330000D02*
X-105918000Y-3870000D01*
G04 #@! TO.N,GND*
X-105918000Y-11370000D02*
X-107248000Y-12700000D01*
X-107248000Y-12700000D02*
X-108458000Y-12700000D01*
X-108712000Y-12954000D02*
X-108458000Y-12700000D01*
X-108712000Y-19050000D02*
X-108712000Y-12954000D01*
X-108712000Y-55880000D02*
X-104648000Y-51816000D01*
X-104648000Y-51816000D02*
X-104648000Y-23114000D01*
X-104648000Y-23114000D02*
X-108712000Y-19050000D01*
G04 #@! TO.N,VIN*
X-113792000Y-47404000D02*
X-113538000Y-47150000D01*
X-113792000Y-55880000D02*
X-113792000Y-47404000D01*
D20*
G04 #@! TO.N,/P10*
X-78740000Y-5080000D02*
X-78740000Y-30480000D01*
X-78740000Y-55880000D02*
X-78740000Y-30480000D01*
G04 #@! TO.N,/P21*
X-50800000Y-5080000D02*
X-50800000Y-30480000D01*
X-50800000Y-55880000D02*
X-50800000Y-30480000D01*
G04 #@! TO.N,/P23*
X-45720000Y-5080000D02*
X-45720000Y-30480000D01*
X-45720000Y-55880000D02*
X-45720000Y-30480000D01*
G04 #@! TO.N,/P33*
X-20320000Y-5080000D02*
X-20320000Y-30480000D01*
X-20320000Y-55880000D02*
X-20320000Y-30480000D01*
G04 #@! TO.N,/P20*
X-53340000Y-5080000D02*
X-53340000Y-30480000D01*
X-53340000Y-55880000D02*
X-53340000Y-30480000D01*
G04 #@! TO.N,/P7*
X-86360000Y-5080000D02*
X-86360000Y-30480000D01*
X-86360000Y-55880000D02*
X-86360000Y-30480000D01*
G04 #@! TO.N,/P24*
X-43180000Y-5080000D02*
X-43180000Y-30480000D01*
X-43180000Y-55880000D02*
X-43180000Y-30480000D01*
G04 #@! TO.N,/P4*
X-93980000Y-5080000D02*
X-93980000Y-30480000D01*
X-93980000Y-55880000D02*
X-93980000Y-30480000D01*
G04 #@! TO.N,/P8*
X-83820000Y-5080000D02*
X-83820000Y-30480000D01*
X-83820000Y-55880000D02*
X-83820000Y-30480000D01*
G04 #@! TO.N,/P3*
X-96520000Y-5080000D02*
X-96520000Y-30480000D01*
X-96520000Y-55880000D02*
X-96520000Y-30480000D01*
G04 #@! TO.N,/P27*
X-35560000Y-5080000D02*
X-35560000Y-30480000D01*
X-35560000Y-55880000D02*
X-35560000Y-30480000D01*
G04 #@! TO.N,/P25*
X-40640000Y-5080000D02*
X-40640000Y-30480000D01*
X-40640000Y-55880000D02*
X-40640000Y-30480000D01*
G04 #@! TO.N,/P39*
X-5080000Y-5080000D02*
X-5080000Y-30480000D01*
X-5080000Y-55880000D02*
X-5080000Y-30480000D01*
G04 #@! TO.N,/P32*
X-22860000Y-5080000D02*
X-22860000Y-30480000D01*
X-22860000Y-55880000D02*
X-22860000Y-30480000D01*
G04 #@! TO.N,/P6*
X-88900000Y-5080000D02*
X-88900000Y-30480000D01*
X-88900000Y-55880000D02*
X-88900000Y-30480000D01*
G04 #@! TO.N,/P37*
X-10160000Y-5080000D02*
X-10160000Y-30480000D01*
X-10160000Y-55880000D02*
X-10160000Y-30480000D01*
G04 #@! TO.N,/P9*
X-81280000Y-5080000D02*
X-81280000Y-30480000D01*
X-81280000Y-55880000D02*
X-81280000Y-30480000D01*
G04 #@! TO.N,/P11*
X-76200000Y-5080000D02*
X-76200000Y-30480000D01*
X-76200000Y-55880000D02*
X-76200000Y-30480000D01*
G04 #@! TO.N,/P40*
X-2540000Y-5080000D02*
X-2540000Y-30480000D01*
X-2540000Y-55880000D02*
X-2540000Y-30480000D01*
G04 #@! TO.N,/P28*
X-33020000Y-5080000D02*
X-33020000Y-30480000D01*
X-33020000Y-55880000D02*
X-33020000Y-30480000D01*
G04 #@! TO.N,/P2*
X-99060000Y-5080000D02*
X-99060000Y-30480000D01*
X-99060000Y-55880000D02*
X-99060000Y-30480000D01*
G04 #@! TO.N,/P34*
X-17780000Y-5080000D02*
X-17780000Y-30480000D01*
X-17780000Y-55880000D02*
X-17780000Y-30480000D01*
G04 #@! TO.N,/P35*
X-15240000Y-5080000D02*
X-15240000Y-30480000D01*
X-15240000Y-55880000D02*
X-15240000Y-30480000D01*
G04 #@! TO.N,/P26*
X-38100000Y-5080000D02*
X-38100000Y-30480000D01*
X-38100000Y-55880000D02*
X-38100000Y-30480000D01*
G04 #@! TO.N,/P14*
X-68580000Y-5080000D02*
X-68580000Y-30480000D01*
X-68580000Y-55880000D02*
X-68580000Y-30480000D01*
G04 #@! TO.N,/P38*
X-7620000Y-5080000D02*
X-7620000Y-30480000D01*
X-7620000Y-55880000D02*
X-7620000Y-30480000D01*
G04 #@! TO.N,/P12*
X-73660000Y-5080000D02*
X-73660000Y-30480000D01*
X-73660000Y-55880000D02*
X-73660000Y-30480000D01*
G04 #@! TO.N,/P36*
X-12700000Y-5080000D02*
X-12700000Y-30480000D01*
X-12700000Y-55880000D02*
X-12700000Y-30480000D01*
G04 #@! TO.N,/P13*
X-71120000Y-5080000D02*
X-71120000Y-30480000D01*
X-71120000Y-55880000D02*
X-71120000Y-30480000D01*
G04 #@! TO.N,/P22*
X-48260000Y-5080000D02*
X-48260000Y-30480000D01*
X-48260000Y-55880000D02*
X-48260000Y-30480000D01*
G04 #@! TO.N,/P29*
X-30480000Y-5080000D02*
X-30480000Y-30480000D01*
X-30480000Y-55880000D02*
X-30480000Y-30480000D01*
G04 #@! TO.N,/P16*
X-63500000Y-5080000D02*
X-63500000Y-30480000D01*
X-63500000Y-55880000D02*
X-63500000Y-30480000D01*
G04 #@! TO.N,/P5*
X-91440000Y-5080000D02*
X-91440000Y-30480000D01*
X-91440000Y-55880000D02*
X-91440000Y-30480000D01*
G04 #@! TO.N,/P31*
X-25400000Y-5080000D02*
X-25400000Y-30480000D01*
X-25400000Y-55880000D02*
X-25400000Y-30480000D01*
G04 #@! TO.N,/P1*
X-101600000Y-5080000D02*
X-101600000Y-30480000D01*
X-101600000Y-55880000D02*
X-101600000Y-30480000D01*
G04 #@! TO.N,/P15*
X-66040000Y-5080000D02*
X-66040000Y-30480000D01*
X-66040000Y-55880000D02*
X-66040000Y-30480000D01*
G04 #@! TO.N,/P30*
X-27940000Y-5080000D02*
X-27940000Y-30480000D01*
X-27940000Y-55880000D02*
X-27940000Y-30480000D01*
G04 #@! TO.N,/P19*
X-55880000Y-5080000D02*
X-55880000Y-30480000D01*
X-55880000Y-55880000D02*
X-55880000Y-30480000D01*
D19*
G04 #@! TO.N,GND*
X-108712000Y-55880000D02*
X-104902000Y-59690000D01*
X-108712000Y-20066000D02*
X-108712000Y-17780000D01*
X-108498000Y-17994000D02*
X-108712000Y-17780000D01*
X-60960000Y-55880000D02*
X-60960000Y-30480000D01*
X-60960000Y-5080000D02*
X-60960000Y-30480000D01*
G04 #@! TO.N,VCC*
X-108458000Y-39370000D02*
X-113792000Y-34036000D01*
X-108458000Y-47150000D02*
X-108458000Y-39370000D01*
X-58420000Y-5080000D02*
X-58420000Y-30480000D01*
X-58420000Y-55880000D02*
X-58420000Y-30480000D01*
G04 #@! TD*
G04 #@! TA.AperFunction,NonConductor*
G36*
X-112570008Y-520185D02*
G01*
X-112524253Y-572989D01*
X-112514309Y-642147D01*
X-112543334Y-705703D01*
X-112549366Y-712181D01*
X-114021964Y-2184778D01*
X-114142284Y-2350384D01*
X-114142286Y-2350387D01*
X-114184709Y-2433648D01*
X-114235219Y-2532776D01*
X-114298478Y-2727465D01*
X-114330500Y-2929648D01*
X-114330500Y-3597059D01*
X-114350185Y-3664098D01*
X-114366819Y-3684740D01*
X-114444235Y-3762156D01*
X-114505558Y-3795641D01*
X-114512516Y-3796948D01*
X-114546622Y-3802350D01*
X-114560048Y-3804477D01*
X-114560049Y-3804477D01*
X-114604536Y-3811523D01*
X-114799216Y-3874777D01*
X-114799219Y-3874778D01*
X-114981112Y-3967459D01*
X-114981603Y-3967708D01*
X-114981609Y-3967712D01*
X-115147220Y-4088034D01*
X-116127819Y-5068634D01*
X-116189142Y-5102119D01*
X-116258834Y-5097135D01*
X-116314767Y-5055263D01*
X-116339184Y-4989799D01*
X-116339500Y-4980953D01*
X-116339500Y-624500D01*
X-116319815Y-557461D01*
X-116267011Y-511706D01*
X-116215500Y-500500D01*
X-112637047Y-500500D01*
X-112570008Y-520185D01*
G37*
G04 #@! TD.AperFunction*
G04 #@! TA.AperFunction,NonConductor*
G36*
X-100166401Y-6594317D02*
G01*
X-100121187Y-6647585D01*
X-100110500Y-6697944D01*
X-100110500Y-28862055D01*
X-100130185Y-28929094D01*
X-100182989Y-28974849D01*
X-100252147Y-28984793D01*
X-100300472Y-28967049D01*
X-100400476Y-28904212D01*
X-100400477Y-28904211D01*
X-100466456Y-28881124D01*
X-100523231Y-28840402D01*
X-100548978Y-28775449D01*
X-100549500Y-28764083D01*
X-100549500Y-6795917D01*
X-100529815Y-6728878D01*
X-100477011Y-6683123D01*
X-100466454Y-6678875D01*
X-100464235Y-6678098D01*
X-100400478Y-6655789D01*
X-100300472Y-6592950D01*
X-100233236Y-6573950D01*
X-100166401Y-6594317D01*
G37*
G04 #@! TD.AperFunction*
G04 #@! TA.AperFunction,NonConductor*
G36*
X-107275461Y-2320185D02*
G01*
X-107229706Y-2372989D01*
X-107218500Y-2424500D01*
X-107218500Y-2569608D01*
X-107238185Y-2636647D01*
X-107245552Y-2646918D01*
X-107258859Y-2663606D01*
X-107409815Y-2852898D01*
X-107544742Y-3086599D01*
X-107544744Y-3086603D01*
X-107643334Y-3337804D01*
X-107643336Y-3337811D01*
X-107703384Y-3600898D01*
X-107723549Y-3869995D01*
X-107723549Y-3870004D01*
X-107703384Y-4139101D01*
X-107681485Y-4235046D01*
X-107643334Y-4402195D01*
X-107544743Y-4653398D01*
X-107409815Y-4887102D01*
X-107275711Y-5055263D01*
X-107241558Y-5098089D01*
X-107054817Y-5271358D01*
X-107043741Y-5281635D01*
X-106820774Y-5433651D01*
X-106577641Y-5550738D01*
X-106319772Y-5630280D01*
X-106319771Y-5630280D01*
X-106319768Y-5630281D01*
X-106052937Y-5670499D01*
X-106052932Y-5670499D01*
X-106052929Y-5670500D01*
X-106052928Y-5670500D01*
X-105783072Y-5670500D01*
X-105783071Y-5670500D01*
X-105783064Y-5670499D01*
X-105516233Y-5630281D01*
X-105516232Y-5630280D01*
X-105516228Y-5630280D01*
X-105258359Y-5550738D01*
X-105015225Y-5433651D01*
X-104792259Y-5281635D01*
X-104638741Y-5139190D01*
X-104594443Y-5098089D01*
X-104594443Y-5098087D01*
X-104594439Y-5098085D01*
X-104426185Y-4887102D01*
X-104291257Y-4653398D01*
X-104192666Y-4402195D01*
X-104132617Y-4139103D01*
X-104125895Y-4049402D01*
X-104112451Y-3870004D01*
X-104112451Y-3869995D01*
X-104132617Y-3600898D01*
X-104150654Y-3521872D01*
X-104192666Y-3337805D01*
X-104291257Y-3086602D01*
X-104426185Y-2852898D01*
X-104590448Y-2646920D01*
X-104616855Y-2582234D01*
X-104617500Y-2569608D01*
X-104617500Y-2424500D01*
X-104597815Y-2357461D01*
X-104545011Y-2311706D01*
X-104493500Y-2300500D01*
X-59848500Y-2300500D01*
X-59781461Y-2320185D01*
X-59735706Y-2372989D01*
X-59724500Y-2424500D01*
X-59724500Y-2638351D01*
X-59722027Y-2653965D01*
X-59720500Y-2673363D01*
X-59720500Y-3699104D01*
X-59740185Y-3766143D01*
X-59792989Y-3811898D01*
X-59862147Y-3821842D01*
X-59925031Y-3793395D01*
X-59956939Y-3766143D01*
X-59986860Y-3740588D01*
X-60208372Y-3604846D01*
X-60208373Y-3604845D01*
X-60208377Y-3604843D01*
X-60374373Y-3536086D01*
X-60448390Y-3505427D01*
X-60448389Y-3505427D01*
X-60586079Y-3472370D01*
X-60701006Y-3444779D01*
X-60701008Y-3444778D01*
X-60701009Y-3444778D01*
X-60960000Y-3424396D01*
X-61218991Y-3444778D01*
X-61471611Y-3505427D01*
X-61711624Y-3604843D01*
X-61933141Y-3740588D01*
X-62096928Y-3880476D01*
X-62130689Y-3909311D01*
X-62135713Y-3915193D01*
X-62194219Y-3953383D01*
X-62264087Y-3953881D01*
X-62323132Y-3916526D01*
X-62324233Y-3915256D01*
X-62329311Y-3909311D01*
X-62526860Y-3740588D01*
X-62748372Y-3604846D01*
X-62748373Y-3604845D01*
X-62748377Y-3604843D01*
X-62914373Y-3536086D01*
X-62988390Y-3505427D01*
X-62988389Y-3505427D01*
X-63126079Y-3472370D01*
X-63241006Y-3444779D01*
X-63241008Y-3444778D01*
X-63241009Y-3444778D01*
X-63500000Y-3424396D01*
X-63758991Y-3444778D01*
X-64011611Y-3505427D01*
X-64251624Y-3604843D01*
X-64473141Y-3740588D01*
X-64636928Y-3880476D01*
X-64670689Y-3909311D01*
X-64675713Y-3915193D01*
X-64734219Y-3953383D01*
X-64804087Y-3953881D01*
X-64863132Y-3916526D01*
X-64864233Y-3915256D01*
X-64869311Y-3909311D01*
X-65066860Y-3740588D01*
X-65288372Y-3604846D01*
X-65288373Y-3604845D01*
X-65288377Y-3604843D01*
X-65454373Y-3536086D01*
X-65528390Y-3505427D01*
X-65528389Y-3505427D01*
X-65666079Y-3472370D01*
X-65781006Y-3444779D01*
X-65781008Y-3444778D01*
X-65781009Y-3444778D01*
X-66040000Y-3424396D01*
X-66298991Y-3444778D01*
X-66551611Y-3505427D01*
X-66791624Y-3604843D01*
X-67013141Y-3740588D01*
X-67176928Y-3880476D01*
X-67210689Y-3909311D01*
X-67215713Y-3915193D01*
X-67274219Y-3953383D01*
X-67344087Y-3953881D01*
X-67403132Y-3916526D01*
X-67404233Y-3915256D01*
X-67409311Y-3909311D01*
X-67606860Y-3740588D01*
X-67828372Y-3604846D01*
X-67828373Y-3604845D01*
X-67828377Y-3604843D01*
X-67994373Y-3536086D01*
X-68068390Y-3505427D01*
X-68068389Y-3505427D01*
X-68206079Y-3472370D01*
X-68321006Y-3444779D01*
X-68321008Y-3444778D01*
X-68321009Y-3444778D01*
X-68580000Y-3424396D01*
X-68838991Y-3444778D01*
X-69091611Y-3505427D01*
X-69331624Y-3604843D01*
X-69553141Y-3740588D01*
X-69716928Y-3880476D01*
X-69750689Y-3909311D01*
X-69755713Y-3915193D01*
X-69814219Y-3953383D01*
X-69884087Y-3953881D01*
X-69943132Y-3916526D01*
X-69944233Y-3915256D01*
X-69949311Y-3909311D01*
X-70146860Y-3740588D01*
X-70368372Y-3604846D01*
X-70368373Y-3604845D01*
X-70368377Y-3604843D01*
X-70534373Y-3536086D01*
X-70608390Y-3505427D01*
X-70608389Y-3505427D01*
X-70746079Y-3472370D01*
X-70861006Y-3444779D01*
X-70861008Y-3444778D01*
X-70861009Y-3444778D01*
X-71120000Y-3424396D01*
X-71378991Y-3444778D01*
X-71631611Y-3505427D01*
X-71871624Y-3604843D01*
X-72093141Y-3740588D01*
X-72256928Y-3880476D01*
X-72290689Y-3909311D01*
X-72295713Y-3915193D01*
X-72354219Y-3953383D01*
X-72424087Y-3953881D01*
X-72483132Y-3916526D01*
X-72484233Y-3915256D01*
X-72489311Y-3909311D01*
X-72686860Y-3740588D01*
X-72908372Y-3604846D01*
X-72908373Y-3604845D01*
X-72908377Y-3604843D01*
X-73074373Y-3536086D01*
X-73148390Y-3505427D01*
X-73148389Y-3505427D01*
X-73286079Y-3472370D01*
X-73401006Y-3444779D01*
X-73401008Y-3444778D01*
X-73401009Y-3444778D01*
X-73660000Y-3424396D01*
X-73918991Y-3444778D01*
X-74171611Y-3505427D01*
X-74411624Y-3604843D01*
X-74633141Y-3740588D01*
X-74796928Y-3880476D01*
X-74830689Y-3909311D01*
X-74835713Y-3915193D01*
X-74894219Y-3953383D01*
X-74964087Y-3953881D01*
X-75023132Y-3916526D01*
X-75024233Y-3915256D01*
X-75029311Y-3909311D01*
X-75226860Y-3740588D01*
X-75448372Y-3604846D01*
X-75448373Y-3604845D01*
X-75448377Y-3604843D01*
X-75614373Y-3536086D01*
X-75688390Y-3505427D01*
X-75688389Y-3505427D01*
X-75826079Y-3472370D01*
X-75941006Y-3444779D01*
X-75941008Y-3444778D01*
X-75941009Y-3444778D01*
X-76200000Y-3424396D01*
X-76458991Y-3444778D01*
X-76711611Y-3505427D01*
X-76951624Y-3604843D01*
X-77173141Y-3740588D01*
X-77336928Y-3880476D01*
X-77370689Y-3909311D01*
X-77375713Y-3915193D01*
X-77434219Y-3953383D01*
X-77504087Y-3953881D01*
X-77563132Y-3916526D01*
X-77564233Y-3915256D01*
X-77569311Y-3909311D01*
X-77766860Y-3740588D01*
X-77988372Y-3604846D01*
X-77988373Y-3604845D01*
X-77988377Y-3604843D01*
X-78154373Y-3536086D01*
X-78228390Y-3505427D01*
X-78228389Y-3505427D01*
X-78366079Y-3472370D01*
X-78481006Y-3444779D01*
X-78481008Y-3444778D01*
X-78481009Y-3444778D01*
X-78740000Y-3424396D01*
X-78998991Y-3444778D01*
X-79251611Y-3505427D01*
X-79491624Y-3604843D01*
X-79713141Y-3740588D01*
X-79876928Y-3880476D01*
X-79910689Y-3909311D01*
X-79915713Y-3915193D01*
X-79974219Y-3953383D01*
X-80044087Y-3953881D01*
X-80103132Y-3916526D01*
X-80104233Y-3915256D01*
X-80109311Y-3909311D01*
X-80306860Y-3740588D01*
X-80528372Y-3604846D01*
X-80528373Y-3604845D01*
X-80528377Y-3604843D01*
X-80694373Y-3536086D01*
X-80768390Y-3505427D01*
X-80768389Y-3505427D01*
X-80906079Y-3472370D01*
X-81021006Y-3444779D01*
X-81021008Y-3444778D01*
X-81021009Y-3444778D01*
X-81280000Y-3424396D01*
X-81538991Y-3444778D01*
X-81791611Y-3505427D01*
X-82031624Y-3604843D01*
X-82253141Y-3740588D01*
X-82416928Y-3880476D01*
X-82450689Y-3909311D01*
X-82455713Y-3915193D01*
X-82514219Y-3953383D01*
X-82584087Y-3953881D01*
X-82643132Y-3916526D01*
X-82644233Y-3915256D01*
X-82649311Y-3909311D01*
X-82846860Y-3740588D01*
X-83068372Y-3604846D01*
X-83068373Y-3604845D01*
X-83068377Y-3604843D01*
X-83234373Y-3536086D01*
X-83308390Y-3505427D01*
X-83308389Y-3505427D01*
X-83446079Y-3472370D01*
X-83561006Y-3444779D01*
X-83561008Y-3444778D01*
X-83561009Y-3444778D01*
X-83820000Y-3424396D01*
X-84078991Y-3444778D01*
X-84331611Y-3505427D01*
X-84571624Y-3604843D01*
X-84793141Y-3740588D01*
X-84956928Y-3880476D01*
X-84990689Y-3909311D01*
X-84995713Y-3915193D01*
X-85054219Y-3953383D01*
X-85124087Y-3953881D01*
X-85183132Y-3916526D01*
X-85184233Y-3915256D01*
X-85189311Y-3909311D01*
X-85386860Y-3740588D01*
X-85608372Y-3604846D01*
X-85608373Y-3604845D01*
X-85608377Y-3604843D01*
X-85774373Y-3536086D01*
X-85848390Y-3505427D01*
X-85848389Y-3505427D01*
X-85986079Y-3472370D01*
X-86101006Y-3444779D01*
X-86101008Y-3444778D01*
X-86101009Y-3444778D01*
X-86360000Y-3424396D01*
X-86618991Y-3444778D01*
X-86871611Y-3505427D01*
X-87111624Y-3604843D01*
X-87333141Y-3740588D01*
X-87496928Y-3880476D01*
X-87530689Y-3909311D01*
X-87535713Y-3915193D01*
X-87594219Y-3953383D01*
X-87664087Y-3953881D01*
X-87723132Y-3916526D01*
X-87724233Y-3915256D01*
X-87729311Y-3909311D01*
X-87926860Y-3740588D01*
X-88148372Y-3604846D01*
X-88148373Y-3604845D01*
X-88148377Y-3604843D01*
X-88314373Y-3536086D01*
X-88388390Y-3505427D01*
X-88388389Y-3505427D01*
X-88526079Y-3472370D01*
X-88641006Y-3444779D01*
X-88641008Y-3444778D01*
X-88641009Y-3444778D01*
X-88900000Y-3424396D01*
X-89158991Y-3444778D01*
X-89411611Y-3505427D01*
X-89651624Y-3604843D01*
X-89873141Y-3740588D01*
X-90036928Y-3880476D01*
X-90070689Y-3909311D01*
X-90075713Y-3915193D01*
X-90134219Y-3953383D01*
X-90204087Y-3953881D01*
X-90263132Y-3916526D01*
X-90264233Y-3915256D01*
X-90269311Y-3909311D01*
X-90466860Y-3740588D01*
X-90688372Y-3604846D01*
X-90688373Y-3604845D01*
X-90688377Y-3604843D01*
X-90854373Y-3536086D01*
X-90928390Y-3505427D01*
X-90928389Y-3505427D01*
X-91066079Y-3472370D01*
X-91181006Y-3444779D01*
X-91181008Y-3444778D01*
X-91181009Y-3444778D01*
X-91440000Y-3424396D01*
X-91698991Y-3444778D01*
X-91951611Y-3505427D01*
X-92191624Y-3604843D01*
X-92413141Y-3740588D01*
X-92576928Y-3880476D01*
X-92610689Y-3909311D01*
X-92615713Y-3915193D01*
X-92674219Y-3953383D01*
X-92744087Y-3953881D01*
X-92803132Y-3916526D01*
X-92804233Y-3915256D01*
X-92809311Y-3909311D01*
X-93006860Y-3740588D01*
X-93228372Y-3604846D01*
X-93228373Y-3604845D01*
X-93228377Y-3604843D01*
X-93394373Y-3536086D01*
X-93468390Y-3505427D01*
X-93468389Y-3505427D01*
X-93606079Y-3472370D01*
X-93721006Y-3444779D01*
X-93721008Y-3444778D01*
X-93721009Y-3444778D01*
X-93980000Y-3424396D01*
X-94238991Y-3444778D01*
X-94491611Y-3505427D01*
X-94731624Y-3604843D01*
X-94953141Y-3740588D01*
X-95116928Y-3880476D01*
X-95150689Y-3909311D01*
X-95155713Y-3915193D01*
X-95214219Y-3953383D01*
X-95284087Y-3953881D01*
X-95343132Y-3916526D01*
X-95344233Y-3915256D01*
X-95349311Y-3909311D01*
X-95546860Y-3740588D01*
X-95768372Y-3604846D01*
X-95768373Y-3604845D01*
X-95768377Y-3604843D01*
X-95934373Y-3536086D01*
X-96008390Y-3505427D01*
X-96008389Y-3505427D01*
X-96146079Y-3472370D01*
X-96261006Y-3444779D01*
X-96261008Y-3444778D01*
X-96261009Y-3444778D01*
X-96520000Y-3424396D01*
X-96778991Y-3444778D01*
X-97031611Y-3505427D01*
X-97271624Y-3604843D01*
X-97493141Y-3740588D01*
X-97656928Y-3880476D01*
X-97690689Y-3909311D01*
X-97695713Y-3915193D01*
X-97754219Y-3953383D01*
X-97824087Y-3953881D01*
X-97883132Y-3916526D01*
X-97884233Y-3915256D01*
X-97889311Y-3909311D01*
X-98086860Y-3740588D01*
X-98308372Y-3604846D01*
X-98308373Y-3604845D01*
X-98308377Y-3604843D01*
X-98474373Y-3536086D01*
X-98548390Y-3505427D01*
X-98548389Y-3505427D01*
X-98686079Y-3472370D01*
X-98801006Y-3444779D01*
X-98801008Y-3444778D01*
X-98801009Y-3444778D01*
X-99060000Y-3424396D01*
X-99318991Y-3444778D01*
X-99571611Y-3505427D01*
X-99811627Y-3604845D01*
X-99995796Y-3717703D01*
X-100063241Y-3735947D01*
X-100129844Y-3714830D01*
X-100148266Y-3699656D01*
X-100247738Y-3600184D01*
X-100400477Y-3504211D01*
X-100570746Y-3444631D01*
X-100570751Y-3444630D01*
X-100705040Y-3429500D01*
X-100705046Y-3429500D01*
X-102494954Y-3429500D01*
X-102494961Y-3429500D01*
X-102629250Y-3444630D01*
X-102629255Y-3444631D01*
X-102799524Y-3504211D01*
X-102952263Y-3600184D01*
X-103079816Y-3727737D01*
X-103175789Y-3880476D01*
X-103235369Y-4050745D01*
X-103235370Y-4050750D01*
X-103250500Y-4185039D01*
X-103250500Y-5974960D01*
X-103235370Y-6109249D01*
X-103235369Y-6109254D01*
X-103175789Y-6279523D01*
X-103089500Y-6416850D01*
X-103079816Y-6432262D01*
X-102952262Y-6559816D01*
X-102899528Y-6592951D01*
X-102799522Y-6655789D01*
X-102733546Y-6678875D01*
X-102676770Y-6719597D01*
X-102651022Y-6784549D01*
X-102650500Y-6795917D01*
X-102650500Y-28764083D01*
X-102670185Y-28831122D01*
X-102722989Y-28876877D01*
X-102733544Y-28881124D01*
X-102799524Y-28904211D01*
X-102799525Y-28904212D01*
X-102952263Y-29000184D01*
X-103079816Y-29127737D01*
X-103079818Y-29127740D01*
X-103118507Y-29189313D01*
X-103170842Y-29235604D01*
X-103239895Y-29246251D01*
X-103303743Y-29217876D01*
X-103342115Y-29159486D01*
X-103347500Y-29123340D01*
X-103347500Y-23011648D01*
X-103379523Y-22809465D01*
X-103442782Y-22614776D01*
X-103489247Y-22523585D01*
X-103489248Y-22523584D01*
X-103535713Y-22432389D01*
X-103656034Y-22266781D01*
X-106403690Y-19519125D01*
X-106437175Y-19457802D01*
X-106437626Y-19407257D01*
X-106426416Y-19350903D01*
X-106406694Y-19050000D01*
X-106426416Y-18749097D01*
X-106485245Y-18453343D01*
X-106582175Y-18167798D01*
X-106715546Y-17897347D01*
X-106883078Y-17646619D01*
X-107007119Y-17505176D01*
X-107081902Y-17419901D01*
X-107308615Y-17221081D01*
X-107308619Y-17221078D01*
X-107356393Y-17189156D01*
X-107401196Y-17135544D01*
X-107411500Y-17086055D01*
X-107411500Y-14124500D01*
X-107391815Y-14057461D01*
X-107339011Y-14011706D01*
X-107287500Y-14000500D01*
X-107145649Y-14000500D01*
X-107145648Y-14000500D01*
X-106943465Y-13968477D01*
X-106846124Y-13936848D01*
X-106748781Y-13905220D01*
X-106657586Y-13858753D01*
X-106566389Y-13812287D01*
X-106400781Y-13691966D01*
X-105915634Y-13206819D01*
X-105854311Y-13173334D01*
X-105827953Y-13170500D01*
X-105783072Y-13170500D01*
X-105783071Y-13170500D01*
X-105783064Y-13170499D01*
X-105516233Y-13130281D01*
X-105516232Y-13130280D01*
X-105516228Y-13130280D01*
X-105258359Y-13050738D01*
X-105015225Y-12933651D01*
X-104792259Y-12781635D01*
X-104594439Y-12598085D01*
X-104426185Y-12387102D01*
X-104291257Y-12153398D01*
X-104192666Y-11902195D01*
X-104132617Y-11639103D01*
X-104125895Y-11549402D01*
X-104112451Y-11370004D01*
X-104112451Y-11369995D01*
X-104132617Y-11100898D01*
X-104132617Y-11100897D01*
X-104192666Y-10837805D01*
X-104291257Y-10586602D01*
X-104426185Y-10352898D01*
X-104594439Y-10141915D01*
X-104594440Y-10141914D01*
X-104594443Y-10141910D01*
X-104792259Y-9958365D01*
X-105015225Y-9806349D01*
X-105015231Y-9806346D01*
X-105015232Y-9806345D01*
X-105015233Y-9806344D01*
X-105258357Y-9689263D01*
X-105258355Y-9689263D01*
X-105516227Y-9609720D01*
X-105516233Y-9609718D01*
X-105783064Y-9569500D01*
X-105783071Y-9569500D01*
X-106052929Y-9569500D01*
X-106052937Y-9569500D01*
X-106319768Y-9609718D01*
X-106319774Y-9609720D01*
X-106577642Y-9689262D01*
X-106820770Y-9806346D01*
X-107043742Y-9958365D01*
X-107241558Y-10141910D01*
X-107409815Y-10352898D01*
X-107544742Y-10586599D01*
X-107544744Y-10586603D01*
X-107643334Y-10837804D01*
X-107643337Y-10837813D01*
X-107703384Y-11100901D01*
X-107703385Y-11100905D01*
X-107717163Y-11284767D01*
X-107741802Y-11350148D01*
X-107797878Y-11391828D01*
X-107840816Y-11399500D01*
X-108619954Y-11399500D01*
X-108686993Y-11379815D01*
X-108707635Y-11363181D01*
X-111420332Y-8650483D01*
X-111453225Y-8591749D01*
X-111503127Y-8383889D01*
X-111599534Y-8151140D01*
X-111731161Y-7936346D01*
X-111731162Y-7936343D01*
X-111768125Y-7893066D01*
X-111894776Y-7744776D01*
X-112021429Y-7636604D01*
X-112086344Y-7581161D01*
X-112086347Y-7581160D01*
X-112301141Y-7449533D01*
X-112533890Y-7353126D01*
X-112778849Y-7294317D01*
X-113030000Y-7274551D01*
X-113281152Y-7294317D01*
X-113526111Y-7353126D01*
X-113758860Y-7449533D01*
X-113973654Y-7581160D01*
X-113973657Y-7581161D01*
X-114165224Y-7744776D01*
X-114328839Y-7936343D01*
X-114328840Y-7936346D01*
X-114460467Y-8151140D01*
X-114538939Y-8340591D01*
X-114582780Y-8394994D01*
X-114649074Y-8417059D01*
X-114716773Y-8399780D01*
X-114764384Y-8348643D01*
X-114777500Y-8293138D01*
X-114777500Y-7448045D01*
X-114757815Y-7381006D01*
X-114741185Y-7360368D01*
X-114084669Y-6703851D01*
X-114023348Y-6670368D01*
X-113983108Y-6668314D01*
X-113874958Y-6680499D01*
X-113874957Y-6680500D01*
X-113874954Y-6680500D01*
X-112185043Y-6680500D01*
X-112185042Y-6680499D01*
X-112095121Y-6670368D01*
X-112050751Y-6665369D01*
X-112050748Y-6665368D01*
X-112050745Y-6665368D01*
X-111880478Y-6605789D01*
X-111727738Y-6509816D01*
X-111600184Y-6382262D01*
X-111504211Y-6229522D01*
X-111444632Y-6059255D01*
X-111429500Y-5924954D01*
X-111429500Y-4235046D01*
X-111444632Y-4100745D01*
X-111504211Y-3930478D01*
X-111512978Y-3916526D01*
X-111578953Y-3811527D01*
X-111600184Y-3777738D01*
X-111680688Y-3697234D01*
X-111714173Y-3635911D01*
X-111709189Y-3566219D01*
X-111680690Y-3521874D01*
X-110495634Y-2336819D01*
X-110434311Y-2303334D01*
X-110407953Y-2300500D01*
X-107342500Y-2300500D01*
X-107275461Y-2320185D01*
G37*
G04 #@! TD.AperFunction*
G04 #@! TA.AperFunction,NonConductor*
G36*
X-3716872Y-6243468D02*
G01*
X-3715803Y-6244702D01*
X-3710689Y-6250689D01*
X-3633968Y-6316215D01*
X-3595775Y-6374720D01*
X-3590500Y-6410504D01*
X-3590500Y-29149494D01*
X-3610185Y-29216533D01*
X-3633968Y-29243784D01*
X-3710683Y-29309305D01*
X-3710685Y-29309307D01*
X-3710687Y-29309309D01*
X-3710689Y-29309311D01*
X-3715713Y-29315193D01*
X-3774219Y-29353383D01*
X-3844087Y-29353881D01*
X-3903132Y-29316526D01*
X-3904233Y-29315256D01*
X-3909311Y-29309311D01*
X-3909318Y-29309305D01*
X-3986032Y-29243784D01*
X-4024225Y-29185277D01*
X-4029500Y-29149494D01*
X-4029500Y-6410504D01*
X-4009815Y-6343465D01*
X-3986035Y-6316216D01*
X-3909311Y-6250689D01*
X-3904290Y-6244809D01*
X-3845787Y-6206617D01*
X-3775919Y-6206116D01*
X-3716872Y-6243468D01*
G37*
G04 #@! TD.AperFunction*
G04 #@! TA.AperFunction,NonConductor*
G36*
X-6256872Y-6243468D02*
G01*
X-6255803Y-6244702D01*
X-6250689Y-6250689D01*
X-6173968Y-6316215D01*
X-6135775Y-6374720D01*
X-6130500Y-6410504D01*
X-6130500Y-29149494D01*
X-6150185Y-29216533D01*
X-6173968Y-29243784D01*
X-6250683Y-29309305D01*
X-6250685Y-29309307D01*
X-6250687Y-29309309D01*
X-6250689Y-29309311D01*
X-6255713Y-29315193D01*
X-6314219Y-29353383D01*
X-6384087Y-29353881D01*
X-6443132Y-29316526D01*
X-6444233Y-29315256D01*
X-6449311Y-29309311D01*
X-6449318Y-29309305D01*
X-6526032Y-29243784D01*
X-6564225Y-29185277D01*
X-6569500Y-29149494D01*
X-6569500Y-6410504D01*
X-6549815Y-6343465D01*
X-6526035Y-6316216D01*
X-6449311Y-6250689D01*
X-6444290Y-6244809D01*
X-6385787Y-6206617D01*
X-6315919Y-6206116D01*
X-6256872Y-6243468D01*
G37*
G04 #@! TD.AperFunction*
G04 #@! TA.AperFunction,NonConductor*
G36*
X-8796872Y-6243468D02*
G01*
X-8795803Y-6244702D01*
X-8790689Y-6250689D01*
X-8713968Y-6316215D01*
X-8675775Y-6374720D01*
X-8670500Y-6410504D01*
X-8670500Y-29149494D01*
X-8690185Y-29216533D01*
X-8713968Y-29243784D01*
X-8790683Y-29309305D01*
X-8790685Y-29309307D01*
X-8790687Y-29309309D01*
X-8790689Y-29309311D01*
X-8795713Y-29315193D01*
X-8854219Y-29353383D01*
X-8924087Y-29353881D01*
X-8983132Y-29316526D01*
X-8984233Y-29315256D01*
X-8989311Y-29309311D01*
X-8989318Y-29309305D01*
X-9066032Y-29243784D01*
X-9104225Y-29185277D01*
X-9109500Y-29149494D01*
X-9109500Y-6410504D01*
X-9089815Y-6343465D01*
X-9066035Y-6316216D01*
X-8989311Y-6250689D01*
X-8984290Y-6244809D01*
X-8925787Y-6206617D01*
X-8855919Y-6206116D01*
X-8796872Y-6243468D01*
G37*
G04 #@! TD.AperFunction*
G04 #@! TA.AperFunction,NonConductor*
G36*
X-11336872Y-6243468D02*
G01*
X-11335803Y-6244702D01*
X-11330689Y-6250689D01*
X-11253968Y-6316215D01*
X-11215775Y-6374720D01*
X-11210500Y-6410504D01*
X-11210500Y-29149494D01*
X-11230185Y-29216533D01*
X-11253968Y-29243784D01*
X-11330683Y-29309305D01*
X-11330685Y-29309307D01*
X-11330687Y-29309309D01*
X-11330689Y-29309311D01*
X-11335713Y-29315193D01*
X-11394219Y-29353383D01*
X-11464087Y-29353881D01*
X-11523132Y-29316526D01*
X-11524233Y-29315256D01*
X-11529311Y-29309311D01*
X-11529318Y-29309305D01*
X-11606032Y-29243784D01*
X-11644225Y-29185277D01*
X-11649500Y-29149494D01*
X-11649500Y-6410504D01*
X-11629815Y-6343465D01*
X-11606035Y-6316216D01*
X-11529311Y-6250689D01*
X-11524290Y-6244809D01*
X-11465787Y-6206617D01*
X-11395919Y-6206116D01*
X-11336872Y-6243468D01*
G37*
G04 #@! TD.AperFunction*
G04 #@! TA.AperFunction,NonConductor*
G36*
X-13876872Y-6243468D02*
G01*
X-13875803Y-6244702D01*
X-13870689Y-6250689D01*
X-13793968Y-6316215D01*
X-13755775Y-6374720D01*
X-13750500Y-6410504D01*
X-13750500Y-29149494D01*
X-13770185Y-29216533D01*
X-13793968Y-29243784D01*
X-13870683Y-29309305D01*
X-13870685Y-29309307D01*
X-13870687Y-29309309D01*
X-13870689Y-29309311D01*
X-13875713Y-29315193D01*
X-13934219Y-29353383D01*
X-14004087Y-29353881D01*
X-14063132Y-29316526D01*
X-14064233Y-29315256D01*
X-14069311Y-29309311D01*
X-14069318Y-29309305D01*
X-14146032Y-29243784D01*
X-14184225Y-29185277D01*
X-14189500Y-29149494D01*
X-14189500Y-6410504D01*
X-14169815Y-6343465D01*
X-14146035Y-6316216D01*
X-14069311Y-6250689D01*
X-14064290Y-6244809D01*
X-14005787Y-6206617D01*
X-13935919Y-6206116D01*
X-13876872Y-6243468D01*
G37*
G04 #@! TD.AperFunction*
G04 #@! TA.AperFunction,NonConductor*
G36*
X-16416872Y-6243468D02*
G01*
X-16415803Y-6244702D01*
X-16410689Y-6250689D01*
X-16333968Y-6316215D01*
X-16295775Y-6374720D01*
X-16290500Y-6410504D01*
X-16290500Y-29149494D01*
X-16310185Y-29216533D01*
X-16333968Y-29243784D01*
X-16410683Y-29309305D01*
X-16410685Y-29309307D01*
X-16410687Y-29309309D01*
X-16410689Y-29309311D01*
X-16415713Y-29315193D01*
X-16474219Y-29353383D01*
X-16544087Y-29353881D01*
X-16603132Y-29316526D01*
X-16604233Y-29315256D01*
X-16609311Y-29309311D01*
X-16609318Y-29309305D01*
X-16686032Y-29243784D01*
X-16724225Y-29185277D01*
X-16729500Y-29149494D01*
X-16729500Y-6410504D01*
X-16709815Y-6343465D01*
X-16686035Y-6316216D01*
X-16609311Y-6250689D01*
X-16604290Y-6244809D01*
X-16545787Y-6206617D01*
X-16475919Y-6206116D01*
X-16416872Y-6243468D01*
G37*
G04 #@! TD.AperFunction*
G04 #@! TA.AperFunction,NonConductor*
G36*
X-18956872Y-6243468D02*
G01*
X-18955803Y-6244702D01*
X-18950689Y-6250689D01*
X-18873968Y-6316215D01*
X-18835775Y-6374720D01*
X-18830500Y-6410504D01*
X-18830500Y-29149494D01*
X-18850185Y-29216533D01*
X-18873968Y-29243784D01*
X-18950683Y-29309305D01*
X-18950685Y-29309307D01*
X-18950687Y-29309309D01*
X-18950689Y-29309311D01*
X-18955713Y-29315193D01*
X-19014219Y-29353383D01*
X-19084087Y-29353881D01*
X-19143132Y-29316526D01*
X-19144233Y-29315256D01*
X-19149311Y-29309311D01*
X-19149318Y-29309305D01*
X-19226032Y-29243784D01*
X-19264225Y-29185277D01*
X-19269500Y-29149494D01*
X-19269500Y-6410504D01*
X-19249815Y-6343465D01*
X-19226035Y-6316216D01*
X-19149311Y-6250689D01*
X-19144290Y-6244809D01*
X-19085787Y-6206617D01*
X-19015919Y-6206116D01*
X-18956872Y-6243468D01*
G37*
G04 #@! TD.AperFunction*
G04 #@! TA.AperFunction,NonConductor*
G36*
X-21496872Y-6243468D02*
G01*
X-21495803Y-6244702D01*
X-21490689Y-6250689D01*
X-21413968Y-6316215D01*
X-21375775Y-6374720D01*
X-21370500Y-6410504D01*
X-21370500Y-29149494D01*
X-21390185Y-29216533D01*
X-21413968Y-29243784D01*
X-21490683Y-29309305D01*
X-21490685Y-29309307D01*
X-21490687Y-29309309D01*
X-21490689Y-29309311D01*
X-21495713Y-29315193D01*
X-21554219Y-29353383D01*
X-21624087Y-29353881D01*
X-21683132Y-29316526D01*
X-21684233Y-29315256D01*
X-21689311Y-29309311D01*
X-21689318Y-29309305D01*
X-21766032Y-29243784D01*
X-21804225Y-29185277D01*
X-21809500Y-29149494D01*
X-21809500Y-6410504D01*
X-21789815Y-6343465D01*
X-21766035Y-6316216D01*
X-21689311Y-6250689D01*
X-21684290Y-6244809D01*
X-21625787Y-6206617D01*
X-21555919Y-6206116D01*
X-21496872Y-6243468D01*
G37*
G04 #@! TD.AperFunction*
G04 #@! TA.AperFunction,NonConductor*
G36*
X-24036872Y-6243468D02*
G01*
X-24035803Y-6244702D01*
X-24030689Y-6250689D01*
X-23953968Y-6316215D01*
X-23915775Y-6374720D01*
X-23910500Y-6410504D01*
X-23910500Y-29149494D01*
X-23930185Y-29216533D01*
X-23953968Y-29243784D01*
X-24030683Y-29309305D01*
X-24030685Y-29309307D01*
X-24030687Y-29309309D01*
X-24030689Y-29309311D01*
X-24035713Y-29315193D01*
X-24094219Y-29353383D01*
X-24164087Y-29353881D01*
X-24223132Y-29316526D01*
X-24224233Y-29315256D01*
X-24229311Y-29309311D01*
X-24229318Y-29309305D01*
X-24306032Y-29243784D01*
X-24344225Y-29185277D01*
X-24349500Y-29149494D01*
X-24349500Y-6410504D01*
X-24329815Y-6343465D01*
X-24306035Y-6316216D01*
X-24229311Y-6250689D01*
X-24224290Y-6244809D01*
X-24165787Y-6206617D01*
X-24095919Y-6206116D01*
X-24036872Y-6243468D01*
G37*
G04 #@! TD.AperFunction*
G04 #@! TA.AperFunction,NonConductor*
G36*
X-26576872Y-6243468D02*
G01*
X-26575803Y-6244702D01*
X-26570689Y-6250689D01*
X-26493968Y-6316215D01*
X-26455775Y-6374720D01*
X-26450500Y-6410504D01*
X-26450500Y-29149494D01*
X-26470185Y-29216533D01*
X-26493968Y-29243784D01*
X-26570683Y-29309305D01*
X-26570685Y-29309307D01*
X-26570687Y-29309309D01*
X-26570689Y-29309311D01*
X-26575713Y-29315193D01*
X-26634219Y-29353383D01*
X-26704087Y-29353881D01*
X-26763132Y-29316526D01*
X-26764233Y-29315256D01*
X-26769311Y-29309311D01*
X-26769318Y-29309305D01*
X-26846032Y-29243784D01*
X-26884225Y-29185277D01*
X-26889500Y-29149494D01*
X-26889500Y-6410504D01*
X-26869815Y-6343465D01*
X-26846035Y-6316216D01*
X-26769311Y-6250689D01*
X-26764290Y-6244809D01*
X-26705787Y-6206617D01*
X-26635919Y-6206116D01*
X-26576872Y-6243468D01*
G37*
G04 #@! TD.AperFunction*
G04 #@! TA.AperFunction,NonConductor*
G36*
X-29116872Y-6243468D02*
G01*
X-29115803Y-6244702D01*
X-29110689Y-6250689D01*
X-29033968Y-6316215D01*
X-28995775Y-6374720D01*
X-28990500Y-6410504D01*
X-28990500Y-29149494D01*
X-29010185Y-29216533D01*
X-29033968Y-29243784D01*
X-29110683Y-29309305D01*
X-29110685Y-29309307D01*
X-29110687Y-29309309D01*
X-29110689Y-29309311D01*
X-29115713Y-29315193D01*
X-29174219Y-29353383D01*
X-29244087Y-29353881D01*
X-29303132Y-29316526D01*
X-29304233Y-29315256D01*
X-29309311Y-29309311D01*
X-29309318Y-29309305D01*
X-29386032Y-29243784D01*
X-29424225Y-29185277D01*
X-29429500Y-29149494D01*
X-29429500Y-6410504D01*
X-29409815Y-6343465D01*
X-29386035Y-6316216D01*
X-29309311Y-6250689D01*
X-29304290Y-6244809D01*
X-29245787Y-6206617D01*
X-29175919Y-6206116D01*
X-29116872Y-6243468D01*
G37*
G04 #@! TD.AperFunction*
G04 #@! TA.AperFunction,NonConductor*
G36*
X-31656872Y-6243468D02*
G01*
X-31655803Y-6244702D01*
X-31650689Y-6250689D01*
X-31573968Y-6316215D01*
X-31535775Y-6374720D01*
X-31530500Y-6410504D01*
X-31530500Y-29149494D01*
X-31550185Y-29216533D01*
X-31573968Y-29243784D01*
X-31650683Y-29309305D01*
X-31650685Y-29309307D01*
X-31650687Y-29309309D01*
X-31650689Y-29309311D01*
X-31655713Y-29315193D01*
X-31714219Y-29353383D01*
X-31784087Y-29353881D01*
X-31843132Y-29316526D01*
X-31844233Y-29315256D01*
X-31849311Y-29309311D01*
X-31849318Y-29309305D01*
X-31926032Y-29243784D01*
X-31964225Y-29185277D01*
X-31969500Y-29149494D01*
X-31969500Y-6410504D01*
X-31949815Y-6343465D01*
X-31926035Y-6316216D01*
X-31849311Y-6250689D01*
X-31844290Y-6244809D01*
X-31785787Y-6206617D01*
X-31715919Y-6206116D01*
X-31656872Y-6243468D01*
G37*
G04 #@! TD.AperFunction*
G04 #@! TA.AperFunction,NonConductor*
G36*
X-34196872Y-6243468D02*
G01*
X-34195803Y-6244702D01*
X-34190689Y-6250689D01*
X-34113968Y-6316215D01*
X-34075775Y-6374720D01*
X-34070500Y-6410504D01*
X-34070500Y-29149494D01*
X-34090185Y-29216533D01*
X-34113968Y-29243784D01*
X-34190683Y-29309305D01*
X-34190685Y-29309307D01*
X-34190687Y-29309309D01*
X-34190689Y-29309311D01*
X-34195713Y-29315193D01*
X-34254219Y-29353383D01*
X-34324087Y-29353881D01*
X-34383132Y-29316526D01*
X-34384233Y-29315256D01*
X-34389311Y-29309311D01*
X-34389318Y-29309305D01*
X-34466032Y-29243784D01*
X-34504225Y-29185277D01*
X-34509500Y-29149494D01*
X-34509500Y-6410504D01*
X-34489815Y-6343465D01*
X-34466035Y-6316216D01*
X-34389311Y-6250689D01*
X-34384290Y-6244809D01*
X-34325787Y-6206617D01*
X-34255919Y-6206116D01*
X-34196872Y-6243468D01*
G37*
G04 #@! TD.AperFunction*
G04 #@! TA.AperFunction,NonConductor*
G36*
X-36736872Y-6243468D02*
G01*
X-36735803Y-6244702D01*
X-36730689Y-6250689D01*
X-36653968Y-6316215D01*
X-36615775Y-6374720D01*
X-36610500Y-6410504D01*
X-36610500Y-29149494D01*
X-36630185Y-29216533D01*
X-36653968Y-29243784D01*
X-36730683Y-29309305D01*
X-36730685Y-29309307D01*
X-36730687Y-29309309D01*
X-36730689Y-29309311D01*
X-36735713Y-29315193D01*
X-36794219Y-29353383D01*
X-36864087Y-29353881D01*
X-36923132Y-29316526D01*
X-36924233Y-29315256D01*
X-36929311Y-29309311D01*
X-36929318Y-29309305D01*
X-37006032Y-29243784D01*
X-37044225Y-29185277D01*
X-37049500Y-29149494D01*
X-37049500Y-6410504D01*
X-37029815Y-6343465D01*
X-37006035Y-6316216D01*
X-36929311Y-6250689D01*
X-36924290Y-6244809D01*
X-36865787Y-6206617D01*
X-36795919Y-6206116D01*
X-36736872Y-6243468D01*
G37*
G04 #@! TD.AperFunction*
G04 #@! TA.AperFunction,NonConductor*
G36*
X-39276872Y-6243468D02*
G01*
X-39275803Y-6244702D01*
X-39270689Y-6250689D01*
X-39193968Y-6316215D01*
X-39155775Y-6374720D01*
X-39150500Y-6410504D01*
X-39150500Y-29149494D01*
X-39170185Y-29216533D01*
X-39193968Y-29243784D01*
X-39270683Y-29309305D01*
X-39270685Y-29309307D01*
X-39270687Y-29309309D01*
X-39270689Y-29309311D01*
X-39275713Y-29315193D01*
X-39334219Y-29353383D01*
X-39404087Y-29353881D01*
X-39463132Y-29316526D01*
X-39464233Y-29315256D01*
X-39469311Y-29309311D01*
X-39469318Y-29309305D01*
X-39546032Y-29243784D01*
X-39584225Y-29185277D01*
X-39589500Y-29149494D01*
X-39589500Y-6410504D01*
X-39569815Y-6343465D01*
X-39546035Y-6316216D01*
X-39469311Y-6250689D01*
X-39464290Y-6244809D01*
X-39405787Y-6206617D01*
X-39335919Y-6206116D01*
X-39276872Y-6243468D01*
G37*
G04 #@! TD.AperFunction*
G04 #@! TA.AperFunction,NonConductor*
G36*
X-41816872Y-6243468D02*
G01*
X-41815803Y-6244702D01*
X-41810689Y-6250689D01*
X-41733968Y-6316215D01*
X-41695775Y-6374720D01*
X-41690500Y-6410504D01*
X-41690500Y-29149494D01*
X-41710185Y-29216533D01*
X-41733968Y-29243784D01*
X-41810683Y-29309305D01*
X-41810685Y-29309307D01*
X-41810687Y-29309309D01*
X-41810689Y-29309311D01*
X-41815713Y-29315193D01*
X-41874219Y-29353383D01*
X-41944087Y-29353881D01*
X-42003132Y-29316526D01*
X-42004233Y-29315256D01*
X-42009311Y-29309311D01*
X-42009318Y-29309305D01*
X-42086032Y-29243784D01*
X-42124225Y-29185277D01*
X-42129500Y-29149494D01*
X-42129500Y-6410504D01*
X-42109815Y-6343465D01*
X-42086035Y-6316216D01*
X-42009311Y-6250689D01*
X-42004290Y-6244809D01*
X-41945787Y-6206617D01*
X-41875919Y-6206116D01*
X-41816872Y-6243468D01*
G37*
G04 #@! TD.AperFunction*
G04 #@! TA.AperFunction,NonConductor*
G36*
X-44356872Y-6243468D02*
G01*
X-44355803Y-6244702D01*
X-44350689Y-6250689D01*
X-44273968Y-6316215D01*
X-44235775Y-6374720D01*
X-44230500Y-6410504D01*
X-44230500Y-29149494D01*
X-44250185Y-29216533D01*
X-44273968Y-29243784D01*
X-44350683Y-29309305D01*
X-44350685Y-29309307D01*
X-44350687Y-29309309D01*
X-44350689Y-29309311D01*
X-44355713Y-29315193D01*
X-44414219Y-29353383D01*
X-44484087Y-29353881D01*
X-44543132Y-29316526D01*
X-44544233Y-29315256D01*
X-44549311Y-29309311D01*
X-44549318Y-29309305D01*
X-44626032Y-29243784D01*
X-44664225Y-29185277D01*
X-44669500Y-29149494D01*
X-44669500Y-6410504D01*
X-44649815Y-6343465D01*
X-44626035Y-6316216D01*
X-44549311Y-6250689D01*
X-44544290Y-6244809D01*
X-44485787Y-6206617D01*
X-44415919Y-6206116D01*
X-44356872Y-6243468D01*
G37*
G04 #@! TD.AperFunction*
G04 #@! TA.AperFunction,NonConductor*
G36*
X-46896872Y-6243468D02*
G01*
X-46895803Y-6244702D01*
X-46890689Y-6250689D01*
X-46813968Y-6316215D01*
X-46775775Y-6374720D01*
X-46770500Y-6410504D01*
X-46770500Y-29149494D01*
X-46790185Y-29216533D01*
X-46813968Y-29243784D01*
X-46890683Y-29309305D01*
X-46890685Y-29309307D01*
X-46890687Y-29309309D01*
X-46890689Y-29309311D01*
X-46895713Y-29315193D01*
X-46954219Y-29353383D01*
X-47024087Y-29353881D01*
X-47083132Y-29316526D01*
X-47084233Y-29315256D01*
X-47089311Y-29309311D01*
X-47089318Y-29309305D01*
X-47166032Y-29243784D01*
X-47204225Y-29185277D01*
X-47209500Y-29149494D01*
X-47209500Y-6410504D01*
X-47189815Y-6343465D01*
X-47166035Y-6316216D01*
X-47089311Y-6250689D01*
X-47084290Y-6244809D01*
X-47025787Y-6206617D01*
X-46955919Y-6206116D01*
X-46896872Y-6243468D01*
G37*
G04 #@! TD.AperFunction*
G04 #@! TA.AperFunction,NonConductor*
G36*
X-49436872Y-6243468D02*
G01*
X-49435803Y-6244702D01*
X-49430689Y-6250689D01*
X-49353968Y-6316215D01*
X-49315775Y-6374720D01*
X-49310500Y-6410504D01*
X-49310500Y-29149494D01*
X-49330185Y-29216533D01*
X-49353968Y-29243784D01*
X-49430683Y-29309305D01*
X-49430685Y-29309307D01*
X-49430687Y-29309309D01*
X-49430689Y-29309311D01*
X-49435713Y-29315193D01*
X-49494219Y-29353383D01*
X-49564087Y-29353881D01*
X-49623132Y-29316526D01*
X-49624233Y-29315256D01*
X-49629311Y-29309311D01*
X-49629318Y-29309305D01*
X-49706032Y-29243784D01*
X-49744225Y-29185277D01*
X-49749500Y-29149494D01*
X-49749500Y-6410504D01*
X-49729815Y-6343465D01*
X-49706035Y-6316216D01*
X-49629311Y-6250689D01*
X-49624290Y-6244809D01*
X-49565787Y-6206617D01*
X-49495919Y-6206116D01*
X-49436872Y-6243468D01*
G37*
G04 #@! TD.AperFunction*
G04 #@! TA.AperFunction,NonConductor*
G36*
X-51976872Y-6243468D02*
G01*
X-51975803Y-6244702D01*
X-51970689Y-6250689D01*
X-51893968Y-6316215D01*
X-51855775Y-6374720D01*
X-51850500Y-6410504D01*
X-51850500Y-29149494D01*
X-51870185Y-29216533D01*
X-51893968Y-29243784D01*
X-51970683Y-29309305D01*
X-51970685Y-29309307D01*
X-51970687Y-29309309D01*
X-51970689Y-29309311D01*
X-51975713Y-29315193D01*
X-52034219Y-29353383D01*
X-52104087Y-29353881D01*
X-52163132Y-29316526D01*
X-52164233Y-29315256D01*
X-52169311Y-29309311D01*
X-52169318Y-29309305D01*
X-52246032Y-29243784D01*
X-52284225Y-29185277D01*
X-52289500Y-29149494D01*
X-52289500Y-6410504D01*
X-52269815Y-6343465D01*
X-52246035Y-6316216D01*
X-52169311Y-6250689D01*
X-52164290Y-6244809D01*
X-52105787Y-6206617D01*
X-52035919Y-6206116D01*
X-51976872Y-6243468D01*
G37*
G04 #@! TD.AperFunction*
G04 #@! TA.AperFunction,NonConductor*
G36*
X-54516872Y-6243468D02*
G01*
X-54515803Y-6244702D01*
X-54510689Y-6250689D01*
X-54433968Y-6316215D01*
X-54395775Y-6374720D01*
X-54390500Y-6410504D01*
X-54390500Y-29149494D01*
X-54410185Y-29216533D01*
X-54433968Y-29243784D01*
X-54510683Y-29309305D01*
X-54510685Y-29309307D01*
X-54510687Y-29309309D01*
X-54510689Y-29309311D01*
X-54515713Y-29315193D01*
X-54574219Y-29353383D01*
X-54644087Y-29353881D01*
X-54703132Y-29316526D01*
X-54704233Y-29315256D01*
X-54709311Y-29309311D01*
X-54709318Y-29309305D01*
X-54786032Y-29243784D01*
X-54824225Y-29185277D01*
X-54829500Y-29149494D01*
X-54829500Y-6410504D01*
X-54809815Y-6343465D01*
X-54786035Y-6316216D01*
X-54709311Y-6250689D01*
X-54704290Y-6244809D01*
X-54645787Y-6206617D01*
X-54575919Y-6206116D01*
X-54516872Y-6243468D01*
G37*
G04 #@! TD.AperFunction*
G04 #@! TA.AperFunction,NonConductor*
G36*
X-64676872Y-6243468D02*
G01*
X-64675803Y-6244702D01*
X-64670689Y-6250689D01*
X-64593968Y-6316215D01*
X-64555775Y-6374720D01*
X-64550500Y-6410504D01*
X-64550500Y-29149494D01*
X-64570185Y-29216533D01*
X-64593968Y-29243784D01*
X-64670683Y-29309305D01*
X-64670685Y-29309307D01*
X-64670687Y-29309309D01*
X-64670689Y-29309311D01*
X-64675713Y-29315193D01*
X-64734219Y-29353383D01*
X-64804087Y-29353881D01*
X-64863132Y-29316526D01*
X-64864233Y-29315256D01*
X-64869311Y-29309311D01*
X-64869318Y-29309305D01*
X-64946032Y-29243784D01*
X-64984225Y-29185277D01*
X-64989500Y-29149494D01*
X-64989500Y-6410504D01*
X-64969815Y-6343465D01*
X-64946035Y-6316216D01*
X-64869311Y-6250689D01*
X-64864290Y-6244809D01*
X-64805787Y-6206617D01*
X-64735919Y-6206116D01*
X-64676872Y-6243468D01*
G37*
G04 #@! TD.AperFunction*
G04 #@! TA.AperFunction,NonConductor*
G36*
X-67216872Y-6243468D02*
G01*
X-67215803Y-6244702D01*
X-67210689Y-6250689D01*
X-67133968Y-6316215D01*
X-67095775Y-6374720D01*
X-67090500Y-6410504D01*
X-67090500Y-29149494D01*
X-67110185Y-29216533D01*
X-67133968Y-29243784D01*
X-67210683Y-29309305D01*
X-67210685Y-29309307D01*
X-67210687Y-29309309D01*
X-67210689Y-29309311D01*
X-67215713Y-29315193D01*
X-67274219Y-29353383D01*
X-67344087Y-29353881D01*
X-67403132Y-29316526D01*
X-67404233Y-29315256D01*
X-67409311Y-29309311D01*
X-67409318Y-29309305D01*
X-67486032Y-29243784D01*
X-67524225Y-29185277D01*
X-67529500Y-29149494D01*
X-67529500Y-6410504D01*
X-67509815Y-6343465D01*
X-67486035Y-6316216D01*
X-67409311Y-6250689D01*
X-67404290Y-6244809D01*
X-67345787Y-6206617D01*
X-67275919Y-6206116D01*
X-67216872Y-6243468D01*
G37*
G04 #@! TD.AperFunction*
G04 #@! TA.AperFunction,NonConductor*
G36*
X-69756872Y-6243468D02*
G01*
X-69755803Y-6244702D01*
X-69750689Y-6250689D01*
X-69673968Y-6316215D01*
X-69635775Y-6374720D01*
X-69630500Y-6410504D01*
X-69630500Y-29149494D01*
X-69650185Y-29216533D01*
X-69673968Y-29243784D01*
X-69750683Y-29309305D01*
X-69750685Y-29309307D01*
X-69750687Y-29309309D01*
X-69750689Y-29309311D01*
X-69755713Y-29315193D01*
X-69814219Y-29353383D01*
X-69884087Y-29353881D01*
X-69943132Y-29316526D01*
X-69944233Y-29315256D01*
X-69949311Y-29309311D01*
X-69949318Y-29309305D01*
X-70026032Y-29243784D01*
X-70064225Y-29185277D01*
X-70069500Y-29149494D01*
X-70069500Y-6410504D01*
X-70049815Y-6343465D01*
X-70026035Y-6316216D01*
X-69949311Y-6250689D01*
X-69944290Y-6244809D01*
X-69885787Y-6206617D01*
X-69815919Y-6206116D01*
X-69756872Y-6243468D01*
G37*
G04 #@! TD.AperFunction*
G04 #@! TA.AperFunction,NonConductor*
G36*
X-72296872Y-6243468D02*
G01*
X-72295803Y-6244702D01*
X-72290689Y-6250689D01*
X-72213968Y-6316215D01*
X-72175775Y-6374720D01*
X-72170500Y-6410504D01*
X-72170500Y-29149494D01*
X-72190185Y-29216533D01*
X-72213968Y-29243784D01*
X-72290683Y-29309305D01*
X-72290685Y-29309307D01*
X-72290687Y-29309309D01*
X-72290689Y-29309311D01*
X-72295713Y-29315193D01*
X-72354219Y-29353383D01*
X-72424087Y-29353881D01*
X-72483132Y-29316526D01*
X-72484233Y-29315256D01*
X-72489311Y-29309311D01*
X-72489318Y-29309305D01*
X-72566032Y-29243784D01*
X-72604225Y-29185277D01*
X-72609500Y-29149494D01*
X-72609500Y-6410504D01*
X-72589815Y-6343465D01*
X-72566035Y-6316216D01*
X-72489311Y-6250689D01*
X-72484290Y-6244809D01*
X-72425787Y-6206617D01*
X-72355919Y-6206116D01*
X-72296872Y-6243468D01*
G37*
G04 #@! TD.AperFunction*
G04 #@! TA.AperFunction,NonConductor*
G36*
X-74836872Y-6243468D02*
G01*
X-74835803Y-6244702D01*
X-74830689Y-6250689D01*
X-74753968Y-6316215D01*
X-74715775Y-6374720D01*
X-74710500Y-6410504D01*
X-74710500Y-29149494D01*
X-74730185Y-29216533D01*
X-74753968Y-29243784D01*
X-74830683Y-29309305D01*
X-74830685Y-29309307D01*
X-74830687Y-29309309D01*
X-74830689Y-29309311D01*
X-74835713Y-29315193D01*
X-74894219Y-29353383D01*
X-74964087Y-29353881D01*
X-75023132Y-29316526D01*
X-75024233Y-29315256D01*
X-75029311Y-29309311D01*
X-75029318Y-29309305D01*
X-75106032Y-29243784D01*
X-75144225Y-29185277D01*
X-75149500Y-29149494D01*
X-75149500Y-6410504D01*
X-75129815Y-6343465D01*
X-75106035Y-6316216D01*
X-75029311Y-6250689D01*
X-75024290Y-6244809D01*
X-74965787Y-6206617D01*
X-74895919Y-6206116D01*
X-74836872Y-6243468D01*
G37*
G04 #@! TD.AperFunction*
G04 #@! TA.AperFunction,NonConductor*
G36*
X-77376872Y-6243468D02*
G01*
X-77375803Y-6244702D01*
X-77370689Y-6250689D01*
X-77293968Y-6316215D01*
X-77255775Y-6374720D01*
X-77250500Y-6410504D01*
X-77250500Y-29149494D01*
X-77270185Y-29216533D01*
X-77293968Y-29243784D01*
X-77370683Y-29309305D01*
X-77370685Y-29309307D01*
X-77370687Y-29309309D01*
X-77370689Y-29309311D01*
X-77375713Y-29315193D01*
X-77434219Y-29353383D01*
X-77504087Y-29353881D01*
X-77563132Y-29316526D01*
X-77564233Y-29315256D01*
X-77569311Y-29309311D01*
X-77569318Y-29309305D01*
X-77646032Y-29243784D01*
X-77684225Y-29185277D01*
X-77689500Y-29149494D01*
X-77689500Y-6410504D01*
X-77669815Y-6343465D01*
X-77646035Y-6316216D01*
X-77569311Y-6250689D01*
X-77564290Y-6244809D01*
X-77505787Y-6206617D01*
X-77435919Y-6206116D01*
X-77376872Y-6243468D01*
G37*
G04 #@! TD.AperFunction*
G04 #@! TA.AperFunction,NonConductor*
G36*
X-79916872Y-6243468D02*
G01*
X-79915803Y-6244702D01*
X-79910689Y-6250689D01*
X-79833968Y-6316215D01*
X-79795775Y-6374720D01*
X-79790500Y-6410504D01*
X-79790500Y-29149494D01*
X-79810185Y-29216533D01*
X-79833968Y-29243784D01*
X-79910683Y-29309305D01*
X-79910685Y-29309307D01*
X-79910687Y-29309309D01*
X-79910689Y-29309311D01*
X-79915713Y-29315193D01*
X-79974219Y-29353383D01*
X-80044087Y-29353881D01*
X-80103132Y-29316526D01*
X-80104233Y-29315256D01*
X-80109311Y-29309311D01*
X-80109318Y-29309305D01*
X-80186032Y-29243784D01*
X-80224225Y-29185277D01*
X-80229500Y-29149494D01*
X-80229500Y-6410504D01*
X-80209815Y-6343465D01*
X-80186035Y-6316216D01*
X-80109311Y-6250689D01*
X-80104290Y-6244809D01*
X-80045787Y-6206617D01*
X-79975919Y-6206116D01*
X-79916872Y-6243468D01*
G37*
G04 #@! TD.AperFunction*
G04 #@! TA.AperFunction,NonConductor*
G36*
X-82456872Y-6243468D02*
G01*
X-82455803Y-6244702D01*
X-82450689Y-6250689D01*
X-82373968Y-6316215D01*
X-82335775Y-6374720D01*
X-82330500Y-6410504D01*
X-82330500Y-29149494D01*
X-82350185Y-29216533D01*
X-82373968Y-29243784D01*
X-82450683Y-29309305D01*
X-82450685Y-29309307D01*
X-82450687Y-29309309D01*
X-82450689Y-29309311D01*
X-82455713Y-29315193D01*
X-82514219Y-29353383D01*
X-82584087Y-29353881D01*
X-82643132Y-29316526D01*
X-82644233Y-29315256D01*
X-82649311Y-29309311D01*
X-82649318Y-29309305D01*
X-82726032Y-29243784D01*
X-82764225Y-29185277D01*
X-82769500Y-29149494D01*
X-82769500Y-6410504D01*
X-82749815Y-6343465D01*
X-82726035Y-6316216D01*
X-82649311Y-6250689D01*
X-82644290Y-6244809D01*
X-82585787Y-6206617D01*
X-82515919Y-6206116D01*
X-82456872Y-6243468D01*
G37*
G04 #@! TD.AperFunction*
G04 #@! TA.AperFunction,NonConductor*
G36*
X-84996872Y-6243468D02*
G01*
X-84995803Y-6244702D01*
X-84990689Y-6250689D01*
X-84913968Y-6316215D01*
X-84875775Y-6374720D01*
X-84870500Y-6410504D01*
X-84870500Y-29149494D01*
X-84890185Y-29216533D01*
X-84913968Y-29243784D01*
X-84990683Y-29309305D01*
X-84990685Y-29309307D01*
X-84990687Y-29309309D01*
X-84990689Y-29309311D01*
X-84995713Y-29315193D01*
X-85054219Y-29353383D01*
X-85124087Y-29353881D01*
X-85183132Y-29316526D01*
X-85184233Y-29315256D01*
X-85189311Y-29309311D01*
X-85189318Y-29309305D01*
X-85266032Y-29243784D01*
X-85304225Y-29185277D01*
X-85309500Y-29149494D01*
X-85309500Y-6410504D01*
X-85289815Y-6343465D01*
X-85266035Y-6316216D01*
X-85189311Y-6250689D01*
X-85184290Y-6244809D01*
X-85125787Y-6206617D01*
X-85055919Y-6206116D01*
X-84996872Y-6243468D01*
G37*
G04 #@! TD.AperFunction*
G04 #@! TA.AperFunction,NonConductor*
G36*
X-87536872Y-6243468D02*
G01*
X-87535803Y-6244702D01*
X-87530689Y-6250689D01*
X-87453968Y-6316215D01*
X-87415775Y-6374720D01*
X-87410500Y-6410504D01*
X-87410500Y-29149494D01*
X-87430185Y-29216533D01*
X-87453968Y-29243784D01*
X-87530683Y-29309305D01*
X-87530685Y-29309307D01*
X-87530687Y-29309309D01*
X-87530689Y-29309311D01*
X-87535713Y-29315193D01*
X-87594219Y-29353383D01*
X-87664087Y-29353881D01*
X-87723132Y-29316526D01*
X-87724233Y-29315256D01*
X-87729311Y-29309311D01*
X-87729318Y-29309305D01*
X-87806032Y-29243784D01*
X-87844225Y-29185277D01*
X-87849500Y-29149494D01*
X-87849500Y-6410504D01*
X-87829815Y-6343465D01*
X-87806035Y-6316216D01*
X-87729311Y-6250689D01*
X-87724290Y-6244809D01*
X-87665787Y-6206617D01*
X-87595919Y-6206116D01*
X-87536872Y-6243468D01*
G37*
G04 #@! TD.AperFunction*
G04 #@! TA.AperFunction,NonConductor*
G36*
X-90076872Y-6243468D02*
G01*
X-90075803Y-6244702D01*
X-90070689Y-6250689D01*
X-89993968Y-6316215D01*
X-89955775Y-6374720D01*
X-89950500Y-6410504D01*
X-89950500Y-29149494D01*
X-89970185Y-29216533D01*
X-89993968Y-29243784D01*
X-90070683Y-29309305D01*
X-90070685Y-29309307D01*
X-90070687Y-29309309D01*
X-90070689Y-29309311D01*
X-90075713Y-29315193D01*
X-90134219Y-29353383D01*
X-90204087Y-29353881D01*
X-90263132Y-29316526D01*
X-90264233Y-29315256D01*
X-90269311Y-29309311D01*
X-90269318Y-29309305D01*
X-90346032Y-29243784D01*
X-90384225Y-29185277D01*
X-90389500Y-29149494D01*
X-90389500Y-6410504D01*
X-90369815Y-6343465D01*
X-90346035Y-6316216D01*
X-90269311Y-6250689D01*
X-90264290Y-6244809D01*
X-90205787Y-6206617D01*
X-90135919Y-6206116D01*
X-90076872Y-6243468D01*
G37*
G04 #@! TD.AperFunction*
G04 #@! TA.AperFunction,NonConductor*
G36*
X-92616872Y-6243468D02*
G01*
X-92615803Y-6244702D01*
X-92610689Y-6250689D01*
X-92533968Y-6316215D01*
X-92495775Y-6374720D01*
X-92490500Y-6410504D01*
X-92490500Y-29149494D01*
X-92510185Y-29216533D01*
X-92533968Y-29243784D01*
X-92610683Y-29309305D01*
X-92610685Y-29309307D01*
X-92610687Y-29309309D01*
X-92610689Y-29309311D01*
X-92615713Y-29315193D01*
X-92674219Y-29353383D01*
X-92744087Y-29353881D01*
X-92803132Y-29316526D01*
X-92804233Y-29315256D01*
X-92809311Y-29309311D01*
X-92809318Y-29309305D01*
X-92886032Y-29243784D01*
X-92924225Y-29185277D01*
X-92929500Y-29149494D01*
X-92929500Y-6410504D01*
X-92909815Y-6343465D01*
X-92886035Y-6316216D01*
X-92809311Y-6250689D01*
X-92804290Y-6244809D01*
X-92745787Y-6206617D01*
X-92675919Y-6206116D01*
X-92616872Y-6243468D01*
G37*
G04 #@! TD.AperFunction*
G04 #@! TA.AperFunction,NonConductor*
G36*
X-95156872Y-6243468D02*
G01*
X-95155803Y-6244702D01*
X-95150689Y-6250689D01*
X-95073968Y-6316215D01*
X-95035775Y-6374720D01*
X-95030500Y-6410504D01*
X-95030500Y-29149494D01*
X-95050185Y-29216533D01*
X-95073968Y-29243784D01*
X-95150683Y-29309305D01*
X-95150685Y-29309307D01*
X-95150687Y-29309309D01*
X-95150689Y-29309311D01*
X-95155713Y-29315193D01*
X-95214219Y-29353383D01*
X-95284087Y-29353881D01*
X-95343132Y-29316526D01*
X-95344233Y-29315256D01*
X-95349311Y-29309311D01*
X-95349318Y-29309305D01*
X-95426032Y-29243784D01*
X-95464225Y-29185277D01*
X-95469500Y-29149494D01*
X-95469500Y-6410504D01*
X-95449815Y-6343465D01*
X-95426035Y-6316216D01*
X-95349311Y-6250689D01*
X-95344290Y-6244809D01*
X-95285787Y-6206617D01*
X-95215919Y-6206116D01*
X-95156872Y-6243468D01*
G37*
G04 #@! TD.AperFunction*
G04 #@! TA.AperFunction,NonConductor*
G36*
X-97696872Y-6243468D02*
G01*
X-97695803Y-6244702D01*
X-97690689Y-6250689D01*
X-97613968Y-6316215D01*
X-97575775Y-6374720D01*
X-97570500Y-6410504D01*
X-97570500Y-29149494D01*
X-97590185Y-29216533D01*
X-97613968Y-29243784D01*
X-97690683Y-29309305D01*
X-97690685Y-29309307D01*
X-97690687Y-29309309D01*
X-97690689Y-29309311D01*
X-97695713Y-29315193D01*
X-97754219Y-29353383D01*
X-97824087Y-29353881D01*
X-97883132Y-29316526D01*
X-97884233Y-29315256D01*
X-97889311Y-29309311D01*
X-97889318Y-29309305D01*
X-97966032Y-29243784D01*
X-98004225Y-29185277D01*
X-98009500Y-29149494D01*
X-98009500Y-6410504D01*
X-97989815Y-6343465D01*
X-97966035Y-6316216D01*
X-97889311Y-6250689D01*
X-97884290Y-6244809D01*
X-97825787Y-6206617D01*
X-97755919Y-6206116D01*
X-97696872Y-6243468D01*
G37*
G04 #@! TD.AperFunction*
G04 #@! TA.AperFunction,NonConductor*
G36*
X-114572297Y-9373148D02*
G01*
X-114538939Y-9419409D01*
X-114460469Y-9608855D01*
X-114460467Y-9608858D01*
X-114328840Y-9823653D01*
X-114328839Y-9823656D01*
X-114328836Y-9823659D01*
X-114165224Y-10015224D01*
X-114016934Y-10141875D01*
X-113973657Y-10178838D01*
X-113973654Y-10178839D01*
X-113758860Y-10310466D01*
X-113656419Y-10352898D01*
X-113526111Y-10406873D01*
X-113318251Y-10456775D01*
X-113259517Y-10489668D01*
X-110205092Y-13544092D01*
X-110205063Y-13544123D01*
X-110057223Y-13691963D01*
X-110055968Y-13693035D01*
X-110055624Y-13693562D01*
X-110053774Y-13695412D01*
X-110054163Y-13695800D01*
X-110017775Y-13751542D01*
X-110012500Y-13787325D01*
X-110012500Y-17086055D01*
X-110032185Y-17153094D01*
X-110067607Y-17189155D01*
X-110084743Y-17200606D01*
X-110115386Y-17221081D01*
X-110342099Y-17419901D01*
X-110540921Y-17646617D01*
X-110708451Y-17897341D01*
X-110708458Y-17897354D01*
X-110841818Y-18167781D01*
X-110841827Y-18167802D01*
X-110938753Y-18453335D01*
X-110938757Y-18453350D01*
X-110997582Y-18749086D01*
X-110997584Y-18749098D01*
X-111017306Y-19050000D01*
X-110997584Y-19350901D01*
X-110997582Y-19350913D01*
X-110938757Y-19646649D01*
X-110938753Y-19646664D01*
X-110841827Y-19932197D01*
X-110841818Y-19932218D01*
X-110708458Y-20202645D01*
X-110708451Y-20202658D01*
X-110540921Y-20453382D01*
X-110342099Y-20680098D01*
X-110165058Y-20835357D01*
X-110115381Y-20878922D01*
X-109864653Y-21046454D01*
X-109718335Y-21118609D01*
X-109594219Y-21179817D01*
X-109594214Y-21179819D01*
X-109594202Y-21179825D01*
X-109308657Y-21276755D01*
X-109012913Y-21335582D01*
X-109012912Y-21335582D01*
X-109012903Y-21335584D01*
X-109012862Y-21335586D01*
X-109001571Y-21336846D01*
X-108814352Y-21366500D01*
X-108814350Y-21366500D01*
X-108609650Y-21366500D01*
X-108609648Y-21366500D01*
X-108422431Y-21336846D01*
X-108411141Y-21335586D01*
X-108411097Y-21335584D01*
X-108354748Y-21324375D01*
X-108285156Y-21330602D01*
X-108242874Y-21358311D01*
X-105984819Y-23616366D01*
X-105951334Y-23677689D01*
X-105948500Y-23704047D01*
X-105948500Y-51225952D01*
X-105968185Y-51292991D01*
X-105984819Y-51313633D01*
X-108242875Y-53571688D01*
X-108304198Y-53605173D01*
X-108354746Y-53605624D01*
X-108411097Y-53594416D01*
X-108712000Y-53574694D01*
X-109012905Y-53594416D01*
X-109069257Y-53605625D01*
X-109138848Y-53599396D01*
X-109181127Y-53571688D01*
X-109661181Y-53091634D01*
X-109694666Y-53030311D01*
X-109697500Y-53003953D01*
X-109697500Y-48707452D01*
X-109677815Y-48640413D01*
X-109625011Y-48594658D01*
X-109555853Y-48584714D01*
X-109498013Y-48609077D01*
X-109434015Y-48658185D01*
X-109434013Y-48658186D01*
X-109434004Y-48658193D01*
X-109234996Y-48773091D01*
X-109022692Y-48861030D01*
X-108800727Y-48920505D01*
X-108572898Y-48950500D01*
X-108572891Y-48950500D01*
X-108343109Y-48950500D01*
X-108343102Y-48950500D01*
X-108115273Y-48920505D01*
X-107893308Y-48861030D01*
X-107681004Y-48773091D01*
X-107481996Y-48658193D01*
X-107299687Y-48518303D01*
X-107137197Y-48355813D01*
X-106997307Y-48173504D01*
X-106882409Y-47974496D01*
X-106794470Y-47762192D01*
X-106734995Y-47540227D01*
X-106705000Y-47312398D01*
X-106705000Y-46987602D01*
X-106734995Y-46759773D01*
X-106794470Y-46537808D01*
X-106882409Y-46325504D01*
X-106997307Y-46126496D01*
X-106997312Y-46126490D01*
X-106997314Y-46126486D01*
X-107131876Y-45951120D01*
X-107157070Y-45885951D01*
X-107157500Y-45875634D01*
X-107157500Y-39267648D01*
X-107189523Y-39065465D01*
X-107252782Y-38870776D01*
X-107299247Y-38779585D01*
X-107299248Y-38779584D01*
X-107345713Y-38688389D01*
X-107466034Y-38522781D01*
X-112060656Y-33928159D01*
X-112094141Y-33866836D01*
X-112089157Y-33797144D01*
X-112047285Y-33741211D01*
X-111981821Y-33716794D01*
X-111927327Y-33725186D01*
X-111787706Y-33780466D01*
X-111787707Y-33780466D01*
X-111476865Y-33860276D01*
X-111476861Y-33860277D01*
X-111424941Y-33866836D01*
X-111158476Y-33900499D01*
X-111158467Y-33900499D01*
X-111158464Y-33900500D01*
X-111158462Y-33900500D01*
X-110837538Y-33900500D01*
X-110837536Y-33900500D01*
X-110837533Y-33900499D01*
X-110837525Y-33900499D01*
X-110647537Y-33876497D01*
X-110519139Y-33860277D01*
X-110208294Y-33780466D01*
X-109909903Y-33662324D01*
X-109628672Y-33507716D01*
X-109369036Y-33319080D01*
X-109135089Y-33099390D01*
X-108930522Y-32852110D01*
X-108758561Y-32581142D01*
X-108621916Y-32290758D01*
X-108522744Y-31985538D01*
X-108462608Y-31670294D01*
X-108462607Y-31670283D01*
X-108442457Y-31350005D01*
X-108442457Y-31349994D01*
X-108462607Y-31029716D01*
X-108462608Y-31029709D01*
X-108462608Y-31029706D01*
X-108522744Y-30714462D01*
X-108621916Y-30409242D01*
X-108710492Y-30221009D01*
X-108758559Y-30118861D01*
X-108758563Y-30118855D01*
X-108930521Y-29847891D01*
X-108930523Y-29847888D01*
X-109135088Y-29600611D01*
X-109369035Y-29380921D01*
X-109369045Y-29380913D01*
X-109628661Y-29192291D01*
X-109628679Y-29192280D01*
X-109909904Y-29037675D01*
X-109909907Y-29037674D01*
X-110115535Y-28956260D01*
X-110208294Y-28919534D01*
X-110208296Y-28919533D01*
X-110208294Y-28919533D01*
X-110519136Y-28839723D01*
X-110519149Y-28839721D01*
X-110837525Y-28799500D01*
X-110837536Y-28799500D01*
X-111158464Y-28799500D01*
X-111158476Y-28799500D01*
X-111476852Y-28839721D01*
X-111476865Y-28839723D01*
X-111787706Y-28919533D01*
X-112086094Y-29037674D01*
X-112086097Y-29037675D01*
X-112307763Y-29159537D01*
X-112375993Y-29174584D01*
X-112441527Y-29150354D01*
X-112483558Y-29094540D01*
X-112491500Y-29050875D01*
X-112491500Y-21474370D01*
X-112471815Y-21407331D01*
X-112419011Y-21361576D01*
X-112367500Y-21350370D01*
X-112247173Y-21350370D01*
X-112247172Y-21350369D01*
X-112180026Y-21342804D01*
X-112112881Y-21335239D01*
X-112112878Y-21335238D01*
X-112112875Y-21335238D01*
X-111942608Y-21275659D01*
X-111789868Y-21179686D01*
X-111662314Y-21052132D01*
X-111566341Y-20899392D01*
X-111506762Y-20729125D01*
X-111491630Y-20594824D01*
X-111491630Y-17505176D01*
X-111506762Y-17370875D01*
X-111566341Y-17200608D01*
X-111662314Y-17047868D01*
X-111789868Y-16920314D01*
X-111942607Y-16824341D01*
X-112112876Y-16764761D01*
X-112112881Y-16764760D01*
X-112247170Y-16749630D01*
X-112247176Y-16749630D01*
X-114653500Y-16749630D01*
X-114720539Y-16729945D01*
X-114766294Y-16677141D01*
X-114777500Y-16625630D01*
X-114777500Y-9466861D01*
X-114757815Y-9399822D01*
X-114705011Y-9354067D01*
X-114635853Y-9344123D01*
X-114572297Y-9373148D01*
G37*
G04 #@! TD.AperFunction*
G04 #@! TA.AperFunction,NonConductor*
G36*
X-100166401Y-31994317D02*
G01*
X-100121187Y-32047585D01*
X-100110500Y-32097944D01*
X-100110500Y-54262055D01*
X-100130185Y-54329094D01*
X-100182989Y-54374849D01*
X-100252147Y-54384793D01*
X-100300472Y-54367049D01*
X-100400476Y-54304212D01*
X-100400477Y-54304211D01*
X-100466456Y-54281124D01*
X-100523231Y-54240402D01*
X-100548978Y-54175449D01*
X-100549500Y-54164083D01*
X-100549500Y-32195917D01*
X-100529815Y-32128878D01*
X-100477011Y-32083123D01*
X-100466454Y-32078875D01*
X-100464235Y-32078098D01*
X-100400478Y-32055789D01*
X-100300472Y-31992950D01*
X-100233236Y-31973950D01*
X-100166401Y-31994317D01*
G37*
G04 #@! TD.AperFunction*
G04 #@! TA.AperFunction,NonConductor*
G36*
X-116134297Y-20515797D02*
G01*
X-116096523Y-20574575D01*
X-116092280Y-20595627D01*
X-116077240Y-20729119D01*
X-116077239Y-20729124D01*
X-116017659Y-20899393D01*
X-115925256Y-21046450D01*
X-115921686Y-21052132D01*
X-115794132Y-21179686D01*
X-115641392Y-21275659D01*
X-115539124Y-21311444D01*
X-115471125Y-21335238D01*
X-115471120Y-21335239D01*
X-115380624Y-21345435D01*
X-115336830Y-21350369D01*
X-115336827Y-21350370D01*
X-115336824Y-21350370D01*
X-115216500Y-21350370D01*
X-115149461Y-21370055D01*
X-115103706Y-21422859D01*
X-115092500Y-21474370D01*
X-115092500Y-34138351D01*
X-115060478Y-34340534D01*
X-114997219Y-34535223D01*
X-114950754Y-34626414D01*
X-114904287Y-34717611D01*
X-114783966Y-34883219D01*
X-114783964Y-34883221D01*
X-109794819Y-39872366D01*
X-109761334Y-39933689D01*
X-109758500Y-39960047D01*
X-109758500Y-45592547D01*
X-109778185Y-45659586D01*
X-109830989Y-45705341D01*
X-109900147Y-45715285D01*
X-109957986Y-45690923D01*
X-110021988Y-45641813D01*
X-110021990Y-45641812D01*
X-110021996Y-45641807D01*
X-110221004Y-45526909D01*
X-110221008Y-45526907D01*
X-110433299Y-45438973D01*
X-110433306Y-45438971D01*
X-110433308Y-45438970D01*
X-110655273Y-45379495D01*
X-110705902Y-45372829D01*
X-110883095Y-45349500D01*
X-110883102Y-45349500D01*
X-111112898Y-45349500D01*
X-111112906Y-45349500D01*
X-111315413Y-45376162D01*
X-111340727Y-45379495D01*
X-111507610Y-45424211D01*
X-111562692Y-45438970D01*
X-111562702Y-45438973D01*
X-111774993Y-45526907D01*
X-111775004Y-45526912D01*
X-111883750Y-45589697D01*
X-111951651Y-45606170D01*
X-112017677Y-45583317D01*
X-112033431Y-45569991D01*
X-112083238Y-45520184D01*
X-112235977Y-45424211D01*
X-112406246Y-45364631D01*
X-112406251Y-45364630D01*
X-112540540Y-45349500D01*
X-112540546Y-45349500D01*
X-114535454Y-45349500D01*
X-114535461Y-45349500D01*
X-114669750Y-45364630D01*
X-114669755Y-45364631D01*
X-114840024Y-45424211D01*
X-114992763Y-45520184D01*
X-115120316Y-45647737D01*
X-115216289Y-45800476D01*
X-115275869Y-45970745D01*
X-115275870Y-45970750D01*
X-115291000Y-46105039D01*
X-115291000Y-48194960D01*
X-115275870Y-48329249D01*
X-115275869Y-48329254D01*
X-115216289Y-48499523D01*
X-115120315Y-48652263D01*
X-115119556Y-48653215D01*
X-115119258Y-48653946D01*
X-115116611Y-48658158D01*
X-115117349Y-48658621D01*
X-115093145Y-48717901D01*
X-115092500Y-48730531D01*
X-115092500Y-53455630D01*
X-115112185Y-53522669D01*
X-115164989Y-53568424D01*
X-115216500Y-53579630D01*
X-115336831Y-53579630D01*
X-115471120Y-53594760D01*
X-115471125Y-53594761D01*
X-115641394Y-53654341D01*
X-115794133Y-53750314D01*
X-115921686Y-53877867D01*
X-116017659Y-54030606D01*
X-116077239Y-54200875D01*
X-116077240Y-54200880D01*
X-116092280Y-54334372D01*
X-116119346Y-54398786D01*
X-116176941Y-54438342D01*
X-116246778Y-54440479D01*
X-116306685Y-54404521D01*
X-116337640Y-54341883D01*
X-116339500Y-54320489D01*
X-116339500Y-20609510D01*
X-116319815Y-20542471D01*
X-116267011Y-20496716D01*
X-116197853Y-20486772D01*
X-116134297Y-20515797D01*
G37*
G04 #@! TD.AperFunction*
G04 #@! TA.AperFunction,NonConductor*
G36*
X-3716872Y-31643468D02*
G01*
X-3715803Y-31644702D01*
X-3710689Y-31650689D01*
X-3633968Y-31716215D01*
X-3595775Y-31774720D01*
X-3590500Y-31810504D01*
X-3590500Y-54549494D01*
X-3610185Y-54616533D01*
X-3633968Y-54643784D01*
X-3710683Y-54709305D01*
X-3710685Y-54709307D01*
X-3710687Y-54709309D01*
X-3710689Y-54709311D01*
X-3715713Y-54715193D01*
X-3774219Y-54753383D01*
X-3844087Y-54753881D01*
X-3903132Y-54716526D01*
X-3904233Y-54715256D01*
X-3909311Y-54709311D01*
X-3943072Y-54680476D01*
X-3986032Y-54643784D01*
X-4024225Y-54585277D01*
X-4029500Y-54549494D01*
X-4029500Y-31810504D01*
X-4009815Y-31743465D01*
X-3986035Y-31716216D01*
X-3909311Y-31650689D01*
X-3904290Y-31644809D01*
X-3845787Y-31606617D01*
X-3775919Y-31606116D01*
X-3716872Y-31643468D01*
G37*
G04 #@! TD.AperFunction*
G04 #@! TA.AperFunction,NonConductor*
G36*
X-6256872Y-31643468D02*
G01*
X-6255803Y-31644702D01*
X-6250689Y-31650689D01*
X-6173968Y-31716215D01*
X-6135775Y-31774720D01*
X-6130500Y-31810504D01*
X-6130500Y-54549494D01*
X-6150185Y-54616533D01*
X-6173968Y-54643784D01*
X-6250683Y-54709305D01*
X-6250685Y-54709307D01*
X-6250687Y-54709309D01*
X-6250689Y-54709311D01*
X-6255713Y-54715193D01*
X-6314219Y-54753383D01*
X-6384087Y-54753881D01*
X-6443132Y-54716526D01*
X-6444233Y-54715256D01*
X-6449311Y-54709311D01*
X-6483072Y-54680476D01*
X-6526032Y-54643784D01*
X-6564225Y-54585277D01*
X-6569500Y-54549494D01*
X-6569500Y-31810504D01*
X-6549815Y-31743465D01*
X-6526035Y-31716216D01*
X-6449311Y-31650689D01*
X-6444290Y-31644809D01*
X-6385787Y-31606617D01*
X-6315919Y-31606116D01*
X-6256872Y-31643468D01*
G37*
G04 #@! TD.AperFunction*
G04 #@! TA.AperFunction,NonConductor*
G36*
X-8796872Y-31643468D02*
G01*
X-8795803Y-31644702D01*
X-8790689Y-31650689D01*
X-8713968Y-31716215D01*
X-8675775Y-31774720D01*
X-8670500Y-31810504D01*
X-8670500Y-54549494D01*
X-8690185Y-54616533D01*
X-8713968Y-54643784D01*
X-8790683Y-54709305D01*
X-8790685Y-54709307D01*
X-8790687Y-54709309D01*
X-8790689Y-54709311D01*
X-8795713Y-54715193D01*
X-8854219Y-54753383D01*
X-8924087Y-54753881D01*
X-8983132Y-54716526D01*
X-8984233Y-54715256D01*
X-8989311Y-54709311D01*
X-9023072Y-54680476D01*
X-9066032Y-54643784D01*
X-9104225Y-54585277D01*
X-9109500Y-54549494D01*
X-9109500Y-31810504D01*
X-9089815Y-31743465D01*
X-9066035Y-31716216D01*
X-8989311Y-31650689D01*
X-8984290Y-31644809D01*
X-8925787Y-31606617D01*
X-8855919Y-31606116D01*
X-8796872Y-31643468D01*
G37*
G04 #@! TD.AperFunction*
G04 #@! TA.AperFunction,NonConductor*
G36*
X-11336872Y-31643468D02*
G01*
X-11335803Y-31644702D01*
X-11330689Y-31650689D01*
X-11253968Y-31716215D01*
X-11215775Y-31774720D01*
X-11210500Y-31810504D01*
X-11210500Y-54549494D01*
X-11230185Y-54616533D01*
X-11253968Y-54643784D01*
X-11330683Y-54709305D01*
X-11330685Y-54709307D01*
X-11330687Y-54709309D01*
X-11330689Y-54709311D01*
X-11335713Y-54715193D01*
X-11394219Y-54753383D01*
X-11464087Y-54753881D01*
X-11523132Y-54716526D01*
X-11524233Y-54715256D01*
X-11529311Y-54709311D01*
X-11563072Y-54680476D01*
X-11606032Y-54643784D01*
X-11644225Y-54585277D01*
X-11649500Y-54549494D01*
X-11649500Y-31810504D01*
X-11629815Y-31743465D01*
X-11606035Y-31716216D01*
X-11529311Y-31650689D01*
X-11524290Y-31644809D01*
X-11465787Y-31606617D01*
X-11395919Y-31606116D01*
X-11336872Y-31643468D01*
G37*
G04 #@! TD.AperFunction*
G04 #@! TA.AperFunction,NonConductor*
G36*
X-13876872Y-31643468D02*
G01*
X-13875803Y-31644702D01*
X-13870689Y-31650689D01*
X-13793968Y-31716215D01*
X-13755775Y-31774720D01*
X-13750500Y-31810504D01*
X-13750500Y-54549494D01*
X-13770185Y-54616533D01*
X-13793968Y-54643784D01*
X-13870683Y-54709305D01*
X-13870685Y-54709307D01*
X-13870687Y-54709309D01*
X-13870689Y-54709311D01*
X-13875713Y-54715193D01*
X-13934219Y-54753383D01*
X-14004087Y-54753881D01*
X-14063132Y-54716526D01*
X-14064233Y-54715256D01*
X-14069311Y-54709311D01*
X-14103072Y-54680476D01*
X-14146032Y-54643784D01*
X-14184225Y-54585277D01*
X-14189500Y-54549494D01*
X-14189500Y-31810504D01*
X-14169815Y-31743465D01*
X-14146035Y-31716216D01*
X-14069311Y-31650689D01*
X-14064290Y-31644809D01*
X-14005787Y-31606617D01*
X-13935919Y-31606116D01*
X-13876872Y-31643468D01*
G37*
G04 #@! TD.AperFunction*
G04 #@! TA.AperFunction,NonConductor*
G36*
X-16416872Y-31643468D02*
G01*
X-16415803Y-31644702D01*
X-16410689Y-31650689D01*
X-16333968Y-31716215D01*
X-16295775Y-31774720D01*
X-16290500Y-31810504D01*
X-16290500Y-54549494D01*
X-16310185Y-54616533D01*
X-16333968Y-54643784D01*
X-16410683Y-54709305D01*
X-16410685Y-54709307D01*
X-16410687Y-54709309D01*
X-16410689Y-54709311D01*
X-16415713Y-54715193D01*
X-16474219Y-54753383D01*
X-16544087Y-54753881D01*
X-16603132Y-54716526D01*
X-16604233Y-54715256D01*
X-16609311Y-54709311D01*
X-16643072Y-54680476D01*
X-16686032Y-54643784D01*
X-16724225Y-54585277D01*
X-16729500Y-54549494D01*
X-16729500Y-31810504D01*
X-16709815Y-31743465D01*
X-16686035Y-31716216D01*
X-16609311Y-31650689D01*
X-16604290Y-31644809D01*
X-16545787Y-31606617D01*
X-16475919Y-31606116D01*
X-16416872Y-31643468D01*
G37*
G04 #@! TD.AperFunction*
G04 #@! TA.AperFunction,NonConductor*
G36*
X-18956872Y-31643468D02*
G01*
X-18955803Y-31644702D01*
X-18950689Y-31650689D01*
X-18873968Y-31716215D01*
X-18835775Y-31774720D01*
X-18830500Y-31810504D01*
X-18830500Y-54549494D01*
X-18850185Y-54616533D01*
X-18873968Y-54643784D01*
X-18950683Y-54709305D01*
X-18950685Y-54709307D01*
X-18950687Y-54709309D01*
X-18950689Y-54709311D01*
X-18955713Y-54715193D01*
X-19014219Y-54753383D01*
X-19084087Y-54753881D01*
X-19143132Y-54716526D01*
X-19144233Y-54715256D01*
X-19149311Y-54709311D01*
X-19183072Y-54680476D01*
X-19226032Y-54643784D01*
X-19264225Y-54585277D01*
X-19269500Y-54549494D01*
X-19269500Y-31810504D01*
X-19249815Y-31743465D01*
X-19226035Y-31716216D01*
X-19149311Y-31650689D01*
X-19144290Y-31644809D01*
X-19085787Y-31606617D01*
X-19015919Y-31606116D01*
X-18956872Y-31643468D01*
G37*
G04 #@! TD.AperFunction*
G04 #@! TA.AperFunction,NonConductor*
G36*
X-21496872Y-31643468D02*
G01*
X-21495803Y-31644702D01*
X-21490689Y-31650689D01*
X-21413968Y-31716215D01*
X-21375775Y-31774720D01*
X-21370500Y-31810504D01*
X-21370500Y-54549494D01*
X-21390185Y-54616533D01*
X-21413968Y-54643784D01*
X-21490683Y-54709305D01*
X-21490685Y-54709307D01*
X-21490687Y-54709309D01*
X-21490689Y-54709311D01*
X-21495713Y-54715193D01*
X-21554219Y-54753383D01*
X-21624087Y-54753881D01*
X-21683132Y-54716526D01*
X-21684233Y-54715256D01*
X-21689311Y-54709311D01*
X-21723072Y-54680476D01*
X-21766032Y-54643784D01*
X-21804225Y-54585277D01*
X-21809500Y-54549494D01*
X-21809500Y-31810504D01*
X-21789815Y-31743465D01*
X-21766035Y-31716216D01*
X-21689311Y-31650689D01*
X-21684290Y-31644809D01*
X-21625787Y-31606617D01*
X-21555919Y-31606116D01*
X-21496872Y-31643468D01*
G37*
G04 #@! TD.AperFunction*
G04 #@! TA.AperFunction,NonConductor*
G36*
X-24036872Y-31643468D02*
G01*
X-24035803Y-31644702D01*
X-24030689Y-31650689D01*
X-23953968Y-31716215D01*
X-23915775Y-31774720D01*
X-23910500Y-31810504D01*
X-23910500Y-54549494D01*
X-23930185Y-54616533D01*
X-23953968Y-54643784D01*
X-24030683Y-54709305D01*
X-24030685Y-54709307D01*
X-24030687Y-54709309D01*
X-24030689Y-54709311D01*
X-24035713Y-54715193D01*
X-24094219Y-54753383D01*
X-24164087Y-54753881D01*
X-24223132Y-54716526D01*
X-24224233Y-54715256D01*
X-24229311Y-54709311D01*
X-24263072Y-54680476D01*
X-24306032Y-54643784D01*
X-24344225Y-54585277D01*
X-24349500Y-54549494D01*
X-24349500Y-31810504D01*
X-24329815Y-31743465D01*
X-24306035Y-31716216D01*
X-24229311Y-31650689D01*
X-24224290Y-31644809D01*
X-24165787Y-31606617D01*
X-24095919Y-31606116D01*
X-24036872Y-31643468D01*
G37*
G04 #@! TD.AperFunction*
G04 #@! TA.AperFunction,NonConductor*
G36*
X-26576872Y-31643468D02*
G01*
X-26575803Y-31644702D01*
X-26570689Y-31650689D01*
X-26493968Y-31716215D01*
X-26455775Y-31774720D01*
X-26450500Y-31810504D01*
X-26450500Y-54549494D01*
X-26470185Y-54616533D01*
X-26493968Y-54643784D01*
X-26570683Y-54709305D01*
X-26570685Y-54709307D01*
X-26570687Y-54709309D01*
X-26570689Y-54709311D01*
X-26575713Y-54715193D01*
X-26634219Y-54753383D01*
X-26704087Y-54753881D01*
X-26763132Y-54716526D01*
X-26764233Y-54715256D01*
X-26769311Y-54709311D01*
X-26803072Y-54680476D01*
X-26846032Y-54643784D01*
X-26884225Y-54585277D01*
X-26889500Y-54549494D01*
X-26889500Y-31810504D01*
X-26869815Y-31743465D01*
X-26846035Y-31716216D01*
X-26769311Y-31650689D01*
X-26764290Y-31644809D01*
X-26705787Y-31606617D01*
X-26635919Y-31606116D01*
X-26576872Y-31643468D01*
G37*
G04 #@! TD.AperFunction*
G04 #@! TA.AperFunction,NonConductor*
G36*
X-29116872Y-31643468D02*
G01*
X-29115803Y-31644702D01*
X-29110689Y-31650689D01*
X-29033968Y-31716215D01*
X-28995775Y-31774720D01*
X-28990500Y-31810504D01*
X-28990500Y-54549494D01*
X-29010185Y-54616533D01*
X-29033968Y-54643784D01*
X-29110683Y-54709305D01*
X-29110685Y-54709307D01*
X-29110687Y-54709309D01*
X-29110689Y-54709311D01*
X-29115713Y-54715193D01*
X-29174219Y-54753383D01*
X-29244087Y-54753881D01*
X-29303132Y-54716526D01*
X-29304233Y-54715256D01*
X-29309311Y-54709311D01*
X-29343072Y-54680476D01*
X-29386032Y-54643784D01*
X-29424225Y-54585277D01*
X-29429500Y-54549494D01*
X-29429500Y-31810504D01*
X-29409815Y-31743465D01*
X-29386035Y-31716216D01*
X-29309311Y-31650689D01*
X-29304290Y-31644809D01*
X-29245787Y-31606617D01*
X-29175919Y-31606116D01*
X-29116872Y-31643468D01*
G37*
G04 #@! TD.AperFunction*
G04 #@! TA.AperFunction,NonConductor*
G36*
X-31656872Y-31643468D02*
G01*
X-31655803Y-31644702D01*
X-31650689Y-31650689D01*
X-31573968Y-31716215D01*
X-31535775Y-31774720D01*
X-31530500Y-31810504D01*
X-31530500Y-54549494D01*
X-31550185Y-54616533D01*
X-31573968Y-54643784D01*
X-31650683Y-54709305D01*
X-31650685Y-54709307D01*
X-31650687Y-54709309D01*
X-31650689Y-54709311D01*
X-31655713Y-54715193D01*
X-31714219Y-54753383D01*
X-31784087Y-54753881D01*
X-31843132Y-54716526D01*
X-31844233Y-54715256D01*
X-31849311Y-54709311D01*
X-31883072Y-54680476D01*
X-31926032Y-54643784D01*
X-31964225Y-54585277D01*
X-31969500Y-54549494D01*
X-31969500Y-31810504D01*
X-31949815Y-31743465D01*
X-31926035Y-31716216D01*
X-31849311Y-31650689D01*
X-31844290Y-31644809D01*
X-31785787Y-31606617D01*
X-31715919Y-31606116D01*
X-31656872Y-31643468D01*
G37*
G04 #@! TD.AperFunction*
G04 #@! TA.AperFunction,NonConductor*
G36*
X-34196872Y-31643468D02*
G01*
X-34195803Y-31644702D01*
X-34190689Y-31650689D01*
X-34113968Y-31716215D01*
X-34075775Y-31774720D01*
X-34070500Y-31810504D01*
X-34070500Y-54549494D01*
X-34090185Y-54616533D01*
X-34113968Y-54643784D01*
X-34190683Y-54709305D01*
X-34190685Y-54709307D01*
X-34190687Y-54709309D01*
X-34190689Y-54709311D01*
X-34195713Y-54715193D01*
X-34254219Y-54753383D01*
X-34324087Y-54753881D01*
X-34383132Y-54716526D01*
X-34384233Y-54715256D01*
X-34389311Y-54709311D01*
X-34423072Y-54680476D01*
X-34466032Y-54643784D01*
X-34504225Y-54585277D01*
X-34509500Y-54549494D01*
X-34509500Y-31810504D01*
X-34489815Y-31743465D01*
X-34466035Y-31716216D01*
X-34389311Y-31650689D01*
X-34384290Y-31644809D01*
X-34325787Y-31606617D01*
X-34255919Y-31606116D01*
X-34196872Y-31643468D01*
G37*
G04 #@! TD.AperFunction*
G04 #@! TA.AperFunction,NonConductor*
G36*
X-36736872Y-31643468D02*
G01*
X-36735803Y-31644702D01*
X-36730689Y-31650689D01*
X-36653968Y-31716215D01*
X-36615775Y-31774720D01*
X-36610500Y-31810504D01*
X-36610500Y-54549494D01*
X-36630185Y-54616533D01*
X-36653968Y-54643784D01*
X-36730683Y-54709305D01*
X-36730685Y-54709307D01*
X-36730687Y-54709309D01*
X-36730689Y-54709311D01*
X-36735713Y-54715193D01*
X-36794219Y-54753383D01*
X-36864087Y-54753881D01*
X-36923132Y-54716526D01*
X-36924233Y-54715256D01*
X-36929311Y-54709311D01*
X-36963072Y-54680476D01*
X-37006032Y-54643784D01*
X-37044225Y-54585277D01*
X-37049500Y-54549494D01*
X-37049500Y-31810504D01*
X-37029815Y-31743465D01*
X-37006035Y-31716216D01*
X-36929311Y-31650689D01*
X-36924290Y-31644809D01*
X-36865787Y-31606617D01*
X-36795919Y-31606116D01*
X-36736872Y-31643468D01*
G37*
G04 #@! TD.AperFunction*
G04 #@! TA.AperFunction,NonConductor*
G36*
X-39276872Y-31643468D02*
G01*
X-39275803Y-31644702D01*
X-39270689Y-31650689D01*
X-39193968Y-31716215D01*
X-39155775Y-31774720D01*
X-39150500Y-31810504D01*
X-39150500Y-54549494D01*
X-39170185Y-54616533D01*
X-39193968Y-54643784D01*
X-39270683Y-54709305D01*
X-39270685Y-54709307D01*
X-39270687Y-54709309D01*
X-39270689Y-54709311D01*
X-39275713Y-54715193D01*
X-39334219Y-54753383D01*
X-39404087Y-54753881D01*
X-39463132Y-54716526D01*
X-39464233Y-54715256D01*
X-39469311Y-54709311D01*
X-39503072Y-54680476D01*
X-39546032Y-54643784D01*
X-39584225Y-54585277D01*
X-39589500Y-54549494D01*
X-39589500Y-31810504D01*
X-39569815Y-31743465D01*
X-39546035Y-31716216D01*
X-39469311Y-31650689D01*
X-39464290Y-31644809D01*
X-39405787Y-31606617D01*
X-39335919Y-31606116D01*
X-39276872Y-31643468D01*
G37*
G04 #@! TD.AperFunction*
G04 #@! TA.AperFunction,NonConductor*
G36*
X-41816872Y-31643468D02*
G01*
X-41815803Y-31644702D01*
X-41810689Y-31650689D01*
X-41733968Y-31716215D01*
X-41695775Y-31774720D01*
X-41690500Y-31810504D01*
X-41690500Y-54549494D01*
X-41710185Y-54616533D01*
X-41733968Y-54643784D01*
X-41810683Y-54709305D01*
X-41810685Y-54709307D01*
X-41810687Y-54709309D01*
X-41810689Y-54709311D01*
X-41815713Y-54715193D01*
X-41874219Y-54753383D01*
X-41944087Y-54753881D01*
X-42003132Y-54716526D01*
X-42004233Y-54715256D01*
X-42009311Y-54709311D01*
X-42043072Y-54680476D01*
X-42086032Y-54643784D01*
X-42124225Y-54585277D01*
X-42129500Y-54549494D01*
X-42129500Y-31810504D01*
X-42109815Y-31743465D01*
X-42086035Y-31716216D01*
X-42009311Y-31650689D01*
X-42004290Y-31644809D01*
X-41945787Y-31606617D01*
X-41875919Y-31606116D01*
X-41816872Y-31643468D01*
G37*
G04 #@! TD.AperFunction*
G04 #@! TA.AperFunction,NonConductor*
G36*
X-44356872Y-31643468D02*
G01*
X-44355803Y-31644702D01*
X-44350689Y-31650689D01*
X-44273968Y-31716215D01*
X-44235775Y-31774720D01*
X-44230500Y-31810504D01*
X-44230500Y-54549494D01*
X-44250185Y-54616533D01*
X-44273968Y-54643784D01*
X-44350683Y-54709305D01*
X-44350685Y-54709307D01*
X-44350687Y-54709309D01*
X-44350689Y-54709311D01*
X-44355713Y-54715193D01*
X-44414219Y-54753383D01*
X-44484087Y-54753881D01*
X-44543132Y-54716526D01*
X-44544233Y-54715256D01*
X-44549311Y-54709311D01*
X-44583072Y-54680476D01*
X-44626032Y-54643784D01*
X-44664225Y-54585277D01*
X-44669500Y-54549494D01*
X-44669500Y-31810504D01*
X-44649815Y-31743465D01*
X-44626035Y-31716216D01*
X-44549311Y-31650689D01*
X-44544290Y-31644809D01*
X-44485787Y-31606617D01*
X-44415919Y-31606116D01*
X-44356872Y-31643468D01*
G37*
G04 #@! TD.AperFunction*
G04 #@! TA.AperFunction,NonConductor*
G36*
X-46896872Y-31643468D02*
G01*
X-46895803Y-31644702D01*
X-46890689Y-31650689D01*
X-46813968Y-31716215D01*
X-46775775Y-31774720D01*
X-46770500Y-31810504D01*
X-46770500Y-54549494D01*
X-46790185Y-54616533D01*
X-46813968Y-54643784D01*
X-46890683Y-54709305D01*
X-46890685Y-54709307D01*
X-46890687Y-54709309D01*
X-46890689Y-54709311D01*
X-46895713Y-54715193D01*
X-46954219Y-54753383D01*
X-47024087Y-54753881D01*
X-47083132Y-54716526D01*
X-47084233Y-54715256D01*
X-47089311Y-54709311D01*
X-47123072Y-54680476D01*
X-47166032Y-54643784D01*
X-47204225Y-54585277D01*
X-47209500Y-54549494D01*
X-47209500Y-31810504D01*
X-47189815Y-31743465D01*
X-47166035Y-31716216D01*
X-47089311Y-31650689D01*
X-47084290Y-31644809D01*
X-47025787Y-31606617D01*
X-46955919Y-31606116D01*
X-46896872Y-31643468D01*
G37*
G04 #@! TD.AperFunction*
G04 #@! TA.AperFunction,NonConductor*
G36*
X-49436872Y-31643468D02*
G01*
X-49435803Y-31644702D01*
X-49430689Y-31650689D01*
X-49353968Y-31716215D01*
X-49315775Y-31774720D01*
X-49310500Y-31810504D01*
X-49310500Y-54549494D01*
X-49330185Y-54616533D01*
X-49353968Y-54643784D01*
X-49430683Y-54709305D01*
X-49430685Y-54709307D01*
X-49430687Y-54709309D01*
X-49430689Y-54709311D01*
X-49435713Y-54715193D01*
X-49494219Y-54753383D01*
X-49564087Y-54753881D01*
X-49623132Y-54716526D01*
X-49624233Y-54715256D01*
X-49629311Y-54709311D01*
X-49663072Y-54680476D01*
X-49706032Y-54643784D01*
X-49744225Y-54585277D01*
X-49749500Y-54549494D01*
X-49749500Y-31810504D01*
X-49729815Y-31743465D01*
X-49706035Y-31716216D01*
X-49629311Y-31650689D01*
X-49624290Y-31644809D01*
X-49565787Y-31606617D01*
X-49495919Y-31606116D01*
X-49436872Y-31643468D01*
G37*
G04 #@! TD.AperFunction*
G04 #@! TA.AperFunction,NonConductor*
G36*
X-51976872Y-31643468D02*
G01*
X-51975803Y-31644702D01*
X-51970689Y-31650689D01*
X-51893968Y-31716215D01*
X-51855775Y-31774720D01*
X-51850500Y-31810504D01*
X-51850500Y-54549494D01*
X-51870185Y-54616533D01*
X-51893968Y-54643784D01*
X-51970683Y-54709305D01*
X-51970685Y-54709307D01*
X-51970687Y-54709309D01*
X-51970689Y-54709311D01*
X-51975713Y-54715193D01*
X-52034219Y-54753383D01*
X-52104087Y-54753881D01*
X-52163132Y-54716526D01*
X-52164233Y-54715256D01*
X-52169311Y-54709311D01*
X-52203072Y-54680476D01*
X-52246032Y-54643784D01*
X-52284225Y-54585277D01*
X-52289500Y-54549494D01*
X-52289500Y-31810504D01*
X-52269815Y-31743465D01*
X-52246035Y-31716216D01*
X-52169311Y-31650689D01*
X-52164290Y-31644809D01*
X-52105787Y-31606617D01*
X-52035919Y-31606116D01*
X-51976872Y-31643468D01*
G37*
G04 #@! TD.AperFunction*
G04 #@! TA.AperFunction,NonConductor*
G36*
X-54516872Y-31643468D02*
G01*
X-54515803Y-31644702D01*
X-54510689Y-31650689D01*
X-54433968Y-31716215D01*
X-54395775Y-31774720D01*
X-54390500Y-31810504D01*
X-54390500Y-54549494D01*
X-54410185Y-54616533D01*
X-54433968Y-54643784D01*
X-54510683Y-54709305D01*
X-54510685Y-54709307D01*
X-54510687Y-54709309D01*
X-54510689Y-54709311D01*
X-54515713Y-54715193D01*
X-54574219Y-54753383D01*
X-54644087Y-54753881D01*
X-54703132Y-54716526D01*
X-54704233Y-54715256D01*
X-54709311Y-54709311D01*
X-54743072Y-54680476D01*
X-54786032Y-54643784D01*
X-54824225Y-54585277D01*
X-54829500Y-54549494D01*
X-54829500Y-31810504D01*
X-54809815Y-31743465D01*
X-54786035Y-31716216D01*
X-54709311Y-31650689D01*
X-54704290Y-31644809D01*
X-54645787Y-31606617D01*
X-54575919Y-31606116D01*
X-54516872Y-31643468D01*
G37*
G04 #@! TD.AperFunction*
G04 #@! TA.AperFunction,NonConductor*
G36*
X-64676872Y-31643468D02*
G01*
X-64675803Y-31644702D01*
X-64670689Y-31650689D01*
X-64593968Y-31716215D01*
X-64555775Y-31774720D01*
X-64550500Y-31810504D01*
X-64550500Y-54549494D01*
X-64570185Y-54616533D01*
X-64593968Y-54643784D01*
X-64670683Y-54709305D01*
X-64670685Y-54709307D01*
X-64670687Y-54709309D01*
X-64670689Y-54709311D01*
X-64675713Y-54715193D01*
X-64734219Y-54753383D01*
X-64804087Y-54753881D01*
X-64863132Y-54716526D01*
X-64864233Y-54715256D01*
X-64869311Y-54709311D01*
X-64903072Y-54680476D01*
X-64946032Y-54643784D01*
X-64984225Y-54585277D01*
X-64989500Y-54549494D01*
X-64989500Y-31810504D01*
X-64969815Y-31743465D01*
X-64946035Y-31716216D01*
X-64869311Y-31650689D01*
X-64864290Y-31644809D01*
X-64805787Y-31606617D01*
X-64735919Y-31606116D01*
X-64676872Y-31643468D01*
G37*
G04 #@! TD.AperFunction*
G04 #@! TA.AperFunction,NonConductor*
G36*
X-67216872Y-31643468D02*
G01*
X-67215803Y-31644702D01*
X-67210689Y-31650689D01*
X-67133968Y-31716215D01*
X-67095775Y-31774720D01*
X-67090500Y-31810504D01*
X-67090500Y-54549494D01*
X-67110185Y-54616533D01*
X-67133968Y-54643784D01*
X-67210683Y-54709305D01*
X-67210685Y-54709307D01*
X-67210687Y-54709309D01*
X-67210689Y-54709311D01*
X-67215713Y-54715193D01*
X-67274219Y-54753383D01*
X-67344087Y-54753881D01*
X-67403132Y-54716526D01*
X-67404233Y-54715256D01*
X-67409311Y-54709311D01*
X-67443072Y-54680476D01*
X-67486032Y-54643784D01*
X-67524225Y-54585277D01*
X-67529500Y-54549494D01*
X-67529500Y-31810504D01*
X-67509815Y-31743465D01*
X-67486035Y-31716216D01*
X-67409311Y-31650689D01*
X-67404290Y-31644809D01*
X-67345787Y-31606617D01*
X-67275919Y-31606116D01*
X-67216872Y-31643468D01*
G37*
G04 #@! TD.AperFunction*
G04 #@! TA.AperFunction,NonConductor*
G36*
X-69756872Y-31643468D02*
G01*
X-69755803Y-31644702D01*
X-69750689Y-31650689D01*
X-69673968Y-31716215D01*
X-69635775Y-31774720D01*
X-69630500Y-31810504D01*
X-69630500Y-54549494D01*
X-69650185Y-54616533D01*
X-69673968Y-54643784D01*
X-69750683Y-54709305D01*
X-69750685Y-54709307D01*
X-69750687Y-54709309D01*
X-69750689Y-54709311D01*
X-69755713Y-54715193D01*
X-69814219Y-54753383D01*
X-69884087Y-54753881D01*
X-69943132Y-54716526D01*
X-69944233Y-54715256D01*
X-69949311Y-54709311D01*
X-69983072Y-54680476D01*
X-70026032Y-54643784D01*
X-70064225Y-54585277D01*
X-70069500Y-54549494D01*
X-70069500Y-31810504D01*
X-70049815Y-31743465D01*
X-70026035Y-31716216D01*
X-69949311Y-31650689D01*
X-69944290Y-31644809D01*
X-69885787Y-31606617D01*
X-69815919Y-31606116D01*
X-69756872Y-31643468D01*
G37*
G04 #@! TD.AperFunction*
G04 #@! TA.AperFunction,NonConductor*
G36*
X-72296872Y-31643468D02*
G01*
X-72295803Y-31644702D01*
X-72290689Y-31650689D01*
X-72213968Y-31716215D01*
X-72175775Y-31774720D01*
X-72170500Y-31810504D01*
X-72170500Y-54549494D01*
X-72190185Y-54616533D01*
X-72213968Y-54643784D01*
X-72290683Y-54709305D01*
X-72290685Y-54709307D01*
X-72290687Y-54709309D01*
X-72290689Y-54709311D01*
X-72295713Y-54715193D01*
X-72354219Y-54753383D01*
X-72424087Y-54753881D01*
X-72483132Y-54716526D01*
X-72484233Y-54715256D01*
X-72489311Y-54709311D01*
X-72523072Y-54680476D01*
X-72566032Y-54643784D01*
X-72604225Y-54585277D01*
X-72609500Y-54549494D01*
X-72609500Y-31810504D01*
X-72589815Y-31743465D01*
X-72566035Y-31716216D01*
X-72489311Y-31650689D01*
X-72484290Y-31644809D01*
X-72425787Y-31606617D01*
X-72355919Y-31606116D01*
X-72296872Y-31643468D01*
G37*
G04 #@! TD.AperFunction*
G04 #@! TA.AperFunction,NonConductor*
G36*
X-74836872Y-31643468D02*
G01*
X-74835803Y-31644702D01*
X-74830689Y-31650689D01*
X-74753968Y-31716215D01*
X-74715775Y-31774720D01*
X-74710500Y-31810504D01*
X-74710500Y-54549494D01*
X-74730185Y-54616533D01*
X-74753968Y-54643784D01*
X-74830683Y-54709305D01*
X-74830685Y-54709307D01*
X-74830687Y-54709309D01*
X-74830689Y-54709311D01*
X-74835713Y-54715193D01*
X-74894219Y-54753383D01*
X-74964087Y-54753881D01*
X-75023132Y-54716526D01*
X-75024233Y-54715256D01*
X-75029311Y-54709311D01*
X-75063072Y-54680476D01*
X-75106032Y-54643784D01*
X-75144225Y-54585277D01*
X-75149500Y-54549494D01*
X-75149500Y-31810504D01*
X-75129815Y-31743465D01*
X-75106035Y-31716216D01*
X-75029311Y-31650689D01*
X-75024290Y-31644809D01*
X-74965787Y-31606617D01*
X-74895919Y-31606116D01*
X-74836872Y-31643468D01*
G37*
G04 #@! TD.AperFunction*
G04 #@! TA.AperFunction,NonConductor*
G36*
X-77376872Y-31643468D02*
G01*
X-77375803Y-31644702D01*
X-77370689Y-31650689D01*
X-77293968Y-31716215D01*
X-77255775Y-31774720D01*
X-77250500Y-31810504D01*
X-77250500Y-54549494D01*
X-77270185Y-54616533D01*
X-77293968Y-54643784D01*
X-77370683Y-54709305D01*
X-77370685Y-54709307D01*
X-77370687Y-54709309D01*
X-77370689Y-54709311D01*
X-77375713Y-54715193D01*
X-77434219Y-54753383D01*
X-77504087Y-54753881D01*
X-77563132Y-54716526D01*
X-77564233Y-54715256D01*
X-77569311Y-54709311D01*
X-77603072Y-54680476D01*
X-77646032Y-54643784D01*
X-77684225Y-54585277D01*
X-77689500Y-54549494D01*
X-77689500Y-31810504D01*
X-77669815Y-31743465D01*
X-77646035Y-31716216D01*
X-77569311Y-31650689D01*
X-77564290Y-31644809D01*
X-77505787Y-31606617D01*
X-77435919Y-31606116D01*
X-77376872Y-31643468D01*
G37*
G04 #@! TD.AperFunction*
G04 #@! TA.AperFunction,NonConductor*
G36*
X-79916872Y-31643468D02*
G01*
X-79915803Y-31644702D01*
X-79910689Y-31650689D01*
X-79833968Y-31716215D01*
X-79795775Y-31774720D01*
X-79790500Y-31810504D01*
X-79790500Y-54549494D01*
X-79810185Y-54616533D01*
X-79833968Y-54643784D01*
X-79910683Y-54709305D01*
X-79910685Y-54709307D01*
X-79910687Y-54709309D01*
X-79910689Y-54709311D01*
X-79915713Y-54715193D01*
X-79974219Y-54753383D01*
X-80044087Y-54753881D01*
X-80103132Y-54716526D01*
X-80104233Y-54715256D01*
X-80109311Y-54709311D01*
X-80143072Y-54680476D01*
X-80186032Y-54643784D01*
X-80224225Y-54585277D01*
X-80229500Y-54549494D01*
X-80229500Y-31810504D01*
X-80209815Y-31743465D01*
X-80186035Y-31716216D01*
X-80109311Y-31650689D01*
X-80104290Y-31644809D01*
X-80045787Y-31606617D01*
X-79975919Y-31606116D01*
X-79916872Y-31643468D01*
G37*
G04 #@! TD.AperFunction*
G04 #@! TA.AperFunction,NonConductor*
G36*
X-82456872Y-31643468D02*
G01*
X-82455803Y-31644702D01*
X-82450689Y-31650689D01*
X-82373968Y-31716215D01*
X-82335775Y-31774720D01*
X-82330500Y-31810504D01*
X-82330500Y-54549494D01*
X-82350185Y-54616533D01*
X-82373968Y-54643784D01*
X-82450683Y-54709305D01*
X-82450685Y-54709307D01*
X-82450687Y-54709309D01*
X-82450689Y-54709311D01*
X-82455713Y-54715193D01*
X-82514219Y-54753383D01*
X-82584087Y-54753881D01*
X-82643132Y-54716526D01*
X-82644233Y-54715256D01*
X-82649311Y-54709311D01*
X-82683072Y-54680476D01*
X-82726032Y-54643784D01*
X-82764225Y-54585277D01*
X-82769500Y-54549494D01*
X-82769500Y-31810504D01*
X-82749815Y-31743465D01*
X-82726035Y-31716216D01*
X-82649311Y-31650689D01*
X-82644290Y-31644809D01*
X-82585787Y-31606617D01*
X-82515919Y-31606116D01*
X-82456872Y-31643468D01*
G37*
G04 #@! TD.AperFunction*
G04 #@! TA.AperFunction,NonConductor*
G36*
X-84996872Y-31643468D02*
G01*
X-84995803Y-31644702D01*
X-84990689Y-31650689D01*
X-84913968Y-31716215D01*
X-84875775Y-31774720D01*
X-84870500Y-31810504D01*
X-84870500Y-54549494D01*
X-84890185Y-54616533D01*
X-84913968Y-54643784D01*
X-84990683Y-54709305D01*
X-84990685Y-54709307D01*
X-84990687Y-54709309D01*
X-84990689Y-54709311D01*
X-84995713Y-54715193D01*
X-85054219Y-54753383D01*
X-85124087Y-54753881D01*
X-85183132Y-54716526D01*
X-85184233Y-54715256D01*
X-85189311Y-54709311D01*
X-85223072Y-54680476D01*
X-85266032Y-54643784D01*
X-85304225Y-54585277D01*
X-85309500Y-54549494D01*
X-85309500Y-31810504D01*
X-85289815Y-31743465D01*
X-85266035Y-31716216D01*
X-85189311Y-31650689D01*
X-85184290Y-31644809D01*
X-85125787Y-31606617D01*
X-85055919Y-31606116D01*
X-84996872Y-31643468D01*
G37*
G04 #@! TD.AperFunction*
G04 #@! TA.AperFunction,NonConductor*
G36*
X-87536872Y-31643468D02*
G01*
X-87535803Y-31644702D01*
X-87530689Y-31650689D01*
X-87453968Y-31716215D01*
X-87415775Y-31774720D01*
X-87410500Y-31810504D01*
X-87410500Y-54549494D01*
X-87430185Y-54616533D01*
X-87453968Y-54643784D01*
X-87530683Y-54709305D01*
X-87530685Y-54709307D01*
X-87530687Y-54709309D01*
X-87530689Y-54709311D01*
X-87535713Y-54715193D01*
X-87594219Y-54753383D01*
X-87664087Y-54753881D01*
X-87723132Y-54716526D01*
X-87724233Y-54715256D01*
X-87729311Y-54709311D01*
X-87763072Y-54680476D01*
X-87806032Y-54643784D01*
X-87844225Y-54585277D01*
X-87849500Y-54549494D01*
X-87849500Y-31810504D01*
X-87829815Y-31743465D01*
X-87806035Y-31716216D01*
X-87729311Y-31650689D01*
X-87724290Y-31644809D01*
X-87665787Y-31606617D01*
X-87595919Y-31606116D01*
X-87536872Y-31643468D01*
G37*
G04 #@! TD.AperFunction*
G04 #@! TA.AperFunction,NonConductor*
G36*
X-90076872Y-31643468D02*
G01*
X-90075803Y-31644702D01*
X-90070689Y-31650689D01*
X-89993968Y-31716215D01*
X-89955775Y-31774720D01*
X-89950500Y-31810504D01*
X-89950500Y-54549494D01*
X-89970185Y-54616533D01*
X-89993968Y-54643784D01*
X-90070683Y-54709305D01*
X-90070685Y-54709307D01*
X-90070687Y-54709309D01*
X-90070689Y-54709311D01*
X-90075713Y-54715193D01*
X-90134219Y-54753383D01*
X-90204087Y-54753881D01*
X-90263132Y-54716526D01*
X-90264233Y-54715256D01*
X-90269311Y-54709311D01*
X-90303072Y-54680476D01*
X-90346032Y-54643784D01*
X-90384225Y-54585277D01*
X-90389500Y-54549494D01*
X-90389500Y-31810504D01*
X-90369815Y-31743465D01*
X-90346035Y-31716216D01*
X-90269311Y-31650689D01*
X-90264290Y-31644809D01*
X-90205787Y-31606617D01*
X-90135919Y-31606116D01*
X-90076872Y-31643468D01*
G37*
G04 #@! TD.AperFunction*
G04 #@! TA.AperFunction,NonConductor*
G36*
X-92616872Y-31643468D02*
G01*
X-92615803Y-31644702D01*
X-92610689Y-31650689D01*
X-92533968Y-31716215D01*
X-92495775Y-31774720D01*
X-92490500Y-31810504D01*
X-92490500Y-54549494D01*
X-92510185Y-54616533D01*
X-92533968Y-54643784D01*
X-92610683Y-54709305D01*
X-92610685Y-54709307D01*
X-92610687Y-54709309D01*
X-92610689Y-54709311D01*
X-92615713Y-54715193D01*
X-92674219Y-54753383D01*
X-92744087Y-54753881D01*
X-92803132Y-54716526D01*
X-92804233Y-54715256D01*
X-92809311Y-54709311D01*
X-92843072Y-54680476D01*
X-92886032Y-54643784D01*
X-92924225Y-54585277D01*
X-92929500Y-54549494D01*
X-92929500Y-31810504D01*
X-92909815Y-31743465D01*
X-92886035Y-31716216D01*
X-92809311Y-31650689D01*
X-92804290Y-31644809D01*
X-92745787Y-31606617D01*
X-92675919Y-31606116D01*
X-92616872Y-31643468D01*
G37*
G04 #@! TD.AperFunction*
G04 #@! TA.AperFunction,NonConductor*
G36*
X-95156872Y-31643468D02*
G01*
X-95155803Y-31644702D01*
X-95150689Y-31650689D01*
X-95073968Y-31716215D01*
X-95035775Y-31774720D01*
X-95030500Y-31810504D01*
X-95030500Y-54549494D01*
X-95050185Y-54616533D01*
X-95073968Y-54643784D01*
X-95150683Y-54709305D01*
X-95150685Y-54709307D01*
X-95150687Y-54709309D01*
X-95150689Y-54709311D01*
X-95155713Y-54715193D01*
X-95214219Y-54753383D01*
X-95284087Y-54753881D01*
X-95343132Y-54716526D01*
X-95344233Y-54715256D01*
X-95349311Y-54709311D01*
X-95383072Y-54680476D01*
X-95426032Y-54643784D01*
X-95464225Y-54585277D01*
X-95469500Y-54549494D01*
X-95469500Y-31810504D01*
X-95449815Y-31743465D01*
X-95426035Y-31716216D01*
X-95349311Y-31650689D01*
X-95344290Y-31644809D01*
X-95285787Y-31606617D01*
X-95215919Y-31606116D01*
X-95156872Y-31643468D01*
G37*
G04 #@! TD.AperFunction*
G04 #@! TA.AperFunction,NonConductor*
G36*
X-97696872Y-31643468D02*
G01*
X-97695803Y-31644702D01*
X-97690689Y-31650689D01*
X-97613968Y-31716215D01*
X-97575775Y-31774720D01*
X-97570500Y-31810504D01*
X-97570500Y-54549494D01*
X-97590185Y-54616533D01*
X-97613968Y-54643784D01*
X-97690683Y-54709305D01*
X-97690685Y-54709307D01*
X-97690687Y-54709309D01*
X-97690689Y-54709311D01*
X-97695713Y-54715193D01*
X-97754219Y-54753383D01*
X-97824087Y-54753881D01*
X-97883132Y-54716526D01*
X-97884233Y-54715256D01*
X-97889311Y-54709311D01*
X-97923072Y-54680476D01*
X-97966032Y-54643784D01*
X-98004225Y-54585277D01*
X-98009500Y-54549494D01*
X-98009500Y-31810504D01*
X-97989815Y-31743465D01*
X-97966035Y-31716216D01*
X-97889311Y-31650689D01*
X-97884290Y-31644809D01*
X-97825787Y-31606617D01*
X-97755919Y-31606116D01*
X-97696872Y-31643468D01*
G37*
G04 #@! TD.AperFunction*
G04 #@! TA.AperFunction,NonConductor*
G36*
X-103142297Y-31742946D02*
G01*
X-103118507Y-31770686D01*
X-103079816Y-31832262D01*
X-102952262Y-31959816D01*
X-102911319Y-31985542D01*
X-102799522Y-32055789D01*
X-102733546Y-32078875D01*
X-102676770Y-32119597D01*
X-102651022Y-32184549D01*
X-102650500Y-32195917D01*
X-102650500Y-54164083D01*
X-102670185Y-54231122D01*
X-102722989Y-54276877D01*
X-102733544Y-54281124D01*
X-102799524Y-54304211D01*
X-102799525Y-54304212D01*
X-102952263Y-54400184D01*
X-103079816Y-54527737D01*
X-103175789Y-54680476D01*
X-103235369Y-54850745D01*
X-103235370Y-54850750D01*
X-103250500Y-54985039D01*
X-103250500Y-56774960D01*
X-103235370Y-56909249D01*
X-103235369Y-56909254D01*
X-103175789Y-57079523D01*
X-103087891Y-57219411D01*
X-103079816Y-57232262D01*
X-102952262Y-57359816D01*
X-102861920Y-57416582D01*
X-102801458Y-57454573D01*
X-102799522Y-57455789D01*
X-102644316Y-57510098D01*
X-102629255Y-57515368D01*
X-102629250Y-57515369D01*
X-102538754Y-57525565D01*
X-102494960Y-57530499D01*
X-102494957Y-57530500D01*
X-102494954Y-57530500D01*
X-100705043Y-57530500D01*
X-100705042Y-57530499D01*
X-100637896Y-57522934D01*
X-100570751Y-57515369D01*
X-100570748Y-57515368D01*
X-100570745Y-57515368D01*
X-100400478Y-57455789D01*
X-100247738Y-57359816D01*
X-100148263Y-57260340D01*
X-100086944Y-57226858D01*
X-100017252Y-57231842D01*
X-99995795Y-57242297D01*
X-99811629Y-57355154D01*
X-99741329Y-57384272D01*
X-99571610Y-57454573D01*
X-99318994Y-57515221D01*
X-99060000Y-57535604D01*
X-98801006Y-57515221D01*
X-98548390Y-57454573D01*
X-98308372Y-57355154D01*
X-98086860Y-57219412D01*
X-97889311Y-57050689D01*
X-97884290Y-57044809D01*
X-97825787Y-57006617D01*
X-97755919Y-57006116D01*
X-97696872Y-57043468D01*
X-97695803Y-57044702D01*
X-97690689Y-57050689D01*
X-97493140Y-57219412D01*
X-97271628Y-57355154D01*
X-97271626Y-57355154D01*
X-97271624Y-57355156D01*
X-97260371Y-57359817D01*
X-97031610Y-57454573D01*
X-96778994Y-57515221D01*
X-96520000Y-57535604D01*
X-96261006Y-57515221D01*
X-96008390Y-57454573D01*
X-95768372Y-57355154D01*
X-95546860Y-57219412D01*
X-95349311Y-57050689D01*
X-95344290Y-57044809D01*
X-95285787Y-57006617D01*
X-95215919Y-57006116D01*
X-95156872Y-57043468D01*
X-95155803Y-57044702D01*
X-95150689Y-57050689D01*
X-94953140Y-57219412D01*
X-94731628Y-57355154D01*
X-94731626Y-57355154D01*
X-94731624Y-57355156D01*
X-94720371Y-57359817D01*
X-94491610Y-57454573D01*
X-94238994Y-57515221D01*
X-93980000Y-57535604D01*
X-93721006Y-57515221D01*
X-93468390Y-57454573D01*
X-93228372Y-57355154D01*
X-93006860Y-57219412D01*
X-92809311Y-57050689D01*
X-92804290Y-57044809D01*
X-92745787Y-57006617D01*
X-92675919Y-57006116D01*
X-92616872Y-57043468D01*
X-92615803Y-57044702D01*
X-92610689Y-57050689D01*
X-92413140Y-57219412D01*
X-92191628Y-57355154D01*
X-92191626Y-57355154D01*
X-92191624Y-57355156D01*
X-92180371Y-57359817D01*
X-91951610Y-57454573D01*
X-91698994Y-57515221D01*
X-91440000Y-57535604D01*
X-91181006Y-57515221D01*
X-90928390Y-57454573D01*
X-90688372Y-57355154D01*
X-90466860Y-57219412D01*
X-90269311Y-57050689D01*
X-90264290Y-57044809D01*
X-90205787Y-57006617D01*
X-90135919Y-57006116D01*
X-90076872Y-57043468D01*
X-90075803Y-57044702D01*
X-90070689Y-57050689D01*
X-89873140Y-57219412D01*
X-89651628Y-57355154D01*
X-89651626Y-57355154D01*
X-89651624Y-57355156D01*
X-89640371Y-57359817D01*
X-89411610Y-57454573D01*
X-89158994Y-57515221D01*
X-88900000Y-57535604D01*
X-88641006Y-57515221D01*
X-88388390Y-57454573D01*
X-88148372Y-57355154D01*
X-87926860Y-57219412D01*
X-87729311Y-57050689D01*
X-87724290Y-57044809D01*
X-87665787Y-57006617D01*
X-87595919Y-57006116D01*
X-87536872Y-57043468D01*
X-87535803Y-57044702D01*
X-87530689Y-57050689D01*
X-87333140Y-57219412D01*
X-87111628Y-57355154D01*
X-87111626Y-57355154D01*
X-87111624Y-57355156D01*
X-87100371Y-57359817D01*
X-86871610Y-57454573D01*
X-86618994Y-57515221D01*
X-86360000Y-57535604D01*
X-86101006Y-57515221D01*
X-85848390Y-57454573D01*
X-85608372Y-57355154D01*
X-85386860Y-57219412D01*
X-85189311Y-57050689D01*
X-85184290Y-57044809D01*
X-85125787Y-57006617D01*
X-85055919Y-57006116D01*
X-84996872Y-57043468D01*
X-84995803Y-57044702D01*
X-84990689Y-57050689D01*
X-84793140Y-57219412D01*
X-84571628Y-57355154D01*
X-84571626Y-57355154D01*
X-84571624Y-57355156D01*
X-84560371Y-57359817D01*
X-84331610Y-57454573D01*
X-84078994Y-57515221D01*
X-83820000Y-57535604D01*
X-83561006Y-57515221D01*
X-83308390Y-57454573D01*
X-83068372Y-57355154D01*
X-82846860Y-57219412D01*
X-82649311Y-57050689D01*
X-82644290Y-57044809D01*
X-82585787Y-57006617D01*
X-82515919Y-57006116D01*
X-82456872Y-57043468D01*
X-82455803Y-57044702D01*
X-82450689Y-57050689D01*
X-82253140Y-57219412D01*
X-82031628Y-57355154D01*
X-82031626Y-57355154D01*
X-82031624Y-57355156D01*
X-82020371Y-57359817D01*
X-81791610Y-57454573D01*
X-81538994Y-57515221D01*
X-81280000Y-57535604D01*
X-81021006Y-57515221D01*
X-80768390Y-57454573D01*
X-80528372Y-57355154D01*
X-80306860Y-57219412D01*
X-80109311Y-57050689D01*
X-80104290Y-57044809D01*
X-80045787Y-57006617D01*
X-79975919Y-57006116D01*
X-79916872Y-57043468D01*
X-79915803Y-57044702D01*
X-79910689Y-57050689D01*
X-79713140Y-57219412D01*
X-79491628Y-57355154D01*
X-79491626Y-57355154D01*
X-79491624Y-57355156D01*
X-79480371Y-57359817D01*
X-79251610Y-57454573D01*
X-78998994Y-57515221D01*
X-78740000Y-57535604D01*
X-78481006Y-57515221D01*
X-78228390Y-57454573D01*
X-77988372Y-57355154D01*
X-77766860Y-57219412D01*
X-77569311Y-57050689D01*
X-77564290Y-57044809D01*
X-77505787Y-57006617D01*
X-77435919Y-57006116D01*
X-77376872Y-57043468D01*
X-77375803Y-57044702D01*
X-77370689Y-57050689D01*
X-77173140Y-57219412D01*
X-76951628Y-57355154D01*
X-76951626Y-57355154D01*
X-76951624Y-57355156D01*
X-76940371Y-57359817D01*
X-76711610Y-57454573D01*
X-76458994Y-57515221D01*
X-76200000Y-57535604D01*
X-75941006Y-57515221D01*
X-75688390Y-57454573D01*
X-75448372Y-57355154D01*
X-75226860Y-57219412D01*
X-75029311Y-57050689D01*
X-75024290Y-57044809D01*
X-74965787Y-57006617D01*
X-74895919Y-57006116D01*
X-74836872Y-57043468D01*
X-74835803Y-57044702D01*
X-74830689Y-57050689D01*
X-74633140Y-57219412D01*
X-74411628Y-57355154D01*
X-74411626Y-57355154D01*
X-74411624Y-57355156D01*
X-74400371Y-57359817D01*
X-74171610Y-57454573D01*
X-73918994Y-57515221D01*
X-73660000Y-57535604D01*
X-73401006Y-57515221D01*
X-73148390Y-57454573D01*
X-72908372Y-57355154D01*
X-72686860Y-57219412D01*
X-72489311Y-57050689D01*
X-72484290Y-57044809D01*
X-72425787Y-57006617D01*
X-72355919Y-57006116D01*
X-72296872Y-57043468D01*
X-72295803Y-57044702D01*
X-72290689Y-57050689D01*
X-72093140Y-57219412D01*
X-71871628Y-57355154D01*
X-71871626Y-57355154D01*
X-71871624Y-57355156D01*
X-71860371Y-57359817D01*
X-71631610Y-57454573D01*
X-71378994Y-57515221D01*
X-71120000Y-57535604D01*
X-70861006Y-57515221D01*
X-70608390Y-57454573D01*
X-70368372Y-57355154D01*
X-70146860Y-57219412D01*
X-69949311Y-57050689D01*
X-69944290Y-57044809D01*
X-69885787Y-57006617D01*
X-69815919Y-57006116D01*
X-69756872Y-57043468D01*
X-69755803Y-57044702D01*
X-69750689Y-57050689D01*
X-69553140Y-57219412D01*
X-69331628Y-57355154D01*
X-69331626Y-57355154D01*
X-69331624Y-57355156D01*
X-69320371Y-57359817D01*
X-69091610Y-57454573D01*
X-68838994Y-57515221D01*
X-68580000Y-57535604D01*
X-68321006Y-57515221D01*
X-68068390Y-57454573D01*
X-67828372Y-57355154D01*
X-67606860Y-57219412D01*
X-67409311Y-57050689D01*
X-67404290Y-57044809D01*
X-67345787Y-57006617D01*
X-67275919Y-57006116D01*
X-67216872Y-57043468D01*
X-67215803Y-57044702D01*
X-67210689Y-57050689D01*
X-67013140Y-57219412D01*
X-66791628Y-57355154D01*
X-66791626Y-57355154D01*
X-66791624Y-57355156D01*
X-66780371Y-57359817D01*
X-66551610Y-57454573D01*
X-66298994Y-57515221D01*
X-66040000Y-57535604D01*
X-65781006Y-57515221D01*
X-65528390Y-57454573D01*
X-65288372Y-57355154D01*
X-65066860Y-57219412D01*
X-64869311Y-57050689D01*
X-64864290Y-57044809D01*
X-64805787Y-57006617D01*
X-64735919Y-57006116D01*
X-64676872Y-57043468D01*
X-64675803Y-57044702D01*
X-64670689Y-57050689D01*
X-64473140Y-57219412D01*
X-64251628Y-57355154D01*
X-64251626Y-57355154D01*
X-64251624Y-57355156D01*
X-64240371Y-57359817D01*
X-64011610Y-57454573D01*
X-63758994Y-57515221D01*
X-63500000Y-57535604D01*
X-63241006Y-57515221D01*
X-62988390Y-57454573D01*
X-62748372Y-57355154D01*
X-62526860Y-57219412D01*
X-62465030Y-57166604D01*
X-62401271Y-57138034D01*
X-62332185Y-57148471D01*
X-62279709Y-57194602D01*
X-62260500Y-57260895D01*
X-62260500Y-58265500D01*
X-62280185Y-58332539D01*
X-62332989Y-58378294D01*
X-62384500Y-58389500D01*
X-104311954Y-58389500D01*
X-104378993Y-58369815D01*
X-104399635Y-58353181D01*
X-106403690Y-56349126D01*
X-106437175Y-56287803D01*
X-106437626Y-56237257D01*
X-106426416Y-56180903D01*
X-106406694Y-55880000D01*
X-106426416Y-55579097D01*
X-106437626Y-55522743D01*
X-106431400Y-55453155D01*
X-106403692Y-55410875D01*
X-103656034Y-52663219D01*
X-103535713Y-52497611D01*
X-103480261Y-52388780D01*
X-103442780Y-52315219D01*
X-103379523Y-52120534D01*
X-103347500Y-51918352D01*
X-103347500Y-31836659D01*
X-103327815Y-31769620D01*
X-103275011Y-31723865D01*
X-103205853Y-31713921D01*
X-103142297Y-31742946D01*
G37*
G04 #@! TD.AperFunction*
G04 #@! TA.AperFunction,NonConductor*
G36*
X-557461Y-520185D02*
G01*
X-511706Y-572989D01*
X-500500Y-624500D01*
X-500500Y-62875500D01*
X-520185Y-62942539D01*
X-572989Y-62988294D01*
X-624500Y-62999500D01*
X-116215500Y-62999500D01*
X-116282539Y-62979815D01*
X-116328294Y-62927011D01*
X-116339500Y-62875500D01*
X-116339500Y-57439510D01*
X-116319815Y-57372471D01*
X-116267011Y-57326716D01*
X-116197853Y-57316772D01*
X-116134297Y-57345797D01*
X-116096523Y-57404575D01*
X-116092280Y-57425627D01*
X-116077240Y-57559119D01*
X-116077239Y-57559124D01*
X-116017659Y-57729393D01*
X-115925256Y-57876450D01*
X-115921686Y-57882132D01*
X-115794132Y-58009686D01*
X-115641392Y-58105659D01*
X-115484380Y-58160600D01*
X-115471125Y-58165238D01*
X-115471120Y-58165239D01*
X-115380624Y-58175435D01*
X-115336830Y-58180369D01*
X-115336827Y-58180370D01*
X-115336824Y-58180370D01*
X-112247173Y-58180370D01*
X-112247172Y-58180369D01*
X-112180026Y-58172804D01*
X-112112881Y-58165239D01*
X-112112878Y-58165238D01*
X-112112875Y-58165238D01*
X-111942608Y-58105659D01*
X-111789868Y-58009686D01*
X-111662314Y-57882132D01*
X-111566341Y-57729392D01*
X-111506762Y-57559125D01*
X-111503536Y-57530499D01*
X-111493285Y-57439510D01*
X-111491630Y-57424824D01*
X-111491630Y-55238917D01*
X-111471945Y-55171878D01*
X-111419141Y-55126123D01*
X-111349983Y-55116179D01*
X-111286427Y-55145204D01*
X-111279949Y-55151236D01*
X-111020312Y-55410873D01*
X-110986827Y-55472196D01*
X-110986375Y-55522743D01*
X-110997584Y-55579095D01*
X-111017306Y-55880000D01*
X-110997584Y-56180901D01*
X-110997582Y-56180913D01*
X-110938757Y-56476649D01*
X-110938753Y-56476664D01*
X-110841827Y-56762197D01*
X-110841818Y-56762218D01*
X-110708458Y-57032645D01*
X-110708451Y-57032658D01*
X-110638040Y-57138034D01*
X-110555947Y-57260895D01*
X-110540921Y-57283382D01*
X-110342099Y-57510098D01*
X-110165058Y-57665357D01*
X-110115381Y-57708922D01*
X-109864653Y-57876454D01*
X-109718335Y-57948609D01*
X-109594219Y-58009817D01*
X-109594214Y-58009819D01*
X-109594202Y-58009825D01*
X-109308657Y-58106755D01*
X-109012903Y-58165584D01*
X-108712000Y-58185306D01*
X-108411097Y-58165584D01*
X-108354745Y-58154374D01*
X-108285157Y-58160600D01*
X-108242874Y-58188310D01*
X-106151092Y-60280092D01*
X-106151063Y-60280123D01*
X-105893972Y-60537213D01*
X-105749219Y-60681966D01*
X-105583611Y-60802287D01*
X-105522046Y-60833655D01*
X-105401218Y-60895221D01*
X-105254279Y-60942964D01*
X-105254280Y-60942964D01*
X-105231301Y-60950430D01*
X-105206535Y-60958477D01*
X-105004352Y-60990500D01*
X-105004351Y-60990500D01*
X-60857649Y-60990500D01*
X-60857648Y-60990500D01*
X-60655466Y-60958477D01*
X-60460781Y-60895220D01*
X-60278390Y-60802287D01*
X-60185410Y-60734732D01*
X-60112787Y-60681971D01*
X-60112785Y-60681968D01*
X-60112781Y-60681966D01*
X-59968034Y-60537219D01*
X-59968032Y-60537215D01*
X-59968029Y-60537213D01*
X-59915268Y-60464590D01*
X-59847713Y-60371610D01*
X-59754780Y-60189219D01*
X-59691523Y-59994534D01*
X-59659500Y-59792352D01*
X-59659500Y-57260895D01*
X-59639815Y-57193856D01*
X-59587011Y-57148101D01*
X-59517853Y-57138157D01*
X-59454971Y-57166604D01*
X-59393140Y-57219412D01*
X-59171628Y-57355154D01*
X-59171626Y-57355154D01*
X-59171624Y-57355156D01*
X-59160371Y-57359817D01*
X-58931610Y-57454573D01*
X-58678994Y-57515221D01*
X-58420000Y-57535604D01*
X-58161006Y-57515221D01*
X-57908390Y-57454573D01*
X-57668372Y-57355154D01*
X-57446860Y-57219412D01*
X-57249311Y-57050689D01*
X-57244290Y-57044809D01*
X-57185787Y-57006617D01*
X-57115919Y-57006116D01*
X-57056872Y-57043468D01*
X-57055803Y-57044702D01*
X-57050689Y-57050689D01*
X-56853140Y-57219412D01*
X-56631628Y-57355154D01*
X-56631626Y-57355154D01*
X-56631624Y-57355156D01*
X-56620371Y-57359817D01*
X-56391610Y-57454573D01*
X-56138994Y-57515221D01*
X-55880000Y-57535604D01*
X-55621006Y-57515221D01*
X-55368390Y-57454573D01*
X-55128372Y-57355154D01*
X-54906860Y-57219412D01*
X-54709311Y-57050689D01*
X-54704290Y-57044809D01*
X-54645787Y-57006617D01*
X-54575919Y-57006116D01*
X-54516872Y-57043468D01*
X-54515803Y-57044702D01*
X-54510689Y-57050689D01*
X-54313140Y-57219412D01*
X-54091628Y-57355154D01*
X-54091626Y-57355154D01*
X-54091624Y-57355156D01*
X-54080371Y-57359817D01*
X-53851610Y-57454573D01*
X-53598994Y-57515221D01*
X-53340000Y-57535604D01*
X-53081006Y-57515221D01*
X-52828390Y-57454573D01*
X-52588372Y-57355154D01*
X-52366860Y-57219412D01*
X-52169311Y-57050689D01*
X-52164290Y-57044809D01*
X-52105787Y-57006617D01*
X-52035919Y-57006116D01*
X-51976872Y-57043468D01*
X-51975803Y-57044702D01*
X-51970689Y-57050689D01*
X-51773140Y-57219412D01*
X-51551628Y-57355154D01*
X-51551626Y-57355154D01*
X-51551624Y-57355156D01*
X-51540371Y-57359817D01*
X-51311610Y-57454573D01*
X-51058994Y-57515221D01*
X-50800000Y-57535604D01*
X-50541006Y-57515221D01*
X-50288390Y-57454573D01*
X-50048372Y-57355154D01*
X-49826860Y-57219412D01*
X-49629311Y-57050689D01*
X-49624290Y-57044809D01*
X-49565787Y-57006617D01*
X-49495919Y-57006116D01*
X-49436872Y-57043468D01*
X-49435803Y-57044702D01*
X-49430689Y-57050689D01*
X-49233140Y-57219412D01*
X-49011628Y-57355154D01*
X-49011626Y-57355154D01*
X-49011624Y-57355156D01*
X-49000371Y-57359817D01*
X-48771610Y-57454573D01*
X-48518994Y-57515221D01*
X-48260000Y-57535604D01*
X-48001006Y-57515221D01*
X-47748390Y-57454573D01*
X-47508372Y-57355154D01*
X-47286860Y-57219412D01*
X-47089311Y-57050689D01*
X-47084290Y-57044809D01*
X-47025787Y-57006617D01*
X-46955919Y-57006116D01*
X-46896872Y-57043468D01*
X-46895803Y-57044702D01*
X-46890689Y-57050689D01*
X-46693140Y-57219412D01*
X-46471628Y-57355154D01*
X-46471626Y-57355154D01*
X-46471624Y-57355156D01*
X-46460371Y-57359817D01*
X-46231610Y-57454573D01*
X-45978994Y-57515221D01*
X-45720000Y-57535604D01*
X-45461006Y-57515221D01*
X-45208390Y-57454573D01*
X-44968372Y-57355154D01*
X-44746860Y-57219412D01*
X-44549311Y-57050689D01*
X-44544290Y-57044809D01*
X-44485787Y-57006617D01*
X-44415919Y-57006116D01*
X-44356872Y-57043468D01*
X-44355803Y-57044702D01*
X-44350689Y-57050689D01*
X-44153140Y-57219412D01*
X-43931628Y-57355154D01*
X-43931626Y-57355154D01*
X-43931624Y-57355156D01*
X-43920371Y-57359817D01*
X-43691610Y-57454573D01*
X-43438994Y-57515221D01*
X-43180000Y-57535604D01*
X-42921006Y-57515221D01*
X-42668390Y-57454573D01*
X-42428372Y-57355154D01*
X-42206860Y-57219412D01*
X-42009311Y-57050689D01*
X-42004290Y-57044809D01*
X-41945787Y-57006617D01*
X-41875919Y-57006116D01*
X-41816872Y-57043468D01*
X-41815803Y-57044702D01*
X-41810689Y-57050689D01*
X-41613140Y-57219412D01*
X-41391628Y-57355154D01*
X-41391626Y-57355154D01*
X-41391624Y-57355156D01*
X-41380371Y-57359817D01*
X-41151610Y-57454573D01*
X-40898994Y-57515221D01*
X-40640000Y-57535604D01*
X-40381006Y-57515221D01*
X-40128390Y-57454573D01*
X-39888372Y-57355154D01*
X-39666860Y-57219412D01*
X-39469311Y-57050689D01*
X-39464290Y-57044809D01*
X-39405787Y-57006617D01*
X-39335919Y-57006116D01*
X-39276872Y-57043468D01*
X-39275803Y-57044702D01*
X-39270689Y-57050689D01*
X-39073140Y-57219412D01*
X-38851628Y-57355154D01*
X-38851626Y-57355154D01*
X-38851624Y-57355156D01*
X-38840371Y-57359817D01*
X-38611610Y-57454573D01*
X-38358994Y-57515221D01*
X-38100000Y-57535604D01*
X-37841006Y-57515221D01*
X-37588390Y-57454573D01*
X-37348372Y-57355154D01*
X-37126860Y-57219412D01*
X-36929311Y-57050689D01*
X-36924290Y-57044809D01*
X-36865787Y-57006617D01*
X-36795919Y-57006116D01*
X-36736872Y-57043468D01*
X-36735803Y-57044702D01*
X-36730689Y-57050689D01*
X-36533140Y-57219412D01*
X-36311628Y-57355154D01*
X-36311626Y-57355154D01*
X-36311624Y-57355156D01*
X-36300371Y-57359817D01*
X-36071610Y-57454573D01*
X-35818994Y-57515221D01*
X-35560000Y-57535604D01*
X-35301006Y-57515221D01*
X-35048390Y-57454573D01*
X-34808372Y-57355154D01*
X-34586860Y-57219412D01*
X-34389311Y-57050689D01*
X-34384290Y-57044809D01*
X-34325787Y-57006617D01*
X-34255919Y-57006116D01*
X-34196872Y-57043468D01*
X-34195803Y-57044702D01*
X-34190689Y-57050689D01*
X-33993140Y-57219412D01*
X-33771628Y-57355154D01*
X-33771626Y-57355154D01*
X-33771624Y-57355156D01*
X-33760371Y-57359817D01*
X-33531610Y-57454573D01*
X-33278994Y-57515221D01*
X-33020000Y-57535604D01*
X-32761006Y-57515221D01*
X-32508390Y-57454573D01*
X-32268372Y-57355154D01*
X-32046860Y-57219412D01*
X-31849311Y-57050689D01*
X-31844290Y-57044809D01*
X-31785787Y-57006617D01*
X-31715919Y-57006116D01*
X-31656872Y-57043468D01*
X-31655803Y-57044702D01*
X-31650689Y-57050689D01*
X-31453140Y-57219412D01*
X-31231628Y-57355154D01*
X-31231626Y-57355154D01*
X-31231624Y-57355156D01*
X-31220371Y-57359817D01*
X-30991610Y-57454573D01*
X-30738994Y-57515221D01*
X-30480000Y-57535604D01*
X-30221006Y-57515221D01*
X-29968390Y-57454573D01*
X-29728372Y-57355154D01*
X-29506860Y-57219412D01*
X-29309311Y-57050689D01*
X-29304290Y-57044809D01*
X-29245787Y-57006617D01*
X-29175919Y-57006116D01*
X-29116872Y-57043468D01*
X-29115803Y-57044702D01*
X-29110689Y-57050689D01*
X-28913140Y-57219412D01*
X-28691628Y-57355154D01*
X-28691626Y-57355154D01*
X-28691624Y-57355156D01*
X-28680371Y-57359817D01*
X-28451610Y-57454573D01*
X-28198994Y-57515221D01*
X-27940000Y-57535604D01*
X-27681006Y-57515221D01*
X-27428390Y-57454573D01*
X-27188372Y-57355154D01*
X-26966860Y-57219412D01*
X-26769311Y-57050689D01*
X-26764290Y-57044809D01*
X-26705787Y-57006617D01*
X-26635919Y-57006116D01*
X-26576872Y-57043468D01*
X-26575803Y-57044702D01*
X-26570689Y-57050689D01*
X-26373140Y-57219412D01*
X-26151628Y-57355154D01*
X-26151626Y-57355154D01*
X-26151624Y-57355156D01*
X-26140371Y-57359817D01*
X-25911610Y-57454573D01*
X-25658994Y-57515221D01*
X-25400000Y-57535604D01*
X-25141006Y-57515221D01*
X-24888390Y-57454573D01*
X-24648372Y-57355154D01*
X-24426860Y-57219412D01*
X-24229311Y-57050689D01*
X-24224290Y-57044809D01*
X-24165787Y-57006617D01*
X-24095919Y-57006116D01*
X-24036872Y-57043468D01*
X-24035803Y-57044702D01*
X-24030689Y-57050689D01*
X-23833140Y-57219412D01*
X-23611628Y-57355154D01*
X-23611626Y-57355154D01*
X-23611624Y-57355156D01*
X-23600371Y-57359817D01*
X-23371610Y-57454573D01*
X-23118994Y-57515221D01*
X-22860000Y-57535604D01*
X-22601006Y-57515221D01*
X-22348390Y-57454573D01*
X-22108372Y-57355154D01*
X-21886860Y-57219412D01*
X-21689311Y-57050689D01*
X-21684290Y-57044809D01*
X-21625787Y-57006617D01*
X-21555919Y-57006116D01*
X-21496872Y-57043468D01*
X-21495803Y-57044702D01*
X-21490689Y-57050689D01*
X-21293140Y-57219412D01*
X-21071628Y-57355154D01*
X-21071626Y-57355154D01*
X-21071624Y-57355156D01*
X-21060371Y-57359817D01*
X-20831610Y-57454573D01*
X-20578994Y-57515221D01*
X-20320000Y-57535604D01*
X-20061006Y-57515221D01*
X-19808390Y-57454573D01*
X-19568372Y-57355154D01*
X-19346860Y-57219412D01*
X-19149311Y-57050689D01*
X-19144290Y-57044809D01*
X-19085787Y-57006617D01*
X-19015919Y-57006116D01*
X-18956872Y-57043468D01*
X-18955803Y-57044702D01*
X-18950689Y-57050689D01*
X-18753140Y-57219412D01*
X-18531628Y-57355154D01*
X-18531626Y-57355154D01*
X-18531624Y-57355156D01*
X-18520371Y-57359817D01*
X-18291610Y-57454573D01*
X-18038994Y-57515221D01*
X-17780000Y-57535604D01*
X-17521006Y-57515221D01*
X-17268390Y-57454573D01*
X-17028372Y-57355154D01*
X-16806860Y-57219412D01*
X-16609311Y-57050689D01*
X-16604290Y-57044809D01*
X-16545787Y-57006617D01*
X-16475919Y-57006116D01*
X-16416872Y-57043468D01*
X-16415803Y-57044702D01*
X-16410689Y-57050689D01*
X-16213140Y-57219412D01*
X-15991628Y-57355154D01*
X-15991626Y-57355154D01*
X-15991624Y-57355156D01*
X-15980371Y-57359817D01*
X-15751610Y-57454573D01*
X-15498994Y-57515221D01*
X-15240000Y-57535604D01*
X-14981006Y-57515221D01*
X-14728390Y-57454573D01*
X-14488372Y-57355154D01*
X-14266860Y-57219412D01*
X-14069311Y-57050689D01*
X-14064290Y-57044809D01*
X-14005787Y-57006617D01*
X-13935919Y-57006116D01*
X-13876872Y-57043468D01*
X-13875803Y-57044702D01*
X-13870689Y-57050689D01*
X-13673140Y-57219412D01*
X-13451628Y-57355154D01*
X-13451626Y-57355154D01*
X-13451624Y-57355156D01*
X-13440371Y-57359817D01*
X-13211610Y-57454573D01*
X-12958994Y-57515221D01*
X-12700000Y-57535604D01*
X-12441006Y-57515221D01*
X-12188390Y-57454573D01*
X-11948372Y-57355154D01*
X-11726860Y-57219412D01*
X-11529311Y-57050689D01*
X-11524290Y-57044809D01*
X-11465787Y-57006617D01*
X-11395919Y-57006116D01*
X-11336872Y-57043468D01*
X-11335803Y-57044702D01*
X-11330689Y-57050689D01*
X-11133140Y-57219412D01*
X-10911628Y-57355154D01*
X-10911626Y-57355154D01*
X-10911624Y-57355156D01*
X-10900371Y-57359817D01*
X-10671610Y-57454573D01*
X-10418994Y-57515221D01*
X-10160000Y-57535604D01*
X-9901006Y-57515221D01*
X-9648390Y-57454573D01*
X-9408372Y-57355154D01*
X-9186860Y-57219412D01*
X-8989311Y-57050689D01*
X-8984290Y-57044809D01*
X-8925787Y-57006617D01*
X-8855919Y-57006116D01*
X-8796872Y-57043468D01*
X-8795803Y-57044702D01*
X-8790689Y-57050689D01*
X-8593140Y-57219412D01*
X-8371628Y-57355154D01*
X-8371626Y-57355154D01*
X-8371624Y-57355156D01*
X-8360371Y-57359817D01*
X-8131610Y-57454573D01*
X-7878994Y-57515221D01*
X-7620000Y-57535604D01*
X-7361006Y-57515221D01*
X-7108390Y-57454573D01*
X-6868372Y-57355154D01*
X-6646860Y-57219412D01*
X-6449311Y-57050689D01*
X-6444290Y-57044809D01*
X-6385787Y-57006617D01*
X-6315919Y-57006116D01*
X-6256872Y-57043468D01*
X-6255803Y-57044702D01*
X-6250689Y-57050689D01*
X-6053140Y-57219412D01*
X-5831628Y-57355154D01*
X-5831626Y-57355154D01*
X-5831624Y-57355156D01*
X-5820371Y-57359817D01*
X-5591610Y-57454573D01*
X-5338994Y-57515221D01*
X-5080000Y-57535604D01*
X-4821006Y-57515221D01*
X-4568390Y-57454573D01*
X-4328372Y-57355154D01*
X-4106860Y-57219412D01*
X-3909311Y-57050689D01*
X-3904290Y-57044809D01*
X-3845787Y-57006617D01*
X-3775919Y-57006116D01*
X-3716872Y-57043468D01*
X-3715803Y-57044702D01*
X-3710689Y-57050689D01*
X-3513140Y-57219412D01*
X-3291628Y-57355154D01*
X-3291626Y-57355154D01*
X-3291624Y-57355156D01*
X-3280371Y-57359817D01*
X-3051610Y-57454573D01*
X-2798994Y-57515221D01*
X-2540000Y-57535604D01*
X-2281006Y-57515221D01*
X-2028390Y-57454573D01*
X-1788372Y-57355154D01*
X-1566860Y-57219412D01*
X-1369311Y-57050689D01*
X-1200588Y-56853140D01*
X-1064846Y-56631628D01*
X-965427Y-56391610D01*
X-904779Y-56138994D01*
X-884396Y-55880000D01*
X-904779Y-55621006D01*
X-965427Y-55368390D01*
X-1064846Y-55128372D01*
X-1200588Y-54906860D01*
X-1369311Y-54709311D01*
X-1403072Y-54680476D01*
X-1446032Y-54643784D01*
X-1484225Y-54585277D01*
X-1489500Y-54549494D01*
X-1489500Y-31810504D01*
X-1469815Y-31743465D01*
X-1446035Y-31716216D01*
X-1369311Y-31650689D01*
X-1200588Y-31453140D01*
X-1064846Y-31231628D01*
X-965427Y-30991610D01*
X-904779Y-30738994D01*
X-884396Y-30480000D01*
X-904779Y-30221006D01*
X-965427Y-29968390D01*
X-1064846Y-29728372D01*
X-1200588Y-29506860D01*
X-1369311Y-29309311D01*
X-1369318Y-29309305D01*
X-1446032Y-29243784D01*
X-1484225Y-29185277D01*
X-1489500Y-29149494D01*
X-1489500Y-6410504D01*
X-1469815Y-6343465D01*
X-1446035Y-6316216D01*
X-1369311Y-6250689D01*
X-1200588Y-6053140D01*
X-1064846Y-5831628D01*
X-965427Y-5591610D01*
X-904779Y-5338994D01*
X-884396Y-5080000D01*
X-904779Y-4821006D01*
X-965427Y-4568390D01*
X-1064846Y-4328372D01*
X-1200588Y-4106860D01*
X-1369311Y-3909311D01*
X-1566860Y-3740588D01*
X-1788372Y-3604846D01*
X-1788373Y-3604845D01*
X-1788377Y-3604843D01*
X-1954373Y-3536086D01*
X-2028390Y-3505427D01*
X-2028389Y-3505427D01*
X-2166079Y-3472370D01*
X-2281006Y-3444779D01*
X-2281008Y-3444778D01*
X-2281009Y-3444778D01*
X-2540000Y-3424396D01*
X-2798991Y-3444778D01*
X-3051611Y-3505427D01*
X-3291624Y-3604843D01*
X-3513141Y-3740588D01*
X-3676928Y-3880476D01*
X-3710689Y-3909311D01*
X-3715713Y-3915193D01*
X-3774219Y-3953383D01*
X-3844087Y-3953881D01*
X-3903132Y-3916526D01*
X-3904233Y-3915256D01*
X-3909311Y-3909311D01*
X-4106860Y-3740588D01*
X-4328372Y-3604846D01*
X-4328373Y-3604845D01*
X-4328377Y-3604843D01*
X-4494373Y-3536086D01*
X-4568390Y-3505427D01*
X-4568389Y-3505427D01*
X-4706079Y-3472370D01*
X-4821006Y-3444779D01*
X-4821008Y-3444778D01*
X-4821009Y-3444778D01*
X-5080000Y-3424396D01*
X-5338991Y-3444778D01*
X-5591611Y-3505427D01*
X-5831624Y-3604843D01*
X-6053141Y-3740588D01*
X-6216928Y-3880476D01*
X-6250689Y-3909311D01*
X-6255713Y-3915193D01*
X-6314219Y-3953383D01*
X-6384087Y-3953881D01*
X-6443132Y-3916526D01*
X-6444233Y-3915256D01*
X-6449311Y-3909311D01*
X-6646860Y-3740588D01*
X-6868372Y-3604846D01*
X-6868373Y-3604845D01*
X-6868377Y-3604843D01*
X-7034373Y-3536086D01*
X-7108390Y-3505427D01*
X-7108389Y-3505427D01*
X-7246079Y-3472370D01*
X-7361006Y-3444779D01*
X-7361008Y-3444778D01*
X-7361009Y-3444778D01*
X-7620000Y-3424396D01*
X-7878991Y-3444778D01*
X-8131611Y-3505427D01*
X-8371624Y-3604843D01*
X-8593141Y-3740588D01*
X-8756928Y-3880476D01*
X-8790689Y-3909311D01*
X-8795713Y-3915193D01*
X-8854219Y-3953383D01*
X-8924087Y-3953881D01*
X-8983132Y-3916526D01*
X-8984233Y-3915256D01*
X-8989311Y-3909311D01*
X-9186860Y-3740588D01*
X-9408372Y-3604846D01*
X-9408373Y-3604845D01*
X-9408377Y-3604843D01*
X-9574373Y-3536086D01*
X-9648390Y-3505427D01*
X-9648389Y-3505427D01*
X-9786079Y-3472370D01*
X-9901006Y-3444779D01*
X-9901008Y-3444778D01*
X-9901009Y-3444778D01*
X-10160000Y-3424396D01*
X-10418991Y-3444778D01*
X-10671611Y-3505427D01*
X-10911624Y-3604843D01*
X-11133141Y-3740588D01*
X-11296928Y-3880476D01*
X-11330689Y-3909311D01*
X-11335713Y-3915193D01*
X-11394219Y-3953383D01*
X-11464087Y-3953881D01*
X-11523132Y-3916526D01*
X-11524233Y-3915256D01*
X-11529311Y-3909311D01*
X-11726860Y-3740588D01*
X-11948372Y-3604846D01*
X-11948373Y-3604845D01*
X-11948377Y-3604843D01*
X-12114373Y-3536086D01*
X-12188390Y-3505427D01*
X-12188389Y-3505427D01*
X-12326079Y-3472370D01*
X-12441006Y-3444779D01*
X-12441008Y-3444778D01*
X-12441009Y-3444778D01*
X-12700000Y-3424396D01*
X-12958991Y-3444778D01*
X-13211611Y-3505427D01*
X-13451624Y-3604843D01*
X-13673141Y-3740588D01*
X-13836928Y-3880476D01*
X-13870689Y-3909311D01*
X-13875713Y-3915193D01*
X-13934219Y-3953383D01*
X-14004087Y-3953881D01*
X-14063132Y-3916526D01*
X-14064233Y-3915256D01*
X-14069311Y-3909311D01*
X-14266860Y-3740588D01*
X-14488372Y-3604846D01*
X-14488373Y-3604845D01*
X-14488377Y-3604843D01*
X-14654373Y-3536086D01*
X-14728390Y-3505427D01*
X-14728389Y-3505427D01*
X-14866079Y-3472370D01*
X-14981006Y-3444779D01*
X-14981008Y-3444778D01*
X-14981009Y-3444778D01*
X-15240000Y-3424396D01*
X-15498991Y-3444778D01*
X-15751611Y-3505427D01*
X-15991624Y-3604843D01*
X-16213141Y-3740588D01*
X-16376928Y-3880476D01*
X-16410689Y-3909311D01*
X-16415713Y-3915193D01*
X-16474219Y-3953383D01*
X-16544087Y-3953881D01*
X-16603132Y-3916526D01*
X-16604233Y-3915256D01*
X-16609311Y-3909311D01*
X-16806860Y-3740588D01*
X-17028372Y-3604846D01*
X-17028373Y-3604845D01*
X-17028377Y-3604843D01*
X-17194373Y-3536086D01*
X-17268390Y-3505427D01*
X-17268389Y-3505427D01*
X-17406079Y-3472370D01*
X-17521006Y-3444779D01*
X-17521008Y-3444778D01*
X-17521009Y-3444778D01*
X-17780000Y-3424396D01*
X-18038991Y-3444778D01*
X-18291611Y-3505427D01*
X-18531624Y-3604843D01*
X-18753141Y-3740588D01*
X-18916928Y-3880476D01*
X-18950689Y-3909311D01*
X-18955713Y-3915193D01*
X-19014219Y-3953383D01*
X-19084087Y-3953881D01*
X-19143132Y-3916526D01*
X-19144233Y-3915256D01*
X-19149311Y-3909311D01*
X-19346860Y-3740588D01*
X-19568372Y-3604846D01*
X-19568373Y-3604845D01*
X-19568377Y-3604843D01*
X-19734373Y-3536086D01*
X-19808390Y-3505427D01*
X-19808389Y-3505427D01*
X-19946079Y-3472370D01*
X-20061006Y-3444779D01*
X-20061008Y-3444778D01*
X-20061009Y-3444778D01*
X-20320000Y-3424396D01*
X-20578991Y-3444778D01*
X-20831611Y-3505427D01*
X-21071624Y-3604843D01*
X-21293141Y-3740588D01*
X-21456928Y-3880476D01*
X-21490689Y-3909311D01*
X-21495713Y-3915193D01*
X-21554219Y-3953383D01*
X-21624087Y-3953881D01*
X-21683132Y-3916526D01*
X-21684233Y-3915256D01*
X-21689311Y-3909311D01*
X-21886860Y-3740588D01*
X-22108372Y-3604846D01*
X-22108373Y-3604845D01*
X-22108377Y-3604843D01*
X-22274373Y-3536086D01*
X-22348390Y-3505427D01*
X-22348389Y-3505427D01*
X-22486079Y-3472370D01*
X-22601006Y-3444779D01*
X-22601008Y-3444778D01*
X-22601009Y-3444778D01*
X-22860000Y-3424396D01*
X-23118991Y-3444778D01*
X-23371611Y-3505427D01*
X-23611624Y-3604843D01*
X-23833141Y-3740588D01*
X-23996928Y-3880476D01*
X-24030689Y-3909311D01*
X-24035713Y-3915193D01*
X-24094219Y-3953383D01*
X-24164087Y-3953881D01*
X-24223132Y-3916526D01*
X-24224233Y-3915256D01*
X-24229311Y-3909311D01*
X-24426860Y-3740588D01*
X-24648372Y-3604846D01*
X-24648373Y-3604845D01*
X-24648377Y-3604843D01*
X-24814373Y-3536086D01*
X-24888390Y-3505427D01*
X-24888389Y-3505427D01*
X-25026079Y-3472370D01*
X-25141006Y-3444779D01*
X-25141008Y-3444778D01*
X-25141009Y-3444778D01*
X-25400000Y-3424396D01*
X-25658991Y-3444778D01*
X-25911611Y-3505427D01*
X-26151624Y-3604843D01*
X-26373141Y-3740588D01*
X-26536928Y-3880476D01*
X-26570689Y-3909311D01*
X-26575713Y-3915193D01*
X-26634219Y-3953383D01*
X-26704087Y-3953881D01*
X-26763132Y-3916526D01*
X-26764233Y-3915256D01*
X-26769311Y-3909311D01*
X-26966860Y-3740588D01*
X-27188372Y-3604846D01*
X-27188373Y-3604845D01*
X-27188377Y-3604843D01*
X-27354373Y-3536086D01*
X-27428390Y-3505427D01*
X-27428389Y-3505427D01*
X-27566079Y-3472370D01*
X-27681006Y-3444779D01*
X-27681008Y-3444778D01*
X-27681009Y-3444778D01*
X-27940000Y-3424396D01*
X-28198991Y-3444778D01*
X-28451611Y-3505427D01*
X-28691624Y-3604843D01*
X-28913141Y-3740588D01*
X-29076928Y-3880476D01*
X-29110689Y-3909311D01*
X-29115713Y-3915193D01*
X-29174219Y-3953383D01*
X-29244087Y-3953881D01*
X-29303132Y-3916526D01*
X-29304233Y-3915256D01*
X-29309311Y-3909311D01*
X-29506860Y-3740588D01*
X-29728372Y-3604846D01*
X-29728373Y-3604845D01*
X-29728377Y-3604843D01*
X-29894373Y-3536086D01*
X-29968390Y-3505427D01*
X-29968389Y-3505427D01*
X-30106079Y-3472370D01*
X-30221006Y-3444779D01*
X-30221008Y-3444778D01*
X-30221009Y-3444778D01*
X-30480000Y-3424396D01*
X-30738991Y-3444778D01*
X-30991611Y-3505427D01*
X-31231624Y-3604843D01*
X-31453141Y-3740588D01*
X-31616928Y-3880476D01*
X-31650689Y-3909311D01*
X-31655713Y-3915193D01*
X-31714219Y-3953383D01*
X-31784087Y-3953881D01*
X-31843132Y-3916526D01*
X-31844233Y-3915256D01*
X-31849311Y-3909311D01*
X-32046860Y-3740588D01*
X-32268372Y-3604846D01*
X-32268373Y-3604845D01*
X-32268377Y-3604843D01*
X-32434373Y-3536086D01*
X-32508390Y-3505427D01*
X-32508389Y-3505427D01*
X-32646079Y-3472370D01*
X-32761006Y-3444779D01*
X-32761008Y-3444778D01*
X-32761009Y-3444778D01*
X-33020000Y-3424396D01*
X-33278991Y-3444778D01*
X-33531611Y-3505427D01*
X-33771624Y-3604843D01*
X-33993141Y-3740588D01*
X-34156928Y-3880476D01*
X-34190689Y-3909311D01*
X-34195713Y-3915193D01*
X-34254219Y-3953383D01*
X-34324087Y-3953881D01*
X-34383132Y-3916526D01*
X-34384233Y-3915256D01*
X-34389311Y-3909311D01*
X-34586860Y-3740588D01*
X-34808372Y-3604846D01*
X-34808373Y-3604845D01*
X-34808377Y-3604843D01*
X-34974373Y-3536086D01*
X-35048390Y-3505427D01*
X-35048389Y-3505427D01*
X-35186079Y-3472370D01*
X-35301006Y-3444779D01*
X-35301008Y-3444778D01*
X-35301009Y-3444778D01*
X-35560000Y-3424396D01*
X-35818991Y-3444778D01*
X-36071611Y-3505427D01*
X-36311624Y-3604843D01*
X-36533141Y-3740588D01*
X-36696928Y-3880476D01*
X-36730689Y-3909311D01*
X-36735713Y-3915193D01*
X-36794219Y-3953383D01*
X-36864087Y-3953881D01*
X-36923132Y-3916526D01*
X-36924233Y-3915256D01*
X-36929311Y-3909311D01*
X-37126860Y-3740588D01*
X-37348372Y-3604846D01*
X-37348373Y-3604845D01*
X-37348377Y-3604843D01*
X-37514373Y-3536086D01*
X-37588390Y-3505427D01*
X-37588389Y-3505427D01*
X-37726079Y-3472370D01*
X-37841006Y-3444779D01*
X-37841008Y-3444778D01*
X-37841009Y-3444778D01*
X-38100000Y-3424396D01*
X-38358991Y-3444778D01*
X-38611611Y-3505427D01*
X-38851624Y-3604843D01*
X-39073141Y-3740588D01*
X-39236928Y-3880476D01*
X-39270689Y-3909311D01*
X-39275713Y-3915193D01*
X-39334219Y-3953383D01*
X-39404087Y-3953881D01*
X-39463132Y-3916526D01*
X-39464233Y-3915256D01*
X-39469311Y-3909311D01*
X-39666860Y-3740588D01*
X-39888372Y-3604846D01*
X-39888373Y-3604845D01*
X-39888377Y-3604843D01*
X-40054373Y-3536086D01*
X-40128390Y-3505427D01*
X-40128389Y-3505427D01*
X-40266079Y-3472370D01*
X-40381006Y-3444779D01*
X-40381008Y-3444778D01*
X-40381009Y-3444778D01*
X-40640000Y-3424396D01*
X-40898991Y-3444778D01*
X-41151611Y-3505427D01*
X-41391624Y-3604843D01*
X-41613141Y-3740588D01*
X-41776928Y-3880476D01*
X-41810689Y-3909311D01*
X-41815713Y-3915193D01*
X-41874219Y-3953383D01*
X-41944087Y-3953881D01*
X-42003132Y-3916526D01*
X-42004233Y-3915256D01*
X-42009311Y-3909311D01*
X-42206860Y-3740588D01*
X-42428372Y-3604846D01*
X-42428373Y-3604845D01*
X-42428377Y-3604843D01*
X-42594373Y-3536086D01*
X-42668390Y-3505427D01*
X-42668389Y-3505427D01*
X-42806079Y-3472370D01*
X-42921006Y-3444779D01*
X-42921008Y-3444778D01*
X-42921009Y-3444778D01*
X-43180000Y-3424396D01*
X-43438991Y-3444778D01*
X-43691611Y-3505427D01*
X-43931624Y-3604843D01*
X-44153141Y-3740588D01*
X-44316928Y-3880476D01*
X-44350689Y-3909311D01*
X-44355713Y-3915193D01*
X-44414219Y-3953383D01*
X-44484087Y-3953881D01*
X-44543132Y-3916526D01*
X-44544233Y-3915256D01*
X-44549311Y-3909311D01*
X-44746860Y-3740588D01*
X-44968372Y-3604846D01*
X-44968373Y-3604845D01*
X-44968377Y-3604843D01*
X-45134373Y-3536086D01*
X-45208390Y-3505427D01*
X-45208389Y-3505427D01*
X-45346079Y-3472370D01*
X-45461006Y-3444779D01*
X-45461008Y-3444778D01*
X-45461009Y-3444778D01*
X-45720000Y-3424396D01*
X-45978991Y-3444778D01*
X-46231611Y-3505427D01*
X-46471624Y-3604843D01*
X-46693141Y-3740588D01*
X-46856928Y-3880476D01*
X-46890689Y-3909311D01*
X-46895713Y-3915193D01*
X-46954219Y-3953383D01*
X-47024087Y-3953881D01*
X-47083132Y-3916526D01*
X-47084233Y-3915256D01*
X-47089311Y-3909311D01*
X-47286860Y-3740588D01*
X-47508372Y-3604846D01*
X-47508373Y-3604845D01*
X-47508377Y-3604843D01*
X-47674373Y-3536086D01*
X-47748390Y-3505427D01*
X-47748389Y-3505427D01*
X-47886079Y-3472370D01*
X-48001006Y-3444779D01*
X-48001008Y-3444778D01*
X-48001009Y-3444778D01*
X-48260000Y-3424396D01*
X-48518991Y-3444778D01*
X-48771611Y-3505427D01*
X-49011624Y-3604843D01*
X-49233141Y-3740588D01*
X-49396928Y-3880476D01*
X-49430689Y-3909311D01*
X-49435713Y-3915193D01*
X-49494219Y-3953383D01*
X-49564087Y-3953881D01*
X-49623132Y-3916526D01*
X-49624233Y-3915256D01*
X-49629311Y-3909311D01*
X-49826860Y-3740588D01*
X-50048372Y-3604846D01*
X-50048373Y-3604845D01*
X-50048377Y-3604843D01*
X-50214373Y-3536086D01*
X-50288390Y-3505427D01*
X-50288389Y-3505427D01*
X-50426079Y-3472370D01*
X-50541006Y-3444779D01*
X-50541008Y-3444778D01*
X-50541009Y-3444778D01*
X-50800000Y-3424396D01*
X-51058991Y-3444778D01*
X-51311611Y-3505427D01*
X-51551624Y-3604843D01*
X-51773141Y-3740588D01*
X-51936928Y-3880476D01*
X-51970689Y-3909311D01*
X-51975713Y-3915193D01*
X-52034219Y-3953383D01*
X-52104087Y-3953881D01*
X-52163132Y-3916526D01*
X-52164233Y-3915256D01*
X-52169311Y-3909311D01*
X-52366860Y-3740588D01*
X-52588372Y-3604846D01*
X-52588373Y-3604845D01*
X-52588377Y-3604843D01*
X-52754373Y-3536086D01*
X-52828390Y-3505427D01*
X-52828389Y-3505427D01*
X-52966079Y-3472370D01*
X-53081006Y-3444779D01*
X-53081008Y-3444778D01*
X-53081009Y-3444778D01*
X-53340000Y-3424396D01*
X-53598991Y-3444778D01*
X-53851611Y-3505427D01*
X-54091624Y-3604843D01*
X-54313141Y-3740588D01*
X-54476928Y-3880476D01*
X-54510689Y-3909311D01*
X-54515713Y-3915193D01*
X-54574219Y-3953383D01*
X-54644087Y-3953881D01*
X-54703132Y-3916526D01*
X-54704233Y-3915256D01*
X-54709311Y-3909311D01*
X-54906860Y-3740588D01*
X-55128372Y-3604846D01*
X-55128373Y-3604845D01*
X-55128377Y-3604843D01*
X-55294373Y-3536086D01*
X-55368390Y-3505427D01*
X-55368389Y-3505427D01*
X-55506079Y-3472370D01*
X-55621006Y-3444779D01*
X-55621008Y-3444778D01*
X-55621009Y-3444778D01*
X-55880000Y-3424396D01*
X-56138991Y-3444778D01*
X-56391611Y-3505427D01*
X-56631624Y-3604843D01*
X-56853140Y-3740588D01*
X-56914969Y-3793395D01*
X-56978730Y-3821965D01*
X-57047816Y-3811527D01*
X-57100292Y-3765397D01*
X-57119500Y-3699104D01*
X-57119500Y-2437653D01*
X-57119500Y-2437648D01*
X-57121975Y-2422022D01*
X-57123500Y-2402636D01*
X-57123500Y-1545648D01*
X-57155523Y-1343465D01*
X-57218782Y-1148776D01*
X-57252497Y-1082607D01*
X-57311713Y-966390D01*
X-57319444Y-955749D01*
X-57432029Y-800786D01*
X-57520634Y-712181D01*
X-57554119Y-650858D01*
X-57549135Y-581166D01*
X-57507263Y-525233D01*
X-57441799Y-500816D01*
X-57432953Y-500500D01*
X-624500Y-500500D01*
X-557461Y-520185D01*
G37*
G04 #@! TD.AperFunction*
M02*
