G04 #@! TF.GenerationSoftware,KiCad,Pcbnew,8.0.6*
G04 #@! TF.CreationDate,2024-12-29T11:53:14+01:00*
G04 #@! TF.ProjectId,rc6502_pico_adapter,72633635-3032-45f7-9069-636f5f616461,rev?*
G04 #@! TF.SameCoordinates,PXa07ac38PY1d11680*
G04 #@! TF.FileFunction,Copper,L2,Bot*
G04 #@! TF.FilePolarity,Positive*
%FSLAX46Y46*%
G04 Gerber Fmt 4.6, Leading zero omitted, Abs format (unit mm)*
G04 Created by KiCad (PCBNEW 8.0.6) date 2024-12-29 11:53:14*
%MOMM*%
%LPD*%
G01*
G04 APERTURE LIST*
G04 #@! TA.AperFunction,ComponentPad*
%ADD10R,1.600000X1.600000*%
G04 #@! TD*
G04 #@! TA.AperFunction,ComponentPad*
%ADD11O,1.600000X1.600000*%
G04 #@! TD*
G04 #@! TA.AperFunction,ComponentPad*
%ADD12C,1.600000*%
G04 #@! TD*
G04 #@! TA.AperFunction,ComponentPad*
%ADD13C,1.400000*%
G04 #@! TD*
G04 #@! TA.AperFunction,ComponentPad*
%ADD14O,1.400000X1.400000*%
G04 #@! TD*
G04 #@! TA.AperFunction,ComponentPad*
%ADD15C,1.500000*%
G04 #@! TD*
G04 #@! TA.AperFunction,ComponentPad*
%ADD16R,1.700000X1.700000*%
G04 #@! TD*
G04 #@! TA.AperFunction,ComponentPad*
%ADD17O,1.700000X1.700000*%
G04 #@! TD*
G04 #@! TA.AperFunction,ComponentPad*
%ADD18R,1.308000X1.308000*%
G04 #@! TD*
G04 #@! TA.AperFunction,ComponentPad*
%ADD19C,1.308000*%
G04 #@! TD*
G04 #@! TA.AperFunction,ViaPad*
%ADD20C,1.200000*%
G04 #@! TD*
G04 #@! TA.AperFunction,Conductor*
%ADD21C,0.500000*%
G04 #@! TD*
G04 #@! TA.AperFunction,Conductor*
%ADD22C,0.800000*%
G04 #@! TD*
G04 #@! TA.AperFunction,Conductor*
%ADD23C,0.300000*%
G04 #@! TD*
G04 APERTURE END LIST*
D10*
G04 #@! TO.P,A1,1,D1/TX*
G04 #@! TO.N,/TX*
X-57150000Y-17780000D03*
D11*
G04 #@! TO.P,A1,2,D0/RX*
G04 #@! TO.N,/RX*
X-54610000Y-17780000D03*
G04 #@! TO.P,A1,3,~{RESET}*
G04 #@! TO.N,unconnected-(A1-~{RESET}-Pad3)*
X-52070000Y-17780000D03*
G04 #@! TO.P,A1,4,GND*
G04 #@! TO.N,unconnected-(A1-GND-Pad4)*
X-49530000Y-17780000D03*
G04 #@! TO.P,A1,5,D2*
G04 #@! TO.N,Net-(A1-D2)*
X-46990000Y-17780000D03*
G04 #@! TO.P,A1,6,D3*
G04 #@! TO.N,Net-(A1-D3)*
X-44450000Y-17780000D03*
G04 #@! TO.P,A1,7,D4*
G04 #@! TO.N,Net-(A1-D4)*
X-41910000Y-17780000D03*
G04 #@! TO.P,A1,8,D5*
G04 #@! TO.N,Net-(A1-D5)*
X-39370000Y-17780000D03*
G04 #@! TO.P,A1,9,D6*
G04 #@! TO.N,unconnected-(A1-D6-Pad9)*
X-36830000Y-17780000D03*
G04 #@! TO.P,A1,10,D7*
G04 #@! TO.N,unconnected-(A1-D7-Pad10)*
X-34290000Y-17780000D03*
G04 #@! TO.P,A1,11,D8*
G04 #@! TO.N,unconnected-(A1-D8-Pad11)*
X-31750000Y-17780000D03*
G04 #@! TO.P,A1,12,D9*
G04 #@! TO.N,unconnected-(A1-D9-Pad12)*
X-29210000Y-17780000D03*
G04 #@! TO.P,A1,13,D10*
G04 #@! TO.N,Net-(A1-D10)*
X-26670000Y-17780000D03*
G04 #@! TO.P,A1,14,D11*
G04 #@! TO.N,Net-(A1-D11)*
X-24130000Y-17780000D03*
G04 #@! TO.P,A1,15,D12*
G04 #@! TO.N,Net-(A1-D12)*
X-21590000Y-17780000D03*
G04 #@! TO.P,A1,16,D13*
G04 #@! TO.N,Net-(A1-D13)*
X-21590000Y-2540000D03*
G04 #@! TO.P,A1,17,3V3*
G04 #@! TO.N,unconnected-(A1-3V3-Pad17)*
X-24130000Y-2540000D03*
G04 #@! TO.P,A1,18,AREF*
G04 #@! TO.N,unconnected-(A1-AREF-Pad18)*
X-26670000Y-2540000D03*
G04 #@! TO.P,A1,19,A0*
G04 #@! TO.N,unconnected-(A1-A0-Pad19)*
X-29210000Y-2540000D03*
G04 #@! TO.P,A1,20,A1*
G04 #@! TO.N,unconnected-(A1-A1-Pad20)*
X-31750000Y-2540000D03*
G04 #@! TO.P,A1,21,A2*
G04 #@! TO.N,unconnected-(A1-A2-Pad21)*
X-34290000Y-2540000D03*
G04 #@! TO.P,A1,22,A3*
G04 #@! TO.N,unconnected-(A1-A3-Pad22)*
X-36830000Y-2540000D03*
G04 #@! TO.P,A1,23,A4*
G04 #@! TO.N,unconnected-(A1-A4-Pad23)*
X-39370000Y-2540000D03*
G04 #@! TO.P,A1,24,A5*
G04 #@! TO.N,unconnected-(A1-A5-Pad24)*
X-41910000Y-2540000D03*
G04 #@! TO.P,A1,25,A6*
G04 #@! TO.N,unconnected-(A1-A6-Pad25)*
X-44450000Y-2540000D03*
G04 #@! TO.P,A1,26,A7*
G04 #@! TO.N,unconnected-(A1-A7-Pad26)*
X-46990000Y-2540000D03*
G04 #@! TO.P,A1,27,+5V*
G04 #@! TO.N,Net-(A1-+5V)*
X-49530000Y-2540000D03*
G04 #@! TO.P,A1,28,~{RESET}*
G04 #@! TO.N,Net-(U1-~{RESET}{slash}PC6)*
X-52070000Y-2540000D03*
G04 #@! TO.P,A1,29,GND*
G04 #@! TO.N,GND*
X-54610000Y-2540000D03*
G04 #@! TO.P,A1,30,VIN*
G04 #@! TO.N,unconnected-(A1-VIN-Pad30)*
X-57150000Y-2540000D03*
G04 #@! TD*
D12*
G04 #@! TO.P,C2,1*
G04 #@! TO.N,GND*
X-40005000Y-27285000D03*
G04 #@! TO.P,C2,2*
G04 #@! TO.N,Net-(U1-XTAL1{slash}PB6)*
X-40005000Y-24785000D03*
G04 #@! TD*
D13*
G04 #@! TO.P,R2,1*
G04 #@! TO.N,Net-(R2-Pad1)*
X-13930000Y-19590000D03*
D14*
G04 #@! TO.P,R2,2*
G04 #@! TO.N,/TX1*
X-13930000Y-27210000D03*
G04 #@! TD*
D13*
G04 #@! TO.P,R1,1*
G04 #@! TO.N,/DTR*
X-8850000Y-19590000D03*
D14*
G04 #@! TO.P,R1,2*
G04 #@! TO.N,GND*
X-8850000Y-27210000D03*
G04 #@! TD*
D15*
G04 #@! TO.P,Y1,1,1*
G04 #@! TO.N,Net-(U1-XTAL2{slash}PB7)*
X-28575000Y-26035000D03*
G04 #@! TO.P,Y1,2,2*
G04 #@! TO.N,Net-(U1-XTAL1{slash}PB6)*
X-33475000Y-26035000D03*
G04 #@! TD*
D12*
G04 #@! TO.P,C3,1*
G04 #@! TO.N,GND*
X-22225000Y-27265000D03*
G04 #@! TO.P,C3,2*
G04 #@! TO.N,Net-(U1-XTAL2{slash}PB7)*
X-22225000Y-24765000D03*
G04 #@! TD*
D16*
G04 #@! TO.P,J2,1,Pin_1*
G04 #@! TO.N,/+5v*
X-2525000Y-4985000D03*
D17*
G04 #@! TO.P,J2,2,Pin_2*
G04 #@! TO.N,Net-(A1-+5V)*
X-2525000Y-2445000D03*
G04 #@! TD*
D16*
G04 #@! TO.P,J1,1,Pin_1*
G04 #@! TO.N,/DTR*
X-2500000Y-14510000D03*
D17*
G04 #@! TO.P,J1,2,Pin_2*
G04 #@! TO.N,/TX1*
X-2500000Y-17050000D03*
G04 #@! TO.P,J1,3,Pin_3*
G04 #@! TO.N,/RX1*
X-2500000Y-19590000D03*
G04 #@! TO.P,J1,4,Pin_4*
G04 #@! TO.N,/+5v*
X-2500000Y-22130000D03*
G04 #@! TO.P,J1,5,Pin_5*
G04 #@! TO.N,GND*
X-2500000Y-24670000D03*
G04 #@! TO.P,J1,6,Pin_6*
X-2500000Y-27210000D03*
G04 #@! TD*
D18*
G04 #@! TO.P,S1,1*
G04 #@! TO.N,/RX0*
X-8930000Y-7525000D03*
D19*
G04 #@! TO.P,S1,2*
G04 #@! TO.N,/RX*
X-8930000Y-9525000D03*
G04 #@! TO.P,S1,3*
G04 #@! TO.N,Net-(R3-Pad1)*
X-8930000Y-11525000D03*
G04 #@! TO.P,S1,4*
G04 #@! TO.N,/TX0*
X-13930000Y-7525000D03*
G04 #@! TO.P,S1,5*
G04 #@! TO.N,/TX*
X-13930000Y-9525000D03*
G04 #@! TO.P,S1,6*
G04 #@! TO.N,Net-(R2-Pad1)*
X-13930000Y-11525000D03*
G04 #@! TD*
D13*
G04 #@! TO.P,R3,1*
G04 #@! TO.N,Net-(R3-Pad1)*
X-11390000Y-19590000D03*
D14*
G04 #@! TO.P,R3,2*
G04 #@! TO.N,/RX1*
X-11390000Y-27210000D03*
G04 #@! TD*
D10*
G04 #@! TO.P,U1,1,~{RESET}/PC6*
G04 #@! TO.N,Net-(U1-~{RESET}{slash}PC6)*
X-54610000Y-13970000D03*
D11*
G04 #@! TO.P,U1,2,PD0*
G04 #@! TO.N,/RX*
X-52070000Y-13970000D03*
G04 #@! TO.P,U1,3,PD1*
G04 #@! TO.N,/TX*
X-49530000Y-13970000D03*
G04 #@! TO.P,U1,4,PD2*
G04 #@! TO.N,Net-(A1-D2)*
X-46990000Y-13970000D03*
G04 #@! TO.P,U1,5,PD3*
G04 #@! TO.N,Net-(A1-D3)*
X-44450000Y-13970000D03*
G04 #@! TO.P,U1,6,PD4*
G04 #@! TO.N,Net-(A1-D4)*
X-41910000Y-13970000D03*
G04 #@! TO.P,U1,7,VCC*
G04 #@! TO.N,Net-(A1-+5V)*
X-39370000Y-13970000D03*
G04 #@! TO.P,U1,8,GND*
G04 #@! TO.N,GND*
X-36830000Y-13970000D03*
G04 #@! TO.P,U1,9,XTAL1/PB6*
G04 #@! TO.N,Net-(U1-XTAL1{slash}PB6)*
X-34290000Y-13970000D03*
G04 #@! TO.P,U1,10,XTAL2/PB7*
G04 #@! TO.N,Net-(U1-XTAL2{slash}PB7)*
X-31750000Y-13970000D03*
G04 #@! TO.P,U1,11,PD5*
G04 #@! TO.N,Net-(A1-D5)*
X-29210000Y-13970000D03*
G04 #@! TO.P,U1,12,PD6*
G04 #@! TO.N,unconnected-(U1-PD6-Pad12)*
X-26670000Y-13970000D03*
G04 #@! TO.P,U1,13,PD7*
G04 #@! TO.N,unconnected-(U1-PD7-Pad13)*
X-24130000Y-13970000D03*
G04 #@! TO.P,U1,14,PB0*
G04 #@! TO.N,unconnected-(U1-PB0-Pad14)*
X-21590000Y-13970000D03*
G04 #@! TO.P,U1,15,PB1*
G04 #@! TO.N,unconnected-(U1-PB1-Pad15)*
X-21590000Y-6350000D03*
G04 #@! TO.P,U1,16,PB2*
G04 #@! TO.N,Net-(A1-D10)*
X-24130000Y-6350000D03*
G04 #@! TO.P,U1,17,PB3*
G04 #@! TO.N,Net-(A1-D11)*
X-26670000Y-6350000D03*
G04 #@! TO.P,U1,18,PB4*
G04 #@! TO.N,Net-(A1-D12)*
X-29210000Y-6350000D03*
G04 #@! TO.P,U1,19,PB5*
G04 #@! TO.N,Net-(A1-D13)*
X-31750000Y-6350000D03*
G04 #@! TO.P,U1,20,AVCC*
G04 #@! TO.N,unconnected-(U1-AVCC-Pad20)*
X-34290000Y-6350000D03*
G04 #@! TO.P,U1,21,AREF*
G04 #@! TO.N,unconnected-(U1-AREF-Pad21)*
X-36830000Y-6350000D03*
G04 #@! TO.P,U1,22,GND*
G04 #@! TO.N,GND*
X-39370000Y-6350000D03*
G04 #@! TO.P,U1,23,PC0*
G04 #@! TO.N,unconnected-(U1-PC0-Pad23)*
X-41910000Y-6350000D03*
G04 #@! TO.P,U1,24,PC1*
G04 #@! TO.N,unconnected-(U1-PC1-Pad24)*
X-44450000Y-6350000D03*
G04 #@! TO.P,U1,25,PC2*
G04 #@! TO.N,unconnected-(U1-PC2-Pad25)*
X-46990000Y-6350000D03*
G04 #@! TO.P,U1,26,PC3*
G04 #@! TO.N,unconnected-(U1-PC3-Pad26)*
X-49530000Y-6350000D03*
G04 #@! TO.P,U1,27,PC4*
G04 #@! TO.N,unconnected-(U1-PC4-Pad27)*
X-52070000Y-6350000D03*
G04 #@! TO.P,U1,28,PC5*
G04 #@! TO.N,unconnected-(U1-PC5-Pad28)*
X-54610000Y-6350000D03*
G04 #@! TD*
D16*
G04 #@! TO.P,J3,1,Pin_1*
G04 #@! TO.N,/TX0*
X-12640000Y-2445000D03*
D17*
G04 #@! TO.P,J3,2,Pin_2*
G04 #@! TO.N,/RX0*
X-10100000Y-2445000D03*
G04 #@! TD*
D12*
G04 #@! TO.P,C1,1*
G04 #@! TO.N,/DTR*
X-8890000Y-15685000D03*
G04 #@! TO.P,C1,2*
G04 #@! TO.N,Net-(U1-~{RESET}{slash}PC6)*
X-13890000Y-15685000D03*
G04 #@! TD*
D20*
G04 #@! TO.N,Net-(U1-XTAL2{slash}PB7)*
X-27305000Y-24765000D03*
G04 #@! TO.N,Net-(U1-XTAL1{slash}PB6)*
X-34725000Y-24785000D03*
G04 #@! TO.N,Net-(U1-XTAL2{slash}PB7)*
X-31750000Y-12065000D03*
G04 #@! TO.N,Net-(U1-XTAL1{slash}PB6)*
X-34290000Y-12065000D03*
G04 #@! TO.N,Net-(A1-+5V)*
X-60335076Y-12065000D03*
G04 #@! TO.N,Net-(U1-~{RESET}{slash}PC6)*
X-58420000Y-21590000D03*
X-55080000Y-21590000D03*
G04 #@! TO.N,GND*
X-58420000Y-4445000D03*
X-39370000Y-4445000D03*
G04 #@! TO.N,Net-(A1-D5)*
X-29210000Y-15875000D03*
X-39370000Y-15875000D03*
G04 #@! TO.N,Net-(A1-D13)*
X-16510000Y-4445000D03*
X-31750000Y-4445000D03*
G04 #@! TO.N,Net-(A1-+5V)*
X-56935076Y-12065000D03*
G04 #@! TD*
D21*
G04 #@! TO.N,/RX*
X-54610000Y-17780000D02*
X-54610000Y-19050000D01*
X-54610000Y-19050000D02*
X-56515000Y-20955000D01*
G04 #@! TO.N,Net-(U1-XTAL1{slash}PB6)*
X-40005000Y-24785000D02*
X-34725000Y-24785000D01*
X-34725000Y-24785000D02*
X-33475000Y-26035000D01*
G04 #@! TO.N,Net-(U1-XTAL2{slash}PB7)*
X-31750000Y-13970000D02*
X-31750000Y-12065000D01*
G04 #@! TO.N,Net-(U1-XTAL1{slash}PB6)*
X-34290000Y-13970000D02*
X-34290000Y-12065000D01*
G04 #@! TO.N,Net-(A1-+5V)*
X-60335076Y-1280076D02*
X-59690000Y-635000D01*
X-60335076Y-12065000D02*
X-60335076Y-1280076D01*
X-59690000Y-635000D02*
X-49530000Y-635000D01*
G04 #@! TO.N,Net-(U1-~{RESET}{slash}PC6)*
X-57785000Y-13970000D02*
X-58085076Y-13669924D01*
X-58085076Y-13669924D02*
X-58085076Y-7285076D01*
X-58085076Y-7285076D02*
X-55245000Y-4445000D01*
X-52070000Y-4445000D02*
X-52070000Y-2540000D01*
X-55245000Y-4445000D02*
X-52070000Y-4445000D01*
D22*
G04 #@! TO.N,GND*
X-58420000Y-4445000D02*
X-59035076Y-5060076D01*
X-59035076Y-5060076D02*
X-59035076Y-13315076D01*
X-59035076Y-13315076D02*
X-60325000Y-14605000D01*
X-60325000Y-14605000D02*
X-60325000Y-26630000D01*
X-59670000Y-27285000D02*
X-40005000Y-27285000D01*
X-60325000Y-26630000D02*
X-59670000Y-27285000D01*
D21*
G04 #@! TO.N,Net-(U1-~{RESET}{slash}PC6)*
X-57785000Y-13970000D02*
X-59300000Y-15485000D01*
X-59300000Y-15485000D02*
X-59300000Y-20710000D01*
X-59300000Y-20710000D02*
X-58420000Y-21590000D01*
X-56515000Y-13970000D02*
X-57785000Y-13970000D01*
G04 #@! TO.N,Net-(A1-+5V)*
X-39370000Y-12065000D02*
X-57150000Y-12065000D01*
X-57150000Y-12065000D02*
X-57150000Y-12065001D01*
X-39370000Y-13970000D02*
X-39370000Y-12065000D01*
G04 #@! TO.N,Net-(U1-~{RESET}{slash}PC6)*
X-54610000Y-13970000D02*
X-56515000Y-13970000D01*
G04 #@! TO.N,/TX*
X-50800000Y-19685000D02*
X-50165000Y-20320000D01*
X-50165000Y-20320000D02*
X-17780000Y-20320000D01*
X-17780000Y-20320000D02*
X-16980000Y-19520000D01*
X-16980000Y-19520000D02*
X-16980000Y-10630000D01*
X-16980000Y-10630000D02*
X-15875000Y-9525000D01*
X-15875000Y-9525000D02*
X-13930000Y-9525000D01*
G04 #@! TO.N,Net-(U1-~{RESET}{slash}PC6)*
X-13890000Y-15685000D02*
X-15875000Y-17670000D01*
X-15875000Y-17670000D02*
X-15875000Y-21590000D01*
X-15875000Y-21590000D02*
X-55080000Y-21590000D01*
G04 #@! TO.N,/RX*
X-52070000Y-13970000D02*
X-52070000Y-15175000D01*
X-55880000Y-22860000D02*
X-15240000Y-22860000D01*
X-52705000Y-15810000D02*
X-58355000Y-15810000D01*
X-58500000Y-15955000D02*
X-58500000Y-18970000D01*
X-58355000Y-15810000D02*
X-58500000Y-15955000D01*
X-52070000Y-15175000D02*
X-52705000Y-15810000D01*
X-58500000Y-18970000D02*
X-56515000Y-20955000D01*
X-56515000Y-20955000D02*
X-56515000Y-22225000D01*
X-15240000Y-22860000D02*
X-12700000Y-20320000D01*
X-56515000Y-22225000D02*
X-55880000Y-22860000D01*
G04 #@! TO.N,Net-(A1-+5V)*
X-2525000Y-2445000D02*
X-2525000Y-650000D01*
X-2525000Y-650000D02*
X-2540000Y-635000D01*
X-2540000Y-635000D02*
X-49530000Y-635000D01*
X-49530000Y-635000D02*
X-49530000Y-2540000D01*
D22*
G04 #@! TO.N,GND*
X-58420000Y-4445000D02*
X-56588502Y-4445000D01*
X-56588502Y-4445000D02*
X-54683502Y-2540000D01*
X-54683502Y-2540000D02*
X-54610000Y-2540000D01*
X-39370000Y-6350000D02*
X-39370000Y-4445000D01*
X-39370000Y-8255000D02*
X-36830000Y-10795000D01*
X-36830000Y-10795000D02*
X-36830000Y-13970000D01*
X-39370000Y-6350000D02*
X-39370000Y-8255000D01*
X-22225000Y-28610000D02*
X-8925000Y-28610000D01*
X-38700000Y-28610000D02*
X-22225000Y-28610000D01*
X-22225000Y-28610000D02*
X-22225000Y-27265000D01*
X-40005000Y-27285000D02*
X-38735000Y-28555000D01*
X-38735000Y-28555000D02*
X-38735000Y-28575000D01*
X-38735000Y-28575000D02*
X-38700000Y-28610000D01*
X-8925000Y-28610000D02*
X-8850000Y-28535000D01*
X-8850000Y-28535000D02*
X-8850000Y-27210000D01*
D23*
G04 #@! TO.N,/TX*
X-50800000Y-16510000D02*
X-49530000Y-15240000D01*
X-49530000Y-15240000D02*
X-49530000Y-13970000D01*
D21*
G04 #@! TO.N,Net-(R3-Pad1)*
X-8930000Y-11525000D02*
X-10160000Y-12755000D01*
X-10160000Y-12755000D02*
X-10160000Y-13335000D01*
X-10160000Y-13335000D02*
X-10190000Y-13365000D01*
X-10190000Y-17175000D02*
X-11390000Y-18375000D01*
X-10190000Y-13365000D02*
X-10190000Y-17175000D01*
X-11390000Y-18375000D02*
X-11390000Y-19590000D01*
D23*
G04 #@! TO.N,/RX*
X-12700000Y-18415000D02*
X-11430000Y-17145000D01*
X-13070000Y-20690000D02*
X-12700000Y-20320000D01*
X-12700000Y-20320000D02*
X-12700000Y-18415000D01*
X-11430000Y-17145000D02*
X-11430000Y-10160000D01*
X-11430000Y-10160000D02*
X-10795000Y-9525000D01*
X-10795000Y-9525000D02*
X-8930000Y-9525000D01*
D21*
G04 #@! TO.N,Net-(R2-Pad1)*
X-13930000Y-19590000D02*
X-13930000Y-18375000D01*
X-12590000Y-17035000D02*
X-12590000Y-12865000D01*
X-12590000Y-12865000D02*
X-13930000Y-11525000D01*
X-13930000Y-18375000D02*
X-12590000Y-17035000D01*
D23*
G04 #@! TO.N,/TX*
X-55880000Y-16510000D02*
X-50800000Y-16510000D01*
X-57150000Y-17780000D02*
X-55880000Y-16510000D01*
D21*
G04 #@! TO.N,Net-(A1-D5)*
X-39370000Y-17780000D02*
X-39370000Y-15875000D01*
X-29210000Y-15875000D02*
X-29210000Y-13970000D01*
G04 #@! TO.N,Net-(A1-D12)*
X-17780000Y-5080000D02*
X-17780000Y-17780000D01*
X-29210000Y-6350000D02*
X-29210000Y-3890000D01*
X-29210000Y-3890000D02*
X-18970000Y-3890000D01*
X-17780000Y-17780000D02*
X-21590000Y-17780000D01*
X-18970000Y-3890000D02*
X-17780000Y-5080000D01*
G04 #@! TO.N,Net-(A1-D13)*
X-16510000Y-4445000D02*
X-18415000Y-2540000D01*
X-18415000Y-2540000D02*
X-21590000Y-2540000D01*
X-31750000Y-6350000D02*
X-31750000Y-4445000D01*
G04 #@! TO.N,Net-(A1-D3)*
X-44450000Y-17780000D02*
X-44450000Y-13970000D01*
G04 #@! TO.N,Net-(A1-D4)*
X-41910000Y-17780000D02*
X-41910000Y-13970000D01*
G04 #@! TO.N,Net-(A1-D10)*
X-26670000Y-17780000D02*
X-24210000Y-15320000D01*
X-19380000Y-8255000D02*
X-24130000Y-8255000D01*
X-19380000Y-15240000D02*
X-19380000Y-8255000D01*
X-24210000Y-15320000D02*
X-19460000Y-15320000D01*
X-19460000Y-15320000D02*
X-19380000Y-15240000D01*
X-24130000Y-8255000D02*
X-24130000Y-6350000D01*
G04 #@! TO.N,Net-(A1-D11)*
X-26280000Y-4690000D02*
X-19301370Y-4690000D01*
X-18580000Y-5411370D02*
X-18580000Y-16510000D01*
X-20950811Y-16510000D02*
X-21030811Y-16430000D01*
X-21030811Y-16430000D02*
X-22780000Y-16430000D01*
X-18580000Y-16510000D02*
X-20950811Y-16510000D01*
X-26670000Y-5080000D02*
X-26280000Y-4690000D01*
X-22780000Y-16430000D02*
X-24130000Y-17780000D01*
X-26670000Y-6350000D02*
X-26670000Y-5080000D01*
X-19301370Y-4690000D02*
X-18580000Y-5411370D01*
G04 #@! TO.N,Net-(A1-D2)*
X-46990000Y-17780000D02*
X-46990000Y-13970000D01*
G04 #@! TO.N,/RX*
X-52070000Y-14605000D02*
X-52070000Y-13970000D01*
G04 #@! TO.N,/TX*
X-49530000Y-14609189D02*
X-49530000Y-13970000D01*
G04 #@! TO.N,/DTR*
X-5620000Y-14510000D02*
X-2500000Y-14510000D01*
X-8850000Y-15725000D02*
X-8890000Y-15685000D01*
X-8850000Y-19590000D02*
X-8850000Y-15725000D01*
X-8890000Y-15685000D02*
X-6795000Y-15685000D01*
X-6795000Y-15685000D02*
X-5620000Y-14510000D01*
G04 #@! TO.N,/+5v*
X-2500000Y-22130000D02*
X-1175000Y-22130000D01*
X-1175000Y-22130000D02*
X-635000Y-21590000D01*
X-730000Y-4985000D02*
X-2525000Y-4985000D01*
X-635000Y-21590000D02*
X-635000Y-5080000D01*
X-635000Y-5080000D02*
X-730000Y-4985000D01*
D22*
G04 #@! TO.N,GND*
X-2500000Y-27210000D02*
X-2500000Y-24670000D01*
X-8850000Y-27210000D02*
X-2500000Y-27210000D01*
D21*
G04 #@! TO.N,Net-(U1-XTAL2{slash}PB7)*
X-27305000Y-24765000D02*
X-22225000Y-24765000D01*
X-28575000Y-26035000D02*
X-27305000Y-24765000D01*
G04 #@! TO.N,/RX0*
X-8930000Y-7525000D02*
X-8930000Y-4405000D01*
X-8930000Y-4405000D02*
X-10100000Y-3235000D01*
X-10100000Y-3235000D02*
X-10100000Y-2445000D01*
G04 #@! TO.N,/TX0*
X-12640000Y-3115000D02*
X-12640000Y-2445000D01*
X-13970000Y-4445000D02*
X-12640000Y-3115000D01*
X-13930000Y-4485000D02*
X-13970000Y-4445000D01*
X-13930000Y-7525000D02*
X-13930000Y-4485000D01*
G04 #@! TO.N,/RX1*
X-11140000Y-25400000D02*
X-5080000Y-25400000D01*
X-11390000Y-25650000D02*
X-11140000Y-25400000D01*
X-4445000Y-20320000D02*
X-3715000Y-19590000D01*
X-4445000Y-24765000D02*
X-4445000Y-20320000D01*
X-11390000Y-27210000D02*
X-11390000Y-25650000D01*
X-5080000Y-25400000D02*
X-4445000Y-24765000D01*
X-3715000Y-19590000D02*
X-2500000Y-19590000D01*
G04 #@! TO.N,/TX1*
X-13930000Y-27210000D02*
X-13930000Y-25360000D01*
X-6350000Y-23495000D02*
X-5715000Y-22860000D01*
X-12065000Y-23495000D02*
X-6350000Y-23495000D01*
X-5715000Y-22860000D02*
X-5715000Y-17780000D01*
X-13930000Y-25360000D02*
X-12065000Y-23495000D01*
X-4985000Y-17050000D02*
X-2500000Y-17050000D01*
X-5715000Y-17780000D02*
X-4985000Y-17050000D01*
D23*
G04 #@! TO.N,/TX*
X-50800000Y-16510000D02*
X-50800000Y-19685000D01*
G04 #@! TD*
G04 #@! TA.AperFunction,NonConductor*
G36*
X-58646964Y-1705185D02*
G01*
X-58601209Y-1757989D01*
X-58591265Y-1827147D01*
X-58599442Y-1856953D01*
X-58676874Y-2043889D01*
X-58735683Y-2288848D01*
X-58735683Y-2288852D01*
X-58755449Y-2540000D01*
X-58735683Y-2791148D01*
X-58735682Y-2791152D01*
X-58699567Y-2941588D01*
X-58703058Y-3011370D01*
X-58743722Y-3068187D01*
X-58779878Y-3087815D01*
X-58984496Y-3158061D01*
X-58984510Y-3158067D01*
X-59101559Y-3221411D01*
X-59169887Y-3236006D01*
X-59235259Y-3211343D01*
X-59276920Y-3155252D01*
X-59284576Y-3112356D01*
X-59284576Y-1809500D01*
X-59264891Y-1742461D01*
X-59212087Y-1696706D01*
X-59160576Y-1685500D01*
X-58714003Y-1685500D01*
X-58646964Y-1705185D01*
G37*
G04 #@! TD.AperFunction*
G04 #@! TA.AperFunction,NonConductor*
G36*
X-557461Y-520185D02*
G01*
X-511706Y-572989D01*
X-500500Y-624500D01*
X-500500Y-3810500D01*
X-520185Y-3877539D01*
X-572989Y-3923294D01*
X-624500Y-3934500D01*
X-809083Y-3934500D01*
X-876122Y-3914815D01*
X-921877Y-3862011D01*
X-926125Y-3851454D01*
X-949211Y-3785478D01*
X-991976Y-3717418D01*
X-1045184Y-3632738D01*
X-1144657Y-3533265D01*
X-1178142Y-3471942D01*
X-1173158Y-3402250D01*
X-1162706Y-3380798D01*
X-1049846Y-3196628D01*
X-950427Y-2956610D01*
X-889779Y-2703994D01*
X-869396Y-2445000D01*
X-889779Y-2186006D01*
X-950427Y-1933390D01*
X-1023081Y-1757989D01*
X-1049844Y-1693376D01*
X-1052310Y-1689352D01*
X-1185588Y-1471860D01*
X-1354311Y-1274311D01*
X-1354318Y-1274305D01*
X-1431032Y-1208784D01*
X-1469225Y-1150277D01*
X-1474500Y-1114494D01*
X-1474500Y-624500D01*
X-1454815Y-557461D01*
X-1402011Y-511706D01*
X-1350500Y-500500D01*
X-624500Y-500500D01*
X-557461Y-520185D01*
G37*
G04 #@! TD.AperFunction*
G04 #@! TA.AperFunction,NonConductor*
G36*
X-14347461Y-1705185D02*
G01*
X-14301706Y-1757989D01*
X-14290500Y-1809500D01*
X-14290500Y-3228507D01*
X-14310185Y-3295546D01*
X-14326819Y-3316188D01*
X-14639654Y-3629023D01*
X-14639655Y-3629024D01*
X-14685854Y-3675223D01*
X-14785978Y-3775346D01*
X-14900938Y-3947395D01*
X-14900941Y-3947401D01*
X-14938116Y-4037149D01*
X-14981958Y-4091552D01*
X-15048252Y-4113616D01*
X-15115951Y-4096336D01*
X-15163561Y-4045199D01*
X-15172883Y-4020134D01*
X-15180843Y-3988700D01*
X-15274076Y-3776151D01*
X-15401017Y-3581852D01*
X-15401020Y-3581849D01*
X-15401021Y-3581847D01*
X-15558216Y-3411087D01*
X-15558221Y-3411083D01*
X-15558223Y-3411081D01*
X-15741366Y-3268535D01*
X-15741372Y-3268531D01*
X-15945496Y-3158064D01*
X-15945505Y-3158061D01*
X-16165016Y-3082702D01*
X-16391880Y-3044845D01*
X-16454765Y-3014394D01*
X-16459151Y-3010217D01*
X-17572188Y-1897181D01*
X-17605673Y-1835858D01*
X-17600689Y-1766166D01*
X-17558817Y-1710233D01*
X-17493353Y-1685816D01*
X-17484507Y-1685500D01*
X-14414500Y-1685500D01*
X-14347461Y-1705185D01*
G37*
G04 #@! TD.AperFunction*
G04 #@! TA.AperFunction,NonConductor*
G36*
X-35466870Y-3626482D02*
G01*
X-35465765Y-3627756D01*
X-35425225Y-3675223D01*
X-35425224Y-3675224D01*
X-35233657Y-3838838D01*
X-35233654Y-3838839D01*
X-35018860Y-3970466D01*
X-34824485Y-4050978D01*
X-34786111Y-4066873D01*
X-34541148Y-4125683D01*
X-34290000Y-4145449D01*
X-34038852Y-4125683D01*
X-33793889Y-4066873D01*
X-33561141Y-3970466D01*
X-33346341Y-3838836D01*
X-33225409Y-3735550D01*
X-33161652Y-3706981D01*
X-33092566Y-3717418D01*
X-33040090Y-3763548D01*
X-33020884Y-3830727D01*
X-33031325Y-3879652D01*
X-33079157Y-3988699D01*
X-33136134Y-4213691D01*
X-33136136Y-4213702D01*
X-33155300Y-4444993D01*
X-33155300Y-4445006D01*
X-33136136Y-4676297D01*
X-33136134Y-4676308D01*
X-33079158Y-4901300D01*
X-33031325Y-5010347D01*
X-33022422Y-5079647D01*
X-33052399Y-5142759D01*
X-33111739Y-5179646D01*
X-33181600Y-5178596D01*
X-33225411Y-5154448D01*
X-33346341Y-5051164D01*
X-33346343Y-5051162D01*
X-33346345Y-5051161D01*
X-33346347Y-5051160D01*
X-33561141Y-4919533D01*
X-33793890Y-4823126D01*
X-34038849Y-4764317D01*
X-34290000Y-4744551D01*
X-34541152Y-4764317D01*
X-34786111Y-4823126D01*
X-35018860Y-4919533D01*
X-35233654Y-5051160D01*
X-35233657Y-5051161D01*
X-35425224Y-5214776D01*
X-35465710Y-5262179D01*
X-35524217Y-5300372D01*
X-35594085Y-5300870D01*
X-35653131Y-5263516D01*
X-35654290Y-5262179D01*
X-35675081Y-5237836D01*
X-35694776Y-5214776D01*
X-35821429Y-5106604D01*
X-35886344Y-5051161D01*
X-35886347Y-5051160D01*
X-36101141Y-4919533D01*
X-36333890Y-4823126D01*
X-36578849Y-4764317D01*
X-36830000Y-4744551D01*
X-37081152Y-4764317D01*
X-37326111Y-4823126D01*
X-37558860Y-4919533D01*
X-37773654Y-5051160D01*
X-37773656Y-5051161D01*
X-37894589Y-5154448D01*
X-37958350Y-5183018D01*
X-38027436Y-5172581D01*
X-38079912Y-5126450D01*
X-38099117Y-5059271D01*
X-38088676Y-5010347D01*
X-38040843Y-4901300D01*
X-37983866Y-4676305D01*
X-37969959Y-4508470D01*
X-37964700Y-4445006D01*
X-37964700Y-4444993D01*
X-37983865Y-4213702D01*
X-37983867Y-4213691D01*
X-38040843Y-3988699D01*
X-38088676Y-3879652D01*
X-38097579Y-3810352D01*
X-38067602Y-3747240D01*
X-38008263Y-3710353D01*
X-37938401Y-3711403D01*
X-37894591Y-3735550D01*
X-37773659Y-3838836D01*
X-37773657Y-3838837D01*
X-37773656Y-3838838D01*
X-37773654Y-3838839D01*
X-37558860Y-3970466D01*
X-37364485Y-4050978D01*
X-37326111Y-4066873D01*
X-37081148Y-4125683D01*
X-36830000Y-4145449D01*
X-36578852Y-4125683D01*
X-36333889Y-4066873D01*
X-36101141Y-3970466D01*
X-35886341Y-3838836D01*
X-35694776Y-3675224D01*
X-35654290Y-3627819D01*
X-35595784Y-3589627D01*
X-35525916Y-3589128D01*
X-35466870Y-3626482D01*
G37*
G04 #@! TD.AperFunction*
G04 #@! TA.AperFunction,NonConductor*
G36*
X-43086870Y-3626482D02*
G01*
X-43085765Y-3627756D01*
X-43045225Y-3675223D01*
X-43045224Y-3675224D01*
X-42853657Y-3838838D01*
X-42853654Y-3838839D01*
X-42638860Y-3970466D01*
X-42444485Y-4050978D01*
X-42406111Y-4066873D01*
X-42161148Y-4125683D01*
X-41910000Y-4145449D01*
X-41658852Y-4125683D01*
X-41413889Y-4066873D01*
X-41181141Y-3970466D01*
X-40966341Y-3838836D01*
X-40845409Y-3735550D01*
X-40781652Y-3706981D01*
X-40712566Y-3717418D01*
X-40660090Y-3763548D01*
X-40640884Y-3830727D01*
X-40651325Y-3879652D01*
X-40699157Y-3988699D01*
X-40756134Y-4213691D01*
X-40756136Y-4213702D01*
X-40775300Y-4444993D01*
X-40775300Y-4445006D01*
X-40756136Y-4676297D01*
X-40756134Y-4676308D01*
X-40699158Y-4901300D01*
X-40651325Y-5010347D01*
X-40642422Y-5079647D01*
X-40672399Y-5142759D01*
X-40731739Y-5179646D01*
X-40801600Y-5178596D01*
X-40845411Y-5154448D01*
X-40966341Y-5051164D01*
X-40966343Y-5051162D01*
X-40966345Y-5051161D01*
X-40966347Y-5051160D01*
X-41181141Y-4919533D01*
X-41413890Y-4823126D01*
X-41658849Y-4764317D01*
X-41910000Y-4744551D01*
X-42161152Y-4764317D01*
X-42406111Y-4823126D01*
X-42638860Y-4919533D01*
X-42853654Y-5051160D01*
X-42853657Y-5051161D01*
X-43045224Y-5214776D01*
X-43085710Y-5262179D01*
X-43144217Y-5300372D01*
X-43214085Y-5300870D01*
X-43273131Y-5263516D01*
X-43274290Y-5262179D01*
X-43295081Y-5237836D01*
X-43314776Y-5214776D01*
X-43441429Y-5106604D01*
X-43506344Y-5051161D01*
X-43506347Y-5051160D01*
X-43721141Y-4919533D01*
X-43953890Y-4823126D01*
X-44198849Y-4764317D01*
X-44450000Y-4744551D01*
X-44701152Y-4764317D01*
X-44946111Y-4823126D01*
X-45178860Y-4919533D01*
X-45393654Y-5051160D01*
X-45393657Y-5051161D01*
X-45585224Y-5214776D01*
X-45625710Y-5262179D01*
X-45684217Y-5300372D01*
X-45754085Y-5300870D01*
X-45813131Y-5263516D01*
X-45814290Y-5262179D01*
X-45835081Y-5237836D01*
X-45854776Y-5214776D01*
X-45981429Y-5106604D01*
X-46046344Y-5051161D01*
X-46046347Y-5051160D01*
X-46261141Y-4919533D01*
X-46493890Y-4823126D01*
X-46738849Y-4764317D01*
X-46990000Y-4744551D01*
X-47241152Y-4764317D01*
X-47486111Y-4823126D01*
X-47718860Y-4919533D01*
X-47933654Y-5051160D01*
X-47933657Y-5051161D01*
X-48125224Y-5214776D01*
X-48165710Y-5262179D01*
X-48224217Y-5300372D01*
X-48294085Y-5300870D01*
X-48353131Y-5263516D01*
X-48354290Y-5262179D01*
X-48375081Y-5237836D01*
X-48394776Y-5214776D01*
X-48521429Y-5106604D01*
X-48586344Y-5051161D01*
X-48586347Y-5051160D01*
X-48801141Y-4919533D01*
X-49033890Y-4823126D01*
X-49278849Y-4764317D01*
X-49530000Y-4744551D01*
X-49781152Y-4764317D01*
X-50026111Y-4823126D01*
X-50258860Y-4919533D01*
X-50473654Y-5051160D01*
X-50473657Y-5051161D01*
X-50665224Y-5214776D01*
X-50705710Y-5262179D01*
X-50764217Y-5300372D01*
X-50834085Y-5300870D01*
X-50893131Y-5263516D01*
X-50894290Y-5262179D01*
X-50915081Y-5237836D01*
X-50934776Y-5214776D01*
X-51100449Y-5073278D01*
X-51138641Y-5014772D01*
X-51139140Y-4944904D01*
X-51134477Y-4931536D01*
X-51121953Y-4901300D01*
X-51059870Y-4751420D01*
X-51019500Y-4548465D01*
X-51019500Y-3804749D01*
X-50999815Y-3737710D01*
X-50976035Y-3710462D01*
X-50934776Y-3675224D01*
X-50894290Y-3627819D01*
X-50835784Y-3589627D01*
X-50765916Y-3589128D01*
X-50706870Y-3626482D01*
X-50705765Y-3627756D01*
X-50665225Y-3675223D01*
X-50665224Y-3675224D01*
X-50473657Y-3838838D01*
X-50473654Y-3838839D01*
X-50258860Y-3970466D01*
X-50064485Y-4050978D01*
X-50026111Y-4066873D01*
X-49781148Y-4125683D01*
X-49530000Y-4145449D01*
X-49278852Y-4125683D01*
X-49033889Y-4066873D01*
X-48801141Y-3970466D01*
X-48586341Y-3838836D01*
X-48394776Y-3675224D01*
X-48354290Y-3627819D01*
X-48295784Y-3589627D01*
X-48225916Y-3589128D01*
X-48166870Y-3626482D01*
X-48165765Y-3627756D01*
X-48125225Y-3675223D01*
X-48125224Y-3675224D01*
X-47933657Y-3838838D01*
X-47933654Y-3838839D01*
X-47718860Y-3970466D01*
X-47524485Y-4050978D01*
X-47486111Y-4066873D01*
X-47241148Y-4125683D01*
X-46990000Y-4145449D01*
X-46738852Y-4125683D01*
X-46493889Y-4066873D01*
X-46261141Y-3970466D01*
X-46046341Y-3838836D01*
X-45854776Y-3675224D01*
X-45814290Y-3627819D01*
X-45755784Y-3589627D01*
X-45685916Y-3589128D01*
X-45626870Y-3626482D01*
X-45625765Y-3627756D01*
X-45585225Y-3675223D01*
X-45585224Y-3675224D01*
X-45393657Y-3838838D01*
X-45393654Y-3838839D01*
X-45178860Y-3970466D01*
X-44984485Y-4050978D01*
X-44946111Y-4066873D01*
X-44701148Y-4125683D01*
X-44450000Y-4145449D01*
X-44198852Y-4125683D01*
X-43953889Y-4066873D01*
X-43721141Y-3970466D01*
X-43506341Y-3838836D01*
X-43314776Y-3675224D01*
X-43274290Y-3627819D01*
X-43215784Y-3589627D01*
X-43145916Y-3589128D01*
X-43086870Y-3626482D01*
G37*
G04 #@! TD.AperFunction*
G04 #@! TA.AperFunction,NonConductor*
G36*
X-19720824Y-5760185D02*
G01*
X-19700182Y-5776819D01*
X-19666819Y-5810182D01*
X-19633334Y-5871505D01*
X-19630500Y-5897863D01*
X-19630500Y-7080500D01*
X-19650185Y-7147539D01*
X-19702989Y-7193294D01*
X-19754500Y-7204500D01*
X-20025997Y-7204500D01*
X-20093036Y-7184815D01*
X-20138791Y-7132011D01*
X-20148735Y-7062853D01*
X-20140558Y-7033047D01*
X-20063127Y-6846110D01*
X-20029967Y-6707989D01*
X-20004317Y-6601148D01*
X-19984551Y-6350000D01*
X-20004317Y-6098852D01*
X-20053630Y-5893447D01*
X-20050139Y-5823664D01*
X-20009475Y-5766847D01*
X-19944549Y-5741034D01*
X-19933056Y-5740500D01*
X-19787863Y-5740500D01*
X-19720824Y-5760185D01*
G37*
G04 #@! TD.AperFunction*
G04 #@! TA.AperFunction,NonConductor*
G36*
X-15039036Y-4930636D02*
G01*
X-14992493Y-4982746D01*
X-14980500Y-5035947D01*
X-14980500Y-6470205D01*
X-15000185Y-6537244D01*
X-15013270Y-6554187D01*
X-15081737Y-6628562D01*
X-15213581Y-6830365D01*
X-15310407Y-7051107D01*
X-15369580Y-7284773D01*
X-15369582Y-7284784D01*
X-15389485Y-7524993D01*
X-15389485Y-7525006D01*
X-15369582Y-7765215D01*
X-15369580Y-7765226D01*
X-15310407Y-7998892D01*
X-15213579Y-8219639D01*
X-15172393Y-8282678D01*
X-15152205Y-8349567D01*
X-15171384Y-8416753D01*
X-15223843Y-8462904D01*
X-15276201Y-8474500D01*
X-15978470Y-8474500D01*
X-16181413Y-8514868D01*
X-16181421Y-8514870D01*
X-16372597Y-8594058D01*
X-16536610Y-8703647D01*
X-16603288Y-8724524D01*
X-16670668Y-8706039D01*
X-16717357Y-8654060D01*
X-16729500Y-8600544D01*
X-16729500Y-5969500D01*
X-16709815Y-5902461D01*
X-16657011Y-5856706D01*
X-16605500Y-5845500D01*
X-16393952Y-5845500D01*
X-16393951Y-5845500D01*
X-16165019Y-5807298D01*
X-15945497Y-5731936D01*
X-15741374Y-5621470D01*
X-15558216Y-5478913D01*
X-15401021Y-5308153D01*
X-15274076Y-5113849D01*
X-15218056Y-4986137D01*
X-15173100Y-4932651D01*
X-15106364Y-4911961D01*
X-15039036Y-4930636D01*
G37*
G04 #@! TD.AperFunction*
G04 #@! TA.AperFunction,NonConductor*
G36*
X-11057252Y-3796842D02*
G01*
X-11035795Y-3807297D01*
X-10966254Y-3849912D01*
X-10927945Y-3886744D01*
X-10915977Y-3904655D01*
X-10769655Y-4050977D01*
X-10769654Y-4050977D01*
X-10762587Y-4058044D01*
X-10762588Y-4058044D01*
X-10762584Y-4058047D01*
X-10016819Y-4803812D01*
X-9983334Y-4865135D01*
X-9980500Y-4891493D01*
X-9980500Y-6106196D01*
X-10000185Y-6173235D01*
X-10038527Y-6211189D01*
X-10086260Y-6241182D01*
X-10086263Y-6241184D01*
X-10213816Y-6368737D01*
X-10309789Y-6521476D01*
X-10369369Y-6691745D01*
X-10369370Y-6691750D01*
X-10384500Y-6826039D01*
X-10384500Y-8223960D01*
X-10369370Y-8358249D01*
X-10369368Y-8358257D01*
X-10351421Y-8409546D01*
X-10347860Y-8479324D01*
X-10382589Y-8539952D01*
X-10444582Y-8572179D01*
X-10468463Y-8574500D01*
X-10888621Y-8574500D01*
X-11072244Y-8611025D01*
X-11072256Y-8611028D01*
X-11136277Y-8637547D01*
X-11245224Y-8682673D01*
X-11245237Y-8682680D01*
X-11400908Y-8786697D01*
X-11400912Y-8786700D01*
X-12168300Y-9554088D01*
X-12249797Y-9676056D01*
X-12303410Y-9720860D01*
X-12372735Y-9729567D01*
X-12435762Y-9699412D01*
X-12472481Y-9639969D01*
X-12476475Y-9596923D01*
X-12470515Y-9525004D01*
X-12470515Y-9524993D01*
X-12490419Y-9284784D01*
X-12490421Y-9284773D01*
X-12544562Y-9070977D01*
X-12549594Y-9051106D01*
X-12646421Y-8830362D01*
X-12650828Y-8823617D01*
X-12742907Y-8682680D01*
X-12778261Y-8628566D01*
X-12796289Y-8608983D01*
X-12827211Y-8546332D01*
X-12819353Y-8476906D01*
X-12796290Y-8441018D01*
X-12778261Y-8421434D01*
X-12646421Y-8219638D01*
X-12549594Y-7998894D01*
X-12490420Y-7765223D01*
X-12490419Y-7765215D01*
X-12470515Y-7525006D01*
X-12470515Y-7524993D01*
X-12490419Y-7284784D01*
X-12490421Y-7284773D01*
X-12529106Y-7132011D01*
X-12549594Y-7051106D01*
X-12646421Y-6830362D01*
X-12778261Y-6628566D01*
X-12778263Y-6628564D01*
X-12778264Y-6628562D01*
X-12846730Y-6554187D01*
X-12877652Y-6491532D01*
X-12879500Y-6470205D01*
X-12879500Y-4891493D01*
X-12859815Y-4824454D01*
X-12843181Y-4803812D01*
X-12171188Y-4131819D01*
X-12109865Y-4098334D01*
X-12083507Y-4095500D01*
X-11745043Y-4095500D01*
X-11745042Y-4095499D01*
X-11677896Y-4087934D01*
X-11610751Y-4080369D01*
X-11610748Y-4080368D01*
X-11610745Y-4080368D01*
X-11440478Y-4020789D01*
X-11287738Y-3924816D01*
X-11188263Y-3825340D01*
X-11126944Y-3791858D01*
X-11057252Y-3796842D01*
G37*
G04 #@! TD.AperFunction*
G04 #@! TA.AperFunction,NonConductor*
G36*
X-12439037Y-10099470D02*
G01*
X-12392493Y-10151580D01*
X-12380500Y-10204782D01*
X-12380500Y-10845217D01*
X-12400185Y-10912256D01*
X-12452989Y-10958011D01*
X-12522147Y-10967955D01*
X-12585703Y-10938930D01*
X-12618056Y-10895027D01*
X-12646422Y-10830360D01*
X-12720388Y-10717147D01*
X-12778261Y-10628566D01*
X-12796289Y-10608983D01*
X-12827211Y-10546332D01*
X-12819353Y-10476906D01*
X-12796290Y-10441018D01*
X-12778261Y-10421434D01*
X-12646421Y-10219638D01*
X-12618056Y-10154971D01*
X-12573100Y-10101486D01*
X-12506364Y-10080796D01*
X-12439037Y-10099470D01*
G37*
G04 #@! TD.AperFunction*
G04 #@! TA.AperFunction,NonConductor*
G36*
X-56143999Y-6932141D02*
G01*
X-56088065Y-6974013D01*
X-56072771Y-7000870D01*
X-56040467Y-7078859D01*
X-55908840Y-7293653D01*
X-55908839Y-7293656D01*
X-55908836Y-7293659D01*
X-55745224Y-7485224D01*
X-55660500Y-7557585D01*
X-55553657Y-7648838D01*
X-55553654Y-7648839D01*
X-55338860Y-7780466D01*
X-55106111Y-7876873D01*
X-54861148Y-7935683D01*
X-54610000Y-7955449D01*
X-54358852Y-7935683D01*
X-54113889Y-7876873D01*
X-53881141Y-7780466D01*
X-53666341Y-7648836D01*
X-53474776Y-7485224D01*
X-53434290Y-7437819D01*
X-53375784Y-7399627D01*
X-53305916Y-7399128D01*
X-53246870Y-7436482D01*
X-53245765Y-7437756D01*
X-53205225Y-7485223D01*
X-53205224Y-7485224D01*
X-53013657Y-7648838D01*
X-53013654Y-7648839D01*
X-52798860Y-7780466D01*
X-52566111Y-7876873D01*
X-52321148Y-7935683D01*
X-52070000Y-7955449D01*
X-51818852Y-7935683D01*
X-51573889Y-7876873D01*
X-51341141Y-7780466D01*
X-51126341Y-7648836D01*
X-50934776Y-7485224D01*
X-50894290Y-7437819D01*
X-50835784Y-7399627D01*
X-50765916Y-7399128D01*
X-50706870Y-7436482D01*
X-50705765Y-7437756D01*
X-50665225Y-7485223D01*
X-50665224Y-7485224D01*
X-50473657Y-7648838D01*
X-50473654Y-7648839D01*
X-50258860Y-7780466D01*
X-50026111Y-7876873D01*
X-49781148Y-7935683D01*
X-49530000Y-7955449D01*
X-49278852Y-7935683D01*
X-49033889Y-7876873D01*
X-48801141Y-7780466D01*
X-48586341Y-7648836D01*
X-48394776Y-7485224D01*
X-48354290Y-7437819D01*
X-48295784Y-7399627D01*
X-48225916Y-7399128D01*
X-48166870Y-7436482D01*
X-48165765Y-7437756D01*
X-48125225Y-7485223D01*
X-48125224Y-7485224D01*
X-47933657Y-7648838D01*
X-47933654Y-7648839D01*
X-47718860Y-7780466D01*
X-47486111Y-7876873D01*
X-47241148Y-7935683D01*
X-46990000Y-7955449D01*
X-46738852Y-7935683D01*
X-46493889Y-7876873D01*
X-46261141Y-7780466D01*
X-46046341Y-7648836D01*
X-45854776Y-7485224D01*
X-45814290Y-7437819D01*
X-45755784Y-7399627D01*
X-45685916Y-7399128D01*
X-45626870Y-7436482D01*
X-45625765Y-7437756D01*
X-45585225Y-7485223D01*
X-45585224Y-7485224D01*
X-45393657Y-7648838D01*
X-45393654Y-7648839D01*
X-45178860Y-7780466D01*
X-44946111Y-7876873D01*
X-44701148Y-7935683D01*
X-44450000Y-7955449D01*
X-44198852Y-7935683D01*
X-43953889Y-7876873D01*
X-43721141Y-7780466D01*
X-43506341Y-7648836D01*
X-43314776Y-7485224D01*
X-43274290Y-7437819D01*
X-43215784Y-7399627D01*
X-43145916Y-7399128D01*
X-43086870Y-7436482D01*
X-43085765Y-7437756D01*
X-43045225Y-7485223D01*
X-43045224Y-7485224D01*
X-42853657Y-7648838D01*
X-42853654Y-7648839D01*
X-42638860Y-7780466D01*
X-42406111Y-7876873D01*
X-42161148Y-7935683D01*
X-41910000Y-7955449D01*
X-41658852Y-7935683D01*
X-41413889Y-7876873D01*
X-41181141Y-7780466D01*
X-40966341Y-7648836D01*
X-40775031Y-7485441D01*
X-40711270Y-7456871D01*
X-40642185Y-7467308D01*
X-40589709Y-7513439D01*
X-40570500Y-7579732D01*
X-40570500Y-8349486D01*
X-40540941Y-8536118D01*
X-40482546Y-8715836D01*
X-40424191Y-8830363D01*
X-40396760Y-8884199D01*
X-40285690Y-9037074D01*
X-40285688Y-9037076D01*
X-38066819Y-11255945D01*
X-38033334Y-11317268D01*
X-38030500Y-11343626D01*
X-38030500Y-12740266D01*
X-38050185Y-12807305D01*
X-38102989Y-12853060D01*
X-38172147Y-12863004D01*
X-38235031Y-12834557D01*
X-38276031Y-12799540D01*
X-38314225Y-12741033D01*
X-38319500Y-12705249D01*
X-38319500Y-11961534D01*
X-38319501Y-11961530D01*
X-38359870Y-11758580D01*
X-38439059Y-11567402D01*
X-38554023Y-11395345D01*
X-38554025Y-11395342D01*
X-38700343Y-11249024D01*
X-38815300Y-11172213D01*
X-38872402Y-11134059D01*
X-38914810Y-11116493D01*
X-39063580Y-11054870D01*
X-39063588Y-11054868D01*
X-39266531Y-11014500D01*
X-39266535Y-11014500D01*
X-55962034Y-11014500D01*
X-56029073Y-10994815D01*
X-56038196Y-10988353D01*
X-56166442Y-10888535D01*
X-56166448Y-10888531D01*
X-56370572Y-10778064D01*
X-56370581Y-10778061D01*
X-56590092Y-10702702D01*
X-56761794Y-10674050D01*
X-56819027Y-10664500D01*
X-56819028Y-10664500D01*
X-56910576Y-10664500D01*
X-56977615Y-10644815D01*
X-57023370Y-10592011D01*
X-57034576Y-10540500D01*
X-57034576Y-7771568D01*
X-57014891Y-7704529D01*
X-56998261Y-7683891D01*
X-56275011Y-6960640D01*
X-56213690Y-6927157D01*
X-56143999Y-6932141D01*
G37*
G04 #@! TD.AperFunction*
G04 #@! TA.AperFunction,NonConductor*
G36*
X-25306870Y-7436482D02*
G01*
X-25305765Y-7437756D01*
X-25265224Y-7485224D01*
X-25223968Y-7520460D01*
X-25185776Y-7578965D01*
X-25180500Y-7614749D01*
X-25180500Y-8358469D01*
X-25140132Y-8561412D01*
X-25140130Y-8561420D01*
X-25060942Y-8752596D01*
X-24945976Y-8924657D01*
X-24799658Y-9070975D01*
X-24799655Y-9070977D01*
X-24627598Y-9185941D01*
X-24436420Y-9265130D01*
X-24233470Y-9305499D01*
X-24233466Y-9305500D01*
X-24233465Y-9305500D01*
X-24026535Y-9305500D01*
X-20554500Y-9305500D01*
X-20487461Y-9325185D01*
X-20441706Y-9377989D01*
X-20430500Y-9429500D01*
X-20430500Y-12586533D01*
X-20450185Y-12653572D01*
X-20502989Y-12699327D01*
X-20572147Y-12709271D01*
X-20635031Y-12680824D01*
X-20646345Y-12671161D01*
X-20646347Y-12671160D01*
X-20861141Y-12539533D01*
X-21093890Y-12443126D01*
X-21338849Y-12384317D01*
X-21590000Y-12364551D01*
X-21841152Y-12384317D01*
X-22086111Y-12443126D01*
X-22318860Y-12539533D01*
X-22533654Y-12671160D01*
X-22533657Y-12671161D01*
X-22725224Y-12834776D01*
X-22765710Y-12882179D01*
X-22824217Y-12920372D01*
X-22894085Y-12920870D01*
X-22953131Y-12883516D01*
X-22954290Y-12882179D01*
X-22960737Y-12874631D01*
X-22994776Y-12834776D01*
X-23141723Y-12709271D01*
X-23186344Y-12671161D01*
X-23186347Y-12671160D01*
X-23401141Y-12539533D01*
X-23633890Y-12443126D01*
X-23878849Y-12384317D01*
X-24130000Y-12364551D01*
X-24381152Y-12384317D01*
X-24626111Y-12443126D01*
X-24858860Y-12539533D01*
X-25073654Y-12671160D01*
X-25073657Y-12671161D01*
X-25265224Y-12834776D01*
X-25305710Y-12882179D01*
X-25364217Y-12920372D01*
X-25434085Y-12920870D01*
X-25493131Y-12883516D01*
X-25494290Y-12882179D01*
X-25500737Y-12874631D01*
X-25534776Y-12834776D01*
X-25681723Y-12709271D01*
X-25726344Y-12671161D01*
X-25726347Y-12671160D01*
X-25941141Y-12539533D01*
X-26173890Y-12443126D01*
X-26418849Y-12384317D01*
X-26670000Y-12364551D01*
X-26921152Y-12384317D01*
X-27166111Y-12443126D01*
X-27398860Y-12539533D01*
X-27613654Y-12671160D01*
X-27613657Y-12671161D01*
X-27805224Y-12834776D01*
X-27845710Y-12882179D01*
X-27904217Y-12920372D01*
X-27974085Y-12920870D01*
X-28033131Y-12883516D01*
X-28034290Y-12882179D01*
X-28040737Y-12874631D01*
X-28074776Y-12834776D01*
X-28221723Y-12709271D01*
X-28266344Y-12671161D01*
X-28266347Y-12671160D01*
X-28481141Y-12539533D01*
X-28713890Y-12443126D01*
X-28958849Y-12384317D01*
X-29210000Y-12364551D01*
X-29461152Y-12384317D01*
X-29706111Y-12443126D01*
X-29938860Y-12539533D01*
X-30153654Y-12671160D01*
X-30153656Y-12671161D01*
X-30274589Y-12774448D01*
X-30338350Y-12803018D01*
X-30407436Y-12792581D01*
X-30459912Y-12746450D01*
X-30479117Y-12679271D01*
X-30468677Y-12630349D01*
X-30420843Y-12521300D01*
X-30363866Y-12296305D01*
X-30344700Y-12065000D01*
X-30344700Y-12064993D01*
X-30363865Y-11833702D01*
X-30363867Y-11833691D01*
X-30420843Y-11608699D01*
X-30514076Y-11396151D01*
X-30641017Y-11201852D01*
X-30641020Y-11201849D01*
X-30641021Y-11201847D01*
X-30798216Y-11031087D01*
X-30798221Y-11031083D01*
X-30798223Y-11031081D01*
X-30981366Y-10888535D01*
X-30981372Y-10888531D01*
X-31185496Y-10778064D01*
X-31185505Y-10778061D01*
X-31405016Y-10702702D01*
X-31576718Y-10674050D01*
X-31633951Y-10664500D01*
X-31866049Y-10664500D01*
X-31911836Y-10672140D01*
X-32094985Y-10702702D01*
X-32314496Y-10778061D01*
X-32314505Y-10778064D01*
X-32518629Y-10888531D01*
X-32518635Y-10888535D01*
X-32701778Y-11031081D01*
X-32701781Y-11031084D01*
X-32701784Y-11031086D01*
X-32701784Y-11031087D01*
X-32760733Y-11095122D01*
X-32858984Y-11201852D01*
X-32916191Y-11289416D01*
X-32969338Y-11334773D01*
X-33038569Y-11344197D01*
X-33101905Y-11314695D01*
X-33123809Y-11289416D01*
X-33181017Y-11201852D01*
X-33181020Y-11201849D01*
X-33181021Y-11201847D01*
X-33338216Y-11031087D01*
X-33338221Y-11031083D01*
X-33338223Y-11031081D01*
X-33521366Y-10888535D01*
X-33521372Y-10888531D01*
X-33725496Y-10778064D01*
X-33725505Y-10778061D01*
X-33945016Y-10702702D01*
X-34116718Y-10674050D01*
X-34173951Y-10664500D01*
X-34406049Y-10664500D01*
X-34451836Y-10672140D01*
X-34634985Y-10702702D01*
X-34854496Y-10778061D01*
X-34854505Y-10778064D01*
X-35058629Y-10888531D01*
X-35058635Y-10888535D01*
X-35241778Y-11031081D01*
X-35241781Y-11031084D01*
X-35241784Y-11031086D01*
X-35241784Y-11031087D01*
X-35398979Y-11201847D01*
X-35398981Y-11201848D01*
X-35398984Y-11201853D01*
X-35401693Y-11206000D01*
X-35454840Y-11251355D01*
X-35524072Y-11260777D01*
X-35587407Y-11231274D01*
X-35624737Y-11172213D01*
X-35629500Y-11138176D01*
X-35629500Y-10700513D01*
X-35659060Y-10513881D01*
X-35717455Y-10334163D01*
X-35775809Y-10219638D01*
X-35803240Y-10165801D01*
X-35843655Y-10110175D01*
X-35843655Y-10110174D01*
X-35843657Y-10110173D01*
X-35875471Y-10066384D01*
X-35914307Y-10012929D01*
X-38133181Y-7794055D01*
X-38166666Y-7732732D01*
X-38169500Y-7706374D01*
X-38169500Y-7579732D01*
X-38149815Y-7512693D01*
X-38097011Y-7466938D01*
X-38027853Y-7456994D01*
X-37964970Y-7485441D01*
X-37932188Y-7513439D01*
X-37773657Y-7648838D01*
X-37773654Y-7648839D01*
X-37558860Y-7780466D01*
X-37326111Y-7876873D01*
X-37081148Y-7935683D01*
X-36830000Y-7955449D01*
X-36578852Y-7935683D01*
X-36333889Y-7876873D01*
X-36101141Y-7780466D01*
X-35886341Y-7648836D01*
X-35694776Y-7485224D01*
X-35654290Y-7437819D01*
X-35595784Y-7399627D01*
X-35525916Y-7399128D01*
X-35466870Y-7436482D01*
X-35465765Y-7437756D01*
X-35425225Y-7485223D01*
X-35425224Y-7485224D01*
X-35233657Y-7648838D01*
X-35233654Y-7648839D01*
X-35018860Y-7780466D01*
X-34786111Y-7876873D01*
X-34541148Y-7935683D01*
X-34290000Y-7955449D01*
X-34038852Y-7935683D01*
X-33793889Y-7876873D01*
X-33561141Y-7780466D01*
X-33346341Y-7648836D01*
X-33154776Y-7485224D01*
X-33114290Y-7437819D01*
X-33055784Y-7399627D01*
X-32985916Y-7399128D01*
X-32926870Y-7436482D01*
X-32925765Y-7437756D01*
X-32885225Y-7485223D01*
X-32885224Y-7485224D01*
X-32693657Y-7648838D01*
X-32693654Y-7648839D01*
X-32478860Y-7780466D01*
X-32246111Y-7876873D01*
X-32001148Y-7935683D01*
X-31750000Y-7955449D01*
X-31498852Y-7935683D01*
X-31253889Y-7876873D01*
X-31021141Y-7780466D01*
X-30806341Y-7648836D01*
X-30614776Y-7485224D01*
X-30574290Y-7437819D01*
X-30515784Y-7399627D01*
X-30445916Y-7399128D01*
X-30386870Y-7436482D01*
X-30385765Y-7437756D01*
X-30345225Y-7485223D01*
X-30345224Y-7485224D01*
X-30153657Y-7648838D01*
X-30153654Y-7648839D01*
X-29938860Y-7780466D01*
X-29706111Y-7876873D01*
X-29461148Y-7935683D01*
X-29210000Y-7955449D01*
X-28958852Y-7935683D01*
X-28713889Y-7876873D01*
X-28481141Y-7780466D01*
X-28266341Y-7648836D01*
X-28074776Y-7485224D01*
X-28034290Y-7437819D01*
X-27975784Y-7399627D01*
X-27905916Y-7399128D01*
X-27846870Y-7436482D01*
X-27845765Y-7437756D01*
X-27805225Y-7485223D01*
X-27805224Y-7485224D01*
X-27613657Y-7648838D01*
X-27613654Y-7648839D01*
X-27398860Y-7780466D01*
X-27166111Y-7876873D01*
X-26921148Y-7935683D01*
X-26670000Y-7955449D01*
X-26418852Y-7935683D01*
X-26173889Y-7876873D01*
X-25941141Y-7780466D01*
X-25726341Y-7648836D01*
X-25534776Y-7485224D01*
X-25494290Y-7437819D01*
X-25435784Y-7399627D01*
X-25365916Y-7399128D01*
X-25306870Y-7436482D01*
G37*
G04 #@! TD.AperFunction*
G04 #@! TA.AperFunction,NonConductor*
G36*
X-4115434Y-1705185D02*
G01*
X-4069679Y-1757989D01*
X-4059735Y-1827147D01*
X-4067912Y-1856952D01*
X-4099572Y-1933385D01*
X-4099573Y-1933388D01*
X-4160222Y-2186009D01*
X-4180604Y-2445000D01*
X-4160222Y-2703990D01*
X-4099573Y-2956610D01*
X-4000157Y-3196623D01*
X-4000155Y-3196627D01*
X-4000154Y-3196628D01*
X-3887297Y-3380795D01*
X-3869053Y-3448240D01*
X-3890170Y-3514843D01*
X-3905343Y-3533265D01*
X-4004817Y-3632739D01*
X-4100789Y-3785476D01*
X-4160369Y-3955745D01*
X-4160370Y-3955750D01*
X-4175500Y-4090039D01*
X-4175500Y-5879960D01*
X-4160370Y-6014249D01*
X-4160369Y-6014254D01*
X-4100789Y-6184523D01*
X-4065186Y-6241184D01*
X-4004816Y-6337262D01*
X-3877262Y-6464816D01*
X-3724522Y-6560789D01*
X-3609174Y-6601151D01*
X-3554255Y-6620368D01*
X-3554250Y-6620369D01*
X-3463754Y-6630565D01*
X-3419960Y-6635499D01*
X-3419957Y-6635500D01*
X-3419954Y-6635500D01*
X-1809500Y-6635500D01*
X-1742461Y-6655185D01*
X-1696706Y-6707989D01*
X-1685500Y-6759500D01*
X-1685500Y-12735500D01*
X-1705185Y-12802539D01*
X-1757989Y-12848294D01*
X-1809500Y-12859500D01*
X-3394961Y-12859500D01*
X-3529250Y-12874630D01*
X-3529255Y-12874631D01*
X-3699524Y-12934211D01*
X-3852263Y-13030184D01*
X-3979816Y-13157737D01*
X-4075790Y-13310478D01*
X-4098875Y-13376454D01*
X-4139597Y-13433230D01*
X-4204549Y-13458978D01*
X-4215917Y-13459500D01*
X-5510401Y-13459500D01*
X-5510421Y-13459499D01*
X-5516535Y-13459499D01*
X-5723465Y-13459499D01*
X-5723467Y-13459499D01*
X-5926415Y-13499868D01*
X-5926421Y-13499870D01*
X-6117597Y-13579058D01*
X-6289658Y-13694024D01*
X-6289659Y-13694025D01*
X-7193812Y-14598181D01*
X-7255135Y-14631666D01*
X-7281493Y-14634500D01*
X-7625251Y-14634500D01*
X-7692290Y-14614815D01*
X-7719538Y-14591034D01*
X-7754776Y-14549776D01*
X-7754777Y-14549775D01*
X-7946344Y-14386161D01*
X-7946347Y-14386160D01*
X-8161141Y-14254533D01*
X-8393890Y-14158126D01*
X-8638849Y-14099317D01*
X-8827213Y-14084492D01*
X-8890000Y-14079551D01*
X-8890001Y-14079551D01*
X-9005772Y-14088662D01*
X-9074149Y-14074297D01*
X-9123905Y-14025246D01*
X-9139500Y-13965044D01*
X-9139500Y-13601496D01*
X-9137117Y-13577304D01*
X-9109500Y-13438465D01*
X-9109500Y-13241493D01*
X-9089815Y-13174454D01*
X-9073181Y-13153812D01*
X-8935188Y-13015819D01*
X-8873865Y-12982334D01*
X-8847507Y-12979500D01*
X-8809478Y-12979500D01*
X-8809477Y-12979500D01*
X-8571718Y-12939825D01*
X-8343732Y-12861557D01*
X-8131737Y-12746832D01*
X-7941518Y-12598778D01*
X-7778261Y-12421434D01*
X-7646421Y-12219638D01*
X-7549594Y-11998894D01*
X-7490420Y-11765223D01*
X-7489870Y-11758587D01*
X-7470515Y-11525006D01*
X-7470515Y-11524993D01*
X-7490419Y-11284784D01*
X-7490421Y-11284773D01*
X-7533036Y-11116493D01*
X-7549594Y-11051106D01*
X-7646421Y-10830362D01*
X-7778261Y-10628566D01*
X-7796289Y-10608983D01*
X-7827211Y-10546332D01*
X-7819353Y-10476906D01*
X-7796290Y-10441018D01*
X-7778261Y-10421434D01*
X-7646421Y-10219638D01*
X-7549594Y-9998894D01*
X-7490420Y-9765223D01*
X-7490419Y-9765215D01*
X-7470515Y-9525006D01*
X-7470515Y-9524993D01*
X-7490419Y-9284784D01*
X-7490421Y-9284773D01*
X-7544562Y-9070977D01*
X-7549594Y-9051106D01*
X-7592066Y-8954280D01*
X-7646420Y-8830363D01*
X-7650828Y-8823617D01*
X-7671016Y-8756728D01*
X-7651837Y-8689542D01*
X-7647991Y-8684137D01*
X-7646186Y-8681263D01*
X-7646184Y-8681262D01*
X-7550211Y-8528522D01*
X-7490632Y-8358255D01*
X-7475500Y-8223954D01*
X-7475500Y-6826046D01*
X-7482998Y-6759500D01*
X-7490631Y-6691750D01*
X-7490632Y-6691745D01*
X-7522333Y-6601148D01*
X-7550211Y-6521478D01*
X-7646184Y-6368738D01*
X-7773738Y-6241184D01*
X-7773741Y-6241182D01*
X-7821473Y-6211189D01*
X-7867764Y-6158854D01*
X-7879500Y-6106196D01*
X-7879500Y-4514599D01*
X-7879499Y-4514578D01*
X-7879499Y-4301532D01*
X-7919869Y-4098585D01*
X-7919870Y-4098584D01*
X-7919870Y-4098580D01*
X-7927413Y-4080369D01*
X-7999055Y-3907408D01*
X-7999062Y-3907395D01*
X-8114023Y-3735345D01*
X-8114026Y-3735341D01*
X-8574430Y-3274938D01*
X-8607915Y-3213615D01*
X-8602931Y-3143924D01*
X-8601336Y-3139868D01*
X-8525427Y-2956610D01*
X-8464779Y-2703994D01*
X-8444396Y-2445000D01*
X-8464779Y-2186006D01*
X-8525427Y-1933390D01*
X-8557088Y-1856953D01*
X-8557088Y-1856952D01*
X-8564557Y-1787483D01*
X-8533281Y-1725004D01*
X-8473192Y-1689352D01*
X-8442527Y-1685500D01*
X-4182473Y-1685500D01*
X-4115434Y-1705185D01*
G37*
G04 #@! TD.AperFunction*
G04 #@! TA.AperFunction,NonConductor*
G36*
X-15209162Y-10595185D02*
G01*
X-15163407Y-10647989D01*
X-15153463Y-10717147D01*
X-15172393Y-10767322D01*
X-15213579Y-10830360D01*
X-15310407Y-11051107D01*
X-15369580Y-11284773D01*
X-15369582Y-11284784D01*
X-15389485Y-11524993D01*
X-15389485Y-11525006D01*
X-15369582Y-11765215D01*
X-15369580Y-11765226D01*
X-15310407Y-11998892D01*
X-15213579Y-12219639D01*
X-15081741Y-12421431D01*
X-15081738Y-12421435D01*
X-14918480Y-12598780D01*
X-14918476Y-12598783D01*
X-14742822Y-12735500D01*
X-14728263Y-12746832D01*
X-14728261Y-12746833D01*
X-14728258Y-12746835D01*
X-14616518Y-12807305D01*
X-14516268Y-12861557D01*
X-14288282Y-12939825D01*
X-14050523Y-12979500D01*
X-14012493Y-12979500D01*
X-13945454Y-12999185D01*
X-13924812Y-13015819D01*
X-13676819Y-13263812D01*
X-13643334Y-13325135D01*
X-13640500Y-13351493D01*
X-13640500Y-13965044D01*
X-13660185Y-14032083D01*
X-13712989Y-14077838D01*
X-13774228Y-14088662D01*
X-13890000Y-14079551D01*
X-14141152Y-14099317D01*
X-14386111Y-14158126D01*
X-14618860Y-14254533D01*
X-14833654Y-14386160D01*
X-14833657Y-14386161D01*
X-15025224Y-14549776D01*
X-15188839Y-14741343D01*
X-15188840Y-14741346D01*
X-15320467Y-14956140D01*
X-15416874Y-15188889D01*
X-15475683Y-15433848D01*
X-15495449Y-15685001D01*
X-15491193Y-15739088D01*
X-15505558Y-15807465D01*
X-15527130Y-15836496D01*
X-15717819Y-16027186D01*
X-15779142Y-16060671D01*
X-15848833Y-16055687D01*
X-15904767Y-16013816D01*
X-15929184Y-15948351D01*
X-15929500Y-15939505D01*
X-15929500Y-11116493D01*
X-15909815Y-11049454D01*
X-15893181Y-11028812D01*
X-15476188Y-10611819D01*
X-15414865Y-10578334D01*
X-15388507Y-10575500D01*
X-15276201Y-10575500D01*
X-15209162Y-10595185D01*
G37*
G04 #@! TD.AperFunction*
G04 #@! TA.AperFunction,NonConductor*
G36*
X-4148878Y-15580185D02*
G01*
X-4103123Y-15632989D01*
X-4098875Y-15643546D01*
X-4075790Y-15709521D01*
X-4012951Y-15809528D01*
X-3993951Y-15876764D01*
X-4014319Y-15943600D01*
X-4067586Y-15988814D01*
X-4117945Y-15999500D01*
X-4875401Y-15999500D01*
X-4875421Y-15999499D01*
X-4881535Y-15999499D01*
X-5088465Y-15999499D01*
X-5088467Y-15999499D01*
X-5291415Y-16039868D01*
X-5291420Y-16039870D01*
X-5351927Y-16064932D01*
X-5421396Y-16072399D01*
X-5483875Y-16041124D01*
X-5519527Y-15981034D01*
X-5517032Y-15911209D01*
X-5487063Y-15862693D01*
X-5221185Y-15596816D01*
X-5159864Y-15563334D01*
X-5133506Y-15560500D01*
X-4215917Y-15560500D01*
X-4148878Y-15580185D01*
G37*
G04 #@! TD.AperFunction*
G04 #@! TA.AperFunction,NonConductor*
G36*
X-27778401Y-15141403D02*
G01*
X-27734591Y-15165550D01*
X-27613659Y-15268836D01*
X-27613657Y-15268837D01*
X-27613656Y-15268838D01*
X-27613654Y-15268839D01*
X-27398860Y-15400466D01*
X-27318258Y-15433852D01*
X-27166111Y-15496873D01*
X-26921148Y-15555683D01*
X-26670000Y-15575449D01*
X-26418852Y-15555683D01*
X-26204813Y-15504297D01*
X-26135031Y-15507788D01*
X-26078213Y-15548452D01*
X-26052400Y-15613378D01*
X-26065786Y-15681953D01*
X-26088185Y-15712552D01*
X-26518503Y-16142870D01*
X-26579826Y-16176355D01*
X-26615911Y-16178807D01*
X-26669999Y-16174551D01*
X-26670000Y-16174551D01*
X-26720230Y-16178504D01*
X-26921152Y-16194317D01*
X-27166111Y-16253126D01*
X-27398860Y-16349533D01*
X-27613654Y-16481160D01*
X-27613656Y-16481161D01*
X-27734589Y-16584448D01*
X-27798350Y-16613018D01*
X-27867436Y-16602581D01*
X-27919912Y-16556450D01*
X-27939117Y-16489271D01*
X-27928676Y-16440347D01*
X-27880843Y-16331300D01*
X-27823866Y-16106305D01*
X-27823865Y-16106297D01*
X-27804700Y-15875006D01*
X-27804700Y-15874993D01*
X-27823865Y-15643702D01*
X-27823867Y-15643691D01*
X-27880843Y-15418699D01*
X-27928676Y-15309652D01*
X-27937579Y-15240352D01*
X-27907602Y-15177240D01*
X-27848263Y-15140353D01*
X-27778401Y-15141403D01*
G37*
G04 #@! TD.AperFunction*
G04 #@! TA.AperFunction,NonConductor*
G36*
X-32926870Y-15056482D02*
G01*
X-32925765Y-15057756D01*
X-32885225Y-15105223D01*
X-32885224Y-15105224D01*
X-32693657Y-15268838D01*
X-32693654Y-15268839D01*
X-32478860Y-15400466D01*
X-32398258Y-15433852D01*
X-32246111Y-15496873D01*
X-32001148Y-15555683D01*
X-31750000Y-15575449D01*
X-31498852Y-15555683D01*
X-31253889Y-15496873D01*
X-31021141Y-15400466D01*
X-30806341Y-15268836D01*
X-30685409Y-15165550D01*
X-30621652Y-15136981D01*
X-30552566Y-15147418D01*
X-30500090Y-15193548D01*
X-30480884Y-15260727D01*
X-30491325Y-15309652D01*
X-30539157Y-15418699D01*
X-30596134Y-15643691D01*
X-30596136Y-15643702D01*
X-30615300Y-15874993D01*
X-30615300Y-15875006D01*
X-30596136Y-16106297D01*
X-30596134Y-16106308D01*
X-30539158Y-16331300D01*
X-30491325Y-16440347D01*
X-30482422Y-16509647D01*
X-30512399Y-16572759D01*
X-30571739Y-16609646D01*
X-30641600Y-16608596D01*
X-30685411Y-16584448D01*
X-30806341Y-16481164D01*
X-30806343Y-16481162D01*
X-30806345Y-16481161D01*
X-30806347Y-16481160D01*
X-31021141Y-16349533D01*
X-31253890Y-16253126D01*
X-31498849Y-16194317D01*
X-31750000Y-16174551D01*
X-32001152Y-16194317D01*
X-32246111Y-16253126D01*
X-32478860Y-16349533D01*
X-32693654Y-16481160D01*
X-32693657Y-16481161D01*
X-32885224Y-16644776D01*
X-32925710Y-16692179D01*
X-32984217Y-16730372D01*
X-33054085Y-16730870D01*
X-33113131Y-16693516D01*
X-33114290Y-16692179D01*
X-33139554Y-16662599D01*
X-33154776Y-16644776D01*
X-33281429Y-16536604D01*
X-33346344Y-16481161D01*
X-33346347Y-16481160D01*
X-33561141Y-16349533D01*
X-33793890Y-16253126D01*
X-34038849Y-16194317D01*
X-34290000Y-16174551D01*
X-34541152Y-16194317D01*
X-34786111Y-16253126D01*
X-35018860Y-16349533D01*
X-35233654Y-16481160D01*
X-35233657Y-16481161D01*
X-35425224Y-16644776D01*
X-35465710Y-16692179D01*
X-35524217Y-16730372D01*
X-35594085Y-16730870D01*
X-35653131Y-16693516D01*
X-35654290Y-16692179D01*
X-35679554Y-16662599D01*
X-35694776Y-16644776D01*
X-35821429Y-16536604D01*
X-35886344Y-16481161D01*
X-35886347Y-16481160D01*
X-36101141Y-16349533D01*
X-36333890Y-16253126D01*
X-36578849Y-16194317D01*
X-36830000Y-16174551D01*
X-37081152Y-16194317D01*
X-37326111Y-16253126D01*
X-37558860Y-16349533D01*
X-37773654Y-16481160D01*
X-37773656Y-16481161D01*
X-37894589Y-16584448D01*
X-37958350Y-16613018D01*
X-38027436Y-16602581D01*
X-38079912Y-16556450D01*
X-38099117Y-16489271D01*
X-38088676Y-16440347D01*
X-38040843Y-16331300D01*
X-37983866Y-16106305D01*
X-37983865Y-16106297D01*
X-37964700Y-15875006D01*
X-37964700Y-15874993D01*
X-37983865Y-15643702D01*
X-37983867Y-15643691D01*
X-38040843Y-15418699D01*
X-38088676Y-15309652D01*
X-38097579Y-15240352D01*
X-38067602Y-15177240D01*
X-38008263Y-15140353D01*
X-37938401Y-15141403D01*
X-37894591Y-15165550D01*
X-37773659Y-15268836D01*
X-37773657Y-15268837D01*
X-37773656Y-15268838D01*
X-37773654Y-15268839D01*
X-37558860Y-15400466D01*
X-37478258Y-15433852D01*
X-37326111Y-15496873D01*
X-37081148Y-15555683D01*
X-36830000Y-15575449D01*
X-36578852Y-15555683D01*
X-36333889Y-15496873D01*
X-36101141Y-15400466D01*
X-35886341Y-15268836D01*
X-35694776Y-15105224D01*
X-35654290Y-15057819D01*
X-35595784Y-15019627D01*
X-35525916Y-15019128D01*
X-35466870Y-15056482D01*
X-35465765Y-15057756D01*
X-35425225Y-15105223D01*
X-35425224Y-15105224D01*
X-35233657Y-15268838D01*
X-35233654Y-15268839D01*
X-35018860Y-15400466D01*
X-34938258Y-15433852D01*
X-34786111Y-15496873D01*
X-34541148Y-15555683D01*
X-34290000Y-15575449D01*
X-34038852Y-15555683D01*
X-33793889Y-15496873D01*
X-33561141Y-15400466D01*
X-33346341Y-15268836D01*
X-33154776Y-15105224D01*
X-33114290Y-15057819D01*
X-33055784Y-15019627D01*
X-32985916Y-15019128D01*
X-32926870Y-15056482D01*
G37*
G04 #@! TD.AperFunction*
G04 #@! TA.AperFunction,NonConductor*
G36*
X-43086870Y-15056482D02*
G01*
X-43085765Y-15057756D01*
X-43045224Y-15105224D01*
X-43003968Y-15140460D01*
X-42965776Y-15198965D01*
X-42960500Y-15234749D01*
X-42960500Y-16515249D01*
X-42980185Y-16582288D01*
X-43003968Y-16609539D01*
X-43045218Y-16644770D01*
X-43045224Y-16644776D01*
X-43085710Y-16692179D01*
X-43144217Y-16730372D01*
X-43214085Y-16730870D01*
X-43273131Y-16693516D01*
X-43274290Y-16692179D01*
X-43299554Y-16662599D01*
X-43314776Y-16644776D01*
X-43314783Y-16644770D01*
X-43356032Y-16609539D01*
X-43394225Y-16551031D01*
X-43399500Y-16515249D01*
X-43399500Y-15234749D01*
X-43379815Y-15167710D01*
X-43356035Y-15140462D01*
X-43314776Y-15105224D01*
X-43274290Y-15057819D01*
X-43215784Y-15019627D01*
X-43145916Y-15019128D01*
X-43086870Y-15056482D01*
G37*
G04 #@! TD.AperFunction*
G04 #@! TA.AperFunction,NonConductor*
G36*
X-45626870Y-15056482D02*
G01*
X-45625765Y-15057756D01*
X-45585224Y-15105224D01*
X-45543968Y-15140460D01*
X-45505776Y-15198965D01*
X-45500500Y-15234749D01*
X-45500500Y-16515249D01*
X-45520185Y-16582288D01*
X-45543968Y-16609539D01*
X-45585218Y-16644770D01*
X-45585224Y-16644776D01*
X-45625710Y-16692179D01*
X-45684217Y-16730372D01*
X-45754085Y-16730870D01*
X-45813131Y-16693516D01*
X-45814290Y-16692179D01*
X-45839554Y-16662599D01*
X-45854776Y-16644776D01*
X-45854783Y-16644770D01*
X-45896032Y-16609539D01*
X-45934225Y-16551031D01*
X-45939500Y-16515249D01*
X-45939500Y-15234749D01*
X-45919815Y-15167710D01*
X-45896035Y-15140462D01*
X-45854776Y-15105224D01*
X-45814290Y-15057819D01*
X-45755784Y-15019627D01*
X-45685916Y-15019128D01*
X-45626870Y-15056482D01*
G37*
G04 #@! TD.AperFunction*
G04 #@! TA.AperFunction,NonConductor*
G36*
X-48166870Y-15056482D02*
G01*
X-48165765Y-15057756D01*
X-48125224Y-15105224D01*
X-48083968Y-15140460D01*
X-48045776Y-15198965D01*
X-48040500Y-15234749D01*
X-48040500Y-16515249D01*
X-48060185Y-16582288D01*
X-48083968Y-16609539D01*
X-48125218Y-16644770D01*
X-48125224Y-16644776D01*
X-48165710Y-16692179D01*
X-48224217Y-16730372D01*
X-48294085Y-16730870D01*
X-48353131Y-16693516D01*
X-48354290Y-16692179D01*
X-48379554Y-16662599D01*
X-48394776Y-16644776D01*
X-48521429Y-16536604D01*
X-48586344Y-16481161D01*
X-48586347Y-16481160D01*
X-48801142Y-16349533D01*
X-48801145Y-16349531D01*
X-48979129Y-16275809D01*
X-49033533Y-16231968D01*
X-49055598Y-16165674D01*
X-49038319Y-16097975D01*
X-49019358Y-16073567D01*
X-48985659Y-16039868D01*
X-48791699Y-15845909D01*
X-48790944Y-15844780D01*
X-48687678Y-15690231D01*
X-48616027Y-15517251D01*
X-48588444Y-15378580D01*
X-48579500Y-15333617D01*
X-48579500Y-15320157D01*
X-48559815Y-15253118D01*
X-48536035Y-15225869D01*
X-48394776Y-15105224D01*
X-48354290Y-15057819D01*
X-48295784Y-15019627D01*
X-48225916Y-15019128D01*
X-48166870Y-15056482D01*
G37*
G04 #@! TD.AperFunction*
G04 #@! TA.AperFunction,NonConductor*
G36*
X-3763466Y-18120185D02*
G01*
X-3736215Y-18143968D01*
X-3670689Y-18220689D01*
X-3664807Y-18225712D01*
X-3626617Y-18284219D01*
X-3626119Y-18354087D01*
X-3663474Y-18413132D01*
X-3664744Y-18414232D01*
X-3670689Y-18419311D01*
X-3670691Y-18419313D01*
X-3736760Y-18496670D01*
X-3795267Y-18534863D01*
X-3812498Y-18538274D01*
X-3812490Y-18538310D01*
X-4021415Y-18579868D01*
X-4021425Y-18579871D01*
X-4212592Y-18659054D01*
X-4212605Y-18659061D01*
X-4384655Y-18774022D01*
X-4384659Y-18774025D01*
X-4452819Y-18842186D01*
X-4514142Y-18875671D01*
X-4583834Y-18870687D01*
X-4639767Y-18828815D01*
X-4664184Y-18763351D01*
X-4664500Y-18754505D01*
X-4664500Y-18266494D01*
X-4644815Y-18199455D01*
X-4628180Y-18178812D01*
X-4586185Y-18136818D01*
X-4524862Y-18103333D01*
X-4498505Y-18100500D01*
X-3830505Y-18100500D01*
X-3763466Y-18120185D01*
G37*
G04 #@! TD.AperFunction*
G04 #@! TA.AperFunction,NonConductor*
G36*
X-18087461Y-18850185D02*
G01*
X-18041706Y-18902989D01*
X-18030500Y-18954500D01*
X-18030500Y-19033506D01*
X-18050185Y-19100545D01*
X-18066815Y-19121182D01*
X-18178814Y-19233182D01*
X-18240134Y-19266666D01*
X-18266493Y-19269500D01*
X-20533464Y-19269500D01*
X-20600503Y-19249815D01*
X-20646258Y-19197011D01*
X-20656202Y-19127853D01*
X-20627177Y-19064297D01*
X-20613995Y-19051210D01*
X-20527937Y-18977709D01*
X-20454776Y-18915224D01*
X-20419540Y-18873967D01*
X-20361035Y-18835776D01*
X-20325251Y-18830500D01*
X-18154500Y-18830500D01*
X-18087461Y-18850185D01*
G37*
G04 #@! TD.AperFunction*
G04 #@! TA.AperFunction,NonConductor*
G36*
X-22766870Y-18866482D02*
G01*
X-22765765Y-18867756D01*
X-22725224Y-18915224D01*
X-22725221Y-18915227D01*
X-22566005Y-19051210D01*
X-22527811Y-19109716D01*
X-22527312Y-19179584D01*
X-22564666Y-19238631D01*
X-22628013Y-19268109D01*
X-22646536Y-19269500D01*
X-23073464Y-19269500D01*
X-23140503Y-19249815D01*
X-23186258Y-19197011D01*
X-23196202Y-19127853D01*
X-23167177Y-19064297D01*
X-23153995Y-19051210D01*
X-23067937Y-18977709D01*
X-22994776Y-18915224D01*
X-22954290Y-18867819D01*
X-22895784Y-18829627D01*
X-22825916Y-18829128D01*
X-22766870Y-18866482D01*
G37*
G04 #@! TD.AperFunction*
G04 #@! TA.AperFunction,NonConductor*
G36*
X-25306870Y-18866482D02*
G01*
X-25305765Y-18867756D01*
X-25265224Y-18915224D01*
X-25265221Y-18915227D01*
X-25106005Y-19051210D01*
X-25067811Y-19109716D01*
X-25067312Y-19179584D01*
X-25104666Y-19238631D01*
X-25168013Y-19268109D01*
X-25186536Y-19269500D01*
X-25613464Y-19269500D01*
X-25680503Y-19249815D01*
X-25726258Y-19197011D01*
X-25736202Y-19127853D01*
X-25707177Y-19064297D01*
X-25693995Y-19051210D01*
X-25607937Y-18977709D01*
X-25534776Y-18915224D01*
X-25494290Y-18867819D01*
X-25435784Y-18829627D01*
X-25365916Y-18829128D01*
X-25306870Y-18866482D01*
G37*
G04 #@! TD.AperFunction*
G04 #@! TA.AperFunction,NonConductor*
G36*
X-27846870Y-18866482D02*
G01*
X-27845765Y-18867756D01*
X-27805224Y-18915224D01*
X-27805221Y-18915227D01*
X-27646005Y-19051210D01*
X-27607811Y-19109716D01*
X-27607312Y-19179584D01*
X-27644666Y-19238631D01*
X-27708013Y-19268109D01*
X-27726536Y-19269500D01*
X-28153464Y-19269500D01*
X-28220503Y-19249815D01*
X-28266258Y-19197011D01*
X-28276202Y-19127853D01*
X-28247177Y-19064297D01*
X-28233995Y-19051210D01*
X-28147937Y-18977709D01*
X-28074776Y-18915224D01*
X-28034290Y-18867819D01*
X-27975784Y-18829627D01*
X-27905916Y-18829128D01*
X-27846870Y-18866482D01*
G37*
G04 #@! TD.AperFunction*
G04 #@! TA.AperFunction,NonConductor*
G36*
X-30386870Y-18866482D02*
G01*
X-30385765Y-18867756D01*
X-30345224Y-18915224D01*
X-30345221Y-18915227D01*
X-30186005Y-19051210D01*
X-30147811Y-19109716D01*
X-30147312Y-19179584D01*
X-30184666Y-19238631D01*
X-30248013Y-19268109D01*
X-30266536Y-19269500D01*
X-30693464Y-19269500D01*
X-30760503Y-19249815D01*
X-30806258Y-19197011D01*
X-30816202Y-19127853D01*
X-30787177Y-19064297D01*
X-30773995Y-19051210D01*
X-30687937Y-18977709D01*
X-30614776Y-18915224D01*
X-30574290Y-18867819D01*
X-30515784Y-18829627D01*
X-30445916Y-18829128D01*
X-30386870Y-18866482D01*
G37*
G04 #@! TD.AperFunction*
G04 #@! TA.AperFunction,NonConductor*
G36*
X-32926870Y-18866482D02*
G01*
X-32925765Y-18867756D01*
X-32885224Y-18915224D01*
X-32885221Y-18915227D01*
X-32726005Y-19051210D01*
X-32687811Y-19109716D01*
X-32687312Y-19179584D01*
X-32724666Y-19238631D01*
X-32788013Y-19268109D01*
X-32806536Y-19269500D01*
X-33233464Y-19269500D01*
X-33300503Y-19249815D01*
X-33346258Y-19197011D01*
X-33356202Y-19127853D01*
X-33327177Y-19064297D01*
X-33313995Y-19051210D01*
X-33227937Y-18977709D01*
X-33154776Y-18915224D01*
X-33114290Y-18867819D01*
X-33055784Y-18829627D01*
X-32985916Y-18829128D01*
X-32926870Y-18866482D01*
G37*
G04 #@! TD.AperFunction*
G04 #@! TA.AperFunction,NonConductor*
G36*
X-35466870Y-18866482D02*
G01*
X-35465765Y-18867756D01*
X-35425224Y-18915224D01*
X-35425221Y-18915227D01*
X-35266005Y-19051210D01*
X-35227811Y-19109716D01*
X-35227312Y-19179584D01*
X-35264666Y-19238631D01*
X-35328013Y-19268109D01*
X-35346536Y-19269500D01*
X-35773464Y-19269500D01*
X-35840503Y-19249815D01*
X-35886258Y-19197011D01*
X-35896202Y-19127853D01*
X-35867177Y-19064297D01*
X-35853995Y-19051210D01*
X-35767937Y-18977709D01*
X-35694776Y-18915224D01*
X-35654290Y-18867819D01*
X-35595784Y-18829627D01*
X-35525916Y-18829128D01*
X-35466870Y-18866482D01*
G37*
G04 #@! TD.AperFunction*
G04 #@! TA.AperFunction,NonConductor*
G36*
X-38006870Y-18866482D02*
G01*
X-38005765Y-18867756D01*
X-37965224Y-18915224D01*
X-37965221Y-18915227D01*
X-37806005Y-19051210D01*
X-37767811Y-19109716D01*
X-37767312Y-19179584D01*
X-37804666Y-19238631D01*
X-37868013Y-19268109D01*
X-37886536Y-19269500D01*
X-38313464Y-19269500D01*
X-38380503Y-19249815D01*
X-38426258Y-19197011D01*
X-38436202Y-19127853D01*
X-38407177Y-19064297D01*
X-38393995Y-19051210D01*
X-38307937Y-18977709D01*
X-38234776Y-18915224D01*
X-38194290Y-18867819D01*
X-38135784Y-18829627D01*
X-38065916Y-18829128D01*
X-38006870Y-18866482D01*
G37*
G04 #@! TD.AperFunction*
G04 #@! TA.AperFunction,NonConductor*
G36*
X-40546870Y-18866482D02*
G01*
X-40545765Y-18867756D01*
X-40505224Y-18915224D01*
X-40505221Y-18915227D01*
X-40346005Y-19051210D01*
X-40307811Y-19109716D01*
X-40307312Y-19179584D01*
X-40344666Y-19238631D01*
X-40408013Y-19268109D01*
X-40426536Y-19269500D01*
X-40853464Y-19269500D01*
X-40920503Y-19249815D01*
X-40966258Y-19197011D01*
X-40976202Y-19127853D01*
X-40947177Y-19064297D01*
X-40933995Y-19051210D01*
X-40847937Y-18977709D01*
X-40774776Y-18915224D01*
X-40734290Y-18867819D01*
X-40675784Y-18829627D01*
X-40605916Y-18829128D01*
X-40546870Y-18866482D01*
G37*
G04 #@! TD.AperFunction*
G04 #@! TA.AperFunction,NonConductor*
G36*
X-43086870Y-18866482D02*
G01*
X-43085765Y-18867756D01*
X-43045224Y-18915224D01*
X-43045221Y-18915227D01*
X-42886005Y-19051210D01*
X-42847811Y-19109716D01*
X-42847312Y-19179584D01*
X-42884666Y-19238631D01*
X-42948013Y-19268109D01*
X-42966536Y-19269500D01*
X-43393464Y-19269500D01*
X-43460503Y-19249815D01*
X-43506258Y-19197011D01*
X-43516202Y-19127853D01*
X-43487177Y-19064297D01*
X-43473995Y-19051210D01*
X-43387937Y-18977709D01*
X-43314776Y-18915224D01*
X-43274290Y-18867819D01*
X-43215784Y-18829627D01*
X-43145916Y-18829128D01*
X-43086870Y-18866482D01*
G37*
G04 #@! TD.AperFunction*
G04 #@! TA.AperFunction,NonConductor*
G36*
X-45626870Y-18866482D02*
G01*
X-45625765Y-18867756D01*
X-45585224Y-18915224D01*
X-45585221Y-18915227D01*
X-45426005Y-19051210D01*
X-45387811Y-19109716D01*
X-45387312Y-19179584D01*
X-45424666Y-19238631D01*
X-45488013Y-19268109D01*
X-45506536Y-19269500D01*
X-45933464Y-19269500D01*
X-46000503Y-19249815D01*
X-46046258Y-19197011D01*
X-46056202Y-19127853D01*
X-46027177Y-19064297D01*
X-46013995Y-19051210D01*
X-45927937Y-18977709D01*
X-45854776Y-18915224D01*
X-45814290Y-18867819D01*
X-45755784Y-18829627D01*
X-45685916Y-18829128D01*
X-45626870Y-18866482D01*
G37*
G04 #@! TD.AperFunction*
G04 #@! TA.AperFunction,NonConductor*
G36*
X-48166870Y-18866482D02*
G01*
X-48165765Y-18867756D01*
X-48125224Y-18915224D01*
X-48125221Y-18915227D01*
X-47966005Y-19051210D01*
X-47927811Y-19109716D01*
X-47927312Y-19179584D01*
X-47964666Y-19238631D01*
X-48028013Y-19268109D01*
X-48046536Y-19269500D01*
X-48473464Y-19269500D01*
X-48540503Y-19249815D01*
X-48586258Y-19197011D01*
X-48596202Y-19127853D01*
X-48567177Y-19064297D01*
X-48553995Y-19051210D01*
X-48467937Y-18977709D01*
X-48394776Y-18915224D01*
X-48354290Y-18867819D01*
X-48295784Y-18829627D01*
X-48225916Y-18829128D01*
X-48166870Y-18866482D01*
G37*
G04 #@! TD.AperFunction*
G04 #@! TA.AperFunction,NonConductor*
G36*
X-53246870Y-18866482D02*
G01*
X-53245765Y-18867756D01*
X-53205225Y-18915223D01*
X-53205224Y-18915224D01*
X-53013657Y-19078838D01*
X-53013654Y-19078839D01*
X-52798860Y-19210466D01*
X-52703862Y-19249815D01*
X-52566111Y-19306873D01*
X-52321148Y-19365683D01*
X-52070000Y-19385449D01*
X-51970687Y-19377632D01*
X-51902313Y-19391996D01*
X-51852555Y-19441047D01*
X-51837216Y-19509212D01*
X-51839343Y-19525441D01*
X-51850500Y-19581530D01*
X-51850500Y-19788469D01*
X-51810132Y-19991412D01*
X-51810130Y-19991420D01*
X-51730943Y-20182595D01*
X-51730938Y-20182604D01*
X-51621353Y-20346609D01*
X-51600475Y-20413287D01*
X-51618960Y-20480667D01*
X-51670938Y-20527357D01*
X-51724455Y-20539500D01*
X-54106958Y-20539500D01*
X-54173997Y-20519815D01*
X-54183120Y-20513353D01*
X-54299830Y-20422514D01*
X-54340643Y-20365804D01*
X-54344318Y-20296031D01*
X-54311349Y-20236980D01*
X-54065788Y-19991420D01*
X-53794023Y-19719655D01*
X-53679058Y-19547598D01*
X-53599870Y-19356420D01*
X-53582580Y-19269500D01*
X-53559499Y-19153467D01*
X-53559499Y-19044748D01*
X-53539814Y-18977709D01*
X-53516034Y-18950461D01*
X-53474776Y-18915224D01*
X-53434290Y-18867819D01*
X-53375784Y-18829627D01*
X-53305916Y-18829128D01*
X-53246870Y-18866482D01*
G37*
G04 #@! TD.AperFunction*
G04 #@! TA.AperFunction,NonConductor*
G36*
X-57468611Y-22716074D02*
G01*
X-57422879Y-22757113D01*
X-57330977Y-22894655D01*
X-57184655Y-23040977D01*
X-57184654Y-23040977D01*
X-57177587Y-23048044D01*
X-57177588Y-23048044D01*
X-57177584Y-23048047D01*
X-56549659Y-23675974D01*
X-56549655Y-23675977D01*
X-56377602Y-23790940D01*
X-56377600Y-23790940D01*
X-56377598Y-23790942D01*
X-56242415Y-23846936D01*
X-56186420Y-23870130D01*
X-56152747Y-23876827D01*
X-56011679Y-23904888D01*
X-55983466Y-23910501D01*
X-55983465Y-23910501D01*
X-55770420Y-23910501D01*
X-55770400Y-23910500D01*
X-41560719Y-23910500D01*
X-41493680Y-23930185D01*
X-41447925Y-23982989D01*
X-41437981Y-24052147D01*
X-41446158Y-24081953D01*
X-41531874Y-24288889D01*
X-41590683Y-24533848D01*
X-41610449Y-24785000D01*
X-41590683Y-25036151D01*
X-41531874Y-25281110D01*
X-41435467Y-25513859D01*
X-41303840Y-25728653D01*
X-41303839Y-25728655D01*
X-41303838Y-25728657D01*
X-41303836Y-25728659D01*
X-41174605Y-25879970D01*
X-41146034Y-25943730D01*
X-41156471Y-26012815D01*
X-41202602Y-26065291D01*
X-41268895Y-26084500D01*
X-59000500Y-26084500D01*
X-59067539Y-26064815D01*
X-59113294Y-26012011D01*
X-59124500Y-25960500D01*
X-59124500Y-23002547D01*
X-59104815Y-22935508D01*
X-59052011Y-22889753D01*
X-58982853Y-22879809D01*
X-58960243Y-22885264D01*
X-58845792Y-22924555D01*
X-58764985Y-22952297D01*
X-58764983Y-22952297D01*
X-58764981Y-22952298D01*
X-58536049Y-22990500D01*
X-58536048Y-22990500D01*
X-58303952Y-22990500D01*
X-58303951Y-22990500D01*
X-58075019Y-22952298D01*
X-57855497Y-22876936D01*
X-57651374Y-22766470D01*
X-57602142Y-22728150D01*
X-57537151Y-22702508D01*
X-57468611Y-22716074D01*
G37*
G04 #@! TD.AperFunction*
G04 #@! TA.AperFunction,NonConductor*
G36*
X-12521166Y-25539310D02*
G01*
X-12465233Y-25581182D01*
X-12440816Y-25646646D01*
X-12440500Y-25655492D01*
X-12440500Y-26087286D01*
X-12460185Y-26154325D01*
X-12473270Y-26171269D01*
X-12568770Y-26275010D01*
X-12628657Y-26311000D01*
X-12698495Y-26308900D01*
X-12751230Y-26275010D01*
X-12846730Y-26171269D01*
X-12877652Y-26108614D01*
X-12879500Y-26087286D01*
X-12879500Y-25846492D01*
X-12859815Y-25779453D01*
X-12843185Y-25758815D01*
X-12652180Y-25567810D01*
X-12590858Y-25534326D01*
X-12521166Y-25539310D01*
G37*
G04 #@! TD.AperFunction*
G04 #@! TA.AperFunction,NonConductor*
G36*
X-6296129Y-16693873D02*
G01*
X-6260476Y-16753962D01*
X-6262969Y-16823787D01*
X-6292942Y-16872310D01*
X-6384653Y-16964021D01*
X-6384655Y-16964023D01*
X-6457816Y-17037184D01*
X-6530977Y-17110344D01*
X-6645942Y-17282403D01*
X-6725130Y-17473579D01*
X-6725132Y-17473587D01*
X-6765500Y-17676530D01*
X-6765500Y-22320500D01*
X-6785185Y-22387539D01*
X-6837989Y-22433294D01*
X-6889500Y-22444500D01*
X-12168470Y-22444500D01*
X-12371413Y-22484868D01*
X-12371421Y-22484870D01*
X-12562597Y-22564058D01*
X-12734656Y-22679023D01*
X-12771706Y-22716074D01*
X-12880977Y-22825345D01*
X-12880980Y-22825348D01*
X-14599652Y-24544020D01*
X-14599655Y-24544023D01*
X-14672816Y-24617184D01*
X-14745977Y-24690344D01*
X-14860942Y-24862403D01*
X-14940130Y-25053579D01*
X-14940132Y-25053587D01*
X-14980500Y-25256530D01*
X-14980500Y-26087286D01*
X-15000185Y-26154325D01*
X-15013270Y-26171269D01*
X-15118166Y-26285217D01*
X-15254174Y-26493393D01*
X-15354064Y-26721118D01*
X-15415108Y-26962175D01*
X-15415110Y-26962187D01*
X-15435643Y-27209994D01*
X-15435643Y-27210000D01*
X-15430849Y-27267853D01*
X-15430235Y-27275260D01*
X-15444317Y-27343696D01*
X-15493162Y-27393655D01*
X-15553812Y-27409500D01*
X-20496781Y-27409500D01*
X-20563820Y-27389815D01*
X-20609575Y-27337011D01*
X-20620399Y-27275771D01*
X-20619776Y-27267853D01*
X-20619551Y-27265000D01*
X-20639317Y-27013852D01*
X-20698127Y-26768889D01*
X-20717914Y-26721118D01*
X-20794534Y-26536140D01*
X-20926161Y-26321346D01*
X-20926162Y-26321343D01*
X-21089776Y-26129776D01*
X-21090344Y-26129291D01*
X-21113764Y-26109288D01*
X-21151955Y-26050784D01*
X-21152455Y-25980916D01*
X-21115101Y-25921870D01*
X-21113831Y-25920768D01*
X-21089776Y-25900224D01*
X-20926164Y-25708659D01*
X-20794534Y-25493859D01*
X-20698127Y-25261111D01*
X-20639317Y-25016148D01*
X-20619551Y-24765000D01*
X-20639317Y-24513852D01*
X-20698127Y-24268889D01*
X-20769677Y-24096151D01*
X-20775558Y-24081953D01*
X-20783027Y-24012483D01*
X-20751752Y-23950004D01*
X-20691663Y-23914352D01*
X-20660997Y-23910500D01*
X-15136534Y-23910500D01*
X-15136533Y-23910499D01*
X-14933580Y-23870130D01*
X-14742402Y-23790941D01*
X-14703909Y-23765221D01*
X-14570345Y-23675977D01*
X-14424023Y-23529655D01*
X-14424022Y-23529653D01*
X-14416956Y-23522587D01*
X-14416953Y-23522583D01*
X-11951565Y-21057194D01*
X-11890244Y-21023711D01*
X-11823625Y-21027595D01*
X-11759614Y-21049571D01*
X-11514335Y-21090500D01*
X-11265665Y-21090500D01*
X-11020386Y-21049571D01*
X-10785190Y-20968828D01*
X-10566491Y-20850474D01*
X-10370256Y-20697738D01*
X-10211229Y-20524988D01*
X-10151343Y-20488999D01*
X-10081505Y-20491099D01*
X-10028772Y-20524988D01*
X-9869744Y-20697738D01*
X-9673509Y-20850474D01*
X-9454810Y-20968828D01*
X-9219614Y-21049571D01*
X-8974335Y-21090500D01*
X-8725665Y-21090500D01*
X-8480386Y-21049571D01*
X-8245190Y-20968828D01*
X-8026491Y-20850474D01*
X-7830256Y-20697738D01*
X-7661836Y-20514785D01*
X-7525827Y-20306607D01*
X-7425937Y-20078881D01*
X-7364892Y-19837821D01*
X-7364891Y-19837812D01*
X-7344357Y-19590005D01*
X-7344357Y-19589994D01*
X-7364891Y-19342187D01*
X-7364893Y-19342175D01*
X-7425937Y-19101118D01*
X-7525827Y-18873393D01*
X-7530342Y-18866482D01*
X-7661836Y-18665215D01*
X-7766731Y-18551268D01*
X-7797652Y-18488614D01*
X-7799500Y-18467286D01*
X-7799500Y-16915586D01*
X-7779815Y-16848547D01*
X-7758159Y-16823733D01*
X-7758222Y-16823670D01*
X-7757283Y-16822730D01*
X-7756029Y-16821293D01*
X-7754776Y-16820224D01*
X-7719540Y-16778967D01*
X-7661035Y-16740776D01*
X-7625251Y-16735500D01*
X-6691534Y-16735500D01*
X-6691533Y-16735499D01*
X-6488580Y-16695130D01*
X-6428075Y-16670067D01*
X-6358608Y-16662599D01*
X-6296129Y-16693873D01*
G37*
G04 #@! TD.AperFunction*
G04 #@! TA.AperFunction,NonConductor*
G36*
X-23422710Y-25835185D02*
G01*
X-23395463Y-25858965D01*
X-23378377Y-25878969D01*
X-23360223Y-25900225D01*
X-23336237Y-25920711D01*
X-23298045Y-25979218D01*
X-23297547Y-26049086D01*
X-23334901Y-26108132D01*
X-23336237Y-26109289D01*
X-23360224Y-26129775D01*
X-23523839Y-26321343D01*
X-23523840Y-26321346D01*
X-23655467Y-26536140D01*
X-23751874Y-26768889D01*
X-23810683Y-27013848D01*
X-23830449Y-27264999D01*
X-23829601Y-27275771D01*
X-23843965Y-27344148D01*
X-23893016Y-27393905D01*
X-23953219Y-27409500D01*
X-27460805Y-27409500D01*
X-27527844Y-27389815D01*
X-27573599Y-27337011D01*
X-27583543Y-27267853D01*
X-27554518Y-27204297D01*
X-27541337Y-27191210D01*
X-27475241Y-27134759D01*
X-27316741Y-26949179D01*
X-27189223Y-26741089D01*
X-27095828Y-26515612D01*
X-27038854Y-26278302D01*
X-27035214Y-26232050D01*
X-27010331Y-26166762D01*
X-26954100Y-26125290D01*
X-26951859Y-26124497D01*
X-26886843Y-26102176D01*
X-26740497Y-26051936D01*
X-26536374Y-25941470D01*
X-26535396Y-25940709D01*
X-26408120Y-25841647D01*
X-26343126Y-25816004D01*
X-26331958Y-25815500D01*
X-23489749Y-25815500D01*
X-23422710Y-25835185D01*
G37*
G04 #@! TD.AperFunction*
G04 #@! TA.AperFunction,NonConductor*
G36*
X-28581515Y-23930185D02*
G01*
X-28535760Y-23982989D01*
X-28525816Y-24052147D01*
X-28539498Y-24093516D01*
X-28540926Y-24096154D01*
X-28634156Y-24308695D01*
X-28634158Y-24308701D01*
X-28657717Y-24401733D01*
X-28693257Y-24461889D01*
X-28755677Y-24493280D01*
X-28768190Y-24494909D01*
X-28782310Y-24496021D01*
X-28818304Y-24498854D01*
X-29055620Y-24555830D01*
X-29281090Y-24649222D01*
X-29489174Y-24776737D01*
X-29489177Y-24776738D01*
X-29674759Y-24935241D01*
X-29833262Y-25120823D01*
X-29833263Y-25120826D01*
X-29960778Y-25328910D01*
X-30054170Y-25554380D01*
X-30111147Y-25791702D01*
X-30130294Y-26035000D01*
X-30111147Y-26278297D01*
X-30111147Y-26278300D01*
X-30111146Y-26278302D01*
X-30100813Y-26321343D01*
X-30054170Y-26515619D01*
X-29960778Y-26741089D01*
X-29833263Y-26949173D01*
X-29833262Y-26949176D01*
X-29822156Y-26962179D01*
X-29674759Y-27134759D01*
X-29608663Y-27191210D01*
X-29570470Y-27249717D01*
X-29569972Y-27319585D01*
X-29607325Y-27378631D01*
X-29670672Y-27408109D01*
X-29689195Y-27409500D01*
X-32360805Y-27409500D01*
X-32427844Y-27389815D01*
X-32473599Y-27337011D01*
X-32483543Y-27267853D01*
X-32454518Y-27204297D01*
X-32441337Y-27191210D01*
X-32375241Y-27134759D01*
X-32216741Y-26949179D01*
X-32089223Y-26741089D01*
X-31995828Y-26515612D01*
X-31938854Y-26278302D01*
X-31919706Y-26035000D01*
X-31938854Y-25791698D01*
X-31995828Y-25554388D01*
X-31995831Y-25554380D01*
X-32089223Y-25328910D01*
X-32216738Y-25120826D01*
X-32216739Y-25120823D01*
X-32289056Y-25036151D01*
X-32375241Y-24935241D01*
X-32551151Y-24785000D01*
X-32560824Y-24776738D01*
X-32560827Y-24776737D01*
X-32768911Y-24649222D01*
X-32994382Y-24555830D01*
X-32994379Y-24555830D01*
X-33231697Y-24498854D01*
X-33237612Y-24498388D01*
X-33266571Y-24496109D01*
X-33331857Y-24471225D01*
X-33373328Y-24414994D01*
X-33377045Y-24402932D01*
X-33390576Y-24349500D01*
X-33395843Y-24328700D01*
X-33489076Y-24116151D01*
X-33498112Y-24102320D01*
X-33518299Y-24035430D01*
X-33499117Y-23968245D01*
X-33446658Y-23922095D01*
X-33394302Y-23910500D01*
X-28648554Y-23910500D01*
X-28581515Y-23930185D01*
G37*
G04 #@! TD.AperFunction*
G04 #@! TA.AperFunction,NonConductor*
G36*
X-35631003Y-25855185D02*
G01*
X-35621880Y-25861647D01*
X-35493635Y-25961464D01*
X-35493629Y-25961468D01*
X-35493626Y-25961470D01*
X-35398749Y-26012815D01*
X-35302662Y-26064815D01*
X-35289503Y-26071936D01*
X-35252905Y-26084500D01*
X-35097079Y-26137996D01*
X-35040064Y-26178382D01*
X-35013933Y-26243181D01*
X-35013726Y-26245527D01*
X-35011146Y-26278302D01*
X-34967914Y-26458372D01*
X-34954170Y-26515619D01*
X-34860778Y-26741089D01*
X-34733263Y-26949173D01*
X-34733262Y-26949176D01*
X-34722156Y-26962179D01*
X-34574759Y-27134759D01*
X-34508663Y-27191210D01*
X-34470470Y-27249717D01*
X-34469972Y-27319585D01*
X-34507325Y-27378631D01*
X-34570672Y-27408109D01*
X-34589195Y-27409500D01*
X-38131374Y-27409500D01*
X-38198413Y-27389815D01*
X-38219055Y-27373181D01*
X-38375090Y-27217146D01*
X-38408575Y-27155823D01*
X-38411027Y-27139193D01*
X-38419317Y-27033854D01*
X-38439207Y-26951006D01*
X-38478127Y-26788889D01*
X-38506198Y-26721119D01*
X-38574534Y-26556140D01*
X-38706161Y-26341346D01*
X-38706162Y-26341343D01*
X-38869776Y-26149776D01*
X-38893764Y-26129288D01*
X-38931955Y-26070784D01*
X-38932455Y-26000916D01*
X-38895101Y-25941870D01*
X-38893831Y-25940768D01*
X-38869776Y-25920224D01*
X-38834540Y-25878967D01*
X-38776035Y-25840776D01*
X-38740251Y-25835500D01*
X-35698042Y-25835500D01*
X-35631003Y-25855185D01*
G37*
G04 #@! TD.AperFunction*
G04 #@! TA.AperFunction,NonConductor*
G36*
X-540004Y-23082490D02*
G01*
X-504352Y-23142579D01*
X-500500Y-23173245D01*
X-500500Y-28585500D01*
X-520185Y-28652539D01*
X-572989Y-28698294D01*
X-624500Y-28709500D01*
X-1378183Y-28709500D01*
X-1445222Y-28689815D01*
X-1490977Y-28637011D01*
X-1500921Y-28567853D01*
X-1471896Y-28504297D01*
X-1458720Y-28491214D01*
X-1329311Y-28380689D01*
X-1160588Y-28183140D01*
X-1024846Y-27961628D01*
X-925427Y-27721610D01*
X-864779Y-27468994D01*
X-844396Y-27210000D01*
X-864779Y-26951006D01*
X-925427Y-26698390D01*
X-1024846Y-26458372D01*
X-1160588Y-26236860D01*
X-1164696Y-26232050D01*
X-1269790Y-26109000D01*
X-1298361Y-26045239D01*
X-1299500Y-26028469D01*
X-1299500Y-25851530D01*
X-1279815Y-25784491D01*
X-1269790Y-25770998D01*
X-1233629Y-25728659D01*
X-1160588Y-25643140D01*
X-1024846Y-25421628D01*
X-925427Y-25181610D01*
X-864779Y-24928994D01*
X-844396Y-24670000D01*
X-864779Y-24411006D01*
X-925427Y-24158390D01*
X-1004188Y-23968245D01*
X-1024844Y-23918376D01*
X-1027310Y-23914352D01*
X-1160588Y-23696860D01*
X-1329311Y-23499311D01*
X-1335191Y-23494289D01*
X-1373383Y-23435787D01*
X-1373884Y-23365919D01*
X-1336532Y-23306872D01*
X-1335298Y-23305802D01*
X-1329311Y-23300689D01*
X-1263785Y-23223968D01*
X-1205278Y-23185775D01*
X-1169495Y-23180500D01*
X-1071534Y-23180500D01*
X-1071533Y-23180499D01*
X-868580Y-23140130D01*
X-677402Y-23060941D01*
X-677403Y-23060941D01*
X-671953Y-23058684D01*
X-602484Y-23051215D01*
X-540004Y-23082490D01*
G37*
G04 #@! TD.AperFunction*
G04 #@! TA.AperFunction,NonConductor*
G36*
X-3614492Y-28430185D02*
G01*
X-3600999Y-28440210D01*
X-3541286Y-28491210D01*
X-3503093Y-28549717D01*
X-3502595Y-28619585D01*
X-3539948Y-28678631D01*
X-3603295Y-28708109D01*
X-3621818Y-28709500D01*
X-7525500Y-28709500D01*
X-7592539Y-28689815D01*
X-7638294Y-28637011D01*
X-7649500Y-28585500D01*
X-7649500Y-28534500D01*
X-7629815Y-28467461D01*
X-7577011Y-28421706D01*
X-7525500Y-28410500D01*
X-3681531Y-28410500D01*
X-3614492Y-28430185D01*
G37*
G04 #@! TD.AperFunction*
G04 #@! TA.AperFunction,NonConductor*
G36*
X-60889297Y-27763912D02*
G01*
X-60882819Y-27769944D01*
X-60452073Y-28200690D01*
X-60299199Y-28311760D01*
X-60219653Y-28352290D01*
X-60130837Y-28397545D01*
X-60130835Y-28397545D01*
X-60130832Y-28397547D01*
X-60034503Y-28428846D01*
X-59951119Y-28455940D01*
X-59906374Y-28463027D01*
X-59843239Y-28492956D01*
X-59806308Y-28552268D01*
X-59807306Y-28622130D01*
X-59845916Y-28680363D01*
X-59909880Y-28708477D01*
X-59925772Y-28709500D01*
X-60970500Y-28709500D01*
X-61037539Y-28689815D01*
X-61083294Y-28637011D01*
X-61094500Y-28585500D01*
X-61094500Y-27857625D01*
X-61074815Y-27790586D01*
X-61022011Y-27744831D01*
X-60952853Y-27734887D01*
X-60889297Y-27763912D01*
G37*
G04 #@! TD.AperFunction*
M02*
