M48
; DRILL file {KiCad 8.0.6} date 2024-12-29T11:53:20+0100
; FORMAT={-:-/ absolute / inch / decimal}
; #@! TF.CreationDate,2024-12-29T11:53:20+01:00
; #@! TF.GenerationSoftware,Kicad,Pcbnew,8.0.6
; #@! TF.FileFunction,MixedPlating,1,2
FMAT,2
INCH
; #@! TA.AperFunction,Plated,PTH,ComponentDrill
T1C0.0276
; #@! TA.AperFunction,Plated,PTH,ComponentDrill
T2C0.0315
; #@! TA.AperFunction,Plated,PTH,ViaDrill
T3C0.0354
; #@! TA.AperFunction,Plated,PTH,ComponentDrill
T4C0.0394
%
G90
G05
T1
X-0.5484Y-0.7713
X-0.5484Y-1.0713
X-0.4484Y-0.7713
X-0.4484Y-1.0713
X-0.3484Y-0.7713
X-0.3484Y-1.0713
T2
X-2.15Y-0.25
X-2.15Y-0.55
X-2.05Y-0.25
X-2.05Y-0.55
X-1.95Y-0.25
X-1.95Y-0.55
X-1.85Y-0.25
X-1.85Y-0.55
X-1.75Y-0.25
X-1.75Y-0.55
X-1.65Y-0.25
X-1.65Y-0.55
X-1.575Y-0.9758
X-1.575Y-1.0742
X-1.55Y-0.25
X-1.55Y-0.55
X-1.45Y-0.25
X-1.45Y-0.55
X-1.35Y-0.25
X-1.35Y-0.55
X-1.3179Y-1.025
X-1.25Y-0.25
X-1.25Y-0.55
X-1.15Y-0.25
X-1.15Y-0.55
X-1.125Y-1.025
X-1.05Y-0.25
X-1.05Y-0.55
X-0.95Y-0.25
X-0.95Y-0.55
X-0.875Y-0.975
X-0.875Y-1.0734
X-0.85Y-0.25
X-0.85Y-0.55
X-0.5484Y-0.2963
X-0.5484Y-0.375
X-0.5484Y-0.4537
X-0.5469Y-0.6175
X-0.3516Y-0.2963
X-0.3516Y-0.375
X-0.3516Y-0.4537
X-0.35Y-0.6175
T3
X-2.3754Y-0.475
X-2.3Y-0.175
X-2.3Y-0.85
X-2.2415Y-0.475
X-2.1685Y-0.85
X-1.55Y-0.175
X-1.55Y-0.625
X-1.3671Y-0.9758
X-1.35Y-0.475
X-1.25Y-0.175
X-1.25Y-0.475
X-1.15Y-0.625
X-1.075Y-0.975
X-0.65Y-0.175
T4
X-2.25Y-0.1
X-2.25Y-0.7
X-2.15Y-0.1
X-2.15Y-0.7
X-2.05Y-0.1
X-2.05Y-0.7
X-1.95Y-0.1
X-1.95Y-0.7
X-1.85Y-0.1
X-1.85Y-0.7
X-1.75Y-0.1
X-1.75Y-0.7
X-1.65Y-0.1
X-1.65Y-0.7
X-1.55Y-0.1
X-1.55Y-0.7
X-1.45Y-0.1
X-1.45Y-0.7
X-1.35Y-0.1
X-1.35Y-0.7
X-1.25Y-0.1
X-1.25Y-0.7
X-1.15Y-0.1
X-1.15Y-0.7
X-1.05Y-0.1
X-1.05Y-0.7
X-0.95Y-0.1
X-0.95Y-0.7
X-0.85Y-0.1
X-0.85Y-0.7
X-0.4976Y-0.0963
X-0.3976Y-0.0963
X-0.0994Y-0.0963
X-0.0994Y-0.1963
X-0.0984Y-0.5713
X-0.0984Y-0.6713
X-0.0984Y-0.7713
X-0.0984Y-0.8713
X-0.0984Y-0.9713
X-0.0984Y-1.0713
M30
