M48
; DRILL file {KiCad 8.0.6} date 2025-02-22T09:41:43+0100
; FORMAT={-:-/ absolute / inch / decimal}
; #@! TF.CreationDate,2025-02-22T09:41:43+01:00
; #@! TF.GenerationSoftware,Kicad,Pcbnew,8.0.6
; #@! TF.FileFunction,MixedPlating,1,2
FMAT,2
INCH
; #@! TA.AperFunction,Plated,PTH,ComponentDrill
T1C0.0315
; #@! TA.AperFunction,Plated,PTH,ViaDrill
T2C0.0354
; #@! TA.AperFunction,Plated,PTH,ComponentDrill
T3C0.0394
; #@! TA.AperFunction,Plated,PTH,ComponentDrill
T4C0.0433
; #@! TA.AperFunction,NonPlated,NPTH,ComponentDrill
T5C0.0984
%
G90
G05
T1
X-2.725Y-1.9035
X-2.7242Y-2.5035
X-2.6984Y-0.475
X-2.675Y-2.1035
X-2.675Y-2.2965
X-2.6266Y-1.9035
X-2.6258Y-2.5035
X-2.5016Y-0.475
X-2.225Y-1.75
X-2.225Y-1.85
X-2.225Y-1.95
X-2.225Y-2.05
X-2.225Y-2.15
X-2.225Y-2.25
X-2.225Y-2.35
X-2.225Y-2.45
X-2.225Y-2.55
X-2.225Y-2.65
X-2.225Y-2.75
X-2.225Y-2.85
X-2.225Y-2.95
X-2.225Y-3.05
X-2.15Y-0.8
X-2.15Y-1.1
X-2.05Y-0.8
X-2.05Y-1.1
X-1.95Y-0.8
X-1.95Y-1.1
X-1.925Y-1.75
X-1.925Y-1.85
X-1.925Y-1.95
X-1.925Y-2.05
X-1.925Y-2.15
X-1.925Y-2.25
X-1.925Y-2.35
X-1.925Y-2.45
X-1.925Y-2.55
X-1.925Y-2.65
X-1.925Y-2.75
X-1.925Y-2.85
X-1.925Y-2.95
X-1.925Y-3.05
X-1.85Y-0.8
X-1.85Y-1.1
X-1.75Y-0.8
X-1.75Y-1.1
X-1.65Y-0.8
X-1.65Y-1.1
X-1.55Y-0.8
X-1.55Y-1.1
X-1.45Y-0.8
X-1.45Y-1.1
X-1.45Y-1.875
X-1.45Y-1.975
X-1.45Y-2.075
X-1.45Y-2.175
X-1.45Y-2.275
X-1.45Y-2.375
X-1.45Y-2.475
X-1.45Y-2.575
X-1.45Y-3.225
X-1.45Y-3.325
X-1.45Y-3.425
X-1.45Y-3.525
X-1.45Y-3.625
X-1.45Y-3.725
X-1.45Y-3.825
X-1.45Y-3.925
X-1.15Y-1.875
X-1.15Y-1.975
X-1.15Y-2.075
X-1.15Y-2.175
X-1.15Y-2.275
X-1.15Y-2.375
X-1.15Y-2.475
X-1.15Y-2.575
X-1.15Y-3.225
X-1.15Y-3.325
X-1.15Y-3.425
X-1.15Y-3.525
X-1.15Y-3.625
X-1.15Y-3.725
X-1.15Y-3.825
X-1.15Y-3.925
X-0.8Y-2.075
X-0.8Y-2.175
X-0.8Y-2.275
X-0.8Y-2.375
X-0.8Y-2.475
X-0.8Y-2.575
X-0.8Y-2.675
X-0.8Y-2.775
X-0.8Y-2.875
X-0.8Y-3.225
X-0.8Y-3.325
X-0.8Y-3.425
X-0.8Y-3.525
X-0.8Y-3.625
X-0.8Y-3.725
X-0.8Y-3.825
X-0.8Y-3.925
X-0.8Y-4.025
T2
X-2.45Y-1.25
X-2.45Y-1.45
X-2.45Y-3.25
X-2.4Y-1.3
X-2.4Y-1.5
X-2.4Y-3.175
X-2.225Y-3.175
X-2.225Y-3.25
X-1.825Y-1.575
X-1.825Y-2.35
X-1.825Y-3.05
X-1.825Y-4.025
X-1.75Y-2.075
X-1.75Y-2.75
X-1.7Y-1.975
X-1.7Y-2.65
X-1.65Y-1.875
X-1.65Y-2.55
X-1.6Y-2.175
X-1.6Y-2.45
X-1.55Y-1.25
X-1.55Y-2.375
X-1.45Y-3.125
X-1.45Y-4.025
X-1.25Y-3.05
X-1.25Y-3.125
X-1.05Y-1.875
X-1.05Y-3.225
X-0.9988Y-2.075
X-0.9988Y-3.05
X-0.975Y-1.1
X-0.95Y-2.3
X-0.95Y-2.95
X-0.575Y-1.1
T3
X-2.5Y-0.8
X-2.5Y-0.9
X-2.5Y-1.0
X-2.5Y-1.1
X-2.3Y-3.825
X-2.2Y-3.825
X-2.1Y-3.825
X-2.0Y-3.825
X-0.45Y-0.6
X-0.45Y-0.7
X-0.45Y-0.8
X-0.45Y-0.9
X-0.45Y-1.0
X-0.45Y-1.1
X-0.45Y-1.2
X-0.45Y-1.3
X-0.45Y-1.4
X-0.45Y-1.5
X-0.45Y-1.6
X-0.45Y-1.7
X-0.45Y-1.8
X-0.45Y-1.9
X-0.45Y-2.0
X-0.45Y-2.725
X-0.45Y-2.825
X-0.45Y-2.925
X-0.45Y-3.025
X-0.45Y-3.125
X-0.45Y-3.225
X-0.45Y-3.325
X-0.45Y-3.425
X-0.45Y-3.525
X-0.45Y-3.625
X-0.45Y-3.725
X-0.45Y-3.825
X-0.45Y-3.925
T4
X-2.1Y-3.35
X-2.1Y-3.6059
X-1.9228Y-3.35
X-1.9228Y-3.6059
T5
X-2.65Y-0.2
X-2.65Y-4.0
X-0.25Y-0.2
M30
