M48
; DRILL file {KiCad 8.0.6} date 2025-03-31T14:38:13+0200
; FORMAT={-:-/ absolute / inch / decimal}
; #@! TF.CreationDate,2025-03-31T14:38:13+02:00
; #@! TF.GenerationSoftware,Kicad,Pcbnew,8.0.6
; #@! TF.FileFunction,MixedPlating,1,2
FMAT,2
INCH
; #@! TA.AperFunction,Plated,PTH,ComponentDrill
T1C0.0315
; #@! TA.AperFunction,Plated,PTH,ViaDrill
T2C0.0354
; #@! TA.AperFunction,Plated,PTH,ComponentDrill
T3C0.0394
; #@! TA.AperFunction,NonPlated,NPTH,ComponentDrill
T4C0.0827
%
G90
G05
T1
X-1.6498Y-2.9
X-1.6498Y-3.0
X-1.6498Y-3.1
X-1.6498Y-3.2
X-1.6498Y-3.3
X-1.6498Y-3.4
X-1.6498Y-3.5
X-1.6498Y-3.6
X-1.6498Y-3.7
X-1.6498Y-3.8
X-1.625Y-0.4
X-1.625Y-0.5
X-1.625Y-0.6
X-1.625Y-0.7
X-1.625Y-0.8
X-1.625Y-0.9
X-1.625Y-1.0
X-1.625Y-1.1
X-1.625Y-1.2
X-1.625Y-1.3
X-1.625Y-1.4
X-1.625Y-1.5
X-1.4484Y-2.2
X-1.3498Y-2.9
X-1.3498Y-3.0
X-1.3498Y-3.1
X-1.3498Y-3.2
X-1.3498Y-3.3
X-1.3498Y-3.4
X-1.3498Y-3.5
X-1.3498Y-3.6
X-1.3498Y-3.7
X-1.3498Y-3.8
X-1.2516Y-2.2
X-1.025Y-0.4
X-1.025Y-0.5
X-1.025Y-0.6
X-1.025Y-0.7
X-1.025Y-0.8
X-1.025Y-0.9
X-1.025Y-1.0
X-1.025Y-1.1
X-1.025Y-1.2
X-1.025Y-1.3
X-1.025Y-1.4
X-1.025Y-1.5
X-1.0Y-2.9
X-0.9984Y-3.1
X-0.9984Y-3.3
X-0.9984Y-3.5
X-0.8031Y-2.9
X-0.8016Y-3.1
X-0.8016Y-3.3
X-0.8016Y-3.5
X-0.7498Y-1.7744
X-0.7498Y-2.0744
X-0.6498Y-1.7744
X-0.6498Y-2.0744
X-0.575Y-2.9
X-0.575Y-3.0
X-0.575Y-3.1
X-0.575Y-3.2
X-0.575Y-3.3
X-0.575Y-3.4
X-0.575Y-3.5
X-0.575Y-3.6
X-0.55Y-1.5
X-0.5498Y-1.7744
X-0.5498Y-2.0744
X-0.5Y-0.9
X-0.5Y-1.3
X-0.4965Y-0.7497
X-0.4498Y-1.7744
X-0.4498Y-2.0744
X-0.3498Y-1.7744
X-0.3498Y-2.0744
X-0.3035Y-0.7497
X-0.3Y-0.9
X-0.3Y-1.3
X-0.275Y-2.9
X-0.275Y-3.0
X-0.275Y-3.1
X-0.275Y-3.2
X-0.275Y-3.3
X-0.275Y-3.4
X-0.275Y-3.5
X-0.275Y-3.6
X-0.2498Y-1.7744
X-0.2498Y-2.0744
X-0.15Y-1.5
X-0.1498Y-1.7744
X-0.1498Y-2.0744
T2
X-1.95Y-0.4
X-1.95Y-1.4
X-1.95Y-2.1
X-1.95Y-2.1
X-1.95Y-2.5
X-1.875Y-0.5
X-1.875Y-2.1
X-1.8Y-0.3
X-1.8Y-2.4
X-1.725Y-0.2
X-1.725Y-2.2
X-1.65Y-2.75
X-1.6Y-1.675
X-1.6Y-2.3
X-1.3821Y-1.9
X-1.25Y-2.75
X-1.2Y-3.8
X-1.2Y-3.9606
X-1.05Y-1.9
X-0.925Y-1.4
X-0.925Y-1.675
T3
X-2.075Y-0.1
X-2.075Y-0.2
X-2.075Y-0.3
X-2.075Y-0.4
X-2.075Y-0.5
X-2.075Y-0.6
X-2.075Y-0.7
X-2.075Y-0.8
X-2.075Y-0.9
X-2.075Y-1.0
X-2.075Y-1.1
X-2.075Y-1.2
X-2.075Y-1.3
X-2.075Y-1.4
X-2.075Y-1.5
X-2.075Y-1.6
X-2.075Y-1.7
X-2.075Y-1.8
X-2.075Y-1.9
X-2.075Y-2.0
X-2.075Y-2.1
X-2.075Y-2.2
X-2.075Y-2.3
X-2.075Y-2.4
X-2.075Y-2.5
X-2.075Y-2.6
X-2.075Y-2.7
X-2.075Y-2.8
X-2.075Y-2.9
X-2.075Y-3.0
X-2.075Y-3.1
X-2.075Y-3.2
X-2.075Y-3.3
X-2.075Y-3.4
X-2.075Y-3.5
X-2.075Y-3.6
X-2.075Y-3.7
X-2.075Y-3.8
X-2.075Y-3.9
X-1.35Y-2.5
X-1.25Y-2.5
X-1.15Y-2.5
X-1.05Y-2.5
X-0.575Y-2.5
X-0.5742Y-2.6439
X-0.5Y-3.8
X-0.475Y-2.5
X-0.4742Y-2.6439
X-0.4Y-3.8
X-0.3Y-3.8
T4
X-0.275Y-2.325
M30
