G04 #@! TF.GenerationSoftware,KiCad,Pcbnew,8.0.6*
G04 #@! TF.CreationDate,2025-03-31T14:38:11+02:00*
G04 #@! TF.ProjectId,rc6502_uart,72633635-3032-45f7-9561-72742e6b6963,rev?*
G04 #@! TF.SameCoordinates,PX8977a68PY3d29f58*
G04 #@! TF.FileFunction,Copper,L2,Bot*
G04 #@! TF.FilePolarity,Positive*
%FSLAX46Y46*%
G04 Gerber Fmt 4.6, Leading zero omitted, Abs format (unit mm)*
G04 Created by KiCad (PCBNEW 8.0.6) date 2025-03-31 14:38:11*
%MOMM*%
%LPD*%
G01*
G04 APERTURE LIST*
G04 #@! TA.AperFunction,ComponentPad*
%ADD10C,1.600000*%
G04 #@! TD*
G04 #@! TA.AperFunction,ComponentPad*
%ADD11R,2.200000X1.600000*%
G04 #@! TD*
G04 #@! TA.AperFunction,ComponentPad*
%ADD12O,2.200000X1.600000*%
G04 #@! TD*
G04 #@! TA.AperFunction,ComponentPad*
%ADD13R,1.600000X2.200000*%
G04 #@! TD*
G04 #@! TA.AperFunction,ComponentPad*
%ADD14O,1.600000X2.200000*%
G04 #@! TD*
G04 #@! TA.AperFunction,ComponentPad*
%ADD15C,2.200000*%
G04 #@! TD*
G04 #@! TA.AperFunction,ViaPad*
%ADD16C,1.800000*%
G04 #@! TD*
G04 #@! TA.AperFunction,Conductor*
%ADD17C,0.500000*%
G04 #@! TD*
G04 #@! TA.AperFunction,Conductor*
%ADD18C,1.000000*%
G04 #@! TD*
G04 APERTURE END LIST*
D10*
G04 #@! TO.P,C3,1*
G04 #@! TO.N,Net-(U4-VS+)*
X-20400000Y-73660000D03*
G04 #@! TO.P,C3,2*
G04 #@! TO.N,GND*
X-25400000Y-73660000D03*
G04 #@! TD*
D11*
G04 #@! TO.P,J1,1,A15*
G04 #@! TO.N,Net-(J1-A15)*
X-52705000Y-99060000D03*
D12*
G04 #@! TO.P,J1,2,A14*
G04 #@! TO.N,Net-(J1-A14)*
X-52705000Y-96520000D03*
G04 #@! TO.P,J1,3,A13*
G04 #@! TO.N,Net-(J1-A13)*
X-52705000Y-93980000D03*
G04 #@! TO.P,J1,4,A12*
G04 #@! TO.N,Net-(J1-A12)*
X-52705000Y-91440000D03*
G04 #@! TO.P,J1,5,A11*
G04 #@! TO.N,Net-(J1-A11)*
X-52705000Y-88900000D03*
G04 #@! TO.P,J1,6,A10*
G04 #@! TO.N,unconnected-(J1-A10-Pad6)*
X-52705000Y-86360000D03*
G04 #@! TO.P,J1,7,A9*
G04 #@! TO.N,unconnected-(J1-A9-Pad7)*
X-52705000Y-83820000D03*
G04 #@! TO.P,J1,8,A8*
G04 #@! TO.N,unconnected-(J1-A8-Pad8)*
X-52705000Y-81280000D03*
G04 #@! TO.P,J1,9,A7*
G04 #@! TO.N,unconnected-(J1-A7-Pad9)*
X-52705000Y-78740000D03*
G04 #@! TO.P,J1,10,A6*
G04 #@! TO.N,unconnected-(J1-A6-Pad10)*
X-52705000Y-76200000D03*
G04 #@! TO.P,J1,11,A5*
G04 #@! TO.N,unconnected-(J1-A5-Pad11)*
X-52705000Y-73660000D03*
G04 #@! TO.P,J1,12,A4*
G04 #@! TO.N,unconnected-(J1-A4-Pad12)*
X-52705000Y-71120000D03*
G04 #@! TO.P,J1,13,A3*
G04 #@! TO.N,unconnected-(J1-A3-Pad13)*
X-52705000Y-68580000D03*
G04 #@! TO.P,J1,14,A2*
G04 #@! TO.N,unconnected-(J1-A2-Pad14)*
X-52705000Y-66040000D03*
G04 #@! TO.P,J1,15,A1*
G04 #@! TO.N,unconnected-(J1-A1-Pad15)*
X-52705000Y-63500000D03*
G04 #@! TO.P,J1,16,A0*
G04 #@! TO.N,Net-(J1-A0)*
X-52705000Y-60960000D03*
G04 #@! TO.P,J1,17,P17*
G04 #@! TO.N,GND*
X-52705000Y-58420000D03*
G04 #@! TO.P,J1,18,P18*
G04 #@! TO.N,VCC*
X-52705000Y-55880000D03*
G04 #@! TO.P,J1,19,PHI2*
G04 #@! TO.N,Net-(J1-PHI2)*
X-52705000Y-53340000D03*
G04 #@! TO.P,J1,20,RESET*
G04 #@! TO.N,Net-(J1-RESET)*
X-52705000Y-50800000D03*
G04 #@! TO.P,J1,21,PHI0*
G04 #@! TO.N,unconnected-(J1-PHI0-Pad21)*
X-52705000Y-48260000D03*
G04 #@! TO.P,J1,22,IRQ*
G04 #@! TO.N,Net-(J1-IRQ)*
X-52705000Y-45720000D03*
G04 #@! TO.P,J1,23,PHI1*
G04 #@! TO.N,unconnected-(J1-PHI1-Pad23)*
X-52705000Y-43180000D03*
G04 #@! TO.P,J1,24,RW*
G04 #@! TO.N,Net-(J1-RW)*
X-52705000Y-40640000D03*
G04 #@! TO.P,J1,25,READY*
G04 #@! TO.N,unconnected-(J1-READY-Pad25)*
X-52705000Y-38100000D03*
G04 #@! TO.P,J1,26,SYNC*
G04 #@! TO.N,unconnected-(J1-SYNC-Pad26)*
X-52705000Y-35560000D03*
G04 #@! TO.P,J1,27,D0*
G04 #@! TO.N,Net-(J1-D0)*
X-52705000Y-33020000D03*
G04 #@! TO.P,J1,28,D1*
G04 #@! TO.N,Net-(J1-D1)*
X-52705000Y-30480000D03*
G04 #@! TO.P,J1,29,D2*
G04 #@! TO.N,Net-(J1-D2)*
X-52705000Y-27940000D03*
G04 #@! TO.P,J1,30,D3*
G04 #@! TO.N,Net-(J1-D3)*
X-52705000Y-25400000D03*
G04 #@! TO.P,J1,31,D4*
G04 #@! TO.N,Net-(J1-D4)*
X-52705000Y-22860000D03*
G04 #@! TO.P,J1,32,D5*
G04 #@! TO.N,Net-(J1-D5)*
X-52705000Y-20320000D03*
G04 #@! TO.P,J1,33,D6*
G04 #@! TO.N,Net-(J1-D6)*
X-52705000Y-17780000D03*
G04 #@! TO.P,J1,34,D7*
G04 #@! TO.N,Net-(J1-D7)*
X-52705000Y-15240000D03*
G04 #@! TO.P,J1,35,TX*
G04 #@! TO.N,unconnected-(J1-TX-Pad35)*
X-52705000Y-12700000D03*
G04 #@! TO.P,J1,36,RX*
G04 #@! TO.N,unconnected-(J1-RX-Pad36)*
X-52705000Y-10160000D03*
G04 #@! TO.P,J1,37,NMI*
G04 #@! TO.N,unconnected-(J1-NMI-Pad37)*
X-52705000Y-7620000D03*
G04 #@! TO.P,J1,38,P38*
G04 #@! TO.N,unconnected-(J1-P38-Pad38)*
X-52705000Y-5080000D03*
G04 #@! TO.P,J1,39,P39*
G04 #@! TO.N,unconnected-(J1-P39-Pad39)*
X-52705000Y-2540000D03*
G04 #@! TD*
D10*
G04 #@! TO.P,C5,1*
G04 #@! TO.N,VCC*
X-36790000Y-55880000D03*
G04 #@! TO.P,C5,2*
G04 #@! TO.N,GND*
X-31790000Y-55880000D03*
G04 #@! TD*
D11*
G04 #@! TO.P,U2,1,I1/CLK*
G04 #@! TO.N,Net-(J1-PHI2)*
X-41905000Y-73660000D03*
D12*
G04 #@! TO.P,U2,2,I2*
G04 #@! TO.N,Net-(J1-A11)*
X-41905000Y-76200000D03*
G04 #@! TO.P,U2,3,I3*
G04 #@! TO.N,Net-(J1-A12)*
X-41905000Y-78740000D03*
G04 #@! TO.P,U2,4,I4*
G04 #@! TO.N,Net-(J1-A13)*
X-41905000Y-81280000D03*
G04 #@! TO.P,U2,5,I5*
G04 #@! TO.N,Net-(J1-A14)*
X-41905000Y-83820000D03*
G04 #@! TO.P,U2,6,I6*
G04 #@! TO.N,Net-(J1-A15)*
X-41905000Y-86360000D03*
G04 #@! TO.P,U2,7,I7*
G04 #@! TO.N,unconnected-(U2-I7-Pad7)*
X-41905000Y-88900000D03*
G04 #@! TO.P,U2,8,I8*
G04 #@! TO.N,unconnected-(U2-I8-Pad8)*
X-41905000Y-91440000D03*
G04 #@! TO.P,U2,9,I9*
G04 #@! TO.N,unconnected-(U2-I9-Pad9)*
X-41905000Y-93980000D03*
G04 #@! TO.P,U2,10,GND*
G04 #@! TO.N,GND*
X-41905000Y-96520000D03*
G04 #@! TO.P,U2,11,I10/~{OE}*
G04 #@! TO.N,unconnected-(U2-I10{slash}~{OE}-Pad11)*
X-34285000Y-96520000D03*
G04 #@! TO.P,U2,12,IO8*
G04 #@! TO.N,Net-(U2-IO8)*
X-34285000Y-93980000D03*
G04 #@! TO.P,U2,13,IO7*
G04 #@! TO.N,unconnected-(U2-IO7-Pad13)*
X-34285000Y-91440000D03*
G04 #@! TO.P,U2,14,IO6*
G04 #@! TO.N,unconnected-(U2-IO6-Pad14)*
X-34285000Y-88900000D03*
G04 #@! TO.P,U2,15,IO5*
G04 #@! TO.N,unconnected-(U2-IO5-Pad15)*
X-34285000Y-86360000D03*
G04 #@! TO.P,U2,16,IO4*
G04 #@! TO.N,unconnected-(U2-IO4-Pad16)*
X-34285000Y-83820000D03*
G04 #@! TO.P,U2,17,I03*
G04 #@! TO.N,unconnected-(U2-I03-Pad17)*
X-34285000Y-81280000D03*
G04 #@! TO.P,U2,18,IO2*
G04 #@! TO.N,unconnected-(U2-IO2-Pad18)*
X-34285000Y-78740000D03*
G04 #@! TO.P,U2,19,IO1*
G04 #@! TO.N,unconnected-(U2-IO1-Pad19)*
X-34285000Y-76200000D03*
G04 #@! TO.P,U2,20,VCC*
G04 #@! TO.N,VCC*
X-34285000Y-73660000D03*
G04 #@! TD*
D13*
G04 #@! TO.P,J2,1,Pin_1*
G04 #@! TO.N,GND*
X-12700000Y-96520000D03*
D14*
G04 #@! TO.P,J2,2,Pin_2*
G04 #@! TO.N,/Pin2*
X-10160000Y-96520000D03*
G04 #@! TO.P,J2,3,Pin_3*
G04 #@! TO.N,/Pin3*
X-7620000Y-96520000D03*
G04 #@! TD*
D15*
G04 #@! TO.P,R1,1*
G04 #@! TO.N,GND*
X-13970000Y-38100000D03*
G04 #@! TO.P,R1,2*
G04 #@! TO.N,Net-(R1-Pad2)*
X-3810000Y-38100000D03*
G04 #@! TD*
G04 #@! TO.P,R3,1*
G04 #@! TO.N,Net-(R2-Pad2)*
X-12700000Y-33020000D03*
G04 #@! TO.P,R3,2*
G04 #@! TO.N,Net-(U3-Rx_CLK)*
X-12700000Y-22860000D03*
G04 #@! TD*
G04 #@! TO.P,R2,1*
G04 #@! TO.N,Net-(R1-Pad2)*
X-7620000Y-22860000D03*
G04 #@! TO.P,R2,2*
G04 #@! TO.N,Net-(R2-Pad2)*
X-7620000Y-33020000D03*
G04 #@! TD*
D13*
G04 #@! TO.P,J6,1,Pin_1*
G04 #@! TO.N,VCC*
X-34290000Y-63500000D03*
D14*
G04 #@! TO.P,J6,2,Pin_2*
G04 #@! TO.N,GND*
X-31750000Y-63500000D03*
G04 #@! TO.P,J6,3,Pin_3*
G04 #@! TO.N,/RxD*
X-29210000Y-63500000D03*
G04 #@! TO.P,J6,4,Pin_4*
G04 #@! TO.N,/TxD*
X-26670000Y-63500000D03*
G04 #@! TD*
D13*
G04 #@! TO.P,J4,1,Pin_1*
G04 #@! TO.N,/RxD*
X-14605000Y-63500000D03*
D14*
G04 #@! TO.P,J4,2,Pin_2*
G04 #@! TO.N,Net-(J4-Pin_2)*
X-12065000Y-63500000D03*
G04 #@! TD*
D10*
G04 #@! TO.P,C4,1*
G04 #@! TO.N,GND*
X-25360000Y-88900000D03*
G04 #@! TO.P,C4,2*
G04 #@! TO.N,Net-(U4-VS-)*
X-20360000Y-88900000D03*
G04 #@! TD*
G04 #@! TO.P,C2,1*
G04 #@! TO.N,Net-(U4-C2+)*
X-25360000Y-83820000D03*
G04 #@! TO.P,C2,2*
G04 #@! TO.N,Net-(U4-C2-)*
X-20360000Y-83820000D03*
G04 #@! TD*
D11*
G04 #@! TO.P,U4,1,C1+*
G04 #@! TO.N,Net-(U4-C1+)*
X-14605000Y-73660000D03*
D12*
G04 #@! TO.P,U4,2,VS+*
G04 #@! TO.N,Net-(U4-VS+)*
X-14605000Y-76200000D03*
G04 #@! TO.P,U4,3,C1-*
G04 #@! TO.N,Net-(U4-C1-)*
X-14605000Y-78740000D03*
G04 #@! TO.P,U4,4,C2+*
G04 #@! TO.N,Net-(U4-C2+)*
X-14605000Y-81280000D03*
G04 #@! TO.P,U4,5,C2-*
G04 #@! TO.N,Net-(U4-C2-)*
X-14605000Y-83820000D03*
G04 #@! TO.P,U4,6,VS-*
G04 #@! TO.N,Net-(U4-VS-)*
X-14605000Y-86360000D03*
G04 #@! TO.P,U4,7,T2OUT*
G04 #@! TO.N,unconnected-(U4-T2OUT-Pad7)*
X-14605000Y-88900000D03*
G04 #@! TO.P,U4,8,R2IN*
G04 #@! TO.N,unconnected-(U4-R2IN-Pad8)*
X-14605000Y-91440000D03*
G04 #@! TO.P,U4,9,R2OUT*
G04 #@! TO.N,unconnected-(U4-R2OUT-Pad9)*
X-6985000Y-91440000D03*
G04 #@! TO.P,U4,10,T2IN*
G04 #@! TO.N,unconnected-(U4-T2IN-Pad10)*
X-6985000Y-88900000D03*
G04 #@! TO.P,U4,11,T1IN*
G04 #@! TO.N,Net-(J5-Pin_2)*
X-6985000Y-86360000D03*
G04 #@! TO.P,U4,12,R1OUT*
G04 #@! TO.N,Net-(J4-Pin_2)*
X-6985000Y-83820000D03*
G04 #@! TO.P,U4,13,R1IN*
G04 #@! TO.N,/Pin2*
X-6985000Y-81280000D03*
G04 #@! TO.P,U4,14,T1OUT*
G04 #@! TO.N,/Pin3*
X-6985000Y-78740000D03*
G04 #@! TO.P,U4,15,GND*
G04 #@! TO.N,GND*
X-6985000Y-76200000D03*
G04 #@! TO.P,U4,16,VCC*
G04 #@! TO.N,VCC*
X-6985000Y-73660000D03*
G04 #@! TD*
D10*
G04 #@! TO.P,C1,1*
G04 #@! TO.N,Net-(U4-C1+)*
X-25360000Y-78740000D03*
G04 #@! TO.P,C1,2*
G04 #@! TO.N,Net-(U4-C1-)*
X-20360000Y-78740000D03*
G04 #@! TD*
D11*
G04 #@! TO.P,U3,1,VSS*
G04 #@! TO.N,GND*
X-26035000Y-38100000D03*
D12*
G04 #@! TO.P,U3,2,Rx_Data*
G04 #@! TO.N,/RxD*
X-26035000Y-35560000D03*
G04 #@! TO.P,U3,3,Rx_CLK*
G04 #@! TO.N,Net-(U3-Rx_CLK)*
X-26035000Y-33020000D03*
G04 #@! TO.P,U3,4,Tx_CLK*
X-26035000Y-30480000D03*
G04 #@! TO.P,U3,5,~{RTS}*
G04 #@! TO.N,Net-(J1-RESET)*
X-26035000Y-27940000D03*
G04 #@! TO.P,U3,6,Tx_Data*
G04 #@! TO.N,/TxD*
X-26035000Y-25400000D03*
G04 #@! TO.P,U3,7,~{IRQ}*
G04 #@! TO.N,Net-(J1-IRQ)*
X-26035000Y-22860000D03*
G04 #@! TO.P,U3,8,CS0*
G04 #@! TO.N,VCC*
X-26035000Y-20320000D03*
G04 #@! TO.P,U3,9,CS2*
G04 #@! TO.N,Net-(U2-IO8)*
X-26035000Y-17780000D03*
G04 #@! TO.P,U3,10,CS1*
G04 #@! TO.N,VCC*
X-26035000Y-15240000D03*
G04 #@! TO.P,U3,11,RS*
G04 #@! TO.N,Net-(J1-A0)*
X-26035000Y-12700000D03*
G04 #@! TO.P,U3,12,VCC*
G04 #@! TO.N,VCC*
X-26035000Y-10160000D03*
G04 #@! TO.P,U3,13,R/~{W}*
G04 #@! TO.N,Net-(J1-RW)*
X-41275000Y-10160000D03*
G04 #@! TO.P,U3,14,E*
G04 #@! TO.N,Net-(J1-PHI2)*
X-41275000Y-12700000D03*
G04 #@! TO.P,U3,15,D7*
G04 #@! TO.N,Net-(J1-D7)*
X-41275000Y-15240000D03*
G04 #@! TO.P,U3,16,D6*
G04 #@! TO.N,Net-(J1-D6)*
X-41275000Y-17780000D03*
G04 #@! TO.P,U3,17,D5*
G04 #@! TO.N,Net-(J1-D5)*
X-41275000Y-20320000D03*
G04 #@! TO.P,U3,18,D4*
G04 #@! TO.N,Net-(J1-D4)*
X-41275000Y-22860000D03*
G04 #@! TO.P,U3,19,D3*
G04 #@! TO.N,Net-(J1-D3)*
X-41275000Y-25400000D03*
G04 #@! TO.P,U3,20,D2*
G04 #@! TO.N,Net-(J1-D2)*
X-41275000Y-27940000D03*
G04 #@! TO.P,U3,21,D1*
G04 #@! TO.N,Net-(J1-D1)*
X-41275000Y-30480000D03*
G04 #@! TO.P,U3,22,D0*
G04 #@! TO.N,Net-(J1-D0)*
X-41275000Y-33020000D03*
G04 #@! TO.P,U3,23,~{DCD}*
G04 #@! TO.N,unconnected-(U3-~{DCD}-Pad23)*
X-41275000Y-35560000D03*
G04 #@! TO.P,U3,24,~{CTS}*
G04 #@! TO.N,unconnected-(U3-~{CTS}-Pad24)*
X-41275000Y-38100000D03*
G04 #@! TD*
D15*
G04 #@! TO.P,Y1,1,1*
G04 #@! TO.N,Net-(R1-Pad2)*
X-7710000Y-19042500D03*
G04 #@! TO.P,Y1,2,2*
G04 #@! TO.N,Net-(U3-Rx_CLK)*
X-12610000Y-19042500D03*
G04 #@! TD*
D13*
G04 #@! TO.P,J5,1,Pin_1*
G04 #@! TO.N,/TxD*
X-14585000Y-67155000D03*
D14*
G04 #@! TO.P,J5,2,Pin_2*
G04 #@! TO.N,Net-(J5-Pin_2)*
X-12045000Y-67155000D03*
G04 #@! TD*
D13*
G04 #@! TO.P,U1,1*
G04 #@! TO.N,Net-(R1-Pad2)*
X-3805000Y-45070000D03*
D14*
G04 #@! TO.P,U1,2*
G04 #@! TO.N,Net-(R2-Pad2)*
X-6345000Y-45070000D03*
G04 #@! TO.P,U1,3*
X-8885000Y-45070000D03*
G04 #@! TO.P,U1,4*
G04 #@! TO.N,Net-(U3-Rx_CLK)*
X-11425000Y-45070000D03*
G04 #@! TO.P,U1,5*
G04 #@! TO.N,N/C*
X-13965000Y-45070000D03*
G04 #@! TO.P,U1,6*
X-16505000Y-45070000D03*
G04 #@! TO.P,U1,7,GND*
G04 #@! TO.N,GND*
X-19045000Y-45070000D03*
G04 #@! TO.P,U1,8*
G04 #@! TO.N,N/C*
X-19045000Y-52690000D03*
G04 #@! TO.P,U1,9*
X-16505000Y-52690000D03*
G04 #@! TO.P,U1,10*
X-13965000Y-52690000D03*
G04 #@! TO.P,U1,11*
X-11425000Y-52690000D03*
G04 #@! TO.P,U1,12*
X-8885000Y-52690000D03*
G04 #@! TO.P,U1,13*
X-6345000Y-52690000D03*
G04 #@! TO.P,U1,14,VCC*
G04 #@! TO.N,VCC*
X-3805000Y-52690000D03*
G04 #@! TD*
D16*
G04 #@! TO.N,GND*
X-41910000Y-69850000D03*
X-31750000Y-69850000D03*
G04 #@! TO.N,VCC*
X-43815000Y-5080000D03*
X-30480000Y-96520000D03*
X-30480000Y-100600000D03*
X-43815000Y-55880000D03*
G04 #@! TO.N,Net-(J1-RW)*
X-49530000Y-35560000D03*
X-49530000Y-10160000D03*
G04 #@! TO.N,Net-(J1-A0)*
X-45720000Y-60960000D03*
X-45720000Y-7620000D03*
G04 #@! TO.N,Net-(J1-PHI2)*
X-49530000Y-53340000D03*
X-49530000Y-53340000D03*
X-47625000Y-12700000D03*
X-49530000Y-63500000D03*
X-47625000Y-53340000D03*
G04 #@! TO.N,/RxD*
X-23495000Y-42545000D03*
X-23495000Y-35560000D03*
G04 #@! TO.N,/TxD*
X-26670000Y-48260000D03*
X-35105000Y-48260000D03*
G04 #@! TO.N,Net-(U2-IO8)*
X-40640000Y-58420000D03*
X-40640000Y-42545000D03*
G04 #@! TD*
D17*
G04 #@! TO.N,Net-(U4-C1+)*
X-22860000Y-71120000D02*
X-22860000Y-76240000D01*
X-17780000Y-71160000D02*
X-17740000Y-71120000D01*
X-17145000Y-73660000D02*
X-17780000Y-73025000D01*
X-17740000Y-71120000D02*
X-22860000Y-71120000D01*
X-14605000Y-73660000D02*
X-17145000Y-73660000D01*
X-22860000Y-76240000D02*
X-25360000Y-78740000D01*
X-17780000Y-73025000D02*
X-17780000Y-71160000D01*
G04 #@! TO.N,Net-(U4-C1-)*
X-20360000Y-78740000D02*
X-14605000Y-78740000D01*
G04 #@! TO.N,Net-(U4-C2-)*
X-20360000Y-83820000D02*
X-14605000Y-83820000D01*
G04 #@! TO.N,Net-(U4-C2+)*
X-25360000Y-83820000D02*
X-24130000Y-83820000D01*
X-24130000Y-83820000D02*
X-21590000Y-81280000D01*
X-21590000Y-81280000D02*
X-14605000Y-81280000D01*
D18*
G04 #@! TO.N,GND*
X-38735000Y-73025000D02*
X-38735000Y-98425000D01*
X-19045000Y-40010000D02*
X-19045000Y-45070000D01*
X-31750000Y-38100000D02*
X-26035000Y-38100000D01*
X-25360000Y-98385000D02*
X-25400000Y-98425000D01*
X-25400000Y-72390000D02*
X-27940000Y-69850000D01*
X-31790000Y-55920000D02*
X-31790000Y-63460000D01*
X-23495000Y-98425000D02*
X-22860000Y-99060000D01*
X-45085000Y-58420000D02*
X-52705000Y-58420000D01*
X-4445000Y-76200000D02*
X-4445000Y-99060000D01*
X-19050000Y-40005000D02*
X-19045000Y-40010000D01*
X-38735000Y-98425000D02*
X-25400000Y-98425000D01*
X-31750000Y-45085000D02*
X-31750000Y-38100000D01*
X-4445000Y-99060000D02*
X-12700000Y-99060000D01*
X-31790000Y-45125000D02*
X-31750000Y-45085000D01*
X-25360000Y-88900000D02*
X-25360000Y-98385000D01*
X-31750000Y-63500000D02*
X-31750000Y-69850000D01*
X-41910000Y-69850000D02*
X-41910000Y-61595000D01*
X-22860000Y-99060000D02*
X-12700000Y-99060000D01*
X-19050000Y-38735000D02*
X-19050000Y-40005000D01*
X-41910000Y-69850000D02*
X-38735000Y-73025000D01*
X-25400000Y-73660000D02*
X-25400000Y-72390000D01*
X-31790000Y-45125000D02*
X-31790000Y-55920000D01*
X-12700000Y-96520000D02*
X-12700000Y-99060000D01*
X-41910000Y-61595000D02*
X-45085000Y-58420000D01*
X-41905000Y-96520000D02*
X-38735000Y-96520000D01*
X-25400000Y-98425000D02*
X-23495000Y-98425000D01*
X-14605000Y-38100000D02*
X-13970000Y-38735000D01*
X-26035000Y-38100000D02*
X-14605000Y-38100000D01*
X-31790000Y-63460000D02*
X-31750000Y-63500000D01*
X-6985000Y-76200000D02*
X-4445000Y-76200000D01*
X-31750000Y-69850000D02*
X-27940000Y-69850000D01*
D17*
G04 #@! TO.N,Net-(U4-VS+)*
X-17860000Y-76200000D02*
X-14605000Y-76200000D01*
X-20400000Y-73660000D02*
X-17860000Y-76200000D01*
G04 #@! TO.N,Net-(U4-VS-)*
X-17820000Y-86360000D02*
X-14605000Y-86360000D01*
X-20360000Y-88900000D02*
X-17820000Y-86360000D01*
G04 #@! TO.N,Net-(J1-D5)*
X-41275000Y-20320000D02*
X-52705000Y-20320000D01*
G04 #@! TO.N,Net-(J1-D6)*
X-41275000Y-17780000D02*
X-52705000Y-17780000D01*
D18*
G04 #@! TO.N,VCC*
X-2540000Y-53340000D02*
X-2540000Y-72390000D01*
X-30480000Y-74295000D02*
X-31115000Y-73660000D01*
X-6985000Y-73660000D02*
X-6955000Y-73630000D01*
X-31115000Y-100600000D02*
X-30480000Y-100600000D01*
X-3805000Y-52690000D02*
X-3190000Y-52690000D01*
X-34290000Y-57150000D02*
X-34290000Y-63500000D01*
X-30480000Y-100600000D02*
X-31115000Y-100600000D01*
X-30480000Y-96520000D02*
X-30480000Y-74295000D01*
X-52705000Y-55880000D02*
X-43815000Y-55880000D01*
X-3190000Y-52690000D02*
X-2540000Y-53340000D01*
X-34285000Y-64775000D02*
X-34285000Y-73660000D01*
X-2540000Y-72390000D02*
X-2540000Y-73660000D01*
X-34285000Y-73660000D02*
X-31115000Y-73660000D01*
X-2570000Y-73630000D02*
X-2540000Y-73660000D01*
X-26035000Y-10160000D02*
X-23495000Y-10160000D01*
X-2540000Y-100600000D02*
X-30480000Y-100600000D01*
X-23495000Y-15240000D02*
X-23495000Y-20320000D01*
X-36790000Y-55880000D02*
X-35560000Y-55880000D01*
X-43815000Y-5080000D02*
X-26035000Y-5080000D01*
X-34290000Y-64770000D02*
X-34285000Y-64775000D01*
X-2540000Y-73660000D02*
X-2540000Y-100600000D01*
X-34290000Y-63500000D02*
X-34290000Y-64770000D01*
X-23495000Y-10160000D02*
X-23495000Y-15240000D01*
X-26035000Y-5080000D02*
X-26035000Y-10160000D01*
X-23495000Y-20320000D02*
X-26035000Y-20320000D01*
X-6955000Y-73630000D02*
X-2570000Y-73630000D01*
X-43815000Y-55880000D02*
X-36790000Y-55880000D01*
X-35560000Y-55880000D02*
X-34290000Y-57150000D01*
X-26035000Y-15240000D02*
X-23495000Y-15240000D01*
D17*
G04 #@! TO.N,Net-(J1-A13)*
X-46990000Y-90805000D02*
X-50165000Y-93980000D01*
X-50165000Y-93980000D02*
X-52705000Y-93980000D01*
X-46990000Y-81280000D02*
X-46990000Y-90805000D01*
X-41905000Y-81280000D02*
X-46990000Y-81280000D01*
G04 #@! TO.N,Net-(J1-RW)*
X-52705000Y-40640000D02*
X-49530000Y-40640000D01*
X-49530000Y-10160000D02*
X-41275000Y-10160000D01*
X-49530000Y-40640000D02*
X-49530000Y-35560000D01*
G04 #@! TO.N,Net-(J1-IRQ)*
X-36195000Y-45720000D02*
X-52705000Y-45720000D01*
X-36195000Y-22860000D02*
X-36195000Y-45720000D01*
X-26035000Y-22860000D02*
X-36195000Y-22860000D01*
G04 #@! TO.N,Net-(J1-A0)*
X-34290000Y-12700000D02*
X-39370000Y-7620000D01*
X-39370000Y-7620000D02*
X-45720000Y-7620000D01*
X-45720000Y-60960000D02*
X-52705000Y-60960000D01*
X-26035000Y-12700000D02*
X-34290000Y-12700000D01*
G04 #@! TO.N,Net-(J1-RESET)*
X-33655000Y-27940000D02*
X-33655000Y-50800000D01*
X-26035000Y-27940000D02*
X-33655000Y-27940000D01*
X-33655000Y-50800000D02*
X-52705000Y-50800000D01*
G04 #@! TO.N,Net-(J1-A11)*
X-50165000Y-88900000D02*
X-52705000Y-88900000D01*
X-49530000Y-88265000D02*
X-50165000Y-88900000D01*
X-41905000Y-76200000D02*
X-49530000Y-76200000D01*
X-49530000Y-76200000D02*
X-49530000Y-88265000D01*
G04 #@! TO.N,Net-(J1-D1)*
X-41275000Y-30480000D02*
X-52705000Y-30480000D01*
G04 #@! TO.N,Net-(J1-A12)*
X-48260000Y-78740000D02*
X-48260000Y-89535000D01*
X-48260000Y-89535000D02*
X-50165000Y-91440000D01*
X-50165000Y-91440000D02*
X-52705000Y-91440000D01*
X-41905000Y-78740000D02*
X-48260000Y-78740000D01*
G04 #@! TO.N,Net-(J1-A14)*
X-41905000Y-83820000D02*
X-45720000Y-83820000D01*
X-45720000Y-83820000D02*
X-45720000Y-92075000D01*
X-45720000Y-92075000D02*
X-50165000Y-96520000D01*
X-50165000Y-96520000D02*
X-52705000Y-96520000D01*
G04 #@! TO.N,Net-(J1-A15)*
X-44450000Y-93345000D02*
X-50165000Y-99060000D01*
X-41905000Y-86360000D02*
X-44450000Y-86360000D01*
X-50165000Y-99060000D02*
X-52705000Y-99060000D01*
X-44450000Y-86360000D02*
X-44450000Y-93345000D01*
G04 #@! TO.N,Net-(J1-PHI2)*
X-47625000Y-53340000D02*
X-49530000Y-53340000D01*
X-49530000Y-63500000D02*
X-49530000Y-73660000D01*
X-41275000Y-12700000D02*
X-47625000Y-12700000D01*
X-49530000Y-53340000D02*
X-52705000Y-53340000D01*
X-41905000Y-73660000D02*
X-49530000Y-73660000D01*
G04 #@! TO.N,Net-(J1-D4)*
X-41275000Y-22860000D02*
X-52705000Y-22860000D01*
G04 #@! TO.N,Net-(J1-D2)*
X-41275000Y-27940000D02*
X-52705000Y-27940000D01*
G04 #@! TO.N,Net-(J1-D0)*
X-41275000Y-33020000D02*
X-52705000Y-33020000D01*
G04 #@! TO.N,Net-(J1-D7)*
X-41275000Y-15240000D02*
X-52705000Y-15240000D01*
G04 #@! TO.N,Net-(J1-D3)*
X-41275000Y-25400000D02*
X-52705000Y-25400000D01*
G04 #@! TO.N,/Pin2*
X-12065000Y-92075000D02*
X-10160000Y-93980000D01*
X-12065000Y-92075000D02*
X-12065000Y-88265000D01*
X-10160000Y-93980000D02*
X-10160000Y-96520000D01*
G04 #@! TO.N,/Pin3*
X-9525000Y-92075000D02*
X-9525000Y-88265000D01*
X-9525000Y-92075000D02*
X-7620000Y-93980000D01*
X-9525000Y-88265000D02*
X-9525000Y-88900000D01*
X-7620000Y-93980000D02*
X-7620000Y-96520000D01*
G04 #@! TO.N,/RxD*
X-29210000Y-63500000D02*
X-29210000Y-42545000D01*
X-23495000Y-42545000D02*
X-23495000Y-60325000D01*
X-23495000Y-60325000D02*
X-20320000Y-63500000D01*
X-29210000Y-42545000D02*
X-23495000Y-42545000D01*
X-20320000Y-63500000D02*
X-14605000Y-63500000D01*
X-23495000Y-35560000D02*
X-26035000Y-35560000D01*
G04 #@! TO.N,/TxD*
X-34925000Y-25400000D02*
X-26035000Y-25400000D01*
X-34925000Y-48080000D02*
X-34925000Y-25400000D01*
X-26670000Y-48260000D02*
X-26670000Y-63500000D01*
X-26670000Y-63500000D02*
X-23015000Y-67155000D01*
X-23015000Y-67155000D02*
X-14585000Y-67155000D01*
X-35105000Y-48260000D02*
X-34925000Y-48080000D01*
G04 #@! TO.N,Net-(J4-Pin_2)*
X-6985000Y-83820000D02*
X-9525000Y-83820000D01*
X-9525000Y-64135000D02*
X-10160000Y-63500000D01*
X-9525000Y-83820000D02*
X-9525000Y-64135000D01*
X-10160000Y-63500000D02*
X-12065000Y-63500000D01*
G04 #@! TO.N,Net-(J5-Pin_2)*
X-6985000Y-86360000D02*
X-12065000Y-86360000D01*
X-12065000Y-86360000D02*
X-12065000Y-81280000D01*
X-12045000Y-81260000D02*
X-12065000Y-81280000D01*
X-12045000Y-67155000D02*
X-12045000Y-81260000D01*
G04 #@! TO.N,Net-(R1-Pad2)*
X-4117500Y-22860000D02*
X-3805000Y-23172500D01*
X-7710000Y-19042500D02*
X-7710000Y-22770000D01*
X-7710000Y-22770000D02*
X-7620000Y-22860000D01*
X-7620000Y-22860000D02*
X-4117500Y-22860000D01*
X-3805000Y-23172500D02*
X-3805000Y-45070000D01*
G04 #@! TO.N,Net-(R2-Pad2)*
X-7620000Y-33020000D02*
X-8890000Y-33020000D01*
X-8890000Y-33020000D02*
X-12700000Y-33020000D01*
X-8885000Y-45070000D02*
X-6345000Y-45070000D01*
X-8890000Y-34280000D02*
X-8890000Y-33020000D01*
X-8885000Y-34285000D02*
X-8890000Y-34280000D01*
X-8885000Y-45070000D02*
X-8885000Y-34285000D01*
G04 #@! TO.N,Net-(U3-Rx_CLK)*
X-11430000Y-35560000D02*
X-19685000Y-35560000D01*
X-12700000Y-22860000D02*
X-19685000Y-22860000D01*
X-11425000Y-45070000D02*
X-11425000Y-35565000D01*
X-26035000Y-30480000D02*
X-19685000Y-30480000D01*
X-12610000Y-22770000D02*
X-12700000Y-22860000D01*
X-19685000Y-35560000D02*
X-19685000Y-30480000D01*
X-19685000Y-30480000D02*
X-19685000Y-29845000D01*
X-11425000Y-35565000D02*
X-11430000Y-35560000D01*
X-19685000Y-22860000D02*
X-19685000Y-29845000D01*
X-26035000Y-30480000D02*
X-26035000Y-33020000D01*
X-12610000Y-19042500D02*
X-12610000Y-22770000D01*
G04 #@! TO.N,Net-(U2-IO8)*
X-37465000Y-42545000D02*
X-40640000Y-42545000D01*
X-37465000Y-17780000D02*
X-37465000Y-42545000D01*
X-40640000Y-58420000D02*
X-37465000Y-58420000D01*
X-36830000Y-93980000D02*
X-34285000Y-93980000D01*
X-37285000Y-58600000D02*
X-37285000Y-93525000D01*
X-26035000Y-17780000D02*
X-37465000Y-17780000D01*
X-37465000Y-58420000D02*
X-37285000Y-58600000D01*
X-37285000Y-93525000D02*
X-36830000Y-93980000D01*
G04 #@! TD*
G04 #@! TA.AperFunction,NonConductor*
G36*
X-53700241Y-520207D02*
G01*
X-53631000Y-575426D01*
X-53592573Y-655218D01*
X-53592573Y-743782D01*
X-53631000Y-823574D01*
X-53700241Y-878793D01*
X-53710430Y-883352D01*
X-53803045Y-921714D01*
X-53803047Y-921715D01*
X-54007446Y-1039723D01*
X-54194703Y-1183410D01*
X-54361595Y-1350302D01*
X-54387624Y-1384225D01*
X-54455821Y-1440728D01*
X-54541780Y-1462045D01*
X-54628476Y-1443955D01*
X-54698738Y-1390041D01*
X-54738649Y-1310980D01*
X-54744500Y-1263080D01*
X-54744500Y-699500D01*
X-54724793Y-613157D01*
X-54669574Y-543916D01*
X-54589782Y-505489D01*
X-54545500Y-500500D01*
X-53786584Y-500500D01*
X-53700241Y-520207D01*
G37*
G04 #@! TD.AperFunction*
G04 #@! TA.AperFunction,NonConductor*
G36*
X-27648157Y-6600207D02*
G01*
X-27578916Y-6655426D01*
X-27540489Y-6735218D01*
X-27535500Y-6779500D01*
X-27535500Y-8731780D01*
X-27555207Y-8818123D01*
X-27593786Y-8872494D01*
X-27691590Y-8970297D01*
X-27835277Y-9157554D01*
X-27953285Y-9361953D01*
X-27953286Y-9361955D01*
X-28043607Y-9580009D01*
X-28074500Y-9695304D01*
X-28104693Y-9807986D01*
X-28135500Y-10041989D01*
X-28135500Y-10278011D01*
X-28104693Y-10512014D01*
X-28043606Y-10739993D01*
X-27953284Y-10958049D01*
X-27877064Y-11090067D01*
X-27841884Y-11151000D01*
X-27815779Y-11235629D01*
X-27828979Y-11323203D01*
X-27878869Y-11396378D01*
X-27955567Y-11440659D01*
X-28014223Y-11449500D01*
X-33689598Y-11449500D01*
X-33775941Y-11429793D01*
X-33830312Y-11391214D01*
X-38301311Y-6920214D01*
X-38348430Y-6845226D01*
X-38358346Y-6757219D01*
X-38329095Y-6673626D01*
X-38266471Y-6611002D01*
X-38182878Y-6581751D01*
X-38160597Y-6580500D01*
X-27734500Y-6580500D01*
X-27648157Y-6600207D01*
G37*
G04 #@! TD.AperFunction*
G04 #@! TA.AperFunction,NonConductor*
G36*
X-50472579Y-11816114D02*
G01*
X-50432299Y-11832678D01*
X-50321513Y-11893172D01*
X-50066801Y-11988175D01*
X-49801160Y-12045961D01*
X-49662465Y-12055880D01*
X-49577750Y-12081696D01*
X-49512624Y-12141713D01*
X-49479988Y-12224044D01*
X-49482210Y-12296672D01*
X-49510962Y-12428843D01*
X-49530355Y-12700000D01*
X-49510961Y-12971161D01*
X-49453177Y-13236795D01*
X-49358173Y-13491511D01*
X-49358171Y-13491516D01*
X-49246989Y-13695130D01*
X-49222906Y-13780356D01*
X-49238186Y-13867591D01*
X-49289803Y-13939557D01*
X-49367533Y-13982001D01*
X-49421647Y-13989500D01*
X-50725777Y-13989500D01*
X-50812120Y-13969793D01*
X-50881361Y-13914574D01*
X-50919788Y-13834782D01*
X-50919788Y-13746218D01*
X-50898116Y-13691000D01*
X-50876652Y-13653822D01*
X-50786716Y-13498049D01*
X-50696394Y-13279993D01*
X-50635307Y-13052014D01*
X-50604500Y-12818011D01*
X-50604500Y-12581989D01*
X-50635307Y-12347986D01*
X-50696394Y-12120007D01*
X-50711520Y-12083491D01*
X-50726355Y-11996181D01*
X-50701838Y-11911078D01*
X-50642825Y-11845041D01*
X-50561003Y-11811149D01*
X-50472579Y-11816114D01*
G37*
G04 #@! TD.AperFunction*
G04 #@! TA.AperFunction,NonConductor*
G36*
X-27927880Y-19050207D02*
G01*
X-27858639Y-19105426D01*
X-27820212Y-19185218D01*
X-27820212Y-19273782D01*
X-27841884Y-19329000D01*
X-27953285Y-19521953D01*
X-27953286Y-19521955D01*
X-27989975Y-19610530D01*
X-28043606Y-19740007D01*
X-28104693Y-19967986D01*
X-28135500Y-20201989D01*
X-28135500Y-20438011D01*
X-28104693Y-20672014D01*
X-28104692Y-20672017D01*
X-28044677Y-20895998D01*
X-28043606Y-20899993D01*
X-27953284Y-21118049D01*
X-27887097Y-21232688D01*
X-27841884Y-21311000D01*
X-27815779Y-21395629D01*
X-27828979Y-21483203D01*
X-27878869Y-21556378D01*
X-27955567Y-21600659D01*
X-28014223Y-21609500D01*
X-36015500Y-21609500D01*
X-36101843Y-21589793D01*
X-36171084Y-21534574D01*
X-36209511Y-21454782D01*
X-36214500Y-21410500D01*
X-36214500Y-19229500D01*
X-36194793Y-19143157D01*
X-36139574Y-19073916D01*
X-36059782Y-19035489D01*
X-36015500Y-19030500D01*
X-28014223Y-19030500D01*
X-27927880Y-19050207D01*
G37*
G04 #@! TD.AperFunction*
G04 #@! TA.AperFunction,NonConductor*
G36*
X-21048157Y-31750207D02*
G01*
X-20978916Y-31805426D01*
X-20940489Y-31885218D01*
X-20935500Y-31929500D01*
X-20935500Y-35658416D01*
X-20904711Y-35852820D01*
X-20904709Y-35852828D01*
X-20843887Y-36040017D01*
X-20843887Y-36040018D01*
X-20843885Y-36040021D01*
X-20843884Y-36040025D01*
X-20792948Y-36139993D01*
X-20754523Y-36215407D01*
X-20705028Y-36283530D01*
X-20670220Y-36364967D01*
X-20674193Y-36453441D01*
X-20716161Y-36531430D01*
X-20787810Y-36583486D01*
X-20866022Y-36599500D01*
X-21567708Y-36599500D01*
X-21654051Y-36579793D01*
X-21723292Y-36524574D01*
X-21761719Y-36444782D01*
X-21761719Y-36356218D01*
X-21754161Y-36330956D01*
X-21666825Y-36096801D01*
X-21609039Y-35831160D01*
X-21589645Y-35560000D01*
X-21609039Y-35288840D01*
X-21666825Y-35023199D01*
X-21761828Y-34768487D01*
X-21777353Y-34740055D01*
X-21892112Y-34529888D01*
X-21892116Y-34529882D01*
X-22055033Y-34312253D01*
X-22247254Y-34120032D01*
X-22464883Y-33957115D01*
X-22464889Y-33957111D01*
X-22703484Y-33826829D01*
X-22703489Y-33826827D01*
X-22835027Y-33777766D01*
X-22958199Y-33731825D01*
X-22958201Y-33731824D01*
X-22958205Y-33731823D01*
X-23223839Y-33674039D01*
X-23359420Y-33664342D01*
X-23495000Y-33654645D01*
X-23495001Y-33654645D01*
X-23772964Y-33674525D01*
X-23860493Y-33661028D01*
X-23933497Y-33610889D01*
X-23977517Y-33534041D01*
X-23983835Y-33445703D01*
X-23979382Y-33424540D01*
X-23965307Y-33372014D01*
X-23934500Y-33138011D01*
X-23934500Y-32901989D01*
X-23965307Y-32667986D01*
X-24026394Y-32440007D01*
X-24116716Y-32221951D01*
X-24228116Y-32029000D01*
X-24254221Y-31944371D01*
X-24241021Y-31856797D01*
X-24191131Y-31783622D01*
X-24114433Y-31739341D01*
X-24055777Y-31730500D01*
X-21134500Y-31730500D01*
X-21048157Y-31750207D01*
G37*
G04 #@! TD.AperFunction*
G04 #@! TA.AperFunction,NonConductor*
G36*
X-27927880Y-29210207D02*
G01*
X-27858639Y-29265426D01*
X-27820212Y-29345218D01*
X-27820212Y-29433782D01*
X-27841884Y-29489000D01*
X-27953284Y-29681951D01*
X-28043606Y-29900007D01*
X-28104693Y-30127986D01*
X-28135500Y-30361989D01*
X-28135500Y-30598011D01*
X-28104693Y-30832014D01*
X-28104692Y-30832017D01*
X-28049994Y-31036155D01*
X-28043606Y-31059993D01*
X-27953284Y-31278049D01*
X-27940642Y-31299945D01*
X-27835275Y-31482447D01*
X-27835273Y-31482451D01*
X-27722932Y-31628858D01*
X-27686005Y-31709355D01*
X-27687662Y-31797903D01*
X-27722932Y-31871142D01*
X-27835273Y-32017548D01*
X-27835275Y-32017552D01*
X-27953285Y-32221953D01*
X-27953286Y-32221955D01*
X-28043607Y-32440009D01*
X-28074500Y-32555304D01*
X-28104693Y-32667986D01*
X-28135500Y-32901989D01*
X-28135500Y-33138011D01*
X-28104693Y-33372014D01*
X-28104692Y-33372017D01*
X-28046812Y-33588030D01*
X-28043606Y-33599993D01*
X-27953284Y-33818049D01*
X-27872996Y-33957111D01*
X-27835275Y-34022447D01*
X-27835273Y-34022451D01*
X-27722932Y-34168858D01*
X-27686005Y-34249355D01*
X-27687662Y-34337903D01*
X-27722932Y-34411142D01*
X-27835273Y-34557548D01*
X-27835275Y-34557552D01*
X-27953285Y-34761953D01*
X-27953286Y-34761955D01*
X-28043607Y-34980009D01*
X-28080745Y-35118612D01*
X-28104693Y-35207986D01*
X-28135500Y-35441989D01*
X-28135500Y-35678011D01*
X-28104693Y-35912014D01*
X-28043606Y-36139993D01*
X-27969481Y-36318947D01*
X-27967244Y-36324346D01*
X-27952409Y-36411658D01*
X-27976926Y-36496760D01*
X-28035940Y-36562796D01*
X-28117762Y-36596688D01*
X-28151096Y-36599500D01*
X-31868092Y-36599500D01*
X-32101363Y-36636445D01*
X-32101371Y-36636447D01*
X-32144006Y-36650301D01*
X-32232213Y-36658240D01*
X-32315129Y-36627121D01*
X-32376331Y-36563108D01*
X-32403699Y-36478879D01*
X-32404500Y-36461041D01*
X-32404500Y-29389500D01*
X-32384793Y-29303157D01*
X-32329574Y-29233916D01*
X-32249782Y-29195489D01*
X-32205500Y-29190500D01*
X-28014223Y-29190500D01*
X-27927880Y-29210207D01*
G37*
G04 #@! TD.AperFunction*
G04 #@! TA.AperFunction,NonConductor*
G36*
X-15438399Y-39620207D02*
G01*
X-15399156Y-39645133D01*
X-15298917Y-39726683D01*
X-15209413Y-39799500D01*
X-15184148Y-39820054D01*
X-15184143Y-39820058D01*
X-14938625Y-39969361D01*
X-14675064Y-40083842D01*
X-14675060Y-40083843D01*
X-14675058Y-40083844D01*
X-14622313Y-40098622D01*
X-14589285Y-40107876D01*
X-14552631Y-40122185D01*
X-14545992Y-40125568D01*
X-14321368Y-40198553D01*
X-14321366Y-40198553D01*
X-14321363Y-40198554D01*
X-14088092Y-40235500D01*
X-13851908Y-40235500D01*
X-13618631Y-40198553D01*
X-13394008Y-40125568D01*
X-13387376Y-40122188D01*
X-13350716Y-40107876D01*
X-13264942Y-40083844D01*
X-13210063Y-40060007D01*
X-13001380Y-39969363D01*
X-13001381Y-39969363D01*
X-13001375Y-39969361D01*
X-12977898Y-39955083D01*
X-12893889Y-39927059D01*
X-12806036Y-39938260D01*
X-12731744Y-39986469D01*
X-12685727Y-40062139D01*
X-12675500Y-40125112D01*
X-12675500Y-43090776D01*
X-12695207Y-43177119D01*
X-12750426Y-43246360D01*
X-12830218Y-43284787D01*
X-12918782Y-43284787D01*
X-12973999Y-43263116D01*
X-13122952Y-43177119D01*
X-13166951Y-43151716D01*
X-13166954Y-43151714D01*
X-13166957Y-43151713D01*
X-13383571Y-43061989D01*
X-13385007Y-43061394D01*
X-13385009Y-43061393D01*
X-13385010Y-43061393D01*
X-13498997Y-43030850D01*
X-13612986Y-43000307D01*
X-13846989Y-42969500D01*
X-14083011Y-42969500D01*
X-14317014Y-43000307D01*
X-14317018Y-43000307D01*
X-14317018Y-43000308D01*
X-14544991Y-43061393D01*
X-14763045Y-43151714D01*
X-14763047Y-43151715D01*
X-14967448Y-43269725D01*
X-14967452Y-43269727D01*
X-15113858Y-43382068D01*
X-15194355Y-43418995D01*
X-15282903Y-43417338D01*
X-15356142Y-43382068D01*
X-15502549Y-43269727D01*
X-15502553Y-43269725D01*
X-15578064Y-43226129D01*
X-15706951Y-43151716D01*
X-15925007Y-43061394D01*
X-15925009Y-43061393D01*
X-15925010Y-43061393D01*
X-16038997Y-43030850D01*
X-16152986Y-43000307D01*
X-16386989Y-42969500D01*
X-16623011Y-42969500D01*
X-16857014Y-43000307D01*
X-16857018Y-43000307D01*
X-16857018Y-43000308D01*
X-17084993Y-43061393D01*
X-17084995Y-43061394D01*
X-17269347Y-43137755D01*
X-17356659Y-43152590D01*
X-17441761Y-43128072D01*
X-17507797Y-43069058D01*
X-17541688Y-42987236D01*
X-17544500Y-42953903D01*
X-17544500Y-39891907D01*
X-17547050Y-39875807D01*
X-17549500Y-39844678D01*
X-17549500Y-39799500D01*
X-17529793Y-39713157D01*
X-17474574Y-39643916D01*
X-17394782Y-39605489D01*
X-17350500Y-39600500D01*
X-15524742Y-39600500D01*
X-15438399Y-39620207D01*
G37*
G04 #@! TD.AperFunction*
G04 #@! TA.AperFunction,NonConductor*
G36*
X-37558157Y-43815207D02*
G01*
X-37488916Y-43870426D01*
X-37450489Y-43950218D01*
X-37445500Y-43994500D01*
X-37445500Y-44270500D01*
X-37465207Y-44356843D01*
X-37520426Y-44426084D01*
X-37600218Y-44464511D01*
X-37644500Y-44469500D01*
X-39441612Y-44469500D01*
X-39527955Y-44449793D01*
X-39597196Y-44394574D01*
X-39635623Y-44314782D01*
X-39635623Y-44226218D01*
X-39597196Y-44146426D01*
X-39560869Y-44111193D01*
X-39495452Y-44062221D01*
X-39392258Y-43984971D01*
X-39261072Y-43853784D01*
X-39186085Y-43806667D01*
X-39120359Y-43795500D01*
X-37644500Y-43795500D01*
X-37558157Y-43815207D01*
G37*
G04 #@! TD.AperFunction*
G04 #@! TA.AperFunction,NonConductor*
G36*
X-38851426Y-9908818D02*
G01*
X-38834786Y-9923688D01*
X-35104653Y-13653822D01*
X-35104651Y-13653823D01*
X-35104646Y-13653828D01*
X-34999649Y-13730113D01*
X-34945401Y-13769527D01*
X-34770039Y-13858878D01*
X-34770032Y-13858880D01*
X-34770026Y-13858884D01*
X-34586634Y-13918471D01*
X-34586632Y-13918473D01*
X-34582837Y-13919706D01*
X-34582832Y-13919707D01*
X-34582826Y-13919709D01*
X-34388417Y-13950500D01*
X-34388416Y-13950500D01*
X-34191583Y-13950500D01*
X-28014223Y-13950500D01*
X-27927880Y-13970207D01*
X-27858639Y-14025426D01*
X-27820212Y-14105218D01*
X-27820212Y-14193782D01*
X-27841884Y-14249000D01*
X-27953284Y-14441951D01*
X-28043606Y-14660007D01*
X-28104693Y-14887986D01*
X-28135500Y-15121989D01*
X-28135500Y-15358011D01*
X-28104693Y-15592014D01*
X-28043606Y-15819993D01*
X-27953284Y-16038049D01*
X-27877064Y-16170067D01*
X-27841884Y-16231000D01*
X-27815779Y-16315629D01*
X-27828979Y-16403203D01*
X-27878869Y-16476378D01*
X-27955567Y-16520659D01*
X-28014223Y-16529500D01*
X-37563417Y-16529500D01*
X-37757821Y-16560289D01*
X-37757829Y-16560291D01*
X-37945018Y-16621113D01*
X-37945019Y-16621113D01*
X-38120408Y-16710477D01*
X-38241844Y-16798706D01*
X-38279646Y-16826172D01*
X-38279648Y-16826173D01*
X-38279651Y-16826176D01*
X-38279653Y-16826177D01*
X-38418823Y-16965347D01*
X-38418824Y-16965349D01*
X-38418827Y-16965352D01*
X-38418828Y-16965354D01*
X-38430289Y-16981129D01*
X-38534523Y-17124592D01*
X-38623887Y-17299981D01*
X-38623887Y-17299982D01*
X-38684709Y-17487171D01*
X-38684711Y-17487179D01*
X-38715500Y-17681583D01*
X-38715500Y-41095500D01*
X-38735207Y-41181843D01*
X-38790426Y-41251084D01*
X-38870218Y-41289511D01*
X-38914500Y-41294500D01*
X-39120359Y-41294500D01*
X-39206702Y-41274793D01*
X-39261071Y-41236216D01*
X-39392258Y-41105029D01*
X-39404987Y-41095500D01*
X-39609883Y-40942115D01*
X-39609889Y-40942111D01*
X-39848484Y-40811829D01*
X-39848489Y-40811827D01*
X-40045309Y-40738417D01*
X-40103199Y-40716825D01*
X-40103201Y-40716824D01*
X-40103205Y-40716823D01*
X-40368839Y-40659039D01*
X-40640000Y-40639645D01*
X-40911162Y-40659039D01*
X-41176796Y-40716823D01*
X-41431512Y-40811827D01*
X-41431517Y-40811829D01*
X-41670112Y-40942111D01*
X-41670118Y-40942115D01*
X-41887747Y-41105032D01*
X-42079968Y-41297253D01*
X-42242885Y-41514882D01*
X-42242889Y-41514888D01*
X-42373171Y-41753483D01*
X-42373173Y-41753488D01*
X-42468177Y-42008204D01*
X-42525961Y-42273838D01*
X-42545355Y-42545000D01*
X-42525961Y-42816161D01*
X-42468177Y-43081795D01*
X-42468176Y-43081799D01*
X-42468175Y-43081801D01*
X-42447305Y-43137755D01*
X-42373173Y-43336511D01*
X-42373171Y-43336516D01*
X-42242889Y-43575111D01*
X-42242885Y-43575117D01*
X-42079968Y-43792746D01*
X-41887747Y-43984967D01*
X-41719131Y-44111193D01*
X-41661820Y-44178713D01*
X-41639481Y-44264413D01*
X-41656538Y-44351318D01*
X-41709612Y-44422216D01*
X-41788192Y-44463065D01*
X-41838388Y-44469500D01*
X-50725777Y-44469500D01*
X-50812120Y-44449793D01*
X-50881361Y-44394574D01*
X-50919788Y-44314782D01*
X-50919788Y-44226218D01*
X-50898116Y-44171000D01*
X-50863587Y-44111193D01*
X-50786716Y-43978049D01*
X-50696394Y-43759993D01*
X-50635307Y-43532014D01*
X-50604500Y-43298011D01*
X-50604500Y-43061989D01*
X-50635307Y-42827986D01*
X-50696394Y-42600007D01*
X-50786716Y-42381951D01*
X-50898116Y-42189000D01*
X-50924221Y-42104371D01*
X-50911021Y-42016797D01*
X-50861131Y-41943622D01*
X-50784433Y-41899341D01*
X-50725777Y-41890500D01*
X-49431583Y-41890500D01*
X-49237180Y-41859710D01*
X-49237180Y-41859709D01*
X-49237174Y-41859709D01*
X-49049975Y-41798884D01*
X-48874595Y-41709524D01*
X-48715354Y-41593828D01*
X-48576172Y-41454646D01*
X-48460476Y-41295405D01*
X-48371116Y-41120025D01*
X-48310291Y-40932826D01*
X-48279500Y-40738417D01*
X-48279500Y-37079641D01*
X-48259793Y-36993298D01*
X-48221217Y-36938929D01*
X-48090029Y-36807742D01*
X-47927113Y-36590113D01*
X-47796828Y-36351513D01*
X-47701825Y-36096801D01*
X-47644039Y-35831160D01*
X-47624645Y-35560000D01*
X-47644039Y-35288840D01*
X-47701825Y-35023199D01*
X-47796828Y-34768487D01*
X-47812354Y-34740054D01*
X-47908011Y-34564870D01*
X-47932094Y-34479644D01*
X-47916814Y-34392409D01*
X-47865197Y-34320443D01*
X-47787467Y-34277999D01*
X-47733353Y-34270500D01*
X-43254223Y-34270500D01*
X-43167880Y-34290207D01*
X-43098639Y-34345426D01*
X-43060212Y-34425218D01*
X-43060212Y-34513782D01*
X-43081884Y-34569000D01*
X-43193285Y-34761953D01*
X-43193286Y-34761955D01*
X-43283607Y-34980009D01*
X-43320745Y-35118612D01*
X-43344693Y-35207986D01*
X-43375500Y-35441989D01*
X-43375500Y-35678011D01*
X-43344693Y-35912014D01*
X-43283606Y-36139993D01*
X-43193284Y-36358049D01*
X-43126736Y-36473314D01*
X-43075275Y-36562447D01*
X-43075273Y-36562451D01*
X-42962932Y-36708858D01*
X-42926005Y-36789355D01*
X-42927662Y-36877903D01*
X-42962932Y-36951142D01*
X-43075273Y-37097548D01*
X-43075275Y-37097552D01*
X-43193285Y-37301953D01*
X-43193286Y-37301955D01*
X-43283607Y-37520009D01*
X-43314500Y-37635304D01*
X-43344693Y-37747986D01*
X-43375500Y-37981989D01*
X-43375500Y-38218011D01*
X-43344693Y-38452014D01*
X-43344692Y-38452017D01*
X-43286812Y-38668030D01*
X-43283606Y-38679993D01*
X-43193284Y-38898049D01*
X-43169759Y-38938795D01*
X-43075277Y-39102445D01*
X-42931590Y-39289702D01*
X-42764703Y-39456589D01*
X-42577446Y-39600276D01*
X-42510886Y-39638704D01*
X-42373049Y-39718284D01*
X-42154993Y-39808606D01*
X-41927014Y-39869693D01*
X-41693011Y-39900500D01*
X-41693008Y-39900500D01*
X-40856992Y-39900500D01*
X-40856989Y-39900500D01*
X-40622986Y-39869693D01*
X-40395007Y-39808606D01*
X-40176951Y-39718284D01*
X-39972550Y-39600273D01*
X-39785301Y-39456592D01*
X-39618408Y-39289699D01*
X-39474727Y-39102450D01*
X-39356716Y-38898049D01*
X-39266394Y-38679993D01*
X-39205307Y-38452014D01*
X-39174500Y-38218011D01*
X-39174500Y-37981989D01*
X-39205307Y-37747986D01*
X-39266394Y-37520007D01*
X-39356716Y-37301951D01*
X-39430560Y-37174049D01*
X-39474724Y-37097554D01*
X-39587069Y-36951143D01*
X-39623996Y-36870646D01*
X-39622340Y-36782098D01*
X-39587069Y-36708857D01*
X-39474727Y-36562450D01*
X-39356716Y-36358049D01*
X-39266394Y-36139993D01*
X-39205307Y-35912014D01*
X-39174500Y-35678011D01*
X-39174500Y-35441989D01*
X-39205307Y-35207986D01*
X-39266394Y-34980007D01*
X-39356716Y-34761951D01*
X-39468116Y-34569000D01*
X-39474724Y-34557554D01*
X-39587069Y-34411143D01*
X-39623996Y-34330646D01*
X-39622340Y-34242098D01*
X-39587069Y-34168857D01*
X-39576269Y-34154782D01*
X-39474727Y-34022450D01*
X-39472704Y-34018947D01*
X-39437004Y-33957111D01*
X-39356716Y-33818049D01*
X-39266394Y-33599993D01*
X-39205307Y-33372014D01*
X-39174500Y-33138011D01*
X-39174500Y-32901989D01*
X-39205307Y-32667986D01*
X-39266394Y-32440007D01*
X-39356716Y-32221951D01*
X-39468116Y-32029000D01*
X-39474724Y-32017554D01*
X-39587069Y-31871143D01*
X-39623996Y-31790646D01*
X-39622340Y-31702098D01*
X-39587069Y-31628857D01*
X-39474727Y-31482450D01*
X-39356716Y-31278049D01*
X-39266394Y-31059993D01*
X-39205307Y-30832014D01*
X-39174500Y-30598011D01*
X-39174500Y-30361989D01*
X-39205307Y-30127986D01*
X-39266394Y-29900007D01*
X-39356716Y-29681951D01*
X-39468116Y-29489000D01*
X-39474724Y-29477554D01*
X-39587069Y-29331143D01*
X-39623996Y-29250646D01*
X-39622340Y-29162098D01*
X-39587069Y-29088857D01*
X-39542290Y-29030500D01*
X-39474727Y-28942450D01*
X-39356716Y-28738049D01*
X-39266394Y-28519993D01*
X-39205307Y-28292014D01*
X-39174500Y-28058011D01*
X-39174500Y-27821989D01*
X-39205307Y-27587986D01*
X-39266394Y-27360007D01*
X-39356716Y-27141951D01*
X-39430560Y-27014049D01*
X-39474724Y-26937554D01*
X-39587069Y-26791143D01*
X-39623996Y-26710646D01*
X-39622340Y-26622098D01*
X-39587069Y-26548857D01*
X-39474727Y-26402450D01*
X-39356716Y-26198049D01*
X-39266394Y-25979993D01*
X-39205307Y-25752014D01*
X-39174500Y-25518011D01*
X-39174500Y-25281989D01*
X-39205307Y-25047986D01*
X-39266394Y-24820007D01*
X-39356716Y-24601951D01*
X-39430560Y-24474049D01*
X-39474724Y-24397554D01*
X-39587069Y-24251143D01*
X-39623996Y-24170646D01*
X-39622340Y-24082098D01*
X-39587069Y-24008857D01*
X-39544926Y-23953935D01*
X-39474727Y-23862450D01*
X-39356716Y-23658049D01*
X-39266394Y-23439993D01*
X-39205307Y-23212014D01*
X-39174500Y-22978011D01*
X-39174500Y-22741989D01*
X-39205307Y-22507986D01*
X-39266394Y-22280007D01*
X-39356716Y-22061951D01*
X-39446655Y-21906172D01*
X-39474724Y-21857554D01*
X-39474727Y-21857550D01*
X-39587070Y-21711142D01*
X-39623996Y-21630646D01*
X-39622340Y-21542098D01*
X-39587069Y-21468857D01*
X-39542290Y-21410500D01*
X-39474727Y-21322450D01*
X-39474059Y-21321294D01*
X-39460325Y-21297505D01*
X-39356716Y-21118049D01*
X-39266394Y-20899993D01*
X-39205307Y-20672014D01*
X-39174500Y-20438011D01*
X-39174500Y-20201989D01*
X-39205307Y-19967986D01*
X-39266394Y-19740007D01*
X-39356716Y-19521951D01*
X-39468008Y-19329187D01*
X-39474724Y-19317554D01*
X-39587069Y-19171143D01*
X-39623996Y-19090646D01*
X-39622340Y-19002098D01*
X-39587069Y-18928857D01*
X-39474727Y-18782450D01*
X-39356716Y-18578049D01*
X-39266394Y-18359993D01*
X-39205307Y-18132014D01*
X-39174500Y-17898011D01*
X-39174500Y-17661989D01*
X-39205307Y-17427986D01*
X-39266394Y-17200007D01*
X-39356716Y-16981951D01*
X-39446655Y-16826172D01*
X-39474724Y-16777554D01*
X-39587069Y-16631143D01*
X-39623996Y-16550646D01*
X-39622340Y-16462098D01*
X-39587069Y-16388857D01*
X-39474727Y-16242450D01*
X-39356716Y-16038049D01*
X-39266394Y-15819993D01*
X-39205307Y-15592014D01*
X-39174500Y-15358011D01*
X-39174500Y-15121989D01*
X-39205307Y-14887986D01*
X-39266394Y-14660007D01*
X-39356716Y-14441951D01*
X-39468116Y-14249000D01*
X-39474724Y-14237554D01*
X-39587069Y-14091143D01*
X-39623996Y-14010646D01*
X-39622340Y-13922098D01*
X-39587069Y-13848857D01*
X-39576269Y-13834782D01*
X-39474727Y-13702450D01*
X-39356716Y-13498049D01*
X-39266394Y-13279993D01*
X-39205307Y-13052014D01*
X-39174500Y-12818011D01*
X-39174500Y-12581989D01*
X-39205307Y-12347986D01*
X-39266394Y-12120007D01*
X-39356716Y-11901951D01*
X-39437005Y-11762887D01*
X-39474724Y-11697554D01*
X-39587069Y-11551143D01*
X-39623996Y-11470646D01*
X-39622340Y-11382098D01*
X-39587069Y-11308857D01*
X-39474727Y-11162450D01*
X-39356716Y-10958049D01*
X-39266394Y-10739993D01*
X-39205307Y-10512014D01*
X-39174500Y-10278011D01*
X-39174500Y-10064402D01*
X-39154793Y-9978059D01*
X-39099574Y-9908818D01*
X-39019782Y-9870391D01*
X-38931218Y-9870391D01*
X-38851426Y-9908818D01*
G37*
G04 #@! TD.AperFunction*
G04 #@! TA.AperFunction,NonConductor*
G36*
X-24928298Y-43815207D02*
G01*
X-24873927Y-43853786D01*
X-24803786Y-43923927D01*
X-24756667Y-43998915D01*
X-24745500Y-44064641D01*
X-24745500Y-47061612D01*
X-24765207Y-47147955D01*
X-24820426Y-47217196D01*
X-24900218Y-47255623D01*
X-24988782Y-47255623D01*
X-25068574Y-47217196D01*
X-25103807Y-47180869D01*
X-25230033Y-47012253D01*
X-25422254Y-46820032D01*
X-25639883Y-46657115D01*
X-25639889Y-46657111D01*
X-25878484Y-46526829D01*
X-25878489Y-46526827D01*
X-26048672Y-46463352D01*
X-26133199Y-46431825D01*
X-26133201Y-46431824D01*
X-26133205Y-46431823D01*
X-26398839Y-46374039D01*
X-26670000Y-46354645D01*
X-26941162Y-46374039D01*
X-27206796Y-46431823D01*
X-27461509Y-46526826D01*
X-27461512Y-46526827D01*
X-27461513Y-46526828D01*
X-27521712Y-46559699D01*
X-27665130Y-46638011D01*
X-27750357Y-46662093D01*
X-27837592Y-46646813D01*
X-27909558Y-46595196D01*
X-27952001Y-46517465D01*
X-27959500Y-46463352D01*
X-27959500Y-43994500D01*
X-27939793Y-43908157D01*
X-27884574Y-43838916D01*
X-27804782Y-43800489D01*
X-27760500Y-43795500D01*
X-25014641Y-43795500D01*
X-24928298Y-43815207D01*
G37*
G04 #@! TD.AperFunction*
G04 #@! TA.AperFunction,NonConductor*
G36*
X-36815304Y-46990207D02*
G01*
X-36746063Y-47045426D01*
X-36707636Y-47125218D01*
X-36707636Y-47213782D01*
X-36726989Y-47264870D01*
X-36838171Y-47468483D01*
X-36838173Y-47468488D01*
X-36933177Y-47723204D01*
X-36990961Y-47988838D01*
X-37010355Y-48260000D01*
X-36990961Y-48531161D01*
X-36933177Y-48796795D01*
X-36838173Y-49051511D01*
X-36838171Y-49051516D01*
X-36726989Y-49255130D01*
X-36702906Y-49340356D01*
X-36718186Y-49427591D01*
X-36769803Y-49499557D01*
X-36847533Y-49542001D01*
X-36901647Y-49549500D01*
X-50725777Y-49549500D01*
X-50812120Y-49529793D01*
X-50881361Y-49474574D01*
X-50919788Y-49394782D01*
X-50919788Y-49306218D01*
X-50898116Y-49251000D01*
X-50879933Y-49219504D01*
X-50786716Y-49058049D01*
X-50696394Y-48839993D01*
X-50635307Y-48612014D01*
X-50604500Y-48378011D01*
X-50604500Y-48141989D01*
X-50635307Y-47907986D01*
X-50696394Y-47680007D01*
X-50786716Y-47461951D01*
X-50898116Y-47269000D01*
X-50924221Y-47184371D01*
X-50911021Y-47096797D01*
X-50861131Y-47023622D01*
X-50784433Y-46979341D01*
X-50725777Y-46970500D01*
X-36901647Y-46970500D01*
X-36815304Y-46990207D01*
G37*
G04 #@! TD.AperFunction*
G04 #@! TA.AperFunction,NonConductor*
G36*
X-33432270Y-52050762D02*
G01*
X-33355242Y-52094468D01*
X-33304806Y-52167266D01*
X-33290500Y-52241355D01*
X-33290500Y-54824618D01*
X-33310207Y-54910961D01*
X-33317160Y-54924117D01*
X-33416745Y-55096604D01*
X-33515333Y-55347799D01*
X-33515336Y-55347811D01*
X-33519735Y-55367084D01*
X-33558162Y-55446876D01*
X-33627404Y-55502094D01*
X-33713747Y-55521800D01*
X-33800090Y-55502092D01*
X-33854459Y-55463514D01*
X-34582484Y-54735488D01*
X-34582486Y-54735487D01*
X-34582490Y-54735483D01*
X-34773566Y-54596657D01*
X-34773567Y-54596656D01*
X-34773569Y-54596655D01*
X-34984008Y-54489432D01*
X-34984014Y-54489430D01*
X-35208630Y-54416447D01*
X-35208638Y-54416445D01*
X-35441908Y-54379500D01*
X-35733216Y-54379500D01*
X-35819559Y-54359793D01*
X-35845317Y-54344921D01*
X-35887218Y-54316353D01*
X-35887223Y-54316350D01*
X-35887225Y-54316349D01*
X-35970391Y-54276298D01*
X-36130355Y-54199263D01*
X-36388233Y-54119718D01*
X-36655070Y-54079500D01*
X-36655071Y-54079500D01*
X-36924929Y-54079500D01*
X-36924930Y-54079500D01*
X-37191770Y-54119718D01*
X-37449636Y-54199260D01*
X-37449639Y-54199261D01*
X-37449641Y-54199262D01*
X-37520076Y-54233181D01*
X-37692774Y-54316348D01*
X-37734683Y-54344922D01*
X-37817125Y-54377278D01*
X-37846783Y-54379500D01*
X-42581881Y-54379500D01*
X-42668224Y-54359793D01*
X-42701138Y-54339807D01*
X-42784883Y-54277115D01*
X-42784889Y-54277111D01*
X-43023484Y-54146829D01*
X-43023489Y-54146827D01*
X-43204000Y-54079500D01*
X-43278199Y-54051825D01*
X-43278201Y-54051824D01*
X-43278205Y-54051823D01*
X-43543839Y-53994039D01*
X-43815000Y-53974645D01*
X-44086162Y-53994039D01*
X-44351796Y-54051823D01*
X-44606512Y-54146827D01*
X-44606517Y-54146829D01*
X-44845112Y-54277111D01*
X-44845118Y-54277115D01*
X-44928862Y-54339807D01*
X-45009793Y-54375774D01*
X-45048119Y-54379500D01*
X-45697708Y-54379500D01*
X-45784051Y-54359793D01*
X-45853292Y-54304574D01*
X-45891719Y-54224782D01*
X-45891719Y-54136218D01*
X-45884161Y-54110956D01*
X-45796825Y-53876801D01*
X-45739039Y-53611160D01*
X-45719645Y-53340000D01*
X-45739039Y-53068840D01*
X-45796825Y-52803199D01*
X-45891828Y-52548487D01*
X-46003012Y-52344869D01*
X-46027094Y-52259644D01*
X-46011814Y-52172409D01*
X-45960197Y-52100443D01*
X-45882467Y-52057999D01*
X-45828353Y-52050500D01*
X-33556587Y-52050500D01*
X-33556583Y-52050500D01*
X-33520628Y-52044805D01*
X-33432270Y-52050762D01*
G37*
G04 #@! TD.AperFunction*
G04 #@! TA.AperFunction,NonConductor*
G36*
X-42480949Y-57400207D02*
G01*
X-42411708Y-57455426D01*
X-42373281Y-57535218D01*
X-42373281Y-57623782D01*
X-42380838Y-57649038D01*
X-42432116Y-57786522D01*
X-42468177Y-57883204D01*
X-42525961Y-58148838D01*
X-42542144Y-58375105D01*
X-42567961Y-58459822D01*
X-42627978Y-58524948D01*
X-42710309Y-58557583D01*
X-42798647Y-58551265D01*
X-42875495Y-58507245D01*
X-42881351Y-58501622D01*
X-43348104Y-58034869D01*
X-43395223Y-57959881D01*
X-43405139Y-57871874D01*
X-43375888Y-57788281D01*
X-43313264Y-57725657D01*
X-43276940Y-57707705D01*
X-43023487Y-57613172D01*
X-42784887Y-57482887D01*
X-42701138Y-57420193D01*
X-42620207Y-57384226D01*
X-42581881Y-57380500D01*
X-42567292Y-57380500D01*
X-42480949Y-57400207D01*
G37*
G04 #@! TD.AperFunction*
G04 #@! TA.AperFunction,NonConductor*
G36*
X-24863682Y-49276537D02*
G01*
X-24792784Y-49329611D01*
X-24751935Y-49408191D01*
X-24745500Y-49458387D01*
X-24745500Y-60423416D01*
X-24714711Y-60617820D01*
X-24714709Y-60617828D01*
X-24653887Y-60805019D01*
X-24653879Y-60805038D01*
X-24564528Y-60980400D01*
X-24564524Y-60980405D01*
X-24448828Y-61139646D01*
X-24448824Y-61139650D01*
X-24448823Y-61139652D01*
X-21134653Y-64453822D01*
X-21134651Y-64453823D01*
X-21134646Y-64453828D01*
X-20985627Y-64562097D01*
X-20975401Y-64569527D01*
X-20800039Y-64658878D01*
X-20800035Y-64658879D01*
X-20800026Y-64658884D01*
X-20705187Y-64689699D01*
X-20612826Y-64719709D01*
X-20612824Y-64719709D01*
X-20612821Y-64719710D01*
X-20418417Y-64750500D01*
X-16552634Y-64750500D01*
X-16466291Y-64770207D01*
X-16397050Y-64825426D01*
X-16361312Y-64894756D01*
X-16338911Y-64973045D01*
X-16244697Y-65153409D01*
X-16244694Y-65153413D01*
X-16195286Y-65214007D01*
X-16155996Y-65293377D01*
X-16155034Y-65381935D01*
X-16192592Y-65462141D01*
X-16195283Y-65465516D01*
X-16224695Y-65501588D01*
X-16224697Y-65501590D01*
X-16318911Y-65681954D01*
X-16341312Y-65760244D01*
X-16384012Y-65837834D01*
X-16456148Y-65889214D01*
X-16532634Y-65904500D01*
X-22414598Y-65904500D01*
X-22500941Y-65884793D01*
X-22555312Y-65846214D01*
X-24811214Y-63590312D01*
X-24858333Y-63515324D01*
X-24869500Y-63449598D01*
X-24869500Y-63081991D01*
X-24869500Y-63081989D01*
X-24900307Y-62847986D01*
X-24961394Y-62620007D01*
X-25051716Y-62401951D01*
X-25138141Y-62252258D01*
X-25169724Y-62197554D01*
X-25313411Y-62010297D01*
X-25361214Y-61962494D01*
X-25408333Y-61887506D01*
X-25419500Y-61821780D01*
X-25419500Y-49779641D01*
X-25399793Y-49693298D01*
X-25361217Y-49638929D01*
X-25230029Y-49507742D01*
X-25103807Y-49339129D01*
X-25036287Y-49281819D01*
X-24950588Y-49259480D01*
X-24863682Y-49276537D01*
G37*
G04 #@! TD.AperFunction*
G04 #@! TA.AperFunction,NonConductor*
G36*
X-38648157Y-59690207D02*
G01*
X-38578916Y-59745426D01*
X-38540489Y-59825218D01*
X-38535500Y-59869500D01*
X-38535500Y-70622045D01*
X-38555207Y-70708388D01*
X-38610426Y-70777629D01*
X-38690218Y-70816056D01*
X-38778782Y-70816056D01*
X-38858574Y-70777629D01*
X-38875214Y-70762759D01*
X-39972965Y-69665008D01*
X-40020084Y-69590020D01*
X-40026703Y-69566593D01*
X-40081823Y-69313205D01*
X-40081825Y-69313199D01*
X-40176828Y-69058487D01*
X-40227270Y-68966109D01*
X-40307112Y-68819888D01*
X-40307115Y-68819884D01*
X-40369808Y-68736136D01*
X-40405775Y-68655205D01*
X-40409500Y-68616880D01*
X-40409500Y-61476908D01*
X-40446446Y-61243637D01*
X-40446448Y-61243629D01*
X-40519431Y-61019012D01*
X-40519432Y-61019008D01*
X-40599644Y-60861583D01*
X-40626657Y-60808566D01*
X-40750426Y-60638214D01*
X-40785233Y-60556780D01*
X-40781260Y-60468306D01*
X-40739293Y-60390317D01*
X-40667644Y-60338260D01*
X-40603631Y-60322753D01*
X-40368840Y-60305961D01*
X-40103199Y-60248175D01*
X-39848487Y-60153172D01*
X-39609887Y-60022887D01*
X-39392258Y-59859971D01*
X-39261072Y-59728784D01*
X-39186085Y-59681667D01*
X-39120359Y-59670500D01*
X-38734500Y-59670500D01*
X-38648157Y-59690207D01*
G37*
G04 #@! TD.AperFunction*
G04 #@! TA.AperFunction,NonConductor*
G36*
X-27892098Y-65152660D02*
G01*
X-27818858Y-65187930D01*
X-27709501Y-65271843D01*
X-27672446Y-65300276D01*
X-27611170Y-65335653D01*
X-27468049Y-65418284D01*
X-27249993Y-65508606D01*
X-27022014Y-65569693D01*
X-26788011Y-65600500D01*
X-26788008Y-65600500D01*
X-26551987Y-65600500D01*
X-26529201Y-65597499D01*
X-26460168Y-65588411D01*
X-26371995Y-65596678D01*
X-26296137Y-65642385D01*
X-26293480Y-65644994D01*
X-23968828Y-67969646D01*
X-23829646Y-68108828D01*
X-23670405Y-68224524D01*
X-23495025Y-68313884D01*
X-23495020Y-68313885D01*
X-23495019Y-68313886D01*
X-23385411Y-68349500D01*
X-23307826Y-68374709D01*
X-23307824Y-68374709D01*
X-23307821Y-68374710D01*
X-23113417Y-68405500D01*
X-23113416Y-68405500D01*
X-22916583Y-68405500D01*
X-16532634Y-68405500D01*
X-16446291Y-68425207D01*
X-16377050Y-68480426D01*
X-16341312Y-68549756D01*
X-16318911Y-68628045D01*
X-16318910Y-68628048D01*
X-16318909Y-68628049D01*
X-16224698Y-68808407D01*
X-16096109Y-68966109D01*
X-15938407Y-69094698D01*
X-15758049Y-69188909D01*
X-15562418Y-69244886D01*
X-15443037Y-69255500D01*
X-13726964Y-69255499D01*
X-13607582Y-69244886D01*
X-13549246Y-69228194D01*
X-13460813Y-69223387D01*
X-13379052Y-69257426D01*
X-13320158Y-69323569D01*
X-13295793Y-69408715D01*
X-13295500Y-69419515D01*
X-13295500Y-71660500D01*
X-13315207Y-71746843D01*
X-13370426Y-71816084D01*
X-13450218Y-71854511D01*
X-13494500Y-71859500D01*
X-15763027Y-71859500D01*
X-15763055Y-71859502D01*
X-15882416Y-71870113D01*
X-16078048Y-71926090D01*
X-16238365Y-72009832D01*
X-16324020Y-72032340D01*
X-16410959Y-72015455D01*
X-16481962Y-71962521D01*
X-16522966Y-71884022D01*
X-16529500Y-71833446D01*
X-16529500Y-71472686D01*
X-16521255Y-71420631D01*
X-16522116Y-71420425D01*
X-16520295Y-71412836D01*
X-16520291Y-71412826D01*
X-16489500Y-71218416D01*
X-16489500Y-71021583D01*
X-16520290Y-70827178D01*
X-16520292Y-70827170D01*
X-16580617Y-70641511D01*
X-16581116Y-70639974D01*
X-16670476Y-70464594D01*
X-16670480Y-70464588D01*
X-16786167Y-70305358D01*
X-16786173Y-70305351D01*
X-16925352Y-70166172D01*
X-16925359Y-70166166D01*
X-17084589Y-70050479D01*
X-17084592Y-70050477D01*
X-17084594Y-70050476D01*
X-17259974Y-69961116D01*
X-17259978Y-69961115D01*
X-17259981Y-69961113D01*
X-17447171Y-69900291D01*
X-17447179Y-69900289D01*
X-17641583Y-69869500D01*
X-22761583Y-69869500D01*
X-22958417Y-69869500D01*
X-23152821Y-69900289D01*
X-23152829Y-69900291D01*
X-23340018Y-69961113D01*
X-23340019Y-69961113D01*
X-23515408Y-70050477D01*
X-23607724Y-70117550D01*
X-23674646Y-70166172D01*
X-23674648Y-70166173D01*
X-23674651Y-70166176D01*
X-23674653Y-70166177D01*
X-23813823Y-70305347D01*
X-23813824Y-70305349D01*
X-23929523Y-70464592D01*
X-24018887Y-70639981D01*
X-24018887Y-70639982D01*
X-24079709Y-70827171D01*
X-24079711Y-70827179D01*
X-24110500Y-71021583D01*
X-24110500Y-71077044D01*
X-24130207Y-71163387D01*
X-24185426Y-71232628D01*
X-24265218Y-71271055D01*
X-24353782Y-71271055D01*
X-24433574Y-71232628D01*
X-24450214Y-71217758D01*
X-26962484Y-68705488D01*
X-26962486Y-68705487D01*
X-26962490Y-68705483D01*
X-27153566Y-68566657D01*
X-27153567Y-68566656D01*
X-27153569Y-68566655D01*
X-27364008Y-68459432D01*
X-27364014Y-68459430D01*
X-27588630Y-68386447D01*
X-27588638Y-68386445D01*
X-27821908Y-68349500D01*
X-30050500Y-68349500D01*
X-30136843Y-68329793D01*
X-30206084Y-68274574D01*
X-30244511Y-68194782D01*
X-30249500Y-68150500D01*
X-30249500Y-65616096D01*
X-30229793Y-65529753D01*
X-30174574Y-65460512D01*
X-30094782Y-65422085D01*
X-30006218Y-65422085D01*
X-29974349Y-65432243D01*
X-29789993Y-65508606D01*
X-29562014Y-65569693D01*
X-29328011Y-65600500D01*
X-29328008Y-65600500D01*
X-29091992Y-65600500D01*
X-29091989Y-65600500D01*
X-28857986Y-65569693D01*
X-28630007Y-65508606D01*
X-28411951Y-65418284D01*
X-28207550Y-65300273D01*
X-28061143Y-65187930D01*
X-27980646Y-65151004D01*
X-27892098Y-65152660D01*
G37*
G04 #@! TD.AperFunction*
G04 #@! TA.AperFunction,NonConductor*
G36*
X-43846144Y-61816697D02*
G01*
X-43768414Y-61859140D01*
X-43759542Y-61867485D01*
X-43468786Y-62158241D01*
X-43421667Y-62233229D01*
X-43410500Y-62298955D01*
X-43410500Y-68616880D01*
X-43430207Y-68703223D01*
X-43450192Y-68736136D01*
X-43512886Y-68819884D01*
X-43512889Y-68819888D01*
X-43643171Y-69058483D01*
X-43643173Y-69058488D01*
X-43738177Y-69313204D01*
X-43795961Y-69578838D01*
X-43815355Y-69850000D01*
X-43795961Y-70121161D01*
X-43738177Y-70386795D01*
X-43643173Y-70641511D01*
X-43643171Y-70641516D01*
X-43512889Y-70880111D01*
X-43512885Y-70880117D01*
X-43349968Y-71097746D01*
X-43157747Y-71289967D01*
X-42940118Y-71452884D01*
X-42940115Y-71452886D01*
X-42940113Y-71452887D01*
X-42879757Y-71485843D01*
X-42813423Y-71544516D01*
X-42779114Y-71626164D01*
X-42783627Y-71714612D01*
X-42826070Y-71792343D01*
X-42898036Y-71843960D01*
X-42975127Y-71859500D01*
X-43063026Y-71859500D01*
X-43063055Y-71859502D01*
X-43182416Y-71870113D01*
X-43378046Y-71926089D01*
X-43558409Y-72020303D01*
X-43716109Y-72148891D01*
X-43844698Y-72306591D01*
X-43850248Y-72315015D01*
X-43852124Y-72313778D01*
X-43900088Y-72370052D01*
X-43981092Y-72405853D01*
X-44019017Y-72409500D01*
X-48080500Y-72409500D01*
X-48166843Y-72389793D01*
X-48236084Y-72334574D01*
X-48274511Y-72254782D01*
X-48279500Y-72210500D01*
X-48279500Y-65019641D01*
X-48259793Y-64933298D01*
X-48221217Y-64878929D01*
X-48090029Y-64747742D01*
X-47927113Y-64530113D01*
X-47796828Y-64291513D01*
X-47701825Y-64036801D01*
X-47644039Y-63771160D01*
X-47624645Y-63500000D01*
X-47644039Y-63228840D01*
X-47701825Y-62963199D01*
X-47796828Y-62708487D01*
X-47805191Y-62693172D01*
X-47908011Y-62504870D01*
X-47932094Y-62419644D01*
X-47916814Y-62332409D01*
X-47865197Y-62260443D01*
X-47787467Y-62217999D01*
X-47733353Y-62210500D01*
X-47239641Y-62210500D01*
X-47153298Y-62230207D01*
X-47098930Y-62268783D01*
X-46967742Y-62399971D01*
X-46941462Y-62419644D01*
X-46750118Y-62562884D01*
X-46750112Y-62562888D01*
X-46645502Y-62620009D01*
X-46511513Y-62693172D01*
X-46256801Y-62788175D01*
X-45991160Y-62845961D01*
X-45720000Y-62865355D01*
X-45448840Y-62845961D01*
X-45183199Y-62788175D01*
X-44928487Y-62693172D01*
X-44689887Y-62562887D01*
X-44472258Y-62399971D01*
X-44280029Y-62207742D01*
X-44117113Y-61990113D01*
X-44074913Y-61912827D01*
X-44016240Y-61846493D01*
X-43934593Y-61812184D01*
X-43846144Y-61816697D01*
G37*
G04 #@! TD.AperFunction*
G04 #@! TA.AperFunction,NonConductor*
G36*
X-50580063Y-74409548D02*
G01*
X-50503365Y-74453829D01*
X-50487393Y-74470472D01*
X-50483825Y-74474650D01*
X-50344653Y-74613822D01*
X-50344651Y-74613823D01*
X-50344646Y-74613828D01*
X-50185405Y-74729524D01*
X-50185403Y-74729525D01*
X-50139940Y-74752690D01*
X-50071955Y-74809448D01*
X-50035329Y-74890083D01*
X-50037316Y-74978624D01*
X-50077523Y-75057534D01*
X-50139940Y-75107310D01*
X-50185403Y-75130474D01*
X-50242683Y-75172091D01*
X-50344646Y-75246172D01*
X-50344648Y-75246173D01*
X-50344651Y-75246176D01*
X-50344653Y-75246177D01*
X-50483822Y-75385346D01*
X-50487399Y-75389535D01*
X-50558461Y-75442390D01*
X-50645418Y-75459179D01*
X-50731049Y-75436576D01*
X-50798392Y-75379058D01*
X-50811057Y-75359791D01*
X-50904721Y-75197558D01*
X-50904723Y-75197556D01*
X-50904726Y-75197553D01*
X-50904727Y-75197550D01*
X-51017070Y-75051142D01*
X-51053996Y-74970646D01*
X-51052340Y-74882098D01*
X-51017069Y-74808857D01*
X-50904727Y-74662450D01*
X-50811055Y-74500203D01*
X-50750820Y-74435286D01*
X-50668379Y-74402930D01*
X-50580063Y-74409548D01*
G37*
G04 #@! TD.AperFunction*
G04 #@! TA.AperFunction,NonConductor*
G36*
X-32064348Y-76903782D02*
G01*
X-32005333Y-76969817D01*
X-31980813Y-77054918D01*
X-31980500Y-77066081D01*
X-31980500Y-77873918D01*
X-32000207Y-77960261D01*
X-32055426Y-78029502D01*
X-32135218Y-78067929D01*
X-32223782Y-78067929D01*
X-32303574Y-78029502D01*
X-32358793Y-77960261D01*
X-32363352Y-77950072D01*
X-32366714Y-77941955D01*
X-32366715Y-77941954D01*
X-32366716Y-77941951D01*
X-32440560Y-77814049D01*
X-32484724Y-77737554D01*
X-32597069Y-77591143D01*
X-32633996Y-77510646D01*
X-32632340Y-77422098D01*
X-32597069Y-77348857D01*
X-32536195Y-77269524D01*
X-32484727Y-77202450D01*
X-32366716Y-76998049D01*
X-32363353Y-76989928D01*
X-32312106Y-76917701D01*
X-32234595Y-76874860D01*
X-32146171Y-76869892D01*
X-32064348Y-76903782D01*
G37*
G04 #@! TD.AperFunction*
G04 #@! TA.AperFunction,NonConductor*
G36*
X-32064348Y-79443782D02*
G01*
X-32005333Y-79509817D01*
X-31980813Y-79594918D01*
X-31980500Y-79606081D01*
X-31980500Y-80413918D01*
X-32000207Y-80500261D01*
X-32055426Y-80569502D01*
X-32135218Y-80607929D01*
X-32223782Y-80607929D01*
X-32303574Y-80569502D01*
X-32358793Y-80500261D01*
X-32363352Y-80490072D01*
X-32366714Y-80481955D01*
X-32366715Y-80481954D01*
X-32366716Y-80481951D01*
X-32456655Y-80326172D01*
X-32484724Y-80277554D01*
X-32597069Y-80131143D01*
X-32633996Y-80050646D01*
X-32632340Y-79962098D01*
X-32597069Y-79888857D01*
X-32563506Y-79845117D01*
X-32484727Y-79742450D01*
X-32366716Y-79538049D01*
X-32363353Y-79529928D01*
X-32312106Y-79457701D01*
X-32234595Y-79414860D01*
X-32146171Y-79409892D01*
X-32064348Y-79443782D01*
G37*
G04 #@! TD.AperFunction*
G04 #@! TA.AperFunction,NonConductor*
G36*
X-32064348Y-81983782D02*
G01*
X-32005333Y-82049817D01*
X-31980813Y-82134918D01*
X-31980500Y-82146081D01*
X-31980500Y-82953918D01*
X-32000207Y-83040261D01*
X-32055426Y-83109502D01*
X-32135218Y-83147929D01*
X-32223782Y-83147929D01*
X-32303574Y-83109502D01*
X-32358793Y-83040261D01*
X-32363352Y-83030072D01*
X-32366714Y-83021955D01*
X-32366715Y-83021954D01*
X-32366716Y-83021951D01*
X-32440560Y-82894049D01*
X-32484724Y-82817554D01*
X-32597069Y-82671143D01*
X-32633996Y-82590646D01*
X-32632340Y-82502098D01*
X-32597069Y-82428857D01*
X-32581344Y-82408364D01*
X-32484727Y-82282450D01*
X-32366716Y-82078049D01*
X-32363353Y-82069928D01*
X-32312106Y-81997701D01*
X-32234595Y-81954860D01*
X-32146171Y-81949892D01*
X-32064348Y-81983782D01*
G37*
G04 #@! TD.AperFunction*
G04 #@! TA.AperFunction,NonConductor*
G36*
X-32064348Y-84523782D02*
G01*
X-32005333Y-84589817D01*
X-31980813Y-84674918D01*
X-31980500Y-84686081D01*
X-31980500Y-85493918D01*
X-32000207Y-85580261D01*
X-32055426Y-85649502D01*
X-32135218Y-85687929D01*
X-32223782Y-85687929D01*
X-32303574Y-85649502D01*
X-32358793Y-85580261D01*
X-32363352Y-85570072D01*
X-32366714Y-85561955D01*
X-32366715Y-85561954D01*
X-32366716Y-85561951D01*
X-32456655Y-85406172D01*
X-32484724Y-85357554D01*
X-32597069Y-85211143D01*
X-32633996Y-85130646D01*
X-32632340Y-85042098D01*
X-32597069Y-84968857D01*
X-32536195Y-84889524D01*
X-32484727Y-84822450D01*
X-32366716Y-84618049D01*
X-32363353Y-84609928D01*
X-32312106Y-84537701D01*
X-32234595Y-84494860D01*
X-32146171Y-84489892D01*
X-32064348Y-84523782D01*
G37*
G04 #@! TD.AperFunction*
G04 #@! TA.AperFunction,NonConductor*
G36*
X-32064348Y-87063782D02*
G01*
X-32005333Y-87129817D01*
X-31980813Y-87214918D01*
X-31980500Y-87226081D01*
X-31980500Y-88033918D01*
X-32000207Y-88120261D01*
X-32055426Y-88189502D01*
X-32135218Y-88227929D01*
X-32223782Y-88227929D01*
X-32303574Y-88189502D01*
X-32358793Y-88120261D01*
X-32363352Y-88110072D01*
X-32366714Y-88101955D01*
X-32366715Y-88101954D01*
X-32366716Y-88101951D01*
X-32478116Y-87909000D01*
X-32484724Y-87897554D01*
X-32597069Y-87751143D01*
X-32633996Y-87670646D01*
X-32632340Y-87582098D01*
X-32597069Y-87508857D01*
X-32581343Y-87488362D01*
X-32484727Y-87362450D01*
X-32366716Y-87158049D01*
X-32363353Y-87149928D01*
X-32312106Y-87077701D01*
X-32234595Y-87034860D01*
X-32146171Y-87029892D01*
X-32064348Y-87063782D01*
G37*
G04 #@! TD.AperFunction*
G04 #@! TA.AperFunction,NonConductor*
G36*
X-32064348Y-89603782D02*
G01*
X-32005333Y-89669817D01*
X-31980813Y-89754918D01*
X-31980500Y-89766081D01*
X-31980500Y-90573918D01*
X-32000207Y-90660261D01*
X-32055426Y-90729502D01*
X-32135218Y-90767929D01*
X-32223782Y-90767929D01*
X-32303574Y-90729502D01*
X-32358793Y-90660261D01*
X-32363352Y-90650072D01*
X-32366714Y-90641955D01*
X-32366715Y-90641954D01*
X-32366716Y-90641951D01*
X-32440560Y-90514049D01*
X-32484724Y-90437554D01*
X-32597069Y-90291143D01*
X-32633996Y-90210646D01*
X-32632340Y-90122098D01*
X-32597069Y-90048857D01*
X-32484727Y-89902450D01*
X-32366716Y-89698049D01*
X-32363353Y-89689928D01*
X-32312106Y-89617701D01*
X-32234595Y-89574860D01*
X-32146171Y-89569892D01*
X-32064348Y-89603782D01*
G37*
G04 #@! TD.AperFunction*
G04 #@! TA.AperFunction,NonConductor*
G36*
X-32064348Y-92143782D02*
G01*
X-32005333Y-92209817D01*
X-31980813Y-92294918D01*
X-31980500Y-92306081D01*
X-31980500Y-93113918D01*
X-32000207Y-93200261D01*
X-32055426Y-93269502D01*
X-32135218Y-93307929D01*
X-32223782Y-93307929D01*
X-32303574Y-93269502D01*
X-32358793Y-93200261D01*
X-32363352Y-93190072D01*
X-32366714Y-93181955D01*
X-32366715Y-93181954D01*
X-32366716Y-93181951D01*
X-32440560Y-93054049D01*
X-32484724Y-92977554D01*
X-32552178Y-92889646D01*
X-32597070Y-92831142D01*
X-32633996Y-92750646D01*
X-32632340Y-92662098D01*
X-32597069Y-92588857D01*
X-32484727Y-92442450D01*
X-32366716Y-92238049D01*
X-32363353Y-92229928D01*
X-32312106Y-92157701D01*
X-32234595Y-92114860D01*
X-32146171Y-92109892D01*
X-32064348Y-92143782D01*
G37*
G04 #@! TD.AperFunction*
G04 #@! TA.AperFunction,NonConductor*
G36*
X-6026329Y-93205092D02*
G01*
X-5968561Y-93272221D01*
X-5945639Y-93357767D01*
X-5945500Y-93365207D01*
X-5945500Y-94867780D01*
X-5965207Y-94954123D01*
X-6020426Y-95023364D01*
X-6100218Y-95061791D01*
X-6188782Y-95061791D01*
X-6268574Y-95023364D01*
X-6285214Y-95008494D01*
X-6311214Y-94982494D01*
X-6358333Y-94907506D01*
X-6369500Y-94841780D01*
X-6369500Y-93881583D01*
X-6400290Y-93687179D01*
X-6400292Y-93687171D01*
X-6416325Y-93637826D01*
X-6461115Y-93499978D01*
X-6461116Y-93499974D01*
X-6464296Y-93493732D01*
X-6485937Y-93407853D01*
X-6468173Y-93321090D01*
X-6414523Y-93250626D01*
X-6338492Y-93211167D01*
X-6332996Y-93209694D01*
X-6332986Y-93209693D01*
X-6196001Y-93172987D01*
X-6107503Y-93169676D01*
X-6026329Y-93205092D01*
G37*
G04 #@! TD.AperFunction*
G04 #@! TA.AperFunction,NonConductor*
G36*
X-32064348Y-94683782D02*
G01*
X-32005333Y-94749817D01*
X-31980813Y-94834918D01*
X-31980500Y-94846081D01*
X-31980500Y-95286880D01*
X-32000207Y-95373223D01*
X-32020192Y-95406136D01*
X-32082886Y-95489884D01*
X-32082889Y-95489888D01*
X-32116150Y-95550802D01*
X-32174827Y-95617138D01*
X-32256475Y-95651446D01*
X-32344923Y-95646931D01*
X-32422653Y-95604486D01*
X-32463147Y-95554928D01*
X-32484724Y-95517555D01*
X-32484726Y-95517552D01*
X-32484727Y-95517550D01*
X-32597070Y-95371142D01*
X-32633996Y-95290646D01*
X-32632340Y-95202098D01*
X-32597069Y-95128857D01*
X-32484727Y-94982450D01*
X-32366716Y-94778049D01*
X-32363353Y-94769928D01*
X-32312106Y-94697701D01*
X-32234595Y-94654860D01*
X-32146171Y-94649892D01*
X-32064348Y-94683782D01*
G37*
G04 #@! TD.AperFunction*
G04 #@! TA.AperFunction,NonConductor*
G36*
X-36928417Y-95230500D02*
G01*
X-36731584Y-95230500D01*
X-36264223Y-95230500D01*
X-36177880Y-95250207D01*
X-36108639Y-95305426D01*
X-36070212Y-95385218D01*
X-36070212Y-95473782D01*
X-36091884Y-95529000D01*
X-36203285Y-95721953D01*
X-36203286Y-95721955D01*
X-36293607Y-95940009D01*
X-36305181Y-95983204D01*
X-36354693Y-96167986D01*
X-36385500Y-96401989D01*
X-36385500Y-96401991D01*
X-36385500Y-96638018D01*
X-36377402Y-96699525D01*
X-36385670Y-96787701D01*
X-36431378Y-96863558D01*
X-36505472Y-96912071D01*
X-36574699Y-96924500D01*
X-37035500Y-96924500D01*
X-37121843Y-96904793D01*
X-37191084Y-96849574D01*
X-37229511Y-96769782D01*
X-37234500Y-96725500D01*
X-37234500Y-95415020D01*
X-37214793Y-95328677D01*
X-37159574Y-95259436D01*
X-37079782Y-95221009D01*
X-37004372Y-95218470D01*
X-36928417Y-95230500D01*
G37*
G04 #@! TD.AperFunction*
G04 #@! TA.AperFunction,NonConductor*
G36*
X-28557612Y-71370207D02*
G01*
X-28503241Y-71408786D01*
X-27121322Y-72790705D01*
X-27074203Y-72865693D01*
X-27064287Y-72953700D01*
X-27076792Y-73004121D01*
X-27125333Y-73127801D01*
X-27125335Y-73127808D01*
X-27185383Y-73390893D01*
X-27205549Y-73660000D01*
X-27185383Y-73929106D01*
X-27131583Y-74164818D01*
X-27125334Y-74192195D01*
X-27026743Y-74443398D01*
X-27026741Y-74443401D01*
X-27026739Y-74443405D01*
X-26891818Y-74677098D01*
X-26891814Y-74677103D01*
X-26723564Y-74888082D01*
X-26723561Y-74888085D01*
X-26525741Y-75071635D01*
X-26302774Y-75223651D01*
X-26059641Y-75340738D01*
X-25801772Y-75420280D01*
X-25801771Y-75420280D01*
X-25801768Y-75420281D01*
X-25801771Y-75420281D01*
X-25534930Y-75460500D01*
X-25534929Y-75460500D01*
X-25265070Y-75460500D01*
X-24998233Y-75420281D01*
X-24998232Y-75420280D01*
X-24998228Y-75420280D01*
X-24740359Y-75340738D01*
X-24497225Y-75223651D01*
X-24421599Y-75172089D01*
X-24339161Y-75139735D01*
X-24250845Y-75146352D01*
X-24174147Y-75190633D01*
X-24124257Y-75263807D01*
X-24110500Y-75336512D01*
X-24110500Y-75639598D01*
X-24130207Y-75725941D01*
X-24168786Y-75780312D01*
X-25269688Y-76881214D01*
X-25344676Y-76928333D01*
X-25410402Y-76939500D01*
X-25494930Y-76939500D01*
X-25761770Y-76979718D01*
X-26019636Y-77059260D01*
X-26019639Y-77059261D01*
X-26019641Y-77059262D01*
X-26126697Y-77110817D01*
X-26262773Y-77176348D01*
X-26485740Y-77328364D01*
X-26683558Y-77511911D01*
X-26683564Y-77511917D01*
X-26851814Y-77722896D01*
X-26851818Y-77722901D01*
X-26986739Y-77956594D01*
X-26986741Y-77956598D01*
X-27085335Y-78207807D01*
X-27145383Y-78470893D01*
X-27165549Y-78740000D01*
X-27145383Y-79009106D01*
X-27085335Y-79272192D01*
X-27085334Y-79272195D01*
X-26986743Y-79523398D01*
X-26986741Y-79523401D01*
X-26986739Y-79523405D01*
X-26851818Y-79757098D01*
X-26851814Y-79757103D01*
X-26683564Y-79968082D01*
X-26683561Y-79968085D01*
X-26485741Y-80151635D01*
X-26262774Y-80303651D01*
X-26019641Y-80420738D01*
X-25761772Y-80500280D01*
X-25761771Y-80500280D01*
X-25761768Y-80500281D01*
X-25761771Y-80500281D01*
X-25494930Y-80540500D01*
X-25494929Y-80540500D01*
X-25225070Y-80540500D01*
X-24958233Y-80500281D01*
X-24958232Y-80500280D01*
X-24958228Y-80500280D01*
X-24700359Y-80420738D01*
X-24457225Y-80303651D01*
X-24234259Y-80151635D01*
X-24036439Y-79968085D01*
X-23868185Y-79757102D01*
X-23733257Y-79523398D01*
X-23634666Y-79272195D01*
X-23574617Y-79009103D01*
X-23556965Y-78773547D01*
X-23530861Y-78688922D01*
X-23499240Y-78647712D01*
X-21906172Y-77054646D01*
X-21790476Y-76895405D01*
X-21780007Y-76874860D01*
X-21701122Y-76720038D01*
X-21701122Y-76720036D01*
X-21701116Y-76720026D01*
X-21640291Y-76532826D01*
X-21609500Y-76338416D01*
X-21609500Y-76141583D01*
X-21609500Y-75391054D01*
X-21589793Y-75304711D01*
X-21534574Y-75235470D01*
X-21454782Y-75197043D01*
X-21366218Y-75197043D01*
X-21310136Y-75221521D01*
X-21309217Y-75219931D01*
X-21302777Y-75223649D01*
X-21302774Y-75223651D01*
X-21059641Y-75340738D01*
X-20801772Y-75420280D01*
X-20801771Y-75420280D01*
X-20801768Y-75420281D01*
X-20801771Y-75420281D01*
X-20534930Y-75460500D01*
X-20534929Y-75460500D01*
X-20450402Y-75460500D01*
X-20364059Y-75480207D01*
X-20309688Y-75518786D01*
X-18813829Y-77014645D01*
X-18813828Y-77014646D01*
X-18678688Y-77149786D01*
X-18631570Y-77224775D01*
X-18621654Y-77312782D01*
X-18650905Y-77396375D01*
X-18713529Y-77458999D01*
X-18797123Y-77488249D01*
X-18819403Y-77489500D01*
X-18982496Y-77489500D01*
X-19068839Y-77469793D01*
X-19117847Y-77436379D01*
X-19234259Y-77328365D01*
X-19234260Y-77328364D01*
X-19234262Y-77328362D01*
X-19457218Y-77176353D01*
X-19457223Y-77176350D01*
X-19457225Y-77176349D01*
X-19540391Y-77136298D01*
X-19700355Y-77059263D01*
X-19958233Y-76979718D01*
X-20225070Y-76939500D01*
X-20225071Y-76939500D01*
X-20494929Y-76939500D01*
X-20494930Y-76939500D01*
X-20761770Y-76979718D01*
X-21019636Y-77059260D01*
X-21019639Y-77059261D01*
X-21019641Y-77059262D01*
X-21126697Y-77110817D01*
X-21262773Y-77176348D01*
X-21485740Y-77328364D01*
X-21683558Y-77511911D01*
X-21683564Y-77511917D01*
X-21851814Y-77722896D01*
X-21851818Y-77722901D01*
X-21986739Y-77956594D01*
X-21986741Y-77956598D01*
X-22085335Y-78207807D01*
X-22145383Y-78470893D01*
X-22165549Y-78740000D01*
X-22145383Y-79009106D01*
X-22085335Y-79272192D01*
X-22085334Y-79272195D01*
X-21986743Y-79523398D01*
X-21986741Y-79523401D01*
X-21986739Y-79523405D01*
X-21851818Y-79757098D01*
X-21851811Y-79757108D01*
X-21845259Y-79765324D01*
X-21806834Y-79845117D01*
X-21806835Y-79933680D01*
X-21845262Y-80013473D01*
X-21914505Y-80068690D01*
X-21939343Y-80078653D01*
X-21943652Y-80080054D01*
X-22070024Y-80121115D01*
X-22070032Y-80121118D01*
X-22245403Y-80210474D01*
X-22246651Y-80211381D01*
X-22404646Y-80326172D01*
X-22404648Y-80326173D01*
X-22404651Y-80326176D01*
X-22404653Y-80326177D01*
X-24274768Y-82196292D01*
X-24349757Y-82243411D01*
X-24437763Y-82253327D01*
X-24501825Y-82234871D01*
X-24700355Y-82139263D01*
X-24958233Y-82059718D01*
X-25225070Y-82019500D01*
X-25225071Y-82019500D01*
X-25494929Y-82019500D01*
X-25494930Y-82019500D01*
X-25761770Y-82059718D01*
X-26019636Y-82139260D01*
X-26019639Y-82139261D01*
X-26019641Y-82139262D01*
X-26126697Y-82190817D01*
X-26262773Y-82256348D01*
X-26485740Y-82408364D01*
X-26683558Y-82591911D01*
X-26683564Y-82591917D01*
X-26851814Y-82802896D01*
X-26851818Y-82802901D01*
X-26986739Y-83036594D01*
X-26986741Y-83036598D01*
X-27085335Y-83287807D01*
X-27145383Y-83550893D01*
X-27165549Y-83820000D01*
X-27145383Y-84089106D01*
X-27085335Y-84352192D01*
X-27085334Y-84352195D01*
X-26986743Y-84603398D01*
X-26986741Y-84603401D01*
X-26986739Y-84603405D01*
X-26851818Y-84837098D01*
X-26851814Y-84837103D01*
X-26683564Y-85048082D01*
X-26683561Y-85048085D01*
X-26485741Y-85231635D01*
X-26262774Y-85383651D01*
X-26019641Y-85500738D01*
X-25761772Y-85580280D01*
X-25761771Y-85580280D01*
X-25761768Y-85580281D01*
X-25761771Y-85580281D01*
X-25494930Y-85620500D01*
X-25494929Y-85620500D01*
X-25225070Y-85620500D01*
X-24958233Y-85580281D01*
X-24958232Y-85580280D01*
X-24958228Y-85580280D01*
X-24700359Y-85500738D01*
X-24457225Y-85383651D01*
X-24234259Y-85231635D01*
X-24110968Y-85117236D01*
X-24034273Y-85072957D01*
X-24006750Y-85066566D01*
X-23837174Y-85039709D01*
X-23649974Y-84978884D01*
X-23630295Y-84968857D01*
X-23474600Y-84889527D01*
X-23474598Y-84889525D01*
X-23474595Y-84889524D01*
X-23315354Y-84773828D01*
X-22485952Y-83944424D01*
X-22410964Y-83897306D01*
X-22322957Y-83887390D01*
X-22239364Y-83916641D01*
X-22176740Y-83979264D01*
X-22147489Y-84062858D01*
X-22146797Y-84070238D01*
X-22145804Y-84083489D01*
X-22145383Y-84089106D01*
X-22085335Y-84352192D01*
X-22085334Y-84352195D01*
X-21986743Y-84603398D01*
X-21986741Y-84603401D01*
X-21986739Y-84603405D01*
X-21851818Y-84837098D01*
X-21851814Y-84837103D01*
X-21683564Y-85048082D01*
X-21683561Y-85048085D01*
X-21485741Y-85231635D01*
X-21262774Y-85383651D01*
X-21019641Y-85500738D01*
X-20761772Y-85580280D01*
X-20761771Y-85580280D01*
X-20761768Y-85580281D01*
X-20761771Y-85580281D01*
X-20494930Y-85620500D01*
X-20494929Y-85620500D01*
X-20225070Y-85620500D01*
X-19958233Y-85580281D01*
X-19958232Y-85580280D01*
X-19958228Y-85580280D01*
X-19700359Y-85500738D01*
X-19457225Y-85383651D01*
X-19234259Y-85231635D01*
X-19117849Y-85123621D01*
X-19041153Y-85079341D01*
X-18982496Y-85070500D01*
X-18779403Y-85070500D01*
X-18693060Y-85090207D01*
X-18623819Y-85145426D01*
X-18585392Y-85225218D01*
X-18585392Y-85313782D01*
X-18623819Y-85393574D01*
X-18638689Y-85410214D01*
X-20269688Y-87041214D01*
X-20344676Y-87088333D01*
X-20410402Y-87099500D01*
X-20494930Y-87099500D01*
X-20761770Y-87139718D01*
X-21019636Y-87219260D01*
X-21019639Y-87219261D01*
X-21019641Y-87219262D01*
X-21126697Y-87270817D01*
X-21262773Y-87336348D01*
X-21485740Y-87488364D01*
X-21683558Y-87671911D01*
X-21683564Y-87671917D01*
X-21851814Y-87882896D01*
X-21851818Y-87882901D01*
X-21986739Y-88116594D01*
X-21986741Y-88116598D01*
X-22085335Y-88367807D01*
X-22145383Y-88630893D01*
X-22165549Y-88900000D01*
X-22145383Y-89169106D01*
X-22085335Y-89432192D01*
X-22085334Y-89432195D01*
X-21986743Y-89683398D01*
X-21986741Y-89683401D01*
X-21986739Y-89683405D01*
X-21851818Y-89917098D01*
X-21851814Y-89917103D01*
X-21683564Y-90128082D01*
X-21683561Y-90128085D01*
X-21485741Y-90311635D01*
X-21262774Y-90463651D01*
X-21019641Y-90580738D01*
X-20761772Y-90660280D01*
X-20761771Y-90660280D01*
X-20761768Y-90660281D01*
X-20761771Y-90660281D01*
X-20494930Y-90700500D01*
X-20494929Y-90700500D01*
X-20225070Y-90700500D01*
X-19958233Y-90660281D01*
X-19958232Y-90660280D01*
X-19958228Y-90660280D01*
X-19700359Y-90580738D01*
X-19457225Y-90463651D01*
X-19234259Y-90311635D01*
X-19036439Y-90128085D01*
X-18868185Y-89917102D01*
X-18733257Y-89683398D01*
X-18634666Y-89432195D01*
X-18574617Y-89169103D01*
X-18556965Y-88933547D01*
X-18530861Y-88848922D01*
X-18499240Y-88807712D01*
X-17360312Y-87668786D01*
X-17285323Y-87621667D01*
X-17219598Y-87610500D01*
X-16584223Y-87610500D01*
X-16497880Y-87630207D01*
X-16428639Y-87685426D01*
X-16390212Y-87765218D01*
X-16390212Y-87853782D01*
X-16411884Y-87909000D01*
X-16523285Y-88101953D01*
X-16523286Y-88101955D01*
X-16613607Y-88320009D01*
X-16626414Y-88367807D01*
X-16674693Y-88547986D01*
X-16705500Y-88781989D01*
X-16705500Y-89018011D01*
X-16674693Y-89252014D01*
X-16674692Y-89252017D01*
X-16626414Y-89432195D01*
X-16613606Y-89479993D01*
X-16523284Y-89698049D01*
X-16436896Y-89847678D01*
X-16405275Y-89902447D01*
X-16405273Y-89902451D01*
X-16292932Y-90048858D01*
X-16256005Y-90129355D01*
X-16257662Y-90217903D01*
X-16292932Y-90291142D01*
X-16405273Y-90437548D01*
X-16405275Y-90437552D01*
X-16523285Y-90641953D01*
X-16523286Y-90641955D01*
X-16530876Y-90660280D01*
X-16613606Y-90860007D01*
X-16674693Y-91087986D01*
X-16705500Y-91321989D01*
X-16705500Y-91558011D01*
X-16674693Y-91792014D01*
X-16613606Y-92019993D01*
X-16523284Y-92238049D01*
X-16484006Y-92306081D01*
X-16405277Y-92442445D01*
X-16261590Y-92629702D01*
X-16094703Y-92796589D01*
X-15907446Y-92940276D01*
X-15830951Y-92984440D01*
X-15703049Y-93058284D01*
X-15484993Y-93148606D01*
X-15257014Y-93209693D01*
X-15023011Y-93240500D01*
X-15023008Y-93240500D01*
X-14186992Y-93240500D01*
X-14186989Y-93240500D01*
X-13952986Y-93209693D01*
X-13725007Y-93148606D01*
X-13506951Y-93058284D01*
X-13302550Y-92940273D01*
X-13251821Y-92901346D01*
X-13171328Y-92864420D01*
X-13082781Y-92866074D01*
X-13003720Y-92905985D01*
X-12989965Y-92918510D01*
X-11828689Y-94079786D01*
X-11781570Y-94154774D01*
X-11771654Y-94242781D01*
X-11800905Y-94326374D01*
X-11863529Y-94388998D01*
X-11947122Y-94418249D01*
X-11969403Y-94419500D01*
X-13558027Y-94419500D01*
X-13558055Y-94419502D01*
X-13677416Y-94430113D01*
X-13873046Y-94486089D01*
X-14053409Y-94580303D01*
X-14211109Y-94708891D01*
X-14339697Y-94866591D01*
X-14339698Y-94866593D01*
X-14400239Y-94982494D01*
X-14433911Y-95046955D01*
X-14489886Y-95242581D01*
X-14500500Y-95361951D01*
X-14500500Y-95361963D01*
X-14500500Y-96401991D01*
X-14500499Y-97360500D01*
X-14520206Y-97446843D01*
X-14575424Y-97516084D01*
X-14655217Y-97554511D01*
X-14699499Y-97559500D01*
X-22156045Y-97559500D01*
X-22242388Y-97539793D01*
X-22296757Y-97501216D01*
X-22517490Y-97280483D01*
X-22708566Y-97141657D01*
X-22708567Y-97141656D01*
X-22708569Y-97141655D01*
X-22919008Y-97034432D01*
X-22919014Y-97034430D01*
X-23143630Y-96961447D01*
X-23143638Y-96961445D01*
X-23376908Y-96924500D01*
X-23660500Y-96924500D01*
X-23746843Y-96904793D01*
X-23816084Y-96849574D01*
X-23854511Y-96769782D01*
X-23859500Y-96725500D01*
X-23859500Y-89955379D01*
X-23839793Y-89869036D01*
X-23832848Y-89855895D01*
X-23733257Y-89683398D01*
X-23634666Y-89432195D01*
X-23574617Y-89169103D01*
X-23554451Y-88900000D01*
X-23574617Y-88630897D01*
X-23634666Y-88367805D01*
X-23733257Y-88116602D01*
X-23868185Y-87882898D01*
X-23962032Y-87765218D01*
X-24036437Y-87671917D01*
X-24036443Y-87671911D01*
X-24234262Y-87488362D01*
X-24457218Y-87336353D01*
X-24457223Y-87336350D01*
X-24457225Y-87336349D01*
X-24540391Y-87296298D01*
X-24700355Y-87219263D01*
X-24958233Y-87139718D01*
X-25225070Y-87099500D01*
X-25225071Y-87099500D01*
X-25494929Y-87099500D01*
X-25494930Y-87099500D01*
X-25761770Y-87139718D01*
X-26019636Y-87219260D01*
X-26019639Y-87219261D01*
X-26019641Y-87219262D01*
X-26126697Y-87270817D01*
X-26262773Y-87336348D01*
X-26485740Y-87488364D01*
X-26683558Y-87671911D01*
X-26683564Y-87671917D01*
X-26851814Y-87882896D01*
X-26851818Y-87882901D01*
X-26986739Y-88116594D01*
X-26986741Y-88116598D01*
X-27085335Y-88367807D01*
X-27145383Y-88630893D01*
X-27165549Y-88900000D01*
X-27145383Y-89169106D01*
X-27085335Y-89432192D01*
X-27085334Y-89432195D01*
X-26986743Y-89683398D01*
X-26887161Y-89855882D01*
X-26861056Y-89940508D01*
X-26860500Y-89955379D01*
X-26860500Y-96725500D01*
X-26880207Y-96811843D01*
X-26935426Y-96881084D01*
X-27015218Y-96919511D01*
X-27059500Y-96924500D01*
X-28389834Y-96924500D01*
X-28476177Y-96904793D01*
X-28545418Y-96849574D01*
X-28583845Y-96769782D01*
X-28588327Y-96711304D01*
X-28583085Y-96638008D01*
X-28574645Y-96520000D01*
X-28594039Y-96248840D01*
X-28651825Y-95983199D01*
X-28746828Y-95728487D01*
X-28843851Y-95550802D01*
X-28877112Y-95489888D01*
X-28877115Y-95489884D01*
X-28939808Y-95406136D01*
X-28975775Y-95325205D01*
X-28979500Y-95286880D01*
X-28979500Y-74176908D01*
X-29016446Y-73943637D01*
X-29016448Y-73943629D01*
X-29089431Y-73719012D01*
X-29089432Y-73719008D01*
X-29196657Y-73508567D01*
X-29199230Y-73505025D01*
X-29335482Y-73317490D01*
X-29335483Y-73317489D01*
X-29335485Y-73317486D01*
X-30137484Y-72515488D01*
X-30137486Y-72515487D01*
X-30137490Y-72515483D01*
X-30328566Y-72376657D01*
X-30328567Y-72376656D01*
X-30328569Y-72376655D01*
X-30539008Y-72269432D01*
X-30539014Y-72269430D01*
X-30763630Y-72196447D01*
X-30763638Y-72196445D01*
X-30996908Y-72159500D01*
X-32585500Y-72159500D01*
X-32671843Y-72139793D01*
X-32741084Y-72084574D01*
X-32779511Y-72004782D01*
X-32784500Y-71960500D01*
X-32784500Y-71779157D01*
X-32764793Y-71692814D01*
X-32709574Y-71623573D01*
X-32629782Y-71585146D01*
X-32541218Y-71585146D01*
X-32515961Y-71592702D01*
X-32286801Y-71678175D01*
X-32021160Y-71735961D01*
X-31750000Y-71755355D01*
X-31478840Y-71735961D01*
X-31213199Y-71678175D01*
X-30958487Y-71583172D01*
X-30719887Y-71452887D01*
X-30636138Y-71390193D01*
X-30555207Y-71354226D01*
X-30516881Y-71350500D01*
X-28643955Y-71350500D01*
X-28557612Y-71370207D01*
G37*
G04 #@! TD.AperFunction*
G04 #@! TA.AperFunction,NonConductor*
G36*
X-613157Y-520207D02*
G01*
X-543916Y-575426D01*
X-505489Y-655218D01*
X-500500Y-699500D01*
X-500500Y-100900500D01*
X-520207Y-100986843D01*
X-575426Y-101056084D01*
X-655218Y-101094511D01*
X-699500Y-101099500D01*
X-866910Y-101099500D01*
X-953253Y-101079793D01*
X-1022494Y-101024574D01*
X-1060921Y-100944782D01*
X-1063460Y-100869370D01*
X-1039500Y-100718091D01*
X-1039500Y-53221908D01*
X-1076446Y-52988637D01*
X-1076448Y-52988629D01*
X-1113270Y-52875304D01*
X-1149432Y-52764008D01*
X-1149434Y-52764004D01*
X-1149435Y-52764001D01*
X-1256654Y-52553573D01*
X-1256658Y-52553566D01*
X-1260355Y-52548477D01*
X-1260355Y-52548476D01*
X-1395482Y-52362490D01*
X-1395486Y-52362485D01*
X-2196461Y-51561510D01*
X-2228086Y-51520296D01*
X-2304725Y-51387553D01*
X-2304726Y-51387552D01*
X-2304727Y-51387550D01*
X-2448408Y-51200301D01*
X-2448411Y-51200297D01*
X-2615298Y-51033410D01*
X-2802555Y-50889723D01*
X-2925867Y-50818530D01*
X-3006951Y-50771716D01*
X-3225007Y-50681394D01*
X-3225009Y-50681393D01*
X-3225010Y-50681393D01*
X-3338997Y-50650850D01*
X-3452986Y-50620307D01*
X-3686989Y-50589500D01*
X-3923011Y-50589500D01*
X-4157014Y-50620307D01*
X-4157018Y-50620307D01*
X-4157018Y-50620308D01*
X-4384991Y-50681393D01*
X-4603045Y-50771714D01*
X-4603047Y-50771715D01*
X-4807448Y-50889725D01*
X-4807452Y-50889727D01*
X-4953858Y-51002068D01*
X-5034355Y-51038995D01*
X-5122903Y-51037338D01*
X-5196142Y-51002068D01*
X-5342549Y-50889727D01*
X-5342553Y-50889725D01*
X-5397322Y-50858104D01*
X-5546951Y-50771716D01*
X-5765007Y-50681394D01*
X-5765009Y-50681393D01*
X-5765010Y-50681393D01*
X-5878997Y-50650850D01*
X-5992986Y-50620307D01*
X-6226989Y-50589500D01*
X-6463011Y-50589500D01*
X-6697014Y-50620307D01*
X-6697018Y-50620307D01*
X-6697018Y-50620308D01*
X-6924991Y-50681393D01*
X-7143045Y-50771714D01*
X-7143047Y-50771715D01*
X-7347448Y-50889725D01*
X-7347452Y-50889727D01*
X-7493858Y-51002068D01*
X-7574355Y-51038995D01*
X-7662903Y-51037338D01*
X-7736142Y-51002068D01*
X-7882549Y-50889727D01*
X-7882553Y-50889725D01*
X-7937322Y-50858104D01*
X-8086951Y-50771716D01*
X-8305007Y-50681394D01*
X-8305009Y-50681393D01*
X-8305010Y-50681393D01*
X-8418997Y-50650850D01*
X-8532986Y-50620307D01*
X-8766989Y-50589500D01*
X-9003011Y-50589500D01*
X-9237014Y-50620307D01*
X-9237018Y-50620307D01*
X-9237018Y-50620308D01*
X-9464991Y-50681393D01*
X-9683045Y-50771714D01*
X-9683047Y-50771715D01*
X-9887448Y-50889725D01*
X-9887452Y-50889727D01*
X-10033858Y-51002068D01*
X-10114355Y-51038995D01*
X-10202903Y-51037338D01*
X-10276142Y-51002068D01*
X-10422549Y-50889727D01*
X-10422553Y-50889725D01*
X-10477322Y-50858104D01*
X-10626951Y-50771716D01*
X-10845007Y-50681394D01*
X-10845009Y-50681393D01*
X-10845010Y-50681393D01*
X-10958997Y-50650850D01*
X-11072986Y-50620307D01*
X-11306989Y-50589500D01*
X-11543011Y-50589500D01*
X-11777014Y-50620307D01*
X-11777018Y-50620307D01*
X-11777018Y-50620308D01*
X-12004991Y-50681393D01*
X-12223045Y-50771714D01*
X-12223047Y-50771715D01*
X-12427448Y-50889725D01*
X-12427452Y-50889727D01*
X-12573858Y-51002068D01*
X-12654355Y-51038995D01*
X-12742903Y-51037338D01*
X-12816142Y-51002068D01*
X-12962549Y-50889727D01*
X-12962553Y-50889725D01*
X-13017322Y-50858104D01*
X-13166951Y-50771716D01*
X-13385007Y-50681394D01*
X-13385009Y-50681393D01*
X-13385010Y-50681393D01*
X-13498997Y-50650850D01*
X-13612986Y-50620307D01*
X-13846989Y-50589500D01*
X-14083011Y-50589500D01*
X-14317014Y-50620307D01*
X-14317018Y-50620307D01*
X-14317018Y-50620308D01*
X-14544991Y-50681393D01*
X-14763045Y-50771714D01*
X-14763047Y-50771715D01*
X-14967448Y-50889725D01*
X-14967452Y-50889727D01*
X-15113858Y-51002068D01*
X-15194355Y-51038995D01*
X-15282903Y-51037338D01*
X-15356142Y-51002068D01*
X-15502549Y-50889727D01*
X-15502553Y-50889725D01*
X-15557322Y-50858104D01*
X-15706951Y-50771716D01*
X-15925007Y-50681394D01*
X-15925009Y-50681393D01*
X-15925010Y-50681393D01*
X-16038997Y-50650850D01*
X-16152986Y-50620307D01*
X-16386989Y-50589500D01*
X-16623011Y-50589500D01*
X-16857014Y-50620307D01*
X-16857018Y-50620307D01*
X-16857018Y-50620308D01*
X-17084991Y-50681393D01*
X-17303045Y-50771714D01*
X-17303047Y-50771715D01*
X-17507448Y-50889725D01*
X-17507452Y-50889727D01*
X-17653858Y-51002068D01*
X-17734355Y-51038995D01*
X-17822903Y-51037338D01*
X-17896142Y-51002068D01*
X-18042549Y-50889727D01*
X-18042553Y-50889725D01*
X-18097322Y-50858104D01*
X-18246951Y-50771716D01*
X-18465007Y-50681394D01*
X-18465009Y-50681393D01*
X-18465010Y-50681393D01*
X-18578997Y-50650850D01*
X-18692986Y-50620307D01*
X-18926989Y-50589500D01*
X-19163011Y-50589500D01*
X-19397014Y-50620307D01*
X-19397018Y-50620307D01*
X-19397018Y-50620308D01*
X-19624991Y-50681393D01*
X-19843045Y-50771714D01*
X-19843047Y-50771715D01*
X-20047446Y-50889723D01*
X-20234703Y-51033410D01*
X-20401590Y-51200297D01*
X-20545277Y-51387554D01*
X-20663285Y-51591953D01*
X-20663286Y-51591955D01*
X-20753607Y-51810009D01*
X-20809796Y-52019709D01*
X-20814693Y-52037986D01*
X-20845500Y-52271989D01*
X-20845500Y-53108011D01*
X-20814693Y-53342014D01*
X-20753606Y-53569993D01*
X-20663284Y-53788049D01*
X-20653673Y-53804695D01*
X-20545277Y-53992445D01*
X-20401590Y-54179702D01*
X-20234703Y-54346589D01*
X-20047446Y-54490276D01*
X-19979162Y-54529699D01*
X-19843049Y-54608284D01*
X-19624993Y-54698606D01*
X-19397014Y-54759693D01*
X-19163011Y-54790500D01*
X-19163008Y-54790500D01*
X-18926992Y-54790500D01*
X-18926989Y-54790500D01*
X-18692986Y-54759693D01*
X-18465007Y-54698606D01*
X-18246951Y-54608284D01*
X-18042550Y-54490273D01*
X-17896143Y-54377930D01*
X-17815646Y-54341004D01*
X-17727098Y-54342660D01*
X-17653857Y-54377931D01*
X-17507446Y-54490276D01*
X-17439162Y-54529699D01*
X-17303049Y-54608284D01*
X-17084993Y-54698606D01*
X-16857014Y-54759693D01*
X-16623011Y-54790500D01*
X-16623008Y-54790500D01*
X-16386992Y-54790500D01*
X-16386989Y-54790500D01*
X-16152986Y-54759693D01*
X-15925007Y-54698606D01*
X-15706951Y-54608284D01*
X-15502550Y-54490273D01*
X-15356143Y-54377930D01*
X-15275646Y-54341004D01*
X-15187098Y-54342660D01*
X-15113857Y-54377931D01*
X-14967446Y-54490276D01*
X-14899162Y-54529699D01*
X-14763049Y-54608284D01*
X-14544993Y-54698606D01*
X-14317014Y-54759693D01*
X-14083011Y-54790500D01*
X-14083008Y-54790500D01*
X-13846992Y-54790500D01*
X-13846989Y-54790500D01*
X-13612986Y-54759693D01*
X-13385007Y-54698606D01*
X-13166951Y-54608284D01*
X-12962550Y-54490273D01*
X-12816143Y-54377930D01*
X-12735646Y-54341004D01*
X-12647098Y-54342660D01*
X-12573857Y-54377931D01*
X-12427446Y-54490276D01*
X-12359162Y-54529699D01*
X-12223049Y-54608284D01*
X-12004993Y-54698606D01*
X-11777014Y-54759693D01*
X-11543011Y-54790500D01*
X-11543008Y-54790500D01*
X-11306992Y-54790500D01*
X-11306989Y-54790500D01*
X-11072986Y-54759693D01*
X-10845007Y-54698606D01*
X-10626951Y-54608284D01*
X-10422550Y-54490273D01*
X-10276143Y-54377930D01*
X-10195646Y-54341004D01*
X-10107098Y-54342660D01*
X-10033857Y-54377931D01*
X-9887446Y-54490276D01*
X-9819162Y-54529699D01*
X-9683049Y-54608284D01*
X-9464993Y-54698606D01*
X-9237014Y-54759693D01*
X-9003011Y-54790500D01*
X-9003008Y-54790500D01*
X-8766992Y-54790500D01*
X-8766989Y-54790500D01*
X-8532986Y-54759693D01*
X-8305007Y-54698606D01*
X-8086951Y-54608284D01*
X-7882550Y-54490273D01*
X-7736143Y-54377930D01*
X-7655646Y-54341004D01*
X-7567098Y-54342660D01*
X-7493857Y-54377931D01*
X-7347446Y-54490276D01*
X-7279162Y-54529699D01*
X-7143049Y-54608284D01*
X-6924993Y-54698606D01*
X-6697014Y-54759693D01*
X-6463011Y-54790500D01*
X-6463008Y-54790500D01*
X-6226992Y-54790500D01*
X-6226989Y-54790500D01*
X-5992986Y-54759693D01*
X-5765007Y-54698606D01*
X-5546951Y-54608284D01*
X-5342550Y-54490273D01*
X-5196143Y-54377930D01*
X-5115646Y-54341004D01*
X-5027098Y-54342660D01*
X-4953857Y-54377931D01*
X-4807446Y-54490276D01*
X-4739162Y-54529699D01*
X-4603049Y-54608284D01*
X-4384993Y-54698606D01*
X-4187995Y-54751391D01*
X-4109695Y-54792773D01*
X-4057104Y-54864031D01*
X-4040500Y-54943610D01*
X-4040500Y-71930500D01*
X-4060207Y-72016843D01*
X-4115426Y-72086084D01*
X-4195218Y-72124511D01*
X-4239500Y-72129500D01*
X-5681583Y-72129500D01*
X-5767926Y-72109793D01*
X-5781083Y-72102839D01*
X-5812719Y-72084574D01*
X-5886951Y-72041716D01*
X-6105007Y-71951394D01*
X-6105009Y-71951393D01*
X-6105010Y-71951393D01*
X-6229452Y-71918049D01*
X-6332986Y-71890307D01*
X-6566989Y-71859500D01*
X-7403011Y-71859500D01*
X-7637014Y-71890307D01*
X-7637018Y-71890307D01*
X-7637018Y-71890308D01*
X-7864993Y-71951393D01*
X-7864996Y-71951394D01*
X-7999347Y-72007044D01*
X-8086659Y-72021879D01*
X-8171761Y-71997361D01*
X-8237797Y-71938347D01*
X-8271689Y-71856525D01*
X-8274500Y-71823192D01*
X-8274500Y-64036583D01*
X-8305290Y-63842179D01*
X-8305292Y-63842171D01*
X-8366114Y-63654980D01*
X-8366115Y-63654979D01*
X-8366116Y-63654974D01*
X-8366120Y-63654968D01*
X-8366122Y-63654961D01*
X-8455475Y-63479596D01*
X-8571167Y-63320359D01*
X-8571173Y-63320352D01*
X-9345348Y-62546177D01*
X-9345350Y-62546176D01*
X-9345354Y-62546172D01*
X-9464570Y-62459556D01*
X-9504600Y-62430472D01*
X-9679962Y-62341121D01*
X-9679981Y-62341113D01*
X-9867172Y-62280291D01*
X-9867180Y-62280289D01*
X-10061583Y-62249500D01*
X-10426729Y-62249500D01*
X-10513072Y-62229793D01*
X-10582313Y-62174574D01*
X-10584562Y-62171700D01*
X-10708408Y-62010301D01*
X-10708411Y-62010297D01*
X-10875298Y-61843410D01*
X-11062555Y-61699723D01*
X-11185867Y-61628530D01*
X-11266951Y-61581716D01*
X-11485007Y-61491394D01*
X-11485009Y-61491393D01*
X-11485010Y-61491393D01*
X-11598997Y-61460850D01*
X-11712986Y-61430307D01*
X-11946989Y-61399500D01*
X-12183011Y-61399500D01*
X-12417014Y-61430307D01*
X-12417018Y-61430307D01*
X-12417018Y-61430308D01*
X-12644991Y-61491393D01*
X-12863045Y-61581714D01*
X-12863054Y-61581718D01*
X-12956276Y-61635540D01*
X-13040904Y-61661645D01*
X-13128479Y-61648445D01*
X-13181531Y-61617429D01*
X-13251587Y-61560306D01*
X-13251591Y-61560303D01*
X-13290473Y-61539993D01*
X-13431951Y-61466091D01*
X-13431954Y-61466090D01*
X-13431956Y-61466089D01*
X-13627582Y-61410114D01*
X-13627581Y-61410114D01*
X-13746962Y-61399500D01*
X-15463027Y-61399500D01*
X-15463055Y-61399502D01*
X-15582416Y-61410113D01*
X-15778046Y-61466089D01*
X-15958409Y-61560303D01*
X-16116109Y-61688891D01*
X-16244697Y-61846591D01*
X-16338911Y-62026954D01*
X-16361312Y-62105244D01*
X-16404012Y-62182834D01*
X-16476148Y-62234214D01*
X-16552634Y-62249500D01*
X-19719598Y-62249500D01*
X-19805941Y-62229793D01*
X-19860312Y-62191214D01*
X-22186214Y-59865312D01*
X-22233333Y-59790324D01*
X-22244500Y-59724598D01*
X-22244500Y-58952649D01*
X-8285500Y-58952649D01*
X-8285500Y-59157350D01*
X-8253478Y-59359529D01*
X-8253477Y-59359536D01*
X-8190223Y-59554212D01*
X-8190215Y-59554231D01*
X-8097294Y-59736599D01*
X-8097288Y-59736609D01*
X-8097287Y-59736610D01*
X-7976966Y-59902219D01*
X-7832219Y-60046966D01*
X-7686038Y-60153172D01*
X-7666610Y-60167287D01*
X-7666600Y-60167293D01*
X-7484232Y-60260214D01*
X-7484225Y-60260216D01*
X-7484219Y-60260220D01*
X-7289534Y-60323477D01*
X-7087352Y-60355500D01*
X-7087351Y-60355500D01*
X-6882649Y-60355500D01*
X-6882648Y-60355500D01*
X-6680466Y-60323477D01*
X-6485781Y-60260220D01*
X-6462141Y-60248175D01*
X-6303401Y-60167293D01*
X-6303397Y-60167290D01*
X-6303390Y-60167287D01*
X-6137781Y-60046966D01*
X-5993034Y-59902219D01*
X-5872713Y-59736610D01*
X-5866592Y-59724598D01*
X-5779786Y-59554231D01*
X-5779786Y-59554229D01*
X-5779780Y-59554219D01*
X-5716523Y-59359534D01*
X-5684500Y-59157352D01*
X-5684500Y-58952648D01*
X-5716523Y-58750466D01*
X-5779780Y-58555781D01*
X-5779784Y-58555775D01*
X-5779786Y-58555768D01*
X-5872707Y-58373400D01*
X-5872713Y-58373390D01*
X-5993033Y-58207783D01*
X-5993034Y-58207781D01*
X-6137781Y-58063034D01*
X-6286060Y-57955304D01*
X-6303391Y-57942712D01*
X-6303401Y-57942706D01*
X-6485769Y-57849785D01*
X-6485788Y-57849777D01*
X-6680464Y-57786523D01*
X-6680471Y-57786522D01*
X-6810287Y-57765961D01*
X-6882648Y-57754500D01*
X-7087352Y-57754500D01*
X-7148365Y-57764163D01*
X-7289530Y-57786522D01*
X-7289537Y-57786523D01*
X-7484213Y-57849777D01*
X-7484232Y-57849785D01*
X-7666600Y-57942706D01*
X-7666610Y-57942712D01*
X-7832217Y-58063032D01*
X-7832221Y-58063035D01*
X-7976965Y-58207779D01*
X-7976968Y-58207783D01*
X-8097288Y-58373390D01*
X-8097294Y-58373400D01*
X-8190215Y-58555768D01*
X-8190223Y-58555787D01*
X-8253477Y-58750463D01*
X-8253478Y-58750470D01*
X-8285500Y-58952649D01*
X-22244500Y-58952649D01*
X-22244500Y-44064641D01*
X-22224793Y-43978298D01*
X-22186217Y-43923929D01*
X-22055029Y-43792742D01*
X-21892113Y-43575113D01*
X-21761828Y-43336513D01*
X-21666825Y-43081801D01*
X-21609039Y-42816160D01*
X-21589645Y-42545000D01*
X-21609039Y-42273840D01*
X-21666825Y-42008199D01*
X-21761828Y-41753487D01*
X-21761830Y-41753483D01*
X-21892112Y-41514888D01*
X-21892116Y-41514882D01*
X-22055033Y-41297253D01*
X-22247254Y-41105032D01*
X-22464883Y-40942115D01*
X-22464889Y-40942111D01*
X-22703484Y-40811829D01*
X-22703489Y-40811827D01*
X-22900309Y-40738417D01*
X-22958199Y-40716825D01*
X-22958201Y-40716824D01*
X-22958205Y-40716823D01*
X-23223839Y-40659039D01*
X-23495000Y-40639645D01*
X-23766162Y-40659039D01*
X-24031796Y-40716823D01*
X-24286512Y-40811827D01*
X-24286517Y-40811829D01*
X-24525112Y-40942111D01*
X-24525118Y-40942115D01*
X-24742743Y-41105029D01*
X-24808335Y-41170621D01*
X-24873929Y-41236215D01*
X-24948915Y-41283333D01*
X-25014641Y-41294500D01*
X-29308417Y-41294500D01*
X-29502821Y-41325289D01*
X-29502829Y-41325291D01*
X-29690018Y-41386113D01*
X-29690019Y-41386113D01*
X-29865408Y-41475477D01*
X-29933530Y-41524972D01*
X-30014967Y-41559780D01*
X-30103441Y-41555807D01*
X-30181430Y-41513839D01*
X-30233486Y-41442190D01*
X-30249500Y-41363978D01*
X-30249500Y-39799500D01*
X-30229793Y-39713157D01*
X-30174574Y-39643916D01*
X-30094782Y-39605489D01*
X-30050500Y-39600500D01*
X-27929968Y-39600500D01*
X-27843625Y-39620207D01*
X-27804213Y-39645270D01*
X-27688407Y-39739698D01*
X-27508049Y-39833909D01*
X-27312418Y-39889886D01*
X-27193037Y-39900500D01*
X-24876964Y-39900499D01*
X-24757582Y-39889886D01*
X-24561951Y-39833909D01*
X-24381593Y-39739698D01*
X-24265789Y-39645271D01*
X-24186418Y-39605982D01*
X-24140032Y-39600500D01*
X-20749500Y-39600500D01*
X-20663157Y-39620207D01*
X-20593916Y-39675426D01*
X-20555489Y-39755218D01*
X-20550500Y-39799500D01*
X-20550500Y-39886908D01*
X-20550500Y-40123092D01*
X-20547950Y-40139192D01*
X-20545500Y-40170322D01*
X-20545500Y-43714621D01*
X-20565207Y-43800964D01*
X-20572161Y-43814121D01*
X-20604669Y-43870426D01*
X-20628650Y-43911964D01*
X-20663285Y-43971953D01*
X-20663286Y-43971955D01*
X-20753607Y-44190009D01*
X-20802686Y-44373175D01*
X-20814693Y-44417986D01*
X-20845500Y-44651989D01*
X-20845500Y-45488011D01*
X-20814693Y-45722014D01*
X-20753606Y-45949993D01*
X-20663284Y-46168049D01*
X-20616470Y-46249133D01*
X-20545277Y-46372445D01*
X-20401590Y-46559702D01*
X-20234703Y-46726589D01*
X-20047446Y-46870276D01*
X-20028682Y-46881109D01*
X-19843049Y-46988284D01*
X-19624993Y-47078606D01*
X-19397014Y-47139693D01*
X-19163011Y-47170500D01*
X-19163008Y-47170500D01*
X-18926992Y-47170500D01*
X-18926989Y-47170500D01*
X-18692986Y-47139693D01*
X-18465007Y-47078606D01*
X-18246951Y-46988284D01*
X-18042550Y-46870273D01*
X-17896143Y-46757930D01*
X-17815646Y-46721004D01*
X-17727098Y-46722660D01*
X-17653857Y-46757931D01*
X-17507446Y-46870276D01*
X-17488682Y-46881109D01*
X-17303049Y-46988284D01*
X-17084993Y-47078606D01*
X-16857014Y-47139693D01*
X-16623011Y-47170500D01*
X-16623008Y-47170500D01*
X-16386992Y-47170500D01*
X-16386989Y-47170500D01*
X-16152986Y-47139693D01*
X-15925007Y-47078606D01*
X-15706951Y-46988284D01*
X-15502550Y-46870273D01*
X-15356143Y-46757930D01*
X-15275646Y-46721004D01*
X-15187098Y-46722660D01*
X-15113857Y-46757931D01*
X-14967446Y-46870276D01*
X-14948682Y-46881109D01*
X-14763049Y-46988284D01*
X-14544993Y-47078606D01*
X-14317014Y-47139693D01*
X-14083011Y-47170500D01*
X-14083008Y-47170500D01*
X-13846992Y-47170500D01*
X-13846989Y-47170500D01*
X-13612986Y-47139693D01*
X-13385007Y-47078606D01*
X-13166951Y-46988284D01*
X-12962550Y-46870273D01*
X-12816143Y-46757930D01*
X-12735646Y-46721004D01*
X-12647098Y-46722660D01*
X-12573857Y-46757931D01*
X-12427446Y-46870276D01*
X-12408682Y-46881109D01*
X-12223049Y-46988284D01*
X-12004993Y-47078606D01*
X-11777014Y-47139693D01*
X-11543011Y-47170500D01*
X-11543008Y-47170500D01*
X-11306992Y-47170500D01*
X-11306989Y-47170500D01*
X-11072986Y-47139693D01*
X-10845007Y-47078606D01*
X-10626951Y-46988284D01*
X-10422550Y-46870273D01*
X-10276143Y-46757930D01*
X-10195646Y-46721004D01*
X-10107098Y-46722660D01*
X-10033857Y-46757931D01*
X-9887446Y-46870276D01*
X-9868682Y-46881109D01*
X-9683049Y-46988284D01*
X-9464993Y-47078606D01*
X-9237014Y-47139693D01*
X-9003011Y-47170500D01*
X-9003008Y-47170500D01*
X-8766992Y-47170500D01*
X-8766989Y-47170500D01*
X-8532986Y-47139693D01*
X-8305007Y-47078606D01*
X-8086951Y-46988284D01*
X-7882550Y-46870273D01*
X-7736143Y-46757930D01*
X-7655646Y-46721004D01*
X-7567098Y-46722660D01*
X-7493857Y-46757931D01*
X-7347446Y-46870276D01*
X-7328682Y-46881109D01*
X-7143049Y-46988284D01*
X-6924993Y-47078606D01*
X-6697014Y-47139693D01*
X-6463011Y-47170500D01*
X-6463008Y-47170500D01*
X-6226992Y-47170500D01*
X-6226989Y-47170500D01*
X-5992986Y-47139693D01*
X-5765007Y-47078606D01*
X-5546951Y-46988284D01*
X-5453721Y-46934457D01*
X-5369097Y-46908355D01*
X-5281523Y-46921554D01*
X-5228468Y-46952571D01*
X-5158415Y-47009693D01*
X-5158410Y-47009696D01*
X-5158409Y-47009696D01*
X-5158407Y-47009698D01*
X-4978049Y-47103909D01*
X-4782418Y-47159886D01*
X-4663037Y-47170500D01*
X-2946964Y-47170499D01*
X-2827582Y-47159886D01*
X-2631951Y-47103909D01*
X-2451593Y-47009698D01*
X-2293891Y-46881109D01*
X-2165302Y-46723407D01*
X-2071091Y-46543049D01*
X-2015114Y-46347418D01*
X-2004500Y-46228037D01*
X-2004501Y-43911964D01*
X-2015114Y-43792582D01*
X-2071091Y-43596951D01*
X-2165302Y-43416593D01*
X-2293891Y-43258891D01*
X-2451593Y-43130302D01*
X-2460019Y-43124749D01*
X-2458784Y-43122874D01*
X-2515061Y-43074899D01*
X-2550856Y-42993892D01*
X-2554500Y-42955982D01*
X-2554500Y-39881051D01*
X-2534793Y-39794708D01*
X-2481088Y-39726685D01*
X-2372947Y-39638708D01*
X-2371865Y-39637550D01*
X-2337051Y-39600273D01*
X-2176811Y-39428698D01*
X-2011099Y-39193936D01*
X-1878896Y-38938797D01*
X-1782666Y-38668032D01*
X-1724202Y-38386686D01*
X-1704592Y-38100000D01*
X-1724202Y-37813314D01*
X-1782666Y-37531968D01*
X-1878896Y-37261203D01*
X-1963694Y-37097552D01*
X-2011099Y-37006064D01*
X-2176806Y-36771309D01*
X-2176807Y-36771308D01*
X-2176811Y-36771302D01*
X-2372947Y-36561292D01*
X-2372949Y-36561291D01*
X-2372951Y-36561288D01*
X-2481086Y-36473314D01*
X-2535627Y-36403537D01*
X-2554500Y-36318947D01*
X-2554500Y-23074083D01*
X-2585290Y-22879679D01*
X-2585292Y-22879670D01*
X-2588948Y-22868420D01*
X-2588951Y-22868411D01*
X-2591684Y-22860000D01*
X-2646116Y-22692474D01*
X-2735476Y-22517095D01*
X-2851171Y-22357854D01*
X-2851172Y-22357853D01*
X-2851174Y-22357850D01*
X-3302848Y-21906177D01*
X-3302850Y-21906176D01*
X-3302854Y-21906172D01*
X-3422070Y-21819556D01*
X-3462100Y-21790472D01*
X-3637462Y-21701121D01*
X-3637481Y-21701113D01*
X-3824672Y-21640291D01*
X-3824680Y-21640289D01*
X-4019083Y-21609500D01*
X-5828552Y-21609500D01*
X-5914895Y-21589793D01*
X-5982917Y-21536088D01*
X-5986811Y-21531302D01*
X-6058276Y-21454782D01*
X-6182947Y-21321292D01*
X-6182949Y-21321291D01*
X-6182951Y-21321288D01*
X-6386086Y-21156026D01*
X-6440627Y-21086249D01*
X-6459500Y-21001659D01*
X-6459500Y-20827619D01*
X-6439793Y-20741276D01*
X-6386085Y-20673252D01*
X-6272951Y-20581211D01*
X-6272947Y-20581208D01*
X-6076811Y-20371198D01*
X-5911099Y-20136436D01*
X-5778896Y-19881297D01*
X-5682666Y-19610532D01*
X-5624202Y-19329186D01*
X-5604592Y-19042500D01*
X-5605072Y-19035489D01*
X-5609572Y-18969699D01*
X-5624202Y-18755814D01*
X-5682666Y-18474468D01*
X-5778896Y-18203703D01*
X-5911099Y-17948564D01*
X-6076811Y-17713802D01*
X-6272947Y-17503792D01*
X-6272949Y-17503791D01*
X-6272951Y-17503788D01*
X-6495853Y-17322445D01*
X-6495858Y-17322441D01*
X-6741378Y-17173137D01*
X-6741379Y-17173136D01*
X-7004944Y-17058655D01*
X-7281645Y-16981128D01*
X-7281651Y-16981127D01*
X-7566315Y-16942000D01*
X-7566322Y-16942000D01*
X-7853678Y-16942000D01*
X-7853686Y-16942000D01*
X-8138350Y-16981127D01*
X-8138356Y-16981128D01*
X-8415057Y-17058655D01*
X-8678622Y-17173136D01*
X-8678623Y-17173137D01*
X-8924143Y-17322441D01*
X-8924148Y-17322445D01*
X-9147050Y-17503788D01*
X-9343185Y-17713797D01*
X-9343195Y-17713809D01*
X-9508902Y-17948564D01*
X-9641100Y-18203693D01*
X-9641105Y-18203704D01*
X-9737334Y-18474469D01*
X-9737337Y-18474477D01*
X-9795798Y-18755812D01*
X-9815408Y-19042498D01*
X-9815408Y-19042501D01*
X-9795798Y-19329187D01*
X-9737337Y-19610522D01*
X-9737335Y-19610527D01*
X-9737334Y-19610532D01*
X-9691318Y-19740009D01*
X-9641105Y-19881295D01*
X-9641100Y-19881306D01*
X-9508902Y-20136435D01*
X-9508901Y-20136436D01*
X-9343189Y-20371198D01*
X-9343185Y-20371202D01*
X-9147057Y-20581204D01*
X-9147050Y-20581211D01*
X-9033915Y-20673252D01*
X-8979374Y-20743028D01*
X-8960500Y-20827619D01*
X-8960500Y-21148100D01*
X-8980207Y-21234443D01*
X-9033911Y-21302464D01*
X-9044402Y-21311000D01*
X-9057056Y-21321294D01*
X-9253185Y-21531297D01*
X-9253195Y-21531309D01*
X-9418902Y-21766064D01*
X-9551100Y-22021193D01*
X-9551105Y-22021204D01*
X-9577564Y-22095654D01*
X-9643083Y-22280009D01*
X-9647334Y-22291969D01*
X-9647337Y-22291977D01*
X-9705798Y-22573312D01*
X-9725408Y-22859998D01*
X-9725408Y-22860001D01*
X-9705798Y-23146687D01*
X-9647337Y-23428022D01*
X-9647335Y-23428027D01*
X-9647334Y-23428032D01*
X-9578935Y-23620490D01*
X-9551105Y-23698795D01*
X-9551100Y-23698806D01*
X-9418902Y-23953935D01*
X-9256568Y-24183912D01*
X-9253189Y-24188698D01*
X-9058134Y-24397550D01*
X-9057050Y-24398711D01*
X-8834148Y-24580054D01*
X-8834143Y-24580058D01*
X-8588623Y-24729362D01*
X-8588622Y-24729363D01*
X-8426255Y-24799888D01*
X-8325058Y-24843844D01*
X-8048358Y-24921371D01*
X-7906018Y-24940935D01*
X-7763686Y-24960499D01*
X-7763684Y-24960499D01*
X-7763678Y-24960500D01*
X-7763676Y-24960500D01*
X-7476324Y-24960500D01*
X-7476322Y-24960500D01*
X-7191642Y-24921371D01*
X-6914942Y-24843844D01*
X-6712550Y-24755932D01*
X-6651379Y-24729363D01*
X-6651379Y-24729362D01*
X-6651375Y-24729361D01*
X-6405853Y-24580055D01*
X-6182947Y-24398708D01*
X-5986811Y-24188698D01*
X-5986806Y-24188690D01*
X-5982917Y-24183912D01*
X-5913139Y-24129372D01*
X-5828552Y-24110500D01*
X-5254500Y-24110500D01*
X-5168157Y-24130207D01*
X-5098916Y-24185426D01*
X-5060489Y-24265218D01*
X-5055500Y-24309500D01*
X-5055500Y-36310811D01*
X-5075207Y-36397154D01*
X-5128913Y-36465177D01*
X-5247053Y-36561291D01*
X-5443185Y-36771297D01*
X-5443195Y-36771309D01*
X-5608902Y-37006064D01*
X-5741100Y-37261193D01*
X-5741105Y-37261204D01*
X-5760919Y-37316957D01*
X-5833083Y-37520009D01*
X-5837334Y-37531969D01*
X-5837337Y-37531977D01*
X-5895798Y-37813312D01*
X-5915408Y-38099998D01*
X-5915408Y-38100001D01*
X-5895798Y-38386687D01*
X-5837337Y-38668022D01*
X-5837335Y-38668027D01*
X-5837334Y-38668032D01*
X-5768935Y-38860490D01*
X-5741105Y-38938795D01*
X-5741100Y-38938806D01*
X-5608902Y-39193935D01*
X-5484623Y-39370000D01*
X-5443189Y-39428698D01*
X-5417138Y-39456592D01*
X-5247057Y-39638704D01*
X-5247057Y-39638705D01*
X-5239156Y-39645133D01*
X-5128913Y-39734821D01*
X-5074374Y-39804597D01*
X-5055500Y-39889187D01*
X-5055500Y-42955982D01*
X-5075207Y-43042325D01*
X-5130426Y-43111566D01*
X-5150186Y-43124438D01*
X-5149981Y-43124749D01*
X-5158414Y-43130306D01*
X-5228469Y-43187429D01*
X-5307840Y-43226719D01*
X-5396398Y-43227681D01*
X-5453724Y-43205540D01*
X-5546947Y-43151718D01*
X-5546954Y-43151715D01*
X-5765007Y-43061394D01*
X-5765009Y-43061393D01*
X-5765010Y-43061393D01*
X-5878997Y-43030850D01*
X-5992986Y-43000307D01*
X-6226989Y-42969500D01*
X-6463011Y-42969500D01*
X-6697014Y-43000307D01*
X-6697018Y-43000307D01*
X-6697018Y-43000308D01*
X-6924991Y-43061393D01*
X-7143044Y-43151713D01*
X-7336001Y-43263116D01*
X-7420630Y-43289220D01*
X-7508204Y-43276019D01*
X-7581378Y-43226129D01*
X-7625659Y-43149431D01*
X-7634500Y-43090776D01*
X-7634500Y-35315759D01*
X-7614793Y-35229416D01*
X-7559574Y-35160175D01*
X-7479782Y-35121748D01*
X-7462631Y-35118618D01*
X-7191642Y-35081371D01*
X-6914942Y-35003844D01*
X-6697958Y-34909595D01*
X-6651379Y-34889363D01*
X-6651379Y-34889362D01*
X-6651375Y-34889361D01*
X-6405853Y-34740055D01*
X-6182947Y-34558708D01*
X-5986811Y-34348698D01*
X-5821099Y-34113936D01*
X-5688896Y-33858797D01*
X-5592666Y-33588032D01*
X-5534202Y-33306686D01*
X-5514592Y-33020000D01*
X-5534202Y-32733314D01*
X-5592666Y-32451968D01*
X-5688896Y-32181203D01*
X-5773694Y-32017552D01*
X-5821099Y-31926064D01*
X-5986806Y-31691309D01*
X-5986807Y-31691308D01*
X-5986811Y-31691302D01*
X-6182947Y-31481292D01*
X-6182949Y-31481291D01*
X-6182951Y-31481288D01*
X-6405853Y-31299945D01*
X-6405858Y-31299941D01*
X-6651378Y-31150637D01*
X-6651379Y-31150636D01*
X-6914944Y-31036155D01*
X-7191645Y-30958628D01*
X-7191651Y-30958627D01*
X-7476315Y-30919500D01*
X-7476322Y-30919500D01*
X-7763678Y-30919500D01*
X-7763686Y-30919500D01*
X-8048350Y-30958627D01*
X-8048356Y-30958628D01*
X-8325057Y-31036155D01*
X-8588622Y-31150636D01*
X-8588623Y-31150637D01*
X-8834143Y-31299941D01*
X-8834148Y-31299945D01*
X-9057050Y-31481288D01*
X-9253190Y-31691302D01*
X-9257083Y-31696088D01*
X-9326861Y-31750628D01*
X-9411448Y-31769500D01*
X-10908552Y-31769500D01*
X-10994895Y-31749793D01*
X-11062917Y-31696088D01*
X-11066811Y-31691302D01*
X-11261866Y-31482450D01*
X-11262947Y-31481292D01*
X-11262949Y-31481291D01*
X-11262951Y-31481288D01*
X-11485853Y-31299945D01*
X-11485858Y-31299941D01*
X-11731378Y-31150637D01*
X-11731379Y-31150636D01*
X-11994944Y-31036155D01*
X-12271645Y-30958628D01*
X-12271651Y-30958627D01*
X-12556315Y-30919500D01*
X-12556322Y-30919500D01*
X-12843678Y-30919500D01*
X-12843686Y-30919500D01*
X-13128350Y-30958627D01*
X-13128356Y-30958628D01*
X-13405057Y-31036155D01*
X-13668622Y-31150636D01*
X-13668623Y-31150637D01*
X-13914143Y-31299941D01*
X-13914148Y-31299945D01*
X-14137050Y-31481288D01*
X-14333185Y-31691297D01*
X-14333195Y-31691309D01*
X-14498902Y-31926064D01*
X-14631100Y-32181193D01*
X-14631105Y-32181204D01*
X-14693135Y-32355739D01*
X-14723083Y-32440009D01*
X-14727334Y-32451969D01*
X-14727337Y-32451977D01*
X-14785798Y-32733312D01*
X-14805408Y-33019998D01*
X-14805408Y-33020001D01*
X-14785798Y-33306687D01*
X-14727337Y-33588022D01*
X-14727335Y-33588027D01*
X-14727334Y-33588032D01*
X-14676230Y-33731825D01*
X-14631105Y-33858795D01*
X-14631100Y-33858806D01*
X-14548121Y-34018947D01*
X-14525895Y-34104676D01*
X-14543067Y-34191559D01*
X-14596235Y-34262387D01*
X-14674869Y-34303132D01*
X-14724810Y-34309500D01*
X-18235500Y-34309500D01*
X-18321843Y-34289793D01*
X-18391084Y-34234574D01*
X-18429511Y-34154782D01*
X-18434500Y-34110500D01*
X-18434500Y-24309500D01*
X-18414793Y-24223157D01*
X-18359574Y-24153916D01*
X-18279782Y-24115489D01*
X-18235500Y-24110500D01*
X-14491448Y-24110500D01*
X-14405105Y-24130207D01*
X-14337083Y-24183912D01*
X-14333190Y-24188697D01*
X-14137050Y-24398711D01*
X-13914148Y-24580054D01*
X-13914143Y-24580058D01*
X-13668623Y-24729362D01*
X-13668622Y-24729363D01*
X-13506255Y-24799888D01*
X-13405058Y-24843844D01*
X-13128358Y-24921371D01*
X-12986018Y-24940935D01*
X-12843686Y-24960499D01*
X-12843684Y-24960499D01*
X-12843678Y-24960500D01*
X-12843676Y-24960500D01*
X-12556324Y-24960500D01*
X-12556322Y-24960500D01*
X-12271642Y-24921371D01*
X-11994942Y-24843844D01*
X-11792550Y-24755932D01*
X-11731379Y-24729363D01*
X-11731379Y-24729362D01*
X-11731375Y-24729361D01*
X-11485853Y-24580055D01*
X-11262947Y-24398708D01*
X-11066811Y-24188698D01*
X-10901099Y-23953936D01*
X-10768896Y-23698797D01*
X-10672666Y-23428032D01*
X-10614202Y-23146686D01*
X-10594592Y-22860000D01*
X-10614202Y-22573314D01*
X-10672666Y-22291968D01*
X-10768896Y-22021203D01*
X-10819657Y-21923240D01*
X-10901099Y-21766064D01*
X-11066806Y-21531309D01*
X-11066807Y-21531308D01*
X-11066811Y-21531302D01*
X-11206909Y-21381294D01*
X-11262945Y-21321294D01*
X-11275598Y-21311000D01*
X-11286090Y-21302464D01*
X-11340627Y-21232688D01*
X-11359500Y-21148100D01*
X-11359500Y-20827619D01*
X-11339793Y-20741276D01*
X-11286085Y-20673252D01*
X-11172951Y-20581211D01*
X-11172947Y-20581208D01*
X-10976811Y-20371198D01*
X-10811099Y-20136436D01*
X-10678896Y-19881297D01*
X-10582666Y-19610532D01*
X-10524202Y-19329186D01*
X-10504592Y-19042500D01*
X-10505072Y-19035489D01*
X-10509572Y-18969699D01*
X-10524202Y-18755814D01*
X-10582666Y-18474468D01*
X-10678896Y-18203703D01*
X-10811099Y-17948564D01*
X-10976811Y-17713802D01*
X-11172947Y-17503792D01*
X-11172949Y-17503791D01*
X-11172951Y-17503788D01*
X-11395853Y-17322445D01*
X-11395858Y-17322441D01*
X-11641378Y-17173137D01*
X-11641379Y-17173136D01*
X-11904944Y-17058655D01*
X-12181645Y-16981128D01*
X-12181651Y-16981127D01*
X-12466315Y-16942000D01*
X-12466322Y-16942000D01*
X-12753678Y-16942000D01*
X-12753686Y-16942000D01*
X-13038350Y-16981127D01*
X-13038356Y-16981128D01*
X-13315057Y-17058655D01*
X-13578622Y-17173136D01*
X-13578623Y-17173137D01*
X-13824143Y-17322441D01*
X-13824148Y-17322445D01*
X-14047050Y-17503788D01*
X-14243185Y-17713797D01*
X-14243195Y-17713809D01*
X-14408902Y-17948564D01*
X-14541100Y-18203693D01*
X-14541105Y-18203704D01*
X-14637334Y-18474469D01*
X-14637337Y-18474477D01*
X-14695798Y-18755812D01*
X-14715408Y-19042498D01*
X-14715408Y-19042501D01*
X-14695798Y-19329187D01*
X-14637337Y-19610522D01*
X-14637335Y-19610527D01*
X-14637334Y-19610532D01*
X-14591318Y-19740009D01*
X-14541105Y-19881295D01*
X-14541100Y-19881306D01*
X-14408902Y-20136435D01*
X-14408901Y-20136436D01*
X-14243189Y-20371198D01*
X-14243185Y-20371202D01*
X-14047057Y-20581204D01*
X-14047050Y-20581211D01*
X-13933915Y-20673252D01*
X-13879374Y-20743028D01*
X-13860500Y-20827619D01*
X-13860500Y-21001659D01*
X-13880207Y-21088002D01*
X-13933914Y-21156026D01*
X-14137050Y-21321288D01*
X-14333190Y-21531302D01*
X-14337083Y-21536088D01*
X-14406861Y-21590628D01*
X-14491448Y-21609500D01*
X-19783417Y-21609500D01*
X-19977821Y-21640289D01*
X-19977829Y-21640291D01*
X-20165018Y-21701113D01*
X-20165019Y-21701113D01*
X-20340408Y-21790477D01*
X-20461844Y-21878706D01*
X-20499646Y-21906172D01*
X-20499648Y-21906173D01*
X-20499651Y-21906176D01*
X-20499653Y-21906177D01*
X-20638823Y-22045347D01*
X-20638824Y-22045349D01*
X-20754523Y-22204592D01*
X-20843887Y-22379981D01*
X-20843887Y-22379982D01*
X-20904709Y-22567171D01*
X-20904711Y-22567179D01*
X-20935500Y-22761583D01*
X-20935500Y-29030500D01*
X-20955207Y-29116843D01*
X-21010426Y-29186084D01*
X-21090218Y-29224511D01*
X-21134500Y-29229500D01*
X-24055777Y-29229500D01*
X-24142120Y-29209793D01*
X-24211361Y-29154574D01*
X-24249788Y-29074782D01*
X-24249788Y-28986218D01*
X-24228116Y-28931000D01*
X-24209933Y-28899504D01*
X-24116716Y-28738049D01*
X-24026394Y-28519993D01*
X-23965307Y-28292014D01*
X-23934500Y-28058011D01*
X-23934500Y-27821989D01*
X-23965307Y-27587986D01*
X-24026394Y-27360007D01*
X-24116716Y-27141951D01*
X-24190560Y-27014049D01*
X-24234724Y-26937554D01*
X-24347069Y-26791143D01*
X-24383996Y-26710646D01*
X-24382340Y-26622098D01*
X-24347069Y-26548857D01*
X-24234727Y-26402450D01*
X-24116716Y-26198049D01*
X-24026394Y-25979993D01*
X-23965307Y-25752014D01*
X-23934500Y-25518011D01*
X-23934500Y-25281989D01*
X-23965307Y-25047986D01*
X-24026394Y-24820007D01*
X-24116716Y-24601951D01*
X-24190560Y-24474049D01*
X-24234724Y-24397554D01*
X-24347069Y-24251143D01*
X-24383996Y-24170646D01*
X-24382340Y-24082098D01*
X-24347069Y-24008857D01*
X-24304926Y-23953935D01*
X-24234727Y-23862450D01*
X-24116716Y-23658049D01*
X-24026394Y-23439993D01*
X-23965307Y-23212014D01*
X-23934500Y-22978011D01*
X-23934500Y-22741989D01*
X-23965307Y-22507986D01*
X-24026394Y-22280007D01*
X-24102757Y-22095652D01*
X-24117591Y-22008342D01*
X-24093074Y-21923240D01*
X-24034060Y-21857204D01*
X-23952238Y-21823312D01*
X-23918904Y-21820500D01*
X-23376908Y-21820500D01*
X-23143638Y-21783554D01*
X-23143638Y-21783553D01*
X-23143632Y-21783553D01*
X-22919008Y-21710568D01*
X-22900451Y-21701113D01*
X-22708569Y-21603344D01*
X-22708570Y-21603344D01*
X-22708567Y-21603343D01*
X-22523463Y-21468857D01*
X-22517495Y-21464521D01*
X-22517488Y-21464515D01*
X-22350485Y-21297512D01*
X-22350479Y-21297505D01*
X-22220097Y-21118049D01*
X-22211657Y-21106433D01*
X-22104432Y-20895992D01*
X-22031447Y-20671368D01*
X-21994500Y-20438092D01*
X-21994500Y-15121908D01*
X-21994500Y-10041908D01*
X-22031447Y-9808632D01*
X-22104432Y-9584008D01*
X-22104434Y-9584004D01*
X-22104435Y-9584001D01*
X-22211656Y-9373568D01*
X-22350479Y-9182494D01*
X-22350485Y-9182487D01*
X-22517488Y-9015484D01*
X-22517495Y-9015478D01*
X-22708569Y-8876655D01*
X-22919002Y-8769434D01*
X-22919013Y-8769430D01*
X-23143630Y-8696447D01*
X-23143638Y-8696445D01*
X-23376908Y-8659500D01*
X-24335500Y-8659500D01*
X-24421843Y-8639793D01*
X-24491084Y-8584574D01*
X-24529511Y-8504782D01*
X-24534500Y-8460500D01*
X-24534500Y-4961908D01*
X-24571446Y-4728637D01*
X-24571448Y-4728629D01*
X-24608270Y-4615304D01*
X-24644432Y-4504008D01*
X-24644434Y-4504004D01*
X-24644435Y-4504001D01*
X-24751656Y-4293568D01*
X-24890479Y-4102494D01*
X-24890485Y-4102487D01*
X-25057488Y-3935484D01*
X-25057495Y-3935478D01*
X-25248569Y-3796655D01*
X-25459002Y-3689434D01*
X-25459013Y-3689430D01*
X-25683630Y-3616447D01*
X-25683638Y-3616445D01*
X-25916908Y-3579500D01*
X-42581881Y-3579500D01*
X-42668224Y-3559793D01*
X-42701138Y-3539807D01*
X-42784883Y-3477115D01*
X-42784889Y-3477111D01*
X-43023484Y-3346829D01*
X-43023489Y-3346827D01*
X-43155027Y-3297766D01*
X-43278199Y-3251825D01*
X-43278201Y-3251824D01*
X-43278205Y-3251823D01*
X-43543839Y-3194039D01*
X-43815000Y-3174645D01*
X-44086162Y-3194039D01*
X-44351796Y-3251823D01*
X-44606512Y-3346827D01*
X-44606517Y-3346829D01*
X-44845112Y-3477111D01*
X-44845118Y-3477115D01*
X-45062747Y-3640032D01*
X-45254968Y-3832253D01*
X-45417885Y-4049882D01*
X-45417889Y-4049888D01*
X-45548171Y-4288483D01*
X-45548173Y-4288488D01*
X-45643177Y-4543204D01*
X-45700961Y-4808838D01*
X-45720355Y-5080000D01*
X-45700961Y-5351161D01*
X-45700961Y-5351164D01*
X-45672211Y-5483327D01*
X-45673114Y-5571885D01*
X-45712353Y-5651282D01*
X-45782154Y-5705791D01*
X-45852466Y-5724119D01*
X-45991162Y-5734039D01*
X-46256796Y-5791823D01*
X-46511512Y-5886827D01*
X-46511517Y-5886829D01*
X-46750112Y-6017111D01*
X-46750118Y-6017115D01*
X-46967747Y-6180032D01*
X-47159968Y-6372253D01*
X-47322885Y-6589882D01*
X-47322889Y-6589888D01*
X-47453171Y-6828483D01*
X-47453173Y-6828488D01*
X-47548177Y-7083204D01*
X-47605961Y-7348838D01*
X-47625355Y-7620000D01*
X-47605961Y-7891161D01*
X-47548177Y-8156795D01*
X-47453173Y-8411511D01*
X-47453171Y-8411516D01*
X-47341989Y-8615130D01*
X-47317906Y-8700356D01*
X-47333186Y-8787591D01*
X-47384803Y-8859557D01*
X-47462533Y-8902001D01*
X-47516647Y-8909500D01*
X-48010359Y-8909500D01*
X-48096702Y-8889793D01*
X-48151071Y-8851216D01*
X-48282258Y-8720029D01*
X-48308538Y-8700356D01*
X-48499883Y-8557115D01*
X-48499889Y-8557111D01*
X-48738484Y-8426829D01*
X-48738489Y-8426827D01*
X-48899495Y-8366775D01*
X-48993199Y-8331825D01*
X-48993201Y-8331824D01*
X-48993205Y-8331823D01*
X-49258839Y-8274039D01*
X-49530000Y-8254645D01*
X-49801162Y-8274039D01*
X-50066796Y-8331823D01*
X-50321512Y-8426827D01*
X-50432299Y-8487321D01*
X-50517525Y-8511403D01*
X-50604760Y-8496123D01*
X-50676726Y-8444505D01*
X-50719170Y-8366775D01*
X-50723683Y-8278326D01*
X-50711522Y-8236514D01*
X-50696394Y-8199993D01*
X-50635307Y-7972014D01*
X-50604500Y-7738011D01*
X-50604500Y-7501989D01*
X-50635307Y-7267986D01*
X-50696394Y-7040007D01*
X-50786716Y-6821951D01*
X-50882859Y-6655426D01*
X-50904724Y-6617554D01*
X-50904727Y-6617550D01*
X-51017070Y-6471142D01*
X-51053996Y-6390646D01*
X-51052340Y-6302098D01*
X-51017069Y-6228857D01*
X-50904727Y-6082450D01*
X-50786716Y-5878049D01*
X-50696394Y-5659993D01*
X-50635307Y-5432014D01*
X-50604500Y-5198011D01*
X-50604500Y-4961989D01*
X-50635307Y-4727986D01*
X-50696394Y-4500007D01*
X-50786716Y-4281951D01*
X-50860560Y-4154049D01*
X-50904724Y-4077554D01*
X-51017069Y-3931143D01*
X-51053996Y-3850646D01*
X-51052340Y-3762098D01*
X-51017069Y-3688857D01*
X-50904727Y-3542450D01*
X-50786716Y-3338049D01*
X-50696394Y-3119993D01*
X-50635307Y-2892014D01*
X-50604500Y-2658011D01*
X-50604500Y-2421989D01*
X-50635307Y-2187986D01*
X-50696394Y-1960007D01*
X-50786716Y-1741951D01*
X-50860560Y-1614049D01*
X-50904724Y-1537554D01*
X-51048411Y-1350297D01*
X-51215298Y-1183410D01*
X-51402555Y-1039723D01*
X-51525867Y-968530D01*
X-51606951Y-921716D01*
X-51699571Y-883351D01*
X-51771799Y-832103D01*
X-51814638Y-754591D01*
X-51819604Y-666167D01*
X-51785713Y-584345D01*
X-51719676Y-525331D01*
X-51634574Y-500813D01*
X-51623416Y-500500D01*
X-699500Y-500500D01*
X-613157Y-520207D01*
G37*
G04 #@! TD.AperFunction*
G04 #@! TA.AperFunction,NonConductor*
G36*
X-43866699Y-94748975D02*
G01*
X-43804075Y-94811599D01*
X-43800234Y-94817973D01*
X-43705275Y-94982447D01*
X-43705273Y-94982451D01*
X-43592932Y-95128858D01*
X-43556005Y-95209355D01*
X-43557662Y-95297903D01*
X-43592932Y-95371142D01*
X-43705273Y-95517548D01*
X-43705275Y-95517552D01*
X-43823285Y-95721953D01*
X-43823286Y-95721955D01*
X-43913607Y-95940009D01*
X-43925181Y-95983204D01*
X-43974693Y-96167986D01*
X-44005500Y-96401989D01*
X-44005500Y-96638011D01*
X-43974693Y-96872014D01*
X-43913606Y-97099993D01*
X-43823284Y-97318049D01*
X-43798775Y-97360500D01*
X-43705277Y-97522445D01*
X-43561590Y-97709702D01*
X-43394703Y-97876589D01*
X-43207446Y-98020276D01*
X-43160879Y-98047161D01*
X-43003049Y-98138284D01*
X-42784993Y-98228606D01*
X-42557014Y-98289693D01*
X-42323011Y-98320500D01*
X-42323008Y-98320500D01*
X-41486992Y-98320500D01*
X-41486989Y-98320500D01*
X-41252986Y-98289693D01*
X-41025007Y-98228606D01*
X-40806951Y-98138284D01*
X-40649121Y-98047161D01*
X-40564492Y-98021056D01*
X-40549621Y-98020500D01*
X-40434500Y-98020500D01*
X-40348157Y-98040207D01*
X-40278916Y-98095426D01*
X-40240489Y-98175218D01*
X-40235500Y-98219500D01*
X-40235500Y-98543091D01*
X-40198555Y-98776362D01*
X-40198553Y-98776370D01*
X-40125570Y-99000987D01*
X-40125566Y-99000998D01*
X-40018345Y-99211431D01*
X-39879522Y-99402505D01*
X-39879516Y-99402512D01*
X-39712513Y-99569515D01*
X-39712506Y-99569521D01*
X-39521432Y-99708344D01*
X-39310999Y-99815565D01*
X-39310996Y-99815566D01*
X-39310992Y-99815568D01*
X-39086368Y-99888553D01*
X-39086366Y-99888553D01*
X-39086363Y-99888554D01*
X-38853092Y-99925500D01*
X-32747461Y-99925500D01*
X-32661118Y-99945207D01*
X-32591877Y-100000426D01*
X-32553450Y-100080218D01*
X-32553450Y-100168782D01*
X-32558199Y-100185987D01*
X-32578553Y-100248632D01*
X-32578554Y-100248637D01*
X-32578555Y-100248637D01*
X-32615500Y-100481908D01*
X-32615500Y-100718091D01*
X-32591540Y-100869370D01*
X-32597498Y-100957732D01*
X-32641204Y-101034760D01*
X-32714004Y-101085195D01*
X-32788090Y-101099500D01*
X-51006200Y-101099500D01*
X-51092543Y-101079793D01*
X-51161784Y-101024574D01*
X-51200211Y-100944782D01*
X-51200211Y-100856218D01*
X-51161784Y-100776426D01*
X-51098338Y-100724115D01*
X-51051593Y-100699698D01*
X-50893891Y-100571109D01*
X-50765302Y-100413407D01*
X-50765301Y-100413404D01*
X-50759752Y-100404985D01*
X-50757877Y-100406221D01*
X-50709912Y-100349948D01*
X-50628908Y-100314147D01*
X-50590983Y-100310500D01*
X-50066583Y-100310500D01*
X-49872180Y-100279710D01*
X-49872180Y-100279709D01*
X-49872174Y-100279709D01*
X-49684974Y-100218884D01*
X-49674425Y-100213509D01*
X-49509600Y-100129527D01*
X-49509598Y-100129525D01*
X-49509595Y-100129524D01*
X-49350354Y-100013828D01*
X-44113285Y-94776757D01*
X-44038299Y-94729640D01*
X-43950292Y-94719724D01*
X-43866699Y-94748975D01*
G37*
G04 #@! TD.AperFunction*
M02*
